<?xml version="1.0" encoding="UTF-8" standalone="no"?>
<!-- Created with Inkscape (http://www.inkscape.org/) -->

<svg
   width="48"
   height="48"
   viewBox="0 0 48 48"
   version="1.1"
   id="svg1"
   inkscape:version="1.4.4 (dcaf3e7d9e, 2026-05-05)"
   sodipodi:docname="moustache-5.svg"
   xmlns:inkscape="http://www.inkscape.org/namespaces/inkscape"
   xmlns:sodipodi="http://sodipodi.sourceforge.net/DTD/sodipodi-0.dtd"
   xmlns="http://www.w3.org/2000/svg"
   xmlns:svg="http://www.w3.org/2000/svg">
  <sodipodi:namedview
     id="namedview1"
     pagecolor="#ffffff"
     bordercolor="#000000"
     borderopacity="0.25"
     inkscape:showpageshadow="2"
     inkscape:pageopacity="0.0"
     inkscape:pagecheckerboard="0"
     inkscape:deskcolor="#d1d1d1"
     inkscape:document-units="px"
     inkscape:zoom="16.375"
     inkscape:cx="23.969466"
     inkscape:cy="24"
     inkscape:window-width="1920"
     inkscape:window-height="975"
     inkscape:window-x="0"
     inkscape:window-y="0"
     inkscape:window-maximized="1"
     inkscape:current-layer="layer1" />
  <defs
     id="defs1">
    <linearGradient
       id="gradient_1"
       gradientUnits="userSpaceOnUse"
       x1="578.40814"
       y1="303.11703"
       x2="533.7403"
       y2="411.5657"
       gradientTransform="matrix(0.07663228,0,0,0.07663228,-10.195228,-7.7477476)">
      <stop
         offset="0"
         stop-color="#23150C"
         id="stop88" />
      <stop
         offset="1"
         stop-color="#191F2E"
         id="stop89" />
    </linearGradient>
    <linearGradient
       id="gradient_0"
       gradientUnits="userSpaceOnUse"
       x1="1199.4579"
       y1="341.29996"
       x2="1134.8563"
       y2="369.59442"
       gradientTransform="matrix(0.07627941,0,0,0.07627941,-61.593961,-5.5287206)">
      <stop
         offset="0"
         stop-color="#191321"
         id="stop32" />
      <stop
         offset="1"
         stop-color="#23072E"
         id="stop33" />
    </linearGradient>
    <linearGradient
       id="gradient_2"
       gradientUnits="userSpaceOnUse"
       x1="520.77728"
       y1="370.43356"
       x2="522.47272"
       y2="381.06644"
       gradientTransform="matrix(0.10198695,0,0,0.10198695,-21.853728,-15.023052)">
      <stop
         offset="0"
         stop-color="#FDD3CA"
         stop-opacity="0.97254902"
         id="stop114" />
      <stop
         offset="1"
         stop-color="#F4C89E"
         id="stop115" />
    </linearGradient>
    <linearGradient
       id="gradient_2-3"
       gradientUnits="userSpaceOnUse"
       x1="520.77728"
       y1="370.43356"
       x2="522.47272"
       y2="381.06644"
       gradientTransform="matrix(0.10198695,0,0,0.10198695,-21.342278,-15.145189)">
      <stop
         offset="0"
         stop-color="#FDD3CA"
         stop-opacity="0.97254902"
         id="stop114-0" />
      <stop
         offset="1"
         stop-color="#F4C89E"
         id="stop115-4" />
    </linearGradient>
    <linearGradient
       id="gradient_0-7"
       gradientUnits="userSpaceOnUse"
       x1="903.21552"
       y1="434.23837"
       x2="1186.8584"
       y2="338.74323"
       gradientTransform="matrix(0.10259258,0,0,0.10259258,-83.630061,-15.309143)">
      <stop
         offset="0"
         stop-color="#0F55AA"
         id="stop1" />
      <stop
         offset="1"
         stop-color="#1972BD"
         id="stop2" />
    </linearGradient>
    <linearGradient
       id="gradient_1-6"
       gradientUnits="userSpaceOnUse"
       x1="1081.355"
       y1="436.78937"
       x2="1053.9287"
       y2="406.67227"
       gradientTransform="matrix(0.10259258,0,0,0.10259258,-83.630061,-15.309143)">
      <stop
         offset="0"
         stop-color="#156AB8"
         id="stop12" />
      <stop
         offset="1"
         stop-color="#1D83D0"
         id="stop13" />
    </linearGradient>
  </defs>
  <g
     inkscape:label="Calque 1"
     inkscape:groupmode="layer"
     id="layer1">
    <path
       fill="#ad32a9"
       d="m 21.587405,11.878036 c -0.292445,-0.60988 -0.582816,-1.28344 -0.758076,-1.9358402 -0.540297,-2.00647 -0.25926,-4.14567 0.780891,-5.94452 1.097187,-1.89425 2.416301,-2.96147 4.502824,-3.51753004 0.150371,0.071 0.201186,0.10681 0.336001,0.20222 -1.841782,0.88356004 -3.100747,2.09192004 -3.791416,4.05679004 -0.669927,1.90619 -0.551705,4.0009 0.327705,5.8199702 1.016298,2.08466 3.116303,3.64561 5.272308,4.32632 3.92312,1.23844 5.368752,-0.34077 9.38728,1.78682 1.451855,0.16468 1.840745,0.6412 1.628152,2.20682 -0.122371,0.9014 -0.211556,1.3747 -0.740447,2.13122 -0.06118,0.82746 -0.142074,1.3047 -0.601482,2.00273 -0.03941,0.0596 -0.357779,0.50297 -0.368149,0.52671 -0.04874,1.14894 -0.227112,2.21771 -1.118966,3.03739 -1.793041,1.64785 -5.090826,0.54403 -5.281641,4.06208 -0.23126,4.28878 5.82505,5.51104 2.723265,12.39107 l -0.15763,-0.21509 c 0.256149,-0.77663 0.33289,-1.60077 0.225038,-2.41111 -0.209482,-1.59424 -1.120003,-2.91657 -2.327117,-3.94614 -0.209481,-0.17879 -0.429334,-0.26715 -0.664742,-0.45112 l -0.03941,-0.0306 -0.128593,0.095 c 0.470816,0.39335 1.050521,1.56334 1.282818,2.15508 1.235113,3.14606 0.132741,5.55044 -2.176746,7.73247 l -0.164889,-0.22472 c 0.257186,-0.15245 0.440741,-0.43079 0.606668,-0.67522 0.857631,-1.23988 1.179113,-2.77304 0.890817,-4.2529 -0.336001,-1.72138 -1.366818,-2.90827 -2.787562,-3.86567 0.964446,1.1367 1.432151,2.11027 1.605337,3.59511 0.03733,0.60843 0,1.38818 -0.229186,1.95585 -0.06948,0.28353 -0.158667,0.51956 -0.289334,0.78027 -0.677187,1.89229 -2.580154,3.43105 -4.344158,4.26203 -0.149333,0.0704 -0.300741,0.1373 -0.454223,0.20046 l -0.07674,-0.21612 c 0.998669,-0.67117 1.885338,-1.44128 2.562524,-2.44534 0.845187,-1.25347 1.321188,-2.7327 1.011114,-4.24574 -0.340149,-1.66238 -1.426966,-2.5028 -2.747117,-3.37992 0.121333,0.12289 0.239556,0.2494 0.35363,0.37945 0.796446,0.91861 1.227854,2.14283 1.126225,3.35824 -0.130667,1.57641 -1.036003,2.67805 -2.199561,3.64665 l -0.121333,-0.11428 c 0.402371,-0.39449 0.764298,-0.81128 1.01215,-1.32254 0.535112,-1.1005 0.383705,-2.17177 -0.0041,-3.27922 -0.216741,-0.29379 -0.395112,-0.62067 -0.610816,-0.91954 -0.809928,-0.37251 -1.989042,-1.14738 -2.736747,-1.65636 0.748742,1.31258 2.284598,2.59 2.466079,3.85737 l 0.0073,0.0551 c 0.05807,0.4089 -0.09126,1.01806 -0.171112,1.43961 -0.161778,-2.62962 -0.91052,-2.22206 -2.775117,-3.53869 -1.347114,-0.95158 -2.253487,-2.51295 -2.487857,-4.15935 -0.0052,-1.02118 -0.102667,-0.95812 0.056,-2.12272 l -0.243705,-0.18086 -0.01452,0.0502 c -0.166963,0.38475 -0.194963,0.58603 -0.282075,0.99224 -0.120296,0.26258 -0.12963,0.59713 -0.134815,0.88118 -0.133778,1.06877 -0.03007,2.15403 0.302816,3.17842 0.660594,1.9684 2.107264,3.28057 3.921045,4.18476 -4.626232,-0.96279 -7.436609,-5.09114 -6.120606,-9.76777 0.08504,-0.30022 0.351557,-0.80495 0.30489,-1.09864 l -0.16489,0.0145 c -1.505781,2.7914 -2.085486,5.4932 -0.766372,8.49491 -0.01037,0.0165 -0.0197,0.0331 -0.03007,0.0494 -0.0041,0.006 -0.0093,0.0111 -0.01244,0.0172 -0.02385,0.0405 -0.0083,0.0787 0.0062,0.11926 0.337038,0.93592 1.62193,2.30606 2.536598,2.69329 0.04563,0.0194 0.08504,0.0214 0.133778,0.0297 0.0031,5.2e-4 0.0052,0.002 0.0083,0.004 0.01141,0.0572 -0.01452,0.0771 -0.03422,0.12911 -0.0062,0.0154 -0.02593,0.0961 -0.03007,0.11438 -0.565186,-0.19569 -1.114817,-0.4258 -1.633337,-0.72478 -1.655115,-0.95304 -2.790673,-2.53411 -3.279118,-4.3704 -0.404445,-1.03071 -0.345334,-3.07295 -0.501927,-3.31572 l -0.03319,-0.11014 c -0.125482,-0.42995 0.162815,-1.19799 -0.144149,-1.38807 -0.553779,-0.34306 -0.787113,0.6862 -0.930224,1.06535 -0.256149,0.88158 -0.403408,1.55898 -0.461483,2.48288 -0.01452,0.22203 -0.01867,1.19269 -0.07259,1.31216 l -0.04667,-0.11117 c -0.02074,-0.051 -0.03837,-0.0959 -0.06948,-0.14166 -0.555853,-3.96885 0.257186,-8.12997 1.174966,-11.99128 0.09644,-0.40725 0.224,-0.78141 0.293482,-1.19893 l 0.01037,-0.0642 c -0.110963,-0.005 -0.220889,-0.0121 -0.331852,-0.0198 -0.512298,0.31039 -1.26104,2.26448 -1.496448,2.88795 l -0.155556,-0.12393 c 0.261334,-2.19126 1.51304,-4.22614 2.854969,-5.90749 -1.202965,0.45402 -1.995263,1.21054 -2.831117,2.15082 l -0.154519,-0.0656 c 0.605631,-1.44294 2.081338,-2.81971 3.431563,-3.60569 -1.223706,0.19808 -1.762967,0.37997 -2.879858,0.89559 l -0.193926,-0.20606 c 1.052595,-0.99763 2.061634,-1.56562 3.373489,-2.14034 -1.372003,-0.18646 -2.233783,0.081 -3.564305,0.39853 1.112744,-0.84467 2.35408,-1.34628 3.673194,-1.76577 0.638816,-0.0448 2.178819,-0.95034 2.92134,-1.2291 2.331264,-0.87474 4.082823,-1.17351 6.546829,-1.3132 -1.108595,-0.70809 -1.936153,-1.42302 -2.69008,-2.49719 z m -7.43972,19.53627 c 0.108889,-0.2182 0.198074,-0.45609 0.304889,-0.65769 0.365038,-0.7333 0.624298,-1.08392 1.100299,-1.74358 -0.410668,0.308 -1.405188,1.25337 -1.484003,1.74845 -0.222964,-0.007 -0.439705,0.43763 -0.56415,0.61994 -0.128593,0.19382 -0.817187,1.11928 -0.01244,0.98788 0.417927,-0.0683 0.537186,-0.5798 0.655409,-0.955 z"
       id="path45"
       style="stroke-width:0.103704" />
    <path
       fill="#161312"
       d="m 35.114546,24.410756 c 0.993483,0.005 1.669633,-0.31266 2.44845,-0.87101 -0.04874,1.14894 -0.227112,2.21771 -1.118966,3.03739 -1.793041,1.64785 -5.090826,0.54403 -5.281641,4.06208 -0.23126,4.28878 5.82505,5.51104 2.723265,12.39107 l -0.15763,-0.21509 c 0.256149,-0.77663 0.33289,-1.60077 0.225038,-2.41111 -0.209482,-1.59424 -1.120003,-2.91657 -2.327117,-3.94614 -0.209481,-0.17879 -0.429334,-0.26715 -0.664742,-0.45112 l -0.03941,-0.0306 -0.128593,0.095 c 0.470816,0.39335 1.050521,1.56334 1.282818,2.15508 1.235113,3.14606 0.132741,5.55044 -2.176746,7.73247 l -0.164889,-0.22472 c 0.257186,-0.15245 0.440741,-0.43079 0.606668,-0.67522 0.857631,-1.23988 1.179113,-2.77304 0.890817,-4.2529 -0.336001,-1.72138 -1.366818,-2.90827 -2.787562,-3.86567 0.964446,1.1367 1.432151,2.11027 1.605337,3.59511 -0.09437,0.15991 -0.180445,0.36939 -0.379557,0.41512 -0.04252,0.01 -0.04148,0.005 -0.09644,0.0106 -0.04045,0.004 -0.08089,0.0106 -0.121334,0.0162 -0.191852,-1.17154 -0.526816,-2.07418 -0.925039,-3.18039 -0.520594,-0.14778 -1.165632,-0.30375 -1.636448,-0.55109 -2.648599,-1.39398 -3.065488,-4.35432 -1.731856,-6.84549 1.476744,-2.76081 4.35764,-4.28069 7.217794,-5.23249 0.920891,-0.30634 1.841782,-0.47175 2.737784,-0.75704 z"
       id="path46"
       style="stroke-width:0.103704" />
    <path
       fill="#f2ebee"
       d="m 30.793203,36.071226 c -0.275853,-0.18189 -0.590075,-0.55201 -0.812002,-0.80266 0.186667,0.11459 0.915706,0.50866 0.940595,0.70767 z"
       id="path47"
       style="stroke-width:0.103704" />
    <path
       fill="#233989"
       d="m 25.865192,39.635636 c -0.524742,-1.00748 -1.699707,-1.82218 -2.396598,-2.74556 -1.036002,-1.37335 -1.348151,-3.35721 -1.080595,-5.03337 0.93541,-5.85285 7.512313,-8.24509 12.726547,-7.44595 -0.896002,0.28529 -1.816893,0.4507 -2.737784,0.75704 -2.860154,0.9518 -5.74105,2.47168 -7.217794,5.23249 -1.333632,2.49117 -0.916743,5.45151 1.731856,6.84549 0.470816,0.24734 1.115854,0.40331 1.636448,0.55109 0.398223,1.10621 0.733187,2.00885 0.925039,3.18039 0.04044,-0.006 0.08089,-0.0121 0.121334,-0.0162 0.05496,-0.005 0.05393,-7.2e-4 0.09644,-0.0106 0.199112,-0.0457 0.285186,-0.25521 0.379557,-0.41512 0.03733,0.60843 0,1.38818 -0.229186,1.95585 -0.06948,0.28353 -0.158667,0.51956 -0.289334,0.78027 -0.677187,1.89229 -2.580154,3.43105 -4.344158,4.26203 -0.149333,0.0704 -0.300741,0.1373 -0.454223,0.20046 l -0.07674,-0.21612 c 0.998669,-0.67117 1.885338,-1.44128 2.562524,-2.44534 0.845187,-1.25347 1.321188,-2.7327 1.011114,-4.24574 -0.340149,-1.66238 -1.426966,-2.5028 -2.747117,-3.37992 0.121333,0.12289 0.239556,0.2494 0.35363,0.37945 0.796446,0.91861 1.227854,2.14283 1.126225,3.35824 -0.130667,1.57641 -1.036003,2.67805 -2.199561,3.64665 l -0.121333,-0.11428 c 0.402371,-0.39449 0.764298,-0.81128 1.01215,-1.32254 0.535112,-1.1005 0.383705,-2.17177 -0.0041,-3.27922 -0.216741,-0.29379 -0.395112,-0.62067 -0.610816,-0.91954 0.26963,0.10557 0.576594,0.41129 0.82652,0.44001 z"
       id="path48"
       style="stroke-width:0.103704" />
    <path
       fill="#242456"
       d="m 30.049646,40.535376 c 0.03733,0.60843 0,1.38818 -0.229186,1.95585 -0.07052,0.0413 -0.142074,0.10132 -0.227112,0.084 -0.03422,-0.0327 -0.0757,-1.12155 -0.118222,-1.30501 -0.01037,-0.0979 -0.01867,-0.19465 -0.02281,-0.29296 0.04044,-0.006 0.08089,-0.0121 0.121334,-0.0162 0.05496,-0.005 0.05393,-7.2e-4 0.09644,-0.0106 0.199112,-0.0457 0.285186,-0.25521 0.379557,-0.41512 z"
       id="path49"
       style="stroke-width:0.103704" />
    <path
       fill="#1a3765"
       d="m 25.038672,39.195626 c 0.26963,0.10557 0.576594,0.41129 0.82652,0.44001 0.115111,0.14145 0.300741,0.45599 0.274815,0.64877 -0.01037,0.0806 -0.08089,0.17205 -0.151407,0.21301 -0.02385,0.0138 -0.02074,0.0108 -0.0477,0.0141 -0.03733,-0.0214 -0.202223,-0.32045 -0.291408,-0.39636 -0.216741,-0.29379 -0.395112,-0.62067 -0.610816,-0.91954 z"
       id="path50"
       style="stroke-width:0.103704" />
    <path
       fill="#1a3765"
       d="m 29.475126,41.270216 c 0.04252,0.18346 0.084,1.27235 0.118222,1.30501 0.08504,0.0173 0.156593,-0.0427 0.227112,-0.084 -0.06948,0.28353 -0.158667,0.51956 -0.289334,0.78027 -0.149334,-0.62824 -0.05704,-1.35323 -0.056,-2.00128 z"
       id="path51"
       style="stroke-width:0.103704" />
    <path
       fill="#511248"
       d="m 13.854202,33.912326 c 0.06637,-0.14115 0.191853,-0.68611 0.239557,-0.86479 1.227854,-4.55509 5.269196,-7.67617 9.62891,-9.09338 2.623709,-0.85307 7.67098,-1.52902 10.332023,-0.16738 l -0.06844,0.21238 c -0.627409,-0.19786 -1.601189,-0.25086 -2.270079,-0.26102 -5.135419,-0.0774 -11.022691,1.82322 -14.019735,6.24204 -0.191852,0.28312 -0.693779,1.0163 -0.731113,1.34442 -1.505781,2.7914 -2.085486,5.4932 -0.766372,8.49491 -0.01037,0.0165 -0.0197,0.0331 -0.03007,0.0494 -0.0041,0.006 -0.0093,0.0111 -0.01244,0.0172 -0.02385,0.0405 -0.0083,0.0787 0.0062,0.11926 0.337038,0.93592 1.62193,2.30606 2.536598,2.69329 0.04563,0.0194 0.08504,0.0214 0.133778,0.0297 0.0031,5.2e-4 0.0052,0.002 0.0083,0.004 0.01141,0.0572 -0.01452,0.0771 -0.03422,0.12911 -0.0062,0.0154 -0.02593,0.0961 -0.03007,0.11438 -0.565186,-0.19569 -1.114817,-0.4258 -1.633337,-0.72478 -1.655115,-0.95304 -2.790673,-2.53411 -3.279118,-4.3704 0.04667,-0.25604 -0.118223,-1.61373 -0.12963,-1.99298 -0.02281,-0.76938 0.03007,-1.21614 0.119259,-1.97483 z"
       id="path52"
       style="stroke-width:0.103704" />
    <path
       fill="#511248"
       d="m 37.644922,16.672266 c 1.451855,0.16468 1.840745,0.6412 1.628152,2.20682 -0.122371,0.9014 -0.211556,1.3747 -0.740447,2.13122 -0.657482,0.1372 -0.976891,0.0754 -1.469484,-0.38495 -0.540298,-0.51105 -1.27867,-1.30044 -1.824152,-1.86345 -0.506076,-0.44292 -0.819262,-1.26654 -0.282075,-1.77645 0.518519,-0.49218 1.999412,-0.33196 2.688006,-0.31319 z"
       id="path53"
       style="stroke-width:0.103704" />
    <path
       fill="#320f2f"
       d="m 35.238991,18.761906 c 0.236444,-0.2772 1.418669,-0.46408 1.648892,-0.23904 0.296593,0.29089 0.232297,1.71049 0.17526,2.10249 -0.540298,-0.51105 -1.27867,-1.30044 -1.824152,-1.86345 z"
       id="path54"
       style="stroke-width:0.103704" />
    <path
       fill="#c43aaa"
       d="m 13.329461,34.454276 c -0.01452,-0.36555 0.15763,-1.66662 0.382667,-1.95814 0.12963,0.11636 -0.07467,1.13017 0.01244,1.59601 l 0.128592,-0.1764 -0.116148,0.061 0.02593,-0.0687 0.09126,0.004 c -0.08919,0.75869 -0.142074,1.20545 -0.119259,1.97483 0.01141,0.37925 0.176297,1.73694 0.12963,1.99298 -0.404445,-1.03071 -0.345334,-3.07295 -0.501927,-3.31572 z"
       id="path55"
       style="stroke-width:0.103704" />
    <path
       fill="#f2ebee"
       d="m 12.75183,24.399556 c 0.205333,-0.50939 0.616001,-0.94474 0.970668,-1.3665 -0.108889,0.25117 -0.506075,1.17818 -0.638816,1.38631 -0.110963,-0.005 -0.220889,-0.0121 -0.331852,-0.0198 z"
       id="path56"
       style="stroke-width:0.103704" />
    <path
       fill="#f2ebee"
       d="m 19.84829,31.542476 -0.451112,1.52808 -0.243705,-0.18086 c 0.212594,-0.61434 0.359853,-0.79779 0.694817,-1.34722 z"
       id="path57"
       style="stroke-width:0.103704" />
    <path
       fill="#320f2f"
       d="m 34.054692,23.786776 c 0.0757,0.0253 0.214667,0.0593 0.264445,0.11635 -0.0062,0.0606 -0.269631,0.0842 -0.33289,0.096 z"
       id="path58"
       style="stroke-width:0.103704" />
    <path
       fill="#511248"
       d="m 13.957906,27.996326 c 1.880153,-2.92476 6.015866,-5.09301 9.339577,-5.79456 3.181636,-0.67138 8.214388,-0.60346 11.034098,1.19944 -0.744594,-0.0838 -1.467411,-0.30842 -2.196449,-0.46854 -5.483864,-1.20379 -11.646989,-0.34098 -16.143591,3.17552 -0.542372,0.42394 -1.521337,1.32617 -1.894671,1.89778 z"
       id="path59"
       style="stroke-width:0.103704" />
    <path
       fill="#511248"
       d="m 14.455685,23.778166 c 4.097343,-4.59958 14.759144,-4.81902 19.510858,-1.1926 -1.340892,-0.44043 -2.892302,-1.00748 -4.241491,-1.31434 -4.163713,-0.94619 -9.121798,-0.90139 -12.982695,1.09636 -0.644001,0.33351 -1.69867,0.93416 -2.187116,1.45974 z"
       id="path60"
       style="stroke-width:0.103704" />
    <path
       fill="#511248"
       d="m 17.200728,18.478586 c 4.975715,-1.40498 12.309657,-0.0422 16.367592,3.25039 -1.298373,-0.58375 -2.655858,-1.28458 -3.987416,-1.7555 -3.954231,-1.39834 -8.054685,-2.05583 -12.211138,-1.34867 z"
       id="path61"
       style="stroke-width:0.103704" />
    <path
       fill="#fefefe"
       fill-opacity="0.0196078"
       d="m 14.147685,31.414306 c -0.118223,0.3752 -0.237482,0.88666 -0.655409,0.955 -0.804743,0.1314 -0.116149,-0.79406 0.01244,-0.98788 0.450075,0.36255 0.254075,0.43317 0.642965,0.0329 z"
       id="path62"
       style="stroke-width:0.103704" />
    <path
       fill="#fefefe"
       fill-opacity="0.113725"
       d="m 13.50472,31.381426 c 0.124445,-0.18231 0.341186,-0.62647 0.56415,-0.61994 l 0.383704,-0.005 c -0.106815,0.2016 -0.196,0.43949 -0.304889,0.65769 -0.38889,0.40029 -0.19289,0.32967 -0.642965,-0.0329 z"
       id="path63"
       style="stroke-width:0.103704" />
    <path
       fill="#f2ebee"
       fill-opacity="0.984314"
       d="m 14.06887,30.761486 c 0.07882,-0.49508 1.073335,-1.44045 1.484003,-1.74845 -0.476001,0.65966 -0.735261,1.01028 -1.100299,1.74358 z"
       id="path64"
       style="stroke-width:0.103704" />
    <path
       fill="#511248"
       d="m 15.718799,18.964646 c 0.502964,-0.19061 0.954076,-0.36193 1.481929,-0.48606 l 0.169038,0.14622 c -0.561038,0.1175 -1.083706,0.25221 -1.650967,0.33984 z"
       id="path65"
       style="stroke-width:0.103704" />
    <path
       fill="#923371"
       d="m 14.09687,28.005966 c -0.06948,0.0927 -0.390964,0.5712 -0.496742,0.5039 -0.04459,-0.1456 0.23126,-0.43649 0.357778,-0.51354 z"
       id="path66"
       style="stroke-width:0.103704" />
    <path
       fill="#923371"
       d="m 14.555241,23.827326 c -0.05082,0.0755 -0.141037,0.20585 -0.243704,0.1206 -0.01141,-0.10049 0.06533,-0.11677 0.144148,-0.16976 z"
       id="path67"
       style="stroke-width:0.103704" />
    <path
       fill="#233989"
       d="m 22.348592,1.2778358 0.04148,0.11511 c -0.53926,0.39522 -0.990372,0.72624 -1.447707,1.21199 -2.431857,2.5816 -2.418375,7.19332 0.645039,9.2731002 0.753927,1.07417 1.581485,1.7891 2.69008,2.49719 -2.464006,0.13969 -4.215565,0.43846 -6.546829,1.3132 -0.742521,0.27876 -2.282524,1.1843 -2.92134,1.2291 -2.553191,-0.93281 -3.545638,-3.29612 -3.88475,-5.8236 l 0.15763,-0.0267 c 0.780891,2.94011 2.717043,4.53113 5.721346,4.70588 -2.876747,-1.59767 -4.20312,-4.05348 -3.648304,-7.3756402 l 0.162815,0.039 c -0.103704,3.1753102 1.973486,5.6759202 5.132308,6.0736302 -0.916743,-0.66454 -1.654078,-1.2766 -2.190227,-2.29663 C 14.9265,9.6772858 15.197167,6.9752758 16.776578,4.6638158 l 0.181482,0.0725 c -1.889485,3.21617 -0.32563,7.2929802 3.243859,8.4512502 -0.692742,-0.76378 -1.328447,-1.43703 -1.753633,-2.38809 -1.283855,-2.8684602 -0.394075,-6.2750302 1.960004,-8.3053402 0.647113,-0.55793 1.158373,-0.85929 1.940301,-1.21624 z"
       id="path234"
       style="stroke-width:0.103704" />
    <path
       fill="#923371"
       fill-opacity="0.984314"
       d="m 18.777028,42.975316 c 0.0041,-0.0182 0.02385,-0.0989 0.03007,-0.11438 0.0197,-0.0521 0.04563,-0.0719 0.03422,-0.12911 -0.0031,-10e-4 -0.0052,-0.003 -0.0083,-0.004 -0.04874,-0.008 -0.08815,-0.0103 -0.133778,-0.0297 -0.914668,-0.38723 -2.19956,-1.75737 -2.536598,-2.69329 -0.01452,-0.0405 -0.03007,-0.0787 -0.0062,-0.11926 0.0031,-0.006 0.0083,-0.0113 0.01244,-0.0172 0.01037,-0.0163 0.0197,-0.0329 0.03007,-0.0494 l 0.03422,0.0479 c 1.054669,1.47488 2.052301,2.62444 3.804897,3.2925 l -0.166963,0.12724 c -0.365038,-0.097 -0.729039,-0.22431 -1.094077,-0.31184 z"
       id="path245"
       style="stroke-width:0.103704" />
    <path
       fill="#fefefe"
       fill-opacity="0.0588235"
       d="m 12.255088,34.131556 c 0.143111,-0.37915 0.376445,-1.40841 0.930224,-1.06535 0.306964,0.19008 0.01867,0.95812 0.144149,1.38807 l 0.03319,0.11014 c -0.492594,-0.13285 -0.771557,-0.48078 -1.107558,-0.43286 z"
       id="path247"
       style="stroke-width:0.103704" />
    <path
       fill="#fefefe"
       fill-opacity="0.505882"
       d="m 19.138955,32.939886 0.01452,-0.0502 0.243705,0.18086 c -0.158667,1.1646 -0.06119,1.10154 -0.056,2.12272 -0.435557,-0.0734 -0.352594,-0.0332 -0.619113,-0.37997 0.0052,-0.28405 0.01452,-0.6186 0.134815,-0.88118 0.305927,-0.36846 0.479112,-0.52785 0.282075,-0.99224 z"
       id="path253"
       style="stroke-width:0.103704" />
    <path
       fill="#fefefe"
       d="m 28.841495,46.724736 c -0.127556,0.091 -0.398223,0.26123 -0.561038,0.24993 -0.0083,-6.3e-4 -0.07985,-0.0169 -0.08815,-0.0362 -0.0093,-0.0211 0,-0.0531 0.0093,-0.0717 0.04978,-0.0974 0.176296,-0.16561 0.249926,-0.24868 0.394075,-0.4481 0.539261,-0.68756 1.156299,-0.85286 -0.05807,0.39055 -0.504001,0.67345 -0.766372,0.95947 z"
       id="path267"
       style="stroke-width:0.103704" />
    <path
       fill="#434144"
       fill-opacity="0.909804"
       d="m 29.607867,45.765266 0.126519,-0.0312 0.164889,0.22472 c -0.303853,0.30022 -0.675113,0.57566 -1.05778,0.76596 0.262371,-0.28602 0.708298,-0.56892 0.766372,-0.95947 z"
       id="path283"
       style="stroke-width:0.103704" />
    <path
       fill="#c43aaa"
       fill-opacity="0.984314"
       d="m 27.058824,0.33983576 c 0.112001,0.0392 0.210519,0.0613 0.324594,0.0895 -0.25926,0.0643 -0.713483,0.21249 -0.934373,0.25304 -0.134815,-0.0954 -0.18563,-0.13118 -0.336001,-0.20222 0.29452,-0.0318 0.645039,-0.0951 0.94578,-0.14031 z"
       id="path286"
       style="stroke-width:0.103704" />
    <path
       fill="#3162ce"
       fill-opacity="0.941176"
       d="m 24.656004,47.517866 0.07674,0.21612 c -0.467705,0.2436 -1.014224,0.40952 -1.517188,0.5713 0.478075,-0.25781 0.954076,-0.5516 1.440448,-0.78742 z"
       id="path287"
       style="stroke-width:0.103704" />
    <path
       fill="#fefefe"
       fill-opacity="0.239216"
       d="m 19.138955,32.939886 c 0.197037,0.46439 0.02385,0.62378 -0.282075,0.99224 0.08711,-0.40621 0.115112,-0.60749 0.282075,-0.99224 z"
       id="path294"
       style="stroke-width:0.103704" />
    <path
       fill="#d66ba3"
       fill-opacity="0.890196"
       d="m 11.099826,27.163576 0.155556,0.12393 c -0.130667,0.40258 -0.255112,0.84965 -0.366075,1.25938 0.02385,-0.46698 0.09437,-0.93043 0.210519,-1.38331 z"
       id="path296"
       style="stroke-width:0.103704" />
    <path
       fill="#c43aaa"
       fill-opacity="0.905882"
       d="m 10.519084,21.261586 c 0.271704,-0.27586 0.541335,-0.55472 0.807854,-0.83648 l 0.193926,0.20606 c -0.422075,0.2379 -0.600446,0.36276 -1.00178,0.63042 z"
       id="path297"
       style="stroke-width:0.103704" />
    <path
       fill="#161312"
       d="m 33.728024,42.815196 0.15763,0.21509 c -0.124445,0.20149 -0.236445,0.41004 -0.357778,0.6132 l -0.12963,-0.0445 c 0.118222,-0.25656 0.234371,-0.51759 0.329778,-0.7838 z"
       id="path298"
       style="stroke-width:0.103704" />
    <path
       fill="#857f8f"
       fill-opacity="0.921569"
       d="m 13.380276,7.4086058 0.09437,0.0732 c -0.03837,0.29131 -0.108889,0.6466 -0.156593,0.9546 l -0.162815,-0.039 c 0.07467,-0.35248 0.11926,-0.63228 0.225038,-0.98881 z"
       id="path299"
       style="stroke-width:0.103704" />
    <path
       fill="#434144"
       fill-opacity="0.807843"
       d="m 33.398246,43.598996 0.12963,0.0445 c -0.122371,0.22379 -0.362964,0.6525 -0.561039,0.79385 -0.01244,0.009 -0.02282,0.0141 -0.0363,0.007 -0.0093,-0.005 -0.01867,-0.0119 -0.01867,-0.0233 0,-0.12413 0.403409,-0.67947 0.486372,-0.82206 z"
       id="path307"
       style="stroke-width:0.103704" />
    <path
       fill="#857f8f"
       fill-opacity="0.686275"
       d="m 10.924566,11.093926 c -0.03319,-0.1598 -0.09333,-0.67355 -0.02696,-0.8037 0.08608,-0.0185 0.169038,0.69741 0.184593,0.77695 z"
       id="path309"
       style="stroke-width:0.103704" />
    <path
       fill="#a8adad"
       fill-opacity="0.513725"
       d="m 22.348592,1.2778358 c 0.713483,-0.41627004 0.765335,-0.17101 0.04148,0.11511 z"
       id="path322"
       style="stroke-width:0.103704" />
    <path
       fill="#d66ba3"
       fill-opacity="0.839216"
       d="m 10.969159,23.341266 0.154519,0.0656 c -0.056,0.0793 -0.301779,0.48067 -0.374371,0.48596 -0.03215,-0.0308 0.0093,-0.11066 0.01556,-0.14311 l -0.01659,0.0388 c 0.04667,-0.13419 0.151407,-0.31764 0.220889,-0.44727 z"
       id="path326"
       style="stroke-width:0.103704" />
    <path
       fill="#3162ce"
       fill-opacity="0.960784"
       d="m 17.017172,4.3163558 0.100593,0.12258 -0.159704,0.29732 -0.181482,-0.0725 c 0.07674,-0.11781 0.15763,-0.23364 0.240593,-0.34741 z"
       id="path337"
       style="stroke-width:0.103704" />
    <path
       fill="#f2ebee"
       fill-opacity="0.278431"
       d="m 24.269188,45.142006 c -0.06741,0.0577 -0.158667,0.15224 -0.258222,0.13813 -0.02489,-0.004 -0.02696,-0.0114 -0.04148,-0.0284 -0.0041,-0.0188 -0.0073,-0.0218 0,-0.0408 0.0363,-0.0871 0.168,-0.13958 0.244741,-0.17899 z"
       id="path348"
       style="stroke-width:0.103704" />
    <path
       fill="#4f81b4"
       fill-opacity="0.866667"
       d="m 17.269173,4.0041058 0.07778,0.11117 c -0.07467,0.10951 -0.150371,0.21737 -0.229186,0.32366 l -0.100593,-0.12258 c 0.10889,-0.11863 0.159705,-0.18397 0.252001,-0.31225 z"
       id="path349"
       style="stroke-width:0.103704" />
    <path
       fill="#857f8f"
       fill-opacity="0.756863"
       d="m 24.641486,44.716926 0.121333,0.11428 c -0.118222,0.0878 -0.239556,0.17329 -0.361927,0.25604 l 0.02385,-0.21881 c 0.07363,-0.0486 0.14726,-0.0959 0.216742,-0.15151 z"
       id="path351"
       style="stroke-width:0.103704" />
    <path
       fill="#a8adad"
       fill-opacity="0.631373"
       d="m 17.269173,4.0041058 c 0.347408,-0.4227 0.369186,-0.27689 0.07778,0.11117 z"
       id="path355"
       style="stroke-width:0.103704" />
    <path
       fill="#ac7c8a"
       fill-opacity="0.713725"
       d="m 20.038068,43.159916 c 0.06118,0.0216 0.123408,0.0402 0.183556,0.0624 0.0363,0.0135 0.07052,0.0281 0.09437,0.0593 -0.001,0.008 -0.001,0.0126 -0.0093,0.017 -0.109926,0.054 -0.317334,0.003 -0.435556,-0.0115 z"
       id="path360"
       style="stroke-width:0.103704" />
    <path
       fill="#dda1bf"
       fill-opacity="0.435294"
       d="m 27.058824,0.33983576 c 0.06741,-0.0147 0.34326,-0.074 0.383705,0.008 -0.0052,0.0424 -0.01659,0.0397 -0.05911,0.0816 -0.114075,-0.0282 -0.212593,-0.0503 -0.324594,-0.0895 z"
       id="path364"
       style="stroke-width:0.103704" />
    <path
       fill="#a8adad"
       fill-opacity="0.447059"
       d="m 24.424744,44.868436 -0.02385,0.21881 -0.131704,0.0548 -0.05496,-0.11003 z"
       id="path369"
       style="stroke-width:0.103704" />
    <path
       fill="#f2ebee"
       fill-opacity="0.415686"
       d="m 13.380276,7.4086058 c 0.0363,-0.0497 0.06222,-0.11594 0.128592,-0.1 0.03111,0.0658 -0.0041,0.11262 -0.03422,0.17318 z"
       id="path370"
       style="stroke-width:0.103704" />
    <path
       fill="#dda1bf"
       fill-opacity="0.654902"
       d="m 11.604864,37.673766 c 0.03111,0.0457 0.04874,0.0906 0.06948,0.14166 -0.01763,-0.0173 -0.0363,-0.0334 -0.05289,-0.0519 -0.02489,-0.0284 -0.01867,-0.054 -0.01659,-0.0898 z"
       id="path373"
       style="stroke-width:0.103704" />
  </g>
</svg>
