<?xml version="1.0" encoding="UTF-8" standalone="no"?>
<!-- Created with Inkscape (http://www.inkscape.org/) -->

<svg
   width="48"
   height="48"
   viewBox="0 0 48 48"
   version="1.1"
   id="svg1"
   inkscape:version="1.4.4 (dcaf3e7d9e, 2026-05-05)"
   sodipodi:docname="pierre-3.svg"
   xmlns:inkscape="http://www.inkscape.org/namespaces/inkscape"
   xmlns:sodipodi="http://sodipodi.sourceforge.net/DTD/sodipodi-0.dtd"
   xmlns="http://www.w3.org/2000/svg"
   xmlns:svg="http://www.w3.org/2000/svg">
  <sodipodi:namedview
     id="namedview1"
     pagecolor="#ffffff"
     bordercolor="#000000"
     borderopacity="0.25"
     inkscape:showpageshadow="2"
     inkscape:pageopacity="0.0"
     inkscape:pagecheckerboard="0"
     inkscape:deskcolor="#d1d1d1"
     inkscape:document-units="px"
     inkscape:zoom="5.7894368"
     inkscape:cx="4.2318452"
     inkscape:cy="21.418318"
     inkscape:window-width="1920"
     inkscape:window-height="975"
     inkscape:window-x="0"
     inkscape:window-y="0"
     inkscape:window-maximized="1"
     inkscape:current-layer="g1" />
  <defs
     id="defs1">
    <linearGradient
       id="gradient_1"
       gradientUnits="userSpaceOnUse"
       x1="578.40814"
       y1="303.11703"
       x2="533.7403"
       y2="411.5657"
       gradientTransform="matrix(0.07663228,0,0,0.07663228,-10.195228,-7.7477476)">
      <stop
         offset="0"
         stop-color="#23150C"
         id="stop88" />
      <stop
         offset="1"
         stop-color="#191F2E"
         id="stop89" />
    </linearGradient>
    <linearGradient
       id="gradient_0"
       gradientUnits="userSpaceOnUse"
       x1="1199.4579"
       y1="341.29996"
       x2="1134.8563"
       y2="369.59442"
       gradientTransform="matrix(0.07627941,0,0,0.07627941,-61.593961,-5.5287206)">
      <stop
         offset="0"
         stop-color="#191321"
         id="stop32" />
      <stop
         offset="1"
         stop-color="#23072E"
         id="stop33" />
    </linearGradient>
    <linearGradient
       id="gradient_2"
       gradientUnits="userSpaceOnUse"
       x1="520.77728"
       y1="370.43356"
       x2="522.47272"
       y2="381.06644"
       gradientTransform="matrix(0.10198695,0,0,0.10198695,-21.853728,-15.023052)">
      <stop
         offset="0"
         stop-color="#FDD3CA"
         stop-opacity="0.97254902"
         id="stop114" />
      <stop
         offset="1"
         stop-color="#F4C89E"
         id="stop115" />
    </linearGradient>
    <linearGradient
       id="gradient_2-3"
       gradientUnits="userSpaceOnUse"
       x1="520.77728"
       y1="370.43356"
       x2="522.47272"
       y2="381.06644"
       gradientTransform="matrix(0.10198695,0,0,0.10198695,-21.342278,-15.145189)">
      <stop
         offset="0"
         stop-color="#FDD3CA"
         stop-opacity="0.97254902"
         id="stop114-0" />
      <stop
         offset="1"
         stop-color="#F4C89E"
         id="stop115-4" />
    </linearGradient>
    <linearGradient
       id="gradient_0-7"
       gradientUnits="userSpaceOnUse"
       x1="903.21552"
       y1="434.23837"
       x2="1186.8584"
       y2="338.74323"
       gradientTransform="matrix(0.10259258,0,0,0.10259258,-83.630061,-15.309143)">
      <stop
         offset="0"
         stop-color="#0F55AA"
         id="stop1" />
      <stop
         offset="1"
         stop-color="#1972BD"
         id="stop2" />
    </linearGradient>
    <linearGradient
       id="gradient_1-6"
       gradientUnits="userSpaceOnUse"
       x1="1081.355"
       y1="436.78937"
       x2="1053.9287"
       y2="406.67227"
       gradientTransform="matrix(0.10259258,0,0,0.10259258,-83.630061,-15.309143)">
      <stop
         offset="0"
         stop-color="#156AB8"
         id="stop12" />
      <stop
         offset="1"
         stop-color="#1D83D0"
         id="stop13" />
    </linearGradient>
    <linearGradient
       id="gradient_0-8"
       gradientUnits="userSpaceOnUse"
       x1="1335.2476"
       y1="460.70035"
       x2="1349.0242"
       y2="465.60907"
       gradientTransform="matrix(0.09156798,0,0,0.09156798,-101.12012,-10.68287)">
      <stop
         offset="0"
         stop-color="#C13CD1"
         id="stop102" />
      <stop
         offset="1"
         stop-color="#E562FB"
         id="stop103" />
    </linearGradient>
    <linearGradient
       id="gradient_0-9"
       gradientUnits="userSpaceOnUse"
       x1="1335.2476"
       y1="460.70035"
       x2="1349.0242"
       y2="465.60907"
       gradientTransform="translate(-1239.5,-341.666)">
      <stop
         offset="0"
         stop-color="#C13CD1"
         id="stop102-6"
         style="stop-color:#0a49d1;stop-opacity:1;" />
      <stop
         offset="1"
         stop-color="#E562FB"
         id="stop103-4" />
    </linearGradient>
    <linearGradient
       id="gradient_4"
       gradientUnits="userSpaceOnUse"
       x1="902.75897"
       y1="397.44714"
       x2="867.0816"
       y2="399.92676"
       gradientTransform="matrix(1.2277132,0,0,1.2277132,-957.21525,-440.36084)">
      <stop
         offset="0"
         stop-color="#FBB65E"
         stop-opacity="0.94901961"
         id="stop240" />
      <stop
         offset="1"
         stop-color="#FDC066"
         id="stop241" />
    </linearGradient>
    <linearGradient
       id="gradient_0-3"
       gradientUnits="userSpaceOnUse"
       x1="1402.6073"
       y1="461.88513"
       x2="1411.088"
       y2="464.74893"
       gradientTransform="matrix(1.0581941,0,0,1.0581941,-1263.8211,-335.09267)">
      <stop
         offset="0"
         stop-color="#DAB9EC"
         id="stop17" />
      <stop
         offset="1"
         stop-color="#ECD9F4"
         id="stop18" />
    </linearGradient>
    <linearGradient
       id="gradient_1-0"
       gradientUnits="userSpaceOnUse"
       x1="1069.6842"
       y1="172.11546"
       x2="1054.9391"
       y2="160.33136"
       gradientTransform="matrix(1.0581941,0,0,1.0581941,-1263.8211,-335.09267)">
      <stop
         offset="0"
         stop-color="#E3C7ED"
         id="stop37" />
      <stop
         offset="1"
         stop-color="#F4EEF5"
         id="stop38" />
    </linearGradient>
    <linearGradient
       id="gradient_2-30"
       gradientUnits="userSpaceOnUse"
       x1="1116.5785"
       y1="126.2946"
       x2="1106.3921"
       y2="112.36367"
       gradientTransform="matrix(1.0581941,0,0,1.0581941,-1263.8211,-335.09267)">
      <stop
         offset="0"
         stop-color="#D3AEE5"
         id="stop70" />
      <stop
         offset="1"
         stop-color="#F4EBF7"
         id="stop71" />
    </linearGradient>
    <linearGradient
       id="gradient_5"
       gradientUnits="userSpaceOnUse"
       x1="1430.0439"
       y1="304.17383"
       x2="1422.3354"
       y2="305.43259"
       gradientTransform="matrix(1.0581941,0,0,1.0581941,-1263.8211,-335.09267)">
      <stop
         offset="0"
         stop-color="#EEDFF3"
         stop-opacity="0.98823529"
         id="stop242" />
      <stop
         offset="1"
         stop-color="#DFC5ED"
         id="stop243" />
    </linearGradient>
  </defs>
  <g
     inkscape:label="Calque 1"
     inkscape:groupmode="layer"
     id="layer1">
    <g
       id="g1"
       transform="matrix(0.08377471,0,0,0.08377471,21.451742,21.292058)">
      <g
         id="g10"
         transform="matrix(0.6126933,0,0,0.6126933,71.955505,-1.5317662)">
        <path
           fill="#211c1c"
           d="m -148.23264,-160.36824 c 10.27868,-9.9854 100.757648,-93.3515 104.717578,-93.7903 l 6.13254,5.3063 c 35.5900996,34.9244 73.92433,70.9084 108.57476,106.4621 3.62173,89.5393 3.86147,184.0467 5.1265,273.9178 l 4.88677,301.1641 c 21.394302,12.7617 43.599862,25.6497 64.392682,39.244 2.40378,13.2946 4.62992,27.788 4.11191,41.3523 -7.70581,7.5217 -10.15025,9.4118 -19.06757,15.2126 -55.937732,0.1391 -118.720762,1.7081 -174.042002,0.1798 -24.69496,0.3125 -49.9914,0.1412 -74.724888,0.1305 -28.19682,0.1006 -80.61768,1.6097 -106.71467,-1.2329 -25.51052,-4.8889 -25.23222,-22.3575 -31.22562,-44.7086 10.94438,-17.5371 23.07673,-40.4469 33.44532,-58.7696 9.56162,-2.9218 17.79827,-4.9553 27.514,-7.2392 l 9.45031,-2.5129 c 4.11618,-5.058 2.75911,-6.1925 3.17008,-14.2237 l 3.02453,-0.051 0.4388,-37.204 c -0.78984,-9.4524 -0.26756,-43.8439 1.05313,-52.5728 -1.9714,-39.5779 0.70851,-93.4329 0.0664,-134.8944 l -2.09128,-9.9662 c 1.24792,-35.8448 8.11893,-86.6004 11.87336,-123.0938 4.94884,-65.5763 13.24542,-136.8978 19.8874,-202.7097 z m -6.45361,99.3599 c 1.1944,-2.3652 0.88188,-2.5086 0.56081,-5.2228 -1.1259,2.3075 -0.8562,2.5215 -0.56081,5.2228 z"
           id="path98"
           style="stroke-width:2.14051" />
        <path
           fill="#0a7657"
           d="m -148.23264,-160.36824 c 10.27868,-9.9854 100.757648,-93.3515 104.717578,-93.7903 l 6.13254,5.3063 -5.21212,5.2806 c -0.70851,94.3833 -2.03134,188.758 -3.97063,283.1219 -2.31389,3.8957 -2.29034,6.8004 -2.85971,11.2933 -1.86652,17.1647 -1.32497,54.2853 -1.50049,73.0168 -42.08011,12.2693 -83.924758,25.3414 -125.506128,39.2075 3.16152,-39.7855 7.65657,-80.8574 11.43455,-120.7349 l -3.12299,0.01 c 4.94884,-65.5763 13.24542,-136.8978 19.8874,-202.7097 z m -6.45361,99.3599 c 1.1944,-2.3652 0.88188,-2.5086 0.56081,-5.2228 -1.1259,2.3075 -0.8562,2.5215 -0.56081,5.2228 z"
           id="path99"
           style="stroke-width:2.14051" />
        <path
           fill="#0a5d49"
           fill-opacity="0.988235"
           d="m -154.12544,-66.23114 c 0.32107,2.7142 0.63359,2.8576 -0.56081,5.2228 -0.29539,-2.7013 -0.56509,-2.9153 0.56081,-5.2228 z"
           id="path100"
           style="stroke-width:2.14051" />
        <path
           fill="#0d231e"
           d="m -148.23264,-160.36824 c 10.27868,-9.9854 100.757648,-93.3515 104.717578,-93.7903 l 6.13254,5.3063 -5.21212,5.2806 c -0.70851,94.3833 -2.03134,188.758 -3.97063,283.1219 -2.31389,3.8957 -2.29034,6.8004 -2.85971,11.2933 -1.16015,-33.2206 0.68924,-70.3604 0.99533,-104.0112 l 1.49835,-194.0642 c -32.08825,27.5418 -67.438618,60.2037 -98.251128,89.3723 -2.8062,30.5599 -5.78791,61.1027 -8.94301,91.6284 -1.1259,2.3075 -0.8562,2.5215 -0.56081,5.2228 -3.39912,33.79 -6.30592,69.7738998 -10.3108,103.3413 l -3.12299,0.01 c 4.94884,-65.5763 13.24542,-136.8978 19.8874,-202.7097 z"
           id="path101"
           style="stroke-width:2.14051" />
        <path
           fill="#0a7657"
           d="m -177.90212,175.40146 c 9.71787,2.9967 57.9562,71.6468 64.67737,83.9098 7.32265,13.3631 69.294428,252.014 69.014028,266.2205 l 0.81125,3.1487 c -24.69496,0.3125 -49.9914,0.1412 -74.724888,0.1305 -28.19682,0.1006 -80.61768,1.6097 -106.71467,-1.2329 -25.51052,-4.8889 -25.23222,-22.3575 -31.22562,-44.7086 10.94438,-17.5371 23.07673,-40.4469 33.44532,-58.7696 9.56162,-2.9218 17.79827,-4.9553 27.514,-7.2392 l 9.45031,-2.5129 c 4.11618,-5.058 2.75911,-6.1925 3.17008,-14.2237 l 3.02453,-0.051 0.4388,-37.204 c -0.78984,-9.4524 -0.26756,-43.8439 1.05313,-52.5728 -1.9714,-39.5779 0.70851,-93.4329 0.0664,-134.8944 z"
           id="path102"
           style="stroke-width:2.14051" />
        <path
           fill="#c0ab9c"
           d="m -222.61933,424.09986 c 9.56162,-2.9218 17.79827,-4.9553 27.514,-7.2392 l 1.35494,3.7544 c 6.88385,-1.3592 5.89494,-2.3631 10.4435,0.5138 9.09499,15.3388 12.54976,32.268 18.02302,49.2957 -13.43807,13.1362 -38.85651,34.2052 -40.47901,52.0292 l 1.49193,2.4829 c -7.71437,3.4955 -13.67138,-1.9478 -20.56808,2.6414 -25.51052,-4.8889 -25.23222,-22.3575 -31.22562,-44.7086 10.94438,-17.5371 23.07673,-40.4469 33.44532,-58.7696 z"
           id="path103"
           style="stroke-width:2.14051" />
        <path
           fill="#412d24"
           d="m -222.61933,424.09986 c 9.56162,-2.9218 17.79827,-4.9553 27.514,-7.2392 l 1.35494,3.7544 -26.68563,7.3655 -31.35193,56.597 c 3.6924,11.3125 7.37832,23.1902 11.3832,34.3486 11.58225,3.8465 19.71829,5.9313 32.09467,5.1265 l 2.5472,-1.5989 1.49193,2.4829 c -7.71437,3.4955 -13.67138,-1.9478 -20.56808,2.6414 -25.51052,-4.8889 -25.23222,-22.3575 -31.22562,-44.7086 10.94438,-17.5371 23.07673,-40.4469 33.44532,-58.7696 z"
           id="path104"
           style="stroke-width:2.14051" />
        <path
           fill="#211c1c"
           d="m -182.48494,400.12406 3.02453,-0.051 c -0.0407,23.2202 7.95196,15.2704 25.2151,24.2798 11.12847,17.3423 39.51793,66.5674 47.80381,84.813 -3.90642,4.4651 -10.83308,11.1306 -11.60152,16.6339 l -0.0813,3.0116 c -28.19682,0.1006 -80.61768,1.6097 -106.71467,-1.2329 6.8967,-4.5892 12.85371,0.8541 20.56808,-2.6414 l -1.49193,-2.4829 c 1.6225,-17.824 27.04094,-38.893 40.47901,-52.0292 -5.47326,-17.0277 -8.92803,-33.9569 -18.02302,-49.2957 -4.54856,-2.8769 -3.55965,-1.873 -10.4435,-0.5138 l -1.35494,-3.7544 9.45031,-2.5129 c 4.11618,-5.058 2.75911,-6.1925 3.17008,-14.2237 z"
           id="path105"
           style="stroke-width:2.14051" />
        <path
           fill="#120d11"
           d="m -118.04302,525.79936 c 22.956878,-0.5716 51.003858,-0.7128 73.832298,-0.2676 l 0.81125,3.1487 c -24.69496,0.3125 -49.9914,0.1412 -74.724888,0.1305 z"
           id="path106"
           style="stroke-width:2.14051" />
        <path
           fill="#0a5d49"
           d="m -177.96848,310.29586 c 1.0253,10.452 1.20724,42.7094 -1.05313,52.5728 -0.78984,-9.4524 -0.26756,-43.8439 1.05313,-52.5728 z"
           id="path107"
           style="stroke-width:2.14051" />
        <path
           fill="#fcbc23"
           d="m -42.594642,-243.57164 c 20.09288,32.9488 38.4562396,81.8678 59.24478,116.7301 -0.46021,16.2335 -1.64391,33.1478 -3.11015,49.3664 -4.4051504,48.782 -5.0130504,98.8633 -10.2487204,147.4741 14.4911904,24.1298 43.2381204,77.5589 57.7635604,96.5301 -25.81444,-7.1792 -82.6533,-30.9388 -108.62614,-42.414 0.32108,-23.263 2.1084,-62.6032 1.00604,-84.5648 1.93929,-94.3639 3.26212,-188.7386 3.97063,-283.1219 z"
           id="path108"
           style="stroke-width:2.14051" />
        <path
           fill="#fcbc23"
           d="m 57.704948,174.65226 c 0.54368,-0.041 1.53474,0.5608 2.1726,0.8562 -1.16871,3.4548 -19.83816,29.3292 -23.11954,36.4849 -13.25613,28.9031 -68.4254,296.3116 -76.16545,303.0135 l -1.52189,-5.5118 c -2.79978,-108.5683 -13.89186,-209.2874 -12.21584,-320.6277 37.01782,-4.1932 73.97357,-8.9323 110.85012,-14.2151 z"
           id="path109"
           style="stroke-width:2.14051" />
        <path
           fill="#c0ab9c"
           d="m 61.388748,427.18646 c 3.09302,0.6314 22.70643,11.2718 26.85044,13.4509 l -12.74668,21.2231 c 12.26507,9.5808 24.37388,19.3629 36.322152,29.3398 -10.69608,7.6608 -25.915042,16.698 -37.287522,23.9201 l -13.27324,9.1806 c -10.24016,0.488 -22.02576,0.3232 -32.39862,0.411 -1.43628,-6.8368 -3.60675,-13.6821 -5.59741,-20.3947 5.53319,-19.6776 12.13021,-49.9935 24.2904,-66.6017 1.72738,-2.3588 10.98291,-8.6027 13.84048,-10.5291 z"
           id="path110"
           style="stroke-width:2.14051" />
        <path
           fill="#0a7657"
           d="m -174.07063,168.69956 c 41.1811,6.871 74.245408,15.1697 116.907738,20.0565 0.0578,16.6959 0.006,33.3897 -0.15626,50.0856 -23.17306,-11.0279 -98.313198,-54.4993 -116.751478,-70.1421 z"
           id="path111"
           style="stroke-width:2.14051" />
        <path
           fill="#181a21"
           fill-opacity="0.980392"
           d="m -182.48494,400.12406 c -0.51158,-10.0004 -0.11986,-22.7086 0.27613,-32.7689 2.63495,-67.0041 -0.71707,-135.1491 2.21541,-201.9199 l 2.09128,9.9662 c 0.64215,41.4615 -2.03776,95.3165 -0.0664,134.8944 -1.32069,8.7289 -1.84297,43.1204 -1.05313,52.5728 l -0.4388,37.204 z"
           id="path142"
           style="stroke-width:2.14051" />
      </g>
    </g>
  </g>
</svg>
