<?xml version="1.0" encoding="utf-8" ?><svg xmlns="http://www.w3.org/2000/svg" xmlns:xlink="http://www.w3.org/1999/xlink" width="1024" height="1024" viewBox="0 0 1024 1024"><path fill="#3B3B3C" d="M471.542 176.275C481.64 176.59 560.655 181.451 565.071 183.355C572.911 186.735 579.469 197.977 588.085 201.587C596.883 205.273 613.539 207.847 623.657 210.189C627.008 210.965 630.841 211.586 634.012 212.917C636.548 213.981 686.448 262.334 693.044 268.397C694.726 266.562 702.182 254.717 704.095 251.919C713.232 238.556 722.421 223.194 732.174 210.337C733.187 208.291 733.951 207.212 735.274 205.317C736.828 202.862 738.275 200.503 740.032 198.185C740.309 220.8 740.44 243.416 740.424 266.033C740.449 277.013 740.075 292.61 740.648 303.306C754.97 314.383 769.448 324.754 784.094 335.378C793.105 341.915 802.437 349.578 811.693 355.751C815.822 371.044 818.212 388.015 821.951 403.541C823.207 408.757 823.988 415.388 825.454 420.369C838.493 411.967 851.469 403.469 864.381 394.875C869.169 391.673 881.353 383.012 886.059 380.55C877.677 401.136 866.71 421.784 858.28 442.47C855.263 449.321 848.853 462.904 846.853 469.6C855.885 480.991 867.385 495.918 875.643 507.661C878.266 511.391 882.388 538.553 883.54 545.149L901.025 639.998L906.033 667.857C907.034 673.615 907.662 679.835 909.436 685.394C911.684 692.434 923.469 701.157 927.336 708.415C929.701 712.854 941.331 766.697 942.403 773.996C945.415 776.096 949.975 778.548 953.334 780.294C962.713 785.17 971.846 791.167 981.167 796.032L980.592 797.76C966.89 798.003 953.187 798.129 939.483 798.136C934.227 798.125 908.859 797.244 905.862 799.517L905.222 801.706C906.375 802.861 939.949 815.897 944.172 817.283C932.414 817.349 920.171 817.886 908.473 817.585C875.83 816.746 844.134 821.543 811.692 824.999L647.925 842.483C628.308 844.708 608.664 846.68 588.998 848.401C583.813 848.903 578.444 849.354 573.286 850.021C557.134 852.109 540.741 848.606 524.505 846.813L439.09 837.341C433.737 836.73 412.006 833.265 407.922 834.202C391.186 838.042 374.006 845.933 357.162 850.435L324.599 834.23C309.691 826.986 308.569 826.716 291.825 827.042C277.484 827.321 262.524 827.083 248.156 826.971C234.272 825.91 210.828 814.715 196.368 812.741C190.826 811.985 174.623 812.508 168.262 812.473C147.311 812.359 126.321 812.614 105.353 812.363C104.799 811.823 100.601 811.59 98.2799 810.663C108.618 804.517 124.273 799.215 135.272 792.226C128.883 791.062 116.233 791.488 109.231 791.531L68.7489 791.474C61.6102 791.445 50.8587 791.689 43.987 791.013C60.543 781.689 81.7094 771.664 99.0793 763.542C105.577 737.073 110.132 709.875 117.066 683.443C119.566 673.912 124.528 665.596 127.046 656.361C125.531 648.483 124.272 632.751 123.378 624.247L117.394 570.929C116.096 559.061 115.201 546.582 113.144 534.854C114.594 536.514 115.513 537.649 116.792 539.442C118.707 541.794 120.689 544.077 122.731 546.32C132.489 557.039 141.417 568.408 151.012 579.273C154.031 573.248 157.359 563.726 159.642 557.338C164.159 544.617 168.5 531.834 172.665 518.993C175.663 510.987 178.279 502.826 181.043 494.737C182.535 490.373 183.825 485.651 186.008 481.572C188.39 477.123 222.408 450.297 229.859 443.458L233.144 440.506C236.928 427.935 242.167 413.956 246.529 401.146C251.456 389.029 254.887 372.017 261.526 361.006C264.758 355.645 277.204 347.323 282.055 341.022C281.866 332.793 280.412 324.935 280.341 316.578C280.248 305.699 281.955 295.33 282.017 284.543C282.851 263.324 285.287 240.886 285.59 219.83C293.208 232.823 301.532 245.196 309.651 257.871C316.148 268.012 322.179 278.504 329.301 288.23C348.119 275.478 367.556 261.241 385.985 248.004C394.744 241.714 409.603 231.912 417.468 225.2C430.56 214.026 444.015 200.087 457.231 188.7C461.365 185.138 467.253 179.238 471.542 176.275ZM307.383 693.58C307.678 697.173 309.649 715.89 308.537 717.808L306.18 717.925C296.841 718.313 283.634 717.343 274.859 718.852C269.81 719.719 240.543 722.294 238.751 723.818C238.503 725.746 238.46 726.743 238.438 728.694C238.548 734.707 238.735 740.719 238.998 746.727C232.113 750.512 224.89 753.808 217.848 757.331C210.929 760.792 204.014 764.617 197.055 767.938C194.726 768.335 177.209 767.28 174.012 767.121L128.032 764.732C118.963 764.249 108.047 763.386 99.0793 763.542C81.7094 771.664 60.543 781.689 43.987 791.013C50.8587 791.689 61.6102 791.445 68.7489 791.474L109.231 791.531C116.233 791.488 128.883 791.062 135.272 792.226C124.273 799.215 108.618 804.517 98.2799 810.663C100.601 811.59 104.799 811.823 105.353 812.363C126.321 812.614 147.311 812.359 168.262 812.473C174.623 812.508 190.826 811.985 196.368 812.741C210.828 814.715 234.272 825.91 248.156 826.971C262.524 827.083 277.484 827.321 291.825 827.042C308.569 826.716 309.691 826.986 324.599 834.23L357.162 850.435C374.006 845.933 391.186 838.042 407.922 834.202C412.006 833.265 433.737 836.73 439.09 837.341L524.505 846.813C540.741 848.606 557.134 852.109 573.286 850.021C578.444 849.354 583.813 848.903 588.998 848.401C608.664 846.68 628.308 844.708 647.925 842.483L811.692 824.999C844.134 821.543 875.83 816.746 908.473 817.585C920.171 817.886 932.414 817.349 944.172 817.283C939.949 815.897 906.375 802.861 905.222 801.706L905.862 799.517C908.859 797.244 934.227 798.125 939.483 798.136C953.187 798.129 966.89 798.003 980.592 797.76L981.167 796.032C971.846 791.167 962.713 785.17 953.334 780.294C949.975 778.548 945.415 776.096 942.403 773.996C938.311 773.396 931.575 773.526 927.246 773.499C904.614 773.397 896.105 771.39 874.958 779.345L865.532 782.154C836.463 773.168 806.904 762.075 777.953 753.34C778.812 750.313 784.049 733.395 783.429 731.328C766.478 724.496 749.42 717.937 732.26 711.652C723.55 711.114 703.399 712.186 694.284 712.891C695.109 704.125 697.036 692.755 698.284 683.855C687.379 685.39 674.562 687.797 663.742 688.16C661.829 688.224 656.764 686.783 654.742 686.19C645.892 685.087 634.337 682.22 624.812 680.774C625.263 677.291 625.763 673.814 626.314 670.345C615.825 667.344 593.494 662.906 582.601 661.251C577.631 660.496 552.454 668.542 545.727 668.34C533.252 667.966 520.173 661.99 507.944 660.857C502.733 660.374 485.783 668.212 480.569 667.998C470.413 667.58 457.293 662.41 446.909 661.773C440.742 661.394 431.362 666.997 425.096 668.329C420.99 669.202 416.635 668.656 412.529 668.406C393.936 667.276 391.762 664.03 374.052 670.849L377.796 681.979C374.355 682.401 370.816 682.881 367.377 683.233C353.755 685.246 337.566 685.797 323.657 687.765C319.581 688.342 311.365 688.698 307.813 689.882C307.306 691.432 307.388 691.982 307.383 693.58Z"/><path fill="#827775" d="M374.052 670.849C391.762 664.03 393.936 667.276 412.529 668.406C416.635 668.656 420.99 669.202 425.096 668.329C431.362 666.997 440.742 661.394 446.909 661.773C457.293 662.41 470.413 667.58 480.569 667.998C485.783 668.212 502.733 660.374 507.944 660.857C520.173 661.99 533.252 667.966 545.727 668.34C552.454 668.542 577.631 660.496 582.601 661.251C593.494 662.906 615.825 667.344 626.314 670.345C625.763 673.814 625.263 677.291 624.812 680.774C634.337 682.22 645.892 685.087 654.742 686.19C656.764 686.783 661.829 688.224 663.742 688.16C674.562 687.797 687.379 685.39 698.284 683.855C697.036 692.755 695.109 704.125 694.284 712.891C703.399 712.186 723.55 711.114 732.26 711.652C749.42 717.937 766.478 724.496 783.429 731.328C784.049 733.395 778.812 750.313 777.953 753.34C806.904 762.075 836.463 773.168 865.532 782.154L874.958 779.345C896.105 771.39 904.614 773.397 927.246 773.499C931.575 773.526 938.311 773.396 942.403 773.996C945.415 776.096 949.975 778.548 953.334 780.294C962.713 785.17 971.846 791.167 981.167 796.032L980.592 797.76C966.89 798.003 953.187 798.129 939.483 798.136C934.227 798.125 908.859 797.244 905.862 799.517L905.222 801.706C906.375 802.861 939.949 815.897 944.172 817.283C932.414 817.349 920.171 817.886 908.473 817.585C875.83 816.746 844.134 821.543 811.692 824.999L647.925 842.483C628.308 844.708 608.664 846.68 588.998 848.401C583.813 848.903 578.444 849.354 573.286 850.021C557.134 852.109 540.741 848.606 524.505 846.813L439.09 837.341C433.737 836.73 412.006 833.265 407.922 834.202C391.186 838.042 374.006 845.933 357.162 850.435L324.599 834.23C309.691 826.986 308.569 826.716 291.825 827.042C277.484 827.321 262.524 827.083 248.156 826.971C234.272 825.91 210.828 814.715 196.368 812.741C190.826 811.985 174.623 812.508 168.262 812.473C147.311 812.359 126.321 812.614 105.353 812.363C104.799 811.823 100.601 811.59 98.2799 810.663C108.618 804.517 124.273 799.215 135.272 792.226C128.883 791.062 116.233 791.488 109.231 791.531L68.7489 791.474C61.6102 791.445 50.8587 791.689 43.987 791.013C60.543 781.689 81.7094 771.664 99.0793 763.542C108.047 763.386 118.963 764.249 128.032 764.732L174.012 767.121C177.209 767.28 194.726 768.335 197.055 767.938C204.014 764.617 210.929 760.792 217.848 757.331C224.89 753.808 232.113 750.512 238.998 746.727C238.735 740.719 238.548 734.707 238.438 728.694C238.46 726.743 238.503 725.746 238.751 723.818C240.543 722.294 269.81 719.719 274.859 718.852C283.634 717.343 296.841 718.313 306.18 717.925L308.537 717.808C309.649 715.89 307.678 697.173 307.383 693.58C307.388 691.982 307.306 691.432 307.813 689.882C311.365 688.698 319.581 688.342 323.657 687.765C337.566 685.797 353.755 685.246 367.377 683.233C370.816 682.881 374.355 682.401 377.796 681.979L374.052 670.849ZM630.836 774.294C631.747 773.99 632.195 773.639 631.014 773.254C630.547 773.378 630.19 773.382 629.957 773.778C629.981 774.181 630.551 774.213 630.836 774.294ZM386.86 719.932C383.662 720.842 385.016 720.789 382.692 722.815C379.858 725.286 382.986 730.189 386.252 730.408C390.256 730.8 387.647 728.389 389.794 725.509C390.373 727.444 390.266 727.669 390.052 729.736C389.812 729.902 389.57 729.987 389.472 730.242C389.497 730.294 389.522 730.346 389.547 730.398C390.591 730.894 393.784 728.011 396.502 727.534C407.565 725.591 419.568 726.061 430.619 725.955C439.157 726.427 448.291 726.583 456.58 728.331C457.14 729.306 458.455 731.751 459.05 732.582C459.744 733.543 460.279 734.268 461.045 735.171C463.444 736.581 467.515 737.673 469.435 735.371C473.737 730.213 470.295 725.809 467.254 722.277C468.66 720.971 470.774 719.609 471.316 717.689C471.626 716.591 471.41 715.019 470.745 714.054C470.072 713.078 469.223 712.518 468.063 712.265C464.368 711.461 461.793 713.686 458.869 715.525C449.417 721.469 410.711 715.569 398.951 712.884L395.631 709.02C394.916 707.966 394.433 707.422 393.317 706.86C387.047 702.183 380.052 707.981 384.637 715.152L384.839 715.475C386.18 716.599 388.309 717.925 388.48 719.364L386.86 719.932ZM419.162 699.511C419.628 699.269 419.918 698.785 419.913 698.26C419.908 697.735 419.609 697.257 419.138 697.024C418.667 696.791 418.106 696.842 417.685 697.156C417.103 697.59 416.952 698.399 417.338 699.014C417.724 699.629 418.517 699.845 419.162 699.511ZM367.338 776.206C370.507 773.411 373.896 771.757 378.245 772.016C380.824 772.17 383.545 771.505 380.685 769.037C378.991 767.574 382.476 767.975 379.364 765.159C376.529 767.3 373.049 769.874 369.244 769.467C368.115 769.496 366.841 768.196 365.806 768.539C365.426 768.666 365.098 769.651 365.045 770.004C364.86 771.222 366.468 771.537 366.314 772.71C366.205 773.545 365.638 774.338 366.1 775.165C366.369 775.647 366.881 775.916 367.338 776.206ZM569.345 711.25C569.658 711.084 569.885 710.975 570.129 710.744L570.124 710.699C569.788 710.5 568.922 710.881 568.692 710.952C568.577 711.258 568.503 711.319 568.574 711.588C569.007 711.73 568.875 711.595 569.345 711.25ZM735.364 779.905C735.899 779.399 736.329 779.003 736.9 778.535C737.445 778.294 740.748 776.124 740.995 775.779C741.188 776.382 739.478 773.314 739.648 773.614C738.82 773.605 733.757 777.136 733.074 777.73L732.096 778.432L731.813 779.814C730.949 780.163 731.002 780.108 730.311 780.66C729.681 781.064 729.062 781.456 728.442 781.877L728.908 783.331C728.367 784.715 728.41 785.355 729.796 786.212C731.55 787.297 733.731 781.836 735.364 779.905ZM495.094 778.614C497.028 779.268 499.315 780.537 501.172 780.797C501.714 780.779 502.416 779.591 501.984 779.314C500.167 778.15 503.008 775.965 502.055 775.562C500.085 774.728 497.165 775.884 495.278 776.387L494.278 776.079C492.135 775.436 491.266 774.122 489.731 775.234C489.194 775.438 488.817 775.926 488.754 776.496C488.691 777.067 488.953 777.625 489.432 777.941C489.911 778.258 490.527 778.279 491.027 777.997L492.032 778.03C493.077 778.054 494.087 778.359 495.094 778.614ZM605.751 747.597C606.375 747.538 610.319 746.937 610.502 746.988C617.378 748.904 615.602 747.918 619.856 745.626C618.276 744.89 616.129 743.772 614.511 743.319C610.718 745.331 608.964 741.555 605.144 745.249C605.226 746.086 605.5 746.786 605.751 747.597ZM296.143 769.243C296.054 769.207 294.84 768.706 294.77 768.711C292.301 768.89 290.087 762.084 288.386 765.522C288.009 766.283 288.273 767.369 287.998 767.797C280.937 771.376 289.965 770.344 291.96 771.047C296.089 771.992 299.912 771.406 303.404 774.084C303.722 774.328 305.389 774.875 305.872 775.064C311.102 776.871 310.576 779.963 314.226 780.596C317.437 780.387 315.094 777.106 316.529 775.784C322.348 770.421 308.757 772.413 307.097 772.252C306.14 771.988 304.78 771.837 303.722 771.645C301.014 771.152 298.709 769.839 296.143 769.243ZM746.978 765.655C746.684 766.08 740.563 774.295 740.715 773.415C741.416 775.012 742.636 774.403 743.719 773.975C744.969 773.417 750.813 771.953 750.923 771.638C751.727 769.349 749.88 769.185 748.627 768.488C748.225 766.525 749.005 766.469 746.978 765.655Z"/><path fill="#EBE7E2" d="M687.512 713.15C688.506 713.544 689.486 713.971 690.453 714.428C703.547 720.722 711.58 736.976 704.213 750.356C700.191 758.295 692.452 763.571 684.939 768.03C670.074 776.852 648.46 785.363 631.646 777.045C629.956 776.208 629.037 775.626 628.532 773.914C629.15 771.984 628.586 772.68 630.078 771.607C634.719 770.818 638.829 774.826 642.663 772.36C643.627 770.158 643.026 767.59 642.07 765.425C637.972 756.146 625.306 751.804 616.116 749.992C612.325 749.244 608.38 749.488 604.941 747.931C602.656 745.308 605.527 743.144 607.436 741.023C609.831 741.696 612.156 742.519 614.511 743.319C610.718 745.331 608.964 741.555 605.144 745.249C605.226 746.086 605.5 746.786 605.751 747.597C606.375 747.538 610.319 746.937 610.502 746.988C617.378 748.904 615.602 747.918 619.856 745.626C632.138 750.655 641.326 754.951 645.932 768.194L643.028 773.783C645.206 774.166 647.527 774.425 649.731 774.71C661.228 752.174 630.592 742.697 614.17 740.798C615.155 738.334 615.879 737.238 617.235 734.999C632.114 737.22 658.954 747.594 655.535 768.31C655.18 770.462 653.7 772.188 653.753 774.613C654.576 774.767 654.42 774.903 655.062 774.5C663.029 769.496 664.365 757.339 659.342 749.835C651.989 738.852 640.832 735.213 628.607 732.444C630.624 729.196 631.678 728.003 634.327 725.435C650.861 730.585 670.15 742.444 666.8 762.937C666.163 766.836 664.727 768.9 662.443 771.922C672.148 766.164 680.884 757.419 675.297 745.348C670.155 734.236 659.255 729.556 648.568 725.68C649.548 723.278 650.647 720.921 651.72 718.558C652.849 719.005 653.971 719.472 655.084 719.96C667.959 725.642 684.136 737.987 682.322 753.847C681.854 757.944 680.586 760.564 678.888 764.225C695.143 751.985 690.478 735.58 675.006 725.986C672.521 724.445 668.205 722.555 666.266 720.682C666.099 719.348 666.464 718.313 667.284 717.277C672.085 711.215 685.08 726.48 687.95 729.932C693.926 737.119 695.632 744.03 694.424 753.196C699.573 747.055 700.657 742.902 701.519 735.32C697.678 726.653 691.031 722.973 682.989 718.724C684.739 715.872 685.203 715.414 687.512 713.15ZM630.836 774.294C631.747 773.99 632.195 773.639 631.014 773.254C630.547 773.378 630.19 773.382 629.957 773.778C629.981 774.181 630.551 774.213 630.836 774.294Z"/><path fill="#EBE7E2" fill-opacity="0.43137255" d="M631.014 773.254C632.195 773.639 631.747 773.99 630.836 774.294C630.551 774.213 629.981 774.181 629.957 773.778C630.19 773.382 630.547 773.378 631.014 773.254Z"/><path fill="#EBE7E2" fill-opacity="0.89803922" d="M395.631 709.02L398.951 712.884C410.711 715.569 449.417 721.469 458.869 715.525C461.793 713.686 464.368 711.461 468.063 712.265C469.223 712.518 470.072 713.078 470.745 714.054C471.41 715.019 471.626 716.591 471.316 717.689C470.774 719.609 468.66 720.971 467.254 722.277C470.295 725.809 473.737 730.213 469.435 735.371C467.515 737.673 463.444 736.581 461.045 735.171C461.763 734.943 464.31 734.484 464.549 734.241L464.47 734.106C464.11 734.021 463.754 733.965 463.384 733.918L463.395 733.909C462.947 733.565 462.655 733.107 462.276 732.686C464.396 731.168 461.099 729.402 459.05 732.582C458.455 731.751 457.14 729.306 456.58 728.331C448.291 726.583 439.157 726.427 430.619 725.955C427.901 724.549 423.503 723.868 420.508 724.305C417.176 724.792 403.843 723.432 401.738 724.724C401.395 724.741 400.946 724.166 400.74 724.295C396.358 727.049 393.767 725.375 390.052 729.736C390.266 727.669 390.373 727.444 389.794 725.509C388.667 723.86 387.694 721.759 386.86 719.932L388.48 719.364C388.309 717.925 386.18 716.599 384.839 715.475C392.826 715.242 395.225 718.059 395.631 709.02Z"/><path fill="#DCD5D0" d="M417.653 681.481C423.252 681.614 423.963 685.553 426.238 686.415C437.474 690.671 467.584 690.239 478.176 688.036C480.942 685.126 484.837 681.67 488.985 684.71C492.468 690.632 487.124 690.775 487.393 693.068C487.473 693.749 490.063 695.824 489.617 698.799C487.952 700.995 485.96 701.161 483.321 701.738C480.744 700.764 480.245 699.105 478.918 696.714C468.067 694.56 438.1 695.381 426.718 696.269C425.396 698.838 422.623 703.694 418.919 702.09C417.307 701.403 416.081 700.039 415.57 698.363C416.441 694.801 419.234 695.584 421.902 692.694L421.802 691.28C420.815 689.741 418.629 689.695 416.25 688.216C414.339 685.366 415.492 683.532 417.653 681.481ZM419.162 699.511C419.628 699.269 419.918 698.785 419.913 698.26C419.908 697.735 419.609 697.257 419.138 697.024C418.667 696.791 418.106 696.842 417.685 697.156C417.103 697.59 416.952 698.399 417.338 699.014C417.724 699.629 418.517 699.845 419.162 699.511Z"/><path fill="#DCD5D0" fill-opacity="0.96078432" d="M417.685 697.156C418.106 696.842 418.667 696.791 419.138 697.024C419.609 697.257 419.908 697.735 419.913 698.26C419.918 698.785 419.628 699.269 419.162 699.511C418.517 699.845 417.724 699.629 417.338 699.014C416.952 698.399 417.103 697.59 417.685 697.156Z"/><path fill="#DCD5D0" d="M569.411 707.275C571.744 707.746 572.185 707.881 571.595 710.217C571.356 711.164 573.98 711.392 572.919 713.495C572.679 713.96 572.256 714.303 571.751 714.442C568.837 715.249 567.763 710.21 559.814 717.732C556.861 715.719 558.351 716.06 558.811 713.601C557.657 712.791 556.34 713.087 557.072 710.769C557.634 708.987 561.122 711.584 562.984 711.326C566.748 710.806 567.261 710.008 569.411 707.275ZM569.345 711.25C569.658 711.084 569.885 710.975 570.129 710.744L570.124 710.699C569.788 710.5 568.922 710.881 568.692 710.952C568.577 711.258 568.503 711.319 568.574 711.588C569.007 711.73 568.875 711.595 569.345 711.25Z"/><path fill="#DCD5D0" fill-opacity="0.7019608" d="M568.692 710.952C568.922 710.881 569.788 710.5 570.124 710.699L570.129 710.744C569.885 710.975 569.658 711.084 569.345 711.25C568.875 711.595 569.007 711.73 568.574 711.588C568.503 711.319 568.577 711.258 568.692 710.952Z"/><path fill="#EBE7E2" fill-opacity="0.98823529" d="M390.052 729.736C393.767 725.375 396.358 727.049 400.74 724.295C400.946 724.166 401.395 724.741 401.738 724.724C403.843 723.432 417.176 724.792 420.508 724.305C423.503 723.868 427.901 724.549 430.619 725.955C419.568 726.061 407.565 725.591 396.502 727.534C393.784 728.011 390.591 730.894 389.547 730.398C389.522 730.346 389.497 730.294 389.472 730.242C389.57 729.987 389.812 729.902 390.052 729.736Z"/><path fill="#EBE7E2" fill-opacity="0.77254903" d="M393.317 706.86C394.433 707.422 394.916 707.966 395.631 709.02C395.225 718.059 392.826 715.242 384.839 715.475L384.637 715.152C392.013 713.52 382.955 710.387 393.317 706.86Z"/><path fill="#DCD5D0" fill-opacity="0.12941177" d="M386.86 719.932C387.694 721.759 388.667 723.86 389.794 725.509C387.647 728.389 390.256 730.8 386.252 730.408C382.986 730.189 379.858 725.286 382.692 722.815C385.016 720.789 383.662 720.842 386.86 719.932Z"/><path fill="#EBE7E2" fill-opacity="0.34117648" d="M384.637 715.152C380.052 707.981 387.047 702.183 393.317 706.86C382.955 710.387 392.013 713.52 384.637 715.152Z"/><path fill="#EBE7E2" fill-opacity="0.80392158" d="M614.511 743.319C616.129 743.772 618.276 744.89 619.856 745.626C615.602 747.918 617.378 748.904 610.502 746.988C610.319 746.937 606.375 747.538 605.751 747.597C608.619 746.119 607.739 744.288 605.144 745.249C608.964 741.555 610.718 745.331 614.511 743.319Z"/><path fill="#EBE7E2" fill-opacity="0.011764706" d="M291.96 771.047C289.965 770.344 280.937 771.376 287.998 767.797C288.273 767.369 288.009 766.283 288.386 765.522C290.087 762.084 292.301 768.89 294.77 768.711C294.84 768.706 296.054 769.207 296.143 769.243C293.057 769.874 293.901 769.081 291.43 768.702C291.191 769.533 290.951 769.325 290.74 769.833C290.528 769.681 293.898 770.538 294.014 770.31C294.061 770.215 295.264 770.427 295.173 770.781C295.026 771.187 292.306 771.036 291.96 771.047Z"/><path fill="#EBE7E2" fill-opacity="0.15294118" d="M291.96 771.047C292.306 771.036 295.026 771.187 295.173 770.781C295.264 770.427 294.061 770.215 294.014 770.31C293.898 770.538 290.528 769.681 290.74 769.833C290.951 769.325 291.191 769.533 291.43 768.702C293.901 769.081 293.057 769.874 296.143 769.243C298.709 769.839 301.014 771.152 303.722 771.645C304.78 771.837 306.14 771.988 307.097 772.252L306.32 772.377C304.466 772.634 305.311 773.89 305.872 775.064C305.389 774.875 303.722 774.328 303.404 774.084C299.912 771.406 296.089 771.992 291.96 771.047Z"/><path fill="#DCD5D0" fill-opacity="0.0078431377" d="M495.278 776.387C497.165 775.884 500.085 774.728 502.055 775.562C503.008 775.965 500.167 778.15 501.984 779.314C502.416 779.591 501.714 780.779 501.172 780.797C499.315 780.537 497.028 779.268 495.094 778.614C495.352 777.513 495.447 777.471 495.278 776.387Z"/><path fill="#DCD5D0" fill-opacity="0.66274512" d="M730.311 780.66C731.002 780.108 730.949 780.163 731.813 779.814C733.039 779.877 734.139 779.898 735.364 779.905C733.731 781.836 731.55 787.297 729.796 786.212C728.41 785.355 728.367 784.715 728.908 783.331C730.312 783.169 730.906 781.909 730.311 780.66Z"/><path fill="#DCD5D0" d="M895.163 798.17C897.825 798.036 902.689 797.793 905.253 798.183L905.225 798.15C905.025 798.752 904.294 799.641 903.89 800.563C902.891 802.672 896.778 798.997 895.163 798.17Z"/><path fill="#DCD5D0" fill-opacity="0.98823529" d="M733.074 777.73C733.757 777.136 738.82 773.605 739.648 773.614C739.478 773.314 741.188 776.382 740.995 775.779C740.748 776.124 737.445 778.294 736.9 778.535C735.394 777.719 734.807 777.937 733.074 777.73Z"/><path fill="#DCD5D0" d="M728.442 781.877C726.721 782.007 724.749 781.499 726.358 779.323C727.291 778.06 730.558 778.453 732.096 778.432L731.813 779.814C730.949 780.163 731.002 780.108 730.311 780.66C729.681 781.064 729.062 781.456 728.442 781.877Z"/><path fill="#EBE7E2" fill-opacity="0.73333335" d="M459.05 732.582C461.099 729.402 464.396 731.168 462.276 732.686C462.655 733.107 462.947 733.565 463.395 733.909L463.384 733.918C463.754 733.965 464.11 734.021 464.47 734.106L464.549 734.241C464.31 734.484 461.763 734.943 461.045 735.171C460.279 734.268 459.744 733.543 459.05 732.582Z"/><path fill="#EBE7E2" fill-opacity="0.36862746" d="M489.731 775.234C491.266 774.122 492.135 775.436 494.278 776.079L495.278 776.387C495.447 777.471 495.352 777.513 495.094 778.614C494.087 778.359 493.077 778.054 492.032 778.03L491.027 777.997C491.725 777.603 492.001 776.739 491.66 776.014C491.32 775.289 490.479 774.949 489.731 775.234Z"/><path fill="#DCD5D0" fill-opacity="0.51764709" d="M733.074 777.73C734.807 777.937 735.394 777.719 736.9 778.535C736.329 779.003 735.899 779.399 735.364 779.905C734.139 779.898 733.039 779.877 731.813 779.814L732.096 778.432L733.074 777.73Z"/><path fill="#DCD5D0" fill-opacity="0.023529412" d="M489.731 775.234C490.479 774.949 491.32 775.289 491.66 776.014C492.001 776.739 491.725 777.603 491.027 777.997C490.527 778.279 489.911 778.258 489.432 777.941C488.953 777.625 488.691 777.067 488.754 776.496C488.817 775.926 489.194 775.438 489.731 775.234Z"/><path fill="#EBE7E2" fill-opacity="0.6156863" d="M605.144 745.249C607.739 744.288 608.619 746.119 605.751 747.597C605.5 746.786 605.226 746.086 605.144 745.249Z"/><path fill="#DCD5D0" fill-opacity="0.49411765" d="M728.442 781.877C729.062 781.456 729.681 781.064 730.311 780.66C730.906 781.909 730.312 783.169 728.908 783.331L728.442 781.877Z"/><path fill="#100D08" d="M533.197 417.457C542.898 427.405 551.83 438.914 561.784 448.539C565.102 451.747 573.481 455.877 577.764 458.239C585.286 462.36 592.785 466.521 600.263 470.721C601.962 485.354 606.399 503.179 608.762 518.157C610.635 530.026 613.064 545.52 615.764 557.293C616.16 559.022 623.44 569.313 625.02 571.624C629.447 578.038 633.735 584.548 637.88 591.147C636.222 607.749 633.109 625.404 630.788 642.007C629.98 647.78 627.686 665.498 626.314 670.345C615.825 667.344 593.494 662.906 582.601 661.251C577.631 660.496 552.454 668.542 545.727 668.34C533.252 667.966 520.173 661.99 507.944 660.857C502.733 660.374 485.783 668.212 480.569 667.998C470.413 667.58 457.293 662.41 446.909 661.773C440.742 661.394 431.362 666.997 425.096 668.329C420.99 669.202 416.635 668.656 412.529 668.406C393.936 667.276 391.762 664.03 374.052 670.849L377.796 681.979C374.355 682.401 370.816 682.881 367.377 683.233C364.022 679.974 356.507 618.361 353.941 609.802C353.447 608.156 352.789 601.238 353.541 599.645C364.402 576.651 376.395 554.128 387.933 531.455L409.037 489.861C413.308 481.423 418.041 471.577 422.698 463.476C425.952 462.005 429.443 460.843 432.729 459.413C465.937 444.97 500.112 432.072 533.197 417.457Z"/><path fill="#100D08" d="M358.493 436.786C385.185 425.366 412.63 411.993 439.169 399.93C467.36 387.162 495.446 374.166 523.427 360.945C538.9 353.703 553.447 347.223 568.822 339.57C560.508 347.612 550.094 359.535 542.134 368.259C556.386 376.884 572.167 385.208 586.848 393.234L648.373 427.058C649.124 430.791 649.808 434.513 650.415 438.271C654.031 460.659 658.543 482.806 661.997 505.224C668.167 512.642 676.02 520.724 682.631 527.86L716.233 564.22C714.733 579.864 710.959 600.172 708.453 616.024L698.284 683.855C687.379 685.39 674.562 687.797 663.742 688.16C661.829 688.224 656.764 686.783 654.742 686.19C645.892 685.087 634.337 682.22 624.812 680.774C625.263 677.291 625.763 673.814 626.314 670.345C627.686 665.498 629.98 647.78 630.788 642.007C633.109 625.404 636.222 607.749 637.88 591.147C633.735 584.548 629.447 578.038 625.02 571.624C623.44 569.313 616.16 559.022 615.764 557.293C613.064 545.52 610.635 530.026 608.762 518.157C606.399 503.179 601.962 485.354 600.263 470.721C592.785 466.521 585.286 462.36 577.764 458.239C573.481 455.877 565.102 451.747 561.784 448.539C551.83 438.914 542.898 427.405 533.197 417.457C500.112 432.072 465.937 444.97 432.729 459.413C429.443 460.843 425.952 462.005 422.698 463.476C418.041 471.577 413.308 481.423 409.037 489.861L387.933 531.455C376.395 554.128 364.402 576.651 353.541 599.645C352.789 601.238 353.447 608.156 353.941 609.802C356.507 618.361 364.022 679.974 367.377 683.233C353.755 685.246 337.566 685.797 323.657 687.765C319.581 688.342 311.365 688.698 307.813 689.882C307.306 691.432 307.388 691.982 307.383 693.58C307.678 697.173 309.649 715.89 308.537 717.808L306.18 717.925C302.258 717.253 288.448 717.493 283.648 717.501C281.515 698.011 279.603 678.496 277.914 658.962C277.259 651.793 275.994 641.491 276.275 634.588C276.404 631.42 281.342 621.613 282.826 617.987C291.002 597.813 299.388 577.725 307.983 557.726C325.009 517.64 341.031 476.686 358.493 436.786Z"/><path fill="#3B3B3C" d="M534.698 395.099C544.169 403.012 558.266 412.493 568.632 419.921C585.888 432.287 603.553 445.841 621.009 457.689C624.356 483.278 626.082 510.062 629.175 535.825C634.659 543.133 648.64 557.343 655.451 564.646C655.151 575.733 654.354 589.857 656.556 600.652C657.645 605.994 666.062 626.276 665.764 630.168C664.684 644.286 658.723 673.032 654.742 686.19C645.892 685.087 634.337 682.22 624.812 680.774C625.263 677.291 625.763 673.814 626.314 670.345C627.686 665.498 629.98 647.78 630.788 642.007C633.109 625.404 636.222 607.749 637.88 591.147C633.735 584.548 629.447 578.038 625.02 571.624C623.44 569.313 616.16 559.022 615.764 557.293C613.064 545.52 610.635 530.026 608.762 518.157C606.399 503.179 601.962 485.354 600.263 470.721C592.785 466.521 585.286 462.36 577.764 458.239C573.481 455.877 565.102 451.747 561.784 448.539C551.83 438.914 542.898 427.405 533.197 417.457C500.112 432.072 465.937 444.97 432.729 459.413C429.443 460.843 425.952 462.005 422.698 463.476C418.041 471.577 413.308 481.423 409.037 489.861L387.933 531.455C376.395 554.128 364.402 576.651 353.541 599.645C352.789 601.238 353.447 608.156 353.941 609.802C356.507 618.361 364.022 679.974 367.377 683.233C353.755 685.246 337.566 685.797 323.657 687.765C319.581 688.342 311.365 688.698 307.813 689.882C307.306 691.432 307.388 691.982 307.383 693.58C307.133 692.556 306.685 680.895 306.546 678.283C305.828 664.854 303.293 650.004 303.426 636.757C303.448 634.57 308.245 623.992 309.261 621.642C311.961 615.387 314.566 609.091 317.075 602.757L349.6 521.769L363.052 487.967C366.413 479.451 369.266 471.485 373.164 463.181C389.371 457.021 406.98 448.947 423.183 442.164L534.698 395.099Z"/><path fill="#3B3B3C" d="M346.737 412.992C354.286 407.821 365.003 401.959 373.083 397.261L417.459 371.496L466.647 342.863C471.134 340.24 496.899 324.456 500.541 324.51C516.897 324.752 534.619 325.552 551.046 326.3C570.722 327.196 590.926 327.041 610.471 328.564C629.459 341.98 647.649 356.767 666.09 370.926C670.815 374.553 675.592 378.253 680.106 382.13C680.958 409.954 682.568 439.545 684.093 467.42C698.103 477.041 711.967 486.874 725.68 496.913C733.547 502.575 742.688 508.68 750.112 514.651C749.837 521.937 748.686 531.911 748 539.268L743.982 581.87C743.664 585.204 741.731 602.663 742.036 604.816C742.659 609.223 748.95 624.433 750.829 629.353C749.106 639.336 746.051 651.143 743.79 661.132C740.116 678.01 736.272 694.851 732.26 711.652C723.55 711.114 703.399 712.186 694.284 712.891C695.109 704.125 697.036 692.755 698.284 683.855L708.453 616.024C710.959 600.172 714.733 579.864 716.233 564.22L682.631 527.86C676.02 520.724 668.167 512.642 661.997 505.224C658.543 482.806 654.031 460.659 650.415 438.271C649.808 434.513 649.124 430.791 648.373 427.058L586.848 393.234C572.167 385.208 556.386 376.884 542.134 368.259C550.094 359.535 560.508 347.612 568.822 339.57C553.447 347.223 538.9 353.703 523.427 360.945C495.446 374.166 467.36 387.162 439.169 399.93C412.63 411.993 385.185 425.366 358.493 436.786C341.031 476.686 325.009 517.64 307.983 557.726C299.388 577.725 291.002 597.813 282.826 617.987C281.342 621.613 276.404 631.42 276.275 634.588C275.994 641.491 277.259 651.793 277.914 658.962C279.603 678.496 281.515 698.011 283.648 717.501C288.448 717.493 302.258 717.253 306.18 717.925C296.841 718.313 283.634 717.343 274.859 718.852C269.81 719.719 240.543 722.294 238.751 723.818C238.503 725.746 238.46 726.743 238.438 728.694C237.919 725.948 237.836 718.284 237.72 715.049C237.422 706.722 237.076 698.397 236.684 690.075L234.851 652.492C234.577 646.785 233.669 640.342 234.277 634.704C234.573 631.953 272.212 529.618 275.488 524.705C277.681 521.416 281.563 518.41 284.429 515.648L306.536 494.274C320.431 480.729 320.293 479.87 327.592 461.796C331.562 451.997 335.425 442.156 339.181 432.274C341.471 426.286 344.109 418.734 346.737 412.992Z"/><path fill="#100D08" d="M636.602 263.955C631.86 275.423 626.58 287.633 622.376 299.222C629.731 305.871 641.026 314.321 648.995 320.541C667.808 334.953 686.506 349.514 705.087 364.223C704.922 389.878 704.913 415.533 705.06 441.188C712.542 446.944 722.776 453.802 730.638 459.414L782.847 496.44C778.285 530.226 767.931 566.217 762.654 599.917C768.256 608.993 774.201 620.526 779.605 630.001C786.296 641.731 794.577 654.973 800.654 666.801L788.586 714.12C787.723 717.538 785.214 729.7 783.429 731.328C766.478 724.496 749.42 717.937 732.26 711.652C736.272 694.851 740.116 678.01 743.79 661.132C746.051 651.143 749.106 639.336 750.829 629.353C748.95 624.433 742.659 609.223 742.036 604.816C741.731 602.663 743.664 585.204 743.982 581.87L748 539.268C748.686 531.911 749.837 521.937 750.112 514.651C742.688 508.68 733.547 502.575 725.68 496.913C711.967 486.874 698.103 477.041 684.093 467.42C682.568 439.545 680.958 409.954 680.106 382.13C675.592 378.253 670.815 374.553 666.09 370.926C647.649 356.767 629.459 341.98 610.471 328.564C590.926 327.041 570.722 327.196 551.046 326.3C534.619 325.552 516.897 324.752 500.541 324.51C496.899 324.456 471.134 340.24 466.647 342.863L417.459 371.496L373.083 397.261C365.003 401.959 354.286 407.821 346.737 412.992C344.109 418.734 341.471 426.286 339.181 432.274C335.425 442.156 331.562 451.997 327.592 461.796C320.293 479.87 320.431 480.729 306.536 494.274L284.429 515.648C281.563 518.41 277.681 521.416 275.488 524.705C272.212 529.618 234.573 631.953 234.277 634.704C233.669 640.342 234.577 646.785 234.851 652.492L236.684 690.075C237.076 698.397 237.422 706.722 237.72 715.049C237.836 718.284 237.919 725.948 238.438 728.694C238.548 734.707 238.735 740.719 238.998 746.727C232.113 750.512 224.89 753.808 217.848 757.331C210.929 760.792 204.014 764.617 197.055 767.938C196.92 763.686 198.101 754.337 198.579 750.047C199.732 740.07 200.82 730.085 201.844 720.094L207.529 663.031C208.371 654.4 209.522 638.998 211.087 630.796C211.962 626.21 218.124 610.245 220.105 604.777L240.262 549.902C243.321 541.59 246.32 533.257 249.26 524.902C250.949 520.134 252.449 514.513 254.91 510.11C259.544 501.821 286.442 483.544 294.564 473.829C300.225 467.056 319.809 407.741 325.32 394.289C328.208 392.314 334.043 389.069 337.272 387.123C345.789 381.972 354.34 376.878 362.924 371.84L425.008 335.256C438.492 327.368 456.858 317.156 469.528 308.628L421.007 269.86C438.035 277.448 455.254 286.243 472.552 293.195C482.423 297.162 503.498 296.645 514.878 297.029C546.472 298.095 578.545 300.604 610.104 300.591C618.665 288.215 628.143 276.185 636.602 263.955Z"/><path fill="#100D08" d="M874.958 779.345C874.288 777.267 872.21 764.225 871.7 761.317L864.594 721.076C858.959 690.328 853.582 659.533 848.463 628.695C846.743 618.542 845.105 608.381 843.044 598.292C842.305 594.675 841.831 591.026 841.616 587.342C842.886 591.833 844.079 599.857 844.932 604.618L850.383 635.246C850.932 638.383 851.916 646.513 852.686 648.647L853.394 648.545C856.272 641.847 854.705 643.406 855.891 637.257L856.664 636.881L858.064 637.396C858.677 635.351 852.73 619.514 851.708 616.469C848.591 607.055 845.643 597.586 842.864 588.067L843.212 587.527C850.744 612.312 859.482 637.269 867.33 662.05C870.833 673.11 875.308 686.48 879.607 697.2C880.462 699.334 888.072 710.554 889.852 713.58C901.897 733.812 914.364 753.789 927.246 773.499C904.614 773.397 896.105 771.39 874.958 779.345Z"/><path fill="#100D08" d="M732.174 210.337C734.012 211.207 732.473 208.805 734.654 209.524C730.96 220.342 724.726 237.012 721.827 247.608C724.989 258.361 728.241 269.087 731.583 279.785C733.787 286.914 736.417 296.229 739.565 302.885C728.859 294.719 718.047 286.522 707.118 278.664C704.225 276.584 695.824 269.734 693.044 268.397C694.726 266.562 702.182 254.717 704.095 251.919C713.232 238.556 722.421 223.194 732.174 210.337Z"/><path fill="#100D08" d="M113.144 534.854C114.594 536.514 115.513 537.649 116.792 539.442C117.182 544.085 118.738 548.975 120.222 553.389C127.948 576.364 134.069 601.196 142.735 623.719C140.846 628.355 129.687 654.793 127.147 656.345C127.118 656.363 127.08 656.356 127.046 656.361C125.531 648.483 124.272 632.751 123.378 624.247L117.394 570.929C116.096 559.061 115.201 546.582 113.144 534.854Z"/><path fill="#100D08" d="M229.859 443.458C231.487 445.135 231.259 444.251 231.284 446.002C222.4 459.807 208.593 474.22 198.661 487.673C193.993 493.996 177.998 516.05 172.665 518.993C175.663 510.987 178.279 502.826 181.043 494.737C182.535 490.373 183.825 485.651 186.008 481.572C188.39 477.123 222.408 450.297 229.859 443.458Z"/><path fill="#100D08" d="M282.017 284.543C283.552 286.236 284.78 288.087 286.141 289.918C292.939 299.063 300.489 307.885 307.06 317.184C302.067 321 286.487 336.132 282.055 341.022C281.866 332.793 280.412 324.935 280.341 316.578C280.248 305.699 281.955 295.33 282.017 284.543Z"/><path fill="#100D08" d="M858.28 442.47C855.263 449.321 848.853 462.904 846.853 469.6C845.355 467.419 843.791 465.283 842.164 463.196C834.068 464.58 824.483 467.26 816.346 469.23C811.439 470.417 801.701 472.622 797.311 474.294L796.102 473.595C805.719 468.21 816.127 463.711 825.939 458.698C836.778 453.161 847.056 447.306 858.28 442.47Z"/><path fill="#222122" d="M735.274 205.317C735.359 207.23 735.917 208.119 734.654 209.524C732.473 208.805 734.012 211.207 732.174 210.337C733.187 208.291 733.951 207.212 735.274 205.317Z"/><path fill="#222122" d="M797.311 474.294C796.128 474.579 792.563 475.323 796.102 473.595L797.311 474.294Z"/><path fill="#100D08" d="M851.444 620.347C853.401 621.57 854.407 625.603 854.362 627.857C852.09 626.508 851.965 622.284 851.444 620.347Z"/><path fill="#100D08" d="M850.567 618.261C850.944 618.082 851.389 618.124 851.725 618.371C852.062 618.618 852.235 619.03 852.176 619.443C852.117 619.856 851.836 620.204 851.444 620.347C850.876 620.555 850.245 620.28 850.011 619.723C849.776 619.165 850.021 618.522 850.567 618.261Z"/><path fill="#100D08" d="M854.781 630.683C855.059 630.627 854.967 630.62 855.099 630.654C855.208 630.781 855.149 630.68 855.238 631.043C855.137 631.028 855.037 631.013 854.936 630.998C854.796 630.848 854.861 630.945 854.781 630.683Z"/><path fill="#7B7673" fill-opacity="0.90980393" d="M105.353 812.363C103.858 812.453 102.325 812.418 100.827 812.403C100.279 812.397 95.8606 812.346 95.8959 811.736C96.4776 811.052 97.4168 810.884 98.2799 810.663C100.601 811.59 104.799 811.823 105.353 812.363Z"/><path fill="#7B7673" fill-opacity="0.94901961" d="M981.167 796.032C981.676 796.287 982.85 796.76 983.146 797.238C983.07 797.741 980.879 797.733 980.592 797.76L981.167 796.032Z"/></svg>