<?xml version="1.0" encoding="utf-8" ?><svg xmlns="http://www.w3.org/2000/svg" xmlns:xlink="http://www.w3.org/1999/xlink" width="1024" height="1024" viewBox="0 0 1024 1024"><path fill="#29140E" d="M442.969 65.4993C445.284 65.1075 447.792 65.2264 450.144 65.2441C465.751 65.362 481.383 64.8843 496.986 65.1591C510.213 66.1192 519.084 68.3525 532.018 70.8828C548.415 74.0485 564.787 77.3421 581.132 80.7631C592.056 83.0474 602.291 85.3682 613.307 87.2776C623.024 88.9617 643.68 85.5049 651.042 87.7326C662.81 91.2934 678.995 98.7618 690.943 103.404L726.365 117.039C731.991 119.163 742.865 122.888 748.013 125.604C752.065 126.74 756.299 127.86 760.311 129.084C740.193 131.162 725.096 133.354 704.232 132.99C714.391 139.392 724.974 145.019 735.454 150.877L777.823 174.544C795.456 184.273 815.768 196.513 833.548 205.423C836.57 210.589 838.66 215.871 841.355 221.18C840.149 228.46 838.742 236.451 837.79 243.715L868.247 286.777C872.376 292.573 878.121 301.338 882.526 306.524C881.845 291.826 880.966 277.139 879.887 262.465L881.461 260.8L907.994 307.211C911.339 313.042 918.477 324.319 921.028 329.881C919.864 343.575 919.856 358.975 919.398 372.895C919.044 383.632 917.215 400.769 917.669 410.993C928.394 402.558 938.554 392.547 949.041 383.901C949.672 393.263 948.884 406.747 948.992 416.731C949.095 419.762 949.24 422.791 949.426 425.817C949.658 436.28 950.736 446.859 951.396 457.323L954.509 514.181C954.642 516.651 954.731 519.358 954.997 521.798C957.143 556.688 952.157 596.619 945.377 630.92L942.341 643.392C932.004 684.388 915.423 722.686 893.384 758.69C887.25 768.709 880.667 777.677 874.891 787.018L874.384 787.593C870.977 792.292 867.47 796.919 863.867 801.469C852.651 816.517 830.019 840.356 815.394 852.123C743.418 914.958 646.615 947.545 552.186 954.358C541.633 955.119 529.877 956.036 519.331 955.997C487.035 956.826 444.76 953.143 413.06 946.198C321.62 929.496 224.654 879.167 165.403 806.448C160.467 799.849 155.126 793.52 150.19 786.936C143.366 777.673 136.774 768.242 130.42 758.652C92.3546 697.523 70.9501 627.498 68.3333 555.534C67.5335 532.921 68.6854 514.922 70.5169 492.704C70.7435 489.475 71.3781 485.669 71.8417 482.416C72.8197 468.568 74.6927 454.204 76.0021 440.247C77.2743 431.045 77.2488 420.986 79.5535 412.008C80.4125 408.663 86.1967 401.659 88.45 398.396C91.1817 395.206 93.0591 391.046 95.5891 387.802C108.024 371.863 114.449 353.113 122.571 334.515C131.451 314.37 140.491 294.296 149.688 274.293L150.753 275.849C150.403 278.629 150.187 281.657 150.074 284.458C149.408 301.062 145.784 317.559 144.853 334.094C152.098 323.607 158.778 311.748 165.711 300.934C170.028 292.556 180.059 281.373 183.363 272.685C191.252 251.944 200.562 228.966 207.445 208.073C232.497 193.508 257.364 178.625 282.038 163.428C287.059 153.503 292.336 141.151 297.003 130.884C302.503 128.111 315.459 123.317 321.763 120.799C342.276 112.768 362.841 104.87 383.456 97.1062C389.409 93.8937 401.458 91.1832 409.294 87.0334C420.282 81.2142 432.723 70.6976 442.969 65.4993ZM389.561 676.69C378.654 675.91 362.513 676.837 351.157 677.104C333.185 677.526 314.206 677.865 296.306 679C305.334 684.421 325.713 690.991 336.606 696.019C314.241 698.319 290.375 699.928 269.226 707.767C275.038 712.034 280.769 716.411 286.416 720.894C268.526 724.194 250.158 725.604 232.138 728C225.814 728.841 214.981 729.836 208.94 731.168L217.229 747.017C200.443 749.357 183.64 751.569 166.82 753.653C155.338 755.098 141.618 756.501 130.42 758.652C136.774 768.242 143.366 777.673 150.19 786.936C155.126 793.52 160.467 799.849 165.403 806.448C224.654 879.167 321.62 929.496 413.06 946.198C444.76 953.143 487.035 956.826 519.331 955.997C529.877 956.036 541.633 955.119 552.186 954.358C646.615 947.545 743.418 914.958 815.394 852.123C830.019 840.356 852.651 816.517 863.867 801.469C867.47 796.919 870.977 792.292 874.384 787.593L874.891 787.018C872.455 786.534 862.222 786.911 858.887 786.816C842.082 786.461 825.273 786.246 808.463 786.171C796.437 786.075 783.117 785.636 771.262 786.581C783.294 781.489 796.941 776.605 809.267 771.942C800.333 767.463 796.48 763.679 785.988 763.624C766.025 763.518 745.815 764.637 725.891 764.064C728.672 757.596 731.308 750.619 733.906 744.039C728.944 743.463 722.828 743.375 717.734 743.028C704.702 742.034 691.659 741.187 678.608 740.488C684.856 737.666 709.816 724.03 713.423 723.619C714.508 722.245 716.358 718.264 717.229 716.521C700.099 717.649 678.11 717.117 660.634 717.438C628.349 718.149 596.076 719.333 563.826 720.988L564.985 719.402C586.171 717.538 678.646 709.697 687.726 694.848C688.126 689.466 677.165 687.913 672.943 687.408C654.071 685.152 635.074 685.795 616.076 684.673C578.487 682.675 541.025 678.761 503.835 672.945C509.025 671.616 519.164 670.258 524.789 669.357L569.454 662.521C576.808 661.396 589.438 659.396 596.393 657.109C591.199 655.266 582.19 653.118 576.625 651.656C563.951 648.52 551.189 644.152 538.084 643.113C478.628 638.403 418.115 645.225 359.37 654.339C356.45 654.792 351.913 656.133 350.336 658.654C349.649 662.687 353.597 664.791 356.836 666.175C367.024 670.526 378.541 673.165 389.234 675.749L389.561 676.69Z"/><path fill="#9D6A54" d="M389.234 675.749C378.541 673.165 367.024 670.526 356.836 666.175C353.597 664.791 349.649 662.687 350.336 658.654C351.913 656.133 356.45 654.792 359.37 654.339C418.115 645.225 478.628 638.403 538.084 643.113C551.189 644.152 563.951 648.52 576.625 651.656C582.19 653.118 591.199 655.266 596.393 657.109C589.438 659.396 576.808 661.396 569.454 662.521L524.789 669.357C519.164 670.258 509.025 671.616 503.835 672.945C541.025 678.761 578.487 682.675 616.076 684.673C635.074 685.795 654.071 685.152 672.943 687.408C677.165 687.913 688.126 689.466 687.726 694.848C678.646 709.697 586.171 717.538 564.985 719.402L563.826 720.988C596.076 719.333 628.349 718.149 660.634 717.438C678.11 717.117 700.099 717.649 717.229 716.521C716.358 718.264 714.508 722.245 713.423 723.619C709.816 724.03 684.856 737.666 678.608 740.488C691.659 741.187 704.702 742.034 717.734 743.028C722.828 743.375 728.944 743.463 733.906 744.039C731.308 750.619 728.672 757.596 725.891 764.064C745.815 764.637 766.025 763.518 785.988 763.624C796.48 763.679 800.333 767.463 809.267 771.942C796.941 776.605 783.294 781.489 771.262 786.581C783.117 785.636 796.437 786.075 808.463 786.171C825.273 786.246 842.082 786.461 858.887 786.816C862.222 786.911 872.455 786.534 874.891 787.018L874.384 787.593C870.977 792.292 867.47 796.919 863.867 801.469C852.651 816.517 830.019 840.356 815.394 852.123C743.418 914.958 646.615 947.545 552.186 954.358C541.633 955.119 529.877 956.036 519.331 955.997C487.035 956.826 444.76 953.143 413.06 946.198C321.62 929.496 224.654 879.167 165.403 806.448C160.467 799.849 155.126 793.52 150.19 786.936C143.366 777.673 136.774 768.242 130.42 758.652C141.618 756.501 155.338 755.098 166.82 753.653C183.64 751.569 200.443 749.357 217.229 747.017L208.94 731.168C214.981 729.836 225.814 728.841 232.138 728C250.158 725.604 268.526 724.194 286.416 720.894C280.769 716.411 275.038 712.034 269.226 707.767C290.375 699.928 314.241 698.319 336.606 696.019C325.713 690.991 305.334 684.421 296.306 679C314.206 677.865 333.185 677.526 351.157 677.104C362.513 676.837 378.654 675.91 389.561 676.69L389.234 675.749ZM597.796 783.195L597.263 784.061L596.818 785.236C595.242 787.19 594.254 788.116 592.428 789.799C591.325 790.287 589.894 791.356 588.92 792.047L588.083 792.212C586.443 792.561 585.111 792.472 583.434 792.41C578.323 791.528 575.871 794.006 574.578 799.257C574.391 800.016 574.994 801.3 574.968 802.537C574.925 806.14 575.506 808.034 576.489 811.525C579 815.53 578.084 815.04 582.412 817.726C586.067 817.362 585.709 817.671 586.781 813.712L587.23 812.752C587.648 811.172 588.087 809.599 588.547 808.031C588.237 807.298 588.094 806.99 587.874 806.253C589.325 804.697 594.602 802.143 596.452 801.479C598.249 800.563 600.131 800.363 602.133 799.986C602.873 800.366 608.753 800.267 610.253 800.484C613.804 800.996 616.509 801.655 619.992 802.619L620.774 802.843L622.76 803.374C626.869 804.374 631.13 806.162 635.136 806.978L635.542 807.06C636.459 807.413 637.309 807.685 638.216 808.053C640.382 808.844 642.752 809.653 644.857 810.554L645.741 810.618C646.941 811.107 647.919 811.432 649.141 811.835C650.044 812.21 650.81 812.507 651.738 812.842C652.523 813.303 653.35 813.649 654.161 814.064C656.516 814.929 660.972 816.251 662.642 817.8L663.425 817.902C668.251 819.98 672.677 822.447 677.334 824.324L677.949 824.66C680.044 826.006 682.187 827.274 684.375 828.461C684.785 828.886 685.313 829.196 685.807 829.535C691.607 833.819 691.692 834.827 695.849 840.084C696.545 842.332 697.109 844.722 697.619 847.026C697.49 849.92 696.487 852.555 697.19 854.678C697.926 856.899 697.576 861.26 697.243 863.645L697.499 865.044C698.053 867.048 698.31 867.741 699.56 869.519C700.05 869.815 700.461 870.043 700.96 870.315C705.072 873.251 708.235 872.839 713.003 871.742C714.514 871.288 715.349 870.761 716.582 869.807C720.993 866.114 722.931 860.837 719.627 855.684L719.217 854.652C718.637 854.065 718.428 853.911 717.996 853.22C717.5 852.684 717.081 852.214 716.595 851.657C712.457 847.426 710.611 844.396 711.927 838.745C712.712 835.374 712.232 835.466 714.776 832.934L715.219 832.372C709.802 827.057 714.285 830.422 713.107 824.759C712.116 819.993 719.023 818.701 720.582 821.479C722.443 824.794 727.807 823.413 725.001 827.144C724.586 827.674 721.802 828.948 720.891 829.54C722.199 829.267 723.057 829.115 724.375 828.959C724.691 828.976 732.38 829.576 731.649 829.631C732.263 829.185 732.48 828.619 732.903 828.002C735.072 824.844 738.245 823.459 742.001 823.485C744.496 823.503 745.429 823.412 747.372 824.98L748.143 825.587C751.307 822.107 749.693 823.306 750.234 819.176C749.75 817.173 748.461 815.393 747.371 813.678C746.087 812.233 745.036 811.017 743.498 809.829C735.764 804.373 730.882 806.7 726.17 814.039L725.626 814.615C724.226 816.134 723.63 816.416 721.77 817.368L720.866 817.647C717.527 818.698 716.794 818.827 713.397 819.287C712.295 819.361 711.192 819.425 710.089 819.481C706.752 819.388 704.074 819.187 700.812 819.033C697.366 818.836 694.072 817.91 690.785 817.626C688.881 817.092 686.87 816.522 684.959 816.041C684.006 815.887 683.138 815.451 682.243 815.106C681.21 814.956 681.026 814.901 679.998 814.613L679.601 814.567C675.673 812.836 670.232 811.092 665.77 809.238L665.023 808.951C663.428 807.874 652.978 802.759 650.56 801.621L649.642 801.183C649.02 800.551 643.878 797.589 642.817 796.926C634.381 791.657 624.216 786.466 617.452 779.153C617.541 775.486 617.902 771.641 618.022 767.867C614.032 760.13 608.502 758.138 600.023 759.479L598.238 760.358C595.919 761.527 594.186 763.452 592.63 765.48L591.925 766.857C591.397 767.998 591.045 769.21 590.571 770.375C590.693 772.483 591.31 771.781 593.29 772.183C596.287 773.886 596.168 773.993 598.136 776.646L598.224 777.272C598.58 779.553 598.197 780.963 597.796 783.195ZM586.551 803.309L586.851 804.141C587.88 806.803 587.43 807.738 584.553 807.816C582.071 805.283 584.086 804.144 586.551 803.309Z"/><path fill="#F2E6DE" fill-opacity="0.75294119" d="M600.023 759.479C608.502 758.138 614.032 760.13 618.022 767.867C617.902 771.641 617.541 775.486 617.452 779.153C624.216 786.466 634.381 791.657 642.817 796.926C643.878 797.589 649.02 800.551 649.642 801.183C648.825 802.579 650.185 802.826 651.282 803.717L651.278 803.772C651.082 803.82 646.246 802.319 644.216 803.961C641.65 806.037 644.424 806.761 644.857 810.554C642.752 809.653 640.382 808.844 638.216 808.053C638.948 807.532 640.573 806.632 641.071 806.226C640.945 805.186 640.629 802.241 640.243 801.693C638.491 799.21 636.209 798.794 635.534 802.003C634.656 806.172 637.489 804.106 635.542 807.06L635.136 806.978C634.532 804.606 632.915 803.57 630.497 803.579C629.898 803.581 629.444 803.328 628.781 803.525C627.01 803.997 624.595 802.751 622.731 802.539C620.478 802.097 618.242 801.945 617.571 799.429C617.555 799.371 613.896 798.804 613.247 798.963C610.276 799.693 606.551 798.998 603.471 799.267C602.62 799.342 602.62 799.401 602.133 799.986C600.131 800.363 598.249 800.563 596.452 801.479L596.221 800.63L597.234 800.152C603.368 799.004 606.544 794.582 600.273 794.872C599.778 794.895 596.056 796.412 595.167 795.198C593.857 793.408 597.043 791.649 597.938 791.051C600.519 790.335 606.57 778.937 603.766 777.213C597.044 773.082 602.84 782.357 597.796 783.195C598.197 780.963 598.58 779.553 598.224 777.272L598.136 776.646C598.528 776.085 600.652 773.425 600.127 772.64C598.726 772 599.636 774.295 597.256 771.771C597.193 771.955 602.106 767.865 602.141 767.846C606.504 765.59 606.234 761.605 601.203 760.604C601.947 760.752 599.406 759.054 600.023 759.479Z"/><path fill="#F4E9E0" fill-opacity="0.72941178" d="M690.785 817.626C694.072 817.91 697.366 818.836 700.812 819.033L701.352 819.711C701.882 820.386 701.955 821.484 702.983 821.703C706.637 822.479 707.209 821.46 709.648 820.756L709.64 820.747L709.724 820.692C709.82 820.324 709.858 820.383 709.726 820.077C709.847 819.878 709.968 819.68 710.089 819.481C711.192 819.425 712.295 819.361 713.397 819.287C712.055 820.024 711.815 820.396 710.801 821.546C710.209 822.218 709.192 823.203 709.303 824.195C709.477 825.76 710.07 827.162 709.563 828.771C709.469 829.07 709.386 830.518 709.594 830.553C711.238 830.828 710.574 831.613 710.636 832.043C710.7 832.486 713.933 832.78 714.776 832.934C712.232 835.466 712.712 835.374 711.927 838.745C710.611 844.396 712.457 847.426 716.595 851.657C717.081 852.214 717.5 852.684 717.996 853.22C711.261 857.455 718.627 863.901 713.551 865.259C711.403 864.508 713.098 859.217 711.405 858.608C704.165 856.003 710.866 868.146 702.496 864.391C702.576 864.426 697.913 864.862 697.499 865.044L697.243 863.645C697.576 861.26 697.926 856.899 697.19 854.678C696.487 852.555 697.49 849.92 697.619 847.026C699.763 840.206 700.907 842.3 695.849 840.084C691.692 834.827 691.607 833.819 685.807 829.535C685.778 828.912 685.177 827.002 685.223 826.983C687.874 825.89 688.591 818.768 685.769 818.184C688.842 817.847 686.302 819.172 690.785 817.626Z"/><path fill="#CBAFA0" d="M724.375 828.959C724.691 828.976 732.38 829.576 731.649 829.631C732.263 829.185 732.48 828.619 732.903 828.002C735.072 824.844 738.245 823.459 742.001 823.485C744.496 823.503 745.429 823.412 747.372 824.98L748.143 825.587C749.26 826.984 750.09 828.598 751.164 829.803L751.531 830.222C751.33 836.858 751.236 837.283 748.696 843.465C744.241 846.61 745.863 846.479 740.001 847.771C737.279 847.127 736.039 846.54 733.892 844.663L733.22 844.092C727.461 835.315 719.867 844.638 716.978 850.852L716.595 851.657C712.457 847.426 710.611 844.396 711.927 838.745C712.712 835.374 712.232 835.466 714.776 832.934L715.219 832.372C717.331 831.411 718.545 830.39 720.891 829.54C722.199 829.267 723.057 829.115 724.375 828.959Z"/><path fill="#F4E9E0" fill-opacity="0.69803923" d="M743.498 809.829C745.036 811.017 746.087 812.233 747.371 813.678C746.445 817.523 746.872 818.655 743.399 821.166C742.879 821.543 741.892 821.795 741.645 822.2C741.753 822.363 741.861 822.525 741.969 822.687C741.203 823.145 734.574 822.797 731.827 825.158C729.613 827.062 727.721 828.449 724.877 828.743C727.832 826.874 730.902 823.758 724.701 822.858C720.837 822.297 720.079 817.6 721.728 819.655C723.319 821.639 727.926 822.515 729.281 819.634C731.049 816.406 731.556 814.973 732.648 811.166C737.11 811.434 740.745 813.471 743.498 809.829Z"/><path fill="#F4E9E0" fill-opacity="0.62352943" d="M726.17 814.039C730.882 806.7 735.764 804.373 743.498 809.829C740.745 813.471 737.11 811.434 732.648 811.166C731.556 814.973 731.049 816.406 729.281 819.634C727.926 822.515 723.319 821.639 721.728 819.655C720.079 817.6 720.837 822.297 724.701 822.858C730.902 823.758 727.832 826.874 724.877 828.743L724.375 828.959C723.057 829.115 722.199 829.267 720.891 829.54C721.802 828.948 724.586 827.674 725.001 827.144C727.807 823.413 722.443 824.794 720.582 821.479C719.023 818.701 712.116 819.993 713.107 824.759C714.285 830.422 709.802 827.057 715.219 832.372L714.776 832.934C713.933 832.78 710.7 832.486 710.636 832.043C710.574 831.613 711.238 830.828 709.594 830.553C709.386 830.518 709.469 829.07 709.563 828.771C710.07 827.162 709.477 825.76 709.303 824.195C709.192 823.203 710.209 822.218 710.801 821.546C711.815 820.396 712.055 820.024 713.397 819.287C716.794 818.827 717.527 818.698 720.866 817.647L721.77 817.368C722.357 818.088 723.108 819.077 723.657 819.832C725.964 823.004 732.449 812.73 730.738 812.579C729.505 812.469 727.233 813.637 726.17 814.039Z"/><path fill="#F4E9E0" fill-opacity="0.56862748" d="M583.434 792.41C585.111 792.472 586.443 792.561 588.083 792.212L588.92 792.047C588.458 795.222 586.617 795.806 590.522 796.239C592.813 796.493 592.821 800.005 596.096 799.943C596.475 800.013 596.855 800.082 597.234 800.152L596.221 800.63L595.379 800.879C594.477 801.129 593.511 800.998 592.708 800.515C591.808 799.963 591.769 799.438 591.496 798.515C591.305 797.874 590.841 797.351 590.228 797.085C588.952 796.541 586.668 796.969 585.008 796.173C581.938 794.701 577.955 797.316 579.522 800.846C581.483 805.263 585.413 800.919 586.853 801.951C586.799 801.987 586.746 802.023 586.693 802.058C589.126 802.541 587.944 804.376 587.874 806.253C588.094 806.99 588.237 807.298 588.547 808.031C585.453 808.987 586.495 809.064 583.443 808.427L582.453 808.227C583.16 808.094 583.85 807.967 584.553 807.816C587.43 807.738 587.88 806.803 586.851 804.141L586.551 803.309C583.527 803.187 583.165 803.925 580.995 803.427C580.107 803.224 579.696 803.238 578.766 803.299C578.573 803.545 577.662 805.58 577.502 806.014C576.6 808.008 576.5 808.106 576.506 810.215C576.504 810.652 576.498 811.088 576.489 811.525C575.506 808.034 574.925 806.14 574.968 802.537C574.994 801.3 574.391 800.016 574.578 799.257C575.871 794.006 578.323 791.528 583.434 792.41Z"/><path fill="#F2E6DE" fill-opacity="0.61960787" d="M645.741 810.618C648.196 808.009 644.306 807.704 645.057 805.773C646.249 802.706 653.018 806.886 654.292 806.992C657.143 807.231 657.73 809.92 660.275 810.646C661.615 811.029 664.294 811.487 664.93 810.276C664.803 809.738 664.89 809.521 665.023 808.951L665.77 809.238C665.751 810.216 665.929 810.3 666.14 811.24C665.636 812.024 664.069 811.696 663.258 811.758C663.542 812.03 665.95 812.971 666.291 813.182L666.379 813.502C665.741 814.372 664.596 813.451 663.848 813.263C662.901 815.153 665.551 813.884 662.642 817.8C660.972 816.251 656.516 814.929 654.161 814.064L656.477 812.256C657.014 811.337 655.722 810.566 654.982 810.376C654.236 810.388 652.971 809.11 652.252 809.494C651.291 810.068 649.707 809.45 648.941 809.959C647.992 810.588 650.751 810.786 649.734 811.52C649.537 811.625 649.339 811.73 649.141 811.835C647.919 811.432 646.941 811.107 645.741 810.618Z"/><path fill="#F4E9E0" fill-opacity="0.49411765" d="M717.996 853.22C718.428 853.911 718.637 854.065 719.217 854.652C716.201 855.848 715.213 857.133 716.155 860.746C716.841 863.377 715.782 865.312 714.914 867.745C711.398 867.755 707.39 868.003 703.976 867.408C701.742 867.018 700.862 867.94 699.56 869.519C698.31 867.741 698.053 867.048 697.499 865.044C697.913 864.862 702.576 864.426 702.496 864.391C710.866 868.146 704.165 856.003 711.405 858.608C713.098 859.217 711.403 864.508 713.551 865.259C718.627 863.901 711.261 857.455 717.996 853.22Z"/><path fill="#F4E9E0" fill-opacity="0.48235294" d="M597.263 784.061C603.472 784.854 600.186 786.358 597.938 791.051C597.043 791.649 593.857 793.408 595.167 795.198C596.056 796.412 599.778 794.895 600.273 794.872C606.544 794.582 603.368 799.004 597.234 800.152C596.855 800.082 596.475 800.013 596.096 799.943C592.821 800.005 592.813 796.493 590.522 796.239C586.617 795.806 588.458 795.222 588.92 792.047C589.894 791.356 591.325 790.287 592.428 789.799C594.857 793.494 598.421 790.101 599.233 786.998C599.702 785.206 597.942 785.908 596.818 785.236L597.263 784.061ZM598.914 799.625L599.173 798.929C600.23 796.138 598.954 796.354 596.161 796.027C594.967 798.766 596.449 799.092 598.914 799.625Z"/><path fill="#F2E6DE" fill-opacity="0.40784314" d="M596.161 796.027C598.954 796.354 600.23 796.138 599.173 798.929L598.914 799.625C596.449 799.092 594.967 798.766 596.161 796.027Z"/><path fill="#F4E9E0" fill-opacity="0.60784316" d="M587.874 806.253C587.944 804.376 589.126 802.541 586.693 802.058C586.746 802.023 586.799 801.987 586.853 801.951C585.413 800.919 581.483 805.263 579.522 800.846C577.955 797.316 581.938 794.701 585.008 796.173C586.668 796.969 588.952 796.541 590.228 797.085C590.841 797.351 591.305 797.874 591.496 798.515C591.769 799.438 591.808 799.963 592.708 800.515C593.511 800.998 594.477 801.129 595.379 800.879L596.221 800.63L596.452 801.479C594.602 802.143 589.325 804.697 587.874 806.253ZM583.748 800.62C584.625 799.924 584.783 798.653 584.104 797.763C583.424 796.873 582.157 796.69 581.254 797.352C580.654 797.792 580.338 798.521 580.428 799.26C580.519 799.999 581.001 800.631 581.69 800.913C582.378 801.195 583.165 801.083 583.748 800.62Z"/><path fill="#F4E9E0" fill-opacity="0.71764708" d="M581.254 797.352C582.157 796.69 583.424 796.873 584.104 797.763C584.783 798.653 584.625 799.924 583.748 800.62C583.165 801.083 582.378 801.195 581.69 800.913C581.001 800.631 580.519 799.999 580.428 799.26C580.338 798.521 580.654 797.792 581.254 797.352Z"/><path fill="#F2E6DE" fill-opacity="0.5411765" d="M600.023 759.479C599.406 759.054 601.947 760.752 601.203 760.604C606.234 761.605 606.504 765.59 602.141 767.846C602.106 767.865 597.193 771.955 597.256 771.771C599.636 774.295 598.726 772 600.127 772.64C600.652 773.425 598.528 776.085 598.136 776.646C596.168 773.993 596.287 773.886 593.29 772.183C591.31 771.781 590.693 772.483 590.571 770.375C591.885 770.743 593.114 771.138 594.414 771.554C596.144 770.356 599.459 766.145 600.339 763.949C600.432 763.718 601.031 763.865 601.258 763.69C601.241 763.556 601.225 763.422 601.208 763.288L601.131 763.277C600.111 763.778 599.039 761.963 597.64 763.59C596.371 765.067 594.438 765.3 592.63 765.48C594.186 763.452 595.919 761.527 598.238 760.358L600.023 759.479Z"/><path fill="#F2E6DE" fill-opacity="0.4509804" d="M663.425 817.902C667.559 816.473 665.715 815.766 668.524 814.315C669.495 813.814 674.52 814.144 675.221 815.378C677.021 816.366 675.564 817.342 676.837 818.776C676.992 818.95 678.79 821.009 678.709 821.22C678.53 821.684 677.083 822.155 676.802 822.657C677.177 823.49 677.259 823.383 677.334 824.324C672.677 822.447 668.251 819.98 663.425 817.902Z"/><path fill="#F0E1DA" fill-opacity="0.84313726" d="M747.371 813.678C748.461 815.393 749.75 817.173 750.234 819.176C749.693 823.306 751.307 822.107 748.143 825.587L747.372 824.98C745.429 823.412 744.496 823.503 742.001 823.485C738.245 823.459 735.072 824.844 732.903 828.002C732.48 828.619 732.263 829.185 731.649 829.631C732.38 829.576 724.691 828.976 724.375 828.959L724.877 828.743C727.721 828.449 729.613 827.062 731.827 825.158C734.574 822.797 741.203 823.145 741.969 822.687C741.861 822.525 741.753 822.363 741.645 822.2C741.892 821.795 742.879 821.543 743.399 821.166C746.872 818.655 746.445 817.523 747.371 813.678Z"/><path fill="#F2E6DE" fill-opacity="0.66274512" d="M649.642 801.183L650.56 801.621C652.978 802.759 663.428 807.874 665.023 808.951C664.89 809.521 664.803 809.738 664.93 810.276C664.294 811.487 661.615 811.029 660.275 810.646C657.73 809.92 657.143 807.231 654.292 806.992C653.018 806.886 646.249 802.706 645.057 805.773C644.306 807.704 648.196 808.009 645.741 810.618L644.857 810.554C644.424 806.761 641.65 806.037 644.216 803.961C646.246 802.319 651.082 803.82 651.278 803.772L651.282 803.717C650.185 802.826 648.825 802.579 649.642 801.183Z"/><path fill="#F2E6DE" fill-opacity="0.54509807" d="M665.77 809.238C670.232 811.092 675.673 812.836 679.601 814.567C674.231 816.549 678.926 816.854 680.386 820.898C680.585 821.449 680.242 823.744 679.009 823.241C678.946 823.218 678.199 824.382 677.949 824.66L677.334 824.324C677.259 823.383 677.177 823.49 676.802 822.657C677.083 822.155 678.53 821.684 678.709 821.22C678.79 821.009 676.992 818.95 676.837 818.776C675.564 817.342 677.021 816.366 675.221 815.378C674.52 814.144 669.495 813.814 668.524 814.315C665.715 815.766 667.559 816.473 663.425 817.902L662.642 817.8C665.551 813.884 662.901 815.153 663.848 813.263C664.596 813.451 665.741 814.372 666.379 813.502L666.291 813.182C665.95 812.971 663.542 812.03 663.258 811.758C664.069 811.696 665.636 812.024 666.14 811.24C665.929 810.3 665.751 810.216 665.77 809.238Z"/><path fill="#F2E6DE" fill-opacity="0.1882353" d="M714.914 867.745C715.782 865.312 716.841 863.377 716.155 860.746C715.213 857.133 716.201 855.848 719.217 854.652L719.627 855.684L718.834 856.098C718.699 856.166 718.564 856.234 718.43 856.301C717.864 856.606 717.453 857.136 717.3 857.76C716.652 860.398 721.408 860.839 717.78 864.845C716.605 866.141 715.866 868.05 716.582 869.807C715.349 870.761 714.514 871.288 713.003 871.742C710.336 869.914 703.67 868.493 700.96 870.315C700.461 870.043 700.05 869.815 699.56 869.519C700.862 867.94 701.742 867.018 703.976 867.408C707.39 868.003 711.398 867.755 714.914 867.745Z"/><path fill="#F4E9E0" fill-opacity="0.29803923" d="M577.502 806.014C577.742 806.053 577.981 806.091 578.22 806.13C581.517 806.537 578.923 811.057 581.466 811.873C582.647 812.252 583.939 811.973 585.056 812.957C585.783 813.597 586.01 813.049 586.781 813.712C585.709 817.671 586.067 817.362 582.412 817.726C578.084 815.04 579 815.53 576.489 811.525C576.498 811.088 576.504 810.652 576.506 810.215C576.5 808.106 576.6 808.008 577.502 806.014Z"/><path fill="#F2E6DE" fill-opacity="0.57254905" d="M679.601 814.567L679.998 814.613C680.658 816.253 677.892 814.905 680.001 817.508C681.932 819.891 685.64 818.637 685.444 822.757C685.152 825.692 684.097 825.207 684.375 828.461C682.187 827.274 680.044 826.006 677.949 824.66C678.199 824.382 678.946 823.218 679.009 823.241C680.242 823.744 680.585 821.449 680.386 820.898C678.926 816.854 674.231 816.549 679.601 814.567Z"/><path fill="#F0E1DA" fill-opacity="0.79215688" d="M602.133 799.986C602.62 799.401 602.62 799.342 603.471 799.267C606.551 798.998 610.276 799.693 613.247 798.963C613.896 798.804 617.555 799.371 617.571 799.429C618.242 801.945 620.478 802.097 622.731 802.539C624.595 802.751 627.01 803.997 628.781 803.525C629.444 803.328 629.898 803.581 630.497 803.579C632.915 803.57 634.532 804.606 635.136 806.978C631.13 806.162 626.869 804.374 622.76 803.374L620.774 802.843L619.992 802.619C616.509 801.655 613.804 800.996 610.253 800.484C608.753 800.267 602.873 800.366 602.133 799.986Z"/><path fill="#F2E6DE" fill-opacity="0.71764708" d="M679.998 814.613C681.026 814.901 681.21 814.956 682.243 815.106L682.006 815.705C680.28 819.251 684.189 816.573 684.959 816.041C686.87 816.522 688.881 817.092 690.785 817.626C686.302 819.172 688.842 817.847 685.769 818.184C688.591 818.768 687.874 825.89 685.223 826.983C685.177 827.002 685.778 828.912 685.807 829.535C685.313 829.196 684.785 828.886 684.375 828.461C684.097 825.207 685.152 825.692 685.444 822.757C685.64 818.637 681.932 819.891 680.001 817.508C677.892 814.905 680.658 816.253 679.998 814.613Z"/><path fill="#F4E9E0" fill-opacity="0.56862748" d="M597.796 783.195C602.84 782.357 597.044 773.082 603.766 777.213C606.57 778.937 600.519 790.335 597.938 791.051C600.186 786.358 603.472 784.854 597.263 784.061L597.796 783.195Z"/><path fill="#F4E9E0" fill-opacity="0.55686277" d="M577.502 806.014C577.662 805.58 578.573 803.545 578.766 803.299C579.696 803.238 580.107 803.224 580.995 803.427C583.165 803.925 583.527 803.187 586.551 803.309C584.086 804.144 582.071 805.283 584.553 807.816C583.85 807.967 583.16 808.094 582.453 808.227C583.244 813.256 586.178 810.454 587.23 812.752L586.781 813.712C586.01 813.049 585.783 813.597 585.056 812.957C583.939 811.973 582.647 812.252 581.466 811.873C578.923 811.057 581.517 806.537 578.22 806.13C577.981 806.091 577.742 806.053 577.502 806.014Z"/><path fill="#F4E9E0" fill-opacity="0.54509807" d="M726.17 814.039C727.233 813.637 729.505 812.469 730.738 812.579C732.449 812.73 725.964 823.004 723.657 819.832C723.108 819.077 722.357 818.088 721.77 817.368C723.63 816.416 724.226 816.134 725.626 814.615L726.17 814.039Z"/><path fill="#F2E6DE" fill-opacity="0.70588237" d="M635.542 807.06C637.489 804.106 634.656 806.172 635.534 802.003C636.209 798.794 638.491 799.21 640.243 801.693C640.629 802.241 640.945 805.186 641.071 806.226C640.573 806.632 638.948 807.532 638.216 808.053C637.309 807.685 636.459 807.413 635.542 807.06ZM639.536 805.872C640.098 802.95 639.787 802.165 637.157 801.086C636.427 804.608 636.364 804.515 639.536 805.872Z"/><path fill="#F2E6DE" fill-opacity="0.65882355" d="M637.157 801.086C639.787 802.165 640.098 802.95 639.536 805.872C636.364 804.515 636.427 804.608 637.157 801.086Z"/><path fill="#F2E6DE" fill-opacity="0.06666667" d="M719.627 855.684C722.931 860.837 720.993 866.114 716.582 869.807C715.866 868.05 716.605 866.141 717.78 864.845C721.408 860.839 716.652 860.398 717.3 857.76C717.453 857.136 717.864 856.606 718.43 856.301C718.564 856.234 718.699 856.166 718.834 856.098L719.627 855.684Z"/><path fill="#F4E9E0" fill-opacity="0.50196081" d="M592.63 765.48C594.438 765.3 596.371 765.067 597.64 763.59C599.039 761.963 600.111 763.778 601.131 763.277L601.208 763.288C601.225 763.422 601.241 763.556 601.258 763.69C601.031 763.865 600.432 763.718 600.339 763.949C599.459 766.145 596.144 770.356 594.414 771.554C594.825 769.334 595.737 768.782 596.07 767.002C596.301 765.767 593.18 767.029 591.925 766.857L592.63 765.48Z"/><path fill="#F2E6DE" fill-opacity="0.043137256" d="M700.96 870.315C703.67 868.493 710.336 869.914 713.003 871.742C708.235 872.839 705.072 873.251 700.96 870.315Z"/><path fill="#F4E9E0" fill-opacity="0.32156864" d="M596.818 785.236C597.942 785.908 599.702 785.206 599.233 786.998C598.421 790.101 594.857 793.494 592.428 789.799C594.254 788.116 595.242 787.19 596.818 785.236Z"/><path fill="#F2E6DE" fill-opacity="0.74509805" d="M700.812 819.033C704.074 819.187 706.752 819.388 710.089 819.481C709.968 819.68 709.847 819.878 709.726 820.077C709.858 820.383 709.82 820.324 709.724 820.692L709.64 820.747L709.648 820.756C707.209 821.46 706.637 822.479 702.983 821.703C701.955 821.484 701.882 820.386 701.352 819.711L700.812 819.033Z"/><path fill="#F4E9E0" fill-opacity="0.40392157" d="M591.925 766.857C593.18 767.029 596.301 765.767 596.07 767.002C595.737 768.782 594.825 769.334 594.414 771.554C593.114 771.138 591.885 770.743 590.571 770.375C591.045 769.21 591.397 767.998 591.925 766.857Z"/><path fill="#F0E1DA" d="M750.234 819.176L750.771 820.454C751.465 822.94 751.48 823.549 751.818 826.11C751.614 827.553 751.606 828.776 751.531 830.222L751.164 829.803C750.09 828.598 749.26 826.984 748.143 825.587C751.307 822.107 749.693 823.306 750.234 819.176Z"/><path fill="#F4E9E0" fill-opacity="0.80000001" d="M582.453 808.227L583.443 808.427C586.495 809.064 585.453 808.987 588.547 808.031C588.087 809.599 587.648 811.172 587.23 812.752C586.178 810.454 583.244 813.256 582.453 808.227Z"/><path fill="#F0E1DA" fill-opacity="0.64313728" d="M649.141 811.835C649.339 811.73 649.537 811.625 649.734 811.52C650.751 810.786 647.992 810.588 648.941 809.959C649.707 809.45 651.291 810.068 652.252 809.494C652.971 809.11 654.236 810.388 654.982 810.376C655.722 810.566 657.014 811.337 656.477 812.256C654.842 811.265 650.371 808.931 651.738 812.842C650.81 812.507 650.044 812.21 649.141 811.835Z"/><path fill="#F4E9E0" fill-opacity="0.63921571" d="M695.849 840.084C700.907 842.3 699.763 840.206 697.619 847.026C697.109 844.722 696.545 842.332 695.849 840.084Z"/><defs><linearGradient id="gradient_0" gradientUnits="userSpaceOnUse" x1="653.15588" y1="812.77161" x2="653.60236" y2="811.12183"><stop offset="0" stop-color="#EFE0D8" stop-opacity="0.65490198"/><stop offset="1" stop-color="#EFE0D9" stop-opacity="0.7019608"/></linearGradient></defs><path fill="url(#gradient_0)" d="M651.738 812.842C650.371 808.931 654.842 811.265 656.477 812.256L654.161 814.064C653.35 813.649 652.523 813.303 651.738 812.842Z"/><path fill="#F2E6DE" fill-opacity="0.74901962" d="M682.243 815.106C683.138 815.451 684.006 815.887 684.959 816.041C684.189 816.573 680.28 819.251 682.006 815.705L682.243 815.106Z"/><path fill="#29140E" d="M411.687 730.453C415.682 730.623 418.228 731.343 422.037 731.894C429.545 745.026 438.545 747.462 451.57 754.071C448.927 748.467 447.533 745.861 444.242 740.738C445.838 739.888 445.981 740.278 448.176 740.479C447.826 736.465 447.525 734.458 447.395 730.322C454.599 734.904 456.237 737.8 461.955 743.142C466.009 743.208 471.795 744.796 475.518 746.403C476.609 741.303 476.983 736.545 478.291 731.341C482.217 735.729 484.757 740.611 485.548 746.493C485.647 747.224 485.872 748.736 486.231 749.387L487.008 748.681C488.856 749.014 491.001 749.467 492.852 749.508C494.456 749.667 494.633 750.666 495.218 752.13C495.881 751.72 500.319 754.109 501.817 754.629L502.268 754.038C503.541 752.437 504.228 750.429 505.386 748.68C507.369 745.684 509.447 742.766 511.48 739.805C511.517 750.122 510.648 755.071 510.11 764.735L513.764 765.192C515.161 764.752 514.769 764.712 515.928 763.91C522.41 759.429 529.76 755.706 536.583 751.812C533.313 760.253 529.248 768.503 526.248 776.437C529.342 777.236 533.293 778.121 536.143 779.384C530.374 781.407 528.49 782.306 523.464 785.766C523.662 787.679 523.882 789.547 523.96 791.472C530.007 792.867 537.706 795.623 543.745 797.622C537.39 799.363 533.927 799.181 527.39 799.067C529.561 799.398 531.192 799.592 533.382 799.745C531.095 800.893 526.612 803.009 524.639 804.338C526.887 805.795 546.445 811.225 551.674 813.428C541.186 814.204 528.268 814.468 517.651 814.511C516.945 815.424 516.203 816.526 515.303 817.214C523.062 819.543 534.899 823.92 542.476 827.075L539.992 828.518C536.967 828.562 509.285 829.305 508.53 829.626L508.76 831.396C513.493 833.683 516.615 834.753 521.529 837.493L514.805 839.075C511.026 839.896 502.484 840.281 498.472 840.392C504.852 844.336 511.291 848.184 517.787 851.935L516.849 852.117C515.35 852.397 514.797 851.931 513.686 853.075C508.191 853.513 479.636 853.187 474.805 851.614C471.927 853.137 461.039 855.611 457.763 855.861L459.053 856.611L458.911 857.125C463.357 859.756 469.076 861.97 473.777 864.369C465.242 864.604 456.759 865.374 448.284 865.372C436.785 865.369 425.378 863.31 414.107 861.162L411.558 862.318C418.059 865.63 424.344 868.445 430.787 871.623C420.29 871.817 395.406 872.22 385.51 869.864C386.385 871.815 387.879 874.007 389.007 875.897C383.611 874.869 377.888 873.824 372.701 872.07C365.343 876.056 354.223 872.572 347.299 868.966C338.517 870.952 331.94 871.777 322.947 871.218C319.314 870.991 311.618 870.372 308.271 870.648C307.443 870.182 306.609 869.727 305.769 869.283C308.054 868.9 314.665 866.722 317.167 865.98C323.691 863.988 330.297 862.273 336.967 860.841C322.707 857.968 310.155 860.729 295.902 861.735C291.951 862.013 287.999 862.489 284.066 862.974C289.292 859.309 298.792 850.702 303.973 846.328C299.897 847.856 294.702 850.935 290.925 852.033C282.759 854.407 272.145 855.128 263.486 856.288C269.831 851.056 276.702 845.097 283.519 840.616C279.326 840.088 275.456 842.371 271.142 841.556L271.251 842.309C256.496 846.988 251.368 846.833 236.107 846.445C233.456 845.984 231.485 846.382 229.598 845.374C239.736 842.467 251.755 837.79 261.936 834.275C246.695 830.596 229.048 832.097 214.583 829.655C226.019 826.828 240.018 823.781 250.985 820.396C236.574 817.666 222.118 815.176 207.624 812.926C217.934 811.7 228.43 808.961 238.846 807.997C240.86 807.811 244.548 807.502 245.936 806.046C244.11 804.417 215.311 798.571 210.108 797.476C216.061 796.451 236.43 793.222 240.743 791.524C239.933 786.894 242.575 787.133 246.341 788.826C250.496 788.214 261.572 787.077 264.474 784.683L264.339 783.77C260.63 780.526 238.356 770.778 232.373 768.01C233.494 767.696 234.609 767.36 235.718 767.004C241.394 767.098 248.553 766.032 254.228 765.395C256.897 765.095 260.102 764.306 262.701 764.361C263.338 763.575 263.516 763.668 264.564 763.565C266.939 762.577 272.7 761.766 275.324 761.423C274.961 761.093 274.23 760.385 273.839 760.175C269.415 757.806 267.982 754.767 265.181 751.276C267.084 750.309 269.505 749.431 271.143 748.316C273.042 748.123 274.801 748.024 276.685 747.736C277.911 746.937 280.746 746.61 282.24 746.372L292.271 744.156C294.214 743.735 294.677 743.553 296.601 742.843C296.894 742.605 297.187 742.366 297.48 742.128C306.67 742.297 315.762 743.917 325.044 743.827C323.053 740.79 322.285 739.525 320.677 736.253C324.27 737.056 327.879 737.697 331.5 738.379C337.841 739.511 338.821 740.279 344.492 742.805C348.197 742.457 353.877 743.641 357.555 742.661C363.312 741.127 367.182 738.327 373.195 736.873L373.893 736.711C374.049 734.629 375.466 734.237 377.247 734.495C382.842 735.306 387.659 738.537 393.251 738.993C394.374 739.077 394.92 739.329 395.958 739.771L399.999 738.343C406.698 736.157 411.78 736.223 418.737 736.85C416.332 734.636 414.068 732.735 411.687 730.453Z"/><path fill="#C78866" d="M260.639 841.834C263.933 838.158 268.048 834.902 272.001 832.018C287.475 820.73 300.41 814.566 319.876 819.548C325.642 821.024 332.892 823.864 338.572 824.738L339.27 824.842C331.706 827.097 287.383 841.31 283.519 840.616C279.326 840.088 275.456 842.371 271.142 841.556C267.07 841.451 264.693 841.498 260.639 841.834Z"/><path fill="#C78866" d="M262.701 764.361C263.338 763.575 263.516 763.668 264.564 763.565C280.509 778.004 294.847 796.769 308.298 813.734C306.448 813.246 304.891 812.782 303.007 812.391L300.757 811.926C279.546 807.622 266.907 791.155 263.919 770.758C263.602 768.59 263.201 766.496 262.701 764.361Z"/><path fill="#C78866" d="M511.48 739.805C511.517 750.122 510.648 755.071 510.11 764.735C509.01 777.368 501.944 787.122 490.299 792.066C490.853 780.285 488.517 772.807 495.218 763.373C492.547 762.488 491.018 766.226 489.912 768.106C489.311 765.652 489.559 765.693 489.491 763.114C489.645 761.236 490.372 758.884 490.841 756.991L491.346 754.99C491.829 753.061 492.261 751.416 492.852 749.508C494.456 749.667 494.633 750.666 495.218 752.13C495.881 751.72 500.319 754.109 501.817 754.629L502.268 754.038C503.541 752.437 504.228 750.429 505.386 748.68C507.369 745.684 509.447 742.766 511.48 739.805Z"/><path fill="#3C2419" d="M495.218 752.13C495.881 751.72 500.319 754.109 501.817 754.629C499.867 757.736 498.694 759.143 496.343 761.887C495.981 758.674 496.355 756.252 495.449 753.019L495.218 752.13Z"/><path fill="#C78866" d="M340.746 846.246L341.287 846.39C347.254 848.032 358.025 848.82 362.488 850.107C369.589 852.155 380.387 864.179 385.51 869.864C386.385 871.815 387.879 874.007 389.007 875.897C383.611 874.869 377.888 873.824 372.701 872.07C365.196 869.34 357.439 867.587 350.311 863.845C344.705 860.903 342.984 855.538 341.593 849.742L340.746 846.246Z"/><path fill="#C78866" d="M513.764 765.192C515.161 764.752 514.769 764.712 515.928 763.91C522.41 759.429 529.76 755.706 536.583 751.812C533.313 760.253 529.248 768.503 526.248 776.437C525.077 779.767 522.895 782.682 521.181 785.725C516.352 794.298 504.093 793.985 495.259 794.91C502.172 788.544 508.42 783.288 510.61 773.506C511.442 769.788 511.921 768.427 513.764 765.192Z"/><path fill="#C78866" d="M424.217 845.102C435.631 841.756 450.519 842.211 462.518 841.374C469.285 840.902 477.619 843.152 484.007 845.257C481.38 847.443 477.73 849.694 474.805 851.614C471.927 853.137 461.039 855.611 457.763 855.861L459.053 856.611L458.911 857.125C454.865 855.639 451.7 856.357 447.99 855.326C440.604 853.273 430.734 849.02 424.217 845.102Z"/><path fill="#C78866" d="M486.888 765.933C487.125 768.627 487.076 771.555 487.124 774.285C486.115 784.569 486.397 795.089 480.084 804.02C474.478 811.95 467.067 811.569 458.073 812.763C462.516 802.775 479.483 772.581 486.888 765.933Z"/><path fill="#C78866" d="M486.886 799.142C502.935 797.052 511.629 797.999 527.39 799.067C529.561 799.398 531.192 799.592 533.382 799.745C531.095 800.893 526.612 803.009 524.639 804.338C505.508 815.831 500.035 812.998 478.994 809.986C482.088 806.662 484.547 803.013 486.886 799.142Z"/><path fill="#C78866" d="M468.001 837.82C488.724 826.408 484.063 823.465 508.76 831.396C513.493 833.683 516.615 834.753 521.529 837.493L514.805 839.075C511.026 839.896 502.484 840.281 498.472 840.392C496.011 839.806 485.974 839.763 482.775 839.607C476.904 839.319 473.878 838.922 468.001 837.82Z"/><path fill="#C78866" d="M240.743 791.524C239.933 786.894 242.575 787.133 246.341 788.826C252.014 790.828 257.509 792.888 263.258 794.747C271.88 797.536 278.796 805.185 285.921 810.963C272.408 810.829 260.674 809.385 249.781 800.451C245.735 797.132 243.78 796.076 240.743 791.524Z"/><path fill="#C78866" d="M320.677 736.253C324.27 737.056 327.879 737.697 331.5 738.379C337.841 739.511 338.821 740.279 344.492 742.805C350.886 748.182 353.471 750.614 360.355 755.759C354.927 755.334 351.278 754.578 346.008 753.374L342.741 752.618C335.675 751.257 330.437 748.649 325.044 743.827C323.053 740.79 322.285 739.525 320.677 736.253Z"/><path fill="#C78866" d="M447.395 730.322C454.599 734.904 456.237 737.8 461.955 743.142C464.391 746.713 466.819 749.933 468.676 753.906C470.165 757.091 471.195 760.217 473.037 763.214C458.533 754.77 455.914 755.647 448.176 740.479C447.826 736.465 447.525 734.458 447.395 730.322Z"/><path fill="#C78866" d="M478.291 731.341C482.217 735.729 484.757 740.611 485.548 746.493C485.647 747.224 485.872 748.736 486.231 749.387C486.823 755.067 486.659 760.445 482.233 764.754C480.501 766.44 477.454 762.882 476.594 761.696C473.327 757.195 474.507 751.445 475.518 746.403C476.609 741.303 476.983 736.545 478.291 731.341Z"/><path fill="#C78866" d="M276.685 747.736C286.139 751.761 286.998 750.807 294.061 759.375L293.335 759.306C290.95 759.058 287.796 758.774 285.513 759.647C281.204 761.295 280.259 763.366 275.324 761.423C274.961 761.093 274.23 760.385 273.839 760.175C269.415 757.806 267.982 754.767 265.181 751.276C267.084 750.309 269.505 749.431 271.143 748.316C273.042 748.123 274.801 748.024 276.685 747.736Z"/><path fill="#C78866" d="M498.716 815.657C499.311 815.599 499.906 815.55 500.501 815.51C506.692 815.128 511.237 814.493 517.651 814.511C516.945 815.424 516.203 816.526 515.303 817.214C510.188 819.765 505.919 822.893 500.606 825.194C496.748 824.723 493.059 824.116 489.158 823.815C492.356 820.885 495.341 818.378 498.716 815.657Z"/><path fill="#C78866" d="M373.893 736.711C374.049 734.629 375.466 734.237 377.247 734.495C382.842 735.306 387.659 738.537 393.251 738.993C394.374 739.077 394.92 739.329 395.958 739.771C392.037 741.255 390.05 742.274 386.354 744.119C382.005 741.17 378.841 738.663 373.893 736.711Z"/><path fill="#3C2419" d="M489.491 763.114C489.559 765.693 489.311 765.652 489.912 768.106C489.694 768.734 489.469 769.36 489.237 769.983C486.949 772.578 488.125 770.063 487.124 774.285C487.076 771.555 487.125 768.627 486.888 765.933C487.677 765.637 488.309 765.089 488.982 764.591L489.491 763.114Z"/><path fill="#B07553" d="M489.491 763.114C489.559 765.693 489.311 765.652 489.912 768.106C489.694 768.734 489.469 769.36 489.237 769.983C488.909 767.759 488.986 766.874 488.982 764.591L489.491 763.114Z"/><path fill="#B07553" d="M411.558 862.318C411.103 862.069 409.401 861.382 409.298 860.764C409.828 860.077 413.254 861.003 414.107 861.162L411.558 862.318Z"/><path fill="#C78866" d="M289.023 778.818C300.445 766.625 303.495 768.376 320.208 766.389C314.745 772.353 309.734 777.106 302.149 780.038L301.335 780.26C300.295 780.537 299.578 780.247 299.205 781.314C307.438 782.888 323.705 790.715 330.293 796.133C339.748 803.907 343.723 812.017 345.083 823.882C340.651 823.176 336.281 822.125 332.012 820.74C310.894 813.791 298.763 797.928 289.023 778.818Z"/><path fill="#9D6A54" d="M291.55 780.185C295.131 780.15 298.576 780.296 302.149 780.038L301.335 780.26C300.295 780.537 299.578 780.247 299.205 781.314C296.485 781.159 294.213 780.69 291.55 780.185Z"/><path fill="#C78866" d="M466.932 781.54L467.27 782.184C461.351 793.775 459.153 805.62 448.269 813.855C436.695 822.612 429.858 822.255 416.619 820.763L415.95 820.562L415.768 819.878C435.104 800.675 439.863 792.527 466.932 781.54Z"/><path fill="#C78866" d="M355.05 827.186C368.227 825.957 381.99 835.043 394.888 838.537C384.866 842.657 379.05 843.881 368.483 844.964C352.529 845.124 341.947 841.767 327.885 834.299C335.487 832.372 347.944 827.999 355.05 827.186Z"/><path fill="#C78866" d="M418.673 788.389L419.398 788.661C420.768 793.071 412.715 807.992 408.728 811.518C394.64 823.976 382.273 824.262 364.437 823.963L363.964 823.873L363.734 823.383C369.579 820.661 385.053 808.621 390.937 804.572C400.58 797.938 408.172 793.664 418.673 788.389Z"/><path fill="#C78866" d="M403.625 822.622C416.147 821.662 434.937 829.987 448.749 833.21C440.845 836.922 437.65 838.472 429.126 839.836C412.478 842.35 400.058 837.689 385.457 829.826C391.774 826.423 396.561 823.85 403.625 822.622Z"/><path fill="#C78866" d="M470.363 814.693C475.464 814.164 487.441 815.441 493.487 815.662C480.515 824.119 476.838 829.482 460.863 834.121C458.776 834.713 454.675 836.056 452.717 835.755L453.005 833.308C451.958 831.216 441.839 828.109 438.401 826.629C447.888 820.694 459.155 815.857 470.363 814.693Z"/><path fill="#C78866" d="M400.033 843.057C408.276 846.019 425.846 850.626 434.68 852.05C435.568 852.047 437.552 852.322 435.627 853.089C410.541 860.668 392.537 861.241 368.638 849.287C379.909 848.051 389.097 845.659 400.033 843.057Z"/><path fill="#B07553" d="M434.68 852.05C435.568 852.047 437.552 852.322 435.627 853.089C435.408 852.86 434.873 852.33 434.68 852.05Z"/><path fill="#C78866" d="M323.1 788.13L321.285 786.779L321.419 786.28L323.819 786.197C351.249 793.481 353.107 798.605 372.7 815.416C363.672 819.54 357.24 819.258 347.406 817.483C343.994 804.019 334.736 795.267 323.1 788.13Z"/><path fill="#C78866" d="M320.358 833.98C322.356 834.816 335.485 843.718 338.191 845.545C338.995 848.414 339.87 851.107 340.68 854.075C335.572 853.206 331.4 852.177 326.39 851.036C317.572 848.676 309.779 846.712 301.564 842.636C307.504 840.17 314.058 836.668 320.358 833.98Z"/><path fill="#C78866" d="M442.808 755.185C454.313 753.504 464.543 759.856 473.221 766.514C467.846 766.296 463.366 766.045 457.93 765.972C447.13 765.396 437.803 763.75 427.218 761.72C433.277 757.086 435.41 756.189 442.808 755.185Z"/><path fill="#C78866" d="M371.81 742.221C380.916 741.849 388.599 746.116 395.362 751.711C390.062 752.247 383.036 752.863 377.727 753.034C370.044 752.817 360.083 750.307 353.528 746.321C356.268 745.167 359.106 744.258 362.007 743.605C365.703 742.833 368.067 742.538 371.81 742.221Z"/><path fill="#C78866" d="M409.372 739.154C413.432 738.609 419.479 739.253 423.66 740.244C424.61 739.863 428.768 743.561 427.24 744.124C422.969 745.696 413.794 749.271 409.853 750.7C408.908 750.962 407.951 751.205 406.993 751.413C405.462 751.741 403.926 752.048 402.387 752.334C398.246 750.166 395.719 748.513 392.043 745.633C397.71 742.537 402.981 740.139 409.372 739.154Z"/><path fill="#C78866" d="M340.79 755.606C343.632 755.477 345.439 755.603 348.233 756.15L350.228 756.548C341.799 764.555 336.296 770.958 325.433 775.041C322.637 776.003 320.362 776.733 317.496 777.51C319.835 770.832 320.797 767.743 326.803 763.384C331.649 759.867 334.935 757.403 340.79 755.606Z"/><path fill="#C78866" d="M431.371 749.231C432.799 749.109 438.455 749.298 438.783 751.239C438.68 751.427 437.396 751.885 437.238 751.926C426.365 754.754 420.623 764.243 410.513 767.75C410.245 767.87 409.978 767.989 409.71 768.108C406.776 768.904 405.317 769.286 402.318 769.963C410.461 755.207 413.975 750.662 431.371 749.231Z"/><path fill="#C78866" d="M291.658 747.803C299.824 748.567 317.04 756.483 325.261 758.913C325.9 759.102 326.367 759.034 326.912 759.483C326.991 760.326 325.293 761.415 324.787 761.831C324.243 762.18 323.692 762.519 323.134 762.848C318.568 765.489 313.358 764.795 308.507 763.351C299.763 760.746 295.912 755.407 291.658 747.803Z"/><path fill="#C78866" d="M365.724 756.396C365.843 756.437 367.137 756.767 367.003 757.224C362.224 773.51 356.145 772.451 341.459 774.009C337.748 773.977 342.598 769.4 343.756 768.017C347.31 763.77 354.356 758.288 360.003 757.911C362.673 757.732 363.095 757.299 365.724 756.396Z"/><path fill="#C78866" d="M387.108 755.212C390.267 754.989 393.49 754.989 396.658 754.962C394.189 756.712 391.6 758.622 389.304 760.596C384.542 764.688 379.371 766.917 373.847 769.623C370.587 770.64 368.475 771.16 365.111 771.899C370.721 759.325 373.558 756.002 387.108 755.212Z"/><path fill="#C78866" d="M459.418 769.61C463.276 769.198 467.17 769.291 471.003 769.887C473.865 770.329 476.442 770.935 479.252 771.614C477.956 773.318 473.522 780.665 471.518 779.881C471.195 779.754 469.683 779.428 469.334 779.356L463.992 778.125L458.507 776.881C455.84 776.267 453.177 775.641 450.494 775.096L446.953 774.376C451.565 771.899 454.146 770.74 459.418 769.61Z"/><path fill="#C78866" d="M263.385 812.461C270.933 812.614 278.383 813.8 286 813.4C288.091 813.291 291.116 814.173 293.252 814.433L297.328 814.918C295.292 815.835 293.238 816.71 291.166 817.542C287.345 819.17 285.122 820.365 281.498 822.458C273.442 819.604 270.311 817.299 263.385 812.461Z"/><path fill="#C78866" d="M308.354 746.496C314.81 746.349 320.605 746.562 326.5 749.533C327.752 750.164 336.377 753.663 336.549 754.467C336.358 755.037 335.748 755.342 335.251 755.695C332.671 756.686 330.525 757.287 327.852 757.956C319.689 755.02 314.508 752.643 308.354 746.496Z"/><path fill="#C78866" d="M355.94 797.963C360.131 798.051 365.367 799.455 369.509 800.378L373.761 801.365C375.343 801.717 376.922 802.093 378.509 802.419L381.994 803.114C383.497 803.427 384.883 803.675 386.385 803.968C384.947 804.986 383.484 805.881 382.057 806.888C379.962 808.376 378.522 809.374 376.509 811.028C370.572 808.401 368.915 807.555 363.825 803.684C362.573 802.746 361.315 801.816 360.05 800.895L355.94 797.963Z"/><path fill="#C78866" d="M286.496 761.978C293.164 762.118 296.255 763.821 302.252 766.403C298.638 767.308 295.572 767.773 293.119 770.905C291.635 772.674 291.144 774.434 289.016 773.484L280.913 769.918C291.747 766.554 280.923 769.449 286.496 761.978Z"/><path fill="#C78866" d="M429.222 799.254C429.695 802.432 413.781 813.648 410.822 815.708L410.445 815.975C410.23 815.267 410.31 815.196 410.738 814.574C413.567 810.458 415.67 805.912 417.708 801.368L418.114 800.483L429.222 799.254Z"/><path fill="#C78866" d="M359.638 923.403L358.842 923.121C350.88 920.34 341.571 918.514 333.432 916.27C287.513 903.618 304.608 894.898 338.776 889.268C423.612 875.291 510.009 873.999 595.796 875.433C605.177 875.59 637.911 875.19 644.506 879.509C646.874 885.737 611.126 896.994 605.799 899.193L677.507 903.5C688.524 904.237 704.332 904.896 714.848 906.789C704.782 911.482 692.948 915.259 682.355 918.748C630.628 935.781 576.642 943.86 523.159 953.169C520.703 953.597 520.574 954.006 519.331 955.997C487.035 956.826 444.76 953.143 413.06 946.198C418.781 942.811 462.818 936.02 473.484 933.081C446.925 929.601 418.869 924.723 392.657 921.623C393.95 918.195 395.513 913.664 397.031 910.423L382.325 906.428C375.702 911.329 365.187 918.203 359.638 923.403Z"/><path fill="#9D6A54" d="M518.262 889.703C523.951 888.497 561.392 890.998 568.797 891.804C561.678 892.903 554.55 893.946 547.415 894.936C530.014 897.698 522.609 898.329 504.964 897.449L498.246 891.755C504.783 891.232 511.709 890.391 518.262 889.703Z"/><path fill="#9D6A54" d="M538.065 923.299C548.206 921.013 560.162 917.971 570.357 916.521C573.906 916.017 583.315 916.889 587.347 916.99C589.706 919.468 592.4 922.445 594.818 924.794C577.982 925.159 563.34 924.856 546.621 924.421C542.484 924.621 537.394 924.51 533.12 924.553C534.76 924.031 535.458 923.667 537.204 923.43L538.065 923.299Z"/><path fill="#B07553" d="M538.065 923.299C540.278 924.641 543.363 923.964 546.621 924.421C542.484 924.621 537.394 924.51 533.12 924.553C534.76 924.031 535.458 923.667 537.204 923.43L538.065 923.299Z"/><path fill="#9D6A54" d="M438.602 891.295C440.438 891.044 442.137 890.918 443.982 890.798C445.792 893.168 447.295 895.195 448.908 897.764C442.786 898.292 434.985 899.067 428.954 898.978C427.665 898.449 426.409 897.844 425.192 897.167C422.942 895.943 420.777 894.728 418.554 893.465C424.999 892.766 432.216 892.244 438.602 891.295Z"/><path fill="#785344" d="M563.826 720.988C596.076 719.333 628.349 718.149 660.634 717.438C678.11 717.117 700.099 717.649 717.229 716.521C716.358 718.264 714.508 722.245 713.423 723.619C709.816 724.03 684.856 737.666 678.608 740.488C691.659 741.187 704.702 742.034 717.734 743.028C722.828 743.375 728.944 743.463 733.906 744.039C731.308 750.619 728.672 757.596 725.891 764.064C745.815 764.637 766.025 763.518 785.988 763.624C796.48 763.679 800.333 767.463 809.267 771.942C796.941 776.605 783.294 781.489 771.262 786.581C783.117 785.636 796.437 786.075 808.463 786.171C825.273 786.246 842.082 786.461 858.887 786.816C862.222 786.911 872.455 786.534 874.891 787.018L874.384 787.593C870.977 792.292 867.47 796.919 863.867 801.469C852.651 816.517 830.019 840.356 815.394 852.123C809.876 851.613 802.768 851.616 797.108 851.405C784.779 850.951 772.453 850.424 760.131 849.821C754.879 849.55 744.621 849.394 740.001 847.771C745.863 846.479 744.241 846.61 748.696 843.465C751.236 837.283 751.33 836.858 751.531 830.222C751.606 828.776 751.614 827.553 751.818 826.11C751.48 823.549 751.465 822.94 750.771 820.454C752.184 817.643 761.116 808.669 763.859 805.78C747.625 802.986 733.225 800.092 716.709 797.654C733.848 790.247 754.593 783.806 772.562 776.221C751.842 774.215 722.036 773.358 700.935 772.864L700.984 755.197C694.152 754.681 685.049 753.147 677.998 752.191C670.119 751.123 658.835 749.85 651.396 747.884C662.713 742.61 674.182 733.983 684.912 729.052C663.797 729.148 642.684 728.692 621.594 727.684C602.046 726.744 582.41 724.836 562.828 724.066C559.431 723.933 553.513 723.973 551.037 721.726C553.922 721.244 560.731 721.089 563.826 720.988Z"/><path fill="#29140E" d="M795.227 801.176C819.375 798.227 850.938 792.963 874.384 787.593C870.977 792.292 867.47 796.919 863.867 801.469C852.997 802.002 839.408 801.483 828.25 801.574C818.942 801.65 804.24 801.946 795.227 801.176Z"/><path fill="#9D6A54" d="M751.818 826.11C752.204 826.831 752.166 828.724 752.413 828.74C755.014 828.914 757.879 828.084 760.497 827.949C764.037 827.54 767.564 826.987 770.993 826.415L776.816 825.44C774.767 826.949 772.872 827.968 770.908 829.371C764.339 834.065 757.164 837.615 750.718 842.449C750.062 842.948 749.444 843.16 748.696 843.465C751.236 837.283 751.33 836.858 751.531 830.222C751.606 828.776 751.614 827.553 751.818 826.11Z"/><path fill="#785344" d="M392.497 676.165C399.319 677.144 410.666 677.01 417.634 677.008L451.473 676.981C452.14 677.552 452.149 677.494 452.376 678.292C433.242 682.692 413.432 686.143 394.153 690C384.503 691.931 373.528 693.584 364.09 695.893C369.554 704.061 376.055 714.364 381.773 722.115C377.169 721.979 372.461 721.571 367.884 721.051C354.212 719.497 340.231 718.635 326.598 716.8C328.39 723.609 329.281 731.588 331.304 737.771L331.5 738.379C327.879 737.697 324.27 737.056 320.677 736.253C322.285 739.525 323.053 740.79 325.044 743.827C315.762 743.917 306.67 742.297 297.48 742.128C297.187 742.366 296.894 742.605 296.601 742.843C294.677 743.553 294.214 743.735 292.271 744.156L282.24 746.372C280.746 746.61 277.911 746.937 276.685 747.736C274.801 748.024 273.042 748.123 271.143 748.316C269.505 749.431 267.084 750.309 265.181 751.276C260.234 752.76 260.79 751.32 256.711 755.61C244.124 757.853 230.843 757.681 219.423 759.62C215.123 763.155 210.36 767.274 205.642 770.12C193.659 768.179 181.635 766.501 169.579 765.086C175.112 772.336 187.07 784.904 191.019 791.552C184.893 795.069 170.578 802.743 165.403 806.448C160.467 799.849 155.126 793.52 150.19 786.936C143.366 777.673 136.774 768.242 130.42 758.652C141.618 756.501 155.338 755.098 166.82 753.653C183.64 751.569 200.443 749.357 217.229 747.017L208.94 731.168C214.981 729.836 225.814 728.841 232.138 728C250.158 725.604 268.526 724.194 286.416 720.894C280.769 716.411 275.038 712.034 269.226 707.767C290.375 699.928 314.241 698.319 336.606 696.019C325.713 690.991 305.334 684.421 296.306 679C314.206 677.865 333.185 677.526 351.157 677.104C362.513 676.837 378.654 675.91 389.561 676.69C391.233 676.864 391.127 676.967 392.497 676.165Z"/><path fill="#9D6A54" d="M267.774 741.086C275.406 740.903 289.174 741.035 296.601 742.843C294.677 743.553 294.214 743.735 292.271 744.156L282.24 746.372C280.746 746.61 277.911 746.937 276.685 747.736C274.801 748.024 273.042 748.123 271.143 748.316C268.807 744.252 269.224 745.153 267.774 741.086Z"/><path fill="#29140E" d="M602.133 799.986C602.873 800.366 608.753 800.267 610.253 800.484C613.804 800.996 616.509 801.655 619.992 802.619L620.774 802.843L622.76 803.374C626.869 804.374 631.13 806.162 635.136 806.978L635.542 807.06C636.459 807.413 637.309 807.685 638.216 808.053C640.382 808.844 642.752 809.653 644.857 810.554L645.741 810.618C646.941 811.107 647.919 811.432 649.141 811.835C650.044 812.21 650.81 812.507 651.738 812.842C652.523 813.303 653.35 813.649 654.161 814.064C656.516 814.929 660.972 816.251 662.642 817.8L663.425 817.902C668.251 819.98 672.677 822.447 677.334 824.324L677.949 824.66C680.044 826.006 682.187 827.274 684.375 828.461C684.785 828.886 685.313 829.196 685.807 829.535C691.607 833.819 691.692 834.827 695.849 840.084C696.545 842.332 697.109 844.722 697.619 847.026C697.49 849.92 696.487 852.555 697.19 854.678C697.926 856.899 697.576 861.26 697.243 863.645L697.499 865.044C698.053 867.048 698.31 867.741 699.56 869.519C700.05 869.815 700.461 870.043 700.96 870.315C705.072 873.251 708.235 872.839 713.003 871.742C714.514 871.288 715.349 870.761 716.582 869.807C720.993 866.114 722.931 860.837 719.627 855.684L719.217 854.652C718.637 854.065 718.428 853.911 717.996 853.22C717.5 852.684 717.081 852.214 716.595 851.657L716.978 850.852C719.867 844.638 727.461 835.315 733.22 844.092C726.366 853.094 732.486 856.165 737.146 864.19C741.077 870.961 734.717 874.627 729.029 876.501C717.233 880.389 702.572 879.332 691.245 874.361C684.903 871.558 684.953 867.783 683.083 861.913C682.355 859.744 678.658 855.907 676.701 854.303C657.408 838.676 632.222 830.41 607.914 826.808C596.75 825.154 584.942 829.29 573.929 823.757C570.611 822.163 564.795 818.684 563.615 815.055C562.015 810.133 570.135 802.619 574.159 801.68L574.968 802.537C574.925 806.14 575.506 808.034 576.489 811.525C579 815.53 578.084 815.04 582.412 817.726C586.067 817.362 585.709 817.671 586.781 813.712L587.23 812.752C587.648 811.172 588.087 809.599 588.547 808.031C588.237 807.298 588.094 806.99 587.874 806.253C589.325 804.697 594.602 802.143 596.452 801.479C598.249 800.563 600.131 800.363 602.133 799.986Z"/><path fill="#CBAFA0" d="M602.133 799.986C602.873 800.366 608.753 800.267 610.253 800.484C613.804 800.996 616.509 801.655 619.992 802.619L620.774 802.843L622.76 803.374C626.869 804.374 631.13 806.162 635.136 806.978L635.542 807.06C636.459 807.413 637.309 807.685 638.216 808.053C640.382 808.844 642.752 809.653 644.857 810.554L645.741 810.618C646.941 811.107 647.919 811.432 649.141 811.835C650.044 812.21 650.81 812.507 651.738 812.842C652.523 813.303 653.35 813.649 654.161 814.064C656.516 814.929 660.972 816.251 662.642 817.8L663.425 817.902C668.251 819.98 672.677 822.447 677.334 824.324L677.949 824.66C680.044 826.006 682.187 827.274 684.375 828.461C684.785 828.886 685.313 829.196 685.807 829.535C691.607 833.819 691.692 834.827 695.849 840.084C696.545 842.332 697.109 844.722 697.619 847.026C697.49 849.92 696.487 852.555 697.19 854.678C697.926 856.899 697.576 861.26 697.243 863.645C696.993 861.996 696.96 859.842 696.875 858.14C696.265 857.168 695.608 856.225 694.909 855.315C677.46 832.998 631.582 816.59 603.72 811.411C591.587 809.155 589.137 818.995 582.933 817.829L582.412 817.726C586.067 817.362 585.709 817.671 586.781 813.712L587.23 812.752C587.648 811.172 588.087 809.599 588.547 808.031C588.237 807.298 588.094 806.99 587.874 806.253C589.325 804.697 594.602 802.143 596.452 801.479C598.249 800.563 600.131 800.363 602.133 799.986Z"/><path fill="#C78866" d="M394.065 728.435C397.38 728.576 409.546 728.75 411.687 730.453C414.068 732.735 416.332 734.636 418.737 736.85C411.78 736.223 406.698 736.157 399.999 738.343C398.068 734.614 396.101 732.107 394.065 728.435Z"/><path fill="#29140E" d="M593.29 772.183C596.287 773.886 596.168 773.993 598.136 776.646L598.224 777.272C598.58 779.553 598.197 780.963 597.796 783.195L597.263 784.061L596.818 785.236C595.242 787.19 594.254 788.116 592.428 789.799C591.325 790.287 589.894 791.356 588.92 792.047L588.083 792.212C586.443 792.561 585.111 792.472 583.434 792.41C586.458 790.057 588.387 789.53 589.743 785.405C591.137 781.164 590.038 777.023 590.621 772.81C590.659 772.529 592.987 772.233 593.29 772.183Z"/><path fill="#3C2419" d="M508.53 829.626L509.082 829.859C516.817 833.065 521.078 835.372 528.183 838.647L527.618 840.14C522.361 839.765 520.155 840.388 514.805 839.075L521.529 837.493C516.615 834.753 513.493 833.683 508.76 831.396L508.53 829.626Z"/><path fill="#3C2419" d="M551.037 721.726C549.504 721.928 546.003 722.221 544.34 721.614C544.254 721.583 544.275 721.533 544.287 721.458C544.491 721.26 563.068 719.495 564.985 719.402L563.826 720.988C560.731 721.089 553.922 721.244 551.037 721.726Z"/><path fill="#3C2419" d="M513.686 853.075C514.797 851.931 515.35 852.397 516.849 852.117L517.787 851.935L518.525 852.295C518.925 852.485 519.621 852.718 519.774 853.201C519.439 853.69 514.494 853.259 513.686 853.075Z"/><path fill="#3C2419" d="M542.476 827.075C543.225 827.278 544.684 827.579 545.188 828.227C544.953 828.729 540.641 828.522 539.992 828.518L542.476 827.075Z"/><path fill="#614237" d="M229.598 845.374C231.485 846.382 233.456 845.984 236.107 846.445C235.355 846.478 228.167 846.812 227.991 846.029L228.013 845.969C228.009 845.914 228.004 845.86 227.999 845.805C228.864 845.385 228.535 845.502 229.598 845.374Z"/><path fill="#7F655D" d="M451.473 676.981C452.172 676.974 455.627 676.678 455.857 677.439C455.571 678.011 453.004 678.161 452.376 678.292C452.149 677.494 452.14 677.552 451.473 676.981Z"/><path fill="#614237" d="M232.373 768.01C231.865 767.822 231.591 767.789 231.279 767.382C231.466 766.746 235.153 767.002 235.718 767.004C234.609 767.36 233.494 767.696 232.373 768.01Z"/><path fill="#29140E" d="M528.183 838.647C528.631 838.845 530.04 839.349 530.309 839.806C530.243 840.24 529.041 840.09 528.786 840.095C528.396 840.107 528.007 840.122 527.618 840.14L528.183 838.647Z"/><path fill="#614237" d="M389.234 675.749C390.324 675.868 391.412 676.006 392.497 676.165C391.127 676.967 391.233 676.864 389.561 676.69L389.234 675.749Z"/><path fill="#3C2419" d="M308.271 870.648C307.672 870.609 307.074 870.577 306.474 870.554C304.853 870.505 303.879 870.462 305.769 869.283C306.609 869.727 307.443 870.182 308.271 870.648Z"/><path fill="#29140E" d="M948.992 416.731C949.095 419.762 949.24 422.791 949.426 425.817C949.658 436.28 950.736 446.859 951.396 457.323L954.509 514.181C954.642 516.651 954.731 519.358 954.997 521.798C957.143 556.688 952.157 596.619 945.377 630.92L942.341 643.392C932.004 684.388 915.423 722.686 893.384 758.69C887.25 768.709 880.667 777.677 874.891 787.018C872.455 786.534 862.222 786.911 858.887 786.816C842.082 786.461 825.273 786.246 808.463 786.171C796.437 786.075 783.117 785.636 771.262 786.581C783.294 781.489 796.941 776.605 809.267 771.942C800.333 767.463 796.48 763.679 785.988 763.624C766.025 763.518 745.815 764.637 725.891 764.064C728.672 757.596 731.308 750.619 733.906 744.039C728.944 743.463 722.828 743.375 717.734 743.028C704.702 742.034 691.659 741.187 678.608 740.488C684.856 737.666 709.816 724.03 713.423 723.619C714.508 722.245 716.358 718.264 717.229 716.521C724.454 704.302 733.216 682.322 741.724 671.447C745.332 666.849 773.515 652.181 775.414 648.557C785.432 629.45 799.34 602.313 808.571 583.49C826.593 571.084 846.595 559.668 864.386 546.982C868.505 536.322 873.07 518.595 876.382 507.233C879.992 494.85 885.067 479.531 887.942 467.315C892.651 462.842 898.75 458.303 903.874 454.087L933.214 429.88C938.059 425.92 944.828 420.977 948.992 416.731Z"/><path fill="#9A847E" d="M907.978 541.906C911.071 539.639 916.152 537.152 919.587 534.984C930.569 528.052 944.07 521.446 954.509 514.181C954.642 516.651 954.731 519.358 954.997 521.798C943.956 530.077 931.986 537 921.428 545.508C919.498 550.87 917.066 563.264 915.73 569.351L897.893 582.485C900.294 588.103 904.642 595.838 907.558 601.494C902.436 599.211 897.391 596.761 892.431 594.147C881.5 602.01 870.675 610.021 859.959 618.175C852.898 623.5 845.746 629.244 838.35 634.014C842.559 636.792 846.514 639.935 850.17 643.409C848.076 649.709 843.94 658.566 841.189 664.804C835.644 677.062 830.248 689.386 825.002 701.775L803.721 692.804C800.357 700.835 797.757 709.042 794.133 717.263C788.702 718.925 783.254 720.532 777.789 722.082L773.063 741.176C765.09 745.367 744.811 752.731 735.258 756.705C737.938 750.878 743.21 741.952 746.526 735.59C752.32 724.475 758.769 710.364 765.402 699.967C766.617 698.062 779.084 689.528 781.859 687.357C788.178 682.414 800.797 674.597 806.121 669.072C808.331 666.777 814.224 652.584 816.026 648.569C821.789 635.967 827.413 623.302 832.896 610.576C837.103 607.71 843.94 604.155 848.489 601.521C860.187 594.747 872.223 588.37 883.858 581.464C885.718 576.954 887.165 572.628 888.731 568.022C892.919 565.398 897.04 562.666 901.088 559.83C903.562 554.14 905.319 547.959 907.978 541.906Z"/><path fill="#9A847E" d="M948.992 416.731C949.095 419.762 949.24 422.791 949.426 425.817C933.574 442.13 917.269 461.186 901.171 476.581C901.698 479.322 904.536 492.83 903.805 495.568C900.614 507.514 894.224 525.393 889.689 536.843C889.401 537.571 878.304 547.926 877.038 549.081C869.116 556.309 860.252 566.732 852.114 573.134C841.738 581.296 827.559 588.922 817.077 596.696C813.923 605.544 811.024 615.352 807.684 624.02C805.644 629.315 796.208 637.826 794.017 643.51C792.193 648.243 792.064 654.285 790.671 659.281L762.831 678.682C754.288 684.707 746.5 690.541 737.647 696.245C736.951 703.905 736.179 711.559 735.33 719.204C725.586 725.667 715.465 731.272 705.852 737.714C708.374 733.166 711.211 728.288 713.423 723.619C714.508 722.245 716.358 718.264 717.229 716.521C724.454 704.302 733.216 682.322 741.724 671.447C745.332 666.849 773.515 652.181 775.414 648.557C785.432 629.45 799.34 602.313 808.571 583.49C826.593 571.084 846.595 559.668 864.386 546.982C868.505 536.322 873.07 518.595 876.382 507.233C879.992 494.85 885.067 479.531 887.942 467.315C892.651 462.842 898.75 458.303 903.874 454.087L933.214 429.88C938.059 425.92 944.828 420.977 948.992 416.731Z"/><path fill="#9A847E" d="M876.954 666.818C886.391 660.797 902.873 653.045 912.911 647.435C920.469 643.211 937.964 633.589 945.377 630.92L942.341 643.392C939.694 644.521 937.494 645.732 935.037 647.203C921.115 655.534 907.021 663.599 893.361 672.353C890.817 678.291 888.559 685.068 886.48 691.187C882.291 694.818 878.281 697.926 873.905 701.309L875.722 726.358C871.066 730.74 858.977 743.791 854.505 745.784C851.101 747.301 837.834 751.244 833.062 752.928C830.508 757.261 827.871 761.544 825.154 765.777C820.324 765.278 809.665 765.478 804.327 765.395C810.636 759.549 856.823 720.179 858.62 716.8C860.907 712.5 862.444 707.7 864.133 703.138C868.588 691.102 872.311 678.773 876.954 666.818Z"/><path fill="#9A847E" d="M383.456 97.1062C389.409 93.8937 401.458 91.1832 409.294 87.0334C420.282 81.2142 432.723 70.6976 442.969 65.4993C466.861 79.1591 490.657 92.9846 514.357 106.975C526.198 113.914 538.932 122.073 550.96 128.356L461.692 161.262C437.902 170.086 414.476 179.29 390.219 186.794C363.996 194.907 337.875 203.47 311.64 211.549C297.469 215.913 283.486 220.734 269.199 224.729C272.212 220.712 284.22 209.442 288.346 205.349C294.727 199.019 304.678 188.15 310.886 182.707C313.687 180.252 332.38 171.841 336.917 169.714L385.882 146.528L384.214 145.769C379.08 147.299 368.859 149.206 363.383 150.369C347.303 153.693 331.206 156.934 315.093 160.092C322.126 153.177 331.122 145.583 338.526 138.842C348.121 129.959 357.67 121.026 367.172 112.043C371.98 107.569 379.406 101.575 383.456 97.1062Z"/><path fill="#785344" d="M384.214 145.769C385.161 145.541 389.04 144.354 389.683 144.702C389.699 144.737 389.715 144.772 389.731 144.807C389.346 145.366 386.649 146.224 385.882 146.528L384.214 145.769Z"/><path fill="#9A847E" d="M496.986 65.1591C510.213 66.1192 519.084 68.3525 532.018 70.8828C548.415 74.0485 564.787 77.3421 581.132 80.7631C592.056 83.0474 602.291 85.3682 613.307 87.2776C623.024 88.9617 643.68 85.5049 651.042 87.7326C662.81 91.2934 678.995 98.7618 690.943 103.404L726.365 117.039C731.991 119.163 742.865 122.888 748.013 125.604C745.692 125.906 739.563 124.931 736.97 124.598C721.727 122.641 704.837 118.578 689.668 117.498C686.355 117.263 671.337 119.219 667.025 119.595C644.572 121.549 622.232 124.466 599.743 126.32C606.583 127.628 709.886 152.519 710.777 153.374C736.469 178.012 769.487 208.889 794.4 234.716C779.241 228.877 764.395 225.171 748.636 218.58C747.076 215.339 745.285 211.958 743.647 208.733C736.705 206.409 729.713 204.236 722.677 202.214C719.991 201.42 709.733 198.73 707.628 197.208C693.436 186.949 681.508 170.089 667.604 159.697C665.974 158.479 650.518 154.143 647.485 153.222L594.279 137.241C589.853 131.401 585.614 125.202 581.095 119.241C577.061 118.08 565.578 113.739 561.13 112.057C555.749 110.022 534.777 103.432 531.212 100.822C524.459 95.8817 512.189 81.5167 505.886 75.2052C503.746 73.0626 498.5 67.9816 496.792 65.9169L496.986 65.1591Z"/><path fill="#9A847E" d="M71.8417 482.416C78.7772 488.723 117.713 521.263 119.891 525.375C124.021 533.169 124.847 545.863 127.352 554.632C139.869 564.129 155.379 574.999 167.314 584.536C170.864 599.867 173.422 616.605 176.755 632.227C186.826 638.57 196.862 644.968 206.862 651.422C215.613 657.007 225.821 663.181 233.967 669.613C238.388 673.103 243.534 683.756 246.414 689.044C251.249 697.834 255.997 706.673 260.657 715.558C247.252 714.928 234.911 714.411 221.49 714.2C221.218 709.528 221.177 700.4 220.676 696.335C216.726 692.723 212.433 690.387 208.725 687.179C212.492 685.836 216.152 684.547 219.542 682.37C201.528 672.465 181.904 662.604 164.172 652.42C163.691 643.786 162.965 634.262 162.818 625.68C160.304 628.753 157.843 631.869 155.435 635.026C153.596 627.362 148.482 603.015 146.107 597.1C144.982 594.297 125.152 571.048 121.687 566.798L124.479 588.061C125.01 591.897 126.19 598.797 126.423 602.421C125.977 602.886 125.57 603.354 125.142 603.835C123.405 595.221 109.839 573.487 108.237 564.341C107.701 561.282 109.894 545.994 110.166 541.025C107.492 537.013 102.026 531.2 98.8152 527.228C89.5562 515.777 79.3499 504.45 70.5169 492.704C70.7435 489.475 71.3781 485.669 71.8417 482.416Z"/><path fill="#92827A" d="M125.142 603.835C125.57 603.354 125.977 602.886 126.423 602.421L126.575 604.293C126.603 604.666 126.701 605.177 126.302 605.252C126.025 605.02 125.455 604.194 125.142 603.835Z"/><path fill="#614237" d="M696.301 259.866C696.685 260.146 696.776 260.195 697.162 260.578C702.1 265.478 706.499 271.83 711.025 277.212C724.754 293.536 737.954 310.299 751.705 326.601C762.633 339.557 772.828 353.076 783.592 366.16C790.822 374.949 805.302 390.672 810.146 399.755C811.406 402.118 825.917 473.095 826.267 478.993C826.774 487.55 825.851 496.604 825.508 505.175C824.827 521.243 824.309 537.317 823.956 553.395C808.201 566.358 790.797 577.843 775.402 590.137C771.477 602.691 769.25 617.97 764.997 630.678L747.99 644.405C749.526 640.195 759.821 609.334 759.936 606.647L759.399 606.926C757.932 610.112 756.15 612.888 754.325 615.875C745.278 630.681 738.065 647.598 729.321 662.405C723.994 664.055 717.585 665.385 712.121 666.454C704.337 668.361 696.024 670.055 688.165 671.788C699.396 658.42 711.072 645.27 722.376 631.951C727.513 625.898 735.24 618.637 739.649 612.429C744.369 605.783 746.189 591.959 750.99 584.944C754.678 579.556 766.866 572.29 769.049 566.691C772.267 558.438 775.19 548.485 778.025 539.983C783.076 524.836 788.191 509.729 793.235 494.592C797.869 480.688 801.673 465.07 807.249 451.648C805.295 454.025 803.563 456.64 801.989 459.281C795.673 469.878 788.016 479.917 781.806 490.531C781.823 480.963 782.706 470.266 783.198 460.595L785.588 410.472L751.5 371.969C747.803 367.841 736.598 356.586 735.072 352.887C722.796 323.124 706.053 290.022 696.301 259.866Z"/><path fill="#9A847E" d="M761.539 234.773C772.368 237.347 786.889 239.427 798.031 241.328C806.117 253.611 813.984 269.031 821.42 281.903L873.644 371.995C873.566 384.999 872.025 400.985 871.052 414.2C870.241 425.485 869.343 436.763 868.359 448.034C868.024 452.256 867.68 456.464 867.344 460.702C865.939 478.435 859.811 495.738 855.778 512.999C855.121 515.809 854.245 519.248 853.232 521.913C850.962 506.228 848.832 490.523 846.843 474.799C844.394 455.679 843.068 454.403 847.487 435.664L853.194 411.494C847.663 401.608 836.046 388.548 830.406 378.542C827.744 373.82 824.885 360.208 823.021 354.139C816.551 333.062 810.946 311.981 805.891 290.513L804.479 291.116C804.582 308.665 804.779 326.214 805.068 343.761L803.775 345.545C789.997 309.43 773.365 271.34 761.539 234.773Z"/><path fill="#2A1F1B" d="M804.479 291.116C804.441 289.995 804.058 285.558 804.459 284.831C804.52 284.817 804.581 284.803 804.642 284.789C805.335 286.536 805.618 288.658 805.891 290.513L804.479 291.116Z"/><path fill="#614237" d="M669.809 304.292C671.841 305.289 685.353 320.407 688.278 323.475L715.853 351.858C719.735 355.926 724.004 359.966 727.442 364.402C730.662 368.557 762.305 427.628 762.549 430.226C762.57 430.457 762.576 430.689 762.593 430.92C763.356 441.634 762.219 452.818 762.077 463.586C761.739 489.932 761.13 516.275 760.25 542.609C751.745 549.394 743.623 556.641 735.124 563.433C732.064 565.879 728.986 568.294 726.18 571.033C725.183 575.351 724.402 581.905 723.666 586.5C722.051 596.151 720.53 605.817 719.105 615.498C714.452 618.592 705.18 624.289 701.381 627.602C699.884 632.858 698.502 638.582 697.119 643.902C685.005 644.957 669.199 648.478 656.619 650.278C653.435 650.876 650.162 651.128 646.932 651.45C660.607 637.134 675.353 623.404 688.771 608.897C690.862 606.636 694.493 597.748 695.99 594.487C700.251 585.339 704.395 576.136 708.42 566.882L752.227 467.887C741.688 446.719 731.473 425.392 721.584 403.913C716.119 392.011 710.902 379.226 705.093 367.621C694.924 347.307 679.389 324.503 669.809 304.292Z"/><path fill="#614237" d="M265.563 387.382C265.434 401.895 264.231 418.138 263.481 432.765L259.183 518.803C258.76 527.406 257.964 536.194 257.649 544.75C265.922 554.822 276.28 565.21 283.893 575.75C286.52 579.387 288.834 589.133 290.98 593.863C297.42 597.547 309.843 601.972 314.827 605.887C320.049 609.989 343.062 653.938 346.773 662.239C337.817 662.17 328.859 662.162 319.903 662.214C318.49 657.134 316.8 651.521 315.683 646.414C312.709 643.929 308.015 641.048 304.674 638.861L313.903 634.044C300.8 626.358 286.174 616.417 273.457 607.885C269.182 599.707 265.937 591.483 262.466 582.938C248.577 573.857 238.312 564.21 225.548 555.106C225.112 547.017 225.353 539.434 225.104 531.484C235.963 539.862 246.512 552.771 256.82 560.866C250.164 546.476 237.569 529.399 230.49 514.975C227.625 509.137 225.633 494.954 224.446 488.049L217.67 447.6C217.383 446.278 217.091 441.908 218.621 445.62C223.472 454.841 232.342 470.488 238.216 479.468C234.551 465.273 231.027 448.994 227.219 435.28C230.442 430.678 233.978 426.317 237.488 421.932C246.76 410.348 255.74 398.511 265.563 387.382Z"/><path fill="#785344" d="M217.67 447.6C217.383 446.278 217.091 441.908 218.621 445.62C218.31 446.283 217.994 446.943 217.67 447.6Z"/><path fill="#9A847E" d="M179.786 424.369C180.716 425.231 197.177 533.358 199.226 544.444C202.314 547.505 219.996 563.679 221.193 566.178C231.87 588.469 239.612 612.76 249.479 635.551C257.342 639.733 267.121 642.482 274.164 647.901C278.151 650.969 296.389 686.864 299.262 693.43C291.285 690.435 282.981 687.622 274.942 684.68C273.363 680.92 271.748 675.647 270.411 671.69C267.726 669.605 264.954 667.764 262.145 665.854C265.174 663.708 267.359 662.506 270.63 660.713C266.183 658.624 257.829 655.806 252.938 654.009C248.375 652.276 243.765 650.672 239.112 649.197C238.915 645.425 237.967 639.923 237.417 636.06C228.488 629.16 216.748 621.297 207.326 614.703C203.609 600.77 199.006 585.127 195.69 571.332L153.346 532.164C152.403 522.032 152.484 504.875 152.485 494.522C161.225 507.533 169.559 521.62 178.481 534.325C176.312 528.321 173.27 521.422 170.898 515.274L150.076 461.579C150.9 457.256 153.694 449.084 155.021 444.523C160.982 438.767 172.892 430.011 179.786 424.369Z"/><path fill="#614237" d="M281.297 457.052C285.457 444.425 292.499 426.152 297.857 413.715C299.293 410.382 312.515 396.427 315.603 392.935C327.663 379.275 339.625 365.529 351.488 351.697C342.919 369.124 334.251 386.502 325.482 403.829C323.475 407.744 310.456 431.545 310.366 433.933C309.434 458.86 309.781 484.147 309.04 509.13C319.792 521.071 330.646 532.921 341.601 544.676C345.879 549.3 354.506 557.506 357.949 562.781C364.627 573.012 370.578 592.241 377.424 602.197C379.314 604.948 393.945 612.831 397.923 615.648C388.911 615.555 377.81 615.191 368.95 615.736C362.157 604.619 355 591.786 347.81 581.069C345.253 577.257 329.516 568.411 324.53 565.154C317.199 548.668 319.997 542.068 306.415 528.531C306.568 537.533 306.428 554.189 307.584 562.643C299.531 550.04 287.763 530.286 279.389 518.864C279.779 505.636 279.884 492.401 279.703 479.168L293.385 510.625L294.277 510.373C289.518 492.911 286.058 474.874 281.297 457.052Z"/><path fill="#3C2419" d="M294.277 510.373C295.49 513.196 295.096 515.79 293.385 510.625L294.277 510.373Z"/><path fill="#614237" d="M464.478 235.468C466.035 235.17 472.025 234.581 473.155 235.18L473.184 235.247L473.174 235.265L473.02 235.261L472.887 235.489C472.296 235.733 472.288 235.75 471.671 235.808C468.058 238.087 441.523 248.457 435.852 250.795C425.623 254.897 415.494 259.244 405.473 263.834C382.662 274.486 359.319 286.262 336.555 297.071C333.311 298.611 321.079 313.714 317.781 317.561L291.968 347.413C286.778 353.533 276.507 366.102 271.064 371.438C265.649 376.747 248.514 387.377 241.132 392.264C233.822 397.141 226.451 401.927 219.022 406.621C215.817 408.659 212.629 411.021 209.296 412.747C234.518 383.256 258.113 351.659 283.663 322.414C286.608 319.044 294.904 313.007 298.594 310.035C307.673 302.629 316.914 295.423 326.309 288.423C316.652 291.018 307.398 294.723 297.609 297.288C302.649 291.458 317.498 272.446 323.83 270.036C336.733 265.125 351.083 260.678 364.215 256.074C374.789 252.295 385.389 248.589 396.014 244.955C405.714 241.641 411.067 239.422 421.448 238.865C435.658 238.104 450.239 235.797 464.478 235.468Z"/><path fill="#785344" d="M464.478 235.468C466.035 235.17 472.025 234.581 473.155 235.18L473.184 235.247L473.174 235.265L473.02 235.261L472.887 235.489C472.296 235.733 472.288 235.75 471.671 235.808C469.261 235.467 467.041 235.757 464.478 235.468Z"/><path fill="#9A847E" d="M306.417 224.929C306.903 227.562 305.777 240.097 304.446 242.329C294.58 258.885 283.62 278.078 271.857 293.193C267.899 298.279 245.094 308.16 240.906 314.991C221.403 347.818 205.164 381.685 181.784 412.27C169.092 416.903 155.708 421.327 143.412 426.912C142.844 424.807 202.01 327.344 208.35 317.695C210.192 314.892 226.533 299.544 230.528 295.61C242.846 283.495 255.292 271.511 267.864 259.66C270.988 256.671 274.184 253.632 277.229 250.565C286.377 241.349 296.466 233.275 306.417 224.929Z"/><path fill="#614237" d="M663.056 353.84C679.675 371.997 697.621 394.821 714.709 411.906C714.573 425.82 714.281 439.733 713.834 453.641C713.655 460.07 713.524 466.484 713.425 472.915C713.229 485.572 716.758 498.324 719.291 510.768L693.169 558.247C694.047 547.688 695.213 535.916 695.53 525.399L694.033 525.731C689.384 540.424 686.459 549.328 682.668 564.453C676.872 568.321 666.9 573.36 662.866 578.744C659.046 583.843 656.445 589.845 652.066 594.952C644.785 596.075 634.806 596.517 627.279 597.014C638.736 582.97 650.765 569.252 662.559 555.486C667.023 550.278 672.613 544.994 676.465 539.357C677.876 537.292 697.689 471.595 698.543 465.918C700.891 450.303 700.081 434.411 701.784 418.772L700.875 417.553C698.92 426.274 697.321 433.342 694.602 441.862C683.842 412.609 673.327 383.268 663.056 353.84Z"/><path fill="#29140E" d="M694.033 525.731L694.536 523.992C694.7 523.442 694.92 522.299 695.557 522.2C695.84 522.526 695.543 524.793 695.53 525.399L694.033 525.731Z"/><path fill="#29140E" d="M700.875 417.553C701.013 416.767 701.142 415.462 701.725 414.872C702.4 414.978 701.85 418.353 701.784 418.772L700.875 417.553Z"/><path fill="#614237" d="M590.815 189.584C596.004 189.108 604.344 189.723 609.686 189.818C623.686 190.069 637.859 191.244 651.835 191.532C657.432 196.067 666.576 204.445 672.585 207.673C687.581 215.729 707.643 219.597 722.604 227.347C725.293 231.076 729.892 239.57 732.598 243.985L754.819 280.03C761.005 290.181 771.015 304.232 776.264 313.663C774.277 312.558 764.455 303.426 762.285 301.341C747.689 287.31 733.157 272.809 718.669 258.697C715.093 255.929 704.043 242.994 700.742 241.34C688.676 235.291 661.57 232.516 651.764 224.037C636.341 210.7 630.817 207.184 613.295 199.685C605.741 196.454 598.247 193.087 590.815 189.584Z"/><path fill="#614237" d="M433.004 280.602L434.502 280.568C433.729 282.15 419.758 291.602 417.337 293.396C394.885 310.028 371.56 325.132 350.496 343.472C342.575 350.283 334.693 357.139 326.849 364.038C313.041 376.184 297.233 389.407 283.866 401.639L282.796 402.361C282.963 401.084 341.773 307.78 345.759 303.415C359.238 300.037 373.322 295.87 386.819 292.232C402.161 288.147 417.557 284.27 433.004 280.602Z"/><path fill="#3C2419" d="M355.879 405.944C358.25 409.558 352.924 472.941 353.207 481.971C353.331 485.958 352.343 506.615 351.825 510.443C369.307 530.65 384.379 547.722 400.414 569.495C392.737 569.515 385.061 569.487 377.385 569.412C371.781 560.267 366.892 550.579 361.081 541.491L360.925 541.278C358.282 537.625 354.167 533.962 350.955 530.675C343.066 522.606 334.567 515.143 326.508 507.257C326.48 495.612 325.883 483.663 326.272 472.072C331.807 483.276 336.271 495.129 341.848 506.562C337.137 485.541 333.28 464.54 328.481 443.311C337.012 431.235 347.024 417.821 355.879 405.944Z"/><path fill="#3C2419" d="M397.313 402.876C397.431 405.327 395.826 422.099 395.556 425.815C393.77 450.308 392.729 477.935 389.416 502.146C399.173 513.239 409.584 526.53 417.383 539.066C422.866 547.877 427.024 556.984 432.902 565.703C425.059 565.389 416.416 564.429 408.473 563.92C408.266 560.976 408.281 557.906 408.241 554.946C403.518 551.851 399.335 547.972 394.435 544.812C397.458 542.595 400.675 541.186 403.663 538.854L403.549 538.093C391.919 527.55 378.153 516.443 366.081 505.926L366.073 472.478C371.602 481.996 377.037 495.016 382.329 505.144C377.068 486.749 373.346 463.603 368.48 444.311C374.269 434.761 382.59 425.324 388.736 415.856C391.533 411.546 394.416 407.101 397.313 402.876Z"/><path fill="#614237" d="M549.8 240.152C558.056 239.247 569.226 239.352 577.553 240.015C584.549 240.572 631.261 256.548 639.259 260.288C647.574 264.178 668.021 276.204 674.893 282.08C678.308 285.001 681.053 289.027 683.881 292.515C688.784 298.662 693.78 304.735 698.867 310.732C686.229 306.994 665.576 290.943 652.69 284.866C643.849 280.697 613.372 281.245 608.627 278.572C589.293 267.676 568.582 252.552 549.8 240.152Z"/><path fill="#3C2419" d="M647.573 414.208C649.5 415.544 657.287 428.325 658.957 430.971C659.167 439.984 655.931 464.823 656.431 469.134C657.491 478.278 666.533 510.772 669.58 520.193C665.289 526.824 660.567 533.072 656.346 539.709C655.873 532.5 655.768 524.534 655.529 517.261C649.203 528.337 639.21 541.713 632.072 552.922C628.063 559.41 623.12 566.499 618.859 572.914C614.308 573.569 609.513 573.409 604.898 573.397C608.223 566.583 615.804 555.574 620.197 548.547C626.622 538.271 634.723 521.239 641.465 511.932C641.659 502.169 642.518 490.891 643.091 481.012C644.457 458.736 645.951 436.467 647.573 414.208Z"/><path fill="#614237" d="M509.128 259.229C523.94 262.771 539.199 264.127 553.975 267.545C562.218 269.452 574.748 278.654 583.595 282.527C601.135 290.425 620.58 296.183 637.564 305.078C642.461 307.642 652.835 319.52 657.909 323.645C670.438 333.831 675.693 342.208 681.705 357.09C677.469 355.039 664.189 346.009 658.917 342.62C637.23 328.677 615.473 315.183 593.461 301.736C587.556 298.129 578.268 293.933 571.842 290.915L540.618 276.397C529.7 271.358 517.903 264.861 507.312 260.214L509.128 259.229Z"/><path fill="#9A847E" d="M443.991 201.424C450.356 200.766 481.237 200.858 489.697 201.253C490.035 201.269 489.572 201.745 488.768 201.836C469.053 209.167 449.273 216.318 429.429 223.29C421.41 226.122 408.424 231.002 400.45 232.759C396.978 233.524 381.982 233.048 377.474 233.012C363.349 232.865 349.222 232.814 335.096 232.858L379.903 212.66C383.888 210.84 401.359 202.335 403.933 202.096C415.38 201.035 432.266 201.349 443.991 201.424Z"/><path fill="#7F655D" d="M443.991 201.424C450.356 200.766 481.237 200.858 489.697 201.253C490.035 201.269 489.572 201.745 488.768 201.836C484.917 201.04 482.652 201.677 479.047 201.441C468.436 200.746 454.332 202.481 443.991 201.424Z"/><path fill="#9A847E" d="M545.086 154.564C567.972 160.191 591.324 164.782 614.327 169.954C618.61 170.917 623.18 171.866 627.508 172.576C598.191 177.648 566.383 177.796 536.984 182.322C512.419 186.104 493.079 182.865 469.196 183.07C468.634 183.053 465.267 183.261 465.242 182.628C465.462 182.239 465.811 182.095 466.206 181.856C474.483 179.642 486.35 175.029 494.684 172.101L545.086 154.564Z"/><path fill="#7F655D" d="M469.196 183.07C468.634 183.053 465.267 183.261 465.242 182.628C465.462 182.239 465.811 182.095 466.206 181.856L469.196 183.07Z"/><path fill="#9A847E" d="M124.923 643.838C131.221 646.579 142.106 651.741 147.944 654.985C149.443 658.551 151.644 665.924 153.081 669.966C157.315 672.313 161.534 674.687 165.737 677.089C176.468 683.315 178.594 692.607 185.173 702.5C192.844 714.037 195.993 725.594 199.506 738.906C190.702 739.622 180.973 740.907 172.12 741.881C170.524 742.048 170.187 742.223 168.675 741.686C168.355 738.452 171.196 722.983 171.923 718.64C166.379 713.961 161.105 708.97 156.126 703.692C160.434 702.127 166.083 700.509 170.541 699.106C158.812 692.962 142.455 685.166 131.874 677.479C129.964 676.092 127.36 671.649 126.016 669.458L136.758 665.884C133.553 664.13 130.803 662.353 127.727 660.376C126.959 654.748 125.956 649.417 124.923 643.838Z"/><path fill="#3C2419" d="M608.5 412.702C609.544 413.354 617.68 427.438 618.066 429.115C621.222 442.819 615.576 462.336 617.663 475.713C618.54 481.339 627.805 496.953 630.47 504.393C624.516 513.419 617.914 522.158 612.192 531.358C608.895 536.66 608.829 542.5 605.872 547.196C604.598 549.218 598.898 554.458 596.944 556.316L590.209 562.966C586.213 563.092 581.869 562.965 577.846 562.926C581.271 558.797 604.128 518.602 605.239 514.044C607.041 506.654 606.245 495.488 606.465 487.553C607.158 462.655 606.784 437.548 608.5 412.702Z"/><path fill="#3C2419" d="M443.066 398.061C443.192 398.371 443.317 398.682 443.443 398.993C442.123 402.097 439.859 408.217 438.822 411.008C434.29 423.574 429.927 436.2 425.736 448.885C424.153 453.539 421.161 459.792 421.03 464.673C420.995 465.993 438.055 527.447 438.904 528.962C440.808 532.355 444.066 535.315 446.544 538.348C452.497 545.634 457.155 553.549 460.728 562.285C459.539 562.978 448.136 562.511 446.025 562.474C445.04 557.878 444.138 551.365 443.354 546.621C442.331 540.935 427.781 531.244 423.563 526.346C422.139 524.692 419.668 522.355 419.152 520.051C416.557 508.45 413.66 492.368 413.494 480.791L412.87 480.61C412.032 483.538 411.512 497.126 411.342 500.676C408.557 490.559 406.973 478.465 405.212 467.951C407.781 460.642 412.573 451.106 415.457 443.598C416.948 439.716 422.804 423.469 424.514 421.163C429.743 414.11 437.385 405.084 443.066 398.061Z"/><path fill="#3C2419" d="M557.822 399.601L558.425 398.596C567.993 412.42 577.739 426.121 587.66 439.694C587.312 446.864 584.469 473.944 585.608 478.857C587.336 486.305 592.406 495.568 595.406 502.874C589.787 510.854 580.805 520.639 576.229 528.847C574.458 532.025 572.557 544.392 571.626 548.601C565.453 551.798 561.137 550.315 554.286 549.282C557.929 542.532 561.658 535.829 565.474 529.176C568.645 523.626 572.536 517.797 574.631 511.76C576.362 506.772 576.097 452.207 575.605 443.665C575.498 441.804 575.153 440.012 574.626 438.228C571.297 426.962 563.055 410.731 557.822 399.601Z"/><path fill="#3C2419" d="M470.311 407.999L470.506 408.111C470.772 412.159 457.587 431.348 457.341 437.326C457.081 443.636 457.408 450.674 457.461 456.991C457.58 471.28 457.578 485.57 457.456 499.86C467.726 516.181 477.266 532.388 487.597 548.744C481.865 548.218 475.036 546.631 469.168 545.692C467.657 542.407 466.349 538.781 465.054 535.384C464.116 532.651 458.681 515.437 457.852 514.173C457.089 516.792 459.277 529.455 459.852 532.335C454.7 526.184 449.92 519.732 445.538 513.011C446.707 504.236 449.41 485.602 448.886 477.41C448.487 471.158 443.659 452.975 441.881 445.987C448.096 436.594 462.972 416.309 470.311 407.999Z"/><path fill="#614237" d="M556.023 207.595C560.112 208.467 564.426 210.305 568.525 211.255C585.416 215.167 602.842 222.214 619.619 225.724L550.122 229.807C541.017 230.403 523.324 231.908 514.98 231.193C511.451 230.891 492.904 226.089 488.715 225.102C511.691 219.461 533.224 213.694 556.023 207.595Z"/><path fill="#3C2419" d="M579.31 320.442C581.186 320.938 596.789 327.28 598.791 328.233C606.669 331.984 625.626 338.262 632.322 342.584C634.075 345.631 635.688 349.355 637.28 352.546C646.352 370.721 656.388 388.841 664.999 407.216C660.615 404.697 651.212 393.18 647.185 389.388C623.751 367.324 601.202 344.073 579.31 320.442Z"/><path fill="#3C2419" d="M437.553 322.534C437.344 324.397 432.32 330.602 430.69 332.344C427.239 336.033 420.86 346.616 417.13 349.055C411.101 352.996 401.106 355.245 394.409 358.341C384.221 362.375 373.605 366.99 363.336 370.374C363.068 368.917 375.122 348.256 376.899 347.374C394.94 338.418 419.15 329.733 437.553 322.534Z"/><path fill="#785344" d="M439.594 309.373C453.571 305.511 467.594 301.815 481.659 298.285C485.58 297.275 500.886 293.015 503.894 293.341C512.44 294.267 523.605 296.47 532.366 297.941C538.11 298.906 552.347 300.907 557.212 302.513C535.994 304.368 514.75 307.748 493.47 309.358C486.279 309.902 479.075 310.927 471.865 311.285C462.344 311.579 452.015 310.588 442.4 310.477C441.906 310.472 437.68 310.719 437.765 309.87C438.233 309.472 438.989 309.449 439.594 309.373Z"/><path fill="#3C2419" d="M442.4 310.477C441.906 310.472 437.68 310.719 437.765 309.87C438.233 309.472 438.989 309.449 439.594 309.373C440.846 310.046 440.998 310.064 442.4 310.477Z"/><path fill="#614237" d="M688.716 582.089L689.245 582.195C688.119 584.383 679.821 597.273 678.271 599.086C668.449 610.577 657.161 621.661 646.479 632.397C639.464 632.804 632.472 633.538 625.526 634.598L624.622 634.277C624.693 633.88 624.704 633.643 624.952 633.271C626.998 630.196 667.822 589.222 670.795 587.452C675.573 584.606 683.32 583.805 688.716 582.089Z"/><path fill="#614237" d="M257.895 604.876C259.422 605.79 267.707 612.815 269.284 614.236C277.199 621.37 286.738 629.333 294.016 636.987C301.585 644.947 308.461 654.102 316.2 662.047C308.879 662.017 299.8 661.316 292.36 660.944C288.928 655.871 286.945 650.246 284.382 645.743C281.447 640.586 267.928 632.316 262.255 628.263C261.101 621.341 258.43 611.557 257.895 604.876Z"/><path fill="#3C2419" d="M481.369 318.222C486.298 318.135 509.415 323.34 515.74 324.6C496.617 330.619 475.214 336.376 455.782 341.723C447.162 344.162 436.008 347.187 427.358 348.961C434.505 343.96 441.58 338.857 448.581 333.654C463.18 322.816 462.795 320.862 481.369 318.222Z"/><path fill="#614237" d="M460.025 254.995C474.642 258.992 494.793 263.109 508.421 267.631C499.865 268.965 481.661 272.635 473.833 273.211C461.68 274.104 442.716 273.443 430.011 273.559C428.865 273.704 414.936 274.882 416.726 273.242L416.663 273.39L416.903 273.162C417.066 273.151 417.229 273.141 417.392 273.131C426.451 269.179 435.53 265.273 444.629 261.413C448.795 259.628 455.948 256.283 460.025 254.995Z"/><path fill="#785344" d="M417.392 273.131C421.439 273.764 425.603 273.146 430.011 273.559C428.865 273.704 414.936 274.882 416.726 273.242L416.663 273.39L416.903 273.162C417.066 273.151 417.229 273.141 417.392 273.131Z"/><path fill="#3C2419" d="M419.44 361.029C419.18 362.552 407.053 381.481 405.284 383.699C401.372 388.603 392.828 395.991 387.917 400.359L363.886 421.626C363.25 419.148 378.479 384.356 380.884 380.493C384.899 378.667 390.373 375.342 394.496 373.195C402.715 368.948 411.032 364.891 419.44 361.029Z"/><path fill="#3C2419" d="M528.073 324.634C530.218 325.063 544.035 328.883 546.084 329.509C553.245 331.698 583.802 337.346 588.06 340.427C593.669 344.487 610.196 362.052 615.533 367.541C612.046 366.597 608.593 364.656 605.21 363.292C593.526 358.581 582.448 352.307 570.918 347.369C565.767 345.163 558.149 345.529 552.68 344.221C550.915 343.798 549.232 343.316 547.724 342.221C544.319 339.688 529.805 327.427 528.073 324.634Z"/><path fill="#3C2419" d="M567.149 356.804C571.55 357.925 583.295 363.797 586.997 366.214C593.247 370.294 617.981 389.544 621.239 394.966C626.819 404.25 632.39 418.486 638.71 429.093C634.158 426.824 572.403 363.299 567.149 356.804Z"/><path fill="#3C2419" d="M478.558 351.017L479.01 351.136L478.91 351.66C475.42 354.385 470.659 359.378 467.334 362.564C459.879 369.708 452.405 376.87 444.968 384.033C435.899 392.767 425.839 400.009 416.488 408.316C417.804 405.53 418.479 404.317 420.094 401.741C424.144 395.158 432.552 385.126 435.427 379.344C432.514 380.646 429.571 381.88 426.599 383.044C429.47 378.444 431.962 373.469 434.848 368.743C449.276 362.492 463.851 356.582 478.558 351.017Z"/><path fill="#3C2419" d="M503.357 364.724C504.692 364.593 508.065 364.657 509.56 364.639C504.54 367.521 499.907 371.594 495.057 374.719C475.589 387.26 461.057 402.023 445.641 419.196C444.404 420.674 442.931 422.126 441.584 423.524C445.357 413.493 455.387 396.779 460.892 387.21C463.657 382.404 481.549 369.383 487.017 365.749C492.466 365.45 497.913 365.108 503.357 364.724Z"/><path fill="#3C2419" d="M564.193 362.852C566.016 364.154 597.268 415.22 597.188 418.616C597.074 423.46 599.529 452.951 599.315 458.1C599.166 457.879 591.849 438.906 591.023 436.667C584.305 418.448 576.593 400.395 570.447 382.009C568.592 376.459 565.425 368.275 564.193 362.852Z"/><path fill="#3C2419" d="M524.784 346.231C526.014 346.075 526.663 346.048 527.746 346.773C536.793 352.831 546.072 360.852 555.935 365.526C558.572 371.809 562.666 379.529 565.715 385.85C560.092 382.767 552.607 377.516 547.278 373.891C541.554 370.248 526.615 359.685 521.694 357.743C513.421 354.479 503.645 352.079 494.489 348.319C502.454 346.985 516.46 346.569 524.784 346.231Z"/><path fill="#614237" d="M322.667 576.738C323.999 577.743 334.134 588.53 335.516 590.106C343.748 599.495 354.718 610.061 362.318 619.678L365.534 623.689C363.625 623.057 361.703 622.453 359.761 621.936L358.935 621.705C349.928 619.251 341.298 616.22 332.355 613.711C330.606 607.75 329.24 602.44 327.644 596.491L327.404 595.509C325.956 589.802 323.631 582.346 322.667 576.738Z"/><path fill="#3C2419" d="M568.402 481.916C568.609 487.015 555.869 532.332 553.48 541.364C548.249 543.26 541.204 544.951 535.787 546.261C535.592 543.545 545.491 531.842 547.594 527.989C553.115 517.868 553.997 507.221 558.172 496.847C559.188 494.323 566.428 484.644 568.402 481.916Z"/><path fill="#785344" d="M507.312 260.214C506.844 260.011 504.987 259.361 504.903 258.816C505.292 258.499 508.589 259.139 509.128 259.229L507.312 260.214Z"/><path fill="#92827A" d="M805.068 343.761C805.041 344.884 805.053 350.062 803.775 345.545L805.068 343.761Z"/><path fill="#2A1F1B" d="M557.822 399.601C556.945 397.561 556.825 395.58 558.425 398.596L557.822 399.601Z"/><path fill="#F2E6DE" fill-opacity="0.52156866" d="M715.219 832.372C709.802 827.057 714.285 830.422 713.107 824.759C712.116 819.993 719.023 818.701 720.582 821.479C722.443 824.794 727.807 823.413 725.001 827.144C724.586 827.674 721.802 828.948 720.891 829.54C718.545 830.39 717.331 831.411 715.219 832.372ZM723.268 826.441C722.49 823.408 718.881 820.954 715.675 820.804C714.872 826.695 718.515 826.888 723.268 826.441Z"/><path fill="#F2E6DE" fill-opacity="0.43921569" d="M715.675 820.804C718.881 820.954 722.49 823.408 723.268 826.441C718.515 826.888 714.872 826.695 715.675 820.804Z"/><path fill="#F4E9E0" fill-opacity="0.47058824" d="M584.553 807.816C582.071 805.283 584.086 804.144 586.551 803.309L586.851 804.141C587.88 806.803 587.43 807.738 584.553 807.816Z"/><path fill="#2A1F1B" fill-opacity="0.97254902" d="M149.688 274.293C151.504 270.103 151.167 273.77 150.753 275.849L149.688 274.293Z"/><path fill="#2A1F1B" fill-opacity="0.98823529" d="M879.887 262.465C879.915 260.14 879.3 257.434 881.461 260.8L879.887 262.465Z"/></svg>