<?xml version="1.0" encoding="utf-8" ?><svg xmlns="http://www.w3.org/2000/svg" xmlns:xlink="http://www.w3.org/1999/xlink" width="1024" height="1024" viewBox="0 0 1024 1024"><path fill="#E5A71B" d="M377.226 160.496C380.085 156.219 384.636 150.516 387.822 146.179L409.725 116.373C421.521 100.5 437.73 90.2285 456.646 104.217C469.711 113.878 470.981 127.045 474.543 141.764C475.873 147.257 478.26 153.541 478.949 159.243C482.794 161.968 487.63 163.29 491.484 165.633C495.957 168.353 501.077 172.517 504.688 176.102C513.436 184.79 524.033 200.936 516.518 213.28C516.119 213.935 516.187 213.937 516.015 214.719C518.666 224.928 522.077 236.286 521.686 246.766C520.718 245.599 519.748 244.562 518.777 243.419C517.615 241.317 510.841 235.594 508.699 233.691C510.372 236.295 512.226 239.01 513.801 241.652C515.036 243.725 515.491 246.072 517.03 248.205C517.985 250.426 517.684 250.933 519.047 253.092L519.835 254.161C522.515 255.64 524.997 257.188 527.324 259.19C559.857 287.179 572.874 337.725 568.047 378.973C566.896 375.48 565.916 372.597 565.124 369.013C561.168 359.154 561.056 357.294 555.125 347.482C550.212 339.615 546.281 332.061 539.924 325.033C537.5 322.354 534.789 319.348 532.52 316.573C531.296 315.862 521.43 306.26 518.911 304.273C518.087 303.614 517.251 302.97 516.403 302.342C510.652 298.143 502.959 293.077 496.505 290.151C497.783 289.444 498.8 288.878 500.028 288.074C496.286 286.001 496.39 284.572 494.655 288.201C489.997 304.643 484.131 329.99 481.924 347.043C482.061 351.982 485.684 365.045 486.729 370.736C488.843 382.25 489.714 391.859 490.361 403.516C486.507 394.185 481.852 383.253 475.785 375.277C470.722 400.289 463.793 424.542 467 450.287C468.211 460.006 469.818 470.771 473.089 480.015C466.461 492.485 463.152 500.221 458.293 513.348C450.705 538.536 447.698 559.171 451.707 585.605C452.528 591.014 453.221 597.931 454.878 603.077C458.778 599.41 462.559 594.628 466.587 590.882C474.778 583.264 483.366 577.271 492.598 571.06C493.304 573.801 498.037 587.595 499.588 589.019C525.336 612.652 570.164 639.749 605.725 633.96C604.758 642.783 603.371 651.556 601.57 660.247C600.028 667.342 598.105 674.465 597.04 681.648C596.618 683.982 597.276 686.395 599.006 688.143C613.542 702.832 635.822 689.333 647.287 679.128C649.896 663.93 650.956 647.186 648.786 631.844C653.111 632.495 666.437 634.484 670.398 634.385C676.638 618.643 678.443 605.229 678.835 588.512C678.493 584.832 678.103 577.533 677.964 573.73C677.338 570.421 675.976 562.759 675.706 559.532C673.724 552.66 672.334 545.864 670.086 539.051C668.201 533.337 664.491 526.436 662.937 520.914C695.261 549.223 714.988 589.233 717.765 632.111C718.111 636.91 717.681 640.502 715.73 644.904C720.58 648.637 725.048 657.196 725.785 663.448C727.927 681.609 720.945 696.731 711.992 712.297C698.425 735.888 674.696 753.614 647.146 756.512C635.15 757.773 622.111 756.975 610.475 753.607C600.531 750.267 599.655 748.102 588.311 747.168C521.516 741.67 453.841 779.725 412.549 830.453C387.585 861.121 376.528 892.099 376.355 931.32C372.202 924.689 357.043 902.606 354.759 896.328C348.549 887.681 338.662 864.166 334.502 853.932C333.764 854.541 333.045 855.173 332.346 855.826C317.733 869.325 305.12 890.762 301.536 910.392C300.281 917.268 300.099 922.422 299.837 929.348C292.357 921.575 284.935 905.286 282.182 894.88C277.337 876.565 278.286 857.08 287.708 840.428C251.876 858.398 228.673 888.553 224.095 928.659C213.143 907.913 207.732 884.762 211.153 861.324C213.382 846.056 217.466 830.905 227.112 818.539C230.261 814.503 233.542 810.667 236.458 806.45C233.774 807.402 231.136 808.446 228.596 809.712C192.716 827.593 174.624 847.782 161.219 884.942C159.598 878.283 158.451 871.518 157.788 864.696C154.811 832.038 163.488 802.013 184.484 776.758C159.212 788.481 136.835 808.084 122.978 832.31C120.262 837.058 117.898 841.915 115.169 846.666C114.33 842.107 113.922 835.587 113.539 830.931C110.298 791.52 123.145 754.645 144.209 721.883C148.328 715.477 153.203 709.772 157.346 703.478C148.537 706.31 143.512 709.417 133.494 711.328C100.597 717.603 68.0069 709.809 39.4749 693.005C34.4234 690.03 28.9724 685.794 24.0062 682.38C22.6413 681.503 23.0301 681.954 22.1817 680.662C27.5007 677.728 37.3775 674.08 43.29 671.439C55.0397 666.099 66.1858 659.52 76.5389 651.813C101.702 633.124 133.646 602.081 140.272 570.325C142.41 560.08 140.799 546.084 142.709 534.806C147.397 507.124 156.857 484.787 179.834 468.024C169.213 469.068 162.354 471.38 153.395 477.016C157.154 461.142 173.596 442.617 185.819 432.197C190.837 427.919 197.588 423.89 203.256 420.412C190.087 420.422 184.042 424.552 172.61 428.513C183.216 411.347 203.297 397.454 222.494 391.826C231.337 389.234 239.744 387.765 248.366 384.237C302.458 362.101 333.467 294.05 320.179 238.187C338.821 212.018 357.838 186.118 377.226 160.496Z"/><path fill="#0D5224" d="M377.226 160.496C380.085 156.219 384.636 150.516 387.822 146.179L409.725 116.373C421.521 100.5 437.73 90.2285 456.646 104.217C469.711 113.878 470.981 127.045 474.543 141.764C475.873 147.257 478.26 153.541 478.949 159.243C482.794 161.968 487.63 163.29 491.484 165.633C495.957 168.353 501.077 172.517 504.688 176.102C513.436 184.79 524.033 200.936 516.518 213.28C516.119 213.935 516.187 213.937 516.015 214.719C518.666 224.928 522.077 236.286 521.686 246.766C520.718 245.599 519.748 244.562 518.777 243.419C517.615 241.317 510.841 235.594 508.699 233.691C510.372 236.295 512.226 239.01 513.801 241.652C515.036 243.725 515.491 246.072 517.03 248.205C517.985 250.426 517.684 250.933 519.047 253.092L519.835 254.161C522.515 255.64 524.997 257.188 527.324 259.19C559.857 287.179 572.874 337.725 568.047 378.973C566.896 375.48 565.916 372.597 565.124 369.013C561.168 359.154 561.056 357.294 555.125 347.482C550.212 339.615 546.281 332.061 539.924 325.033C537.5 322.354 534.789 319.348 532.52 316.573C531.296 315.862 521.43 306.26 518.911 304.273C518.087 303.614 517.251 302.97 516.403 302.342C510.652 298.143 502.959 293.077 496.505 290.151C497.783 289.444 498.8 288.878 500.028 288.074C496.286 286.001 496.39 284.572 494.655 288.201C489.997 304.643 484.131 329.99 481.924 347.043C482.061 351.982 485.684 365.045 486.729 370.736C488.843 382.25 489.714 391.859 490.361 403.516C486.507 394.185 481.852 383.253 475.785 375.277C470.722 400.289 463.793 424.542 467 450.287C468.211 460.006 469.818 470.771 473.089 480.015C466.461 492.485 463.152 500.221 458.293 513.348C450.705 538.536 447.698 559.171 451.707 585.605C452.528 591.014 453.221 597.931 454.878 603.077C458.778 599.41 462.559 594.628 466.587 590.882C474.778 583.264 483.366 577.271 492.598 571.06C493.304 573.801 498.037 587.595 499.588 589.019C525.336 612.652 570.164 639.749 605.725 633.96C604.758 642.783 603.371 651.556 601.57 660.247C600.028 667.342 598.105 674.465 597.04 681.648C596.618 683.982 597.276 686.395 599.006 688.143C613.542 702.832 635.822 689.333 647.287 679.128C649.896 663.93 650.956 647.186 648.786 631.844C653.111 632.495 666.437 634.484 670.398 634.385C676.638 618.643 678.443 605.229 678.835 588.512C678.493 584.832 678.103 577.533 677.964 573.73C677.338 570.421 675.976 562.759 675.706 559.532C673.724 552.66 672.334 545.864 670.086 539.051C668.201 533.337 664.491 526.436 662.937 520.914C695.261 549.223 714.988 589.233 717.765 632.111C718.111 636.91 717.681 640.502 715.73 644.904C720.58 648.637 725.048 657.196 725.785 663.448C727.927 681.609 720.945 696.731 711.992 712.297C698.425 735.888 674.696 753.614 647.146 756.512C635.15 757.773 622.111 756.975 610.475 753.607C600.531 750.267 599.655 748.102 588.311 747.168C521.516 741.67 453.841 779.725 412.549 830.453C387.585 861.121 376.528 892.099 376.355 931.32C372.202 924.689 357.043 902.606 354.759 896.328C354.737 894.503 352.731 887.906 352.241 885.377C350.429 875.526 350.021 865.467 351.029 855.501C361.779 756.835 486.529 736.948 565.499 737.458C574.078 737.513 584.707 736.974 593.086 737.733C615.496 739.76 636.823 748.197 656.604 731.902C667.71 722.816 669.997 713.22 671.49 699.341C695.043 701.026 710.324 698.961 722.091 676.097C724.404 671.603 725.515 662.54 719.58 660.369C713.332 658.083 707.918 667.914 704.41 671.506C702.309 673.664 699.961 676.055 697.262 677.603C687.965 684.13 673.954 678.55 664.926 685.466C654.769 693.247 651.555 702.073 638.679 707.559C621.284 714.971 600.057 717.194 584.947 703.576C578.869 698.315 573.053 690.135 565.052 687.76C537.371 679.543 518.94 718.691 491.539 693.46C486.483 688.805 482.176 683.381 475.219 681.264C467.249 678.839 462.252 680.324 455.2 684.034C442.166 670.111 423.723 664.788 405.767 659.918C392.623 656.353 386.651 654.471 377.187 644.587C372.04 643.609 367.182 642.664 362.102 641.338C337.957 635.037 326.998 617.469 334.017 593.056C315.762 610.807 310.071 650.979 337.958 662.945C343.836 665.467 348.116 666.017 354.375 666.809C335.818 673.581 313.38 671.788 301.125 654.785C288.933 637.869 296.716 610.93 306.744 594.873C312.655 585.408 319.567 577.767 324.947 567.8C331.645 555.124 336.302 541.472 338.747 527.346C339.324 524.056 339.673 520.731 339.789 517.393C340.103 505.749 337.544 493.732 337.454 481.774C337.301 461.526 345.034 447.528 332.172 429.535C359.74 401.984 336.026 397.717 347.898 369.507C352.689 358.122 369.653 357.529 372.906 343.132C376.324 327.998 363.735 326.781 357.36 316.452C351.917 307.632 352.52 294.584 354.806 284.921C357.179 284.469 356.132 290.531 356.44 293.01C356.579 302.029 359.943 315.903 371.026 316.38C385.169 316.988 386 301.469 388.903 291.373C390.288 286.563 392.223 281.929 394.67 277.563C398.281 271.145 404.19 266.251 409.407 261.895C420.076 252.989 418.361 246.245 417.556 234.21C417.47 232.919 418.834 229.652 419.567 228.274C425.066 217.955 436.613 216.662 446.592 213.484C451.917 211.669 456.695 208.953 460.995 205.473C469.818 198.335 468.215 184.706 460.302 177.494C450.64 168.687 430.468 168.447 418.104 168.415C423.469 164.605 435.851 150.415 440.84 144.984L425.837 145.471C424.669 152.102 422.63 158.309 418.331 163.635C414.513 168.372 408.931 171.349 402.871 171.882C391.379 172.978 385.255 166.882 377.226 160.496Z"/><path fill="#FEDE14" d="M454.878 603.077C447.378 609.553 439.16 613.812 429.428 615.747C413.61 618.995 397.152 615.694 383.811 606.596C371.114 598.14 362.388 584.897 359.627 569.894C356.553 553.711 360.076 536.97 369.411 523.398C387.112 497.81 422.332 490.377 448.633 506.872C451.995 508.981 455.056 511.056 458.293 513.348C450.705 538.536 447.698 559.171 451.707 585.605C452.528 591.014 453.221 597.931 454.878 603.077Z"/><path fill="#E5A71B" d="M396.639 306.856C395.877 284.428 412.127 254.827 436.931 260.863C446.246 263.13 467.644 309.649 472.094 319.813C475.588 327.794 478.118 339.664 481.924 347.043C482.061 351.982 485.684 365.045 486.729 370.736C488.843 382.25 489.714 391.859 490.361 403.516C486.507 394.185 481.852 383.253 475.785 375.277C463.004 353.257 422.015 307.814 396.639 306.856Z"/><path fill="#E5A71B" d="M662.937 520.914C695.261 549.223 714.988 589.233 717.765 632.111C718.111 636.91 717.681 640.502 715.73 644.904C712.865 648.218 712.589 650.046 707.717 651.85C703.124 653.55 698.111 651.154 693.929 649.306C697.549 664.741 691.611 673.109 675.591 666.337C675.291 666.569 674.988 666.798 674.683 667.023C669.548 670.791 658.507 673.217 654.375 667.456C654.02 663.675 660.267 644.076 661.732 638.68C667.57 643.441 671.426 651.988 673.056 659.207L681.73 628.406C685.069 633.09 688.201 637.918 691.118 642.876C691.265 642.397 691.404 641.917 691.534 641.433C699.235 613.463 693.536 576.056 679.272 550.813L677.636 552.696C678.093 554.63 678.844 557.406 679.158 559.293C678.667 560.784 678.898 562.034 677.661 561.565C677.362 562.03 677.66 562.853 677.324 563.206C676.663 562.225 677.554 559.958 675.706 559.532C673.724 552.66 672.334 545.864 670.086 539.051C668.201 533.337 664.491 526.436 662.937 520.914Z"/><path fill="#34450A" d="M675.519 544.147C676.691 546.144 678.432 548.768 679.272 550.813L677.636 552.696C677.141 549.951 676.21 546.875 675.519 544.147Z"/><path fill="#E5A71B" d="M500.535 274.473C502.961 269.442 504.833 265.161 508.408 260.791C511.734 256.726 517.555 256.557 519.047 253.092L519.835 254.161C522.515 255.64 524.997 257.188 527.324 259.19C559.857 287.179 572.874 337.725 568.047 378.973C566.896 375.48 565.916 372.597 565.124 369.013C565.731 364.582 561.368 361.976 565.549 362.331C566.86 362.442 565.63 359.449 565.604 359.016C565.401 355.669 565.348 354.823 563.406 352.317C562.907 351.409 561.417 346.301 561.011 344.906C553.203 318.079 528.305 283.24 500.535 274.473Z"/><path fill="#E5A71B" d="M516.015 214.719C515.244 215.67 515.183 215.693 514.199 216.438C512.471 214.869 512.077 211.213 510.533 208.794C505.474 200.339 495.446 202.669 487.742 200.232C475.276 196.289 470.072 181.466 472.284 169.476C472.928 165.986 475.56 160.641 478.949 159.243C482.794 161.968 487.63 163.29 491.484 165.633C495.957 168.353 501.077 172.517 504.688 176.102C513.436 184.79 524.033 200.936 516.518 213.28C516.119 213.935 516.187 213.937 516.015 214.719Z"/><path fill="#E5A71B" d="M680.914 577.501C681.087 581.735 679.998 581.039 682.008 584.58C682.83 593.436 680.149 630.564 673.52 635.256L670.398 634.385C676.638 618.643 678.443 605.229 678.835 588.512C680.328 584.552 680.523 581.574 680.914 577.501Z"/><path fill="#E5A71B" d="M500.028 288.074C507.3 290.168 528.252 306.371 532.062 312.674C533.196 315.774 537.248 319.234 537.5 320.28L537.666 320.359C537.706 320.489 537.703 320.417 537.66 320.578C537.354 320.667 536.473 319.514 536.359 319.374C535.307 318.089 533.968 317.337 532.52 316.573C531.296 315.862 521.43 306.26 518.911 304.273C518.087 303.614 517.251 302.97 516.403 302.342C510.652 298.143 502.959 293.077 496.505 290.151C497.783 289.444 498.8 288.878 500.028 288.074Z"/><path fill="#C5A128" d="M532.062 312.674C537.916 318.084 553.681 338.337 556.69 345.485L555.125 347.482C550.212 339.615 546.281 332.061 539.924 325.033C537.5 322.354 534.789 319.348 532.52 316.573C533.968 317.337 535.307 318.089 536.359 319.374C536.473 319.514 537.354 320.667 537.66 320.578C537.703 320.417 537.706 320.489 537.666 320.359L537.5 320.28C537.248 319.234 533.196 315.774 532.062 312.674Z"/><path fill="#C5A128" d="M675.706 559.532C677.554 559.958 676.663 562.225 677.324 563.206C677.66 562.853 677.362 562.03 677.661 561.565C678.898 562.034 678.667 560.784 679.158 559.293C680.67 567.52 681.95 576.201 682.008 584.58C679.998 581.039 681.087 581.735 680.914 577.501C680.523 581.574 680.328 584.552 678.835 588.512C678.493 584.832 678.103 577.533 677.964 573.73C677.338 570.421 675.976 562.759 675.706 559.532Z"/><path fill="#C5A128" d="M555.125 347.482L556.69 345.485C558.39 348.464 561.67 354.31 562.773 357.517L564.758 358.065C564.265 356.134 563.88 354.239 563.406 352.317C565.348 354.823 565.401 355.669 565.604 359.016C565.63 359.449 566.86 362.442 565.549 362.331C561.368 361.976 565.731 364.582 565.124 369.013C561.168 359.154 561.056 357.294 555.125 347.482Z"/><path fill="#897111" d="M562.773 357.517L564.758 358.065C564.902 358.805 565.424 361.035 564.755 361.555C564.144 361.297 563.086 358.271 562.773 357.517Z"/><path fill="#E5A71B" d="M397.66 319.106C407.653 320.397 424.181 330.5 432.591 336.365C426.338 336.379 416.678 338.393 410.324 339.515C413.44 344.786 423.964 355.583 428.682 360.913C417.608 361.392 406.933 361.698 395.948 363.202C398.81 369.624 404.038 378.89 407.398 385.496C397.908 385.399 392.258 385.57 383.036 387.49C386.475 396.004 389.431 404.636 392.937 413.224C386.588 412.344 381.014 411.727 374.63 410.597C375.375 424.984 377.462 432.188 381.978 445.58C378.476 445.257 368.689 443.713 366.509 446.201L366.703 448.41C368.8 459.422 371.027 464.642 375.272 474.806L365.753 470.951C360.293 479.253 357.908 489.747 355.431 499.287C350.544 473.015 360.611 457.333 346.928 431.522C371.027 416.836 357.904 397.163 362.715 376.646C363.773 372.133 374.816 367.102 379.725 359.285C388.551 345.232 382.626 338.796 388.696 325.542C390.25 322.147 393.972 319.998 397.66 319.106Z"/><path fill="#E5A71B" d="M456.843 624.875C456.954 627.005 456.805 629.746 457.081 631.648C458.853 643.863 467.523 650.452 476.593 657.425C478.569 649.297 481.627 643.188 487.457 637.133C490.984 649.319 496.025 656.207 505.026 665.252C506.712 655.915 510.404 649.957 515.333 642.075C519.903 653.365 526.638 660.338 536.748 667.091C537.928 657.295 541.416 650.757 546.126 642.235C550.302 650.411 556.881 657.488 563.319 663.907C564.499 655.162 566.944 651.229 571.194 643.522C577.927 653.747 582.691 657.581 590.642 666.458C591.465 668.577 587.618 678.672 586.7 681.372C558.215 669.41 553.61 677.636 525.358 687.199C514.177 691.385 502.967 686.097 495.052 677.925C483.128 665.614 474.559 669.302 460.083 674.023C443.09 656.664 428.212 654.038 405.323 651.256C417.297 645.163 433.169 640.632 446.509 644.372C449.306 634.909 450.422 632.346 456.843 624.875Z"/><path fill="#E5A71B" d="M488.233 212.003C488.517 212.012 488.801 212.025 489.084 212.043C496.509 212.566 507.024 224.317 507.91 231.574C508.686 237.926 507.975 245.601 507.457 252.048C501.145 243.819 494.707 236.17 488.38 227.761C488.317 235.666 489.197 246.772 489.603 254.975C484.73 249.986 477.296 243.887 471.927 239.398C471.938 248.719 473.498 258.738 473.422 268.332C468.968 264.822 460.479 255.788 455.209 251.078C456.306 258.187 456.607 263.302 456.92 270.423C456.164 269.847 455.419 269.258 454.685 268.655C445.789 261.343 417.638 233.282 447.415 234.485C449.357 223.371 456.245 221.436 466.24 223.575L466.455 223.136L466.824 222.409C471.729 212.607 475.162 213.561 483.787 215.489C484.368 215.618 487.418 212.68 488.233 212.003Z"/><path fill="#0D5224" d="M182.375 572.982C210.116 618.818 212.801 670.674 161.253 700.888C160.223 701.491 158.026 702.621 157.346 703.478C148.537 706.31 143.512 709.417 133.494 711.328C100.597 717.603 68.0069 709.809 39.4749 693.005C34.4234 690.03 28.9724 685.794 24.0062 682.38C33.6011 684.803 42.0086 687.185 51.9712 688.654C104.53 696.401 168.287 665.411 183.02 611.835C186.382 599.608 185.325 585.266 182.375 572.982Z"/><path fill="#59550D" d="M354.806 284.921C355.131 283.254 358.044 273 359.19 272.722L359.123 272.783L359.196 272.733C358.809 273.129 357.443 279.775 357.216 280.804C356.365 284.653 356.617 289.057 356.44 293.01C356.132 290.531 357.179 284.469 354.806 284.921Z"/><path fill="#0D5224" d="M276.906 391.438C277.311 389.248 277.418 386.928 279.406 385.605C280.259 386.553 280.287 386.187 280.115 387.737C278.282 404.273 272.135 418.147 270.589 435.083L268.831 435.433C268.292 432.607 267.828 430.173 267.487 427.31C263.434 435.897 259.289 443.812 256.766 452.999C254.725 452.514 255.281 452.39 254.488 450.433L254.515 444.885C235.618 467.015 231.129 493.099 244.739 519.255L243.408 520.606C233.326 513.201 228.239 505.76 223.933 494.318C223.154 497.683 222.817 499.776 222.394 503.213C221.759 505.824 222.49 506.612 220.581 508.307C213.7 486.187 220.668 466.894 233.816 449.043C225.158 454.313 217.458 461.016 211.045 468.865C210.405 467.971 209.874 467.182 209.281 466.264C215.341 449.551 225.821 440.644 241.021 432.809C225.803 434.223 222.695 434.932 210.12 443.646C229.792 413.303 257.008 418.772 275.561 393.13C276.211 392.431 276.364 392.228 276.906 391.438Z"/><path fill="#8B9630" d="M275.561 393.13C276.211 392.431 276.364 392.228 276.906 391.438C276.026 401.921 271.464 409.007 266.184 417.805C265.301 419.278 261.954 424.974 260.777 425.642L260.732 425.64C260.576 424.964 263.153 420.852 263.54 420.239C269.068 411.502 273.406 403.302 275.561 393.13Z"/><path fill="#0D5224" d="M321.886 689.832C315.035 692.109 308.261 692.364 301.217 692.852C276.735 694.547 255.071 677.528 255.217 652.027C255.332 632.13 266.619 614.3 280.362 600.405C258.923 637.363 269.363 682.77 316.319 688.567C319.2 688.484 322.021 688.497 324.92 688.402L325.186 689.181C324.086 689.441 323.008 689.68 321.886 689.832Z"/><path fill="#34450A" d="M316.319 688.567C319.2 688.484 322.021 688.497 324.92 688.402L325.186 689.181C324.086 689.441 323.008 689.68 321.886 689.832C320.233 688.965 318.492 689.289 316.319 688.567Z"/><path fill="#34450A" d="M220.581 508.307C222.49 506.612 221.759 505.824 222.394 503.213C222.363 507.531 222.387 510.218 222.651 514.61C221.86 512.511 220.978 510.529 220.581 508.307Z"/><path fill="#59550D" d="M254.488 450.433C255.281 452.39 254.725 452.514 256.766 452.999C256.329 455.227 255.96 457.77 255.626 460.016C255.133 456.743 254.709 453.758 254.488 450.433Z"/><path fill="#10491F" d="M209.281 466.264C209.874 467.182 210.405 467.971 211.045 468.865C210.696 469.38 209.381 471.58 208.762 471.714C207.934 471.111 209.012 467.667 209.179 466.808L209.281 466.264Z"/><path fill="#34450A" d="M270.589 435.083C270.593 438.66 271.371 439.807 271.384 442.853C270.572 440.709 269.253 437.591 268.831 435.433L270.589 435.083Z"/><path fill="#34450A" d="M244.739 519.255C245.887 520.871 247.77 523.728 244.315 521.263L243.658 520.79L243.408 520.606L244.739 519.255Z"/><path fill="#897111" d="M324.92 688.402C325.556 688.12 326.725 687.613 327.312 688.208C327.262 688.812 325.613 689.068 325.186 689.181L324.92 688.402Z"/><path fill="#E5A71B" d="M682.1 368.463C717.878 348.703 743.573 319.243 773.598 294.466C824.108 252.785 889.11 225.245 955.204 229.647C969.277 230.585 988.549 231.107 1002.15 234.951C995.653 236.592 989.101 237.548 982.564 239.025C969.797 241.798 957.31 245.738 945.263 250.795C859.334 286.86 832.001 350.214 775.762 418.748C748.802 451.602 721.644 477.335 684.751 498.677C665.242 510.121 644.429 519.18 622.759 525.66C614.948 528.022 605.303 529.89 598.118 532.269C620.027 547.158 640.491 586.125 645.5 612.202C646.689 618.392 647.49 625.662 648.786 631.844C650.956 647.186 649.896 663.93 647.287 679.128C635.822 689.333 613.542 702.832 599.006 688.143C597.276 686.395 596.618 683.982 597.04 681.648C598.105 674.465 600.028 667.342 601.57 660.247C603.371 651.556 604.758 642.783 605.725 633.96C610.529 597.862 607.962 567.433 593.706 533.687C559.764 538.548 521.5 552.715 492.598 571.06C483.366 577.271 474.778 583.264 466.587 590.882C462.559 594.628 458.778 599.41 454.878 603.077C453.221 597.931 452.528 591.014 451.707 585.605C447.698 559.171 450.705 538.536 458.293 513.348C463.152 500.221 466.461 492.485 473.089 480.015C475.903 475.526 478.835 471.163 481.685 466.72C496.698 443.311 517.988 425.174 534.768 403.17C538.369 398.448 542.158 393.297 546.329 389.087C546.781 411.954 541.598 424.845 531.844 444.787C553.26 417.783 579.256 394.755 608.647 376.754C625.377 366.313 641.312 358.91 658.462 349.701C694.434 330.384 727.247 304.748 751.612 271.744C755.146 266.958 758.928 260.667 762.152 255.56C753.013 290.93 726.223 325.124 700.474 350.195C697.866 352.735 682.084 366.661 681.44 368.279L682.1 368.463ZM879.16 268.234C876.841 267.117 874.957 267.337 874.996 270.339C876.74 269.549 877.493 269.197 879.16 268.234Z"/><path fill="#F9EABD" d="M669.121 377.099C670.868 375.346 679.127 367.807 681.44 368.279L682.1 368.463C680.765 370.06 671.326 375.816 669.121 377.099Z"/><path fill="#0D5224" d="M655.44 427.619C678.464 416.989 695.346 408.252 715.208 391.746C756.209 357.673 785.22 312.449 831.685 284.57C851.627 272.604 869.516 266.622 891.444 260.101C892.428 260.584 892.632 260.738 893.553 261.392C888.805 263.67 883.95 266.075 879.16 268.234C876.841 267.117 874.957 267.337 874.996 270.339C869.538 274.097 862.584 277.758 856.827 281.508C845.515 288.937 834.912 297.392 825.152 306.766C812.054 319.157 798.132 335.764 786.188 349.352C746.292 394.741 717.336 415.229 658.793 428.732C657.146 428.361 656.931 428.35 655.44 427.619Z"/><path fill="#0D5224" d="M700.57 462.33L700.809 464.176C673.726 483.535 644.098 495.106 611.525 502.882C570.901 512.581 523.595 513.624 485.535 532.275C474.36 537.751 463.853 547.231 455.494 556.297C489.906 490.224 569.753 496.356 632.26 484.998C659.103 480.121 676.39 474.286 700.57 462.33Z"/><path fill="#0D5224" d="M622.238 393.179C624.601 403.22 621.601 418.495 616.747 427.568C606.722 430.701 596.975 431.387 586.816 433.37C594.513 434.192 604.883 434.662 612.606 434.407C604.269 445.359 596.778 450.976 582.66 453.15C578.707 453.759 567.275 453.806 564.058 452.016C563.757 451.349 563.647 451.284 563.549 450.583L562.302 449.69C560.475 451.372 558.837 452.974 557.07 454.7L555.567 454.308C554.929 454.682 554.724 454.797 554.147 455.234C553.897 443.418 558.664 431.879 566.633 423.312C569.868 419.835 574.599 416.379 578.441 413.47L577.416 418.244C576.492 422.658 576.059 427.217 575.729 431.71C576.818 429.392 578.024 425.681 579.109 423.783C581.73 419.202 583.203 417.286 584.667 412.136L587.002 411.669C587.913 411.493 588.615 411.34 589.506 411.14L591.505 410.687C595.884 409.683 599.977 408.179 604.383 408.116C605.792 406.402 607.204 405.94 609.184 404.83C615.159 401.483 618.481 399.022 622.238 393.179Z"/><path fill="#C5A128" d="M584.667 412.136L587.002 411.669C587.913 411.493 588.615 411.34 589.506 411.14L591.505 410.687C595.884 409.683 599.977 408.179 604.383 408.116C598.082 424.195 589.999 424.899 578.922 434.21C578.922 434.902 578.928 435.593 578.938 436.285C579.004 436.642 565.063 449.474 563.549 450.583L562.302 449.69C560.475 451.372 558.837 452.974 557.07 454.7L555.567 454.308C554.929 454.682 554.724 454.797 554.147 455.234C553.897 443.418 558.664 431.879 566.633 423.312C569.868 419.835 574.599 416.379 578.441 413.47L577.416 418.244C576.492 422.658 576.059 427.217 575.729 431.71C576.818 429.392 578.024 425.681 579.109 423.783C581.73 419.202 583.203 417.286 584.667 412.136Z"/><path fill="#34450A" d="M578.922 434.21C578.922 434.902 578.928 435.593 578.938 436.285C579.004 436.642 565.063 449.474 563.549 450.583L562.302 449.69C560.475 451.372 558.837 452.974 557.07 454.7L555.567 454.308C560.6 448.772 572.761 437.935 578.922 434.21Z"/><path fill="#8B9630" d="M578.938 436.285C579.004 436.642 565.063 449.474 563.549 450.583L562.302 449.69C565.506 446.803 575.461 438.13 578.938 436.285Z"/><path fill="#10491F" d="M555.567 454.308L557.07 454.7C551.77 460.659 547.305 467.312 543.799 474.475C537.433 471.661 540.66 471.762 544.521 465.683C546.684 462.277 551.347 458.428 554.147 455.234C554.724 454.797 554.929 454.682 555.567 454.308Z"/><path fill="#EFCB75" d="M587.265 523.244C589.236 523.913 596.383 528.073 595.673 530.026L595.596 530.042C594.891 529.821 593.199 527.992 592.521 527.371C590.554 529.257 593.862 531.538 592.774 532.196C591.766 532.062 587.811 524.401 587.265 523.244Z"/><path fill="#34450A" d="M902.279 257.296L902.559 258.06C899.677 258.917 895.957 260.756 893.553 261.392C892.632 260.738 892.428 260.584 891.444 260.101C895.262 259.475 898.61 258.392 902.279 257.296Z"/><path fill="#34450A" d="M651.513 428.724C653.047 428.373 653.982 427.872 655.44 427.619C656.931 428.35 657.146 428.361 658.793 428.732C656.587 429.097 654.993 429.302 652.727 429.797L651.513 428.724Z"/><path fill="#34450A" d="M700.57 462.33C703.171 461.069 705.639 459.742 708.218 458.442C705.653 460.635 703.608 462.249 700.809 464.176L700.57 462.33Z"/><path fill="#0D5224" fill-opacity="0.94509804" d="M874.996 270.339C874.957 267.337 876.841 267.117 879.16 268.234C877.493 269.197 876.74 269.549 874.996 270.339Z"/><path fill="#EFCB75" d="M532.249 442.86C533.541 444.565 530.951 446.425 529.691 448.007C528.611 447.162 531.544 443.951 532.249 442.86Z"/><path fill="#897111" d="M902.279 257.296C902.937 257.037 904.937 256.126 905.627 256.68C905.478 257.174 903.034 257.879 902.559 258.06L902.279 257.296Z"/><path fill="#897111" d="M652.727 429.797C652.306 429.862 649.568 430.358 649.359 429.789C649.647 429.334 651.042 428.919 651.513 428.724L652.727 429.797Z"/><path fill="#E5A71B" d="M693.086 221.529L694.863 222.639C697.176 234.636 694.699 258.469 688.649 269.497C685.691 274.89 668.138 280.176 661.487 282.581L661.732 283.106C667.756 284.133 682.887 280.613 683.732 280.899C681.62 287.128 671.361 297.372 666.413 301.8C653.388 313.455 632.104 313.492 615.314 313.499C614.719 313.32 614.127 313.133 613.537 312.937C613.033 312.726 612.527 312.52 612.019 312.32C612.415 291.597 620.22 270 638.247 258.359C638.927 265.784 637.613 272.858 638.579 281.114C641.135 272.437 643.776 262.941 647.076 254.549C649.883 252.761 652.191 251.774 655.259 250.527C670.542 244.312 686.221 237.672 693.086 221.529ZM628.646 299.554C629.484 298.753 630.314 297.944 631.137 297.128L633.678 294.702C635.687 293.081 637.7 291.288 639.603 289.547C640.963 288.34 643.061 286.546 644.533 285.543L644.19 284.61C642.739 285.657 640.477 287.246 639.306 288.482C637.02 290.325 634.848 292.014 632.662 294.011C631.704 294.741 631.008 295.31 630.114 296.107C629.359 296.782 628.835 297.184 628.222 297.981C626.844 299.034 625.499 300.136 624.352 301.445C622.856 302.848 621.829 303.863 620.432 305.379L622.481 305.718C623.098 305.107 623.707 304.489 624.309 303.864C625.743 302.416 627.189 300.979 628.646 299.554Z"/><path fill="#F6F5E5" fill-opacity="0.95686275" d="M624.352 301.445C625.499 300.136 626.844 299.034 628.222 297.981L628.646 299.554C627.189 300.979 625.743 302.416 624.309 303.864L624.352 301.445Z"/><path fill="#F9EABD" fill-opacity="0.7019608" d="M639.306 288.482L639.603 289.547C637.7 291.288 635.687 293.081 633.678 294.702L632.662 294.011C634.848 292.014 637.02 290.325 639.306 288.482Z"/><path fill="#F6F5E5" fill-opacity="0.60784316" d="M624.352 301.445L624.309 303.864C623.707 304.489 623.098 305.107 622.481 305.718L620.432 305.379C621.829 303.863 622.856 302.848 624.352 301.445Z"/><path fill="#F9EABD" fill-opacity="0.88627452" d="M644.19 284.61L644.533 285.543C643.061 286.546 640.963 288.34 639.603 289.547L639.306 288.482C640.477 287.246 642.739 285.657 644.19 284.61Z"/><path fill="#F6F5E5" fill-opacity="0.7647059" d="M630.114 296.107L631.137 297.128C630.314 297.944 629.484 298.753 628.646 299.554L628.222 297.981C628.835 297.184 629.359 296.782 630.114 296.107Z"/><path fill="#FBF9DA" fill-opacity="0.95686275" d="M630.114 296.107C631.008 295.31 631.704 294.741 632.662 294.011L633.678 294.702L631.137 297.128L630.114 296.107Z"/><path fill="#F6F5E5" d="M613.537 312.937C614.789 311.357 618.956 306.397 620.432 305.379L622.481 305.718C619.757 308.508 617.858 310.51 615.314 313.499C614.719 313.32 614.127 313.133 613.537 312.937Z"/><path fill="#C5A128" d="M644.19 284.61C645.047 283.675 649.366 280.567 650.517 280.645C654.804 280.936 646.77 282.718 646.785 283.798C646.786 283.861 644.707 285.421 644.533 285.543L644.19 284.61Z"/><path fill="#EFCB75" d="M661.732 283.106C656.318 286.058 654.058 281.936 661.487 282.581L661.732 283.106Z"/><path fill="#0D5224" d="M795.851 465.889C813.672 464.728 831.093 467.826 846.705 456.179L847.354 456.443L847.238 457.988C844.166 469.997 839.844 481.972 830.747 490.876C830.048 491.56 828.314 491.622 827.36 491.731C825.092 491.409 810.661 491.076 807.638 490.995C809.892 491.98 815.112 493.503 817.526 493.88C819.456 494.529 820.753 494.745 822.786 495.048C823.918 495.289 825.047 495.541 826.174 495.804C824.664 498.111 817.101 502.808 814.293 503.621C808.546 503.382 805.529 503.224 799.89 502.208C797.126 501.245 791.894 500.304 788.913 499.708C786.642 498.957 784.878 498.576 782.568 498.071C785.284 499.534 787.156 500.543 789.97 501.879L799.288 506.226C801.607 506.985 803.614 507.687 805.99 508.377L806.769 508.783C805.912 510.332 801.233 511.761 799.377 512.284C780.233 517.678 768.881 515.403 752.206 506.557L751.869 505.947C756.494 502.356 769.04 497.825 774.738 495.258L773.736 494.111C761.902 498.023 756.495 501.581 746.041 505.762C751.529 488.239 767.827 472.845 785.444 467.845C784.262 470.649 781.306 476.724 781.902 479.406C784.05 479.259 793.555 468.223 795.851 465.889Z"/><path fill="#E5A71B" d="M795.851 465.889C813.672 464.728 831.093 467.826 846.705 456.179L847.354 456.443L847.238 457.988L846.716 458.315C841.264 461.808 836.533 466.517 831.029 469.853C813.162 480.68 793.242 486.966 773.736 494.111C761.902 498.023 756.495 501.581 746.041 505.762C751.529 488.239 767.827 472.845 785.444 467.845C784.262 470.649 781.306 476.724 781.902 479.406C784.05 479.259 793.555 468.223 795.851 465.889Z"/><path fill="#F6F5E5" d="M780.301 480.125C780.983 480.318 781.959 480.29 782.324 480.669C782.289 481.042 779.297 485.151 778.939 485.648C778.787 485.799 778.476 486.165 778.278 486.172C777.544 485.401 779.865 481.103 780.301 480.125Z"/><path fill="#7BAC97" d="M774.738 495.258C775.373 495 779.532 492.951 779.972 493.596C779.548 494.806 769.216 498.557 767.493 499.339L762.771 501.537C760.371 502.626 754.276 505.876 752.206 506.557L751.869 505.947C756.494 502.356 769.04 497.825 774.738 495.258Z"/><path fill="#E5A71B" d="M790.602 180.798C803.868 177.814 818.8 179.132 831.562 183.812C814.836 188.78 811.961 192.392 800.574 205.133C794.848 206.324 788.005 205.458 783.97 206.463C782.411 205.454 780.961 205.85 779.518 206.812C781.343 207.222 782.931 208.227 783.97 206.463L784.52 207.482C786.437 208.539 792.345 209.429 794.803 209.88C782.731 219.413 774.04 218.34 759.691 218.312C755.512 222.794 752.69 227.538 749.992 233.02C748.895 235.25 746.879 242.055 745.444 242.805C743.625 242.344 743.657 242.679 742.665 241.499C742.585 235.863 752.043 223.082 755.59 218.274C755.931 212.551 759.362 195.929 765.483 194.026C765.37 195.744 764.993 196.632 764.866 198.604L765.677 198.552C766.316 196.625 767.113 195.592 767.33 193.657C771.296 190.37 779.579 181.754 785.21 182.371L785.647 183.059L784.592 184.972C783.663 185.479 782.847 187.298 782.615 188.289C782.044 189.382 781.567 190.399 781.05 191.517L782.636 192.224C783.065 191.52 783.503 190.822 783.95 190.131C784.461 189.59 786.86 186.221 786.769 185.623C785.963 185.439 785.338 185.312 784.592 184.972C788.193 184.436 788.034 184.088 790.602 180.798Z"/><path fill="#F6F5E5" d="M781.05 191.517L782.636 192.224C781.708 195.108 779.653 198.603 778.031 201.147C778.66 198.071 779.324 194.189 781.05 191.517Z"/><path fill="#EFCB75" d="M764.866 198.604L765.677 198.552C765.66 199.837 765.933 203.661 764.759 204.583L764.692 204.555C764.071 203.659 764.77 199.765 764.866 198.604Z"/><path fill="#EFCB75" d="M793.667 193.957C794.117 194.107 794.224 194.092 794.37 194.257L794.363 194.348C793.972 194.762 794.193 194.555 793.704 194.776C783.31 199.478 772.658 206.474 763.52 213.093L759.901 215.749C759.707 215.738 759.513 215.726 759.318 215.715L759.331 215.547C763.178 209.983 786.503 196.786 793.667 193.957Z"/><path fill="#E5A71B" d="M891.271 366.465C906.859 365.568 909.279 370.49 925.056 362.264C923.032 370.067 921.62 372.989 916.831 379.685C915.545 381.23 913.003 384.649 910.743 384.689C909.605 384.709 909.83 385.656 909.918 386.332C909.885 386.223 909.522 384.832 909.368 384.8C905.839 384.066 901.301 383.68 897.686 383.482C900.343 384.916 906.881 386.573 909.918 386.332C906.759 389.344 905.447 389.718 901.601 391.434C899.646 391.173 897.866 390.938 895.901 390.737C893.737 389.97 888.605 389.127 886.301 389.143C889.262 391.993 891.115 392.257 894.654 394.242C896.519 396.008 887.524 397.38 886.746 397.461C877.864 398.383 867.728 396.427 860.611 390.804L859.859 390.355C853.377 392.957 848.27 396.636 842.548 400.646C842.376 402.151 837.907 402.369 838.716 400.491C839.875 397.804 854.552 391.724 855.536 390.004C855.761 389.534 855.99 389.067 856.222 388.601C862.147 376.802 872.085 370.637 884.237 366.686C882.98 369.69 881.926 372.482 880.808 375.543C884.224 372.399 887.534 369.224 891.271 366.465Z"/><path fill="#0D5224" d="M878.35 385.863C880.295 387.389 883.7 387.299 886.301 389.143C889.262 391.993 891.115 392.257 894.654 394.242C896.519 396.008 887.524 397.38 886.746 397.461C877.864 398.383 867.728 396.427 860.611 390.804C863.036 390.49 870.257 388.136 872.089 386.639L872.686 386.178C874.172 386.195 877.28 385.738 878.35 385.863Z"/><path fill="#10491F" d="M881.656 383.575C885.296 383.511 890.983 383.113 894.739 382.862C895.96 383.04 896.497 383.123 897.686 383.482C900.343 384.916 906.881 386.573 909.918 386.332C906.759 389.344 905.447 389.718 901.601 391.434C899.646 391.173 897.866 390.938 895.901 390.737C893.737 389.97 888.605 389.127 886.301 389.143C883.7 387.299 880.295 387.389 878.35 385.863C880.372 385.073 880.408 385.209 881.656 383.575Z"/><path fill="#235936" d="M855.536 390.004C858.732 389.606 863.587 387.297 867.021 386.417C872.401 385.039 875.917 383.637 881.656 383.575C880.408 385.209 880.372 385.073 878.35 385.863C877.28 385.738 874.172 386.195 872.686 386.178L872.089 386.639C870.257 388.136 863.036 390.49 860.611 390.804L859.859 390.355C853.377 392.957 848.27 396.636 842.548 400.646C842.376 402.151 837.907 402.369 838.716 400.491C839.875 397.804 854.552 391.724 855.536 390.004Z"/><path fill="#7BAC97" d="M859.859 390.355C861.268 389.643 871.558 386.264 872.686 386.178L872.089 386.639C870.257 388.136 863.036 390.49 860.611 390.804L859.859 390.355Z"/><path fill="#0D5224" d="M916.831 379.685C915.545 381.23 913.003 384.649 910.743 384.689C909.605 384.709 909.83 385.656 909.918 386.332C909.885 386.223 909.522 384.832 909.368 384.8C905.839 384.066 901.301 383.68 897.686 383.482C896.497 383.123 895.96 383.04 894.739 382.862C901.353 381.892 908.11 382.027 914.729 380.255L916.831 379.685Z"/><path fill="#235936" d="M746.041 505.762C756.495 501.581 761.902 498.023 773.736 494.111L774.738 495.258C769.04 497.825 756.494 502.356 751.869 505.947C743.323 509.682 735.539 516.132 728.826 522.442C726.667 524.472 724.548 527.215 721.518 525.437L721.422 524.264C725.868 518.421 739.299 510.217 746.041 505.762Z"/><path fill="#C5A128" d="M610.346 314.608L610.987 316.394C606.715 323.309 602.27 329.817 599.463 337.495C599 338.764 595.397 337.361 595.526 336.254C595.904 333.004 599.042 329.638 600.647 326.814C603.418 322.832 606.759 317.831 610.346 314.608Z"/><path fill="#F6F5E5" fill-opacity="0.98823529" d="M807.638 490.995C810.661 491.076 825.092 491.409 827.36 491.731C827.356 493.488 826.769 494.144 826.174 495.804C825.047 495.541 823.918 495.289 822.786 495.048C822.672 492.119 819.294 492.767 817.526 493.88C815.112 493.503 809.892 491.98 807.638 490.995Z"/><path fill="#FEFEFE" fill-opacity="0.05882353" d="M799.288 506.226C799.246 504.821 799.102 504.589 799.635 503.252C799.069 503.199 798.968 503.235 798.49 502.968C798.347 502.658 798.356 502.819 798.476 502.487C799.002 502.147 799.169 502.23 799.89 502.208C805.529 503.224 808.546 503.382 814.293 503.621C812.966 503.934 811.625 504.175 810.278 504.382C809.091 504.17 805.257 503.573 804.447 504.324C804.461 505.073 805.893 505.844 806.354 506.183C806.474 507.353 806.461 507.253 805.99 508.377C803.614 507.687 801.607 506.985 799.288 506.226Z"/><path fill="#F6F5E5" fill-opacity="0.98823529" d="M508.699 233.691C510.841 235.594 517.615 241.317 518.777 243.419C517.16 245.413 517.682 245.69 517.03 248.205C515.491 246.072 515.036 243.725 513.801 241.652C512.226 239.01 510.372 236.295 508.699 233.691Z"/><path fill="#FEFEFE" fill-opacity="0.28627452" d="M788.913 499.708C791.894 500.304 797.126 501.245 799.89 502.208C799.169 502.23 799.002 502.147 798.476 502.487C798.356 502.819 798.347 502.658 798.49 502.968C798.968 503.235 799.069 503.199 799.635 503.252C799.102 504.589 799.246 504.821 799.288 506.226L789.97 501.879L788.913 499.708Z"/><path fill="#FEFEFE" fill-opacity="0.035294119" d="M517.03 248.205C517.682 245.69 517.16 245.413 518.777 243.419C519.748 244.562 520.718 245.599 521.686 246.766C518.469 250.07 520.883 249.086 519.835 254.161L519.047 253.092C517.684 250.933 517.985 250.426 517.03 248.205Z"/><path fill="#FEFEFE" fill-opacity="0.027450981" d="M886.301 389.143C888.605 389.127 893.737 389.97 895.901 390.737C894.625 391.634 895.572 392.472 894.654 394.242C891.115 392.257 889.262 391.993 886.301 389.143Z"/><path fill="#D7E5DA" fill-opacity="0.98431373" d="M897.686 383.482C901.301 383.68 905.839 384.066 909.368 384.8C909.522 384.832 909.885 386.223 909.918 386.332C906.881 386.573 900.343 384.916 897.686 383.482Z"/><path fill="#E5A71B" fill-opacity="0.3137255" d="M494.655 288.201C496.39 284.572 496.286 286.001 500.028 288.074C498.8 288.878 497.783 289.444 496.505 290.151C495.242 289.857 495.252 289.355 494.655 288.201Z"/><path fill="#FEFEFE" fill-opacity="0.97647059" d="M784.592 184.972C785.338 185.312 785.963 185.439 786.769 185.623C786.86 186.221 784.461 189.59 783.95 190.131L782.615 188.289C782.847 187.298 783.663 185.479 784.592 184.972Z"/><path fill="#FEFEFE" fill-opacity="0.80784315" d="M817.526 493.88C819.294 492.767 822.672 492.119 822.786 495.048C820.753 494.745 819.456 494.529 817.526 493.88Z"/><path fill="#F9EABD" fill-opacity="0.98823529" d="M767.33 193.657C767.113 195.592 766.316 196.625 765.677 198.552L764.866 198.604C764.993 196.632 765.37 195.744 765.483 194.026L767.33 193.657Z"/><path fill="#EFCB75" fill-opacity="0.94901961" d="M612.019 312.32C612.527 312.52 613.033 312.726 613.537 312.937C612.662 314.074 611.824 315.229 610.987 316.394L610.346 314.608C610.889 313.825 611.519 313.135 612.019 312.32Z"/><path fill="#D7E5DA" fill-opacity="0.98823529" d="M782.568 498.071C784.878 498.576 786.642 498.957 788.913 499.708L789.97 501.879C787.156 500.543 785.284 499.534 782.568 498.071Z"/><path fill="#FEFEFE" fill-opacity="0.45882353" d="M806.354 506.183C805.893 505.844 804.461 505.073 804.447 504.324C805.257 503.573 809.091 504.17 810.278 504.382C808.199 505.073 808.095 505.002 806.354 506.183Z"/><path fill="#FBF9DA" fill-opacity="0.98431373" d="M779.518 206.812C780.961 205.85 782.411 205.454 783.97 206.463C782.931 208.227 781.343 207.222 779.518 206.812Z"/><path fill="#FEFEFE" fill-opacity="0.35294119" d="M782.615 188.289L783.95 190.131C783.503 190.822 783.065 191.52 782.636 192.224L781.05 191.517C781.567 190.399 782.044 189.382 782.615 188.289Z"/><path fill="#C5A128" fill-opacity="0.96078432" d="M693.086 221.529C694.548 219.006 694.379 220.762 694.863 222.639L693.086 221.529Z"/></svg>