<?xml version="1.0" encoding="utf-8" ?><svg xmlns="http://www.w3.org/2000/svg" xmlns:xlink="http://www.w3.org/1999/xlink" width="1024" height="1024" viewBox="0 0 1024 1024"><path fill="#DE7226" d="M775.697 660.816C823.504 711.105 883.709 749.276 944.312 782.09C947.939 785.46 945.932 792.951 943.192 795.458C936.153 802.149 922.254 790.758 915.764 786.714C870.512 758.52 827.985 723.559 792.42 683.774C787.045 677.761 779.351 668.769 774.943 662.059L775.697 660.816Z"/><path fill="#DE7226" d="M888.024 408.849C912.084 389.063 933.638 366.443 953.782 342.723C960.618 334.674 966.4 325.098 973.676 317.549C975.547 315.609 977.219 314.073 980.066 314.255C982.302 314.397 984.682 315.492 986.11 317.241C987.559 319.015 987.988 321.253 987.601 323.48C985.959 332.935 937.855 373.846 927.796 381.717C915.328 391.307 902.555 400.493 889.496 409.262L889.032 409.567L888.024 408.849Z"/><path fill="#DC9656" fill-opacity="0.9254902" d="M774.943 662.059C774.752 661.794 772.354 658.744 772.89 658.463C773.612 658.575 775.122 660.259 775.697 660.816L774.943 662.059Z"/><path fill="#E1A76F" fill-opacity="0.78039217" d="M888.024 408.849L889.032 409.567C885.836 411.977 883.851 412.448 888.024 408.849Z"/><path fill="#7A6F67" d="M362.005 251.347C362.541 237.755 360.91 182.854 368.708 175.529C369.73 174.568 370.975 174.047 372.387 174.089C375.348 174.177 378.085 176.641 379.903 178.755C385.014 184.695 388.814 191.712 393.964 197.665C419.674 227.384 452.576 248.302 491.627 255.266C503.681 256.65 517.418 257.309 529.929 258.546C522.737 251.822 512.608 248.416 502.983 247.26C517.653 245.907 527.129 246.233 541.463 251.43C545.256 252.805 550.486 255.418 554.066 256.546C550.038 249.608 545.207 244.882 538.488 240.334C553.568 243.565 571.184 251.99 582.096 262.938C580.453 256.825 579.785 254.598 575.56 249.692C583.775 255.323 592.807 262.18 598.44 270.535C599.39 265.021 598.989 262.468 597.328 257.015C602.822 262.705 611.81 273.048 614.848 280.361L615.703 280.905C616.698 279.348 615.409 276.09 614.85 274.389C619.698 277.89 623.491 282.724 627.77 286.085C636.699 293.101 639.032 298.429 642.18 309.182C646.21 321.333 661.863 327.188 673.776 324.919C685.293 323.353 694.046 316.671 705.223 314.437C713.882 312.688 724.897 315.384 732.903 314.614C741.393 313.798 751.337 311.763 760.113 310.574C777.011 308.158 794.023 306.62 811.08 305.968C823.819 302.847 838.478 297.824 849.534 307.846C864.552 321.196 856.177 332.222 849.419 346.212C848.342 348.442 846.926 356.986 846.354 359.847C843.415 376.792 836.308 394.365 825.037 407.485C821.322 413.753 816.424 418.296 809.829 421.488L809.944 419.533C808.89 419.797 803.447 422.295 801.727 422.984C795.337 425.542 788.767 427.548 782.409 429.909C782.606 425.151 782.815 416.793 781.878 412.294C766.184 414.111 759.904 416.751 746.514 425.736C746.755 427.566 750.22 440.697 750.989 442.663C734.009 446.638 715.481 452.339 698.786 457.391C689.369 460.24 672.665 465.359 664.377 470.164C658.844 471.191 643.528 482.064 638.891 485.815C586.122 528.506 655.314 571.696 687.214 597.655C689.703 599.681 692.223 601.631 694.865 603.408C690.735 608.472 687.422 611.151 682.33 615.356C673.796 627.801 700.554 632.372 708.539 634.943C711.37 632.706 715.892 620.873 716.854 617.153C722.558 620.526 726.546 623.09 731.983 626.912C733.159 628.551 734.421 629.64 735.861 631.037C738.761 634.929 738.392 636.654 737.24 641.325C735.752 648.467 733.561 653.674 727.533 658.166C720.882 663.201 699.107 676.792 691.765 679.259C670.987 686.239 647.966 670.668 630.871 660.526C619.943 654.042 608.749 647.2 597.134 641.135C595.644 640.597 594.344 640.123 592.804 639.704C590.243 639.079 587.722 638.667 585.129 638.208C575.183 637.762 566.884 637.643 557.338 640.163C520.4 649.913 501.377 695.492 519.758 728.786C521.347 731.663 523.003 734.171 524.865 736.878C526.279 738.383 528.304 740.675 529.808 741.97C515.438 738.723 504.155 729.953 496.394 717.504C495.655 716.306 494.944 715.092 494.261 713.861C490.973 730.067 494.981 754.325 504.171 768.35C506.146 771.409 508.556 774.164 511.324 776.53C496.886 773.188 485.887 765.074 477.989 752.508C476.744 750.502 475.523 748.48 474.327 746.445C472.871 777.329 481.236 803.013 503.964 824.354L503.422 826.686C480.744 822.124 461.349 805.755 448.585 786.997C441.52 818.145 443.009 849.577 459.812 877.83C461.678 880.969 467.452 888.719 470.1 890.937L468.902 892.217C454.919 884.869 431.743 867.245 421.793 855.046C419.183 852.516 416.784 849.993 414.643 847.051C410.77 844.732 393.142 817.722 389.759 812.554C394.365 829.983 397.26 838.264 407.896 852.794C401.563 848.452 395.475 843.762 389.66 838.746C367.731 819.703 351.171 796.259 345.371 767.321C343.836 759.661 343.464 752.075 342.919 744.296C339.646 755.256 338.626 770.674 342.452 781.496C325.731 758.848 323.086 725.874 332.363 699.803C327.089 705.487 323.111 712.247 320.703 719.616C314.088 739.397 318.382 757.48 327.336 775.313C324.516 773.165 322.586 770.878 320.154 768.328C305.568 753.037 295.255 732.882 292.812 711.795C292.048 705.2 292.398 698.199 292.561 691.557C282.277 708.883 283.708 725.49 287.327 744.199C279.889 735.457 273.73 727.827 269.903 716.819C260.17 688.821 263.65 666.612 275.263 640.6C271.037 641.595 267.65 644.7 264.24 647.288C246.974 660.393 235.189 681.146 233.935 702.885C234.014 706.451 234.012 710.065 234.051 713.639C233.362 711.909 233.095 711.205 232.65 709.396C230.574 703.84 228.23 693.886 227.964 688.01C226.764 661.593 232.523 647.551 249.173 628.33C221.079 642.437 196.517 651.492 165.645 638.399C171.216 637.386 176.686 635.898 182.086 634.296C204.725 627.578 223.086 599.896 233.445 579.211C213.095 584.192 199.72 603.535 176.26 597.184C202.222 590.06 204.325 574.109 215.503 553.12C218.829 546.876 226.052 540.553 231.032 535.426C213.139 539.754 209.364 548.253 194.119 556.027C180.284 563.082 167.849 563.869 153.255 558.983C171.883 556.927 189.138 544.369 197.154 527.918C210.024 501.509 215.976 491.11 240.727 474.499C228.731 476.419 223.005 479.089 212.791 485.443C203.814 491.028 183.617 495.769 173.531 492.903C173.798 492.374 182.861 489.197 184.331 488.498C195.56 483.26 205.078 471.99 211.293 461.436C226.065 436.352 237.219 426.279 264.156 415.886C242.824 411.258 227.439 415.033 212.7 432.021C219.466 413.954 230.196 403.707 246.58 393.404C251.27 390.454 256.472 388.23 261.362 385.536C259.562 384.043 257.809 382.448 256.06 380.893C248.753 374.025 240.17 362.413 233.251 354.611C228.246 348.969 223.768 344.504 218.665 339.052C225.366 340.398 229.685 342.684 236.2 344.567C231.3 335.608 220.141 319.862 212.881 313.226C220.557 315.948 227.791 319.781 234.354 324.603C227.895 309.674 219.841 295.589 211.526 281.64C221.815 287.955 224.587 289.681 233.24 297.739C227.001 286.3 220.47 276.165 216.198 263.65C212.42 247.682 211.065 231.238 212.176 214.867C212.892 204.704 217.133 171.423 236.734 180.031C243.267 182.9 254.775 196.25 260.779 201.449C289.676 226.473 321.309 245.937 359.99 250.822L362.005 251.347Z"/><path fill="#DC9656" d="M811.08 305.968C823.819 302.847 838.478 297.824 849.534 307.846C864.552 321.196 856.177 332.222 849.419 346.212C848.342 348.442 846.926 356.986 846.354 359.847C843.415 376.792 836.308 394.365 825.037 407.485C821.322 413.753 816.424 418.296 809.829 421.488L809.944 419.533C808.89 419.797 803.447 422.295 801.727 422.984C795.337 425.542 788.767 427.548 782.409 429.909C782.606 425.151 782.815 416.793 781.878 412.294C766.184 414.111 759.904 416.751 746.514 425.736C746.755 427.566 750.22 440.697 750.989 442.663C734.009 446.638 715.481 452.339 698.786 457.391C689.369 460.24 672.665 465.359 664.377 470.164C658.844 471.191 643.528 482.064 638.891 485.815C586.122 528.506 655.314 571.696 687.214 597.655C689.703 599.681 692.223 601.631 694.865 603.408C690.735 608.472 687.422 611.151 682.33 615.356C673.796 627.801 700.554 632.372 708.539 634.943C711.37 632.706 715.892 620.873 716.854 617.153C722.558 620.526 726.546 623.09 731.983 626.912C733.159 628.551 734.421 629.64 735.861 631.037C738.761 634.929 738.392 636.654 737.24 641.325C735.752 648.467 733.561 653.674 727.533 658.166C720.882 663.201 699.107 676.792 691.765 679.259C670.987 686.239 647.966 670.668 630.871 660.526C619.943 654.042 608.749 647.2 597.134 641.135C595.644 640.597 594.344 640.123 592.804 639.704L593.042 638.529L594.232 637.859C570.367 613.81 527.5 594.449 493.852 595.506C453.702 596.767 425.347 610.816 397.714 639.04C404.477 618.265 407.919 611.09 422.197 594.865C406.848 598.788 394.437 608.472 383.578 619.695C380.013 623.379 376.832 627.467 373.143 630.995L372.705 631.407C382.34 614.616 391.774 602.388 392.731 582.092C381.105 598.769 370.766 608.06 349.044 608.243C332.011 608.387 319.01 601.493 307.077 589.657C327.146 596.51 350.32 588.922 364.841 574.093C372.551 566.219 380.648 555.484 384.055 544.869C365.488 555.162 348.531 560.796 328.566 550.257C329.798 549.647 329.899 549.629 331.255 549.273C364.018 552.462 387.728 524.251 401.719 498.003C380.012 509.689 362.456 514.581 346.248 491.44C362.904 498.19 380.681 496.314 393.901 484.112C409.572 469.649 414.855 463.642 435.675 457.163C419.587 453.751 410.049 453.869 394.278 458.715C392.69 459.319 392.547 459.394 390.787 459.675L390.699 459.152L392.057 457.817C407.657 440.633 430.687 430.388 453.725 428.563C450.585 426.989 441.477 424.139 437.247 422.487C420.645 416.002 410.529 409.872 396.822 398.812C406.286 402.855 415.313 406.013 425.504 407.571C439.874 409.769 466.081 405.462 477.589 396.609C470.113 396.118 462.845 395.277 455.541 393.555C466.503 386.954 475.911 384.153 488.698 383.005C516.835 380.479 544.508 383.294 560.483 409.044C573.586 380.828 589.579 391.937 613.399 382.388C620.302 379.62 624.215 370.283 631.862 365.416C646.355 356.193 666.173 359.082 681.976 362.428L682.726 361.497C706.54 332.059 731.659 318.465 769.496 314.581C772.211 314.303 785.917 313.132 787.644 314.55C790.21 314.6 808.826 307.555 811.08 305.968Z"/><path fill="#161313" d="M792.293 395.758C802.182 395.385 815.942 392.743 823.628 400.825C824.444 403.593 824.689 404.629 825.037 407.485C821.322 413.753 816.424 418.296 809.829 421.488L809.944 419.533C808.89 419.797 803.447 422.295 801.727 422.984C795.337 425.542 788.767 427.548 782.409 429.909C782.606 425.151 782.815 416.793 781.878 412.294C766.184 414.111 759.904 416.751 746.514 425.736C746.755 427.566 750.22 440.697 750.989 442.663C734.009 446.638 715.481 452.339 698.786 457.391C689.369 460.24 672.665 465.359 664.377 470.164C658.844 471.191 643.528 482.064 638.891 485.815C586.122 528.506 655.314 571.696 687.214 597.655C689.703 599.681 692.223 601.631 694.865 603.408C690.735 608.472 687.422 611.151 682.33 615.356C673.796 627.801 700.554 632.372 708.539 634.943C711.37 632.706 715.892 620.873 716.854 617.153C722.558 620.526 726.546 623.09 731.983 626.912C733.159 628.551 734.421 629.64 735.861 631.037C738.761 634.929 738.392 636.654 737.24 641.325C735.752 648.467 733.561 653.674 727.533 658.166C725.51 657.712 723.448 657.636 721.493 657.132C713.062 654.961 703.948 652.251 695.885 648.971L694.98 648.622C692.021 649.774 686.99 651.479 683.851 650.596C677.222 648.731 675.052 639.535 669.614 635.678C660.94 629.525 649.69 631.765 642.614 622.911C639.878 619.561 637.928 615.586 635.574 611.973C627.001 598.821 610.844 607.738 601.768 593.533C602.039 579.601 592.285 572.5 580.835 567.72C576.71 561.84 575.056 555.181 571.895 548.947C565.726 536.781 555.556 522.75 544.314 514.764C541.301 512.624 534.974 509.484 531.561 507.717C550.239 504.961 569.59 502.717 581.454 486.075C587.066 478.203 591.646 465.962 592.689 456.404C593.187 455.024 593.866 453.174 594.517 451.855C599.211 442.345 609.816 436.868 620.083 436.107C624.882 435.751 630.034 436.799 634.382 435.036C642.422 431.775 648.508 425.593 657.409 424.445C667.227 423.179 674.888 428.679 684.816 428.998C694.779 429.318 700.064 422.156 708.735 420.415C714.708 419.216 721.226 423.396 728.328 421.41C735.221 419.482 740.553 416.345 747.032 413.53C755.98 409.641 764.934 405.743 773.889 401.881C779.778 399.342 786.248 398.014 792.293 395.758Z"/><path fill="#50311B" d="M682.33 615.356C672.739 612.453 660.824 609.038 653.497 601.693C650.673 598.862 647.373 593.776 643.946 591.963C637.919 588.774 627.169 586.316 622.723 581.05C616.547 573.736 616.193 566.797 607.744 560.203C601.093 554.341 590.366 553.524 583.517 548.608C561.521 532.818 581.533 504.37 592.892 488.731C597.384 482.532 602.439 476.595 607.525 470.913C623.076 453.54 638.934 438.237 663.865 438.098C677.137 438.023 691.041 439.339 704.256 437.593C713.385 436.387 722.878 434.849 731.595 431.79C735.876 430.326 742.713 426.316 746.514 425.736C746.755 427.566 750.22 440.697 750.989 442.663C734.009 446.638 715.481 452.339 698.786 457.391C689.369 460.24 672.665 465.359 664.377 470.164C658.844 471.191 643.528 482.064 638.891 485.815C586.122 528.506 655.314 571.696 687.214 597.655C689.703 599.681 692.223 601.631 694.865 603.408C690.735 608.472 687.422 611.151 682.33 615.356Z"/><path fill="#50311B" d="M781.878 412.294C790.4 410.616 802.461 411.111 810.72 413.821L811.26 414.004C810.84 415.871 810.391 417.679 809.944 419.533C808.89 419.797 803.447 422.295 801.727 422.984C795.337 425.542 788.767 427.548 782.409 429.909C782.606 425.151 782.815 416.793 781.878 412.294Z"/><path fill="#50311B" d="M737.24 641.325C735.752 648.467 733.561 653.674 727.533 658.166C725.51 657.712 723.448 657.636 721.493 657.132C713.062 654.961 703.948 652.251 695.885 648.971L694.98 648.622C699.781 647.119 705.038 645.571 710.125 645.965C717.828 646.56 725.215 647.307 732.547 644.155C734.252 643.422 734.986 642.502 736.385 641.765L737.24 641.325Z"/><path fill="#50311B" d="M716.854 617.153C722.558 620.526 726.546 623.09 731.983 626.912C733.159 628.551 734.421 629.64 735.861 631.037C729.92 637.062 716.251 635.899 708.539 634.943C711.37 632.706 715.892 620.873 716.854 617.153Z"/><path fill="#161313" d="M811.08 305.968C823.819 302.847 838.478 297.824 849.534 307.846C864.552 321.196 856.177 332.222 849.419 346.212C848.342 348.442 846.926 356.986 846.354 359.847C844.155 359.153 842.283 361.138 838.841 360.251C834.129 359.038 828.268 352.132 824.199 352.427C813.4 350.451 801.422 338.865 798.643 328.231C794.134 327.364 781.29 324.45 782.866 318.318C784.287 316.632 784.954 316.46 786.973 315.408L787.644 314.55C790.21 314.6 808.826 307.555 811.08 305.968Z"/><path fill="#50311B" d="M811.08 305.968C823.819 302.847 838.478 297.824 849.534 307.846C842.487 307.795 837.606 306.818 830.529 309.073C815.495 313.862 802.008 330.88 786.973 315.408L787.644 314.55C790.21 314.6 808.826 307.555 811.08 305.968Z"/><path fill="#50311B" d="M504.805 507.532C545.006 506.865 569.036 486.907 592.689 456.404C591.646 465.962 587.066 478.203 581.454 486.075C569.59 502.717 550.239 504.961 531.561 507.717C534.974 509.484 541.301 512.624 544.314 514.764C555.556 522.75 565.726 536.781 571.895 548.947C575.056 555.181 576.71 561.84 580.835 567.72C592.285 572.5 602.039 579.601 601.768 593.533C597.494 588.825 593.049 580.598 588.142 575.539C583.957 571.223 580.249 571.033 577.044 568.236C569.56 561.703 564.228 555.271 555.695 549.696L556.514 548.621C560.378 549.788 564.553 551.591 568.332 553.118C556.073 525.045 533.879 514.353 505.167 508.858L504.805 507.532Z"/><path fill="#50311B" d="M824.199 352.427C828.268 352.132 834.129 359.038 838.841 360.251C842.283 361.138 844.155 359.153 846.354 359.847C843.415 376.792 836.308 394.365 825.037 407.485C824.689 404.629 824.444 403.593 823.628 400.825C815.942 392.743 802.182 395.385 792.293 395.758C805.481 383.38 816.295 368.695 824.199 352.427Z"/><path fill="#7B553B" d="M496.353 507.967C497.35 507.422 503.505 507.436 504.805 507.532L505.167 508.858C502.286 508.516 499.259 508.258 496.353 507.967Z"/><path fill="#C68248" d="M594.232 637.859L594.971 638.56C595.833 639.324 596.468 640.199 597.134 641.135C595.644 640.597 594.344 640.123 592.804 639.704L593.042 638.529L594.232 637.859Z"/><path fill="#7B553B" d="M555.695 549.696C555.291 549.393 554.34 548.901 554.259 548.305C554.742 547.86 555.959 548.44 556.514 548.621L555.695 549.696Z"/><path fill="#5D5148" d="M333.136 345.293C337.624 344.838 342.922 342.435 347.255 341.25C357.891 338.341 375.27 336.135 386.091 338.18C379.843 340.621 373.599 342.276 367.317 345.032C344.198 355.178 317.745 370.355 304.109 391.985C328.165 378.445 345.006 373.735 372.043 379.406C337.965 387.85 305.88 402.842 287.003 434.148C284.915 437.598 283.016 441.16 281.317 444.818C301.881 431.724 312.226 426.185 336.927 427.597C300.848 440.669 267.562 484.112 260.445 521.112C275.828 503.16 292.14 489.546 316.903 489.932C281.995 513.522 261.69 556.876 266.096 598.845C276.401 586.969 283.925 578.324 298.585 571.29C300.782 591.266 299.544 612.622 286.825 629.546C282.909 634.757 278.533 637.177 275.263 640.6C271.037 641.595 267.65 644.7 264.24 647.288C246.974 660.393 235.189 681.146 233.935 702.885C234.014 706.451 234.012 710.065 234.051 713.639C233.362 711.909 233.095 711.205 232.65 709.396C230.574 703.84 228.23 693.886 227.964 688.01C226.764 661.593 232.523 647.551 249.173 628.33C221.079 642.437 196.517 651.492 165.645 638.399C171.216 637.386 176.686 635.898 182.086 634.296C204.725 627.578 223.086 599.896 233.445 579.211C213.095 584.192 199.72 603.535 176.26 597.184C202.222 590.06 204.325 574.109 215.503 553.12C218.829 546.876 226.052 540.553 231.032 535.426C213.139 539.754 209.364 548.253 194.119 556.027C180.284 563.082 167.849 563.869 153.255 558.983C171.883 556.927 189.138 544.369 197.154 527.918C210.024 501.509 215.976 491.11 240.727 474.499C228.731 476.419 223.005 479.089 212.791 485.443C203.814 491.028 183.617 495.769 173.531 492.903C173.798 492.374 182.861 489.197 184.331 488.498C195.56 483.26 205.078 471.99 211.293 461.436C226.065 436.352 237.219 426.279 264.156 415.886C242.824 411.258 227.439 415.033 212.7 432.021C219.466 413.954 230.196 403.707 246.58 393.404C251.27 390.454 256.472 388.23 261.362 385.536C259.562 384.043 257.809 382.448 256.06 380.893C274.714 381.263 287.037 374.95 302.403 365.683C296.092 366.603 290.715 367.388 284.351 367.834C291.517 363.098 297.959 358.646 305.798 355.034C317.796 356.449 323.37 350.602 333.136 345.293Z"/><path fill="#52463B" d="M232.65 709.396C234.153 706.601 232.269 705.882 233.532 703.669L233.935 702.885C234.014 706.451 234.012 710.065 234.051 713.639C233.362 711.909 233.095 711.205 232.65 709.396Z"/><path fill="#DC9656" d="M216.198 263.65C212.42 247.682 211.065 231.238 212.176 214.867C212.892 204.704 217.133 171.423 236.734 180.031C243.267 182.9 254.775 196.25 260.779 201.449C289.676 226.473 321.309 245.937 359.99 250.822C357.708 251.938 355.435 252.367 352.925 252.64C344.9 253.511 337.985 256.041 330.516 258.92L337.556 260.116L338.078 261.023C334.557 262.165 325.861 264.721 323.173 266.664C344.516 274.332 364.838 281.006 369.955 306.132C356.564 315.82 346.407 325.897 329.799 326.267C318.388 327.573 309.164 325.023 298.931 320.333C309.341 336.915 322.681 340.587 341.479 337.432C338.615 340.802 336.658 342.546 333.136 345.293C323.37 350.602 317.796 356.449 305.798 355.034C297.959 358.646 291.517 363.098 284.351 367.834C290.715 367.388 296.092 366.603 302.403 365.683C287.037 374.95 274.714 381.263 256.06 380.893C248.753 374.025 240.17 362.413 233.251 354.611C228.246 348.969 223.768 344.504 218.665 339.052C225.366 340.398 229.685 342.684 236.2 344.567C231.3 335.608 220.141 319.862 212.881 313.226C220.557 315.948 227.791 319.781 234.354 324.603C227.895 309.674 219.841 295.589 211.526 281.64C221.815 287.955 224.587 289.681 233.24 297.739C227.001 286.3 220.47 276.165 216.198 263.65Z"/><path fill="#50311B" d="M251.268 233.601C254.086 235.843 256.758 238.234 259.451 240.623C277.723 256.832 297.471 271.936 315.681 288.138C303.925 286.943 296.068 283.938 285.119 279.666C296.78 289.385 302.686 294.976 315.378 303.668C305.383 303.428 301.54 302.68 292.273 299.296C304.849 314.046 310.715 321.551 329.799 326.267C318.388 327.573 309.164 325.023 298.931 320.333C309.341 336.915 322.681 340.587 341.479 337.432C338.615 340.802 336.658 342.546 333.136 345.293C323.37 350.602 317.796 356.449 305.798 355.034C284.647 344.664 274.338 312.648 267.026 291.537L265.423 292.017C265.34 294.911 265.294 297.961 265.139 300.841C249.675 282.149 241.167 256.774 251.268 233.601Z"/><path fill="#C68248" d="M265.423 292.017L265.498 290.034C265.514 289.658 265.521 289.264 265.727 288.948L265.817 288.904C266.318 289.124 266.855 291.089 267.026 291.537L265.423 292.017Z"/><path fill="#5D5148" d="M216.198 263.65C212.42 247.682 211.065 231.238 212.176 214.867C212.892 204.704 217.133 171.423 236.734 180.031C243.267 182.9 254.775 196.25 260.779 201.449C289.676 226.473 321.309 245.937 359.99 250.822C357.708 251.938 355.435 252.367 352.925 252.64C344.9 253.511 337.985 256.041 330.516 258.92L337.556 260.116L338.078 261.023C334.557 262.165 325.861 264.721 323.173 266.664C309.123 261.72 295.17 254.64 283.66 245.105C272.139 235.561 252.446 209.048 240.17 205.772C237.256 204.994 234.109 204.887 231.466 206.538C220.788 213.209 219.32 250.922 216.318 263.184C216.28 263.34 216.238 263.495 216.198 263.65Z"/><path fill="#DC9656" d="M448.693 731.283C451.318 712.021 455.372 694.931 464.603 677.507C476.57 654.916 496.587 633.014 521.767 625.622C541.812 619.737 566.703 624.235 584.856 634.2C587.286 635.508 590.62 637.419 593.042 638.529L592.804 639.704C590.243 639.079 587.722 638.667 585.129 638.208C575.183 637.762 566.884 637.643 557.338 640.163C520.4 649.913 501.377 695.492 519.758 728.786C521.347 731.663 523.003 734.171 524.865 736.878C526.279 738.383 528.304 740.675 529.808 741.97C515.438 738.723 504.155 729.953 496.394 717.504C495.655 716.306 494.944 715.092 494.261 713.861C490.973 730.067 494.981 754.325 504.171 768.35C506.146 771.409 508.556 774.164 511.324 776.53C496.886 773.188 485.887 765.074 477.989 752.508C476.744 750.502 475.523 748.48 474.327 746.445C472.871 777.329 481.236 803.013 503.964 824.354L503.422 826.686C480.744 822.124 461.349 805.755 448.585 786.997C441.52 818.145 443.009 849.577 459.812 877.83C461.678 880.969 467.452 888.719 470.1 890.937L468.902 892.217C454.919 884.869 431.743 867.245 421.793 855.046C419.183 852.516 416.784 849.993 414.643 847.051C416.614 847.984 416.788 849.388 417.894 847.948C397.426 806.171 393.031 762.501 407.299 717.874C408.512 736.857 413.329 755.323 425.443 770.445C424.133 735.657 428.583 709.679 444.359 678.097C445.008 678.979 445.041 678.945 445.325 679.931C442.772 696.297 442.366 715.673 448.693 731.283Z"/><path fill="#FBA74C" d="M524.865 736.878C518.22 734.765 509.709 724.381 506.051 718.561C479.551 676.396 509.867 631.638 557.454 631.41C566.678 631.365 571.801 632.352 580.834 634.618C582.613 634.74 583.208 634.922 584.856 634.2C587.286 635.508 590.62 637.419 593.042 638.529L592.804 639.704C590.243 639.079 587.722 638.667 585.129 638.208C575.183 637.762 566.884 637.643 557.338 640.163C520.4 649.913 501.377 695.492 519.758 728.786C521.347 731.663 523.003 734.171 524.865 736.878Z"/><path fill="#5D5148" d="M414.643 847.051C416.614 847.984 416.788 849.388 417.894 847.948C418.843 849.086 421.141 853.586 421.793 855.046C419.183 852.516 416.784 849.993 414.643 847.051Z"/><path fill="#50311B" d="M362.005 251.347C362.541 237.755 360.91 182.854 368.708 175.529C369.73 174.568 370.975 174.047 372.387 174.089C375.348 174.177 378.085 176.641 379.903 178.755C385.014 184.695 388.814 191.712 393.964 197.665C419.674 227.384 452.576 248.302 491.627 255.266C464.66 259.543 434.622 261.416 409.922 275.867C418.01 276.095 426.089 277.32 434.11 278.292C434.076 278.314 414.889 281.139 412.437 281.542C401.53 272.113 391.045 262.567 378.01 255.922C373.788 253.769 363.478 252.315 362.005 251.347Z"/><path fill="#C68248" d="M444.359 678.097C444.56 677.525 444.985 676.279 445.478 675.905C445.55 675.902 445.622 675.9 445.693 675.898C446.071 676.454 445.475 679.245 445.325 679.931C445.041 678.945 445.008 678.979 444.359 678.097Z"/><path fill="#C68248" d="M328.566 550.257C328.129 550.104 326.966 549.763 326.869 549.244C327.483 548.631 330.483 549.125 331.255 549.273C329.899 549.629 329.798 549.647 328.566 550.257Z"/><path fill="#52463B" d="M337.556 260.116C338.791 260.094 340.021 260.531 338.078 261.023L337.556 260.116Z"/><path fill="#DC9656" d="M581 329.449C583.113 329.53 584.003 329.642 586.03 329.889C592.039 331.771 598.109 335.169 603.715 338.149C614.57 342.912 627.338 337.82 636.615 331.779C633.706 337.314 631.056 340.586 625.903 344.165C624.877 344.877 622.246 346.485 621.436 347.202C614.72 356.584 588.305 372.055 575.6 368.973C569.85 367.578 563.826 365.06 558.016 363.653C551.681 361.89 522.63 359.189 519.02 356.685C513.401 359.065 504.11 365.103 498.742 368.608C507.675 356.93 516.581 346.058 532.041 344.062C545.323 342.346 551.038 344.338 561.733 335.133C567.082 331.846 569.508 331.725 575.152 329.892L576.327 329.887C576.8 330.257 577.275 330.624 577.754 330.987C578.629 330.781 579.353 330.643 580.233 330.489L581 329.449Z"/><path fill="#50311B" d="M581 329.449C583.113 329.53 584.003 329.642 586.03 329.889C592.039 331.771 598.109 335.169 603.715 338.149C614.57 342.912 627.338 337.82 636.615 331.779C633.706 337.314 631.056 340.586 625.903 344.165C624.877 344.877 622.246 346.485 621.436 347.202C604.62 353.317 576.47 349.556 559.177 345.33C559.925 341.476 561.039 339.386 562.924 336.101C562.454 335.745 562.172 335.523 561.733 335.133C567.082 331.846 569.508 331.725 575.152 329.892L576.327 329.887C576.8 330.257 577.275 330.624 577.754 330.987C578.629 330.781 579.353 330.643 580.233 330.489L581 329.449Z"/><path fill="#7B553B" d="M575.152 329.892L576.327 329.887C576.8 330.257 577.275 330.624 577.754 330.987C578.629 330.781 579.353 330.643 580.233 330.489C581.925 335.24 583.242 338.178 582.121 343.155C578.12 343.224 573.518 344.919 572.792 340.08C571.27 343.22 565.238 337.598 562.924 336.101C562.454 335.745 562.172 335.523 561.733 335.133C567.082 331.846 569.508 331.725 575.152 329.892Z"/><path fill="#161313" d="M575.152 329.892L576.327 329.887C576.8 330.257 577.275 330.624 577.754 330.987L576.998 331.531C570.753 335.943 571.924 333.059 572.792 340.08C571.27 343.22 565.238 337.598 562.924 336.101C562.454 335.745 562.172 335.523 561.733 335.133C567.082 331.846 569.508 331.725 575.152 329.892Z"/><path fill="#161313" d="M581 329.449C583.113 329.53 584.003 329.642 586.03 329.889C587.364 334.924 588.73 338.487 591.016 343.209C588.847 343.373 584.139 343.744 582.121 343.155C583.242 338.178 581.925 335.24 580.233 330.489L581 329.449Z"/><path fill="#161313" d="M561.733 335.133C562.172 335.523 562.454 335.745 562.924 336.101C561.039 339.386 559.925 341.476 559.177 345.33C545.454 353.485 534.646 349.52 519.02 356.685C513.401 359.065 504.11 365.103 498.742 368.608C507.675 356.93 516.581 346.058 532.041 344.062C545.323 342.346 551.038 344.338 561.733 335.133Z"/><path fill="#DC9656" d="M559.153 294.775C570.449 289.242 583.956 287.852 595.705 291.978C608.365 296.424 621.266 305.465 614.935 320.526C612.122 327.22 608.858 333 603.715 338.149C598.109 335.169 592.039 331.771 586.03 329.889C584.003 329.642 583.113 329.53 581 329.449L580.233 330.489C579.353 330.643 578.629 330.781 577.754 330.987C577.275 330.624 576.8 330.257 576.327 329.887L575.152 329.892C568.779 327.624 545.43 331.799 538.158 333.833L538.425 333.51L538.876 332.976C548.696 321.19 561.866 318.606 576.5 317.699C566.724 312.722 556.899 311.754 546.126 311.584C544.641 311.634 543.636 311.577 542.177 311.485L542.048 311.053L544.108 310.036C561.635 301.297 572.375 302.087 590.462 307.63C580.42 298.587 572.895 294.991 559.153 294.775Z"/><path fill="#50311B" d="M576.327 329.887C577.871 329.366 579.326 329.51 581 329.449L580.233 330.489C579.353 330.643 578.629 330.781 577.754 330.987C577.275 330.624 576.8 330.257 576.327 329.887Z"/><defs><linearGradient id="gradient_0" gradientUnits="userSpaceOnUse" x1="1040.1085" y1="596.35358" x2="616.76721" y2="550.3515"><stop offset="0" stop-color="#B25C1F"/><stop offset="1" stop-color="#DC7220"/></linearGradient></defs><path fill="url(#gradient_0)" d="M776.72 495.916C858.312 504.935 957.559 469.546 1024 423.186L1024 764.655C1015.04 764.026 991.069 757.003 982.255 754.053C930.679 737.359 881.885 713.059 837.485 681.956C805.514 659.429 774.46 630.434 736.557 619.178C734.765 621.076 733.124 624.504 731.983 626.912C726.546 623.09 722.558 620.526 716.854 617.153C715.892 620.873 711.37 632.706 708.539 634.943C700.554 632.372 673.796 627.801 682.33 615.356C687.422 611.151 690.735 608.472 694.865 603.408C692.223 601.631 689.703 599.681 687.214 597.655C655.314 571.696 586.122 528.506 638.891 485.815C643.528 482.064 658.844 471.191 664.377 470.164C683.012 473.249 701.428 477.537 719.509 483.002C725.19 484.675 741.573 490.757 745.871 491.297C744.939 493.647 744.15 495.688 743.359 498.109C743.038 498.678 742.973 498.789 742.73 499.363C742.335 500.263 739.736 507.77 739.982 507.403L739.946 507.4L739.923 507.342C739.316 508.487 739.438 508.433 738.414 509.237C738.686 510.026 739 510.752 739.32 511.52C742.2 509.354 746.17 507.875 747.122 504.205L747.68 504.805C749.726 504.345 756.577 495.874 758.373 493.807C761.266 494.472 764.057 494.853 766.987 495.296C768.199 495.463 769.414 495.616 770.63 495.755L771.387 496.337C771.009 498.454 769.352 501.015 768.261 502.984C771.153 500.44 773.669 498.254 776.72 495.916ZM900.656 666.23C904.037 665.024 905.828 661.332 904.683 657.93C903.538 654.528 899.878 652.671 896.456 653.755C894.188 654.474 892.484 656.362 892 658.691C891.516 661.021 892.327 663.431 894.122 664.994C895.916 666.556 898.414 667.029 900.656 666.23ZM1009.09 467.773C1006.95 468.39 1005.32 470.112 1004.81 472.276C1004.31 474.44 1005.01 476.707 1006.66 478.204C1008.3 479.701 1010.62 480.193 1012.73 479.491C1015.9 478.435 1017.64 475.038 1016.65 471.847C1015.66 468.657 1012.3 466.846 1009.09 467.773ZM806.259 611.179C805.902 613.242 805.514 613.588 806.931 615.122C807.876 613.033 808.262 612.5 806.259 611.179ZM775.558 537.352C773.28 536.037 770.437 536.214 768.339 537.799C766.242 539.385 765.297 542.072 765.94 544.621C767.905 543.454 769.398 542.023 771.358 540.907C774.84 538.926 774.177 541.341 775.558 537.352ZM931.339 692.99C930.208 696.162 931.617 699.679 934.625 701.193C937.634 702.707 941.299 701.743 943.172 698.944C945.045 696.146 944.54 692.39 941.994 690.185C940.858 689.201 939.422 688.63 937.92 688.563C934.992 688.434 932.323 690.23 931.339 692.99ZM900.491 563.423C900.887 566.381 903.214 568.707 906.172 569.102C909.13 569.496 911.986 567.861 913.143 565.111C914.3 562.36 913.472 559.175 911.121 557.336C909.004 555.68 906.094 555.47 903.76 556.806C901.427 558.142 900.134 560.758 900.491 563.423ZM998.675 728.851C996.206 729.124 994.433 731.359 994.729 733.826C995.024 736.293 997.274 738.045 999.738 737.728C1002.17 737.415 1003.9 735.199 1003.61 732.762C1003.31 730.326 1001.11 728.58 998.675 728.851ZM1007.25 624.951C1010.41 622.703 1011.55 621.528 1006.59 621.92C1006.16 623.094 1005.01 625.028 1006.09 626.021C1006.75 625.883 1006.91 625.505 1007.25 624.951Z"/><path fill="#E5D8BF" d="M694.865 603.408C706.324 590.828 715.396 567.674 717.245 550.741C724.128 565.161 723.468 577.715 722.313 593.152C720.224 602.247 719.825 607.547 716.854 617.153C715.892 620.873 711.37 632.706 708.539 634.943C700.554 632.372 673.796 627.801 682.33 615.356C687.422 611.151 690.735 608.472 694.865 603.408Z"/><path fill="#BEAB90" d="M722.313 593.152L722.983 593.904C731.338 586.933 736.119 560.575 738.397 549.864C745.532 568.136 746.152 585.779 741.378 604.757C740.498 608.255 738.465 616.219 736.557 619.178C734.765 621.076 733.124 624.504 731.983 626.912C726.546 623.09 722.558 620.526 716.854 617.153C719.825 607.547 720.224 602.247 722.313 593.152Z"/><path fill="#FCFBFA" d="M734.307 515.643C735.199 514.113 737.148 510.091 738.414 509.237C738.686 510.026 739 510.752 739.32 511.52C739.461 511.587 739.602 511.654 739.743 511.721L739.738 511.777C738.88 512.767 735.576 514.81 734.307 515.643Z"/><path fill="#E1A76F" d="M988.286 655.784C1001.56 653.216 1014.38 661.94 1016.87 675.226C1019.36 688.513 1010.56 701.286 997.259 703.695C984.07 706.083 971.428 697.373 968.96 684.199C966.493 671.024 975.127 658.33 988.286 655.784Z"/><path fill="#DE7226" d="M951.115 593.263C962.342 590.972 973.293 598.244 975.537 609.48C977.782 620.717 970.465 631.637 959.219 633.835C948.039 636.02 937.196 628.755 934.965 617.584C932.733 606.413 939.953 595.54 951.115 593.263Z"/><path fill="#DC9656" d="M847.138 598.8C857.366 598.327 866.068 606.177 866.648 616.4C867.227 626.622 859.467 635.406 849.251 636.091C842.548 636.54 836.12 633.354 832.417 627.748C828.715 622.142 828.309 614.98 831.354 608.991C834.4 603.003 840.427 599.111 847.138 598.8Z"/><path fill="#DE7226" d="M828.567 533.842C837.208 532.318 845.455 538.07 847.011 546.705C848.568 555.341 842.848 563.609 834.218 565.199C825.542 566.797 817.219 561.039 815.654 552.357C814.09 543.674 819.879 535.374 828.567 533.842Z"/><path fill="#C68248" d="M998.535 551.371C1006.78 549.416 1015.06 554.491 1017.05 562.727C1019.05 570.962 1014.02 579.264 1005.79 581.302C997.506 583.354 989.132 578.277 987.121 569.982C985.11 561.687 990.23 553.339 998.535 551.371Z"/><path fill="#C68248" d="M963.927 489.364C971.819 488.742 978.754 494.557 979.518 502.436C980.281 510.315 974.591 517.354 966.727 518.258C961.513 518.858 956.381 516.597 953.305 512.344C950.229 508.091 949.688 502.509 951.89 497.745C954.093 492.981 958.695 489.776 963.927 489.364Z"/><path fill="#FBA74C" d="M691.344 516.771C696.069 515.557 700.884 518.403 702.098 523.128C703.313 527.853 700.466 532.668 695.741 533.881C691.016 535.095 686.203 532.249 684.989 527.524C683.775 522.8 686.62 517.986 691.344 516.771Z"/><path fill="#FBA74C" d="M890.963 517.56C903.94 516.662 906.208 529.576 897.417 534.264L896.631 534.712C885.875 536.452 881.373 524.131 890.963 517.56Z"/><path fill="#FBA74C" d="M943.638 538.293C947.48 537.452 951.28 539.87 952.144 543.707C953.008 547.544 950.612 551.358 946.78 552.244C942.917 553.138 939.064 550.717 938.193 546.849C937.322 542.981 939.765 539.142 943.638 538.293Z"/><path fill="#DC9656" d="M790.603 589.027C793.955 588.414 797.185 590.578 797.895 593.909C798.606 597.241 796.538 600.534 793.229 601.342C791 601.886 788.651 601.175 787.098 599.486C785.546 597.797 785.034 595.397 785.763 593.221C786.492 591.046 788.346 589.439 790.603 589.027Z"/><path fill="#DC9656" d="M649.005 512.867C657.626 513.004 660.293 521.474 652.612 525.679C648.061 526.186 645.015 524.25 644.856 519.249C644.763 516.325 646.993 514.616 649.005 512.867Z"/><path fill="#E1A76F" d="M1007.19 620.278C1010.02 619.367 1013.07 620.889 1014.04 623.706C1015.02 626.522 1013.56 629.6 1010.77 630.635C1008.9 631.325 1006.81 630.952 1005.3 629.662C1003.79 628.371 1003.1 626.364 1003.49 624.416C1003.88 622.469 1005.3 620.885 1007.19 620.278ZM1007.25 624.951C1010.41 622.703 1011.55 621.528 1006.59 621.92C1006.16 623.094 1005.01 625.028 1006.09 626.021C1006.75 625.883 1006.91 625.505 1007.25 624.951Z"/><path fill="#E1A76F" fill-opacity="0.88235295" d="M1006.59 621.92C1011.55 621.528 1010.41 622.703 1007.25 624.951C1006.91 625.505 1006.75 625.883 1006.09 626.021C1005.01 625.028 1006.16 623.094 1006.59 621.92Z"/><path fill="#E1A76F" d="M775.558 537.352C778.134 538.839 779.384 541.875 778.6 544.745C777.816 547.614 775.197 549.594 772.222 549.565C769.248 549.536 766.667 547.506 765.94 544.621C767.905 543.454 769.398 542.023 771.358 540.907C774.84 538.926 774.177 541.341 775.558 537.352Z"/><path fill="#E1A76F" fill-opacity="0.98431373" d="M911.121 557.336C913.472 559.175 914.3 562.36 913.143 565.111C911.986 567.861 909.13 569.496 906.172 569.102C903.214 568.707 900.887 566.381 900.491 563.423C900.784 563.794 901.618 564.225 902.054 564.484C904.71 563.903 904.375 560.466 907.97 560.326C910.345 560.233 910.326 559.281 911.121 557.336Z"/><path fill="#E1A76F" fill-opacity="0.98823529" d="M941.994 690.185C944.54 692.39 945.045 696.146 943.172 698.944C941.299 701.743 937.634 702.707 934.625 701.193C931.617 699.679 930.208 696.162 931.339 692.99C932.109 695.346 931.715 694.816 933.135 696.731C933.38 696.73 938.134 696.385 938.012 696.361C939.805 696.712 942.583 702.366 942.496 695.566C942.476 694.032 942.051 692.034 941.994 690.185Z"/><path fill="#FBA74C" d="M674.394 488.692C675.63 488.052 677.116 488.13 678.278 488.895C679.441 489.661 680.1 490.995 680 492.384C679.9 493.772 679.058 494.999 677.798 495.591C675.901 496.482 673.64 495.69 672.713 493.811C671.785 491.932 672.533 489.656 674.394 488.692Z"/><path fill="#E1A76F" fill-opacity="0.75294119" d="M900.491 563.423C900.134 560.758 901.427 558.142 903.76 556.806C906.094 555.47 909.004 555.68 911.121 557.336C910.326 559.281 910.345 560.233 907.97 560.326C904.375 560.466 904.71 563.903 902.054 564.484C903.341 562.587 903.954 562.103 903.505 559.822C901.435 561.328 901.279 562.127 902.054 564.484C901.618 564.225 900.784 563.794 900.491 563.423Z"/><path fill="#E1A76F" fill-opacity="0.89019608" d="M765.94 544.621C765.297 542.072 766.242 539.385 768.339 537.799C770.437 536.214 773.28 536.037 775.558 537.352C774.177 541.341 774.84 538.926 771.358 540.907C769.398 542.023 767.905 543.454 765.94 544.621Z"/><path fill="#E1A76F" fill-opacity="0.79607844" d="M937.92 688.563C939.422 688.63 940.858 689.201 941.994 690.185C942.051 692.034 942.476 694.032 942.496 695.566C942.583 702.366 939.805 696.712 938.012 696.361C938.134 696.385 933.38 696.73 933.135 696.731C934.811 695.765 941.171 692.396 939.012 690.653C938.555 690.284 938.304 689.212 937.92 688.563Z"/><path fill="#E1A76F" fill-opacity="0.71372551" d="M931.339 692.99C932.323 690.23 934.992 688.434 937.92 688.563C938.304 689.212 938.555 690.284 939.012 690.653C941.171 692.396 934.811 695.765 933.135 696.731C931.715 694.816 932.109 695.346 931.339 692.99Z"/><path fill="#FBA74C" d="M736.282 523.394C738.033 522.712 740.007 523.57 740.705 525.315C741.402 527.06 740.564 529.042 738.825 529.756C737.063 530.48 735.049 529.627 734.342 527.858C733.635 526.09 734.506 524.084 736.282 523.394Z"/><path fill="#FBA74C" d="M710.9 493.854C712.614 493.259 714.491 494.126 715.151 495.816C715.81 497.507 715.015 499.416 713.351 500.138C712.217 500.631 710.905 500.464 709.93 499.703C708.956 498.943 708.475 497.71 708.677 496.491C708.879 495.271 709.732 494.26 710.9 493.854Z"/><path fill="#E1A76F" d="M805.855 610.433C807.557 609.812 809.442 610.677 810.081 612.373C810.72 614.069 809.873 615.963 808.184 616.619C807.076 617.049 805.822 616.851 804.901 616.1C803.979 615.349 803.532 614.161 803.729 612.989C803.926 611.817 804.738 610.841 805.855 610.433ZM806.931 615.122C807.876 613.033 808.262 612.5 806.259 611.179C805.902 613.242 805.514 613.588 806.931 615.122Z"/><path fill="#E1A76F" fill-opacity="0.65098041" d="M806.259 611.179C808.262 612.5 807.876 613.033 806.931 615.122C805.514 613.588 805.902 613.242 806.259 611.179Z"/><path fill="#E1A76F" fill-opacity="0.64705884" d="M902.054 564.484C901.279 562.127 901.435 561.328 903.505 559.822C903.954 562.103 903.341 562.587 902.054 564.484Z"/><path fill="#DC9656" d="M763.354 692.962C768.968 699.087 774.131 705.567 779.802 711.527C794.793 727.191 810.391 742.262 826.561 756.707C885.273 810.091 948.159 853.951 1024 879.879L1024 928.544C940.657 886.945 870.908 823.967 810.561 753.857C794.6 735.313 776.109 713.922 762.33 693.703L763.354 692.962Z"/><path fill="#DC9656" d="M1024 322.772L1024 380.749C980.075 419.083 926.598 451.538 869.851 465.388C860.759 467.607 846.035 471.675 836.763 471.452C834.119 470.837 828.807 470.812 826.248 471.311L826.468 471.278L825.571 471.322C825.772 470.894 825.878 470.648 826.073 470.213C908.934 454.272 974.684 387.116 1024 322.772Z"/><defs><linearGradient id="gradient_1" gradientUnits="userSpaceOnUse" x1="1057.9221" y1="183.65999" x2="859.57788" y2="249.84001"><stop offset="0" stop-color="#A96530"/><stop offset="1" stop-color="#EA7B2F"/></linearGradient></defs><path fill="url(#gradient_1)" d="M895.138 357.811C912.184 338.435 924.751 318.976 938.532 297.464C970.703 247.246 991.982 193.829 1007.7 136.295C1011.2 123.632 1014.31 110.861 1017.01 98.002C1018.83 88.899 1020.98 73.4972 1024 65.2622L1024 177.847C1020.95 182.097 1014.57 198.409 1011.95 204.263C1007.4 214.459 1003.5 222.002 998.053 231.837C981.308 262.371 961.07 290.855 937.748 316.717C924.581 331.187 911.203 343.73 897.32 357.379L895.138 357.811Z"/><path fill="#E5D8BF" d="M746.514 425.736C759.904 416.751 766.184 414.111 781.878 412.294C782.815 416.793 782.606 425.151 782.409 429.909C782.369 432.262 782.628 439.492 782.087 441.043L781.747 441.066L781.608 441.84C778.755 455.269 774.009 468.224 767.513 480.318L766.72 481.785C765.452 483.809 764.397 485.671 763.044 487.674C759.788 492.032 763.078 492.486 766.987 495.296C764.057 494.853 761.266 494.472 758.373 493.807C756.577 495.874 749.726 504.345 747.68 504.805L747.122 504.205L746.448 504.118C746.907 502.492 748.838 496.529 747.011 495.677C746.638 495.503 743.93 497.767 743.359 498.109C744.15 495.688 744.939 493.647 745.871 491.297C749.707 482.377 754.735 450.622 750.989 442.663C750.22 440.697 746.755 427.566 746.514 425.736Z"/><path fill="#BEAB90" d="M782.409 429.909C788.767 427.548 795.337 425.542 801.727 422.984C803.447 422.295 808.89 419.797 809.944 419.533L809.829 421.488C809.156 426.437 808.861 432.51 807.916 437.246C804.582 453.961 797.421 470.205 787.458 484.029C784.35 488.342 778.877 492.809 776.72 495.916C773.669 498.254 771.153 500.44 768.261 502.984C769.352 501.015 771.009 498.454 771.387 496.337L770.63 495.755C770.96 495.165 771.36 494.287 772.135 494.185C773.217 493.285 774.012 491.031 774.537 489.732C774.762 488.949 774.993 488.168 775.231 487.389C775.467 486.806 775.694 486.22 775.913 485.63C780.126 473.193 782.606 462.902 782.486 449.608C782.456 446.322 782.54 444.998 781.608 441.84L781.747 441.066L782.087 441.043C782.628 439.492 782.369 432.262 782.409 429.909Z"/><path fill="#DE7226" d="M956.245 783.008C980.602 796.519 997.545 802.393 1024 810.391L1024 829.879C1003.52 822.487 967.238 801.849 956.245 783.008Z"/><path fill="#DE7226" d="M1024 253.61L1024 279.657C1015.66 290.599 1003.84 305.742 992.429 313.482C1000.79 287.293 1008.8 275.905 1024 253.61Z"/><path fill="#FCFBFA" fill-opacity="0.50196081" d="M763.044 487.674C763.791 487.687 765.191 487.882 765.749 487.858C770.643 487.645 770.873 484.752 774.537 489.732C774.012 491.031 773.217 493.285 772.135 494.185C771.36 494.287 770.96 495.165 770.63 495.755C769.414 495.616 768.199 495.463 766.987 495.296C763.078 492.486 759.788 492.032 763.044 487.674Z"/><path fill="#FCFBFA" fill-opacity="0.19215687" d="M766.72 481.785C768.944 481.655 773.236 482.42 774.402 484.659C774.978 485.763 774.531 486.041 775.231 487.389C774.993 488.168 774.762 488.949 774.537 489.732C770.873 484.752 770.643 487.645 765.749 487.858C765.191 487.882 763.791 487.687 763.044 487.674C764.397 485.671 765.452 483.809 766.72 481.785Z"/><path fill="#E5D8BF" fill-opacity="0.1882353" d="M742.73 499.363C744.97 502.266 743.539 503.528 746.448 504.118L747.122 504.205C746.17 507.875 742.2 509.354 739.32 511.52C739 510.752 738.686 510.026 738.414 509.237C739.438 508.433 739.316 508.487 739.923 507.342L739.946 507.4L739.982 507.403C739.736 507.77 742.335 500.263 742.73 499.363Z"/><path fill="#E5D8BF" fill-opacity="0.53333336" d="M743.359 498.109C743.93 497.767 746.638 495.503 747.011 495.677C748.838 496.529 746.907 502.492 746.448 504.118C743.539 503.528 744.97 502.266 742.73 499.363C742.973 498.789 743.038 498.678 743.359 498.109Z"/><path fill="#E1A76F" fill-opacity="0.98431373" d="M815.223 472.043C818.815 471.311 822.422 470.559 826.073 470.213C825.878 470.648 825.772 470.894 825.571 471.322L826.468 471.278L826.248 471.311C828.807 470.812 834.119 470.837 836.763 471.452C831.476 472.435 821.034 472.145 815.223 472.043Z"/><path fill="#FCFBFA" fill-opacity="0.06666667" d="M766.72 481.785L767.513 480.318C773.528 481.288 773.942 477.516 775.913 485.63C775.694 486.22 775.467 486.806 775.231 487.389C774.531 486.041 774.978 485.763 774.402 484.659C773.236 482.42 768.944 481.655 766.72 481.785Z"/><path fill="#E1A76F" fill-opacity="0.74509805" d="M895.138 357.811L897.32 357.379C895.44 359.139 893.193 361.033 891.238 362.781C892.181 361.324 893.763 358.867 895.138 357.811Z"/><path fill="#C68248" d="M503.964 824.354C504.544 824.82 506.991 826.273 506.718 827.088C506.328 827.307 503.849 826.757 503.422 826.686L503.964 824.354Z"/><path fill="#E1A76F" fill-opacity="0.92941177" d="M762.33 693.703C762.237 693.543 760.803 691.532 761.357 691.316C761.961 691.398 762.974 692.588 763.354 692.962L762.33 693.703Z"/><path fill="#DC9656" fill-opacity="0.95294118" d="M470.1 890.937C470.098 890.934 471.876 892.71 471.232 892.902C470.718 893.054 469.446 892.415 468.902 892.217L470.1 890.937Z"/></svg>