<?xml version="1.0" encoding="utf-8" ?><svg xmlns="http://www.w3.org/2000/svg" xmlns:xlink="http://www.w3.org/1999/xlink" width="1024" height="1024" viewBox="0 0 1024 1024"><path fill="#185B48" d="M427.341 267.457C429.715 251.533 434.57 238.994 442.905 225.548C446.857 219.171 477.063 175.988 484.477 182.844C493.792 191.458 503.303 221.423 507.516 233.747C509.41 233.931 514.3 234.404 515.771 235.585L519.449 233.392C530.136 225.374 540.736 217.24 551.248 208.993C558.069 203.546 565.335 197.443 572.483 192.409C573.726 191.533 574.227 191.776 575.65 191.816C578.984 193.767 580.17 197.267 581.05 201.004C586.394 223.67 582.885 243.241 578.061 265.173L578.555 265.88C580.779 269.026 584.122 272.318 586.357 275.53C593.695 286.074 601.192 300.561 601.767 313.669C601.96 318.06 600.677 325.9 600.001 330.402C607.81 334.793 618.792 341.526 626.388 345.368C638.66 331.705 645.868 324.995 660.489 313.463C661.344 305.386 662.203 296.741 665.163 288.894C672.183 270.377 684.056 253.786 696.867 238.848C700.336 234.803 711.134 222.351 716.077 230.416C725.499 245.791 730.952 265.674 735.623 282.912C740.116 283.054 745.914 283.588 750.151 283.537L754.006 279.736C768.993 268.437 783.733 256.856 798.726 245.574C803.023 242.341 805.915 238.735 811.155 241.746C817.398 259.81 814.951 293.447 808.418 311.195L808.033 312.528C816.979 322.942 832.098 345.022 831.551 359.348C831.421 362.74 829.104 370.967 828.092 374.625C831.748 376.35 835.252 378.432 838.725 380.498C853.945 389.549 869.471 398.294 884.398 407.819C887.795 409.523 896.912 413.516 892.633 419.295C888.476 424.91 880.142 433.997 874.89 438.718L872.215 441.489C871.246 442.056 870.009 442.911 868.99 443.163C862.861 451.497 852.862 457.662 842.777 459.18C835.208 460.319 808.372 455.321 801.425 453.163C807.664 468.06 812.588 486.717 811.876 503.015C811.973 512.245 811.506 517.83 810.382 526.911C810.587 540.736 811.258 553.972 805.878 567.089C803.274 562.133 801.415 559.624 798.326 555.077C793.144 572.473 789.333 585.657 779.447 601.546C776.181 606.794 770.789 612.662 768.292 617.608C772.696 632.369 768.81 662.104 763.323 677.1C762.686 678.84 758.466 687.738 759.127 689.369C759.267 689.716 759.773 689.896 759.77 691.371C757.558 688.212 754.747 696.15 753.663 698.15L753.208 698.792C752.782 699.408 752.328 699.995 751.858 700.579C751.072 702.571 750.293 706.836 750.217 708.989C747.661 718.907 745.953 730.961 744.046 741.251C742.522 749.469 739.865 760.09 738.723 768.057C737.064 776.349 735.479 784.656 733.968 792.976C739.55 793.217 744.319 793.541 749.802 794.608C770.18 798.575 787.21 815.764 790.975 836.247C770.388 836.085 749.493 835.893 728.921 836.036C727.369 836.059 725.817 836.07 724.266 836.068C695.664 835.692 666.391 836.017 637.738 836.032C636.653 831.343 635.897 825.372 635.156 820.533C629.107 823.633 616.482 827.106 609.73 828.903C577.823 837.48 545.903 842.294 512.82 840.362C504.448 839.873 494.272 838.34 486.175 838.19C474.761 837.98 454.183 838.247 443.316 841.32C455.594 849.76 501.149 856.527 517.476 854.745C518.389 854.645 518.778 854.303 519.42 853.794C521.824 857.195 522.401 851.894 525.388 857.539C522.28 860.112 507.07 859.902 502.678 860.069C461.836 861.631 420.884 854.946 382.723 840.28C379.076 838.879 370.658 835.6 366.945 835.165C364.087 836.123 338.571 835.677 333.962 835.685L280.55 835.933C278.921 836.007 277.358 835.988 275.731 835.987C256.698 835.979 231.956 836.638 213.39 835.772C216.613 814.562 235.934 797.802 256.564 794.476C259.997 793.922 263.496 793.498 266.949 793.074C266.772 790.373 266.398 787.114 265.998 784.426C264.45 774.025 263.939 762.944 262.115 752.632C261.545 741.768 259.446 727.326 258.249 716.107L250.982 648.649C249.16 639.043 249.178 627.277 247.234 618.103C246.556 617.647 244.804 615.189 244.186 614.442C234.753 603.045 232.426 591.551 228.354 577.889C225.856 569.51 223.291 561.958 221.06 553.216C218.252 557.019 218.129 556.567 219.236 561.034C217.809 561.671 218.519 561.426 216.737 561.287C214.895 562.103 213.907 564.453 212.836 566.304C209.906 556.386 207.989 547.283 208.197 536.864C208.339 529.797 208.815 523.997 208.525 516.867L208.427 512.544L208.275 510.398C208.341 508.023 208.342 505.658 208.37 503.282C208.687 483.771 212.942 468.784 220.399 451.165C215.043 452.691 208.592 453.699 203.352 455.275C180.721 462.082 173.546 458.026 157.568 442.22C155.808 441.541 155.029 440.994 153.408 439.99C147.441 432.922 117.797 412.035 138.882 406.259C144.539 402.484 152.61 397.955 158.579 394.396C171.429 386.631 184.385 379.043 197.444 371.635C196.258 366.765 195.255 363.899 194.351 358.682C191.572 342.644 207.378 321.708 217.207 309.157C216.645 305.065 214.732 298.938 213.776 294.392C210.566 279.135 209.675 263.98 212.13 248.53C212.635 245.356 213.554 241.284 216.224 239.426C220.415 238.695 222.003 239.686 225.582 242.362C237.463 251.244 249.098 260.659 260.88 269.689C264.853 272.733 270.468 277.878 274.47 280.358C275.99 281.167 278.824 282.564 280.08 283.559C281.443 284.352 285.906 283.484 287.697 283.255C294.179 265.673 297.939 244.191 309.343 228.78C313.572 223.288 320.506 228.584 323.594 232.331C341.949 254.606 362.984 279.472 362.397 309.771C372.769 320.112 379.287 326.744 388.535 338.065C394.492 327.091 403.853 317.657 412.376 308.598C401.164 312.691 397.861 313.906 388.103 320.755C390.539 308.91 405.18 289.932 413.601 280.784C417.227 276.845 422.925 272.229 426.924 267.913L427.341 267.457ZM631.565 797.275C627.664 799.269 623.568 800.898 619.563 802.668C617.709 803.27 615.789 804.163 613.976 804.915C611.164 805.978 606.289 807.93 603.586 808.598C602.578 808.912 601.721 809.192 600.697 809.439C598.861 809.873 597.057 810.432 595.297 811.113C594.925 811.225 594.553 811.338 594.181 811.45C592.44 811.606 589.638 812.344 587.994 812.984C587.717 813.091 587.438 813.194 587.157 813.291C585.902 813.59 585.013 813.775 583.753 814.011L581.256 814.499C579.889 814.773 577.238 815.676 575.762 816.131C578.723 815.986 581.758 815.238 584.509 816.119C585.864 816.553 587.67 816.17 589.045 815.978C591.36 815.871 595.54 815.096 597.588 813.964C599.062 813.507 600.489 813.315 602.003 812.983L604.428 812.458C606.416 812.162 609.38 811.23 611.339 810.543C614.662 809.615 620.415 808.144 623.516 806.901C626.566 805.806 629.621 804.869 632.682 803.832C632.336 801.661 631.85 799.452 631.565 797.275ZM388.103 320.755C397.861 313.906 401.164 312.691 412.376 308.598C403.853 317.657 394.492 327.091 388.535 338.065C379.287 326.744 372.769 320.112 362.397 309.771C362.984 279.472 341.949 254.606 323.594 232.331C320.506 228.584 313.572 223.288 309.343 228.78C297.939 244.191 294.179 265.673 287.697 283.255C285.906 283.484 281.443 284.352 280.08 283.559C278.824 282.564 275.99 281.167 274.47 280.358C270.468 277.878 264.853 272.733 260.88 269.689C249.098 260.659 237.463 251.244 225.582 242.362C222.003 239.686 220.415 238.695 216.224 239.426C213.554 241.284 212.635 245.356 212.13 248.53C209.675 263.98 210.566 279.135 213.776 294.392C214.732 298.938 216.645 305.065 217.207 309.157C207.378 321.708 191.572 342.644 194.351 358.682C195.255 363.899 196.258 366.765 197.444 371.635C184.385 379.043 171.429 386.631 158.579 394.396C152.61 397.955 144.539 402.484 138.882 406.259C117.797 412.035 147.441 432.922 153.408 439.99C155.029 440.994 155.808 441.541 157.568 442.22C173.546 458.026 180.721 462.082 203.352 455.275C208.592 453.699 215.043 452.691 220.399 451.165C212.942 468.784 208.687 483.771 208.37 503.282C208.342 505.658 208.341 508.023 208.275 510.398L208.427 512.544L208.525 516.867C209.335 518.56 209.951 522.994 210.315 525.045C218.321 515.264 224.405 508.941 233.195 499.928L233.253 500.752C235.83 536.046 250.715 568.767 277.706 592.081C277.521 584.684 277.293 578.797 278.433 571.399C282.361 545.91 302.862 524.803 319.612 506.189C319.327 513.185 319.017 522.518 318.046 529.267C323.894 522.988 330.342 516.728 335.991 510.33C349.312 495.24 360.28 478.227 368.525 459.866C374.305 470.456 377.992 476.799 378.104 488.938C384.217 481.746 387.993 475.847 391.911 467.344C400.585 448.523 399.165 419.826 391.539 400.836C412.44 408.142 416.861 412.099 430.683 427.74C441.509 439.991 443.247 441.799 452.16 455.98C459.605 462.44 463.629 468.523 468.929 476.576C470.747 473.535 473.259 467.657 473.708 464.185C474.407 463.236 474.568 463.156 475.468 462.345L475.76 461.994C479.139 457.862 499.115 425.863 505.04 436.083C508.567 442.168 512.493 456.96 515.888 464.36C515.446 465.339 515.338 465.504 514.724 466.409C515.236 467.739 516.123 469.382 516.819 470.666L517.458 469.255C519.968 469.458 523.41 469.57 525.639 470.606C527.495 468.785 529.212 467.157 531.334 465.625C540.703 458.191 551.054 450.032 560.521 442.802C563.476 440.807 569.767 434.146 572.212 438.072C579.302 447.866 579.437 467.127 578.992 478.645C588.532 456.473 608.544 428.114 625.889 411.486C627.482 409.574 628.02 408.955 630.192 408.419C628.959 412.26 627.817 416.13 626.767 420.025C621.853 447.749 626.017 467.651 644.743 489.567C646.824 476.804 648.02 472.114 654.332 460.316C663.48 483.773 686.077 512.743 704.908 529.629C704.25 522.644 703.545 514.328 703.448 507.313C718.988 524.462 739.845 547.768 743.686 570.954C744.787 577.598 744.561 584.593 744.457 591.341C767.511 571.758 785.469 538.634 787.813 508.401C788.003 505.838 788.098 503.268 788.095 500.698C799.512 510.56 802.21 514.635 809.888 526.722L810.382 526.911C811.506 517.83 811.973 512.245 811.876 503.015C812.588 486.717 807.664 468.06 801.425 453.163C808.372 455.321 835.208 460.319 842.777 459.18C852.862 457.662 862.861 451.497 868.99 443.163C870.009 442.911 871.246 442.056 872.215 441.489L874.89 438.718C880.142 433.997 888.476 424.91 892.633 419.295C896.912 413.516 887.795 409.523 884.398 407.819C869.471 398.294 853.945 389.549 838.725 380.498C835.252 378.432 831.748 376.35 828.092 374.625C829.104 370.967 831.421 362.74 831.551 359.348C832.098 345.022 816.979 322.942 808.033 312.528L808.418 311.195C814.951 293.447 817.398 259.81 811.155 241.746C805.915 238.735 803.023 242.341 798.726 245.574C783.733 256.856 768.993 268.437 754.006 279.736L750.151 283.537C745.914 283.588 740.116 283.054 735.623 282.912C730.952 265.674 725.499 245.791 716.077 230.416C711.134 222.351 700.336 234.803 696.867 238.848C684.056 253.786 672.183 270.377 665.163 288.894C662.203 296.741 661.344 305.386 660.489 313.463C645.868 324.995 638.66 331.705 626.388 345.368C618.792 341.526 607.81 334.793 600.001 330.402C600.677 325.9 601.96 318.06 601.767 313.669C601.192 300.561 593.695 286.074 586.357 275.53C584.122 272.318 580.779 269.026 578.555 265.88L578.061 265.173C582.885 243.241 586.394 223.67 581.05 201.004C580.17 197.267 578.984 193.767 575.65 191.816C574.227 191.776 573.726 191.533 572.483 192.409C565.335 197.443 558.069 203.546 551.248 208.993C540.736 217.24 530.136 225.374 519.449 233.392L515.771 235.585C514.3 234.404 509.41 233.931 507.516 233.747C503.303 221.423 493.792 191.458 484.477 182.844C477.063 175.988 446.857 219.171 442.905 225.548C434.57 238.994 429.715 251.533 427.341 267.457L426.924 267.913C422.925 272.229 417.227 276.845 413.601 280.784C405.18 289.932 390.539 308.91 388.103 320.755ZM678.097 772.854L677.957 773.362C675.814 780.902 679.687 776.431 684.986 774.678C687.369 774.033 691.068 768.341 690.681 767.49C688.774 763.297 679.005 771.712 678.097 772.854ZM538.746 530.226C540.119 530.189 541.205 529.051 541.179 527.677C541.153 526.304 540.025 525.208 538.651 525.223C537.261 525.238 536.15 526.382 536.176 527.772C536.202 529.162 537.356 530.264 538.746 530.226Z"/><path fill="#FEFBF9" fill-opacity="0.59607846" d="M613.976 804.915C615.789 804.163 617.709 803.27 619.563 802.668C619.776 803.475 622.791 806.363 623.516 806.901C620.415 808.144 614.662 809.615 611.339 810.543C613.739 805.747 616.34 808.394 613.976 804.915Z"/><path fill="#FEFBF9" fill-opacity="0.39215687" d="M613.976 804.915C616.34 808.394 613.739 805.747 611.339 810.543C609.38 811.23 606.416 812.162 604.428 812.458C606.088 809.036 604.778 811.308 603.877 809.267L603.586 808.598C606.289 807.93 611.164 805.978 613.976 804.915Z"/><path fill="#FEFBF9" fill-opacity="0.87843138" d="M587.157 813.291C587.438 813.194 587.717 813.091 587.994 812.984C589.638 812.344 592.44 811.606 594.181 811.45L595.06 811.91C596.124 812.456 597.619 812.414 597.322 813.697C597.386 813.899 597.372 813.828 597.588 813.964C595.54 815.096 591.36 815.871 589.045 815.978C588.407 814.647 588.455 813.86 587.157 813.291Z"/><path fill="#FEFBF9" fill-opacity="0.094117649" d="M603.586 808.598L603.877 809.267C604.778 811.308 606.088 809.036 604.428 812.458L602.003 812.983C600.489 813.315 599.062 813.507 597.588 813.964C597.372 813.828 597.386 813.899 597.322 813.697C597.619 812.414 596.124 812.456 595.06 811.91L594.181 811.45C594.553 811.338 594.925 811.225 595.297 811.113C597.057 810.432 598.861 809.873 600.697 809.439C601.721 809.192 602.578 808.912 603.586 808.598Z"/><path fill="#FEFBF9" fill-opacity="0.24313726" d="M587.157 813.291C588.455 813.86 588.407 814.647 589.045 815.978C587.67 816.17 585.864 816.553 584.509 816.119C581.758 815.238 578.723 815.986 575.762 816.131C577.238 815.676 579.889 814.773 581.256 814.499L583.753 814.011C585.013 813.775 585.902 813.59 587.157 813.291Z"/><path fill="#FBAC2A" d="M427.341 267.457C429.715 251.533 434.57 238.994 442.905 225.548C446.857 219.171 477.063 175.988 484.477 182.844C493.792 191.458 503.303 221.423 507.516 233.747C509.41 233.931 514.3 234.404 515.771 235.585L519.449 233.392C530.136 225.374 540.736 217.24 551.248 208.993C558.069 203.546 565.335 197.443 572.483 192.409C573.726 191.533 574.227 191.776 575.65 191.816C578.984 193.767 580.17 197.267 581.05 201.004C586.394 223.67 582.885 243.241 578.061 265.173L578.555 265.88C580.779 269.026 584.122 272.318 586.357 275.53C593.695 286.074 601.192 300.561 601.767 313.669C601.96 318.06 600.677 325.9 600.001 330.402C607.81 334.793 618.792 341.526 626.388 345.368C638.66 331.705 645.868 324.995 660.489 313.463C661.344 305.386 662.203 296.741 665.163 288.894C672.183 270.377 684.056 253.786 696.867 238.848C700.336 234.803 711.134 222.351 716.077 230.416C725.499 245.791 730.952 265.674 735.623 282.912C740.116 283.054 745.914 283.588 750.151 283.537L754.006 279.736C768.993 268.437 783.733 256.856 798.726 245.574C803.023 242.341 805.915 238.735 811.155 241.746C817.398 259.81 814.951 293.447 808.418 311.195L808.033 312.528C816.979 322.942 832.098 345.022 831.551 359.348C831.421 362.74 829.104 370.967 828.092 374.625C831.748 376.35 835.252 378.432 838.725 380.498C853.945 389.549 869.471 398.294 884.398 407.819C887.795 409.523 896.912 413.516 892.633 419.295C888.476 424.91 880.142 433.997 874.89 438.718L872.215 441.489C871.246 442.056 870.009 442.911 868.99 443.163C862.861 451.497 852.862 457.662 842.777 459.18C835.208 460.319 808.372 455.321 801.425 453.163C807.664 468.06 812.588 486.717 811.876 503.015C811.973 512.245 811.506 517.83 810.382 526.911L809.888 526.722C802.21 514.635 799.512 510.56 788.095 500.698C788.098 503.268 788.003 505.838 787.813 508.401C785.469 538.634 767.511 571.758 744.457 591.341C744.561 584.593 744.787 577.598 743.686 570.954C739.845 547.768 718.988 524.462 703.448 507.313C703.545 514.328 704.25 522.644 704.908 529.629C686.077 512.743 663.48 483.773 654.332 460.316C648.02 472.114 646.824 476.804 644.743 489.567C626.017 467.651 621.853 447.749 626.767 420.025C627.817 416.13 628.959 412.26 630.192 408.419C628.02 408.955 627.482 409.574 625.889 411.486C608.544 428.114 588.532 456.473 578.992 478.645C579.437 467.127 579.302 447.866 572.212 438.072C569.767 434.146 563.476 440.807 560.521 442.802C551.054 450.032 540.703 458.191 531.334 465.625C529.212 467.157 527.495 468.785 525.639 470.606C523.41 469.57 519.968 469.458 517.458 469.255L516.819 470.666C516.123 469.382 515.236 467.739 514.724 466.409C515.338 465.504 515.446 465.339 515.888 464.36C512.493 456.96 508.567 442.168 505.04 436.083C499.115 425.863 479.139 457.862 475.76 461.994L475.468 462.345C474.568 463.156 474.407 463.236 473.708 464.185C473.259 467.657 470.747 473.535 468.929 476.576C463.629 468.523 459.605 462.44 452.16 455.98C443.247 441.799 441.509 439.991 430.683 427.74C416.861 412.099 412.44 408.142 391.539 400.836C399.165 419.826 400.585 448.523 391.911 467.344C387.993 475.847 384.217 481.746 378.104 488.938C377.992 476.799 374.305 470.456 368.525 459.866C360.28 478.227 349.312 495.24 335.991 510.33C330.342 516.728 323.894 522.988 318.046 529.267C319.017 522.518 319.327 513.185 319.612 506.189C302.862 524.803 282.361 545.91 278.433 571.399C277.293 578.797 277.521 584.684 277.706 592.081C250.715 568.767 235.83 536.046 233.253 500.752L233.195 499.928C224.405 508.941 218.321 515.264 210.315 525.045C209.951 522.994 209.335 518.56 208.525 516.867L208.427 512.544L208.275 510.398C208.341 508.023 208.342 505.658 208.37 503.282C208.687 483.771 212.942 468.784 220.399 451.165C215.043 452.691 208.592 453.699 203.352 455.275C180.721 462.082 173.546 458.026 157.568 442.22C155.808 441.541 155.029 440.994 153.408 439.99C147.441 432.922 117.797 412.035 138.882 406.259C144.539 402.484 152.61 397.955 158.579 394.396C171.429 386.631 184.385 379.043 197.444 371.635C196.258 366.765 195.255 363.899 194.351 358.682C191.572 342.644 207.378 321.708 217.207 309.157C216.645 305.065 214.732 298.938 213.776 294.392C210.566 279.135 209.675 263.98 212.13 248.53C212.635 245.356 213.554 241.284 216.224 239.426C220.415 238.695 222.003 239.686 225.582 242.362C237.463 251.244 249.098 260.659 260.88 269.689C264.853 272.733 270.468 277.878 274.47 280.358C275.99 281.167 278.824 282.564 280.08 283.559C281.443 284.352 285.906 283.484 287.697 283.255C294.179 265.673 297.939 244.191 309.343 228.78C313.572 223.288 320.506 228.584 323.594 232.331C341.949 254.606 362.984 279.472 362.397 309.771C372.769 320.112 379.287 326.744 388.535 338.065C394.492 327.091 403.853 317.657 412.376 308.598C401.164 312.691 397.861 313.906 388.103 320.755C390.539 308.91 405.18 289.932 413.601 280.784C417.227 276.845 422.925 272.229 426.924 267.913L427.341 267.457ZM205.085 343.208C208.046 345.988 208.533 342.751 210.942 339.926C210.328 338.945 209.788 337.902 209.163 336.885C207.759 339.257 206.584 340.937 205.085 343.208ZM530.907 322.374L531.643 321.701C535.949 317.968 532.996 316.065 528.665 315.474C524.124 317.886 527.453 321.019 530.907 322.374ZM763.67 367.514C765.993 364.632 766.998 361.183 762.542 360.285L761.878 360.902C758.261 364.144 760.316 365.551 763.67 367.514ZM261.556 363.874C264.604 360.999 265.87 360.916 261.638 358.816L260.989 359.49C259.366 361.146 255.308 364.242 261.556 363.874Z"/><path fill="#185B48" d="M427.341 267.457C429.715 251.533 434.57 238.994 442.905 225.548C446.857 219.171 477.063 175.988 484.477 182.844C493.792 191.458 503.303 221.423 507.516 233.747C509.41 233.931 514.3 234.404 515.771 235.585L519.449 233.392C530.136 225.374 540.736 217.24 551.248 208.993C558.069 203.546 565.335 197.443 572.483 192.409C573.726 191.533 574.227 191.776 575.65 191.816C578.984 193.767 580.17 197.267 581.05 201.004C586.394 223.67 582.885 243.241 578.061 265.173L578.555 265.88C580.779 269.026 584.122 272.318 586.357 275.53C593.695 286.074 601.192 300.561 601.767 313.669C601.96 318.06 600.677 325.9 600.001 330.402C607.81 334.793 618.792 341.526 626.388 345.368C638.66 331.705 645.868 324.995 660.489 313.463C661.344 305.386 662.203 296.741 665.163 288.894C672.183 270.377 684.056 253.786 696.867 238.848C700.336 234.803 711.134 222.351 716.077 230.416C725.499 245.791 730.952 265.674 735.623 282.912C740.116 283.054 745.914 283.588 750.151 283.537L754.006 279.736C768.993 268.437 783.733 256.856 798.726 245.574C803.023 242.341 805.915 238.735 811.155 241.746C817.398 259.81 814.951 293.447 808.418 311.195L808.033 312.528C816.979 322.942 832.098 345.022 831.551 359.348C831.421 362.74 829.104 370.967 828.092 374.625C831.748 376.35 835.252 378.432 838.725 380.498C853.945 389.549 869.471 398.294 884.398 407.819C882.579 408.626 882.015 408.274 880.002 408.05C878.437 407.875 876.802 407.668 875.256 407.406C870.309 406.568 864.027 406.706 859.82 409.799C859.334 410.157 858.831 410.34 858.281 410.533C854.499 407.625 844.848 402.17 840.471 399.554L797.389 374.336C797.528 366.143 797.503 361.777 795.387 353.773C788.781 328.778 764.829 331.1 750.03 346.744C746.979 349.969 745.058 352.869 742.582 356.738C732.901 358.772 725.796 360.24 717.264 365.697C699.897 376.805 688.388 393.028 682.457 412.597C687.931 409.429 693.605 406.62 699.442 404.186C693.141 423.019 696.692 438.779 709.27 454.145C708.403 455.303 707.874 455.954 706.848 456.962C688.377 447.444 683.626 444.178 669.633 429.352C666.657 433.017 662.974 437.647 660.539 441.6L660.278 440.82C653.31 419.357 658.68 397.598 668.48 378.158C664.095 379.858 656.781 381.945 652.123 383.414C652.619 382.297 655.462 378.744 656.26 377.761C667.776 363.585 657.499 361.112 644.257 361.03C638.187 360.993 634.608 360.878 629.101 364.203C625.917 361.772 615.293 356.276 611.315 354.099L585.956 340.075C578.362 335.95 569.847 331.591 562.675 326.902C562.448 316.014 561.486 302.83 553.122 294.749C548.885 290.65 543.17 288.44 537.278 288.622C523.141 289.111 513.07 301.327 508.776 313.755C491.553 316.039 471.004 329.513 460.909 343.482C454.194 352.774 451.298 358.889 448.043 369.792C455.577 365.608 459.696 363.746 467.92 360.982C459.106 383.221 463.475 394.899 478.307 412.385C478.843 414.778 479.261 415.331 476.85 416.169C462.836 409.76 446.289 400.299 437.279 387.428C433.293 392.039 431.01 395.876 427.864 401.045C420.819 376.882 428.529 353.502 440.051 332.468C424.967 337.721 409.733 344.275 397.084 354.383C397.066 354.397 389.295 356.816 388.606 357.039C403.663 371.89 419.372 387.107 420.718 409.249C401.422 393.344 379.886 383.872 356.141 376.571C367.067 398.091 369.254 416.464 363.539 439.912C360.632 435.519 357.81 431.033 354.433 426.997C342.471 443.042 326.261 452.411 308.446 460.967C313.681 455.848 318.182 450.029 321.821 443.675C329.46 430.052 330.219 417.823 326.028 402.958C331.178 405.15 336.147 407.747 340.887 410.724C334.297 382.621 310.805 358.497 281.457 355.493C267.821 330.08 234.067 321.422 228.105 357.485C227.426 361.589 227.56 365.853 227.585 370.006C222.246 374.064 214.417 378.208 208.696 381.823C195.288 390.295 180.959 398.353 167.761 407.079C157.477 404.111 155.946 404.425 144.495 405.556C141.214 405.88 142.312 406.605 138.882 406.259C144.539 402.484 152.61 397.955 158.579 394.396C171.429 386.631 184.385 379.043 197.444 371.635C196.258 366.765 195.255 363.899 194.351 358.682C191.572 342.644 207.378 321.708 217.207 309.157C216.645 305.065 214.732 298.938 213.776 294.392C210.566 279.135 209.675 263.98 212.13 248.53C212.635 245.356 213.554 241.284 216.224 239.426C220.415 238.695 222.003 239.686 225.582 242.362C237.463 251.244 249.098 260.659 260.88 269.689C264.853 272.733 270.468 277.878 274.47 280.358C275.99 281.167 278.824 282.564 280.08 283.559C281.443 284.352 285.906 283.484 287.697 283.255C294.179 265.673 297.939 244.191 309.343 228.78C313.572 223.288 320.506 228.584 323.594 232.331C341.949 254.606 362.984 279.472 362.397 309.771C372.769 320.112 379.287 326.744 388.535 338.065C394.492 327.091 403.853 317.657 412.376 308.598C401.164 312.691 397.861 313.906 388.103 320.755C390.539 308.91 405.18 289.932 413.601 280.784C417.227 276.845 422.925 272.229 426.924 267.913L427.341 267.457ZM205.085 343.208C208.046 345.988 208.533 342.751 210.942 339.926C210.328 338.945 209.788 337.902 209.163 336.885C207.759 339.257 206.584 340.937 205.085 343.208Z"/><path fill="#0F0E0F" d="M519.449 233.392C530.136 225.374 540.736 217.24 551.248 208.993C558.069 203.546 565.335 197.443 572.483 192.409C573.726 191.533 574.227 191.776 575.65 191.816C578.984 193.767 580.17 197.267 581.05 201.004C586.394 223.67 582.885 243.241 578.061 265.173C576.407 263.698 575.512 263.103 574.433 261.219C570.664 258.342 561.397 252.335 557.195 250.61C547.212 246.386 537.667 242.148 527.162 239.441C524.167 238.669 517.787 237.457 515.771 235.585L519.449 233.392Z"/><path fill="#124539" d="M519.449 233.392C530.136 225.374 540.736 217.24 551.248 208.993C558.069 203.546 565.335 197.443 572.483 192.409C573.726 191.533 574.227 191.776 575.65 191.816C569.859 201.278 562.399 211.345 556.223 220.695C553.258 225.183 545.885 236.745 542.525 239.855C536.203 237.998 526.733 235.096 520.301 234.179L519.449 233.392Z"/><path fill="#FBAC2A" d="M557.195 250.61C560.785 242.547 568.405 230.414 573.074 221.882C574.592 232.367 575.134 250.526 574.433 261.219C570.664 258.342 561.397 252.335 557.195 250.61Z"/><path fill="#0F0E0F" d="M216.224 239.426C220.415 238.695 222.003 239.686 225.582 242.362C237.463 251.244 249.098 260.659 260.88 269.689C264.853 272.733 270.468 277.878 274.47 280.358C275.99 281.167 278.824 282.564 280.08 283.559C267.244 286.413 255.572 289.422 243.519 294.732C241.644 295.559 236.861 297.946 235.241 297.731C235.018 297.267 234.765 296.871 234.687 296.399C229.808 296.771 221.981 304.217 218.414 307.093L217.207 309.157C216.645 305.065 214.732 298.938 213.776 294.392C210.566 279.135 209.675 263.98 212.13 248.53C212.635 245.356 213.554 241.284 216.224 239.426Z"/><path fill="#124539" d="M216.224 239.426C220.415 238.695 222.003 239.686 225.582 242.362C237.463 251.244 249.098 260.659 260.88 269.689C264.853 272.733 270.468 277.878 274.47 280.358C271.19 281.818 258.015 284.844 253.622 286.097C246.104 279.882 239.604 270.137 233.707 262.282L216.224 239.426Z"/><path fill="#FBAC2A" d="M219.213 269.411C223.7 276.228 231.617 287.074 235.477 294.494C235.722 294.966 234.935 296.02 234.687 296.399C229.808 296.771 221.981 304.217 218.414 307.093C218.682 294.5 218.844 282.062 219.213 269.411Z"/><path fill="#0F0E0F" d="M754.006 279.736C768.993 268.437 783.733 256.856 798.726 245.574C803.023 242.341 805.915 238.735 811.155 241.746C817.398 259.81 814.951 293.447 808.418 311.195L808.033 312.528C803.606 307.83 796.207 300.639 790.354 297.945C777.654 292.021 763.819 286.721 750.151 283.537L754.006 279.736Z"/><path fill="#124539" d="M754.006 279.736C768.993 268.437 783.733 256.856 798.726 245.574C803.023 242.341 805.915 238.735 811.155 241.746C808.683 245.381 805.46 248.612 802.764 252.326C794.647 263.51 786.431 274.275 779.397 286.188C771.526 284.047 761.996 281.287 754.006 279.736Z"/><path fill="#FBAC2A" d="M790.354 297.945C793.132 291.943 796.737 286.78 800.369 281.298C802.658 277.842 804.59 274.117 806.897 270.742C807.967 279.677 808.161 288.263 808.311 297.25C808.388 301.842 807.878 306.698 808.418 311.195L808.033 312.528C803.606 307.83 796.207 300.639 790.354 297.945Z"/><path fill="#FBAC2A" d="M708.44 240.836C708.962 240.882 709.459 240.898 709.963 241.078C715.77 243.146 735.585 291.375 738.823 299.848C731.549 300.112 726.438 301.28 719.538 303.411C714.732 292.175 707.517 272.693 704.129 261.176C701.248 267.85 699.351 273.106 697.593 280.154C694.4 293.148 693.951 304.359 696.09 317.454C689.823 321.358 684.645 324.426 678.664 328.797C675.229 318.913 674.299 308.331 675.956 298C678.636 281.233 688.473 264.381 698.829 251.216C701.571 247.731 704.88 243.424 708.44 240.836Z"/><path fill="#FBAC2A" d="M314.128 239.819C314.453 239.891 314.775 239.975 315.093 240.072C322.844 242.46 338.066 265.991 341.77 273.641C350.317 291.292 351.931 308.227 345.746 326.739C340.535 322.991 335.235 319.371 329.849 315.88C331.701 302.078 331.27 291.683 328.189 278.186C326.312 271.793 323.378 265.2 320.802 258.986C316.6 272.256 310.368 288.219 305.632 301.533C297.972 299.284 293.221 297.974 285.164 297.124C290.113 285.943 307.325 247.455 314.128 239.819Z"/><path fill="#FBAC2A" d="M446.361 282.199C439.812 254.998 453.716 231.292 469.072 209.885C473.228 204.092 477.32 198.001 482.715 193.286C487.259 200.357 493.074 215.667 496.437 223.435C499.767 231.129 503.863 239.655 506.939 247.305C502.049 247.632 495.292 249.354 490.37 250.477C484.414 237.564 479.746 225.919 476.592 212.028C474.456 216.343 473.081 219.429 471.347 223.918C471.587 226.23 471.436 226.323 470.952 228.744L470.431 231.242C467.822 243.793 468.133 251.042 469.689 263.771C467.758 265.002 460.136 271.209 459.086 271.368C458.406 272.752 448.365 280.564 446.361 282.199Z"/><path fill="#0F0E0F" d="M471.347 223.918C471.587 226.23 471.436 226.323 470.952 228.744L470.431 231.242C467.822 243.793 468.133 251.042 469.689 263.771C467.758 265.002 460.136 271.209 459.086 271.368C458.933 265.816 459.689 260.655 460.864 255.239C461.089 254.158 461.333 253.081 461.595 252.008C464.03 242.381 467.293 232.982 471.347 223.918Z"/><path fill="#FBAC2A" d="M814.684 338.746C818.039 341.411 824.335 350.643 827.013 354.539C826.522 359.254 825.828 366.345 824.623 370.787L823.694 370.392C808.897 364.277 810.248 351.527 814.684 338.746Z"/><path fill="#FBAC2A" d="M583.155 294.342C584.147 295.366 586.179 298.516 587.275 299.911C590.628 304.13 594.391 308.005 598.511 311.478C596.481 315.166 594.563 318.544 592.772 322.364C592.533 323.002 592.199 323.629 591.4 323.2C576.845 315.391 578.238 307.279 583.155 294.342Z"/><path fill="#FBAC2A" d="M205.085 343.208C208.046 345.988 208.533 342.751 210.942 339.926C213.034 346.413 213.965 349.364 212.559 356.257C211.009 363.86 207.411 365.54 200.85 368.455C199.223 363.151 198.653 358.491 197.789 353.071C199.841 349.893 202.74 346.281 205.085 343.208Z"/><path fill="#FBAC2A" fill-opacity="0.80392158" d="M209.163 336.885C209.788 337.902 210.328 338.945 210.942 339.926C208.533 342.751 208.046 345.988 205.085 343.208C206.584 340.937 207.759 339.257 209.163 336.885Z"/><path fill="#0F0E0F" d="M501.794 392.052C518.714 395.842 537.148 398.626 554.224 401.982C566.082 404.312 578.21 407.11 590.042 409.169C605.715 412.271 610.507 409.744 625.099 404.134C627.098 404.454 629.183 404.139 629.549 405.966C630.224 405.845 630.63 405.773 631.294 405.7L630.192 408.419C628.02 408.955 627.482 409.574 625.889 411.486C608.544 428.114 588.532 456.473 578.992 478.645C579.437 467.127 579.302 447.866 572.212 438.072C569.767 434.146 563.476 440.807 560.521 442.802C554.434 436.622 546.516 430.429 539.92 424.552C527.513 413.496 515.151 401.934 501.794 392.052Z"/><path fill="#185B48" d="M590.042 409.169C605.715 412.271 610.507 409.744 625.099 404.134C627.098 404.454 629.183 404.139 629.549 405.966C613.637 410.493 590.594 423.534 578.086 434.358C581.738 425.216 585.85 417.929 590.042 409.169Z"/><path fill="#0F0E0F" d="M220.399 451.165C242.325 445.132 265.188 440.256 287.16 433.923C267.088 451.417 246.129 467.964 226.691 486.155C222.047 490.501 215.551 499.26 211.922 504.628C210.639 503.89 209.78 503.782 208.37 503.282C208.687 483.771 212.942 468.784 220.399 451.165Z"/><path fill="#0F0E0F" d="M737.594 438.583C742.636 439.921 749.955 441.133 755.285 442.255C765.227 444.423 775.151 446.671 785.056 449C789.493 450.034 797.507 451.694 801.425 453.163C807.664 468.06 812.588 486.717 811.876 503.015C809.831 507.213 811.928 510.237 810.447 515.147C804.875 494.956 786.998 480.683 771.82 467.745L737.594 438.583Z"/><path fill="#0F0E0F" d="M629.101 364.203C634.608 360.878 638.187 360.993 644.257 361.03C657.499 361.112 667.776 363.585 656.26 377.761C655.462 378.744 652.619 382.297 652.123 383.414C648.853 386.824 644.489 392.232 640.309 394.419C632.978 398.254 624.286 401.275 616.551 404.282C596.762 400.956 577.127 394.929 557.457 390.912C554.948 390.399 550.74 389.983 549.775 387.422L550.509 386.296C554.187 385.918 606.634 398.682 615.459 400.584C621.456 398.927 630.963 394.684 637.616 392.39C633.233 384.352 624.977 373.424 629.101 364.203Z"/><path fill="#0F0E0F" d="M138.882 406.259C142.312 406.605 141.214 405.88 144.495 405.556C155.946 404.425 157.477 404.111 167.761 407.079C180.816 417.609 156.874 434.653 156.426 438.659C155.399 439.057 154.419 439.553 153.408 439.99C147.441 432.922 117.797 412.035 138.882 406.259Z"/><path fill="#0F0E0F" d="M858.281 410.533C858.831 410.34 859.334 410.157 859.82 409.799C864.027 406.706 870.309 406.568 875.256 407.406C876.802 407.668 878.437 407.875 880.002 408.05C882.015 408.274 882.579 408.626 884.398 407.819C887.795 409.523 896.912 413.516 892.633 419.295C888.476 424.91 880.142 433.997 874.89 438.718C873.015 438.776 872.935 438.197 871.392 438.224C866.11 434.336 852.596 418.145 857.834 411.153L858.281 410.533Z"/><path fill="#0F0E0F" d="M180.963 445.864C200.327 439.702 220.912 435.994 240.392 430.049C241.823 429.612 243.359 429.654 244.81 429.94C245.835 430.854 245.583 430.277 245.732 431.633C244.141 433.566 188.557 447.237 181.064 449.699C174.408 447.358 164.352 443.773 157.568 442.22C155.808 441.541 155.029 440.994 153.408 439.99C154.419 439.553 155.399 439.057 156.426 438.659C165.357 440.618 172.315 442.484 180.963 445.864Z"/><path fill="#0F0E0F" d="M842.464 450.643C827.927 447.324 813.449 443.755 799.035 439.936C794.906 438.874 781.181 436.589 779.07 433.553L779.396 432.644C781.357 431.553 785.51 433.145 787.995 433.722C799.136 436.383 810.248 439.161 821.33 442.056C824.997 442.987 839.027 446.725 842.032 446.509C848.402 446.052 863.282 441.225 869.794 439.207L871.392 438.224C872.935 438.197 873.015 438.776 874.89 438.718L872.215 441.489C871.246 442.056 870.009 442.911 868.99 443.163C861.101 445.021 850.611 448.394 842.464 450.643Z"/><path fill="#191107" d="M810.447 515.147C811.928 510.237 809.831 507.213 811.876 503.015C811.973 512.245 811.506 517.83 810.382 526.911L809.888 526.722C810.162 523.441 810.465 518.358 810.447 515.147Z"/><path fill="#124539" d="M709.27 454.145C711.408 456.495 713.504 458.942 715.656 461.307C713.144 460.126 709.168 458.323 706.848 456.962C707.874 455.954 708.403 455.303 709.27 454.145Z"/><path fill="#124539" d="M625.099 404.134C629.932 402.841 634.32 399.517 631.294 405.7C630.63 405.773 630.224 405.845 629.549 405.966C629.183 404.139 627.098 404.454 625.099 404.134Z"/><path fill="#124539" d="M478.307 412.385C480.556 414.952 482.018 416.864 483.977 419.566C481.636 418.437 479.108 417.37 476.85 416.169C479.261 415.331 478.843 414.778 478.307 412.385Z"/><path fill="#0F0E0F" d="M208.37 503.282C209.78 503.782 210.639 503.89 211.922 504.628C211.344 505.719 210.825 506.822 210.13 507.845C209.298 508.855 208.956 509.276 208.275 510.398C208.341 508.023 208.342 505.658 208.37 503.282Z"/><path fill="#3D4518" d="M515.888 464.36C516.183 465.424 515.927 464.568 516.292 465.622C516.711 466.823 517.099 468.035 517.458 469.255L516.819 470.666C516.123 469.382 515.236 467.739 514.724 466.409C515.338 465.504 515.446 465.339 515.888 464.36Z"/><path fill="#3D4518" d="M473.708 464.185C473.077 460.15 473.592 455.19 475.468 462.345C474.568 463.156 474.407 463.236 473.708 464.185Z"/><path fill="#191107" d="M208.275 510.398C208.956 509.276 209.298 508.855 210.13 507.845C209.582 509.531 209.071 510.899 208.427 512.544L208.275 510.398Z"/><path fill="#0F0E0F" d="M534.348 301.201C534.259 301.166 535.855 301.744 536.015 302.014C540.82 310.176 545.352 319.624 549.376 328.202C549.388 328.338 549.214 328.683 549.099 328.746C546.115 330.388 544.483 326.909 543.39 325.694C538.279 325.818 534.324 325.921 529.254 324.936C521.205 322.063 518.5 318.681 511.342 314.577C519.412 314.087 528.295 312.923 536.482 312.143C535.087 307.515 533.268 305.187 534.348 301.201ZM530.907 322.374L531.643 321.701C535.949 317.968 532.996 316.065 528.665 315.474C524.124 317.886 527.453 321.019 530.907 322.374Z"/><path fill="#0F0E0F" d="M768.081 348.599C771.391 349.961 779.852 371.471 781.945 375.725C782.182 376.206 779.803 377.517 779.287 376.967C777.177 374.719 775.421 370.525 773.857 367.669C770.335 369.212 770.715 369.253 766.758 369.926C759.875 369.662 759.433 367.969 754.184 363.811C752.714 362.646 749.304 360.907 747.612 359.833L745.9 358.727C753.808 357.432 760.523 356.845 768.497 356.319L768.285 355.729C767.399 353.2 765.255 350.557 767.45 349.051L768.081 348.599ZM763.67 367.514C765.993 364.632 766.998 361.183 762.542 360.285L761.878 360.902C758.261 364.144 760.316 365.551 763.67 367.514Z"/><path fill="#0F0E0F" d="M254.76 347.504C259.079 348.967 257.134 349.308 255.492 354.516C260.509 354.923 273.061 355.336 277.35 356.773C275.392 357.871 273.465 358.841 271.636 360.159C266.378 363.948 265.787 366.831 259.055 367.6C258.528 367.457 258.001 367.317 257.472 367.18C255.21 366.614 253.192 365.973 250.984 365.205C248.771 368.18 247.221 371.318 244.996 374.102C244.669 374.511 242.276 373.116 242.448 372.749C246.383 364.346 250.793 356.019 254.76 347.504ZM261.556 363.874C264.604 360.999 265.87 360.916 261.638 358.816L260.989 359.49C259.366 361.146 255.308 364.242 261.556 363.874Z"/><path fill="#FEFBF9" fill-opacity="0.035294119" d="M261.638 358.816C265.87 360.916 264.604 360.999 261.556 363.874C255.308 364.242 259.366 361.146 260.989 359.49L261.638 358.816Z"/><path fill="#185B48" d="M603.513 588.735C604.338 588.086 609.217 585.919 610.463 585.34C645.118 611.187 667.448 633.649 674.642 679.597C675.165 682.941 675.607 686.578 675.617 689.969C676.609 691.063 676.762 691.327 677.345 692.686C679.577 691.231 683.094 687.841 685.009 685.884C685.122 683.475 686.715 683.468 686.945 680.692L688.643 678.906C690.247 678.516 695.461 675.288 697.255 674.297C720.515 661.445 742.35 645.016 760.695 625.785C762.758 623.622 764.719 621.047 766.916 619.08L767.661 618.424L768.292 617.608C772.696 632.369 768.81 662.104 763.323 677.1C762.686 678.84 758.466 687.738 759.127 689.369C759.267 689.716 759.773 689.896 759.77 691.371C757.558 688.212 754.747 696.15 753.663 698.15L753.208 698.792C752.782 699.408 752.328 699.995 751.858 700.579C751.072 702.571 750.293 706.836 750.217 708.989C747.661 718.907 745.953 730.961 744.046 741.251C742.522 749.469 739.865 760.09 738.723 768.057C737.064 776.349 735.479 784.656 733.968 792.976C739.55 793.217 744.319 793.541 749.802 794.608C770.18 798.575 787.21 815.764 790.975 836.247C770.388 836.085 749.493 835.893 728.921 836.036C727.369 836.059 725.817 836.07 724.266 836.068C695.664 835.692 666.391 836.017 637.738 836.032C636.653 831.343 635.897 825.372 635.156 820.533C634.296 816.891 633.247 807.856 632.682 803.832C632.336 801.661 631.85 799.452 631.565 797.275C627.662 769.169 622.724 740.482 618.046 712.486C616.824 705.17 613.912 681.315 611.748 675.47C610.849 671.506 606.631 662.378 604.712 658.411C593.421 635.063 580.104 614.826 565.744 593.45C580.425 596.659 591.495 601.004 603.513 588.735ZM684.986 774.678C687.369 774.033 691.068 768.341 690.681 767.49C688.774 763.297 679.005 771.712 678.097 772.854L677.957 773.362C675.814 780.902 679.687 776.431 684.986 774.678Z"/><path fill="#185B48" d="M768.292 617.608C772.696 632.369 768.81 662.104 763.323 677.1C762.686 678.84 758.466 687.738 759.127 689.369C759.267 689.716 759.773 689.896 759.77 691.371C757.558 688.212 754.747 696.15 753.663 698.15L753.208 698.792C752.782 699.408 752.328 699.995 751.858 700.579C751.072 702.571 750.293 706.836 750.217 708.989C747.661 718.907 745.953 730.961 744.046 741.251C742.522 749.469 739.865 760.09 738.723 768.057C737.064 776.349 735.479 784.656 733.968 792.976C739.55 793.217 744.319 793.541 749.802 794.608C770.18 798.575 787.21 815.764 790.975 836.247C770.388 836.085 749.493 835.893 728.921 836.036C727.219 819.196 712.676 803.918 697.057 798.618C696.089 794.083 696.028 786.019 695.404 781.103C693.594 766.854 693.151 748.207 690.702 734.353C688.939 719.134 687.352 700.779 685.009 685.884C685.122 683.475 686.715 683.468 686.945 680.692L688.643 678.906C690.247 678.516 695.461 675.288 697.255 674.297C720.515 661.445 742.35 645.016 760.695 625.785C762.758 623.622 764.719 621.047 766.916 619.08L767.661 618.424L768.292 617.608Z"/><path fill="#0F0E0F" d="M767.661 618.424C766.1 625.729 764.587 633.043 763.12 640.367C760.49 642.75 752.148 654.995 749.465 658.62C736.076 676.671 722.497 694.581 708.731 712.346C704.833 717.377 694.713 731.06 690.702 734.353C688.939 719.134 687.352 700.779 685.009 685.884C685.122 683.475 686.715 683.468 686.945 680.692L688.643 678.906C690.247 678.516 695.461 675.288 697.255 674.297C720.515 661.445 742.35 645.016 760.695 625.785C762.758 623.622 764.719 621.047 766.916 619.08L767.661 618.424Z"/><path fill="#F4973D" d="M768.292 617.608C772.696 632.369 768.81 662.104 763.323 677.1C762.686 678.84 758.466 687.738 759.127 689.369C759.267 689.716 759.773 689.896 759.77 691.371C757.558 688.212 754.747 696.15 753.663 698.15L753.208 698.792C752.782 699.408 752.328 699.995 751.858 700.579C752.165 695.626 754.677 684.582 755.732 679.2L763.12 640.367C764.587 633.043 766.1 625.729 767.661 618.424L768.292 617.608Z"/><path fill="#F4973D" d="M685.009 685.884C687.352 700.779 688.939 719.134 690.702 734.353C693.151 748.207 693.594 766.854 695.404 781.103C696.028 786.019 696.089 794.083 697.057 798.618C695.413 798.467 694.088 798.268 692.498 798.081L687.387 797.456C684.57 796.473 678.106 796.01 675.077 795.859C675.045 791.295 675.279 786.437 675.42 781.854C675.41 779.152 675.385 776.549 675.434 773.843C675.713 748.209 674.763 722.362 674.963 696.703C674.983 694.134 675.555 694.288 677.345 692.686C679.577 691.231 683.094 687.841 685.009 685.884ZM684.986 774.678C687.369 774.033 691.068 768.341 690.681 767.49C688.774 763.297 679.005 771.712 678.097 772.854L677.957 773.362C675.814 780.902 679.687 776.431 684.986 774.678Z"/><path fill="#FEFBF9" fill-opacity="0.27450982" d="M678.097 772.854C679.005 771.712 688.774 763.297 690.681 767.49C691.068 768.341 687.369 774.033 684.986 774.678C679.687 776.431 675.814 780.902 677.957 773.362L678.097 772.854Z"/><path fill="#FEFBF9" d="M675.434 773.843C676.355 773.53 677.191 773.205 678.097 772.854L677.957 773.362C675.814 780.902 679.687 776.431 684.986 774.678C685.239 774.819 685.705 775.017 685.895 775.29C685.641 776.267 676.826 780.983 675.42 781.854C675.41 779.152 675.385 776.549 675.434 773.843Z"/><path fill="#0F0E0F" d="M687.387 797.456L692.498 798.081C694.088 798.268 695.413 798.467 697.057 798.618C712.676 803.918 727.219 819.196 728.921 836.036C727.369 836.059 725.817 836.07 724.266 836.068C721.087 820.308 707.905 807.489 693.999 800.027C692.409 799.174 689.761 798.878 688.165 797.927L687.387 797.456Z"/><path fill="#F4973D" d="M611.748 675.47C613.912 681.315 616.824 705.17 618.046 712.486C622.724 740.482 627.662 769.169 631.565 797.275C627.664 799.269 623.568 800.898 619.563 802.668C617.709 803.27 615.789 804.163 613.976 804.915C611.164 805.978 606.289 807.93 603.586 808.598C602.578 808.912 601.721 809.192 600.697 809.439C598.861 809.873 597.057 810.432 595.297 811.113C594.925 811.225 594.553 811.338 594.181 811.45C592.44 811.606 589.638 812.344 587.994 812.984C587.717 813.091 587.438 813.194 587.157 813.291C585.902 813.59 585.013 813.775 583.753 814.011L581.256 814.499C579.889 814.773 577.238 815.676 575.762 816.131C578.723 815.986 581.758 815.238 584.509 816.119C585.864 816.553 587.67 816.17 589.045 815.978C591.36 815.871 595.54 815.096 597.588 813.964C599.062 813.507 600.489 813.315 602.003 812.983L604.428 812.458C606.416 812.162 609.38 811.23 611.339 810.543C614.662 809.615 620.415 808.144 623.516 806.901C626.566 805.806 629.621 804.869 632.682 803.832C633.247 807.856 634.296 816.891 635.156 820.533C629.107 823.633 616.482 827.106 609.73 828.903C577.823 837.48 545.903 842.294 512.82 840.362C504.448 839.873 494.272 838.34 486.175 838.19C474.761 837.98 454.183 838.247 443.316 841.32C455.594 849.76 501.149 856.527 517.476 854.745C518.389 854.645 518.778 854.303 519.42 853.794C521.824 857.195 522.401 851.894 525.388 857.539C522.28 860.112 507.07 859.902 502.678 860.069C461.836 861.631 420.884 854.946 382.723 840.28C379.076 838.879 370.658 835.6 366.945 835.165C367.062 829.531 376.939 770.691 378.303 767.468C391.707 760.093 397.405 750.598 408.166 743.693C404.692 756.546 400.78 760.03 394.142 771.1C385.852 784.926 390.118 797.64 393.284 812.091C394.916 819.642 396.509 827.201 398.062 834.768C412.253 835.165 428.831 834.641 443.167 834.527C439.601 822.201 435.747 817.072 423.724 812.069C423.271 804.889 421.545 796.112 420.844 788.483C428.477 781.034 437.875 770.234 444.649 762.017C447.045 774.89 449.82 787.366 452.541 800.162C455.027 811.849 456.792 824.135 459.867 835.669C477.145 835.586 496.026 834.883 513.082 835.148C514.825 835.123 517.042 835.16 518.738 835.057C532.287 834.942 545.837 834.952 559.386 835.084C556.301 818.331 543.932 809.202 527.529 807.459C529.773 798.421 531.119 789.215 533.18 780.148C533.351 779.324 533.508 778.498 533.653 777.669C534.474 772.776 536.009 765.119 537.434 760.526C547.268 747.614 561.8 731.827 572.727 719.457C584.811 705.778 599.112 688.39 611.748 675.47Z"/><path fill="#FEFBF9" d="M533.653 777.669C545.268 776.425 557.397 772.149 568.455 768.295L569.078 769.251C563.058 770.772 538.989 782.011 533.18 780.148C533.351 779.324 533.508 778.498 533.653 777.669Z"/><path fill="#FAC197" d="M575.194 765.816C573.348 766.954 571.041 768.413 569.078 769.251L568.455 768.295C570.664 767.374 572.939 766.622 575.194 765.816Z"/><path fill="#FBAC2A" d="M524.97 524.426C526.276 521.744 527.926 519.243 529.877 516.985C536.825 508.938 547.876 504.299 556.535 512.975C563.211 519.665 563.012 526.79 562.955 535.554C567.762 538.859 574.553 542.124 579.797 544.9L605.208 558.543C607.004 557.89 609.095 555.905 610.972 555.19C615.228 553.569 619.588 555.171 624.023 554.627C637.251 559.19 632.505 562.348 625.453 571.368C621.085 576.956 616.713 581.769 610.463 585.34C609.217 585.919 604.338 588.086 603.513 588.735C591.495 601.004 580.425 596.659 565.744 593.45C552.337 590.882 539.083 587.793 525.633 585.491C522.719 584.993 519.955 584.494 517.1 583.716C524.856 590.092 532.566 596.524 540.229 603.01C549.606 610.869 561.56 619.36 567.978 629.737C570.326 633.533 571.222 638.969 571.759 643.373L571.056 643.17C567.259 638.584 562.313 634.169 557.779 630.3C557.731 631.369 557.659 632.437 557.563 633.504C555.74 654.506 544.844 672.21 528.867 685.448C528.701 679.972 528.624 675.511 527.399 670.149C523.598 653.506 507.016 637.221 494.998 625.285C495.16 630.964 495.379 636.642 495.654 642.317C481.877 627.957 469.651 613.937 459.559 596.746C456.348 602.823 454.02 607.383 452.575 614.119C438.474 596.547 436.713 580.743 443.547 559.563C435.932 561.697 431.484 563.684 424.782 567.691C433.876 551.412 454.238 541.52 470.887 535.049C462.644 553.096 458.635 566.642 465.491 585.965C467.85 582.718 469.588 580.386 472.233 577.393C481.363 586.034 486.185 590.793 497.381 596.359C501.981 596.157 502.182 598.255 500.611 593.603C492.978 583.81 486.56 573.393 492.088 560.532C488.322 561.775 484.542 562.975 480.748 564.132C488.529 540.022 502.133 532.259 524.97 524.426ZM538.746 530.226C540.119 530.189 541.205 529.051 541.179 527.677C541.153 526.304 540.025 525.208 538.651 525.223C537.261 525.238 536.15 526.382 536.176 527.772C536.202 529.162 537.356 530.264 538.746 530.226Z"/><path fill="#0F0E0F" d="M605.208 558.543C607.004 557.89 609.095 555.905 610.972 555.19C615.228 553.569 619.588 555.171 624.023 554.627C637.251 559.19 632.505 562.348 625.453 571.368C621.085 576.956 616.713 581.769 610.463 585.34C609.217 585.919 604.338 588.086 603.513 588.735C599.345 590.651 595.865 592.207 591.571 593.843C586.868 592.876 554.293 585.734 550.922 583.798L550.837 582.748C551.04 582.633 551.227 582.483 551.447 582.403C555.009 581.111 586.037 589.119 591.231 590.801C598.645 587.269 605.889 583.859 613.131 579.967C609.721 574.084 603.109 565.217 605.208 558.543Z"/><path fill="#124539" d="M500.611 593.603C502.715 595.555 504.926 598.098 507.26 600.312C503.682 598.902 500.899 597.984 497.381 596.359C501.981 596.157 502.182 598.255 500.611 593.603Z"/><path fill="#0F0E0F" d="M541.427 517.157L541.631 517.225C544.468 518.142 547.192 528.277 549.411 531.107C549.967 531.817 553.399 537.25 550.183 536.801C548.448 536.558 546.704 532.806 545.841 531.433C543.988 531.803 543.482 532.348 541.381 532.358C534.189 531.104 531.883 528.732 525.537 524.84C527.543 524.485 541.748 523.405 541.588 522.076C541.239 519.174 538.475 520.538 541.427 517.157ZM538.746 530.226C540.119 530.189 541.205 529.051 541.179 527.677C541.153 526.304 540.025 525.208 538.651 525.223C537.261 525.238 536.15 526.382 536.176 527.772C536.202 529.162 537.356 530.264 538.746 530.226Z"/><path fill="#FEFBF9" fill-opacity="0.94901961" d="M538.651 525.223C540.025 525.208 541.153 526.304 541.179 527.677C541.205 529.051 540.119 530.189 538.746 530.226C537.356 530.264 536.202 529.162 536.176 527.772C536.15 526.382 537.261 525.238 538.651 525.223Z"/><path fill="#0F0E0F" d="M517.1 583.716C519.955 584.494 522.719 584.993 525.633 585.491C539.083 587.793 552.337 590.882 565.744 593.45C580.104 614.826 593.421 635.063 604.712 658.411C606.631 662.378 610.849 671.506 611.748 675.47C599.112 688.39 584.811 705.778 572.727 719.457C561.8 731.827 547.268 747.614 537.434 760.526C536.009 765.119 534.474 772.776 533.653 777.669C533.508 778.498 533.351 779.324 533.18 780.148C531.119 789.215 529.773 798.421 527.529 807.459C543.932 809.202 556.301 818.331 559.386 835.084C545.837 834.952 532.287 834.942 518.738 835.057C517.042 835.16 514.825 835.123 513.082 835.148C513.003 834.293 512.903 833.441 512.782 832.592C511.028 819.847 504.406 814.985 494.318 808.844C494.103 808.671 493.888 808.499 493.673 808.326C492.797 808.112 491.005 808.21 490.333 807.634C489.821 807.195 487.857 788.077 487.559 785.747C487.41 784.579 487.202 783.414 487.066 782.247C486.919 780.992 486.711 779.75 486.564 778.497C486.417 777.245 486.208 775.998 486.069 774.748C485.82 772.517 485.521 770.28 485.224 768.054C484.857 762.137 481.455 743.619 481.677 740.644L482.641 740.113C492.683 738.752 537.145 709.167 546.263 699.686C558.868 686.58 564.547 675.493 565.259 657.73C567.396 661.414 568.987 665.452 570.653 669.38C573.072 661.943 573.468 651.056 571.759 643.373C571.222 638.969 570.326 633.533 567.978 629.737C561.56 619.36 549.606 610.869 540.229 603.01C532.566 596.524 524.856 590.092 517.1 583.716Z"/><path fill="#185B48" d="M549.712 699.069C545.272 718.133 540.086 741.386 537.434 760.526C536.009 765.119 534.474 772.776 533.653 777.669C533.508 778.498 533.351 779.324 533.18 780.148C531.119 789.215 529.773 798.421 527.529 807.459C543.932 809.202 556.301 818.331 559.386 835.084C545.837 834.952 532.287 834.942 518.738 835.057C517.375 823.649 510.297 811.23 498.658 807.993C502.033 795.508 503.77 782.318 506.126 769.586C507.068 764.492 507.756 759.088 509.426 754.181C511.134 749.165 545.207 703.441 549.712 699.069Z"/><path fill="#F4973D" d="M485.224 768.054C486.478 766.944 487.561 765.768 488.775 764.668C489.636 768.507 490.4 772.367 491.065 776.245C491.358 777.746 491.585 779.255 491.877 780.756L492.608 784.993C492.753 785.827 492.925 786.66 493.075 787.494C493.419 789.41 496.958 807.629 496.817 807.776C496.458 808.154 495.302 808.133 494.857 808.18C494.462 808.221 494.068 808.276 493.673 808.326C492.797 808.112 491.005 808.21 490.333 807.634C489.821 807.195 487.857 788.077 487.559 785.747C487.41 784.579 487.202 783.414 487.066 782.247C486.919 780.992 486.711 779.75 486.564 778.497C486.417 777.245 486.208 775.998 486.069 774.748C485.82 772.517 485.521 770.28 485.224 768.054Z"/><path fill="#FBAC2A" d="M327.181 680.304C311.972 657.382 305.427 633.715 310.685 606.02C317.753 568.798 351.722 541.236 381.371 520.787C390.713 514.343 402.05 508.597 412.393 503.939L402.81 543.751C399.578 557.315 391.446 576.953 406.331 585.845L405.802 586.242C400.154 590.421 394.215 593.729 388.351 598.127C362.535 617.488 346.618 644.289 341.657 676.251C340.869 681.324 340.329 689.55 339.394 694.036C335.124 689.296 331.309 685.237 327.181 680.304Z"/><path fill="#FBAC2A" d="M606.111 503.387C642.847 522.75 690.041 552.134 703.969 594.077C712.743 620.499 705.634 656.695 688.643 678.906L686.945 680.692C686.715 683.468 685.122 683.475 685.009 685.884C683.094 687.841 679.577 691.231 677.345 692.686C676.762 691.327 676.609 691.063 675.617 689.969C675.607 686.578 675.165 682.941 674.642 679.597C667.448 633.649 645.118 611.187 610.463 585.34C616.713 581.769 621.085 576.956 625.453 571.368C632.505 562.348 637.251 559.19 624.023 554.627C620.989 553.288 618.35 552.107 615.214 551.012C612.426 535.091 609.391 519.214 606.111 503.387Z"/><path fill="#124539" d="M686.945 680.692C686.715 683.468 685.122 683.475 685.009 685.884C683.094 687.841 679.577 691.231 677.345 692.686C676.762 691.327 676.609 691.063 675.617 689.969C677.97 689.49 684.477 682.733 686.945 680.692Z"/><path fill="#185B48" d="M250.982 648.649C254.392 651.431 266.531 670.368 269.274 675.138C282.566 698.251 308.646 729.995 311.865 756.584C311.365 758.904 309.944 767.129 309.19 768.903C309.067 769.813 308.923 770.684 308.777 771.592C308.096 774.311 303.124 799.502 303.599 800.288C290.247 805.076 277.826 822.186 275.731 835.987C256.698 835.979 231.956 836.638 213.39 835.772C216.613 814.562 235.934 797.802 256.564 794.476C259.997 793.922 263.496 793.498 266.949 793.074C266.772 790.373 266.398 787.114 265.998 784.426C264.45 774.025 263.939 762.944 262.115 752.632C261.545 741.768 259.446 727.326 258.249 716.107L250.982 648.649Z"/><path fill="#0F0E0F" d="M405.638 646.345C406.104 649.213 406.671 652.537 406.162 655.39C400.501 687.121 391.485 718.844 384.967 750.319C390.07 745.824 396.965 737.855 401.452 731.919C407.974 723.291 417.356 709.716 419.802 698.771C419.977 697.987 419.548 694.566 419.429 693.643C428.409 706.724 435.841 725.008 440.062 740.175C441.954 746.976 442.391 755.437 444.649 762.017C437.875 770.234 428.477 781.034 420.844 788.483C421.545 796.112 423.271 804.889 423.724 812.069C435.747 817.072 439.601 822.201 443.167 834.527C428.831 834.641 412.253 835.165 398.062 834.768C396.509 827.201 394.916 819.642 393.284 812.091C390.118 797.64 385.852 784.926 394.142 771.1C400.78 760.03 404.692 756.546 408.166 743.693C397.405 750.598 391.707 760.093 378.303 767.468C379.009 765.321 380.05 759.217 380.532 756.775C381.766 750.357 383.109 743.96 384.561 737.587C391.174 708.463 398.026 674.878 405.638 646.345Z"/><path fill="#0F0E0F" d="M247.234 618.103C251.125 621.377 254.96 627.049 258.64 630.909C267.16 639.675 276.317 647.798 286.038 655.21C292.433 659.955 298.996 664.469 305.715 668.744C310.687 671.881 324.09 678.398 326.634 681.438C326.38 682.399 326.335 682.677 326.217 683.676C323.119 700.565 319.789 717.41 316.229 734.208C314.879 740.828 313.444 750.324 311.865 756.584C308.646 729.995 282.566 698.251 269.274 675.138C266.531 670.368 254.392 651.431 250.982 648.649C249.16 639.043 249.178 627.277 247.234 618.103Z"/><path fill="#FBAC2A" d="M441.239 627.606L442.005 628.111C461.368 641.012 492.81 666.899 496.411 690.716C499.567 711.592 493.619 723.785 482.641 740.113L481.677 740.644C481.155 739.594 480.198 734.286 480.006 733.024C477.383 715.771 472.665 706.075 459.256 694.918C451.292 687.011 443.854 676.97 439.703 666.618C434.195 652.878 435.526 640.68 441.239 627.606Z"/><path fill="#F4973D" d="M327.181 680.304C331.309 685.237 335.124 689.296 339.394 694.036C338.561 695.464 338.658 695.554 338.956 697.213C339.48 698.953 332.171 773.782 331.031 780.024L330.906 780.581C329.053 781.029 312.39 772.697 308.777 771.592C308.923 770.684 309.067 769.813 309.19 768.903C309.944 767.129 311.365 758.904 311.865 756.584C313.444 750.324 314.879 740.828 316.229 734.208C319.789 717.41 323.119 700.565 326.217 683.676C326.335 682.677 326.38 682.399 326.634 681.438L327.181 680.304Z"/><path fill="#3F6549" d="M327.181 680.304C331.309 685.237 335.124 689.296 339.394 694.036C338.561 695.464 338.658 695.554 338.956 697.213C337.22 695.577 326.683 683.727 326.217 683.676C326.335 682.677 326.38 682.399 326.634 681.438L327.181 680.304Z"/><path fill="#FEFBF9" d="M309.19 768.903C313.616 771.672 326.397 777.882 331.031 780.024L330.906 780.581C329.053 781.029 312.39 772.697 308.777 771.592C308.923 770.684 309.067 769.813 309.19 768.903Z"/><path fill="#FBAC2A" d="M480.196 502.373C472.16 483.072 480.658 468.238 491.516 452.114C493.633 448.972 497.861 441.828 501.922 441.935C504.843 444.504 512.527 461.802 514.724 466.409C515.236 467.739 516.123 469.382 516.819 470.666L520.727 480.808C516.196 481.074 511.505 482.064 507.157 483.346C503.938 474.236 500.349 465.908 497.093 456.929C491.475 468.851 489.325 481.895 491.748 494.914L480.196 502.373Z"/><path fill="#0F0E0F" d="M560.521 442.802C563.476 440.807 569.767 434.146 572.212 438.072C571.629 439.226 571.628 439.183 571.445 440.445C571.522 443.701 572.379 458.635 571.657 460.456C571.625 460.424 570.667 459.399 570.49 459.626C566.039 465.326 560.692 474.742 557.837 481.379C549.225 477.365 541.702 473.951 532.242 472.115C530.048 471.689 527.765 471.27 525.639 470.606C527.495 468.785 529.212 467.157 531.334 465.625C540.703 458.191 551.054 450.032 560.521 442.802Z"/><path fill="#124539" d="M560.521 442.802C563.476 440.807 569.767 434.146 572.212 438.072C571.629 439.226 571.628 439.183 571.445 440.445C571.384 440.412 570.721 439.997 570.564 440.207C563.374 449.846 557.18 460.662 550.484 470.575L550.129 471.109C543.976 469.324 537.49 467.072 531.334 465.625C540.703 458.191 551.054 450.032 560.521 442.802Z"/><path fill="#0F0E0F" d="M425.456 454.703C441.208 461.604 450.219 466.991 460.102 481.303C457.984 470.936 454.958 465.42 452.16 455.98C459.605 462.44 463.629 468.523 468.929 476.576C469.033 477.447 466.5 485.828 466.317 489.964C457.275 499.021 454.367 499.213 446.05 511.384C446.112 487.04 439.572 473.853 425.456 454.703Z"/><path fill="#F4973D" d="M308.777 771.592C312.39 772.697 329.053 781.029 330.906 780.581C330.849 784.749 330.068 790.384 329.884 794.95C326.537 795.213 318.973 795.621 316.085 796.79C312.113 797.389 307.336 798.793 303.599 800.288C303.124 799.502 308.096 774.311 308.777 771.592Z"/><path fill="#FBAC2A" d="M557.837 481.379C560.692 474.742 566.039 465.326 570.49 459.626C570.667 459.399 571.625 460.424 571.657 460.456C571.459 464.15 571.9 466.391 571.959 470C572.076 477.14 572.251 484.26 572.336 491.401C568.285 487.645 563.092 483.294 557.837 481.379Z"/><path fill="#0F0E0F" d="M303.599 800.288C307.336 798.793 312.113 797.389 316.085 796.79C313.2 798.859 310.02 799.826 307 801.574C293.651 809.303 284.564 821.067 280.55 835.933C278.921 836.007 277.358 835.988 275.731 835.987C277.826 822.186 290.247 805.076 303.599 800.288Z"/><path fill="#FBAC2A" d="M579.224 510.215C581.255 511.57 586.728 519.544 588.242 521.823C586.865 524.982 585.567 527.503 584.482 530.794C581.98 530.908 577.07 526.202 576.435 523.505C575.383 519.04 576.301 515.545 578.445 511.618L579.224 510.215Z"/><path fill="#F4973D" d="M262.115 752.632C252.238 743.062 240.341 727.662 232.639 716.323C188.402 651.197 170.786 567.936 186.198 490.623C186.742 487.895 187.418 484.677 189.821 483.102C191.389 483.132 190.777 482.816 191.813 483.82C191.851 487.083 189.633 495.633 188.956 499.553C179.865 552.204 190.711 607.784 217.146 654.062C222.377 663.22 231.804 674.352 238.561 682.515C239.969 684.215 242.454 686.261 244.725 686.274C244.196 682.579 238.081 671.775 236.306 667.866C225.591 644.248 215.492 619.622 212.084 593.731C211.524 589.484 209.196 582.598 214.318 580.379C217.824 580.418 218.754 582.925 219.541 585.759C219.569 586.772 219.574 586.782 219.773 587.782C221.587 603.947 232.827 636.836 241.252 650.519C241.643 651.393 241.988 652.393 242.632 653.12C242.798 653.339 243.288 653.423 243.384 653.072C243.694 651.933 242.929 650.461 242.544 649.468C241.452 647.486 239.585 642.148 238.654 639.703C232.082 622.458 228.317 604.41 223.685 586.64C223.56 585.915 223.448 585.329 223.299 584.617C222.26 579.516 218.852 565.001 219.236 561.034C218.129 556.567 218.252 557.019 221.06 553.216C223.291 561.958 225.856 569.51 228.354 577.889C232.426 591.551 234.753 603.045 244.186 614.442C244.804 615.189 246.556 617.647 247.234 618.103C249.178 627.277 249.16 639.043 250.982 648.649L258.249 716.107C259.446 727.326 261.545 741.768 262.115 752.632Z"/><path fill="#F4973D" d="M760.248 695.688C761.267 695.385 763.349 694.777 764.026 693.999C769.852 687.298 774.824 678.028 778.841 670.149C784.732 658.652 789.751 646.729 793.855 634.48C796.069 627.894 798.13 621.029 800.282 614.405C800.722 613.053 801.46 612.774 802.514 612.337C803.269 612.523 804.048 612.521 804.206 613.113C805.544 618.116 798.894 640.22 797.201 644.717C789.935 664.019 782.318 682.641 771.11 699.822C768.945 703.143 764.258 709.774 764.894 713.501L765.712 714.061C772.516 712.691 788.72 690.023 793.087 683.459C814.529 651.008 827.638 613.771 831.254 575.044C831.721 570.741 832.013 566.42 832.128 562.093C832.189 558.519 831.107 550.094 834.164 547.946L835.464 548.249C836.711 551.263 836.282 559.631 836.144 563.313C833.502 633.524 803.543 704.477 753.802 754.324C749.476 758.659 743.579 764.547 738.723 768.057C739.865 760.09 742.522 749.469 744.046 741.251C745.953 730.961 747.661 718.907 750.217 708.989C750.308 709.02 750.821 709.149 750.819 709.193C750.609 714.14 754.873 708.406 758.404 702.657C758.83 702.341 758.771 702.422 759.054 701.987C759.673 701.171 763.008 696.954 762.806 696.31C762.246 695.939 761.54 696.374 760.248 695.688Z"/><path fill="#F4973D" d="M179.539 643.294L178.579 642.881C176.318 639.998 174.508 633.581 173.241 630.035C156.366 582.82 152.318 530.722 164.35 481.883C164.872 479.763 166.031 475.098 167.352 473.517C169.141 473.301 168.352 473.121 169.831 473.919C170.285 474.853 170.528 475.95 170.226 476.987C157.078 522.204 159.388 569.882 172.562 614.806C173.929 619.467 181.468 638.59 181.516 641.645C180.678 642.275 180.296 642.603 179.539 643.294Z"/><path fill="#F4973D" d="M216.421 729.547C228.993 732.208 251.275 769.909 240.036 769.354C234.268 765.637 200.697 735.014 215.605 729.87L216.421 729.547Z"/><path fill="#F4973D" d="M819.42 683.234C821.516 683.852 822.18 683.838 822.457 685.916C809.458 715.226 776.005 759.088 749.963 777.201C748.45 776.967 749.015 777.151 747.703 776.227C747.55 775.497 747.255 774.901 747.65 774.423C750.846 770.555 756.71 766.164 760.46 762.596C784.629 739.817 804.589 712.951 819.42 683.234Z"/><path fill="#F4973D" d="M187.882 689.543C195.301 689.177 197.477 692.925 201.778 698.807C204.974 703.178 214.463 717.43 207.812 721.674L206.425 722.554C201.991 722.179 197.159 719.05 194.756 715.482C190.026 708.46 179.374 696.916 187.882 689.543Z"/><path fill="#F4973D" d="M830.754 512.362C834.218 513.395 833.995 513.982 834.39 517.751C834.864 522.283 836.655 527.439 835.049 531.836C829.575 531.607 831.368 527.93 830.462 522.751C829.953 519.84 829.219 514.831 830.754 512.362Z"/><path fill="#F4973D" d="M828.127 664.661C828.621 664.787 831.415 665.485 831.391 666.29C831.295 669.428 828.62 674.36 827.098 676.855C820.333 677.736 826.798 667.252 828.127 664.661Z"/><path fill="#F4973D" d="M536.091 852.209C538.412 853.343 538.535 852.512 540.511 852.682C545.296 853.092 543.687 857.127 539.011 857.095C535.244 857.069 533.275 859.195 530.436 855.633C533.598 852.123 535.978 854.361 536.091 852.209Z"/><path fill="#FEFBF9" fill-opacity="0.97254902" d="M753.663 698.15C756.813 698.428 755.325 696.847 758.313 700.585C754.559 699.319 754.354 699.105 752.899 703.256C752.835 703.438 752.534 704.915 753.241 704.856C755.494 702.748 755.703 703.403 758.404 702.657C754.873 708.406 750.609 714.14 750.819 709.193C750.821 709.149 750.308 709.02 750.217 708.989C750.293 706.836 751.072 702.571 751.858 700.579C752.328 699.995 752.782 699.408 753.208 698.792L753.663 698.15Z"/><path fill="#FEFBF9" fill-opacity="0.98823529" d="M753.663 698.15C754.747 696.15 757.558 688.212 759.77 691.371C759.962 692.806 760.121 694.245 760.248 695.688C761.54 696.374 762.246 695.939 762.806 696.31C763.008 696.954 759.673 701.171 759.054 701.987C758.672 701.396 758.616 701.245 758.313 700.585C755.325 696.847 756.813 698.428 753.663 698.15Z"/><path fill="#FEFBF9" fill-opacity="0.98823529" d="M519.42 853.794C524.392 851.777 530.799 851.608 536.091 852.209C535.978 854.361 533.598 852.123 530.436 855.633C528.044 856.15 528.225 856.012 526.031 857.199L525.388 857.539C522.401 851.894 521.824 857.195 519.42 853.794Z"/><path fill="#F4973D" d="M179.539 643.294C180.296 642.603 180.678 642.275 181.516 641.645C182.254 643.144 182.788 644.001 183.894 645.267C185.031 645.582 185.843 646.586 185.913 647.765C185.983 648.944 185.296 650.037 184.203 650.485C183.11 650.933 181.854 650.637 181.076 649.748C180.298 648.86 180.171 647.575 180.76 646.552C180.494 645.318 180.072 644.423 179.539 643.294Z"/><path fill="#FEFBF9" d="M179.539 643.294C180.296 642.603 180.678 642.275 181.516 641.645C182.254 643.144 182.788 644.001 183.894 645.267C182.678 644.929 181.389 645.458 180.76 646.552C180.494 645.318 180.072 644.423 179.539 643.294Z"/><path fill="#FEFBF9" fill-opacity="0.7764706" d="M758.404 702.657C755.703 703.403 755.494 702.748 753.241 704.856C752.534 704.915 752.835 703.438 752.899 703.256C754.354 699.105 754.559 699.319 758.313 700.585C758.616 701.245 758.672 701.396 759.054 701.987C758.771 702.422 758.83 702.341 758.404 702.657Z"/><path fill="#FEFBF9" fill-opacity="0.14509805" d="M219.541 585.759C221.336 583.699 221.053 583.221 223.299 584.617C223.448 585.329 223.56 585.915 223.685 586.64C222.274 589.789 223.321 589.538 219.773 587.782C219.574 586.782 219.569 586.772 219.541 585.759Z"/><path fill="#FEFBF9" fill-opacity="0.41568628" d="M242.544 649.468C242.929 650.461 243.694 651.933 243.384 653.072C243.288 653.423 242.798 653.339 242.632 653.12C241.988 652.393 241.643 651.393 241.252 650.519L242.544 649.468Z"/></svg>