<?xml version="1.0" encoding="UTF-8" standalone="no"?>
<svg
   width="1024"
   height="1024"
   viewBox="0 0 1024 1024"
   version="1.1"
   id="svg11"
   sodipodi:docname="meute.0-20.svg"
   inkscape:version="1.4.4 (dcaf3e7d9e, 2026-05-05)"
   xmlns:inkscape="http://www.inkscape.org/namespaces/inkscape"
   xmlns:sodipodi="http://sodipodi.sourceforge.net/DTD/sodipodi-0.dtd"
   xmlns="http://www.w3.org/2000/svg"
   xmlns:svg="http://www.w3.org/2000/svg">
  <defs
     id="defs11" />
  <sodipodi:namedview
     id="namedview11"
     pagecolor="#ffffff"
     bordercolor="#000000"
     borderopacity="0.25"
     inkscape:showpageshadow="2"
     inkscape:pageopacity="0.0"
     inkscape:pagecheckerboard="0"
     inkscape:deskcolor="#d1d1d1"
     inkscape:zoom="0.97503396"
     inkscape:cx="474.34245"
     inkscape:cy="531.26355"
     inkscape:window-width="3072"
     inkscape:window-height="1623"
     inkscape:window-x="0"
     inkscape:window-y="0"
     inkscape:window-maximized="1"
     inkscape:current-layer="svg11" />
  <g
     id="g11"
     transform="matrix(1.6170308,0,0,1.5652782,-316.34655,-289.57663)">
    <path
       fill="#b4b4ac"
       d="m 198.543,614.38 c 8.136,-14.913 27.455,-36.375 41.677,-45.359 13.742,-8.681 29.068,-15.545 40.783,-27.649 14.33,-14.805 24.36,-35.584 34.141,-53.76 10.804,-21.402 29.579,-40.204 50.988,-51.041 10.68,-5.406 15.254,-5.471 24.589,-14.99 5.228,-5.333 18.458,-11.192 25.609,-13.863 15.176,-5.436 35.734,-6.768 51.566,-3.657 16.464,3.236 32.339,8.419 49.364,9.833 24.24,2.014 48.006,-0.963 71.271,-7.853 6.893,3.691 13.712,6.198 21.092,8.703 7.473,2.537 20.46,9.34 10.135,17.619 11.842,7.462 26.621,13.481 36.434,22.88 16.076,15.396 19.034,38.494 22.788,59.245 0.783,4.33 1.996,8.813 2.64,13.175 -2.088,4.232 -4.847,7.837 -7.052,11.985 -7.902,14.865 -14.311,31.201 -13.99,48.292 0.192,10.2 1.512,20.036 2.185,30.186 1.779,21.118 1.288,44.424 6.803,64.8 1.544,4.524 5.524,13.709 10.177,15.378 10.735,3.848 22.705,-3.645 28.423,10.706 3.163,7.936 0.062,14.77 -8.413,17.042 -11.033,2.958 -26.885,3.11 -37.545,-1.331 -6.024,-2.858 -8.51,-9.008 -10.299,-14.872 -2.237,-7.33 -1.663,-15.422 -4.324,-22.177 -1.759,-4.464 -9.247,-7.078 -10.334,-12.528 -1.189,-5.959 -0.136,-12.395 0.05,-18.413 0.101,-4.17 -0.088,-8.341 -0.566,-12.485 -3.006,-26.6 -8.426,-40.562 -14.96,-65.288 -0.417,-1.126 -0.345,-9.44 -0.789,-11.664 -2.501,-12.528 -8.645,-23.06 -16.003,-33.075 -0.571,5.214 -0.597,13.306 -0.852,18.825 -8.039,2.727 -16.403,5.7 -24.637,7.697 -1.249,0.281 -2.504,0.535 -3.763,0.761 -36.524,6.496 -64.701,-7.232 -93.589,-27.282 -7.344,-6.201 -21.203,-10.854 -30.864,-9.995 -0.883,0.084 -1.762,0.211 -2.634,0.38 -6.797,24.712 -15.57,44.553 -35.466,61.679 -3.748,3.226 -14.309,10.333 -16.725,13.583 -6.801,2.833 -40.11,24.357 -46.327,30.322 -12.147,11.656 -16.757,29.384 -16.216,45.757 0.231,6.977 0.678,8.34 3.217,14.245 4.975,14.053 17.009,4.073 25.209,11.479 5.529,5.028 5.386,16.235 -0.612,20.512 -9.817,7.001 -40.887,7.092 -48.213,-3.567 -9.258,-13.471 -2.131,-31.223 -3.369,-46.673 -1.229,-15.353 -6.273,-29.715 -6.069,-45.003 0.073,-6.608 18.139,-16.194 22.795,-20.083 12.268,-9.122 15.787,-14.991 23.931,-26.491 21.389,-30.201 0.621,-44.778 5.001,-74.427 -0.352,-2.8 -0.336,-2.73 -1.819,-0.345 -1.508,3.574 -2.821,7.116 -3.79,10.877 -0.922,3.577 -3.724,23.859 -6.782,24.851 -0.121,0.039 -0.254,0.016 -0.381,0.023 l -0.669,0.238 c -2.767,4.398 -4.598,9.286 -6.98,13.88 -3.973,7.659 -9.425,15.859 -15.816,21.716 0.434,-2.316 0.836,-3.351 0.312,-5.574 l -0.754,-0.974 -0.815,-0.095 c -6.592,7.785 -19.785,20.757 -29.588,23.316 -0.949,-0.388 -0.65,-0.083 -1.054,-0.727 l -0.802,-0.943 c -3.124,1.375 -6.025,4.033 -8.701,6.173 -5.5,4.399 -18.609,12.853 -25.68,12.869 l 0.946,-0.373 c 1.195,-2.189 1.858,-2.234 3.38,-4.147 l -1.129,-0.702 c -2.027,0.566 -2.28,0.936 -4.157,1.973 -6.478,2.393 -16.67,5.721 -23.659,5.525 l -0.444,-0.967 c 1.747,-0.87 4.573,-2.077 5.433,-3.773 l -0.529,-0.646 c -6.097,-1.021 -26.266,4.87 -33.779,6.267 z"
       id="path1" />
    <path
       fill="#f6f5f5"
       d="m 294.196,583.149 c -1.211,3.586 -2.892,8.118 -6.532,9.975 l -0.802,-0.943 c -0.215,-0.977 6.261,-7.729 7.334,-9.032 z"
       id="path2" />
    <path
       fill="#f6f5f5"
       d="m 255.678,606.001 0.458,-0.515 c 1.09,-1.312 3.186,-2.262 4.314,-3.268 -0.379,0.338 7.168,-6.187 5.884,-4.127 -1.283,2.06 -7.301,7.725 -9.527,8.612 z"
       id="path3" />
    <path
       fill="#f6f5f5"
       d="m 342.359,541.582 c -0.113,-1.049 0.639,-4.437 1.324,-4.836 0.101,-0.058 0.225,-0.059 0.327,-0.003 0.76,0.427 0.163,3.681 -0.982,4.601 z"
       id="path4" />
    <path
       fill="#f6f5f5"
       d="m 321.867,564.95 c 1.054,1.464 -0.062,4.688 -1.446,5.8 -2.238,-2.868 -1.147,-2.472 1.446,-5.8 z"
       id="path5" />
    <path
       fill="#576367"
       d="m 582.894,401.98 c 36.802,-0.833 59.537,-19.295 87.967,-39.827 6.756,-4.88 15.116,-9.012 20.97,-14.908 4.103,-4.132 4.928,-10.578 7.756,-15.562 3.696,-6.514 23.742,-34.681 31.917,-35.309 0.809,-0.062 1.142,0.276 1.822,0.644 1.286,3.515 -0.208,32.14 0.134,39.419 15.119,3.119 27.161,7.379 36.035,20.784 5.617,8.485 9.23,13.146 19.815,15.288 4.682,0.948 35.596,4.042 36.866,6.402 1.219,2.264 0.569,5.138 -0.418,7.328 -1.857,4.122 -12,15.624 -15.664,18.547 -2.196,1.753 -4.617,3.075 -7.255,4.04 -6.147,2.249 -13.116,2.6 -19.592,2.186 -12.587,-0.806 -26.978,-4.84 -33.85,9.478 -3.357,6.993 -3.115,15.206 -3.89,22.764 -1.18,11.505 -5.704,22.032 -11.976,31.661 -4.444,6.824 -9.785,12.996 -15.534,18.749 -12.516,12.526 -28.441,24.357 -32.816,42.51 -1.246,-2.812 -2.434,-5.649 -3.561,-8.511 -0.644,-4.362 -1.857,-8.845 -2.64,-13.175 -3.754,-20.751 -6.712,-43.849 -22.788,-59.245 -9.813,-9.399 -24.592,-15.418 -36.434,-22.88 10.325,-8.279 -2.662,-15.082 -10.135,-17.619 -7.38,-2.505 -14.199,-5.012 -21.092,-8.703 -1.816,-1.257 -3.97,-2.662 -5.637,-4.061 z"
       id="path6" />
    <path
       fill="#576367"
       d="m 448.644,524.605 c 0.872,-0.169 1.751,-0.296 2.634,-0.38 9.661,-0.859 23.52,3.794 30.864,9.995 -4.817,18.635 -11.249,36.642 -22.902,51.495 -19.044,24.273 -52.915,35.933 -47.869,72.472 0.968,10.421 3.323,29.083 15.357,32.565 1.114,0.322 8.776,0.795 10.363,0.821 12.443,0.205 21.933,17.021 10.524,24.527 -5.541,3.645 -29.891,3.815 -36.422,1.977 -5.711,-1.549 -10.505,-5.432 -13.208,-10.696 -5.512,-10.496 -4.167,-21.21 -6.973,-31.813 -2.406,-9.092 -11,-16.412 -13.731,-26.299 -3.62,-13.107 3,-17.925 9.279,-28.699 3.857,-6.62 7.166,-13.544 9.893,-20.703 2.416,-3.25 12.977,-10.357 16.725,-13.583 19.896,-17.126 28.669,-36.967 35.466,-61.679 z"
       id="path7" />
    <path
       fill="#576367"
       d="m 604.983,534.219 c 7.358,10.015 13.502,20.547 16.003,33.075 0.444,2.224 0.372,10.538 0.789,11.664 -1.108,2.447 -4.697,23.628 -5.49,28.076 -3.326,18.663 -7.806,37.705 -9.868,56.523 -0.672,6.127 -0.283,12.872 0.919,18.356 4.677,21.354 14.22,7.881 27.349,14.515 2.962,1.88 4.666,6.093 5.022,9.429 1.52,14.56 -19.026,13.58 -28.544,12.999 -5.225,-0.32 -13.419,-0.554 -17.45,-4.153 -7.944,-7.095 -5.307,-21.217 -7.355,-30.53 -1.516,-6.89 -8.235,-11.219 -8.47,-18.66 -0.332,-10.414 5.483,-16.611 6.036,-27.535 1.321,-26.102 -2.232,-51.392 -4.43,-77.237 8.234,-1.997 16.598,-4.97 24.637,-7.697 0.255,-5.519 0.281,-13.611 0.852,-18.825 z"
       id="path8" />
    <path
       fill="#f6f5f5"
       fill-opacity="0.529412"
       d="m 251.521,607.974 c 1.877,-1.037 2.13,-1.407 4.157,-1.973 l 1.129,0.702 c -1.522,1.913 -2.185,1.958 -3.38,4.147 -0.649,-1.382 -0.936,-1.7 -1.906,-2.876 z"
       id="path9" />
    <path
       fill="#f6f5f5"
       fill-opacity="0.0196078"
       d="m 353.981,505.593 c 1.483,-2.385 1.467,-2.455 1.819,0.345 z"
       id="path10" />
    <path
       fill="#bbb8b7"
       fill-opacity="0.847059"
       d="m 227.862,613.499 -0.478,-0.006 c -1.487,-0.026 -0.444,-0.564 0.034,-0.961 z"
       id="path11" />
  </g>
</svg>
