<?xml version="1.0" encoding="utf-8" ?><svg xmlns="http://www.w3.org/2000/svg" xmlns:xlink="http://www.w3.org/1999/xlink" width="1024" height="1024" viewBox="0 0 1024 1024"><path fill="#6C4124" d="M610.025 230.099C616.345 249.789 600.118 273.822 614.078 293.062C641.593 297.909 651.516 299.409 665.416 324.11C673.544 338.553 712.791 336.219 727.931 335.669C725.075 355.102 710.777 376.866 690.092 381.016C684.617 382.115 678.115 380.792 672.549 381.416C654.262 382.928 640.651 394.675 637.949 413.033C634.953 433.388 640.639 446.755 646.652 465.398C649.26 473.485 650.504 480.266 651.665 488.637C647.116 479.918 644.144 478.028 636.825 471.781C646.867 493.407 647.199 515.374 637.14 537.1C636.42 536.843 635.698 536.594 634.973 536.353C635.065 528.402 633.127 520.8 629.881 513.559C629.394 518.023 628.81 524.522 627.828 528.745C622.154 553.132 605.759 575.14 586.387 590.583C575.084 599.593 562.706 607.603 550.173 614.743C561.62 589.498 565.161 569.905 559.225 541.971C559.076 541.096 558.904 540.245 558.733 539.373C558.572 538.895 558.52 538.622 558.229 538.237C557.821 539.709 557.978 554.454 558.083 556.764C557.097 572.687 553.343 592.208 544.118 604.915C519.546 638.763 508.37 677.573 500.849 718.248C497.443 736.669 493.898 756.851 497.665 775.689C499.876 787.503 501.719 799.154 504.941 810.803C507.313 819.376 510.529 821.18 519.129 821.911C524.902 822.402 530.848 823.779 535.529 827.164C539.574 829.466 547.621 840.613 549.404 841.168C547.6 842.292 551.144 847.81 551.835 848.162L551.223 848.836C546.352 849.787 493.848 849.129 488.479 848.341C477.756 841.019 480.724 826.668 479.119 814.985C478.118 807.65 476.518 800.41 474.336 793.337C471.022 782.348 465.316 771.541 462.331 760.937C460.657 754.993 468.646 742.816 470.232 736.314C472.165 728.389 472.215 722.443 471.993 714.093C471.625 703.396 470.137 692.768 467.552 682.381C464.435 669.714 458.189 652.428 458.09 639.976C458.047 634.591 462.472 626.868 465.576 622.337C478.505 603.465 479.263 585.914 475.573 563.773C475.223 571.156 474.805 579.239 473.896 586.223C472.62 596.028 462.22 619.752 454.125 624.748C436.111 635.868 404.279 619.905 386.748 612.958C375.31 608.425 363.029 603.683 351.084 601.08C343.747 599.48 338.768 600.162 332.793 604.301C340.136 588.871 346.609 574.12 339.254 557.322C336.915 583.339 332.443 589.086 321.091 612.519C311.707 631.888 305.52 646.17 290.447 662.575C280.451 674.061 267.846 681.044 256.323 690.568C238.605 705.212 209.412 729.194 206.096 752.952C204.032 767.74 205.849 791 209.208 805.216C213.381 822.884 229.23 820.956 242 826.932C249.729 830.827 256.14 840.15 258.526 848.46L258.718 849.152C248.303 849.717 235.169 849.112 224.985 848.786C207.459 848.225 191.663 853.392 189.109 830.712C187.711 818.294 186.865 806.53 185.005 795.005C182.901 782.408 180.38 769.885 177.444 757.456C175.84 750.442 171.441 737.724 173.764 730.865C175.582 725.498 183.796 720.626 187.649 716.485C206.39 696.347 223.869 672.525 227.668 644.567C229.617 629.495 224.42 613.397 221.065 599.066C215.694 576.123 214.644 559.026 219.359 535.923C219.437 535.427 219.705 534.553 219.316 534.102C219.267 534.086 219.234 534.067 219.18 534.087C218.847 534.211 218.562 534.912 218.457 535.101C210.766 552.794 208.992 575.752 210.444 594.793C212.178 617.537 216.808 637.2 207.517 659.287C202.59 670.998 196.938 678.074 189.241 687.93C190.231 682.701 191.567 668.261 189.277 663.812C187.242 666.509 186.387 670.035 185.124 673.162C174.655 699.08 140.089 718.938 112.541 713.627C123.975 710.928 128.011 708.508 136.984 701.121C116.585 708.284 93.2688 709.409 72.4869 703.068C116.045 693.196 137.634 654.343 148.524 613.99C160.888 568.527 176.374 517.93 221.567 494.722C224.213 493.363 231.875 490.71 233.514 489.011C252.6 469.218 272.936 456.988 300.114 450.705C326.141 444.687 352.401 447.356 378.768 449.779C420.028 452.414 468.96 440.47 502.857 415.999C489.18 418.846 478.849 419.799 464.978 416.023C487.139 412.625 506.433 398.38 519.692 380.646C532.076 364.081 532.396 346.767 543.483 329.58C547.536 323.297 550.255 318.535 555.473 312.81C558.859 308.853 565.329 305.502 567.642 300.872C571.269 293.613 570.638 281.46 575.609 274.825C587.316 259.202 600.075 247.31 610.025 230.099Z"/><path fill="#8D7D79" d="M833.432 230.145C836.793 251.252 823.704 276.437 835.24 293.703C839.435 295.571 842.788 292.85 844.632 293.504C862.512 299.85 871.807 303.468 882.549 320.187C895.561 340.442 926.197 336.188 947.175 336.036C945.378 354.571 930.717 376.625 911.263 381.588C906.824 382.721 900.367 381.087 895.673 381.718C875.455 382.987 862.202 394.721 860.319 415.184C857.845 442.079 876.671 458.063 876.081 486.545C871.685 480.748 869.411 477.669 863.397 473.557C864.607 478.827 866.405 483.75 867.516 489.114C871.199 506.896 869.919 520.525 862.152 536.659C861.429 536.21 860.698 535.774 859.961 535.35C860.315 530.55 859.13 525.048 857.778 520.47C857.188 518.568 854.083 508.882 854.534 516.963C851.581 543.355 837.856 563.735 821.552 583.572C820.028 585.48 820.795 585.166 819.944 586.891C819.03 585.411 818.778 586.155 817.682 587.319C813.495 591.767 808.619 595.323 804.057 599.268C800.143 602.654 794.838 605.242 791.282 608.41C789.084 609.235 784.103 612.006 781.798 613.213C782.911 610.668 784.157 608.168 785.37 605.668C794.906 583.765 799.173 559.931 797.827 536.081C796.201 509.402 786.267 484.363 766.052 466.351C746.142 448.61 711.279 437.552 684.861 439.226C683.598 438.692 683.694 438.702 682.733 437.614C686.982 435.871 695.233 432.344 699.456 431.177C707.76 426.486 715.933 423.783 722.935 417.362C711.073 419.964 699.086 421.834 687.283 417.586C714.494 410.795 733.079 396.303 747.678 372.259C757.441 356.178 761.721 337.093 773.207 321.612C779.355 313.327 784.346 309.057 792.115 302.569C795.133 295.071 794.498 286.2 797.966 278.62C803.311 266.94 813.08 257.98 820.869 247.96C825.362 242.177 829.323 236.137 833.432 230.145Z"/><path fill="#6C4124" d="M699.456 431.177C702.784 431.532 711.504 428.561 715.921 428.22C723.817 427.61 730.684 426.53 738.745 427.092C789.433 430.625 818.004 473.612 814.736 522.087C813.024 547.47 805.499 569.305 794.492 592.133C792.968 595.297 788.37 603.924 785.37 605.668C794.906 583.765 799.173 559.931 797.827 536.081C796.201 509.402 786.267 484.363 766.052 466.351C746.142 448.61 711.279 437.552 684.861 439.226C683.598 438.692 683.694 438.702 682.733 437.614C686.982 435.871 695.233 432.344 699.456 431.177Z"/><path fill="#8D7D79" d="M654.376 452.092C659.55 450.377 664.196 449.944 669.503 449.23C687.776 446.771 708.63 449.968 725.597 457.499C749.43 468.078 766.87 483.42 776.594 508.073C788.109 535.993 788.716 573.99 773.032 600.622C762.934 617.769 752.793 630.435 745.269 649.966C731.87 684.746 722.214 723.145 721.422 760.601C721.208 770.701 724.075 781.945 725.666 791.881C726.91 798.702 728.622 807.497 731.069 813.944C735.188 824.793 745.813 820.696 755.617 824.957C767.081 829.94 772.317 838.123 777.078 849.084C769.731 849.53 717.302 849.197 713.783 847.319C710.59 845.615 708.182 841.909 707.121 838.54C705.377 833.002 705.97 826.953 705.486 821.226C705.035 815.896 704.01 810.537 702.83 805.325C701.017 797.321 698.956 789.17 695.91 781.542C693.67 775.935 690.549 770.285 688.858 764.534C685.862 754.344 692.963 743.369 695.222 733.491C696.56 727.641 696.954 721.351 697.023 715.366C697.212 698.9 694.58 681.43 691.102 665.386C689.252 656.851 684.342 646.858 684.939 638.161C685.631 628.077 692.602 621.816 697.002 613.368C704.954 598.101 708.021 573.958 702.723 557.464L702.375 560.092C703.051 578.064 700.396 590.203 691.02 605.743C684.464 618.035 675.591 625.285 661.122 625.646C644.457 626.061 627.558 618.394 614.369 608.507C611.188 606.123 600.541 596.164 597.499 597.764L596.913 596.092C618.206 580.025 640.879 557.151 651.998 532.68C659.671 515.795 665.159 494.145 661.818 475.562C660.4 467.676 657.22 459.602 654.376 452.092Z"/><path fill="#C0ADA8" d="M702.375 560.092C702.255 559.383 700.961 553.257 702.037 553.299C702.646 553.742 703.063 556.487 702.723 557.464L702.375 560.092Z"/><path fill="#8D7D79" d="M824.429 590.341L826.548 591.385C816.56 608.311 807.786 624.949 801.731 643.777C794.164 667.308 791.321 694.624 787.83 719.125C786.875 730.308 783.391 743.929 783.938 755.019C784.487 766.172 786.901 780.669 789.919 791.154C795.047 808.975 797.337 821.945 818.393 823.261C830.094 823.993 840.015 834.657 843.273 846.062C843.525 846.974 843.734 847.898 843.9 848.83C824.091 849.25 803.38 848.174 783.246 848.455C779.133 837.492 777.802 833.579 770.776 824.042C770.355 817.292 769.886 811.345 768.111 804.762C765.294 794.316 761.939 784.001 756.975 774.353C754.568 769.584 749.419 764.519 748.468 759.19C747.248 752.357 751.944 744.714 753.711 738.249C757.675 723.748 754.124 709.014 751.29 694.591C749.706 686.528 745.629 676.915 746.416 668.456C748.461 659.042 756.873 643.409 763.24 636.063C772.233 625.689 783.136 623.282 794.278 615.286C794.987 614.902 795.098 614.91 795.605 614.336C796.711 613.631 799.365 611.943 800.095 610.998C799.796 607.458 801.502 605.536 804.711 603.846C807.762 602.241 810.2 599.858 813.807 599.684C814.541 599.245 815.895 598.334 816.44 597.653C817.26 596.631 814.303 595.992 813.992 595.279C813.808 594.857 813.477 594.675 813.715 594.185C814.008 593.581 814.449 593.192 814.984 592.851C816.302 599.992 821.994 593.029 824.429 590.341Z"/><path fill="#FEFEFE" d="M800.095 610.998C799.796 607.458 801.502 605.536 804.711 603.846C807.762 602.241 810.2 599.858 813.807 599.684C809.767 603.178 804.315 607.819 800.095 610.998Z"/><path fill="#6C4124" d="M541.07 822.086C540.916 810.485 533.491 785.739 528.066 776.506C517.535 758.581 517.159 758.31 524.949 738.29C528.437 725.922 526.085 709.047 523.658 696.875C520.227 679.663 517.003 676.362 524.299 659.588C530.054 646.357 536.021 635.263 549.085 627.445C555.271 623.745 561.133 620.963 567.087 617.396C577.542 611.041 587.511 603.921 596.913 596.092L597.499 597.764L597.026 598.671C595.035 602.447 592.237 606.127 590.164 609.855C574.03 638.875 565.008 670.206 561.04 703.069C560.271 709.436 559.047 716.119 558.273 722.519C557.434 732.413 554.247 744.757 554.82 754.542C555.615 768.124 558.716 784.647 562.484 797.51C567.364 814.169 571.643 820.854 589.28 822.939C600.968 824.321 612.47 837.309 614.888 849.071L577.04 848.97C571.154 848.951 564.71 849.06 558.83 848.703C557.265 848.608 557.242 848.307 556.296 847.404C553.877 846.975 554.036 847.025 551.835 848.162C551.144 847.81 547.6 842.292 549.404 841.168C549.887 841.522 551.423 842.809 551.901 842.832C553.515 842.91 551.889 840.041 552.455 838.707L552.768 837.987C552.258 832.78 544.986 825.31 541.07 822.086Z"/><path fill="#FEFEFE" d="M552.768 837.987C554.212 839.849 556.287 845.057 556.296 847.404C553.877 846.975 554.036 847.025 551.835 848.162C551.144 847.81 547.6 842.292 549.404 841.168C549.887 841.522 551.423 842.809 551.901 842.832C553.515 842.91 551.889 840.041 552.455 838.707L552.768 837.987Z"/><path fill="#6C4124" d="M343.273 610.219C348.67 610.165 351.78 610.443 356.998 611.779C352.446 634.442 325.925 669.17 313.704 689.213C306.132 701.631 296.558 712.555 289.876 726.422C278.403 750.234 282.201 778.381 289.705 802.831C297.583 826.409 305.861 818.916 323.349 826.508C332.611 830.53 338.39 839.786 341.568 849.243C334.515 849.485 327.433 849.288 320.375 849.165C309.24 848.918 294.752 849.432 284.022 848.113C268.883 844.712 272.425 824.827 269.016 813.789C264.096 797.863 258.821 781.564 252.021 766.354C250.348 762.613 246.741 755.888 247.435 751.886C249.169 741.889 255.13 732.924 258.282 723.329C261.787 712.925 264.229 702.655 266.629 692.003C271.07 688.021 276.893 685.086 281.603 681.31C298.361 667.963 311.245 650.478 321.08 631.571C326.939 620.306 329.31 611.853 343.273 610.219Z"/><path fill="#8D7D79" d="M452.84 651.19C452.952 652.062 452.9 652.143 453.303 652.864C455.059 660.13 456.054 669.009 457.658 676.484C459.543 685.264 461.528 693.279 462.608 702.225C452.333 710.457 433.448 728.942 428.009 740.929C422.712 753.049 423.675 795.927 428.192 806.986C439.432 834.504 463.793 810.932 476.979 849.14C468.656 849.674 456.44 848.839 447.524 848.713C438.053 848.58 425.697 849.108 416.484 847.567C413.523 847.072 410.359 843.65 409.086 841.004C404.953 832.417 406.357 820.468 405.442 810.988C405.102 805.187 404.195 799.719 403.47 793.94C401.093 774.989 393.94 755.706 392.502 736.841C391.765 727.175 405.522 718.876 411.684 712.443C424.371 699.196 437.487 685.062 446.256 668.755C449.007 663.614 451.027 656.772 452.84 651.19Z"/><path fill="#8D7D79" d="M377.869 618.617C390.838 622.401 404.725 630.869 417.766 635.368C427.595 638.759 434.516 639.512 444.704 640.846C441.416 659.399 430.984 675.366 416.535 687.188C418.368 678.023 417.905 671.349 417.098 662.036C412.185 676.432 408.343 684.102 396.863 694.468C387.665 702.774 379.961 707.149 368.376 711.501C356.797 714.743 345.824 716.164 334.157 712.562C344.582 712.112 350.543 708.353 358.835 702.496C339.563 707.004 325.368 710.626 305.979 703.55C317.135 700.807 327.71 696.089 337.203 689.619C362.973 672.015 372.433 647.967 377.869 618.617Z"/><path fill="#8D7D79" d="M855.472 246.659C855.629 248.523 854.285 254.731 853.842 257.001C851.333 269.851 853.831 278.737 857.414 290.842C852.587 289.665 848.02 288.964 843.121 288.211C841.832 287.854 840.359 287.669 838.958 287.297C837.705 280.019 836.78 273.712 837.041 266.28C842.736 257.839 848.724 253.56 855.472 246.659Z"/><path fill="#6C4124" d="M634.902 246.465C635.058 248.935 634.385 251.556 634.043 254.005L633.599 256.989C631.401 271.509 631.051 274.148 635.143 288.313C630.636 287.4 626.453 286.003 621.928 285.541C619.954 285.217 618.378 285.095 616.429 284.87C615.654 278.84 614.762 273.21 614.994 267.113C619.004 262.264 630.175 250.537 634.902 246.465Z"/><path fill="#FEFEFE" fill-opacity="0.8392157" d="M791.282 608.41C794.838 605.242 800.143 602.654 804.057 599.268C808.619 595.323 813.495 591.767 817.682 587.319C818.778 586.155 819.03 585.411 819.944 586.891C818.078 589.962 817.628 590.485 814.984 592.851C814.449 593.192 814.008 593.581 813.715 594.185C813.477 594.675 813.808 594.857 813.992 595.279C814.303 595.992 817.26 596.631 816.44 597.653C815.895 598.334 814.541 599.245 813.807 599.684C810.2 599.858 807.762 602.241 804.711 603.846C801.502 605.536 799.796 607.458 800.095 610.998C799.365 611.943 796.711 613.631 795.605 614.336C795.803 613.065 795.718 611.459 796.776 610.605C797.976 609.638 799.596 608.29 799.005 606.555C797.654 605.425 795.017 609.107 793.238 610.073C792.636 609.545 791.918 608.873 791.282 608.41Z"/><path fill="#FEFEFE" fill-opacity="0.12156863" d="M819.944 586.891C820.795 585.166 820.028 585.48 821.552 583.572C823.523 586.912 822.04 585.688 825.306 586.323C825.512 586.363 826.356 587.905 826.918 588.442C826 589.228 825.409 589.645 824.429 590.341C821.994 593.029 816.302 599.992 814.984 592.851C817.628 590.485 818.078 589.962 819.944 586.891Z"/><path fill="#FEFEFE" fill-opacity="0.58039218" d="M793.238 610.073C795.017 609.107 797.654 605.425 799.005 606.555C799.596 608.29 797.976 609.638 796.776 610.605C795.718 611.459 795.803 613.065 795.605 614.336C795.098 614.91 794.987 614.902 794.278 615.286C794.145 614.074 793.255 610.6 793.238 610.073Z"/><path fill="#FEFEFE" fill-opacity="0.078431375" d="M854.534 516.963C854.083 508.882 857.188 518.568 857.778 520.47C854.493 519.547 855.588 520.219 854.534 516.963Z"/><path fill="#C0ADA8" fill-opacity="0.30980393" d="M558.083 556.764C557.978 554.454 557.821 539.709 558.229 538.237C558.52 538.622 558.572 538.895 558.733 539.373C558.635 540.262 558.563 541.11 558.488 542C558.528 545.674 558.608 553.427 558.083 556.764Z"/><path fill="#654C35" fill-opacity="0.96078432" d="M677.151 439.603C679.067 438.931 680.826 438.35 682.733 437.614C683.694 438.702 683.598 438.692 684.861 439.226C683.442 439.552 678.819 439.55 677.151 439.603Z"/><path fill="#94877F" d="M826.918 588.442C827.22 588.262 827.81 587.8 828.199 587.887C828.718 588.374 826.83 590.941 826.548 591.385L824.429 590.341C825.409 589.645 826 589.228 826.918 588.442Z"/><path fill="#94877F" fill-opacity="0.96862745" d="M859.961 535.35C860.698 535.774 861.429 536.21 862.152 536.659C859.979 540.103 860.287 537.964 859.961 535.35Z"/><path fill="#654C35" d="M634.973 536.353C635.698 536.594 636.42 536.843 637.14 537.1C635.307 540.52 635.442 539.692 634.973 536.353Z"/><path fill="#DED0CD" fill-opacity="0.1254902" d="M218.457 535.101C218.562 534.912 218.847 534.211 219.18 534.087C219.234 534.067 219.267 534.086 219.316 534.102C219.705 534.553 219.437 535.427 219.359 535.923L218.457 535.101Z"/><path fill="#C0ADA8" fill-opacity="0.57647061" d="M452.84 651.19C453.809 651.291 453.413 651.996 453.303 652.864C452.9 652.143 452.952 652.062 452.84 651.19Z"/><path fill="#DED0CD" fill-opacity="0.015686275" d="M558.733 539.373C558.904 540.245 559.076 541.096 559.225 541.971L558.488 542C558.563 541.11 558.635 540.262 558.733 539.373Z"/></svg>