<?xml version="1.0" encoding="utf-8" ?><svg xmlns="http://www.w3.org/2000/svg" xmlns:xlink="http://www.w3.org/1999/xlink" width="1024" height="1024" viewBox="0 0 1024 1024"><path fill="#161312" d="M493.084 102.765C507.16 105.128 522.526 108.098 536.551 110.881C543.183 121.858 549.737 133.326 556.482 144.152C565.416 147.454 574.37 150.85 583.321 154.106C588.349 155.934 599.974 159.609 604.093 161.888C605.802 166.171 607.045 171.684 608.175 176.221L615.66 206.884C616.651 210.785 618.184 217.414 619.573 221.058C622.411 223.319 630.524 228.997 632.55 230.842C636.784 233.434 653.113 244.739 656.611 248.106L660.273 250.974C661.868 267.707 664.043 285.231 665.941 302.005C667.49 315.688 668.805 332.101 670.789 345.581C682.731 359.057 695.273 371.943 706.99 385.537C708.182 394.078 708.066 411.955 708.17 421.084C708.342 442.19 708.691 463.294 709.218 484.394C709.37 492.788 708.988 508.289 709.839 515.77C710.91 525.196 722.521 543.932 727.262 553.215C734.991 568.35 732.902 566.789 732.492 583.265C732.169 596.36 731.675 609.45 731.01 622.531C730.165 638.632 728.116 650.297 733.484 665.643C736.898 675.405 739.42 686.833 742.15 696.883C745.059 712.586 744.224 732.563 746.321 748.098L747.033 747.696C759.057 740.824 769.487 727.527 785.957 731.556C798.17 734.542 809.314 750.435 814.958 760.777C822.701 774.962 832.749 800.96 828.696 817.435C842.342 817.498 851.702 818.991 861.995 829.074C867.198 834.171 873.686 844.342 873.624 851.812C873.607 853.148 873.56 854.485 873.483 855.819C885.013 856.717 912.775 857.274 921.596 862.887C908.615 868.028 873.417 869.478 858.143 870.487C814.794 873.362 771.391 875.374 727.962 876.522C720.397 888.302 707.503 881.659 696.8 882.622C688.641 883.356 687.392 886.926 681.132 879.785C672.563 880.229 592.157 883.361 591.799 883.582C594.584 898.431 577.913 899.932 572.432 888.272C551.824 884.464 526.505 885.577 505.208 885.61L462.225 885.541C455.214 885.528 445.415 885.22 438.569 885.626C429.524 886.163 418.72 887.719 409.548 888.731C407.481 893.218 405.382 895.931 400.544 897.889C396.803 899.367 390.761 899.513 387.698 896.514C385.977 894.829 383.821 894.848 381.672 894.108C372.768 891.044 376.258 886.129 381.098 881.713C376.523 880.653 365.765 880.899 360.46 880.792L329.401 879.931C306.701 879.327 284.045 877.522 261.317 877.121C254.447 876.999 247.501 878.365 240.63 878.745C234.596 879.079 204.931 879.528 202.092 874.492C201.86 874.08 201.686 873.379 201.555 872.912C185.563 868.99 117.993 869.151 107.752 862.827L107.85 862.02C112.983 859.031 129.311 858.364 136.638 857.066C140.752 841.182 153.855 835.942 168.825 840.981C161.145 798.816 186.623 770.19 225.812 757.212C239.796 752.581 249.388 753.656 263.621 755.88C265.077 746.926 267.458 737.261 269.456 728.311C271.681 717.986 273.976 707.676 276.339 697.382C277.808 691.237 280.56 681.718 281.575 675.79C283.163 666.519 281.81 651.881 283.521 642.486L283.891 642.064C284.12 640.319 284.215 639.869 284.698 638.174C285.117 639.644 285.141 640.136 286.025 641.385L286.295 640.649C285.003 636.668 285.819 619.687 287.052 615.39C289.049 608.422 295.233 601.368 297.052 593.653C299.641 582.672 300.461 571.493 303.258 560.592C304.999 554.135 309.412 546.737 312.725 540.851C313.966 542.577 315.387 544.366 316.685 546.067L317.592 543.681C313.081 538.024 306.893 527.506 302.863 521.058L303.933 512.02L309.125 472.998C310.702 460.676 312.266 442.472 315.809 430.73C316.152 429.592 322.797 420.366 323.838 418.904L342.906 392.612C344.391 390.14 349.027 385.614 348.736 383.168C344.283 378.059 335.324 360.733 330.818 353.573C334.92 335.763 353.643 229.792 357.925 223.762C360.405 220.271 364.321 217.339 367.504 214.492C376.228 206.688 389.631 196.112 396.608 187.025C402.99 178.712 408.618 156.359 414.279 150.436C419.913 144.541 435.152 136.374 442.633 131.224C443.118 128.205 461.332 117.557 464.928 115.552C472.923 111.096 485.674 107.796 493.084 102.765ZM329.503 865.547C326.556 865.942 325.084 867.292 323.747 869.81L323.606 870.07C323.936 870.628 323.888 870.833 324.538 870.653C324.973 871.412 325.403 872.174 325.828 872.939C326.408 873.965 326.66 874.013 327.032 873.015C326.883 873.054 333.065 869.33 333.389 869.129C334.947 868.894 336.507 868.552 338.038 868.369C346.019 866.825 346.91 864.141 354.815 865.16C354.78 859.92 352.363 854.755 346.265 856.24C344.766 852.708 348.933 852.403 342.078 848.462C340.092 848.533 339.641 848.524 337.716 848.993L337.023 849.707C335.158 851.56 334.304 859.92 333.498 862.78C332.789 865.291 332.001 864.717 329.503 865.547ZM234.607 859.469C234.87 859.4 235.1 859.406 235.254 859.22C235.073 858.98 234.886 858.852 234.626 858.66L234.474 857.474C226.098 855.487 214.799 859.67 210.049 866.919C214.738 869.153 223.072 869.068 227.688 866.82C229.458 865.957 235.906 861.832 234.607 859.469ZM706.483 879.051C714.614 881.316 719.024 873.981 713.906 867.652C713.635 867.317 710.982 868.392 710.363 868.573C710.189 866.885 710.644 865.888 710.927 864.21L711.461 862.347C709.066 857.948 707.593 856.263 702.963 858.602C700.155 862.142 701.726 861.865 697.5 863.502C693.83 866.015 695.023 866.323 694.367 870.469C691.601 871.072 689.558 871.381 687.047 872.661L685.722 873.472C681.867 875.872 682.75 879.085 686.156 881.384C687.74 878.791 687.831 878.723 688.983 875.609C690.961 875.941 693.943 877.969 695.466 877.148C698.085 875.736 698.198 876.444 700.763 875.868C700.813 876.177 700.868 876.52 700.918 876.846L702.796 876.471C703.92 877.86 704.784 878.415 706.483 879.051ZM532.088 868.88C529.677 866.431 533.013 867.167 528.374 865.136C524.744 864.7 519.831 865.771 519.894 869.753C520.021 877.769 529.22 876.715 532.999 872.483C532.614 871.244 532.419 870.132 532.088 868.88ZM461.326 870.119C464.399 874.832 467.916 876.782 473.421 875.413C472.18 874.386 473.194 874.971 472.901 873.789C471.974 871.476 470.933 872.38 470.519 869.523C469.529 862.69 474.743 865.372 475.698 862.147L474.589 861.959C471.623 859.99 471.166 862.058 470.658 863.601C470.626 863.7 467.366 865.617 467.141 866.321C465.979 867.678 463.236 867.997 461.445 868.507C461.486 869.198 461.425 869.426 461.326 870.119ZM527.639 858.95C528.002 858.819 528.366 858.688 528.729 858.557C529.329 859.012 529.916 859.453 530.504 859.923C533.241 860.484 531.549 855.939 533.972 855.262C535.704 854.779 536.184 858.731 537.228 859.222C537.751 857.722 537.883 855.35 539.382 855.11C538.143 845.014 525.717 848.433 527.639 858.95ZM378.287 863.833C379.421 864.588 379.909 865.061 380.904 865.986C381.613 866.84 382.302 867.708 382.972 868.592C383.443 868.98 385.858 871.423 386.591 870.166C386.616 868.624 384.748 868.216 383.94 866.853C383.211 865.98 382.551 865.208 381.776 864.372C381.102 863.785 380.102 863.735 379.886 863.014C378.87 859.628 383.793 859.549 383.711 858.002C382.452 856.058 380.72 859.728 378.702 858.962C377.993 860.496 377.638 862.193 378.287 863.833ZM589.186 866.109C586.324 867.392 585.137 865.891 583.26 868.079C587.621 868.576 587.474 868.545 590.042 871.987C592.151 872.891 592.124 873.896 594.214 873.351C594.5 869.279 593.55 866.887 589.186 866.109ZM463.375 848.17C463.294 846.395 463.551 845.701 461.914 846.719C460.477 848.066 461.984 847.916 463.375 848.17Z"/><path fill="#161312" d="M464.822 116.5C477.405 119.817 495.722 125.371 507.909 127.8C511.009 133.749 516.351 141.682 520.085 147.483C523.903 153.416 528.701 161.372 532.796 166.84C542.26 170.286 552.356 173.27 561.534 176.688C567.086 190.114 572.823 203.464 578.745 216.731C586.959 235.469 584.742 232.91 600.532 246.035C599.259 255.16 599.582 267.359 599.139 276.884C598.722 285.848 596.562 300.267 599.551 308.387C603.24 318.412 611.212 330.177 614.49 340.534C615.241 353.235 613.093 371.35 612.638 384.528C619.972 391.206 627.099 398.108 634.008 405.225C634.149 418.754 634.046 432.284 633.7 445.81L608.487 427.21C601.404 421.973 594.247 416.924 587.894 410.806C587.108 417.307 586.321 421.9 589.907 427.724C598.924 442.368 615.39 454.155 627.302 466.376L636.757 524.175C638.393 533.838 641.207 546.383 642.178 555.664C640.804 557.027 636.934 560.657 635.863 561.941L595.134 605.08C591.065 609.401 579.832 620.857 576.721 625.212C576.391 635.183 575.962 645.949 575.883 655.892C578.589 659.628 581.067 662.768 583.992 666.341C581.441 671.199 578.267 676.936 575.974 681.831C576.953 692.94 579.319 709.626 581.328 720.695C575.464 727.717 563.56 739.102 556.781 746.094L504.753 799.987C492.131 799.829 479.508 799.78 466.885 799.842C459.425 799.891 448.302 800.273 441.116 799.668C417.208 775.431 393.663 746.429 369.446 722.259C370.447 709.641 371.741 696.153 372.126 683.555C367.234 682.828 360.201 682.363 355.716 681.368C362.043 675.351 368.208 669.165 374.204 662.817C374.615 651.687 375.392 632.279 374.683 621.626C367.715 613.657 360.796 605.645 353.926 597.593C352.936 596.441 345.34 587.598 344.46 586.895C337.075 578.193 323.758 561.658 315.811 554.622C316.291 551.386 316.614 549.344 316.685 546.067L317.592 543.681C313.081 538.024 306.893 527.506 302.863 521.058L303.933 512.02L309.125 472.998C310.702 460.676 312.266 442.472 315.809 430.73C316.152 429.592 322.797 420.366 323.838 418.904L342.906 392.612C344.391 390.14 349.027 385.614 348.736 383.168C344.283 378.059 335.324 360.733 330.818 353.573C334.92 335.763 353.643 229.792 357.925 223.762C360.405 220.271 364.321 217.339 367.504 214.492C376.228 206.688 389.631 196.112 396.608 187.025C402.99 178.712 408.618 156.359 414.279 150.436C419.913 144.541 435.152 136.374 442.633 131.224C445.425 129.643 448.168 127.87 450.891 126.163C455.711 122.627 459.782 119.727 464.822 116.5Z"/><path fill="#A68A76" d="M464.822 116.5C477.405 119.817 495.722 125.371 507.909 127.8C511.009 133.749 516.351 141.682 520.085 147.483C523.903 153.416 528.701 161.372 532.796 166.84C542.26 170.286 552.356 173.27 561.534 176.688C567.086 190.114 572.823 203.464 578.745 216.731C586.959 235.469 584.742 232.91 600.532 246.035C599.259 255.16 599.582 267.359 599.139 276.884C598.722 285.848 596.562 300.267 599.551 308.387C603.24 318.412 611.212 330.177 614.49 340.534C615.241 353.235 613.093 371.35 612.638 384.528C619.972 391.206 627.099 398.108 634.008 405.225C634.149 418.754 634.046 432.284 633.7 445.81L608.487 427.21C601.404 421.973 594.247 416.924 587.894 410.806C588.203 408.536 588.526 406.435 588.645 404.141C586.997 404.977 578.911 409.232 577.472 409.32C565.918 410.028 554.057 409.409 542.454 409.395C539.274 409.391 530.675 405.663 527.235 404.611C523.72 405.449 519.466 406.588 515.974 407.254C516.293 394.852 517.24 382.203 517.041 369.818C516.953 364.351 514.648 356.867 514.684 351.188C514.715 346.109 516.581 341.106 516.754 336.002C516.869 332.612 514.463 327.392 514.539 324.547C514.856 312.766 517.233 299.681 516.834 287.997C516.427 276.096 513.792 262.48 513.314 250.672C506.404 249.328 498.002 247.34 491.098 246.51C487.137 246.034 478.257 248.655 473.92 249.725C469.861 248.219 465.731 246.729 461.697 245.173C455.22 248.006 448.656 250.635 442.014 253.057C441.758 261.765 441.427 270.472 441.02 279.175C438.915 282.559 436.572 286.098 434.981 289.724C438.689 307.513 442.675 321.506 441.672 339.835C441.013 351.878 441.79 350.362 437.59 361.865C438.825 364.013 440.985 367.476 441.314 369.811C442.579 378.787 441.269 389.128 441.05 398.183C438.024 401.187 434.021 405.405 430.727 407.914C421.135 405.29 417.189 404.241 407.359 407.491C394.217 411.834 385.185 406.843 373.916 400.323C373.89 409.247 373.91 418.172 373.978 427.097C366.433 437.451 351.648 448.215 342.937 458.068C340.669 460.635 333.487 466.198 332.153 468.882L330.922 475.255C324.521 479.433 312.157 506.229 303.933 512.02L309.125 472.998C310.702 460.676 312.266 442.472 315.809 430.73C316.152 429.592 322.797 420.366 323.838 418.904L342.906 392.612C344.391 390.14 349.027 385.614 348.736 383.168C344.283 378.059 335.324 360.733 330.818 353.573C334.92 335.763 353.643 229.792 357.925 223.762C360.405 220.271 364.321 217.339 367.504 214.492C376.228 206.688 389.631 196.112 396.608 187.025C402.99 178.712 408.618 156.359 414.279 150.436C419.913 144.541 435.152 136.374 442.633 131.224C445.425 129.643 448.168 127.87 450.891 126.163C455.711 122.627 459.782 119.727 464.822 116.5Z"/><path fill="#EB8B4C" d="M450.891 126.163C451.246 127.677 448.465 131.728 447.372 132.616C444.354 134.631 436.914 142.685 433.664 145.662C430.467 148.591 422.77 153.58 421.065 155.886C414.993 164.096 410.867 186.151 404.805 193.599C395.639 204.86 378.261 216.392 368.373 226.936C365.097 238.627 342.754 329.008 344.486 336.253C345.376 339.299 345.817 352.382 345.905 356.215C346.065 363.202 351.602 378.06 348.736 383.168C344.283 378.059 335.324 360.733 330.818 353.573C334.92 335.763 353.643 229.792 357.925 223.762C360.405 220.271 364.321 217.339 367.504 214.492C376.228 206.688 389.631 196.112 396.608 187.025C402.99 178.712 408.618 156.359 414.279 150.436C419.913 144.541 435.152 136.374 442.633 131.224C445.425 129.643 448.168 127.87 450.891 126.163Z"/><path fill="#F8B380" d="M368.373 226.936C378.261 216.392 395.639 204.86 404.805 193.599C410.867 186.151 414.993 164.096 421.065 155.886C422.77 153.58 430.467 148.591 433.664 145.662C436.914 142.685 444.354 134.631 447.372 132.616C420.357 180.967 392.15 228.614 365.028 276.828C363.056 280.333 359.124 305.323 357.755 311.215C361.412 311.159 365.511 310.982 369.101 311.404C361.174 320.204 352.984 328.021 344.486 336.253C342.754 329.008 365.097 238.627 368.373 226.936Z"/><path fill="#EB8B4C" d="M342.906 392.612C343.458 394.352 343.374 394.727 342.61 396.737C339.267 400.268 324.593 427.891 323.458 433.069C320.843 444.997 320.218 464.397 319.621 477.181L324.658 473.39C327.729 471.977 328.555 470.141 332.153 468.882L330.922 475.255C324.521 479.433 312.157 506.229 303.933 512.02L309.125 472.998C310.702 460.676 312.266 442.472 315.809 430.73C316.152 429.592 322.797 420.366 323.838 418.904L342.906 392.612Z"/><path fill="#F8B380" d="M319.621 477.181C320.218 464.397 320.843 444.997 323.458 433.069C324.593 427.891 339.267 400.268 342.61 396.737C339.636 406.992 336.564 417.219 333.397 427.416C340.807 428.1 349.314 429.014 356.735 429.04C348.544 434.578 339.659 439.111 331.331 444.459C329.463 453.34 326.137 465.067 324.658 473.39L319.621 477.181Z"/><path fill="#161312" d="M534.447 197.753C537.466 199.26 545.578 205.145 547.647 207.837C551.678 213.084 557.513 224.334 558.463 230.891C558.978 234.442 557.932 243.224 558.796 246.526C559.429 248.946 563.405 253.937 564.771 257.175C563.689 257.981 561.6 258.023 560.175 258.188L559.003 292.423C561.111 295.872 566.962 304.054 570.137 306.474C574.029 309.442 590.299 321.588 592.381 325.271L590.414 325.884C576.638 326.456 560.533 329.231 546.735 328.52C545.748 328.469 538.104 325.484 536.543 324.907C536.934 315.869 538.725 304.155 537.503 295.412C537.193 293.193 533.862 284.86 532.937 282.406C533.643 280.275 536.845 273.597 537.044 272.156C537.868 266.183 537.379 257.991 537.26 251.761C537.06 241.34 537.384 230.56 536.969 220.221C536.697 213.43 535.356 204.52 534.447 197.753Z"/><path fill="#161312" d="M417.682 196.887L417.936 197.147C418.59 198.998 418.657 245.828 418.672 251.308C418.676 252.811 414.726 264.515 414.952 270.617C415.258 278.925 418.659 279.419 419.062 285.662C419.217 288.073 418.549 297.598 418.381 300.52C417.787 310.889 417.124 321.253 416.392 331.612C414.614 330.408 411.226 328.018 409.286 327.72C399.138 326.161 383.732 327.821 373.264 328.419L362.977 328.544C370.402 321.767 380.776 313.944 388.818 306.968L392.665 273.946C394.544 257.554 395.097 251.445 392.762 234.946C396.513 227.242 402.691 219.241 407.563 212.076C410.994 207.031 414.256 201.896 417.682 196.887Z"/><path fill="#161312" d="M371.145 346.561C375.583 347.215 382.354 351.1 386.45 352.189C393.583 354.085 405.85 351.802 413.949 351.41C416.429 364.13 418.313 377.253 421.164 389.867C416.334 388.425 410.856 387.318 405.886 386.553C399.822 385.042 384.299 389.18 376.852 390.458C369.512 382.025 362.083 374.168 358.326 363.46C356.898 359.392 356.041 355.438 354.639 351.452L354.464 350.964C359.549 349.967 366.047 347.973 371.145 346.561Z"/><path fill="#161312" d="M538.234 347.235C540.999 348.38 548.887 351.719 551.752 351.998C566.244 353.41 582.905 351.614 597.67 351.662C594.096 358.128 589.005 365.115 586.662 371.861C586.121 373.417 585.143 379.423 584.734 381.473C582.043 384.582 578.186 387.381 574.862 389.758C560.244 388.222 547.597 388.115 533.142 387.125C534.584 374.002 536.53 360.357 538.234 347.235Z"/><path fill="#161312" d="M504.089 160.7C505.432 160.39 504.785 160.395 506.049 160.848C507.852 163.51 509.278 167.378 510.535 170.422C513.067 170.468 515.405 170.688 517.921 170.901C515.477 178.484 512.768 184.864 510.528 192.83C513.583 202.919 516.354 211.61 519.887 221.601L517.536 227.342L504.125 227.29L486.224 227.373C486.125 219.776 486.103 212.178 486.16 204.581C487.526 202.592 488.838 200.434 490.13 198.385C487.616 187.079 485.666 175.158 483.69 163.725C489.139 162.522 498.302 161.509 504.089 160.7Z"/><path fill="#161312" d="M460.645 162.046C461.489 162.69 466.607 177.479 467.454 179.783C461.511 197.398 465.31 210.4 465.55 229.046C457.498 228.424 449.44 227.887 441.377 227.435C440.618 227.446 439.81 227.352 439.043 227.292C437.731 225.118 440.203 185.401 440.421 180.19C437.61 177.45 435.612 175.206 433.036 172.226C441.345 168.724 451.754 165.603 460.645 162.046Z"/><path fill="#C36630" d="M303.933 512.02C312.157 506.229 324.521 479.433 330.922 475.255C327.592 495.511 323.125 515.545 319.224 535.694C318.707 538.36 318.284 541.053 317.592 543.681C313.081 538.024 306.893 527.506 302.863 521.058L303.933 512.02Z"/><defs><linearGradient id="gradient_0" gradientUnits="userSpaceOnUse" x1="362.00089" y1="592.07654" x2="580.87854" y2="363.50192"><stop offset="0" stop-color="#FF8A3E"/><stop offset="1" stop-color="#BC8C6A"/></linearGradient></defs><path fill="url(#gradient_0)" d="M463.462 274.668L490.766 275.026C491.182 289.531 492.432 301.921 487.74 315.505C489.108 318.133 490.524 320.735 491.99 323.31C492.17 332.257 491.118 343.228 490.496 352.288C490.155 357.229 488.66 362.75 488.768 367.689C489.207 387.929 491.187 408.276 491.643 428.495C494.435 428.199 496.84 427.411 499.541 426.655C503.333 427.758 516.115 432.771 518.178 433.069C527.723 434.45 544.362 433.192 554.417 432.775L603.266 481.037C604.1 484.502 604.768 487.413 605.353 490.922L575.624 488.113C562.287 486.861 559.392 485.978 546.016 489.297C533.11 492.499 524.902 496.584 514.203 504.93C510.851 507.696 497.376 536.867 494.161 542.974L517.982 662.148C512.239 661.151 506.274 660.235 500.64 658.8C495.299 657.682 477.16 653.191 472.511 653.913C459.118 655.996 444.71 661.149 431.343 663.539L430.763 663.314C429.827 660.684 449.578 570.64 451.674 560.927C452.054 557.031 454.759 545.966 455.678 541.876C450.762 530.007 445.164 516.531 439.861 504.908C425.512 496.15 412.04 487.662 394.489 486.957C391.104 487.62 386.983 487.806 383.502 488.131C372.864 489.124 361.671 490.312 351.026 490.941C351.78 487.012 352.907 483.233 353.659 479.423C355.54 476.376 360.238 471.077 362.644 468.341C370.173 465.685 377.755 463.511 385.471 460.722L373.303 456.526C379.983 448.979 387.542 441.355 394.626 434.174C405.863 433.558 417.092 432.809 428.311 431.929C427.639 434.341 426.805 436.767 426.026 439.152C438.215 434.655 450.454 431.03 462.52 426.555C464.511 400.563 465.119 373.435 466.48 347.331C466.774 341.702 465.109 330.409 464.574 324.413C466.398 320.337 469.177 315.482 471.329 311.482C468.465 308.936 466.096 306.672 463.386 303.96C462.935 295.571 463.425 283.317 463.462 274.668Z"/><path fill="#C36630" d="M499.541 426.655C503.333 427.758 516.115 432.771 518.178 433.069C527.723 434.45 544.362 433.192 554.417 432.775L603.266 481.037C604.1 484.502 604.768 487.413 605.353 490.922L575.624 488.113C562.287 486.861 559.392 485.978 546.016 489.297C533.11 492.499 524.902 496.584 514.203 504.93C510.851 507.696 497.376 536.867 494.161 542.974L517.982 662.148C512.239 661.151 506.274 660.235 500.64 658.8C502.217 657.566 497.452 589.63 497.252 581.711C497.222 580.525 496.743 574.096 496.155 573.071C489.489 561.443 482.874 549.791 476.372 538.032C479.75 531.657 508.037 482.741 510.192 480.999C514.435 477.57 520.757 475.117 525.617 472.441C534.769 467.403 543.803 462.132 552.88 456.958C536.52 452.958 515.409 450.821 498.076 447.748C489.889 452.051 481.782 457.277 473.303 461.002C476.204 454.759 487.648 432.329 491.643 428.495C494.435 428.199 496.84 427.411 499.541 426.655Z"/><path fill="#F8B380" d="M451.674 560.927C452.638 562.002 452.904 561.953 452.934 563.583C453.077 571.343 452.08 579.347 452.206 587.087C452.511 605.853 451.402 624.928 451.576 643.641C456.852 643.563 461.556 643.584 466.811 642.878C459.384 647.772 452.219 651.755 444.222 655.615C440.212 657.551 434.245 660.266 431.343 663.539L430.763 663.314C429.827 660.684 449.578 570.64 451.674 560.927Z"/><path fill="#C36630" d="M353.659 479.423C359.323 480.442 391.444 485.045 394.489 486.957C391.104 487.62 386.983 487.806 383.502 488.131C372.864 489.124 361.671 490.312 351.026 490.941C351.78 487.012 352.907 483.233 353.659 479.423Z"/><path fill="#C36630" d="M594.344 512.329C597.437 512.538 609.943 513.624 612.142 515.407L612.169 517.338C612.956 525.074 613.647 533.439 614.638 541.104C605.29 552.652 594.14 564.609 584.126 575.688L545.178 619.001C546.953 629.134 550.403 639.404 552.326 649.612C553.515 655.926 551.79 663.863 552.567 669.49C554.077 680.436 558.27 692.516 560.804 703.39C551.369 713.527 541.559 723.314 532.167 733.492C530.521 735.276 528.863 737.048 527.122 738.74C511.385 730.789 494.292 723.662 478.813 715.74C478.755 713.604 478.653 711.341 478.655 709.216L492.495 707.118C494.225 706.665 496.669 706.273 498.479 705.924C502.481 700.827 506.402 694.876 510.425 689.631C514.863 683.843 519.51 678.081 523.852 672.272C522.009 662.472 521.12 652.223 519.688 642.307C515.143 610.847 512.361 578.977 507.769 547.569C520.818 551.284 543.85 556.897 557.975 550.582C565.543 547.198 579.956 534.493 586.096 528.574C588.127 526.616 592.855 515.637 594.344 512.329Z"/><path fill="#EB8B4C" d="M594.344 512.329C597.437 512.538 609.943 513.624 612.142 515.407L612.169 517.338C591.843 540.136 571.109 566.391 550.266 588.483C539.243 577.667 526.696 565.187 515.221 555.064C517.273 564.806 518.938 574.776 520.672 584.592C526.199 615.884 532.641 647.013 538.638 678.217C539.272 681.519 540.22 685.218 541.164 688.43C536.203 695.267 525.146 706.689 519 712.704C514.668 711.805 494.832 708.662 492.495 707.118C494.225 706.665 496.669 706.273 498.479 705.924C502.481 700.827 506.402 694.876 510.425 689.631C514.863 683.843 519.51 678.081 523.852 672.272C522.009 662.472 521.12 652.223 519.688 642.307C515.143 610.847 512.361 578.977 507.769 547.569C520.818 551.284 543.85 556.897 557.975 550.582C565.543 547.198 579.956 534.493 586.096 528.574C588.127 526.616 592.855 515.637 594.344 512.329Z"/><path fill="#EB8B4C" d="M344.571 513.183C349.488 512.468 352.477 512.47 357.48 512.507C359.466 515.832 365.431 528.184 367.129 529.902C372.81 535.648 391.84 549.67 399.188 551.562C414.775 555.576 425.094 552.643 439.746 549.373C438.106 568.604 434.494 591.303 432.063 610.78L426.576 653.829C425.837 659.704 425.341 666.646 424.417 672.292C430.34 681.1 441.004 697.981 447.199 705.695C450.991 706.632 453.747 707.039 457.638 707.583C461.555 708.035 465.69 708.731 469.608 709.322L469.506 715.411C453.574 722.243 435.761 731.861 419.756 739.393C409.544 727.347 398.456 715.932 388.191 704.051C389.072 699.87 389.623 696.361 390.22 692.121C390.962 687.117 391.948 679.295 393.356 674.649C396.232 665.16 399.709 656.202 402.51 646.581C400.371 648.162 397.992 650.01 395.804 651.471L403.474 618.562C396.527 604.425 387.555 587.282 379.829 573.455C380.96 579.752 382.24 586.517 382.791 592.88C373.942 580.748 364.359 569.509 354.582 558.129C349.292 551.973 343.319 544.001 337.936 538.277C340.325 529.706 342.333 521.72 344.571 513.183Z"/><path fill="#C36630" d="M390.22 692.121C396.34 696.328 404.953 700.797 411.417 704.517C419.478 709.155 427.502 713.95 435.584 718.521C440.15 716.091 455.5 709.61 457.638 707.583C461.555 708.035 465.69 708.731 469.608 709.322L469.506 715.411C453.574 722.243 435.761 731.861 419.756 739.393C409.544 727.347 398.456 715.932 388.191 704.051C389.072 699.87 389.623 696.361 390.22 692.121Z"/><path fill="#C36630" d="M473.346 736.979C475.994 736.544 518.888 757.596 524.454 760.657C519.413 762.869 512.284 764.911 506.916 766.444C501.517 764.898 499.037 762.914 492.854 762.444C488.587 762.119 481.206 764.817 478.446 763.69L478.752 763.001L478.729 761.513C477.269 759.601 473.117 761.436 470.449 762.049C446.685 767.508 448.035 768.405 426.074 760.165C442.275 752.999 457.477 743.981 473.346 736.979Z"/><path fill="#EB8B4C" d="M378.306 509.426C381.561 509.497 384.455 509.558 387.704 509.848C393.529 509.874 401.043 509.237 406.444 509.889C420.74 514.984 422.707 516.735 432.435 528.905C433.137 529.455 435.15 531.638 435.953 532.422C428.903 532.516 422.028 532.218 414.999 532.002C409.113 531.821 406.006 530.061 400.579 528.409C392.569 524.962 386.533 520.309 381.183 513.326C380.2 512.044 379.241 510.744 378.306 509.426Z"/><path fill="#EB8B4C" d="M378.306 509.426C381.561 509.497 384.455 509.558 387.704 509.848C393.529 509.874 401.043 509.237 406.444 509.889C406.002 511.75 403.895 518.36 402.835 519.677L403.324 519.735C402.844 521.978 402.007 526.7 400.579 528.409C392.569 524.962 386.533 520.309 381.183 513.326C380.2 512.044 379.241 510.744 378.306 509.426Z"/><path fill="#F8B380" d="M387.704 509.848C393.529 509.874 401.043 509.237 406.444 509.889C406.002 511.75 403.895 518.36 402.835 519.677C397.266 517.355 392.152 514.11 386.693 511.645C384.75 510.768 381.655 511.763 380.44 510.938C380.238 510.517 380.2 510.617 380.3 510.246C381.031 510.222 382.434 511.159 384.101 510.507C384.341 510.413 385.264 510.203 385.6 510.153L387.704 509.848Z"/><path fill="#C36630" d="M403.324 519.735C408.682 521.174 427.619 531.457 432.435 528.905C433.137 529.455 435.15 531.638 435.953 532.422C428.903 532.516 422.028 532.218 414.999 532.002C409.113 531.821 406.006 530.061 400.579 528.409C402.007 526.7 402.844 521.978 403.324 519.735Z"/><path fill="#F8B380" d="M569.719 509.528C571.704 509.381 573.046 509.13 571.69 511.331C565.161 521.93 557.616 527.515 546.052 531.188C545.452 531.28 544.851 531.363 544.249 531.437C535.672 532.396 527.051 532.896 518.421 532.937C519.492 531.774 522.611 528.105 523.575 527.354C529.916 520.598 540.248 511.474 549.499 509.721C550.167 509.877 550.173 509.908 550.754 509.949C555.351 509.266 564.768 509.451 569.719 509.528Z"/><path fill="#C36630" d="M569.719 509.528C571.704 509.381 573.046 509.13 571.69 511.331C565.161 521.93 557.616 527.515 546.052 531.188C546.337 527.786 546.782 524.547 547.108 521.225L547.388 520.966C547.572 520.234 547.773 519.483 547.917 518.744L548.415 516.244C548.843 514.049 549.124 511.918 549.499 509.721C550.167 509.877 550.173 509.908 550.754 509.949C555.351 509.266 564.768 509.451 569.719 509.528Z"/><path fill="#EB8B4C" d="M550.754 509.949C555.351 509.266 564.768 509.451 569.719 509.528C568.965 510.175 568.894 510.28 568.045 510.714C565.443 511.858 562.001 514.03 559.224 515.44C555.184 517.491 551.485 519.086 547.388 520.966C547.572 520.234 547.773 519.483 547.917 518.744L548.415 516.244C548.843 514.049 549.124 511.918 549.499 509.721C550.167 509.877 550.173 509.908 550.754 509.949Z"/><path fill="#D4753F" d="M550.754 509.949C555.351 509.266 564.768 509.451 569.719 509.528C568.965 510.175 568.894 510.28 568.045 510.714C565.051 509.243 555.524 510.428 550.754 509.949Z"/><path fill="#EB8B4C" d="M523.575 527.354C527.942 528.998 542.085 522.168 547.108 521.225C546.782 524.547 546.337 527.786 546.052 531.188C545.452 531.28 544.851 531.363 544.249 531.437C535.672 532.396 527.051 532.896 518.421 532.937C519.492 531.774 522.611 528.105 523.575 527.354Z"/><path fill="#A68A76" d="M312.725 540.851C313.966 542.577 315.387 544.366 316.685 546.067C316.614 549.344 316.291 551.386 315.811 554.622C323.758 561.658 337.075 578.193 344.46 586.895C345.34 587.598 352.936 596.441 353.926 597.593C360.796 605.645 367.715 613.657 374.683 621.626C375.392 632.279 374.615 651.687 374.204 662.817C368.208 669.165 362.043 675.351 355.716 681.368C360.201 682.363 367.234 682.828 372.126 683.555C371.741 696.153 370.447 709.641 369.446 722.259C393.663 746.429 417.208 775.431 441.116 799.668C448.302 800.273 459.425 799.891 466.885 799.842C479.508 799.78 492.131 799.829 504.753 799.987L556.781 746.094C563.56 739.102 575.464 727.717 581.328 720.695C579.319 709.626 576.953 692.94 575.974 681.831C578.267 676.936 581.441 671.199 583.992 666.341C581.067 662.768 578.589 659.628 575.883 655.892C575.962 645.949 576.391 635.183 576.721 625.212C579.832 620.857 591.065 609.401 595.134 605.08L635.863 561.941L639.206 608.161C631.331 630.355 621.053 652.835 613.637 674.969C619.165 667.71 624.832 660.558 630.634 653.516C634.26 649.113 639.212 643.559 642.418 639.008C643.029 643.162 642.964 650.32 643.056 654.681C643.285 664.175 643.44 673.67 643.521 683.166C631.88 697.418 617.406 710.528 605.691 724.835C603.913 727.006 601.8 729.372 599.898 731.448C609.628 727.061 619.442 722.861 629.333 718.85C619.383 735.981 609.482 754.256 599.343 771.078C592.158 774.419 569.677 784.219 564.328 788.445C561.321 790.82 547.306 810.223 544.07 814.537L467.971 816.667C460.819 816.799 453.65 817.176 446.504 817.065C449.284 813.977 451.571 811.94 454.688 809.153C440.217 812.414 426.973 814.128 411.966 817.898C406.949 811.31 401.926 804.605 396.827 798.091C396.213 799.207 396.03 799.603 395.577 800.79C395.588 802.286 395.906 804.853 396.049 806.428C383.188 802.84 364.761 799.204 351.433 796.134C347.87 787.408 344.217 778.718 340.475 770.067C324.498 762.685 306.881 753.921 290.904 746.143C291.129 736.478 292.349 724.917 293.1 715.102C288.794 708.41 283.462 702.685 279.079 695.513C280.477 690.325 281.809 685.119 283.073 679.896L283.606 680.474C290.479 687.859 302.427 695.698 308.416 701.914C316.562 710.371 333.17 731.451 339.326 741.247L340.362 740.803C337.782 734.491 334.392 728.021 331.594 721.734C327.468 712.461 323.12 703.156 318.722 694.011C312.843 681.784 305.142 670.493 298.822 658.436L297.241 655.94C292.883 650.618 290.03 646.457 286.295 640.649C285.003 636.668 285.819 619.687 287.052 615.39C289.049 608.422 295.233 601.368 297.052 593.653C299.641 582.672 300.461 571.493 303.258 560.592C304.999 554.135 309.412 546.737 312.725 540.851Z"/><path fill="#EB8B4C" d="M312.725 540.851C313.966 542.577 315.387 544.366 316.685 546.067C316.614 549.344 316.291 551.386 315.811 554.622C323.758 561.658 337.075 578.193 344.46 586.895C342.32 587.689 334.004 586.156 330.992 585.807C324.25 580.015 317.094 573.106 309.962 567.855C308.446 586.678 307.903 601.844 297.045 618.109C297.005 628.402 296.427 646.095 297.241 655.94C292.883 650.618 290.03 646.457 286.295 640.649C285.003 636.668 285.819 619.687 287.052 615.39C289.049 608.422 295.233 601.368 297.052 593.653C299.641 582.672 300.461 571.493 303.258 560.592C304.999 554.135 309.412 546.737 312.725 540.851Z"/><path fill="#F8B380" d="M309.962 567.855C317.094 573.106 324.25 580.015 330.992 585.807C334.683 589.474 337.682 592.479 341.993 595.417C332.509 594.527 320.371 593.991 310.787 593.921C316.533 602.848 329.501 622.031 333.735 630.775C323.763 628.311 314.07 625.147 304.129 622.576C303.612 627.202 300.11 655.856 298.822 658.436L297.241 655.94C296.427 646.095 297.005 628.402 297.045 618.109C307.903 601.844 308.446 586.678 309.962 567.855Z"/><path fill="#564D46" d="M395.577 800.79C395.469 799.619 394.948 797.533 395.195 796.478C395.262 796.19 396.123 796.988 396.097 797.102C396.087 797.144 396.811 798.069 396.827 798.091C396.213 799.207 396.03 799.603 395.577 800.79Z"/><path fill="#040303" d="M340.362 740.803C341.878 743.513 340.925 743.252 339.326 741.247L340.362 740.803Z"/><path fill="#60564D" d="M649.122 629.807C651.326 637.196 657.458 671.107 657.203 678.154C656.95 685.143 654.848 692.653 653.568 699.536C651.115 712.725 648.643 726.036 646.821 739.324L630.819 745.63C624.29 758.043 617.921 771.35 611.789 784.01C601.927 790.139 584.19 797.982 575.58 804.47C570.398 808.375 558.098 825.923 553.818 831.857C542.869 833.08 530.487 834.632 519.611 836.581C497.296 840.58 475.613 840.263 453.054 840.419C435.137 840.543 417.209 841.453 399.321 841.547C395.35 836.631 387.105 825.708 383.31 821.691C368.031 819.267 352.361 818.205 336.827 815.703C332.81 806.268 328.187 788.272 324.724 777.61C315.962 776.774 304.918 775.788 296.309 774.32C288.514 767.831 274.952 759.713 266.158 753.524C270.913 734.263 274.079 714.741 279.079 695.513C283.462 702.685 288.794 708.41 293.1 715.102C292.349 724.917 291.129 736.478 290.904 746.143C306.881 753.921 324.498 762.685 340.475 770.067C344.217 778.718 347.87 787.408 351.433 796.134C364.761 799.204 383.188 802.84 396.049 806.428C395.906 804.853 395.588 802.286 395.577 800.79C396.03 799.603 396.213 799.207 396.827 798.091C401.926 804.605 406.949 811.31 411.966 817.898C426.973 814.128 440.217 812.414 454.688 809.153C451.571 811.94 449.284 813.977 446.504 817.065C453.65 817.176 460.819 816.799 467.971 816.667L544.07 814.537C547.306 810.223 561.321 790.82 564.328 788.445C569.677 784.219 592.158 774.419 599.343 771.078C609.482 754.256 619.383 735.981 629.333 718.85C619.442 722.861 609.628 727.061 599.898 731.448C601.8 729.372 603.913 727.006 605.691 724.835C617.406 710.528 631.88 697.418 643.521 683.166C643.44 673.67 643.285 664.175 643.056 654.681C642.964 650.32 643.029 643.162 642.418 639.008C644.556 636.038 646.883 632.651 649.122 629.807Z"/><path fill="#60564D" d="M600.532 246.035C604.622 248.912 618.861 260.513 622.457 264.194C621.962 275.933 621.295 287.664 620.458 299.384C616.494 296.529 612.863 293.833 608.467 291.623C617.861 310.908 627.142 330.248 636.312 349.641C638.372 353.903 650.436 377.37 650.52 380.312C651.084 400.161 647.419 428.175 647.033 448.301C646.814 459.75 650.002 468.547 650.712 478.312C646.386 476.283 642.72 473.16 639.013 470.146C644.61 482.147 651.895 494.38 656.948 506.459C660.106 514.006 662.644 525.605 665.314 533.766C660.087 545.214 651.297 560.225 645.229 572.098C645.929 581.866 648.136 588.845 643.73 597.271C643.192 598.3 639.498 607.185 639.206 608.161L635.863 561.941C636.934 560.657 640.804 557.027 642.178 555.664C641.207 546.383 638.393 533.838 636.757 524.175L627.302 466.376C615.39 454.155 598.924 442.368 589.907 427.724C586.321 421.9 587.108 417.307 587.894 410.806C594.247 416.924 601.404 421.973 608.487 427.21L633.7 445.81C634.046 432.284 634.149 418.754 634.008 405.225C627.099 398.108 619.972 391.206 612.638 384.528C613.093 371.35 615.241 353.235 614.49 340.534C611.212 330.177 603.24 318.412 599.551 308.387C596.562 300.267 598.722 285.848 599.139 276.884C599.582 267.359 599.259 255.16 600.532 246.035Z"/><path fill="#60564D" d="M564.352 177.414C568.917 178.749 575.164 181.527 579.698 183.39C582.958 195.635 588.163 209.963 591.81 222.907C603.611 225.974 618.746 226.857 630.179 231.451C631.604 232.024 635.035 234.676 636.423 235.734C636.03 232.653 633.02 233.916 632.55 230.842C636.784 233.434 653.113 244.739 656.611 248.106C656.508 249.473 656.459 249.548 656.686 250.879C645.678 254.386 635.224 258.851 624.296 262.642C613.72 251.627 597.513 242.62 587.463 230.945C586.647 229.997 581.313 216.873 580.413 214.777L564.352 177.414Z"/><path fill="#040303" d="M632.55 230.842C636.784 233.434 653.113 244.739 656.611 248.106C656.508 249.473 656.459 249.548 656.686 250.879C653.17 248.304 638.54 238.111 636.423 235.734C636.03 232.653 633.02 233.916 632.55 230.842Z"/><path fill="#D2AF95" d="M573.294 839.702C579.747 822.211 603.57 812.331 619.416 805.407C634.127 798.98 647.925 792.848 664.242 794.085C678.142 796.429 687.643 801.607 696.266 813.008C705.332 824.371 705.6 838.652 691.891 846.778C664.523 863.001 626.881 864.945 595.851 860.192C585.627 858.626 571.155 852.284 573.294 839.702Z"/><path fill="#F3DECA" d="M573.294 839.702C579.747 822.211 603.57 812.331 619.416 805.407C634.127 798.98 647.925 792.848 664.242 794.085C665.076 803.663 663.551 811.067 657.327 818.717C645.849 832.825 621.175 837.85 604.11 839.364C598.02 839.904 578.849 840.573 573.294 839.702Z"/><path fill="#60564D" d="M170.639 813.582C174.118 801.436 178.918 791.105 188.005 782.16C205.752 764.689 227.573 756.565 251.961 756.276C253.566 757.668 253.787 760.631 253.883 762.775C254.444 775.36 251.441 787.451 243.048 797.027C236.939 803.996 229.214 808.107 223.369 813.762L232.239 819.598C221.745 831.731 205.387 843.878 188.782 845.523C167.331 847.647 167.187 829.736 170.639 813.582Z"/><path fill="#A68A76" d="M170.639 813.582C174.118 801.436 178.918 791.105 188.005 782.16C205.752 764.689 227.573 756.565 251.961 756.276C236.421 787.101 206.342 812.438 170.639 813.582Z"/><path fill="#A68A76" d="M703.177 797.602C707.797 781.588 717.382 774.825 729.724 764.813C735.726 759.931 741.752 755.08 747.803 750.26C757.296 742.805 770.769 731.604 783.575 733.201C785.842 733.484 789.177 734.796 790.315 736.929C799.986 755.06 780.25 766.559 767.896 774.949C773.773 775.688 779.654 776.392 785.539 777.062L788.703 777.041L789.116 777.624C779.631 794.431 767.436 806.628 748.404 812.243C737.145 815.565 696.904 819.493 703.177 797.602Z"/><path fill="#60564D" d="M785.539 777.062L788.703 777.041L789.116 777.624C779.631 794.431 767.436 806.628 748.404 812.243C737.145 815.565 696.904 819.493 703.177 797.602C703.279 797.641 703.377 797.689 703.482 797.719C705.107 798.179 781.847 779.357 785.539 777.062Z"/><path fill="#A68A76" d="M239.398 842.388C240.333 818.369 269.496 794.846 292.577 794.44C302.67 796.061 315.092 800.756 319.897 809.133C342.859 849.162 286.256 862.855 258.163 856.159C248.412 853.835 241.573 851.451 239.398 842.388Z"/><path fill="#D2AF95" d="M239.398 842.388C240.333 818.369 269.496 794.846 292.577 794.44C291.727 824.908 266.869 839.074 239.398 842.388Z"/><path fill="#A68A76" d="M730.707 854.395L730.783 853.782C731.53 847.312 736.731 842.967 741.975 839.705C753.011 832.839 766.799 829.51 779.616 832.361C785.773 834.972 794.008 839.512 795.785 846.792C798.601 858.333 781.15 862.187 772.879 863.345C762.21 864.839 735.829 867.286 730.707 854.395Z"/><path fill="#D2AF95" d="M730.707 854.395L730.783 853.782C731.53 847.312 736.731 842.967 741.975 839.705C753.011 832.839 766.799 829.51 779.616 832.361C772.902 843.715 749.343 851.852 736.751 853.602L730.707 854.395Z"/><path fill="#FBE2C9" d="M457.415 851.403L457.546 852.411C457.979 856.39 459.501 856.409 459.711 861.118C460.21 863.516 460.909 866.015 461.445 868.507C461.486 869.198 461.425 869.426 461.326 870.119C454.616 869.845 415.137 879.042 407.152 882.035C406.983 891.254 401.22 899.551 391.37 894.996C379.867 888.884 381.328 882.07 390.132 874.922C387.166 870.953 381.116 873.857 378.287 863.833C379.421 864.588 379.909 865.061 380.904 865.986C381.613 866.84 382.302 867.708 382.972 868.592C383.443 868.98 385.858 871.423 386.591 870.166C386.616 868.624 384.748 868.216 383.94 866.853C383.211 865.98 382.551 865.208 381.776 864.372C381.102 863.785 380.102 863.735 379.886 863.014C378.87 859.628 383.793 859.549 383.711 858.002C382.452 856.058 380.72 859.728 378.702 858.962C383.849 850.595 394.059 859.983 398.905 863.919C413.233 864.324 441.935 860.423 456.296 855.869C456.949 855.662 457.235 852.482 457.415 851.403Z"/><path fill="#D2AF95" d="M459.711 861.118C460.21 863.516 460.909 866.015 461.445 868.507C461.486 869.198 461.425 869.426 461.326 870.119C454.616 869.845 415.137 879.042 407.152 882.035C406.983 891.254 401.22 899.551 391.37 894.996C391.865 893.926 391.857 894.271 391.759 893.092C390.876 882.515 397.251 880.317 401.595 870.306C402.785 870.859 406.311 872.463 407.349 872.779C419.867 876.587 448.527 867.103 459.711 861.118Z"/><path fill="#60564D" d="M519.507 125.037C522.157 126.641 539.355 151.656 543.069 156.325C556.386 156.855 570.793 155.763 583.861 157.084C587.901 157.492 598.517 161.491 602.442 163.071C599.748 166.125 591.65 172.042 587.979 174.844C585.304 176.873 583.093 178.338 580.266 180.155C571.943 177.531 563.77 174.665 555.503 171.888C548.277 169.46 540.757 167.364 533.66 164.626C526.242 152.157 518.388 139.953 510.112 128.036C513.574 127.147 516.134 126.246 519.507 125.037Z"/><path fill="#60564D" d="M829.138 820.181C841.977 818.828 851.959 822.579 861.408 831.163C852.946 836.368 849.003 837.41 840.041 840.687C836.58 841.473 832.963 842.739 829.506 843.153C824.254 843.782 812.065 846.776 810.81 839.001C809.886 833.273 815.695 826.186 820.156 823.176C823.623 820.766 825.272 820.661 829.138 820.181Z"/><path fill="#60564D" d="M491.357 105.005C495 104.939 509.57 108.125 514.115 108.979C520.359 110.152 528.622 111.449 534.703 112.846C525.943 118.917 522.016 121.504 512.103 125.029C507.705 126.281 475.674 117.006 469.261 115.012C476.712 111.868 484.08 108.531 491.357 105.005Z"/><path fill="#F3DECA" d="M530.504 859.923C533.241 860.484 531.549 855.939 533.972 855.262C535.704 854.779 536.184 858.731 537.228 859.222C537.751 857.722 537.883 855.35 539.382 855.11C539.376 857.149 539.381 859.031 539.24 861.076C552.026 863.606 564.758 866.399 577.429 869.451C581.241 866.126 584.055 864.555 589.186 866.109C586.324 867.392 585.137 865.891 583.26 868.079C578.839 870.471 575.736 871.187 574.14 876.691C574.162 878.465 574.491 880.224 573.093 881.365L566.508 879.865C565.577 879.643 564.646 879.388 563.72 879.153L561.726 878.648L558.509 877.874L555.491 877.115L554.509 876.885C553.511 876.641 552.49 876.37 551.492 876.135L549.493 875.661C545.391 874.696 537.019 872.569 532.999 872.483C532.614 871.244 532.419 870.132 532.088 868.88C529.677 866.431 533.013 867.167 528.374 865.136C529.026 864.872 529.462 864.604 530.078 864.266C530.091 863.246 528.219 860.607 527.639 858.95C528.002 858.819 528.366 858.688 528.729 858.557C529.329 859.012 529.916 859.453 530.504 859.923Z"/><path fill="#D2AF95" d="M532.088 868.88C532.185 868.714 533.091 866.968 533.51 867.036C540.697 868.196 547.78 871.092 554.99 872.605C561.28 873.925 567.736 876.054 574.14 876.691C574.162 878.465 574.491 880.224 573.093 881.365L566.508 879.865C565.577 879.643 564.646 879.388 563.72 879.153L561.726 878.648L558.509 877.874L555.491 877.115L554.509 876.885C553.511 876.641 552.49 876.37 551.492 876.135L549.493 875.661C545.391 874.696 537.019 872.569 532.999 872.483C532.614 871.244 532.419 870.132 532.088 868.88Z"/><path fill="#D2AF95" d="M142.974 856.985C132.461 855.246 150.75 836.547 165.242 842.222C186.723 856.041 152.582 859.421 142.974 856.985Z"/><path fill="#A68A76" d="M165.242 842.222C186.723 856.041 152.582 859.421 142.974 856.985C144.089 856.267 144.615 856.199 145.771 855.585C151.157 852.725 157.016 850.601 162.251 847.492C163.999 846.454 164.543 843.969 165.242 842.222Z"/><path fill="#D2AF95" d="M583.26 868.079C587.621 868.576 587.474 868.545 590.042 871.987C592.151 872.891 592.124 873.896 594.214 873.351C592.521 876.051 593.344 875.729 590.668 877.608C581.133 877.164 590.465 884.913 588.819 889.208C587.166 893.518 585.049 894.049 580.554 893.312C572.912 892.137 575.56 881.97 573.093 881.365C574.491 880.224 574.162 878.465 574.14 876.691C575.736 871.187 578.839 870.471 583.26 868.079Z"/><path fill="#FBE2C9" d="M590.042 871.987C592.151 872.891 592.124 873.896 594.214 873.351C592.521 876.051 593.344 875.729 590.668 877.608C590.39 875.615 590.425 874.019 590.042 871.987Z"/><path fill="#D2AF95" d="M234.474 857.474C241.334 859.429 256.172 867.463 244.256 872.555C239.923 874.406 204.249 876.196 210.049 866.919C214.738 869.153 223.072 869.068 227.688 866.82C229.458 865.957 235.906 861.832 234.607 859.469C234.87 859.4 235.1 859.406 235.254 859.22C235.073 858.98 234.886 858.852 234.626 858.66L234.474 857.474Z"/><path fill="#F3DECA" d="M457.415 851.403C457.893 848.604 459.396 845.846 461.692 844.2C467.665 839.919 475.69 844.229 473.717 851.807C472.986 854.612 471.381 856.129 469.86 858.444C472.11 859.536 474.551 860.342 476.179 862.073L475.698 862.147L474.589 861.959C471.623 859.99 471.166 862.058 470.658 863.601C470.626 863.7 467.366 865.617 467.141 866.321C465.979 867.678 463.236 867.997 461.445 868.507C460.909 866.015 460.21 863.516 459.711 861.118C459.501 856.409 457.979 856.39 457.546 852.411L457.415 851.403ZM463.375 848.17C463.294 846.395 463.551 845.701 461.914 846.719C460.477 848.066 461.984 847.916 463.375 848.17Z"/><path fill="#F3DECA" fill-opacity="0.94901961" d="M461.914 846.719C463.551 845.701 463.294 846.395 463.375 848.17C461.984 847.916 460.477 848.066 461.914 846.719Z"/><path fill="#FBE2C9" fill-opacity="0.98039216" d="M342.078 848.462C348.933 852.403 344.766 852.708 346.265 856.24C352.363 854.755 354.78 859.92 354.815 865.16C346.91 864.141 346.019 866.825 338.038 868.369C336.507 868.552 334.947 868.894 333.389 869.129C331.73 868.121 328.959 871.626 328.005 871.475C327.428 870.655 328.145 868.802 328.626 868.037C328.812 867.74 329.166 868.253 329.57 868.259C330.23 868.268 331.275 867.931 331.749 867.518L331.71 867.525L331.988 867.135C331.737 865.803 330.585 866.357 329.503 865.547C332.001 864.717 332.789 865.291 333.498 862.78C334.304 859.92 335.158 851.56 337.023 849.707L337.716 848.993C337.683 849.32 335.849 857.991 339.825 853.934C343.507 850.177 344.651 852.688 342.078 848.462ZM350.894 859.075C350.313 857.726 349.369 858.131 347.948 858.072L348.403 858.666C349.321 859.908 349.696 859.958 350.894 859.075Z"/><path fill="#FBE2C9" fill-opacity="0.67058825" d="M347.948 858.072C349.369 858.131 350.313 857.726 350.894 859.075C349.696 859.958 349.321 859.908 348.403 858.666L347.948 858.072Z"/><path fill="#F3DECA" fill-opacity="0.98823529" d="M210.049 866.919C214.799 859.67 226.098 855.487 234.474 857.474L234.626 858.66C227.992 857.845 225.242 860.139 234.607 859.469C235.906 861.832 229.458 865.957 227.688 866.82C223.072 869.068 214.738 869.153 210.049 866.919Z"/><defs><linearGradient id="gradient_1" gradientUnits="userSpaceOnUse" x1="707.02393" y1="875.28046" x2="703.49036" y2="865.68774"><stop offset="0" stop-color="#FAE8D7" stop-opacity="0.81960785"/><stop offset="1" stop-color="#FAE0C6" stop-opacity="0.88235295"/></linearGradient></defs><path fill="url(#gradient_1)" d="M703.018 864.679C705.003 864.615 708.264 864.689 710.087 864.347L710.927 864.21C710.644 865.888 710.189 866.885 710.363 868.573C711.201 869.564 712.545 875.085 711.7 875.693C710.45 876.592 707.19 876.783 706.483 879.051C704.784 878.415 703.92 877.86 702.796 876.471C701.698 873.893 700.135 872.101 698.806 869.686C698.144 868.484 697.369 869.7 696.25 867.588C699.783 867.981 699.798 867.106 702.666 864.94L703.018 864.679Z"/><path fill="#FBE2C9" d="M532.999 872.483C529.22 876.715 520.021 877.769 519.894 869.753C519.831 865.771 524.744 864.7 528.374 865.136C533.013 867.167 529.677 866.431 532.088 868.88C532.419 870.132 532.614 871.244 532.999 872.483ZM523.33 869.649C523.171 866.377 522.237 867.637 521.466 869.945C521.979 873.388 523.137 873.501 523.33 869.649Z"/><path fill="#F3DECA" fill-opacity="0.36470589" d="M521.466 869.945C522.086 869.841 522.708 869.743 523.33 869.649C523.137 873.501 521.979 873.388 521.466 869.945Z"/><path fill="#F3DECA" fill-opacity="0.49019608" d="M521.466 869.945C522.237 867.637 523.171 866.377 523.33 869.649C522.708 869.743 522.086 869.841 521.466 869.945Z"/><path fill="#FBE2C9" fill-opacity="0.90588236" d="M694.367 870.469C695.023 866.323 693.83 866.015 697.5 863.502C697.109 865.594 697.147 865.589 696.25 867.588C697.369 869.7 698.144 868.484 698.806 869.686C700.135 872.101 701.698 873.893 702.796 876.471L700.918 876.846C700.868 876.52 700.813 876.177 700.763 875.868C698.198 876.444 698.085 875.736 695.466 877.148C693.943 877.969 690.961 875.941 688.983 875.609C688.352 874.394 687.77 873.773 687.047 872.661C689.558 871.381 691.601 871.072 694.367 870.469Z"/><path fill="#FDEDDA" fill-opacity="0.90196079" d="M461.445 868.507C463.236 867.997 465.979 867.678 467.141 866.321C467.366 865.617 470.626 863.7 470.658 863.601C471.166 862.058 471.623 859.99 474.589 861.959C474.247 861.991 473.191 862.025 472.905 862.218C472.898 862.25 472.891 862.282 472.884 862.314C473.055 862.477 473.227 862.64 473.398 862.803C473.435 862.833 473.472 862.864 473.508 862.895L473.973 863.05C475.047 863.426 474.697 862.799 474.589 861.959L475.698 862.147C474.743 865.372 469.529 862.69 470.519 869.523C470.933 872.38 471.974 871.476 472.901 873.789C473.194 874.971 472.18 874.386 473.421 875.413C467.916 876.782 464.399 874.832 461.326 870.119C461.425 869.426 461.486 869.198 461.445 868.507Z"/><path fill="#FDEDDA" d="M476.179 862.073C480.909 865.689 479.423 872.649 473.945 875.166L473.421 875.413C472.18 874.386 473.194 874.971 472.901 873.789C471.974 871.476 470.933 872.38 470.519 869.523C469.529 862.69 474.743 865.372 475.698 862.147L476.179 862.073Z"/><path fill="#FBE2C9" fill-opacity="0.76862746" d="M527.639 858.95C525.717 848.433 538.143 845.014 539.382 855.11C537.883 855.35 537.751 857.722 537.228 859.222C536.184 858.731 535.704 854.779 533.972 855.262C531.549 855.939 533.241 860.484 530.504 859.923C534.286 852.51 527.907 852.328 528.729 858.557C528.366 858.688 528.002 858.819 527.639 858.95Z"/><path fill="#D2AF95" d="M333.389 869.129C334.947 868.894 336.507 868.552 338.038 868.369C337.913 868.802 337.788 869.236 337.663 869.67C334.684 872.159 334.618 875.79 333.196 876.696C328.02 879.994 322.81 875.186 323.606 870.07C323.936 870.628 323.888 870.833 324.538 870.653C324.973 871.412 325.403 872.174 325.828 872.939C326.408 873.965 326.66 874.013 327.032 873.015C326.883 873.054 333.065 869.33 333.389 869.129Z"/><path fill="#D2AF95" d="M338.038 868.369C346.019 866.825 346.91 864.141 354.815 865.16C350.666 872.949 345.572 870.921 337.663 869.67C337.788 869.236 337.913 868.802 338.038 868.369Z"/><path fill="#FDEDDA" fill-opacity="0.48627451" d="M710.363 868.573C710.982 868.392 713.635 867.317 713.906 867.652C719.024 873.981 714.614 881.316 706.483 879.051C707.19 876.783 710.45 876.592 711.7 875.693C712.545 875.085 711.201 869.564 710.363 868.573ZM714.15 873.235C715.042 870.452 715.696 869.607 712.595 868.537C712.29 871.254 710.954 872.748 714.15 873.235Z"/><path fill="#F3DECA" fill-opacity="0.25098041" d="M712.595 868.537C715.696 869.607 715.042 870.452 714.15 873.235C710.954 872.748 712.29 871.254 712.595 868.537Z"/><path fill="#D2AF95" d="M688.983 875.609C690.961 875.941 693.943 877.969 695.466 877.148C698.085 875.736 698.198 876.444 700.763 875.868C700.813 876.177 700.868 876.52 700.918 876.846C696.667 878.981 690.834 881.689 686.156 881.384C687.74 878.791 687.831 878.723 688.983 875.609Z"/><path fill="#FDEDDA" fill-opacity="0.89411765" d="M589.186 866.109C593.55 866.887 594.5 869.279 594.214 873.351C592.124 873.896 592.151 872.891 590.042 871.987C587.474 868.545 587.621 868.576 583.26 868.079C585.137 865.891 586.324 867.392 589.186 866.109Z"/><path fill="#F3DECA" fill-opacity="0.49803922" d="M697.5 863.502C701.726 861.865 700.155 862.142 702.963 858.602C702.878 859.068 702.819 859.54 702.778 860.013C702.711 860.774 702.433 861.417 702.197 862.139C702.068 862.533 702.02 863.076 702.248 863.441C702.469 863.794 702.825 863.964 703.225 864.042C704.786 864.347 706.675 863.986 708.264 863.882C709.253 863.817 709.86 863.417 710.666 862.871C710.929 862.693 711.196 862.522 711.461 862.347L710.927 864.21L710.087 864.347C708.264 864.689 705.003 864.615 703.018 864.679L702.666 864.94C699.798 867.106 699.783 867.981 696.25 867.588C697.147 865.589 697.109 865.594 697.5 863.502Z"/><path fill="#FBE2C9" fill-opacity="0.38039216" d="M337.716 848.993C339.641 848.524 340.092 848.533 342.078 848.462C344.651 852.688 343.507 850.177 339.825 853.934C335.849 857.991 337.683 849.32 337.716 848.993Z"/><path fill="#F3DECA" fill-opacity="0.94509804" d="M323.606 870.07L323.747 869.81C325.084 867.292 326.556 865.942 329.503 865.547C330.585 866.357 331.737 865.803 331.988 867.135L331.71 867.525L331.749 867.518C331.275 867.931 330.23 868.268 329.57 868.259C329.166 868.253 328.812 867.74 328.626 868.037C328.145 868.802 327.428 870.655 328.005 871.475C328.959 871.626 331.73 868.121 333.389 869.129C333.065 869.33 326.883 873.054 327.032 873.015C326.891 869.49 327.631 866.931 324.538 870.653C323.888 870.833 323.936 870.628 323.606 870.07Z"/><path fill="#F3DECA" fill-opacity="0.90196079" d="M378.702 858.962C380.72 859.728 382.452 856.058 383.711 858.002C383.793 859.549 378.87 859.628 379.886 863.014C380.102 863.735 381.102 863.785 381.776 864.372L380.904 865.986C379.909 865.061 379.421 864.588 378.287 863.833C377.638 862.193 377.993 860.496 378.702 858.962Z"/><path fill="#FBE2C9" fill-opacity="0.45882353" d="M528.729 858.557C527.907 852.328 534.286 852.51 530.504 859.923C529.916 859.453 529.329 859.012 528.729 858.557Z"/><path fill="#F3DECA" fill-opacity="0.57647061" d="M234.626 858.66C234.886 858.852 235.073 858.98 235.254 859.22C235.1 859.406 234.87 859.4 234.607 859.469C225.242 860.139 227.992 857.845 234.626 858.66Z"/><path fill="#FBE2C9" fill-opacity="0.34117648" d="M324.538 870.653C327.631 866.931 326.891 869.49 327.032 873.015C326.66 874.013 326.408 873.965 325.828 872.939C325.403 872.174 324.973 871.412 324.538 870.653Z"/><path fill="#F3DECA" fill-opacity="0.88627452" d="M383.94 866.853C384.748 868.216 386.616 868.624 386.591 870.166C385.858 871.423 383.443 868.98 382.972 868.592L383.94 866.853Z"/><path fill="#F3DECA" fill-opacity="0.53333336" d="M381.776 864.372C382.551 865.208 383.211 865.98 383.94 866.853L382.972 868.592C382.302 867.708 381.613 866.84 380.904 865.986L381.776 864.372Z"/><path fill="#FDEDDA" fill-opacity="0.78039217" d="M474.589 861.959C474.697 862.799 475.047 863.426 473.973 863.05L473.508 862.895C473.472 862.864 473.435 862.833 473.398 862.803C473.227 862.64 473.055 862.477 472.884 862.314C472.891 862.282 472.898 862.25 472.905 862.218C473.191 862.025 474.247 861.991 474.589 861.959Z"/><path fill="#040303" fill-opacity="0.98823529" d="M411.497 149.762C426.655 138.061 446.117 127.163 461.947 116.001C464.685 114.069 490.784 102.972 493.084 102.765C485.674 107.796 472.923 111.096 464.928 115.552C461.332 117.557 443.118 128.205 442.633 131.224C435.152 136.374 419.913 144.541 414.279 150.436C408.618 156.359 402.99 178.712 396.608 187.025C389.631 196.112 376.228 206.688 367.504 214.492C364.321 217.339 360.405 220.271 357.925 223.762C353.643 229.792 334.92 335.763 330.818 353.573C335.324 360.733 344.283 378.059 348.736 383.168C349.027 385.614 344.391 390.14 342.906 392.612L323.838 418.904C322.797 420.366 316.152 429.592 315.809 430.73C312.266 442.472 310.702 460.676 309.125 472.998L303.933 512.02L302.863 521.058C306.893 527.506 313.081 538.024 317.592 543.681L316.685 546.067C315.387 544.366 313.966 542.577 312.725 540.851C309.412 546.737 304.999 554.135 303.258 560.592C300.461 571.493 299.641 582.672 297.052 593.653C295.233 601.368 289.049 608.422 287.052 615.39C285.819 619.687 285.003 636.668 286.295 640.649L286.025 641.385C285.141 640.136 285.117 639.644 284.698 638.174C284.215 639.869 284.12 640.319 283.891 642.064L283.521 642.486C283.359 636.264 284.05 615.894 286.535 610.559C288.464 606.415 293.365 600.246 294.912 594.503C297.902 583.405 298.236 570.759 301.217 559.91C302.615 554.821 308.701 543.688 311.427 538.409C307.896 532.763 304.328 527.14 300.726 521.54C305.357 491.675 307.719 459.61 313.422 430.192C313.791 428.291 342.779 389.192 346.094 383.941C344.857 381.299 340.484 374.161 338.832 371.351C335.849 366.281 331.81 358.593 328.514 353.96C334.71 326.314 339.584 297.767 345.458 269.988C348.643 254.926 351.075 237.982 355.162 223.245C362.608 215.69 371.992 207.59 380.026 200.494C391.858 190.043 394.276 188.532 400.811 174.231C404.515 166.138 408.078 157.98 411.497 149.762Z"/></svg>