<?xml version="1.0" encoding="utf-8" ?><svg xmlns="http://www.w3.org/2000/svg" xmlns:xlink="http://www.w3.org/1999/xlink" width="1024" height="1024" viewBox="0 0 1024 1024"><path fill="#85837C" d="M423.581 122.25C444.414 112.866 459.442 108.737 481.495 104.02L515.498 96.6169C526.159 94.2608 538.069 90.4669 548.438 88.5745C553.024 90.3897 561.234 92.8664 564.098 96.5621C563.842 97.9776 563.723 98.1364 563.16 99.4862C564.726 102.109 574.748 101.761 578.055 102.092C583.402 102.65 599.383 106.331 603.698 108.934C608.917 112.084 615.771 124.186 620.787 128.269C631.801 137.235 643.168 146.049 655.392 153.303C661.196 156.735 672.373 162.796 676.771 166.844C677.677 171.885 682.097 192.063 681.501 195.556C681.586 197.256 681.817 198.76 681.888 200.41L682.581 200.894C683.837 201.76 685.974 202.511 686.377 203.596C691.274 216.791 693.781 232.043 696.901 245.785C697.194 247.075 697.472 249.217 697.5 250.337C698.265 256.694 699.147 263.037 700.146 269.361C699.046 270.624 695.411 274.487 695.397 275.946C695.179 275.722 694.961 275.497 694.743 275.273C687.879 278.454 681.405 280.801 674.484 283.742L673.746 284.313C667.594 288.496 663.886 290.803 658.217 295.829C665.087 293.161 677.513 289.666 682.131 285.196C685.443 283.579 689.623 281.922 693.26 281.232C692.101 280.172 690.981 279.506 692.654 278.923C694.421 280.374 695.324 280.197 697.601 280.405C710.095 299.327 708.371 321.43 714.182 342.756C715.563 347.825 721.011 352.638 721.699 357.525C722.224 361.256 722.452 366.309 722.69 370.183C723.299 380.061 724.01 389.902 724.735 399.766C725.39 408.666 729.049 420.503 729.684 428.628C726.967 432.01 723.906 435.52 721.722 439.22C725.486 440.84 728.104 442.054 731.695 444.001C732.176 462.733 735.656 480.26 739.445 498.674C740.111 501.913 744.068 508.239 744.691 511.502C745.97 518.201 746.255 525.793 746.709 532.64C747.511 544.243 748.13 555.858 748.566 567.48C748.444 571.525 747.881 577.917 747.224 581.981C742.16 586.951 733.6 597.734 729.788 603.676C729.324 603.865 729.416 603.794 729.082 604.061L728.951 604.376C729.484 605.574 736.809 604.904 738.116 604.847C739.817 603.786 745.958 604.849 748.845 604.022C751.113 607.859 756.376 620.4 756.82 624.478C759.68 650.771 760.913 677.493 763.055 703.895C763.238 706.158 762.481 708.653 762.464 710.87C762.338 711.586 762.215 712.19 762.062 712.896C761.574 718.554 760.449 725.771 760.56 731.193C761.224 732.027 761.732 732.582 762.454 733.35C762.409 734.805 762.194 738.996 760.579 739.437C760.35 746.967 761.359 767.707 763.406 774.264C773.091 769.199 779.386 766.399 785.091 777.748L785.676 778.928C800.639 776.777 806.99 777.786 820.543 783.846C822.784 784.848 828.142 785.134 831.493 786.378L830.917 787.609L828.492 787.714C832.38 788.236 838.243 788.657 842.059 787.913C850.143 789.032 863.829 789.319 872.561 789.782C886.441 790.478 900.272 791.946 913.99 794.178C915.222 797.294 915.763 797.9 916.69 801.398L915.331 802.831C911.599 806.695 913.672 804.249 916.598 810.323L905.27 811.761C904.01 812.091 903.713 811.992 902.933 812.998C902.389 813.112 899.857 813.369 899.722 814.175C900.061 814.403 904.508 815.248 905.027 815.269C906.518 816.018 907.186 816.472 908.567 817.387C912.081 817.736 925.278 819.812 927.763 821.855L927.797 822.75C919.195 830.709 807.255 830.69 790.128 834.401C788.175 834.825 785.841 835.474 783.823 836.16C795.979 842.136 819.538 839.718 826.71 844.308C823.996 851.041 705.203 851.624 691.327 852.279C687.689 852.451 680.995 852.674 677.656 854.332L677.74 855.038C683.453 858.257 697.075 857.894 704.622 860.646C697.021 862.579 671.828 863.463 665.38 863.655C631.274 864.671 351.204 866.528 340.666 860.325C341.438 859.496 342.645 859.213 343.786 859.098C354.507 858.02 365.59 857.578 376.014 854.694C364.897 851.896 354.344 852.264 342.981 852.049C306.718 851.365 270.285 851.031 234.133 847.879C230.174 847.534 216.96 846.3 214.077 844.646L214.145 844.074C220.775 839.883 248.222 840.811 250.723 837.044L250.46 835.939C246.253 832.693 206.577 832.17 198.505 831.927C175.576 831.275 152.664 830.129 129.784 828.489C119.758 827.685 101.607 826.708 92.8471 822.175C104.24 815.922 124.208 817.606 134.001 813.927L134.248 813.055C130.595 809.277 70.1862 809.953 64.606 802.758L64.9906 801.754C72.054 796.813 108.206 794.836 118.365 793.59C120.853 794.136 131.75 793.176 135.135 793.082C159.558 792.367 184.168 791.749 208.423 788.505C214.481 787.695 209.509 771.088 226.282 770.749C236.472 770.543 239.953 768.329 249.542 775.606C252.441 772.093 254.832 770.8 258.656 768.474C258.488 764.168 253.912 736.164 252.63 732.42C252.327 730.128 251.821 727.874 251.405 725.601C251.222 724.36 250.996 723.125 250.727 721.899C249.905 719.476 249.321 717.269 248.41 714.844C247.729 710.406 245.717 706.836 245.569 700.765C245.206 685.836 247.92 670.324 249.6 655.421C251.477 638.768 253.005 622.309 254.713 605.687C259.767 599.036 268.14 591.318 273.922 584.1C265.67 579.003 265.46 581.469 257.569 572.678C256.421 551.754 259.206 528.248 260.918 507.299C261.397 501.436 265.467 493.525 266.181 486.982C267.452 475.333 267.741 463.665 269.221 452.069C270.511 442.908 277.186 427.68 277.964 418.976C279.004 407.358 278.011 392.398 278.434 380.409C278.494 378.704 278.727 375.351 279.289 373.919C281.26 368.894 289.124 353.999 292.483 350.769C292.035 348.541 291.237 345.862 290.718 343.479C289.847 342.641 286.716 342.038 285.826 340.897C284.468 339.155 285.049 333.743 285.271 331.714C286.008 324.982 286.265 317.033 287.839 310.534C290.038 301.453 293.268 292.273 295.404 283.155C296.743 279.378 296.596 268.773 298.178 265.7C304.632 253.164 307.855 240.553 311.403 226.921C313.756 217.881 314.603 210.174 315.052 200.862C320.557 195.004 325.499 190.457 329.448 183.466C331.518 179.803 334.795 172.536 336.881 169.443L337.345 168.768C339.401 167.509 341.585 166.604 343.823 165.725C359.905 159.402 375.871 152.692 392.183 146.974C397.528 145.405 402.795 143.58 407.965 141.505C412.04 142.77 413.217 143.608 416.471 146.683L417.888 147.656C418.409 148.011 418.385 147.994 418.922 148.206C421.312 146.762 421.281 148.098 424.064 145.94C423.334 145.697 422.656 145.469 421.916 145.252C418.169 143.681 412.059 141.683 408.193 140.929C410.671 135.239 419.15 126.479 423.581 122.25ZM337.345 168.768L336.881 169.443C334.795 172.536 331.518 179.803 329.448 183.466C325.499 190.457 320.557 195.004 315.052 200.862C314.603 210.174 313.756 217.881 311.403 226.921C307.855 240.553 304.632 253.164 298.178 265.7C296.596 268.773 296.743 279.378 295.404 283.155C293.268 292.273 290.038 301.453 287.839 310.534C286.265 317.033 286.008 324.982 285.271 331.714C285.049 333.743 284.468 339.155 285.826 340.897C286.716 342.038 289.847 342.641 290.718 343.479C291.237 345.862 292.035 348.541 292.483 350.769C289.124 353.999 281.26 368.894 279.289 373.919C278.727 375.351 278.494 378.704 278.434 380.409C278.011 392.398 279.004 407.358 277.964 418.976C277.186 427.68 270.511 442.908 269.221 452.069C267.741 463.665 267.452 475.333 266.181 486.982C265.467 493.525 261.397 501.436 260.918 507.299C259.206 528.248 256.421 551.754 257.569 572.678C265.46 581.469 265.67 579.003 273.922 584.1C268.14 591.318 259.767 599.036 254.713 605.687C253.005 622.309 251.477 638.768 249.6 655.421C247.92 670.324 245.206 685.836 245.569 700.765C245.717 706.836 247.729 710.406 248.41 714.844C249.321 717.269 249.905 719.476 250.727 721.899C250.996 723.125 251.222 724.36 251.405 725.601C251.821 727.874 252.327 730.128 252.63 732.42C253.912 736.164 258.488 764.168 258.656 768.474C254.832 770.8 252.441 772.093 249.542 775.606C239.953 768.329 236.472 770.543 226.282 770.749C209.509 771.088 214.481 787.695 208.423 788.505C184.168 791.749 159.558 792.367 135.135 793.082C131.75 793.176 120.853 794.136 118.365 793.59C108.206 794.836 72.054 796.813 64.9906 801.754L64.606 802.758C70.1862 809.953 130.595 809.277 134.248 813.055L134.001 813.927C124.208 817.606 104.24 815.922 92.8471 822.175C101.607 826.708 119.758 827.685 129.784 828.489C152.664 830.129 175.576 831.275 198.505 831.927C206.577 832.17 246.253 832.693 250.46 835.939L250.723 837.044C248.222 840.811 220.775 839.883 214.145 844.074L214.077 844.646C216.96 846.3 230.174 847.534 234.133 847.879C270.285 851.031 306.718 851.365 342.981 852.049C354.344 852.264 364.897 851.896 376.014 854.694C365.59 857.578 354.507 858.02 343.786 859.098C342.645 859.213 341.438 859.496 340.666 860.325C351.204 866.528 631.274 864.671 665.38 863.655C671.828 863.463 697.021 862.579 704.622 860.646C697.075 857.894 683.453 858.257 677.74 855.038L677.656 854.332C680.995 852.674 687.689 852.451 691.327 852.279C705.203 851.624 823.996 851.041 826.71 844.308C819.538 839.718 795.979 842.136 783.823 836.16C785.841 835.474 788.175 834.825 790.128 834.401C807.255 830.69 919.195 830.709 927.797 822.75L927.763 821.855C925.278 819.812 912.081 817.736 908.567 817.387C907.186 816.472 906.518 816.018 905.027 815.269C904.508 815.248 900.061 814.403 899.722 814.175C899.857 813.369 902.389 813.112 902.933 812.998C903.713 811.992 904.01 812.091 905.27 811.761L916.598 810.323C913.672 804.249 911.599 806.695 915.331 802.831L916.69 801.398C915.763 797.9 915.222 797.294 913.99 794.178C900.272 791.946 886.441 790.478 872.561 789.782C863.829 789.319 850.143 789.032 842.059 787.913C838.243 788.657 832.38 788.236 828.492 787.714L830.917 787.609L831.493 786.378C828.142 785.134 822.784 784.848 820.543 783.846C806.99 777.786 800.639 776.777 785.676 778.928L785.091 777.748C779.386 766.399 773.091 769.199 763.406 774.264C761.359 767.707 760.35 746.967 760.579 739.437C762.194 738.996 762.409 734.805 762.454 733.35C761.732 732.582 761.224 732.027 760.56 731.193C760.449 725.771 761.574 718.554 762.062 712.896C761.55 713.628 761.007 714.519 760.364 715.114C757.079 722.117 750.846 736.555 747.073 742.57L739.611 745.029C741.098 737.607 743.68 728.794 745.663 721.369C736.631 729.157 727.443 736.645 718.693 744.765C715.26 747.951 711.187 751.759 707.137 753.988C699.956 753.485 695.487 751.696 688.936 750.713C691.129 746.023 698.531 736.066 701.823 731.475C700.01 732.326 692.384 736.07 690.942 736.122C681.065 736.477 671.951 736.664 666.411 746.544C664.934 749.177 666.531 756.088 662.792 757.309C658.773 758.208 652.629 757.727 648.164 758.234C641.459 764.482 634.748 774.625 628.007 780.28C615.223 781.649 608.344 782.668 595.485 781.209C597.55 777.344 600.162 774.595 602.778 771.151C598.543 770.836 594.163 770.448 589.932 770.267C593.082 763.882 596.48 761.732 602.062 757.42C601.863 754.208 602.313 750.159 598.279 749.882C595.884 750.727 595.543 751.806 593.877 753.653C588.839 755.318 583.916 755.155 579.005 756.355C572.547 757.933 566.026 761.355 559.479 762.969C556.515 763.755 552.578 768.502 548.056 769.707C541.76 771.385 528.063 769.937 523.83 774.366C523.601 775.304 523.384 776.185 523.179 777.128L522.048 776.816C508.638 784.21 501.546 788.544 493.829 775.347C492.087 772.368 482.131 774.307 478.44 774.642C476.169 771.061 474.884 769.617 471.354 767.289C465.76 768.765 463.565 769.478 458.733 772.603C451.118 769.598 443.66 766.207 436.39 762.444L435.174 767.586C430.91 766.1 426.49 764.366 422.675 761.921C416.233 757.792 424.974 751.722 427.795 748.184L428.072 747.83C422.58 748.24 418.468 748.545 412.942 748.436C403.876 743.463 406.172 737.515 401.989 734.311C399.977 732.77 385.296 731.722 381.274 725.331C378.53 720.972 378.892 721.033 379.56 715.643C376.065 711.111 371.891 706.023 369.018 701.145C371.222 695.837 378.662 680.128 378.562 674.219C378.549 673.493 376.356 671.989 375.394 671.593C370.61 674.027 367.828 678.643 363.564 680.821L362.917 680.504C363.547 677.721 367.063 672.252 368.702 669.538C368.17 664.245 365.804 655.595 365.703 650.712C365.611 646.222 368.744 635.928 369.814 630.702C367.088 624.536 363.096 617.223 359.949 611.126C368.41 604.663 368.506 603.726 373.328 594.409C374.385 592.366 376.639 588.942 378.028 586.175C374.715 585.799 371.684 585.56 368.355 585.338C371.464 582.092 372.586 581.077 376.741 579.435L373.809 572.339C374.846 567.681 376.694 560.705 375.871 556.236C374.066 546.444 371.393 536.026 369.201 526.342C371.122 520.279 373.445 514.833 375.92 509C375.074 504.448 374.189 499.906 373.541 495.322C373.636 494.751 373.722 494.315 373.757 493.741C374.251 485.017 374.567 476.284 374.703 467.547C388.395 467.072 392.759 470.698 400.56 481.395C417.258 476.558 415.366 478.105 429.351 487.382C431.019 488.489 436.697 490.449 438.819 491.199C433.477 485.68 427.778 479.731 422.776 473.942C410.242 474.262 401.499 474.121 397.522 460.375C394.23 448.995 384.994 444.397 376.644 436.571L376.186 436.025C375.962 432.794 383.246 406.057 384.478 400.522C384.457 398.37 383.234 391.605 382.921 388.998C382.12 382.312 382.167 377.866 382.498 371.142C379.89 367.491 377.348 364.107 375.223 360.141C378.616 352.654 384.551 344.106 389.15 337.331C389.046 331.277 386.069 320.368 387.639 316.137C391.478 308.628 389.107 285.793 387.609 277.132C388.701 275.264 389.551 273.731 390.863 271.992C402.343 273.611 411.89 275.131 423.535 275.892C431.311 285.754 428.294 284.628 440.814 290.196L442.01 289.588C431.434 281.301 434.003 280.838 426.394 271.609L426.033 271.18C420.853 270.57 416.699 270.76 411.174 269.754C407.287 264.763 399.769 254.191 398.176 248.359C397.731 246.729 398.037 244.086 398.215 242.37C401.738 238.196 401.057 221.113 401.018 215.268L400.675 214.365C401.206 210.11 401.095 199.485 400.233 195.342L408.078 171.998C409.223 168.607 411.045 164.068 411.889 160.808C416.14 158.272 424.878 155.996 429.74 154.969C427.147 152.289 422.325 149.812 418.922 148.206C418.385 147.994 418.409 148.011 417.888 147.656L416.471 146.683C413.217 143.608 412.04 142.77 407.965 141.505C402.795 143.58 397.528 145.405 392.183 146.974C375.871 152.692 359.905 159.402 343.823 165.725C341.585 166.604 339.401 167.509 337.345 168.768ZM558.212 106.311C558.256 106.173 558.461 105.737 558.403 105.507C558.203 105.528 558.02 105.733 557.733 105.963C557.688 106.117 557.529 106.455 557.592 106.664C557.811 106.659 558.08 106.402 558.212 106.311ZM434.502 156.96C434.523 154.451 434.769 154.134 432.667 152.762C432.358 155.344 432.461 155.366 434.502 156.96Z"/><path fill="#271C0E" d="M392.183 146.974C397.528 145.405 402.795 143.58 407.965 141.505C412.04 142.77 413.217 143.608 416.471 146.683L417.888 147.656C418.409 148.011 418.385 147.994 418.922 148.206C422.325 149.812 427.147 152.289 429.74 154.969C424.878 155.996 416.14 158.272 411.889 160.808C411.045 164.068 409.223 168.607 408.078 171.998L400.233 195.342C401.095 199.485 401.206 210.11 400.675 214.365L401.018 215.268C401.057 221.113 401.738 238.196 398.215 242.37C398.037 244.086 397.731 246.729 398.176 248.359C399.769 254.191 407.287 264.763 411.174 269.754C416.699 270.76 420.853 270.57 426.033 271.18L426.394 271.609C434.003 280.838 431.434 281.301 442.01 289.588L440.814 290.196C428.294 284.628 431.311 285.754 423.535 275.892C411.89 275.131 402.343 273.611 390.863 271.992C389.551 273.731 388.701 275.264 387.609 277.132C389.107 285.793 391.478 308.628 387.639 316.137C386.069 320.368 389.046 331.277 389.15 337.331C384.551 344.106 378.616 352.654 375.223 360.141C377.348 364.107 379.89 367.491 382.498 371.142C382.167 377.866 382.12 382.312 382.921 388.998C383.234 391.605 384.457 398.37 384.478 400.522C383.246 406.057 375.962 432.794 376.186 436.025L376.644 436.571C384.994 444.397 394.23 448.995 397.522 460.375C401.499 474.121 410.242 474.262 422.776 473.942C427.778 479.731 433.477 485.68 438.819 491.199C436.697 490.449 431.019 488.489 429.351 487.382C415.366 478.105 417.258 476.558 400.56 481.395C392.759 470.698 388.395 467.072 374.703 467.547C374.567 476.284 374.251 485.017 373.757 493.741C373.722 494.315 373.636 494.751 373.541 495.322C374.189 499.906 375.074 504.448 375.92 509C373.445 514.833 371.122 520.279 369.201 526.342C371.393 536.026 374.066 546.444 375.871 556.236C376.694 560.705 374.846 567.681 373.809 572.339L376.741 579.435C372.586 581.077 371.464 582.092 368.355 585.338C371.684 585.56 374.715 585.799 378.028 586.175C376.639 588.942 374.385 592.366 373.328 594.409C368.506 603.726 368.41 604.663 359.949 611.126C363.096 617.223 367.088 624.536 369.814 630.702C368.744 635.928 365.611 646.222 365.703 650.712C365.804 655.595 368.17 664.245 368.702 669.538C367.063 672.252 363.547 677.721 362.917 680.504L363.564 680.821C367.828 678.643 370.61 674.027 375.394 671.593C376.356 671.989 378.549 673.493 378.562 674.219C378.662 680.128 371.222 695.837 369.018 701.145C371.891 706.023 376.065 711.111 379.56 715.643C378.892 721.033 378.53 720.972 381.274 725.331C385.296 731.722 399.977 732.77 401.989 734.311C406.172 737.515 403.876 743.463 412.942 748.436C418.468 748.545 422.58 748.24 428.072 747.83L427.795 748.184C424.974 751.722 416.233 757.792 422.675 761.921C426.49 764.366 430.91 766.1 435.174 767.586L436.39 762.444C443.66 766.207 451.118 769.598 458.733 772.603C463.565 769.478 465.76 768.765 471.354 767.289C474.884 769.617 476.169 771.061 478.44 774.642C482.131 774.307 492.087 772.368 493.829 775.347C501.546 788.544 508.638 784.21 522.048 776.816L523.179 777.128C523.384 776.185 523.601 775.304 523.83 774.366C528.063 769.937 541.76 771.385 548.056 769.707C552.578 768.502 556.515 763.755 559.479 762.969C566.026 761.355 572.547 757.933 579.005 756.355C583.916 755.155 588.839 755.318 593.877 753.653C595.543 751.806 595.884 750.727 598.279 749.882C602.313 750.159 601.863 754.208 602.062 757.42C596.48 761.732 593.082 763.882 589.932 770.267C594.163 770.448 598.543 770.836 602.778 771.151C600.162 774.595 597.55 777.344 595.485 781.209C608.344 782.668 615.223 781.649 628.007 780.28C634.748 774.625 641.459 764.482 648.164 758.234C652.629 757.727 658.773 758.208 662.792 757.309C666.531 756.088 664.934 749.177 666.411 746.544C671.951 736.664 681.065 736.477 690.942 736.122C692.384 736.07 700.01 732.326 701.823 731.475C698.531 736.066 691.129 746.023 688.936 750.713C695.487 751.696 699.956 753.485 707.137 753.988C711.187 751.759 715.26 747.951 718.693 744.765C727.443 736.645 736.631 729.157 745.663 721.369C743.68 728.794 741.098 737.607 739.611 745.029L747.073 742.57C750.846 736.555 757.079 722.117 760.364 715.114C761.007 714.519 761.55 713.628 762.062 712.896C761.574 718.554 760.449 725.771 760.56 731.193C761.224 732.027 761.732 732.582 762.454 733.35C762.409 734.805 762.194 738.996 760.579 739.437C760.35 746.967 761.359 767.707 763.406 774.264C773.091 769.199 779.386 766.399 785.091 777.748L785.676 778.928C800.639 776.777 806.99 777.786 820.543 783.846C822.784 784.848 828.142 785.134 831.493 786.378L830.917 787.609L828.492 787.714C832.38 788.236 838.243 788.657 842.059 787.913C850.143 789.032 863.829 789.319 872.561 789.782C886.441 790.478 900.272 791.946 913.99 794.178C915.222 797.294 915.763 797.9 916.69 801.398L915.331 802.831C911.599 806.695 913.672 804.249 916.598 810.323L905.27 811.761C904.01 812.091 903.713 811.992 902.933 812.998C902.389 813.112 899.857 813.369 899.722 814.175C900.061 814.403 904.508 815.248 905.027 815.269C906.518 816.018 907.186 816.472 908.567 817.387C912.081 817.736 925.278 819.812 927.763 821.855L927.797 822.75C919.195 830.709 807.255 830.69 790.128 834.401C788.175 834.825 785.841 835.474 783.823 836.16C795.979 842.136 819.538 839.718 826.71 844.308C823.996 851.041 705.203 851.624 691.327 852.279C687.689 852.451 680.995 852.674 677.656 854.332L677.74 855.038C683.453 858.257 697.075 857.894 704.622 860.646C697.021 862.579 671.828 863.463 665.38 863.655C631.274 864.671 351.204 866.528 340.666 860.325C341.438 859.496 342.645 859.213 343.786 859.098C354.507 858.02 365.59 857.578 376.014 854.694C364.897 851.896 354.344 852.264 342.981 852.049C306.718 851.365 270.285 851.031 234.133 847.879C230.174 847.534 216.96 846.3 214.077 844.646L214.145 844.074C220.775 839.883 248.222 840.811 250.723 837.044L250.46 835.939C246.253 832.693 206.577 832.17 198.505 831.927C175.576 831.275 152.664 830.129 129.784 828.489C119.758 827.685 101.607 826.708 92.8471 822.175C104.24 815.922 124.208 817.606 134.001 813.927L134.248 813.055C130.595 809.277 70.1862 809.953 64.606 802.758L64.9906 801.754C72.054 796.813 108.206 794.836 118.365 793.59C120.853 794.136 131.75 793.176 135.135 793.082C159.558 792.367 184.168 791.749 208.423 788.505C214.481 787.695 209.509 771.088 226.282 770.749C236.472 770.543 239.953 768.329 249.542 775.606C252.441 772.093 254.832 770.8 258.656 768.474C258.488 764.168 253.912 736.164 252.63 732.42C252.327 730.128 251.821 727.874 251.405 725.601C251.222 724.36 250.996 723.125 250.727 721.899C249.905 719.476 249.321 717.269 248.41 714.844C247.729 710.406 245.717 706.836 245.569 700.765C245.206 685.836 247.92 670.324 249.6 655.421C251.477 638.768 253.005 622.309 254.713 605.687C259.767 599.036 268.14 591.318 273.922 584.1C265.67 579.003 265.46 581.469 257.569 572.678C256.421 551.754 259.206 528.248 260.918 507.299C261.397 501.436 265.467 493.525 266.181 486.982C267.452 475.333 267.741 463.665 269.221 452.069C270.511 442.908 277.186 427.68 277.964 418.976C279.004 407.358 278.011 392.398 278.434 380.409C278.494 378.704 278.727 375.351 279.289 373.919C281.26 368.894 289.124 353.999 292.483 350.769C292.035 348.541 291.237 345.862 290.718 343.479C289.847 342.641 286.716 342.038 285.826 340.897C284.468 339.155 285.049 333.743 285.271 331.714C286.008 324.982 286.265 317.033 287.839 310.534C290.038 301.453 293.268 292.273 295.404 283.155C296.743 279.378 296.596 268.773 298.178 265.7C304.632 253.164 307.855 240.553 311.403 226.921C313.756 217.881 314.603 210.174 315.052 200.862C320.557 195.004 325.499 190.457 329.448 183.466C331.518 179.803 334.795 172.536 336.881 169.443L337.345 168.768C339.401 167.509 341.585 166.604 343.823 165.725C359.905 159.402 375.871 152.692 392.183 146.974ZM370.113 169.837C369.531 170.435 369.495 170.431 369.639 171.228C368.019 172.291 365.433 173.433 369.104 174.23L370.257 174.489C370.48 174.776 370.702 175.064 370.925 175.351C373.034 174.613 375.153 174.05 377.155 173.121C377.262 172.065 377.362 171.851 377.699 170.836C379.905 170.47 385.304 169.613 383.622 165.507C382.879 163.693 380.619 168.044 379.524 169.028L378.207 168.881C374.332 169.706 374.296 170.233 370.113 169.837ZM295.606 662.461C294.647 661.26 294.271 660.93 292.793 661.587C293.143 662.453 293.251 662.57 293.79 663.404L294.683 663.488C295.627 664.166 295.673 664.167 296.416 664.973C298.866 668.325 300.266 666.933 296.921 664.046C296.488 663.513 296.05 662.985 295.606 662.461ZM362.274 171.86C361.809 172.194 353.6 178.372 357.804 178.067C359.611 176.672 360.54 175.8 362.563 174.749C364.942 173.513 364.613 172.42 362.274 171.86Z"/><path fill="#85837C" fill-opacity="0.98039216" d="M378.207 168.881L379.524 169.028C378.486 169.796 378.517 169.798 377.699 170.836C377.362 171.851 377.262 172.065 377.155 173.121C375.153 174.05 373.034 174.613 370.925 175.351C370.702 175.064 370.48 174.776 370.257 174.489C371.967 172.421 372.009 172.506 369.639 171.228C369.495 170.431 369.531 170.435 370.113 169.837C374.296 170.233 374.332 169.706 378.207 168.881Z"/><path fill="#F3EEEC" fill-opacity="0.16078432" d="M379.524 169.028C380.619 168.044 382.879 163.693 383.622 165.507C385.304 169.613 379.905 170.47 377.699 170.836C378.517 169.798 378.486 169.796 379.524 169.028Z"/><path fill="#85837C" fill-opacity="0.68627453" d="M369.639 171.228C372.009 172.506 371.967 172.421 370.257 174.489L369.104 174.23C365.433 173.433 368.019 172.291 369.639 171.228Z"/><path fill="#CDA87B" d="M307.535 693.042C309.436 693.959 310.276 694.624 312.277 694.43C315.044 692.706 315.123 689.63 315.956 686.169C316.541 688.388 317.281 691.104 317.407 693.363C317.89 702.088 321.444 709.507 323.91 717.903C327.562 730.789 330.945 743.751 334.055 756.779C337.011 769.323 338.797 784.065 343.13 795.992C346.739 785.793 348.173 776.623 350.255 766.047L351.3 767.717C350.449 772.772 349.007 780.473 348.941 785.457C349.086 787.377 348.774 788.258 349.663 789.905C353.442 781.477 356.083 775.647 360.994 767.778L361.647 768.701C360.131 773.071 358.771 777.821 358.106 782.404L359.332 784.246C364.222 775.416 370.104 768.343 377.48 761.587C371.463 770.328 369.499 774.233 366.606 784.565L367.651 785.246C371.252 778.815 376.747 770.189 381.8 764.81C377.63 775.661 376.194 778.431 374.934 789.839C380.058 785.919 384.334 782.692 389.723 779.152C387.753 782.303 385.397 786.369 382.971 789.053C402.5 787.021 416.372 785.098 435.867 791.302C435.773 792.545 435.831 791.982 434.739 793.253C437.51 794.811 458.325 795.086 462.77 796.219C463.167 796.32 464.366 797.728 464.656 798.064C472.074 798.52 471.019 794.576 480.469 798.399C478.811 799.087 476.32 799.872 475.214 801.149C477.13 802.29 501.07 802.565 504.747 802.515C503.181 799.065 501.544 795.647 499.836 792.265L500.82 791.408C504.215 795.864 508.299 800.393 512.128 804.473C511.894 797.894 509.927 789.223 508.642 782.623C512.356 789.483 515.192 798.423 518.877 804.3C519.318 796.487 520.513 789.234 521.687 781.514C521.805 779.858 521.977 778.549 522.048 776.816L523.179 777.128C523.384 776.185 523.601 775.304 523.83 774.366C528.063 769.937 541.76 771.385 548.056 769.707C552.578 768.502 556.515 763.755 559.479 762.969C566.026 761.355 572.547 757.933 579.005 756.355C583.916 755.155 588.839 755.318 593.877 753.653C595.543 751.806 595.884 750.727 598.279 749.882C602.313 750.159 601.863 754.208 602.062 757.42C596.48 761.732 593.082 763.882 589.932 770.267C594.163 770.448 598.543 770.836 602.778 771.151C600.162 774.595 597.55 777.344 595.485 781.209C608.344 782.668 615.223 781.649 628.007 780.28C634.748 774.625 641.459 764.482 648.164 758.234C652.629 757.727 658.773 758.208 662.792 757.309C666.531 756.088 664.934 749.177 666.411 746.544C671.951 736.664 681.065 736.477 690.942 736.122C692.384 736.07 700.01 732.326 701.823 731.475C698.531 736.066 691.129 746.023 688.936 750.713C695.487 751.696 699.956 753.485 707.137 753.988C711.187 751.759 715.26 747.951 718.693 744.765C727.443 736.645 736.631 729.157 745.663 721.369C743.68 728.794 741.098 737.607 739.611 745.029L747.073 742.57C750.846 736.555 757.079 722.117 760.364 715.114C761.007 714.519 761.55 713.628 762.062 712.896C761.574 718.554 760.449 725.771 760.56 731.193C761.224 732.027 761.732 732.582 762.454 733.35C762.409 734.805 762.194 738.996 760.579 739.437C760.35 746.967 761.359 767.707 763.406 774.264C773.091 769.199 779.386 766.399 785.091 777.748L785.676 778.928C800.639 776.777 806.99 777.786 820.543 783.846C822.784 784.848 828.142 785.134 831.493 786.378L830.917 787.609L828.492 787.714C832.38 788.236 838.243 788.657 842.059 787.913C850.143 789.032 863.829 789.319 872.561 789.782C886.441 790.478 900.272 791.946 913.99 794.178C915.222 797.294 915.763 797.9 916.69 801.398L915.331 802.831C911.599 806.695 913.672 804.249 916.598 810.323L905.27 811.761C904.01 812.091 903.713 811.992 902.933 812.998C902.389 813.112 899.857 813.369 899.722 814.175C900.061 814.403 904.508 815.248 905.027 815.269C906.518 816.018 907.186 816.472 908.567 817.387C903.013 816.94 896.26 816.104 890.703 815.41C889.872 816.109 888.56 817.124 887.509 817.309C875.537 819.416 862.656 819.388 850.572 821.076C829.198 825.147 807.744 826.017 786.132 827.091C776.983 827.546 757.648 828.274 749.002 830.32C752.029 831.223 758.538 832.102 759.97 833.701C757.638 838.583 740.557 837.632 735.266 838.287C730.206 838.913 725.391 842.852 721.757 842.895C696.645 843.191 671.548 839.29 646.6 844.105C640.473 845.288 634.941 845.796 628.953 848.064L635.798 851.038C625.011 852.735 613.114 853.458 602.123 854.12C588.106 854.964 572.523 857.401 559.007 852.924C554.53 851.441 540.287 845.409 536.379 848.269C537.937 850.58 539.843 850.741 540.282 852.742C538.324 854.734 529.191 854.752 526.279 854.776C521.287 854.833 516.297 854.484 511.361 853.732C501.834 852.232 468.96 844.239 461.454 847.728C459.76 851.044 463.069 848.907 460.278 851.52C450.782 854.253 421.669 854.943 412.06 851.296C415.592 849.132 417.549 848.321 421.506 846.963C421.227 846.187 417.464 845.67 415.814 844.924C414.297 844.276 401.543 843.71 399.002 843.564L363.312 841.533C350.838 840.844 319.342 840.137 309.03 834.924L313.413 830.235C303.157 829.401 293.787 826.18 283.361 825.103C277.548 825.167 245.532 824.689 245.097 818.982C253.083 813.346 309.071 809.138 321.898 808.35C318.174 805.387 310.744 798.961 306.626 797.448L307.469 796.088C310.695 796.433 317.966 798.986 321.441 800.06C314.187 790.455 303.081 780.521 292.833 774.233L293.445 773.235C304.06 778.886 321.608 792.078 329.965 800.605C325.23 788.305 321.135 783.368 312.854 773.131L313.856 772.51C320.909 780.56 327.599 788.92 333.906 797.567C328.577 773.681 319.242 751.579 303.416 732.64L303.787 731.053C315.79 745.187 323.092 757.872 330.51 774.83C331.879 777.96 334.634 784.054 335.521 787.18L336.214 784.89C335.055 767.958 323.866 717.724 316.529 703.383C310.089 700.785 307.516 697.603 304.783 691.427L306.283 690.851C306.881 691.081 307.301 691.298 307.871 691.579L307.535 693.042Z"/><path fill="#927451" d="M656.748 812.606C681.671 812.399 752.324 802.517 772.439 809.6C769.474 811.276 766.44 812.743 763.39 814.256C778.55 820.676 815.229 819.637 832.524 820.293C838.294 820.512 844.76 820.16 850.572 821.076C829.198 825.147 807.744 826.017 786.132 827.091C776.983 827.546 757.648 828.274 749.002 830.32C752.029 831.223 758.538 832.102 759.97 833.701C757.638 838.583 740.557 837.632 735.266 838.287C730.206 838.913 725.391 842.852 721.757 842.895C696.645 843.191 671.548 839.29 646.6 844.105C640.473 845.288 634.941 845.796 628.953 848.064L635.798 851.038C625.011 852.735 613.114 853.458 602.123 854.12C588.106 854.964 572.523 857.401 559.007 852.924C554.53 851.441 540.287 845.409 536.379 848.269C537.937 850.58 539.843 850.741 540.282 852.742C538.324 854.734 529.191 854.752 526.279 854.776C521.287 854.833 516.297 854.484 511.361 853.732C501.834 852.232 468.96 844.239 461.454 847.728C459.76 851.044 463.069 848.907 460.278 851.52C450.782 854.253 421.669 854.943 412.06 851.296C415.592 849.132 417.549 848.321 421.506 846.963C421.227 846.187 417.464 845.67 415.814 844.924C414.297 844.276 401.543 843.71 399.002 843.564L363.312 841.533C350.838 840.844 319.342 840.137 309.03 834.924L313.413 830.235C303.157 829.401 293.787 826.18 283.361 825.103C290.647 823.621 295.249 821.436 301.952 819.498C306.841 818.084 321.951 816.112 326.654 817.962C327.997 819.402 327.676 818.594 327.874 820.368C326.543 822.072 324.79 821.328 322.429 822.987C323.564 827.55 344.22 830.325 348.714 830.389C392.516 831.008 436.329 825.941 480.156 825.975C489.791 825.766 499.572 827.386 508.621 830.838C514.145 832.944 529.11 836.077 532.769 829.862C531.665 825.338 521.733 824.934 519.647 822.608C522.729 819.514 552.022 817.61 557.64 817.509C557.005 818.125 556.377 818.747 555.756 819.376C554.582 820.582 553.533 821.461 553.548 822.949C554.867 824.569 556.936 825.476 558.977 825.816C566.022 826.991 655.85 820.89 659.709 817.701C660.234 817.267 660.131 816.865 660.218 816.242C659.401 814.438 658.36 813.888 656.748 812.606Z"/><path fill="#28190D" d="M415.814 844.924C417.832 844.978 421.828 845.021 423.764 845.843C423.84 845.875 423.829 846.112 423.796 846.177C423.49 846.773 422.005 846.891 421.506 846.963C421.227 846.187 417.464 845.67 415.814 844.924Z"/><path fill="#CDA87B" d="M707.147 816.668C711.613 816.216 715.377 817.704 718.342 821.038L719.022 821.775C715.089 822.733 711.745 823.254 707.754 823.827C706.095 824.118 704.076 824.384 702.387 824.621C701.572 824.204 695.838 821.973 697.274 820.328C699.623 817.637 703.815 817.151 707.147 816.668Z"/><path fill="#271C0E" d="M588.153 828.499C596.63 828.136 599.901 833.877 594.534 834.122C588.689 834.421 580.415 836.262 588.153 828.499Z"/><path fill="#28190D" d="M462.585 835.171C464.361 834.985 469.757 834.208 470.909 835.597C473.45 838.663 471.261 839.004 468.83 838.777C467.463 838.7 458.616 838.971 458.178 837.801C457.672 836.449 461.686 835.421 462.585 835.171Z"/><path fill="#271C0E" d="M760.364 715.114C761.007 714.519 761.55 713.628 762.062 712.896C761.574 718.554 760.449 725.771 760.56 731.193C761.224 732.027 761.732 732.582 762.454 733.35C762.409 734.805 762.194 738.996 760.579 739.437C760.35 746.967 761.359 767.707 763.406 774.264C773.091 769.199 779.386 766.399 785.091 777.748L785.676 778.928C800.639 776.777 806.99 777.786 820.543 783.846C822.784 784.848 828.142 785.134 831.493 786.378L830.917 787.609L828.492 787.714C812.85 785.469 795.893 784.752 780.108 784.563C771.335 784.458 762.445 785.133 753.649 784.773C751.469 784.44 748.803 784.811 747.143 784.31L745.996 784.059C745.589 782.597 745.407 781.429 744.928 779.958C743.711 783.063 740.809 787.069 738.063 788.926L737.516 788.796C737.391 787.778 737.16 786.505 737.235 785.522L736.013 785.027L733.18 788.339L731.501 786.407L731.204 785.937C731.318 782.382 734.034 777.695 735.659 774.467C732.029 778.069 728.203 782.469 724.729 786.287C725.834 777.17 728.01 772.982 731.929 764.838C726.858 769.252 721.653 774.994 716.829 779.874C719.249 775.001 721.924 770.627 724.705 765.961C717.19 771.258 709.786 779.963 704.215 787.266C705.817 780.759 707.007 777.154 709.69 770.973L708.419 770.551C704.228 775.256 698.002 782.074 695.306 787.674C695.212 786.533 695.047 785.451 694.89 784.319C695.679 780.066 696.812 776.15 697.959 771.996C692.383 777.191 687.422 785.574 685.438 793.047C684.841 794.8 684.262 794.193 682.691 793.834C681.213 793.594 678.456 790.011 677.121 788.659C673.092 784.565 668.832 780.702 664.364 777.092C667.483 781.388 670.376 785.29 673.129 789.851L672.614 790.78C668.141 787.279 663.38 784.07 658.71 780.829C663.626 786.52 665.699 789.823 669.586 796.155C660.149 796.953 650.434 797.03 640.996 797.705C609.329 799.97 576.675 800.626 545.089 803.48C545.627 800.514 548.743 793.436 550.002 789.829C544.719 795.369 539.69 801.146 534.931 807.141C536.875 800.861 539.018 794.645 541.359 788.501C537.639 793.804 532.35 801.91 529.636 807.662C529.444 800.838 531.554 790.61 532.652 783.474L531.711 781.549C529.335 789.254 526.719 796.322 524.156 803.911C522.992 801.742 523.839 798.531 523.077 794.867L522.883 790.387C521.587 788.234 523.624 784.463 521.687 781.514C521.805 779.858 521.977 778.549 522.048 776.816L523.179 777.128C523.384 776.185 523.601 775.304 523.83 774.366C528.063 769.937 541.76 771.385 548.056 769.707C552.578 768.502 556.515 763.755 559.479 762.969C566.026 761.355 572.547 757.933 579.005 756.355C583.916 755.155 588.839 755.318 593.877 753.653C595.543 751.806 595.884 750.727 598.279 749.882C602.313 750.159 601.863 754.208 602.062 757.42C596.48 761.732 593.082 763.882 589.932 770.267C594.163 770.448 598.543 770.836 602.778 771.151C600.162 774.595 597.55 777.344 595.485 781.209C608.344 782.668 615.223 781.649 628.007 780.28C634.748 774.625 641.459 764.482 648.164 758.234C652.629 757.727 658.773 758.208 662.792 757.309C666.531 756.088 664.934 749.177 666.411 746.544C671.951 736.664 681.065 736.477 690.942 736.122C692.384 736.07 700.01 732.326 701.823 731.475C698.531 736.066 691.129 746.023 688.936 750.713C695.487 751.696 699.956 753.485 707.137 753.988C711.187 751.759 715.26 747.951 718.693 744.765C727.443 736.645 736.631 729.157 745.663 721.369C743.68 728.794 741.098 737.607 739.611 745.029L747.073 742.57C750.846 736.555 757.079 722.117 760.364 715.114Z"/><path fill="#C7A884" d="M747.143 784.31L747.368 783.549C748.013 781.101 751.295 778.404 751.458 779.655C751.503 780 749.565 784.71 749.279 785.477C753.056 782.686 753.163 782.541 756.455 779.311L755.615 781.27C755.052 782.555 754.389 783.598 753.649 784.773C751.469 784.44 748.803 784.811 747.143 784.31Z"/><path fill="#A68661" d="M682.691 793.834C682.91 791.222 680.74 785.751 680.879 785.37C680.903 785.352 681.01 785.248 681.07 785.301C682.553 786.622 682.883 789.972 684.358 791.628C684.627 791.93 685.186 792.705 685.438 793.047C684.841 794.8 684.262 794.193 682.691 793.834Z"/><path fill="#F0EDEC" d="M760.56 731.193C761.224 732.027 761.732 732.582 762.454 733.35C762.409 734.805 762.194 738.996 760.579 739.437C760.536 736.688 760.466 733.94 760.56 731.193Z"/><path fill="#C7A884" d="M522.048 776.816L523.179 777.128C522.72 781.641 523.209 786.082 522.883 790.387C521.587 788.234 523.624 784.463 521.687 781.514C521.805 779.858 521.977 778.549 522.048 776.816Z"/><path fill="#927451" d="M741.582 777.957C739.98 781.137 739.187 782.516 737.235 785.522L736.013 785.027C738.05 781.968 739.169 780.65 741.582 777.957Z"/><path fill="#C7A884" d="M744.928 779.958C745.611 777.912 745.8 777.473 746.937 775.617C746.576 778.55 746.134 781.109 745.996 784.059C745.589 782.597 745.407 781.429 744.928 779.958Z"/><path fill="#A68661" d="M531.711 781.549C531.935 780.413 532.345 778.884 533.025 777.931L533.14 778.045L533.183 777.993C533.79 778.683 532.835 782.482 532.652 783.474L531.711 781.549Z"/><path fill="#A68661" d="M708.419 770.551C710.177 767.858 710.967 767.937 709.69 770.973L708.419 770.551Z"/><path fill="#886944" d="M867.191 812.387C875.213 800.26 879.954 802.218 893.759 803.392C896.94 803.662 905.749 806.716 904.563 811.049C904.478 811.36 902.475 811.534 901.956 811.715L902.933 812.998C902.389 813.112 899.857 813.369 899.722 814.175C900.061 814.403 904.508 815.248 905.027 815.269C906.518 816.018 907.186 816.472 908.567 817.387C903.013 816.94 896.26 816.104 890.703 815.41C887.678 814.745 886.387 814.958 883.911 813.14C881.725 813.699 870.121 812.539 867.191 812.387Z"/><path fill="#F3EEEC" d="M883.911 813.14C890.107 812.83 895.755 812.773 901.956 811.715L902.933 812.998C902.389 813.112 899.857 813.369 899.722 814.175C900.061 814.403 904.508 815.248 905.027 815.269C906.518 816.018 907.186 816.472 908.567 817.387C903.013 816.94 896.26 816.104 890.703 815.41C887.678 814.745 886.387 814.958 883.911 813.14Z"/><path fill="#49321C" d="M523.077 794.867C523.839 798.531 522.992 801.742 524.156 803.911C524.037 804.552 524.054 805.069 523.59 805.323C523.522 805.361 523.308 805.28 523.297 805.21C522.819 802.225 523.007 797.916 523.077 794.867Z"/><path fill="#49321C" d="M348.941 785.457C349.086 787.377 348.774 788.258 349.663 789.905C349.249 791.885 348.12 794.9 347.441 796.828C347.921 793.504 348.429 788.417 348.941 785.457Z"/><path fill="#28190D" d="M731.501 786.407L733.18 788.339C730.066 792.789 731.086 789.958 731.501 786.407Z"/><path fill="#28190D" d="M358.106 782.404L359.332 784.246C358.788 785.318 358.4 786.411 357.971 787.532L357.393 786.822C357.593 785.272 357.829 783.94 358.106 782.404Z"/><path fill="#49321C" d="M367.651 785.246C367.398 785.872 366.391 788.959 365.831 789.082C365.642 788.609 365.676 788.975 365.773 788.001L365.721 788.421C365.935 787.179 366.239 785.753 366.606 784.565L367.651 785.246Z"/><path fill="#28190D" d="M306.283 690.851C306.881 691.081 307.301 691.298 307.871 691.579L307.535 693.042C306.545 692.404 305.807 691.983 304.783 691.427L306.283 690.851Z"/><path fill="#49321C" d="M673.129 789.851C673.484 790.488 675.34 793.39 674.776 794.127C674.485 794.043 674.242 793.616 674.07 793.375L674.326 793.696C673.747 792.707 673.166 791.787 672.614 790.78L673.129 789.851Z"/><path fill="#28190D" d="M694.89 784.319C695.047 785.451 695.212 786.533 695.306 787.674C695.184 787.915 694.939 788.647 694.699 788.79L694.559 788.649C694.305 787.446 694.667 785.525 694.89 784.319Z"/><path fill="#886944" d="M336.214 784.89C336.343 785.624 336.698 787.448 336.28 788.182L336.199 788.224C335.783 787.958 335.708 787.652 335.521 787.18L336.214 784.89Z"/><path fill="#886944" d="M357.971 787.532C357.853 787.849 357.378 789.637 356.877 789.655C356.544 789.23 357.267 787.273 357.393 786.822L357.971 787.532Z"/><path fill="#271C0E" d="M405.55 795.624C408.411 795.27 411.306 794.996 414.043 795.974C415.905 797.389 415.386 798.926 416.339 800.938C418.346 805.177 420.929 803.379 423.958 804.798C426.403 805.945 427.778 809.7 428.563 811.996C432.282 811.566 434.684 811.542 438.453 811.546C441.042 814.158 442.145 816.454 443.829 819.628C425.297 820.513 399.41 820.177 381.621 821.9C376.823 822.182 350.994 825.751 348.201 823.371C348.231 821.287 347.915 822.175 349.023 820.562C352.735 818.577 357.803 819.885 361.669 820.985C368.177 814.257 375.173 813.595 383.766 815.841C386.557 808.422 389.05 803.35 397.695 801.976C400.537 798.874 401.937 797.585 405.55 795.624Z"/><path fill="#886944" d="M600.492 802.11C607.044 801.827 611.994 801.634 616.698 806.711L617.984 808.097C629.033 805.544 631.848 805.801 636.998 815.908C632.648 815.942 629.126 815.836 624.784 815.556C612.645 815.157 598.105 814.889 586.16 813.838C590.06 807.913 593.241 803.763 600.492 802.11Z"/><path fill="#886944" d="M794.763 799.084C806.721 798.445 809.641 802.056 814.559 812.469L803.683 812.403C796.814 812.26 790.366 812.015 783.431 811.964C785.888 805.257 787.484 801.221 794.763 799.084Z"/><path fill="#746356" d="M338.105 428.124C345.204 418.36 348.196 416.551 358.063 409.718C365.675 404.448 370.805 398.437 379.903 394.778L380.556 395.278C380.836 398.272 378.167 403.298 376.873 406.108C380.412 403.969 381.398 403.281 384.478 400.522C383.246 406.057 375.962 432.794 376.186 436.025L376.644 436.571C375.135 439.01 376.456 448.885 371.854 448.766C369.098 447.081 367.325 443.88 365.697 441.115C367.763 435.758 370.243 429.836 371.664 424.324C369.607 421.873 366.073 418.774 363.604 416.088C354.767 420.137 346.717 423.532 338.105 428.124Z"/><path fill="#C8BEB6" d="M392.183 146.974C397.528 145.405 402.795 143.58 407.965 141.505C412.04 142.77 413.217 143.608 416.471 146.683L417.888 147.656C418.409 148.011 418.385 147.994 418.922 148.206C422.325 149.812 427.147 152.289 429.74 154.969C424.878 155.996 416.14 158.272 411.889 160.808C401.164 165.122 388.225 169.478 377.155 173.121C377.262 172.065 377.362 171.851 377.699 170.836C379.905 170.47 385.304 169.613 383.622 165.507C382.879 163.693 380.619 168.044 379.524 169.028L378.207 168.881C379.779 166.156 381.337 164.088 383.237 161.611C384.901 159.532 390.393 149.896 392.183 146.974Z"/><path fill="#28190D" d="M398.908 150.957C405.749 150.945 403.93 154.671 397.497 156.034L395.617 156.42C393.719 156.591 391.909 156.809 389.996 156.958C394.35 153.14 393.743 153.648 398.908 150.957Z"/><path fill="#85837C" d="M392.183 146.974C390.393 149.896 384.901 159.532 383.237 161.611C381.337 164.088 379.779 166.156 378.207 168.881C374.332 169.706 374.296 170.233 370.113 169.837C369.531 170.435 369.495 170.431 369.639 171.228C368.019 172.291 365.433 173.433 369.104 174.23L370.257 174.489C370.48 174.776 370.702 175.064 370.925 175.351C364.96 177.259 358.582 179.446 352.54 180.964C356.867 174.598 360.107 170.713 365.215 165.131C358.278 167.958 351.676 171.051 344.609 173.76C342.442 172.49 339.484 170.28 337.345 168.768C339.401 167.509 341.585 166.604 343.823 165.725C359.905 159.402 375.871 152.692 392.183 146.974ZM357.804 178.067C359.611 176.672 360.54 175.8 362.563 174.749C364.942 173.513 364.613 172.42 362.274 171.86C361.809 172.194 353.6 178.372 357.804 178.067Z"/><path fill="#271C0E" d="M370.113 169.837C367.503 164.163 371.742 165.083 377.01 162.596C378.004 162.126 382.153 161.094 383.237 161.611C381.337 164.088 379.779 166.156 378.207 168.881C374.332 169.706 374.296 170.233 370.113 169.837Z"/><path fill="#85837C" fill-opacity="0.082352944" d="M362.274 171.86C364.613 172.42 364.942 173.513 362.563 174.749C360.54 175.8 359.611 176.672 357.804 178.067C353.6 178.372 361.809 172.194 362.274 171.86Z"/><path fill="#746356" d="M387.609 277.132C389.107 285.793 391.478 308.628 387.639 316.137C385.665 316.867 379.131 322.935 376.776 324.662C372.339 327.918 370.013 329.422 365.005 331.826C370.973 322.736 369.793 321.1 379.669 315.491C379.46 311.723 379.494 307.626 379.458 303.823C381.164 302.949 382.942 301.674 384.551 300.594C381.932 297.041 380.682 296.242 377.183 293.703C380.233 288.068 384.033 282.448 387.609 277.132Z"/><path fill="#746356" d="M401.018 215.268C401.057 221.113 401.738 238.196 398.215 242.37C394.782 244.04 391.3 245.516 387.836 247.213C387.768 243.151 387.796 239.569 388.012 235.516L388.265 235.218C389.853 233.317 393.728 230.112 394.374 228.178C395.049 226.156 387.914 227.322 386.268 225.726C384.428 223.941 383.855 222.488 382.398 220.528C379.644 219.378 376.989 218.182 374.001 217.829C373.891 217.191 373.797 216.599 373.653 215.966C387.184 216.232 386.91 220.704 401.018 215.268Z"/><path fill="#746356" d="M360.776 473.662C366.682 470.212 368.742 469.813 374.703 467.547C374.567 476.284 374.251 485.017 373.757 493.741C373.722 494.315 373.636 494.751 373.541 495.322C364.748 485.392 359.445 491.981 349.435 495.337C353.905 488.895 355.605 486.422 362.8 482.621C363.242 482.392 365.023 481.136 364.981 480.48C364.857 478.558 361.85 475.187 360.776 473.662Z"/><path fill="#746356" d="M290.718 343.479L292.792 344.227C297.628 345.935 302.237 347.475 307.242 348.606C308.315 348.854 309.382 349.13 310.441 349.435C310.113 349.111 311.825 350.81 311.684 350.652C320.434 360.452 323.5 354.129 334.256 364.835C326.173 362.592 317.327 361.474 311.175 355.816C307.684 352.605 305.28 354.543 301.424 355.891C297.839 354.437 295.331 353.666 292.483 350.769C292.035 348.541 291.237 345.862 290.718 343.479Z"/><path fill="#CDA87B" d="M311.738 676.143C311.928 680.209 315.192 693.296 307.871 691.579C307.301 691.298 306.881 691.081 306.283 690.851C303.271 688.326 302.524 686.361 300.432 683.013C303.077 684.181 304.361 684.658 307.152 685.515C309.381 682.035 309.774 680.653 311.351 677.046L311.738 676.143Z"/><path fill="#746356" d="M400.233 195.342C401.095 199.485 401.206 210.11 400.675 214.365C398.977 211.94 396.815 207.618 395.002 204.72L400.233 195.342Z"/><path fill="#CDA87B" d="M354.515 738.706C356.497 739.19 358.145 739.216 360.082 739.66L359.868 740.451C358.289 742.906 356.817 744.715 354.975 746.959L353.888 746.677C352.434 744.93 353.484 741.097 354.059 739.044L354.515 738.706Z"/><path fill="#49321C" d="M354.515 738.706C356.497 739.19 358.145 739.216 360.082 739.66L359.868 740.451C356.758 741.3 356.92 741.794 354.725 739.603L354.059 739.044L354.515 738.706Z"/><path fill="#CDA87B" d="M355.461 733.899C355.681 733.146 355.787 732.755 355.942 731.986L356.351 732.887C357.11 734.639 357.662 734.503 359.47 734.519C360.615 735.202 361.167 734.769 360.749 736.002C360.348 737.478 360.282 738.154 360.082 739.66C358.145 739.216 356.497 739.19 354.515 738.706C354.571 737.234 354.388 735.77 355.151 734.454L355.461 733.899Z"/><path fill="#28190D" d="M355.461 733.899C355.681 733.146 355.787 732.755 355.942 731.986L356.351 732.887C357.11 734.639 357.662 734.503 359.47 734.519C360.615 735.202 361.167 734.769 360.749 736.002C357.865 735.195 358.792 738.595 355.461 733.899Z"/><path fill="#A68661" d="M353.888 746.677L354.975 746.959C352.816 752.522 352.469 761.621 351.3 767.717L350.255 766.047C351.227 760.197 353.324 752.257 353.888 746.677Z"/><path fill="#C7A884" d="M357.232 727.587C357.941 728.844 357.975 729.03 358.408 730.418C360.098 730.538 360.552 730.455 362.038 731.094C360.931 732.945 360.926 732.928 359.47 734.519C357.662 734.503 357.11 734.639 356.351 732.887L355.942 731.986C356.426 730.442 356.846 729.173 357.232 727.587Z"/><path fill="#927451" d="M301.475 761.52C305.925 764.115 310.492 768.577 313.856 772.51L312.854 773.131C308.995 769.274 305.441 765.401 301.475 761.52Z"/><path fill="#CDA87B" d="M359.416 727.336C362.272 722.06 365.034 722.217 362.449 728.384C360.799 728.071 360.847 728.117 359.416 727.336Z"/><path fill="#28190D" d="M358.594 728.521C359.029 728.032 359.292 727.878 359.416 727.336C360.847 728.117 360.799 728.071 362.449 728.384L362.202 729.127C361.93 729.907 361.897 730.3 362.038 731.094C360.552 730.455 360.098 730.538 358.408 730.418L358.594 728.521Z"/><path fill="#A68661" d="M296.923 724.611C299.52 726.745 301.508 728.598 303.787 731.053L303.416 732.64C301.146 730.131 298.978 727.297 296.923 724.611Z"/><path fill="#A68661" d="M357.232 727.587L357.369 726.482C357.683 723.468 358.516 725.381 358.563 727.548L358.594 728.521L358.408 730.418C357.975 729.03 357.941 728.844 357.232 727.587Z"/><path fill="#A68661" d="M499.836 792.265C498.538 789.77 497.15 787.051 495.978 784.505C497.6 786.815 499.187 789.102 500.82 791.408L499.836 792.265Z"/><path fill="#927451" d="M287.207 770.467C289.284 771.332 291.516 772.13 293.445 773.235L292.833 774.233C290.935 773.011 289.06 771.756 287.207 770.467Z"/><path fill="#886944" d="M374.001 217.829C372.281 217.047 369.822 216.109 373.653 215.966C373.797 216.599 373.891 217.191 374.001 217.829Z"/><path fill="#927451" d="M360.994 767.778C361.297 767.191 361.959 765.7 362.654 765.476C363.015 766.126 361.924 768.109 361.647 768.701L360.994 767.778Z"/><path fill="#C7A884" d="M306.626 797.448C306.392 797.218 305.304 796.36 305.353 796.059C305.609 795.81 306.166 795.923 306.481 795.966L307.469 796.088L306.626 797.448Z"/><path fill="#927451" d="M288.231 829.54C293.353 829.285 298.991 829.574 303.47 832.759C304.261 833.321 309.764 838.571 307.716 840.634C307.148 841.205 299.975 840.938 298.239 840.926C291.211 840.894 284.172 840.68 277.139 840.524C280.491 833.746 281.507 832.982 288.231 829.54Z"/><path fill="#746356" d="M333.802 507.08C339.245 506.696 348.633 506.993 338.077 511.765C332.47 514.3 332.399 514.27 328.919 519.2C325.613 523.883 317.959 527.209 312.294 525.531L312.772 525.202C315.26 523.459 318.36 522.844 319.994 520.234C324 513.834 314.347 518.518 312.244 519.274C315.138 515.528 317.941 510.78 322.978 512.103C324.008 512.374 324.718 512.681 325.47 511.768C327.544 509.25 330.798 508.102 333.802 507.08Z"/><path fill="#A68661" d="M210.447 815.292C216.609 814.718 225.345 814.235 230.937 817.15C232.474 817.952 234.142 819.406 234.72 821.137C234.761 821.262 234.685 821.503 234.59 821.538C231.479 822.707 220.104 822.437 217.417 822.24C213.891 821.829 200.13 818.691 197.69 819.686C196.805 819.573 188.909 818.223 194.244 816.976C198.958 815.875 205.504 815.939 210.447 815.292Z"/><path fill="#927451" d="M282.782 794.132C288.127 793.751 291.037 794.211 296.258 794.881C302.832 795.724 302.805 798.437 296.099 799.476C290.667 799.524 282.461 799.752 276.999 799.07C276.78 799.024 276.392 798.763 276.386 798.514C276.321 795.538 281.083 794.5 282.782 794.132Z"/><path fill="#C7A884" d="M303.727 664.404C305.293 666.164 309.597 679.377 306.444 681.585C306.063 681.852 302.646 679.798 301.572 679.143L301.265 678.937C300.318 678.313 295.354 674.403 296.21 673.21C299.616 671.848 303.224 679.783 303.727 664.404Z"/><path fill="#C7A884" d="M292.793 661.587C292.62 660.997 291.93 659.432 292.182 658.809C292.273 658.766 292.364 658.723 292.454 658.68C293.715 659.137 295.361 660.445 296.435 661.267C298.459 662.816 301.543 665.092 302.073 667.743C302.268 668.721 302.059 671.865 300.463 671.602C298.91 671.346 296.958 668.701 296.028 667.506C294.98 666.113 294.387 664.97 293.79 663.404L294.683 663.488C295.627 664.166 295.673 664.167 296.416 664.973C298.866 668.325 300.266 666.933 296.921 664.046C296.488 663.513 296.05 662.985 295.606 662.461C294.647 661.26 294.271 660.93 292.793 661.587Z"/><path fill="#CDA87B" fill-opacity="0.61176473" d="M292.793 661.587C294.271 660.93 294.647 661.26 295.606 662.461L294.683 663.488L293.79 663.404C293.251 662.57 293.143 662.453 292.793 661.587Z"/><path fill="#C7A884" fill-opacity="0.68235296" d="M296.416 664.973L296.921 664.046C300.266 666.933 298.866 668.325 296.416 664.973Z"/><path fill="#CDA87B" fill-opacity="0.86666667" d="M295.606 662.461C296.05 662.985 296.488 663.513 296.921 664.046L296.416 664.973C295.673 664.167 295.627 664.166 294.683 663.488L295.606 662.461Z"/><path fill="#C8BEB6" d="M423.581 122.25C444.414 112.866 459.442 108.737 481.495 104.02L515.498 96.6169C526.159 94.2608 538.069 90.4669 548.438 88.5745C553.024 90.3897 561.234 92.8664 564.098 96.5621C548.756 106.152 554.221 107.365 534.432 108.578C533.252 109.485 532.162 110.364 530.939 111.23C526.201 111.897 475.794 127.194 471.377 129.852C465.821 131.244 442.39 131.935 435.846 132.089C431.402 127.956 428.736 125.444 423.581 122.25Z"/><path fill="#271C0E" d="M500.701 111.028L500.966 111.937C496.428 113.985 492.502 115.794 487.854 117.635C479.362 115.087 476.805 118.834 467.577 120.42C471.184 117.348 477.418 113.057 482.7 114.676C486.528 115.849 487.088 114.678 491.035 113.691C494.298 112.876 497.547 111.991 500.701 111.028Z"/><path fill="#453F3C" d="M500.701 111.028C502.29 110.41 507.688 108.479 509.234 108.563L509.394 108.683C509.123 109.262 502.003 111.627 500.966 111.937L500.701 111.028Z"/><path fill="#271C0E" d="M423.581 122.25C428.736 125.444 431.402 127.956 435.846 132.089C442.39 131.935 465.821 131.244 471.377 129.852C470.019 136.003 468.61 142.143 467.149 148.271C466.938 149.7 466.6 151.099 466.359 152.522C463.887 162.566 461.356 172.595 458.764 182.608C457.803 186.334 456.151 193.898 454.752 197.134L453.919 197.054L452.714 195.25C451.074 194.769 449.061 191.915 447.853 190.583C444.172 186.886 442.696 186.401 443.71 180.97C441.517 177.3 442.032 171.077 440.774 166.652C440.701 166.755 440.408 167.208 440.259 167.32C440.694 167.392 430.409 155.758 429.74 154.969C427.147 152.289 422.325 149.812 418.922 148.206C421.312 146.762 421.281 148.098 424.064 145.94C423.334 145.697 422.656 145.469 421.916 145.252C418.169 143.681 412.059 141.683 408.193 140.929C410.671 135.239 419.15 126.479 423.581 122.25ZM434.502 156.96C434.523 154.451 434.769 154.134 432.667 152.762C432.358 155.344 432.461 155.366 434.502 156.96Z"/><path fill="#FBFAFA" d="M424.064 145.94C436.477 151.421 438.139 152.234 440.774 166.652C440.701 166.755 440.408 167.208 440.259 167.32C440.694 167.392 430.409 155.758 429.74 154.969C427.147 152.289 422.325 149.812 418.922 148.206C421.312 146.762 421.281 148.098 424.064 145.94ZM434.502 156.96C434.523 154.451 434.769 154.134 432.667 152.762C432.358 155.344 432.461 155.366 434.502 156.96Z"/><path fill="#FBFAFA" fill-opacity="0.5411765" d="M432.667 152.762C434.769 154.134 434.523 154.451 434.502 156.96C432.461 155.366 432.358 155.344 432.667 152.762Z"/><path fill="#FBFAFA" d="M443.71 180.97C445.916 183.799 447.493 186.105 449.237 189.287L447.853 190.583C444.172 186.886 442.696 186.401 443.71 180.97Z"/><path fill="#F0EDEC" d="M449.237 189.287C450.634 191.151 451.739 193.139 452.714 195.25C451.074 194.769 449.061 191.915 447.853 190.583L449.237 189.287Z"/><path fill="#271C0E" d="M619.062 505.683C634.934 497.118 632.86 494.975 637.002 479.992C638.501 474.572 653.393 474.714 658.181 471.505C663.531 467.918 665.989 461.593 671.217 457.846C680.771 452.103 721.117 430.724 729.684 428.628C726.967 432.01 723.906 435.52 721.722 439.22C716.851 441.739 711.099 443.512 706.015 445.612C696.997 449.336 688.714 454.347 681.013 460.323C675.395 464.512 671.345 471.056 666.798 474.709C661.144 479.252 655.183 479.845 649.742 486.678C644.629 493.1 644.01 499.743 639.544 505.906C637.379 508.893 631.97 513.088 629.412 516.197C620.686 526.803 613.924 540.87 609.551 553.794C609.317 554.485 609.087 555.178 608.863 555.873L607.723 554.688C609.902 539.165 612.809 526.669 619.014 512.184C621.528 511.462 624.037 510.725 626.542 509.973C624.273 508.415 621.504 507.013 619.062 505.683Z"/><path fill="#271C0E" d="M707.954 603.8C713.793 598.896 720.331 594.691 725.963 589.56C730.281 585.501 733.748 580.637 737.872 576.394C741.115 573.056 744.881 570.305 748.566 567.48C748.444 571.525 747.881 577.917 747.224 581.981C742.16 586.951 733.6 597.734 729.788 603.676C729.324 603.865 729.416 603.794 729.082 604.061L728.951 604.376C729.484 605.574 736.809 604.904 738.116 604.847C739.332 604.947 742.258 604.797 743.605 604.767C740.531 607.747 733.69 614.653 729.98 615.589C723.736 617.163 720.868 616.012 714.394 619.911C701.109 627.911 689.18 637.405 676.692 646.467C679.164 640.424 685.039 626.437 688.038 621.18C699.028 616.285 699.165 618.008 708.103 609.087L707.954 603.8Z"/><path fill="#271C0E" d="M629.173 310.881C644.915 296.797 662.903 284.375 679.1 270.754C681.365 268.849 682.153 264.434 683.883 262.15C687.431 257.468 692.795 253.781 697.5 250.337C698.265 256.694 699.147 263.037 700.146 269.361C699.046 270.624 695.411 274.487 695.397 275.946C695.179 275.722 694.961 275.497 694.743 275.273C687.879 278.454 681.405 280.801 674.484 283.742L673.746 284.313C667.594 288.496 663.886 290.803 658.217 295.829C665.087 293.161 677.513 289.666 682.131 285.196C684.905 285.688 690.471 285.798 694.153 286.301C687.814 289.396 675.702 293.256 668.768 295.764C655.498 300.613 642.298 305.653 629.173 310.881Z"/><path fill="#746356" d="M467.149 148.271C470.633 152.748 474.113 157.727 477.656 162.095L477.961 162.477C483.234 162.302 486.643 161.58 491.777 160.772C497.399 164.986 498.956 168.281 504.114 172.372C505.576 173.531 509.813 175.772 511.792 177.018C509.158 176.692 506.308 176.389 503.772 176.201C502.48 176.173 498.574 175.543 498.523 177.745C498.507 178.45 499.501 180.965 498.471 180.852C496.922 180.684 492.705 175.443 491.541 174.304C489.496 172.305 488.626 171.401 486.069 170.33C482.275 168.914 478.225 168.464 474.318 167.464L473.813 166.72C470.781 162.457 469.295 157.051 466.583 152.873L466.359 152.522C466.6 151.099 466.938 149.7 467.149 148.271Z"/><path fill="#28190D" d="M564.098 96.5621C563.842 97.9776 563.723 98.1364 563.16 99.4862C562.275 99.8907 562.229 100.203 561.52 101.008C557.822 105.209 552.861 106.607 548.462 109.099C547.265 109.659 546.28 110.15 545.109 110.779C541.896 112.02 541.401 113.078 537.252 113.532C533.393 113.953 528.726 116.572 525.008 117.793C523.881 117.903 523.229 118.115 522.12 118.265C524.62 116.306 528.783 113.234 530.939 111.23C532.162 110.364 533.252 109.485 534.432 108.578C554.221 107.365 548.756 106.152 564.098 96.5621Z"/><path fill="#C8BEB6" d="M548.462 109.099C552.861 106.607 557.822 105.209 561.52 101.008C562.229 100.203 562.275 99.8907 563.16 99.4862C564.726 102.109 574.748 101.761 578.055 102.092C569.933 107.281 557.535 109.221 548.24 110.873C546.716 111.078 546.476 111.44 545.109 110.779C546.28 110.15 547.265 109.659 548.462 109.099ZM558.212 106.311C558.256 106.173 558.461 105.737 558.403 105.507C558.203 105.528 558.02 105.733 557.733 105.963C557.688 106.117 557.529 106.455 557.592 106.664C557.811 106.659 558.08 106.402 558.212 106.311Z"/><path fill="#C8BEB6" fill-opacity="0.96470588" d="M557.733 105.963C558.02 105.733 558.203 105.528 558.403 105.507C558.461 105.737 558.256 106.173 558.212 106.311C558.08 106.402 557.811 106.659 557.592 106.664C557.529 106.455 557.688 106.117 557.733 105.963Z"/><path fill="#271C0E" d="M668.674 210.924C670.303 208.479 679.41 196.04 681.501 195.556C681.586 197.256 681.817 198.76 681.888 200.41C681.907 200.873 682.429 204.236 682.279 204.323C678.385 206.586 674.705 209.117 670.904 211.524C669.727 211.404 669.688 211.48 668.674 210.924Z"/><path fill="#453F3C" d="M522.12 118.265C523.229 118.115 523.881 117.903 525.008 117.793C524.046 118.457 523.265 118.94 522.284 119.565L520.53 120.68C519.793 121.15 518.705 121.922 517.787 121.933C516.8 121.312 521.825 118.425 522.12 118.265Z"/><path fill="#28190D" d="M668.674 210.924C669.688 211.48 669.727 211.404 670.904 211.524C669.204 212.701 667.481 213.843 665.734 214.949C666.624 213.669 667.664 212.047 668.674 210.924Z"/><path fill="#28190D" d="M607.723 554.688L608.863 555.873C608.608 556.908 608.332 557.922 608.018 558.941L608.16 558.673C608.009 558.982 607.858 559.29 607.706 559.599C607.149 558.957 607.584 555.511 607.723 554.688Z"/><path fill="#453F3C" d="M760.364 715.114C760.623 713.018 761.305 712.562 762.464 710.87C762.338 711.586 762.215 712.19 762.062 712.896C761.55 713.628 761.007 714.519 760.364 715.114Z"/><path fill="#28190D" d="M442.01 289.588C441.95 289.55 444.203 290.993 443.721 291.262C443.056 291.635 441.362 290.479 440.814 290.196L442.01 289.588Z"/><path fill="#271C0E" d="M687.282 328.413C688.619 328.194 694.725 327.695 696.585 328.266C696.669 328.291 696.731 328.439 696.724 328.505C696.667 329.081 695.397 329.061 695.023 329.094C694.402 329.148 693.865 329.23 693.28 329.311C675.34 332.196 655.715 340.375 639.703 348.956C635.185 351.376 630.566 355.947 627.034 357.31C625.406 355.247 625.761 354.976 623.857 354.722C617.118 357.749 612.429 368.102 607.769 373.305C605.487 375.748 601.332 374.727 598.677 376.574C594.397 379.55 592.843 385.083 588.486 388.016C583.839 391.145 576.317 391.331 574.025 397.068C572.21 401.61 574.456 408.41 568.986 410.639C563.201 414.09 545.441 414.276 542.819 417.094C543.467 421.628 553.548 420.35 556.509 419.912C552.805 425.312 547.259 429.632 543.758 434.806C530.461 454.463 521.036 477.974 514.258 500.644C512.614 498.418 513.582 498.78 513.33 496.105C513.504 479.176 520.425 457.932 527.036 442.398C529.563 436.46 535.65 427.42 537.544 422.091C543.557 405.179 549.43 399.595 563.414 389.02C564.934 384.196 566.272 381.328 569.214 377.199C577.267 365.896 587.062 369.712 598.773 367.84L599.473 367.724C594.987 366.559 590.539 365.253 586.136 363.809C607.23 347.041 660.289 329.088 687.282 328.413Z"/><path fill="#453F3C" d="M687.282 328.413C688.619 328.194 694.725 327.695 696.585 328.266C696.669 328.291 696.731 328.439 696.724 328.505C696.667 329.081 695.397 329.061 695.023 329.094C694.402 329.148 693.865 329.23 693.28 329.311C693.229 328.061 688.393 328.472 687.282 328.413Z"/><path fill="#271C0E" d="M702.86 386.453C703.595 386.315 717.814 385.197 714.093 386.815L714.088 386.829C713.231 387.103 712.283 387.165 711.397 387.312C695.961 391.217 678.427 396.645 669.83 411.144C669.611 411.513 669.395 411.883 669.182 412.255C656.83 414.632 645.234 416.611 644.42 431.59L643.997 432.186C638.949 439.2 636.396 435.351 632.156 439.74C629.971 442.001 630.063 449.341 625.053 452.866C619.248 456.94 613.101 457.309 607.578 462.039C602.588 466.313 602.8 475.309 599.146 479.254C591.905 487.072 582.441 492.991 575.504 501.393C570.595 507.34 569.38 512.29 566.45 519.23C564.327 523.411 559.383 529.84 556.654 534.456C546.269 551.681 540.018 571.08 538.392 591.127C535.992 590.182 537.751 585.469 537.338 582.604C537.484 569.609 541.17 548.907 547.214 537.434C548.824 534.378 552.203 530.342 554.488 527.581C551.797 518.202 551.96 516.395 558.89 509.75C561.633 507.12 560.948 503.216 560.707 499.666C565.289 489.594 574.002 485.995 583.387 481.481C587.063 471.085 586.822 469.695 594.752 461.554C588.123 446.29 603.952 448.502 613.218 441.95C619.967 437.177 620.826 427.208 622.614 419.478C623.21 417.549 623.974 417.068 623.905 419.431C624.222 422.995 624.736 424.782 625.644 428.238C635.592 410.116 658.441 410.4 672.972 397.215C679.703 391.107 693.961 386.785 702.86 386.453Z"/><path fill="#453F3C" d="M702.86 386.453C703.595 386.315 717.814 385.197 714.093 386.815L714.088 386.829C713.231 387.103 712.283 387.165 711.397 387.312C711.066 385.712 704.838 386.581 702.86 386.453Z"/><path fill="#453F3C" d="M622.614 419.478C623.21 417.549 623.974 417.068 623.905 419.431C623.508 419.512 622.998 419.479 622.614 419.478Z"/><path fill="#271C0E" d="M399.102 608.764C412.985 613.259 426.62 617.713 439.548 624.597C447.24 628.692 445.603 634.391 454.747 632.427C457.291 633.288 457.984 636.405 458.841 638.743C473.239 643.826 473.561 652.192 483.021 661.556C485.484 663.993 499.653 668.865 503.901 670.335C495.456 671.765 487.051 673.425 478.696 675.313C477.867 664.25 472.676 657.151 462.833 652.235C457.325 649.484 451.183 649.006 446.5 645.19C445.486 644.364 444.976 639.596 444.806 638.355C441.61 636.732 439.769 635.873 436.419 634.632C437.849 632.558 438.455 632.402 438.561 630.14C436.917 628.048 434.765 628.524 432.257 628.54L431.341 628.541L430.791 628.547C425.471 623.388 407.013 612.25 399.927 610.216L399.102 608.764Z"/><path fill="#746356" d="M567.776 600.728C571.98 602.886 575.234 611.83 579.823 616.714C581.921 617.505 584.896 618.263 587.11 618.897C588.797 620.508 590.653 623.27 592.075 625.215C594.954 625.526 600.224 625.446 603.414 625.565C608.31 630.057 609.703 636.236 614.448 640.602C618.227 644.08 625.361 646.591 629.629 649.349C633.33 651.74 638.385 656.085 641.976 658.975C637.234 658.176 634.462 658.002 629.694 658.001C635.476 662.61 636.997 664.189 640.05 670.721C640.723 672.304 640.931 672.946 641.41 674.61C640.59 674.676 637.655 670.551 636.609 669.483C629.194 661.918 620.715 655.961 610.838 652.292C608.946 653.224 606.375 654.864 604.504 655.979C606.135 651.407 607.204 649.451 608.037 644.597C603.568 644.172 600.021 644.118 595.534 644.067C596.22 631.731 588.325 630.492 579.713 623.652C572.178 617.666 569.125 609.951 567.776 600.728Z"/><path fill="#746356" d="M450.064 352.825C457.439 357.042 462.654 364.984 469.991 367.088C471.211 367.438 473.043 365.802 474.086 364.972C475.249 369.735 477.557 376.548 480.801 380.319C483.956 383.986 490.076 385.696 493.175 389.783C494.576 391.631 494.318 394.426 495.005 396.608C497.281 404.79 505.182 407.688 511.487 412.611L511.971 412.994C508.863 412.132 505.703 411.111 502.616 410.153C491.006 405.716 485.378 398.54 477.108 389.61C470.131 382.076 469.05 383.625 460.64 379.358C458.406 378.225 457.677 369.388 455.472 366.85C451.297 362.044 445.941 358.908 441.078 354.774C444.213 356.074 447.718 357.836 450.823 359.31L450.064 352.825Z"/><path fill="#271C0E" d="M479.714 681.121C487.056 677.66 490.841 677.608 498.771 678.032C501.837 695.141 505.799 694.788 513.743 708.895C519.924 719.872 522.457 736.123 523.802 748.587L522.905 750.144C517.831 728.609 499.261 692.402 479.714 681.121Z"/><path fill="#746356" d="M669.733 524.343C682.208 528.996 679.695 540.587 690.254 542.468C698.054 543.858 695.077 545.327 697.326 552.084C699.196 552.278 704.493 552.921 706.057 552.521C717.013 549.723 716.831 565.099 716.966 574.806C714.544 573.584 713.052 570.856 710.903 569.11C707.974 566.102 699.828 563.165 697.405 560.273C693.346 555.426 690.941 549.857 684.908 546.288C682.464 544.842 680.694 541.617 679.472 539.002C676.907 533.513 673.202 529.18 669.733 524.343Z"/><path fill="#271C0E" d="M402.273 664.141L402.992 663.114C413.274 666.422 416.562 668.47 427.41 669.422C430.248 671.702 432.017 673.172 434.42 675.873C438.075 679.983 440.459 685.373 445.433 687.955C449.133 689.877 453.866 691.215 457.898 692.496C455.305 693.487 442.065 698.647 440.17 698.688C437.827 696.699 437.711 691.66 436.076 689.127C435.081 687.587 431.17 687.108 429.519 685.863C424.202 681.852 425.271 674.043 417.549 675.336C415.417 674.413 406.816 666.852 402.273 664.141Z"/><path fill="#746356" d="M440.096 518.837C443.575 520.205 446.589 522.532 449.579 524.722C455.334 528.881 461.161 532.939 467.058 536.894C472.54 540.54 471.429 544.56 474.761 549.726C475.897 551.488 481.332 555.664 476.532 554.427C475.37 553.839 471.691 551.87 470.48 551.766C469.989 551.723 469.53 554.797 468.253 554.403C465.334 553.503 463.668 549.526 461.925 547.26C460.848 545.86 460.021 544.511 459.014 543.193C455.924 543.368 454.25 543.683 451.589 543.91C449.16 536.699 445.199 526.539 440.993 520.173L440.096 518.837Z"/><path fill="#271C0E" d="M442.942 700.587C446.058 699.789 457.443 695.735 459.512 697.797C459.308 698.772 459.131 699.752 458.981 700.736C459.97 701.003 460.825 701.286 461.797 701.609C463.742 703.557 463.849 708.661 465.222 710.073C477.452 722.662 480.425 734.415 484.311 751.659L483.239 752.153C481.166 744.937 470.3 727.579 465.75 720.799C462.308 715.669 455.036 705.367 449.719 702.204C448.921 701.73 444.224 700.833 442.942 700.587Z"/><path fill="#746356" d="M467.831 297.37C470.328 299.191 476.997 306.661 479.141 309.363C482.774 313.94 484.449 315.08 489.372 318.028C490.952 316.173 492.156 314.576 493.646 312.65C501.657 318.936 504.676 322.409 506.362 332.383C506.447 333.205 506.859 336.062 506.194 336.682C506.023 336.579 505.852 336.476 505.682 336.373L505.675 336.386C501.584 333.017 497.219 325.24 491.005 324.459C487.334 323.998 484.009 323.905 480.273 323.309L480.102 323.007C475.656 314.971 471.891 305.687 467.831 297.37Z"/><path fill="#746356" d="M495.424 614.348C508.25 616.192 506.112 622.6 516.55 629.729C520.86 632.673 524.799 634.872 528.264 638.566C528.66 641.124 528.869 642.689 529.11 645.226C530.164 646.483 536.717 652.923 536.803 653.608C536.721 653.801 536.797 653.679 536.481 653.985C525.892 647.995 527.46 648.687 519.237 641.142C517.953 641.514 514.077 643.042 513.215 642.999C510.814 642.879 509.795 635.565 508.427 633.303C506.815 630.639 506.304 630.171 504.313 627.931C504.06 623.308 504.518 621.37 500.375 618.296L498.384 616.793C497.169 615.87 496.579 615.366 495.424 614.348Z"/><path fill="#271C0E" d="M697.481 668.819C700.907 670.131 711.974 678.241 713.28 680.69C718.991 691.392 720.779 691.744 731.974 695.146C733.442 695.592 742.999 702.086 745.344 703.758C744.507 704.419 741.64 706.212 741.318 706.971C741.677 707.198 743.741 708.232 743.641 708.762C742.636 709.456 737.463 707.555 736.308 707.089C733.166 702.971 732.178 701.253 727 700.07C725.178 699.668 723.343 699.334 721.497 699.068C720.595 698.944 720.286 698.954 719.422 698.751L717.794 698.355C714.768 694.089 712.546 689.393 709.781 684.961C706.188 679.203 701.817 674.015 697.481 668.819Z"/><path fill="#746356" d="M551.481 250.896C555.92 252.966 561.373 257.211 565.862 259.653C572.093 263.044 568.811 270.085 572.977 274.75C574.745 276.73 576.763 278.184 578.479 280.092C574.124 279.418 562.862 273.911 559.439 270.859C557.001 262.776 554.766 258.351 551.481 250.896Z"/><path fill="#746356" d="M452.822 213.898C458.314 215.981 466.064 221.71 471.527 224.512C476.709 227.467 482.693 230.438 487.717 233.533C492.326 236.372 503.137 249.12 504.667 253.84L504.357 253.914C503.171 253.358 497.315 246.912 495.782 245.253C487.047 235.793 476.601 233.708 466.208 227.351C461.274 224.333 456.643 218.436 452.822 213.898Z"/><path fill="#746356" d="M700.26 461.811C708.225 465.114 711.629 470.335 720.29 472.663C724.133 479.627 726.098 481.874 731.208 487.645C705.884 480.328 712.85 482.799 700.26 461.811Z"/><path fill="#271C0E" d="M652.137 737.189C654.116 737.135 655.458 737.209 657.422 737.335C654.617 750.313 654.614 748.621 643.38 752.337C641.37 752.984 639.349 753.583 637.35 754.259C637.342 754.275 637.957 753.093 637.945 753.109C643.831 745.233 641.461 738.356 652.137 737.189Z"/><path fill="#746356" d="M571.251 112.733C576.567 116.197 579.317 124.799 584.577 129.93C585.302 130.109 586.02 130.338 586.755 130.474C588.15 130.745 589.55 130.988 590.954 131.205C591.982 132.877 593.581 135.82 594.556 137.619C589.465 137.669 584.87 136.509 580.348 134.176C577.018 128.611 573.855 119.126 571.251 112.733Z"/><path fill="#746356" d="M402.733 566.219C407.484 568.168 411.412 570.921 416.731 573.062C417.596 575.96 418.608 578.934 419.44 581.813C415.881 580.857 412.505 578.857 409.083 577.66C400.865 574.785 401.817 573.492 402.733 566.219Z"/><path fill="#746356" d="M429.548 308.857C433.162 309.627 436.727 310.554 440.157 311.921C440.955 313.699 446.308 325.071 444.995 325.733C440.819 321.365 438.936 319.222 432.875 317.697C426.752 316.155 427.762 314.051 429.548 308.857Z"/><path fill="#271C0E" d="M548.838 754.076C562.087 753.458 560.041 757.62 550.049 762.709C546.2 763.76 543.818 764.415 541.362 760.273C539.142 756.528 546.575 754.693 548.838 754.076Z"/><path fill="#746356" d="M569.16 184.687C571.093 185.429 581.967 196.249 584.682 198.483C584.734 198.526 584.7 198.646 584.652 198.732C584.457 198.806 584.598 198.77 584.158 198.806C575.951 197.524 561.51 195.856 569.16 184.687Z"/><path fill="#271C0E" d="M378.877 683.737C383.507 685.749 385.551 688.265 388.831 692.147C390.023 693.557 389.476 695.943 389.164 697.636C378.133 698.303 377.64 692.772 378.877 683.737Z"/><path fill="#746356" d="M639.608 562.038C643.696 562.874 648.176 563.774 652.011 565.453C654.746 566.651 653.111 568.969 652.047 570.744C645.766 572.536 639.164 568.498 639.608 562.038Z"/><path fill="#271C0E" d="M614.451 769.621C623.72 768.869 606.721 777.997 606.48 778.117C605.909 777.51 602.723 773.996 603.776 773.07C605.877 771.224 611.801 770.109 614.451 769.621Z"/><path fill="#746356" d="M631.052 182.736C636.382 183.465 637.033 185.46 640.431 189.582C640.986 190.256 640.993 190.693 640.287 191.112C638.446 191.89 636.569 192.55 634.691 193.228C633.178 189.445 631.965 186.764 631.052 182.736Z"/><path fill="#746356" d="M632.371 247.813C639.084 248.153 631.877 256.201 630.415 256.727L629.622 257.04C623.786 252.484 626.637 252.079 632.371 247.813Z"/><path fill="#271C0E" d="M678.957 715.932C686.232 718.895 675.958 722.797 672.65 723.426C666.529 718.949 673.852 718.641 678.957 715.932Z"/><path fill="#746356" d="M508.738 584.22C513.264 585.008 515.566 590.438 511.651 593.157L511.003 593.664C509.542 592.768 508.721 592.179 507.83 590.657C506.04 587.605 505.324 587.483 508.028 584.919L508.738 584.22Z"/><path fill="#271C0E" d="M382.972 353.692C388.253 355.149 386.756 359.5 384.718 363.839C381.04 363.065 379.666 363.469 380.49 359.744C381.078 357.082 381.568 355.955 382.972 353.692Z"/><path fill="#271C0E" d="M569.079 704.701C571.408 705.367 572.046 705.791 571.756 708.495C571.475 711.12 572.017 712.662 569.801 714.373L569.109 714.94C563.599 712.012 565.385 710.143 569.079 704.701Z"/><path fill="#271C0E" d="M376.316 609.344C378.561 611.501 379.202 614.466 379.028 617.53C378.967 618.604 377.168 619.524 376.382 620.074C371.517 617.03 373.701 613.428 376.316 609.344Z"/><path fill="#28190D" d="M713.599 626.838C715.575 627.46 715.958 630.282 715.315 631.162C714.404 632.408 708.864 633.562 707.106 634.085C700.351 634.553 712.909 627.281 713.599 626.838Z"/><path fill="#746356" d="M472.496 431.083C477.493 430.582 473.712 434.365 475.786 438.342C476.229 439.192 472.994 437.634 472.956 437.616C467.262 434.184 465.054 432.72 472.496 431.083Z"/><path fill="#746356" d="M479.337 285.704C484.019 286.651 485.685 289.205 488.783 292.62C480.672 292.435 480.108 293.408 479.337 285.704Z"/><path fill="#28190D" d="M505.133 749.954C511.049 749.516 509.09 753.635 504.923 755.218C502.463 754.932 500.994 754.651 498.577 754.218C500.828 752.736 502.803 751.343 505.133 749.954Z"/><path fill="#28190D" d="M414.315 262.823C415.988 263.184 424.888 264.518 422.361 267.506C420.054 267.396 417.771 267.342 415.507 266.816C415.511 266.817 412.579 266.295 412.794 265.801C413.166 264.946 413.87 263.76 414.315 262.823Z"/><path fill="#746356" d="M669.82 588.47C671.218 589.277 676.083 593.275 675.683 594.718C674.637 594.919 670.83 596.144 670.186 594.953C669.228 593.179 669.336 590.405 669.82 588.47Z"/><path fill="#28190D" d="M393.729 722.184C398.444 723.678 399.927 724.657 398.067 728.881C395.38 727.848 392.415 726.129 393.517 722.854L393.729 722.184Z"/><path fill="#28190D" d="M723.044 717.411C727.714 717.753 726.759 719.508 723.641 722.315C723.239 722.214 722.836 722.12 722.43 722.035C718.256 721.184 720.845 719.425 723.044 717.411Z"/><path fill="#453F3C" d="M538.392 591.127C538.449 591.828 537.717 602.633 537.641 602.772C537.52 602.739 537.4 602.705 537.279 602.672C537.118 599.952 536.494 584.385 537.338 582.604C537.751 585.469 535.992 590.182 538.392 591.127Z"/><path fill="#28190D" d="M500.291 769.732C503.998 770.719 502.206 771.865 499.865 773.813C495.546 772.751 497.865 771.409 500.291 769.732Z"/><path fill="#453F3C" d="M514.258 500.644C514.132 501.241 513.305 505.999 512.852 506.104C512.361 505.674 512.92 496.978 513.33 496.105C513.582 498.78 512.614 498.418 514.258 500.644Z"/><path fill="#453F3C" d="M402.273 664.141C402.495 664.244 395.94 661.615 397.26 661.573C398.835 661.523 401.359 662.636 402.992 663.114L402.273 664.141Z"/><path fill="#453F3C" d="M523.802 748.587C524.064 749.437 524.434 752.816 524.079 753.595C523.938 753.665 524.012 753.652 523.859 753.636C523.373 753.241 522.992 750.859 522.905 750.144L523.802 748.587Z"/><path fill="#453F3C" d="M399.927 610.216C399.165 609.895 396.782 608.85 396.419 608.246C396.858 607.692 397.837 608.202 398.37 608.444L399.102 608.764L399.927 610.216Z"/><path fill="#453F3C" d="M484.311 751.659C484.412 752.207 484.89 754.068 484.672 754.552C484.253 754.714 483.35 752.39 483.239 752.153L484.311 751.659Z"/><path fill="#927451" d="M198.055 655.131C203.531 656.302 200.926 667.145 202.247 671.191C206.23 683.383 210.426 695.521 214.305 707.747C215.664 711.912 221.085 732.999 222.641 734.493L223.105 733.784L224.516 733.807C225.138 732.122 224.346 729.994 223.877 727.981C232.441 736.051 232.652 739.828 238.337 749.428C238.647 737.776 233.454 718.579 231.209 706L232.364 706.003C233.336 710.46 234.995 722.398 236.59 726.023C239.371 732.344 243.285 737.886 246.249 744.81C246.67 734.286 246.266 725.188 243.62 714.817L243.908 714.739L245.8 717.051C246.251 718.155 247.907 721.661 248.636 722.542C249.257 724.239 249.811 725.898 250.451 727.614C250.632 729.11 251.043 731.918 252.63 732.42C253.912 736.164 258.488 764.168 258.656 768.474C254.832 770.8 252.441 772.093 249.542 775.606C239.953 768.329 236.472 770.543 226.282 770.749C209.509 771.088 214.481 787.695 208.423 788.505C184.168 791.749 159.558 792.367 135.135 793.082C131.75 793.176 120.853 794.136 118.365 793.59C123.421 791.779 129.915 790.704 135.171 789.493C154.447 785.051 173.529 784.113 192.996 781.875L187.376 776.029L188.727 774.732L194.324 776.958C196.324 778.348 198.624 779.543 200.77 780.703C199.412 778.535 198.184 776.816 196.594 774.804C193.487 771.454 191.621 770.326 187.847 767.796L194.063 770.106C194.222 769.783 195.307 768.268 195.257 768.12C194.63 766.278 191.8 763.961 190.486 762.501L191.47 761.568L192.284 762.155C194.932 764.102 198.174 767.735 201.351 767.765C200.512 763.773 198.018 761.449 194.964 759.077L195.586 757.644C200.222 759.812 204.102 762.065 208.44 764.742C203.86 756.083 197.253 747.702 191.152 740.11C190.96 739.669 191.001 739.642 190.617 739.392L189.853 738.855L191 738.178C197.943 744.34 204.24 755.281 211.843 761.89C210.101 755.655 207.469 748.608 203.794 743.241L204.525 742.324C208.388 746.714 212.816 752.657 216.478 757.346C214.714 745.924 212.335 742.002 206.866 732.17L207.28 730.365C212.503 736.805 218.808 751.11 224.602 758.725C222.706 738.659 208.104 690.112 199.81 671.312C195.982 669.296 190.66 665.454 189.353 661.198C189.696 659.244 189.498 659.919 190.984 658.257C192.331 660.557 191.355 660.17 191.781 661.585C193.039 662.788 198.649 663.786 198.222 660.451C197.953 658.355 197.298 660.017 196.204 658.552C198.644 658.109 199.219 658.219 198.055 655.131ZM225.903 747.846C226.465 748.654 227.075 749.705 227.608 748.264L227.872 747.598C227.611 745.896 227.31 744.199 226.972 742.51C226.857 741.918 225.808 737.063 225.222 736.602C222.619 738.482 225.328 745.458 225.903 747.846Z"/><path fill="#A68661" d="M191.47 761.568L192.284 762.155C194.932 764.102 198.174 767.735 201.351 767.765C202.513 768.358 204.163 771.039 203.931 771.987C203.261 772.621 202.752 771.677 201.969 772.518C201.034 773.524 201.54 773.8 200.304 773.654C198.402 772.671 195.985 771.206 194.063 770.106C194.222 769.783 195.307 768.268 195.257 768.12C194.63 766.278 191.8 763.961 190.486 762.501L191.47 761.568Z"/><path fill="#F3EEEC" d="M194.063 770.106C194.815 769.625 195.458 769.188 196.248 768.808C196.695 769.021 200.07 772.726 200.304 773.654C198.402 772.671 195.985 771.206 194.063 770.106Z"/><path fill="#FBFAFA" fill-opacity="0.015686275" d="M225.903 747.846C225.328 745.458 222.619 738.482 225.222 736.602C225.808 737.063 226.857 741.918 226.972 742.51C227.31 744.199 227.611 745.896 227.872 747.598C227.285 747.604 226.498 747.756 225.903 747.846Z"/><path fill="#FBFAFA" fill-opacity="0.086274512" d="M227.872 747.598L227.608 748.264C227.075 749.705 226.465 748.654 225.903 747.846C226.498 747.756 227.285 747.604 227.872 747.598Z"/><path fill="#927451" d="M827.251 683.382C827.066 679.375 828.294 673.07 831.006 670.038C831.448 671.823 830.988 673.619 830.952 675.657C834.005 676.927 834.737 676.709 837.86 675.583L838.369 675.627C837.077 678.512 831.053 684.218 827.993 685.213C821.341 693.803 807.805 730.358 804.855 742.635C804 746.194 803.232 755.035 802.763 759.146C802.663 759.593 802.638 759.838 802.607 760.297C802.593 760.5 802.539 760.704 802.558 760.906C802.583 761.159 802.578 761.498 802.794 761.632C803.403 761.302 804.492 759.348 804.937 758.672C809.863 751.85 813.475 744.67 818.533 737.707L819.187 738.609C816.074 743.277 807.899 756.305 807.568 761.75L808.287 762.274C811.276 761.578 819.014 752.249 822.873 751.138C823.47 750.999 824.593 750.993 825.075 750.563C830.701 745.538 835.635 740.794 841.868 736.421L842.497 737.518C830.513 748.074 818.518 758.201 815.357 775.136C820.811 772.391 825.231 768.566 830.906 765.586L831.827 766.863C829.046 769.907 826.765 772.574 824.284 775.889C830.147 773.175 836.05 770.547 841.99 768.008C839.885 769.778 836.076 772.401 834.874 774.297L834.802 775.464L835.669 776.374C837.534 776.394 837.568 776.288 839.262 775.679C839.144 777.385 836.567 781.252 835.561 782.959C841.35 781.438 844.829 781.71 850.252 780.669C846.995 783.143 844.589 784.707 842.059 787.913C838.243 788.657 832.38 788.236 828.492 787.714L830.917 787.609L831.493 786.378C828.142 785.134 822.784 784.848 820.543 783.846C806.99 777.786 800.639 776.777 785.676 778.928L785.091 777.748C779.386 766.399 773.091 769.199 763.406 774.264C761.359 767.707 760.35 746.967 760.579 739.437C762.194 738.996 762.409 734.805 762.454 733.35C763.13 731.907 765.037 724.734 765.54 722.947C765.497 728.296 765.551 732.908 766.69 738.146C769.043 734.562 771.008 731.547 773.686 728.17C773.461 732.22 772.66 737.553 772.245 741.769L781.567 727.844C779.184 734.996 777.41 741.255 777.321 748.802C784.352 738.694 784.585 734.643 794.785 727.193C794.686 727.52 794.587 727.848 794.488 728.175C788.487 735.559 785.345 740.783 783.248 750.147C782.992 750.806 782.877 750.98 783.008 751.649C783.567 752.034 785.199 749.994 785.489 749.701C786.401 748.657 795.361 741.138 795.793 741.197L795.82 741.238C790.658 748.811 789.811 750.655 787.129 759.481C790.828 756.069 793.185 752.642 795.592 750.397L796.723 750.592L797.217 751.869C796.924 754.483 796.755 755.607 796.907 758.277L797.223 758.999C798.939 757.413 803.355 740.099 804.753 736.254C810.787 719.659 818.002 698.136 827.251 683.382ZM824.652 751.132C823.126 751.985 821.876 752.824 820.524 753.933C820.101 754.281 818.254 755.624 818.303 756.328C818.317 756.527 818.79 756.867 818.802 756.878C814.102 758.129 818.243 761.988 819.593 757.265C821.706 755.935 823.19 753.264 824.652 751.132Z"/><path fill="#F3EEEC" d="M797.223 758.999C797.676 760.621 796.685 765.191 795.824 765.584C795.158 764.541 796.085 759.672 796.907 758.277L797.223 758.999Z"/><path fill="#49321C" d="M831.493 786.378C833.738 787.477 832.828 787.747 830.917 787.609L831.493 786.378Z"/><path fill="#F3EEEC" d="M815.065 760.408C815.28 760.387 815.732 760.389 815.858 760.33C820.446 758.199 812.413 768.238 811.324 769.744C811.23 769.907 811.137 770.069 811.044 770.232L810.594 770.356L810.892 770.425C807.816 773.358 814.806 760.792 815.065 760.408Z"/><path fill="#F0EDEC" fill-opacity="0.98823529" d="M818.802 756.878C818.79 756.867 818.317 756.527 818.303 756.328C818.254 755.624 820.101 754.281 820.524 753.933C821.876 752.824 823.126 751.985 824.652 751.132C823.19 753.264 821.706 755.935 819.593 757.265L818.802 756.878Z"/><path fill="#FBFAFA" fill-opacity="0.29019609" d="M819.593 757.265C818.243 761.988 814.102 758.129 818.802 756.878L819.593 757.265Z"/><path fill="#A68661" d="M913.99 794.178C926.777 796.258 941.327 796.497 953.998 799.152C983.578 805.35 919.518 809.813 916.598 810.323C913.672 804.249 911.599 806.695 915.331 802.831L916.69 801.398C915.763 797.9 915.222 797.294 913.99 794.178Z"/><path fill="#886944" d="M171.106 697.516C171.918 697.608 178.876 698.768 178.977 698.682C179.344 697.685 178.283 695.989 178.951 695.649C180.663 696.166 183.532 699.83 184.594 701.305C188.468 701.314 190.189 706.221 191.361 709.405C189.549 710.611 188.674 710.963 186.665 711.861L185.019 711.074C183.283 710.767 180.485 708.151 180.062 706.49C180.223 705.905 181.007 705.926 181.282 705.309C181.308 705.393 171.968 698.198 171.106 697.516Z"/><path fill="#FBFAFA" d="M184.594 701.305C188.048 703.408 186.368 706.039 182.486 706.795C179.899 704.671 183.405 704.217 184.255 702.142L184.594 701.305Z"/><path fill="#927451" d="M192.397 641.203C195.029 645.28 196.123 648.05 196.108 653.021C196.104 654.34 196.406 654.282 197.451 654.843C195.669 655.42 195.52 656.081 195.836 657.92C193.361 658.384 193.401 658.604 190.984 658.257C188.274 655.601 184.987 654.511 183.891 650.132L183.505 648.544C184.552 645.102 184.629 647.095 188.047 646.494C188.589 648.841 188.667 648.973 189.765 651.058C192.354 648.67 192.036 644.707 192.397 641.203Z"/><path fill="#FBFAFA" d="M188.047 646.494C188.589 648.841 188.667 648.973 189.765 651.058C186.576 650.849 186.216 650.166 183.505 648.544C184.552 645.102 184.629 647.095 188.047 646.494Z"/><path fill="#F3EEEC" fill-opacity="0.95686275" d="M674.484 283.742C681.405 280.801 687.879 278.454 694.743 275.273C694.961 275.497 695.179 275.722 695.397 275.946C694.197 277.578 694.175 277.613 692.654 278.923C690.981 279.506 692.101 280.172 693.26 281.232C689.623 281.922 685.443 283.579 682.131 285.196C677.513 289.666 665.087 293.161 658.217 295.829C663.886 290.803 667.594 288.496 673.746 284.313C673.583 284.966 673.286 285.77 673.063 286.427C671.114 289.523 678.105 286.366 679.066 285.786C680.926 283.763 680.327 284.165 683.054 283.627C688.107 282.688 683.968 279.256 679.731 283.094C676.696 284.127 678.268 283.798 674.484 283.742Z"/><path fill="#C8BEB6" d="M745.263 594.194L746.106 597.24C746.532 598.733 748.176 602.582 748.845 604.022C745.958 604.849 739.817 603.786 738.116 604.847C736.809 604.904 729.484 605.574 728.951 604.376L729.082 604.061C729.416 603.794 729.324 603.865 729.788 603.676C732.577 602.959 742.836 596.087 745.263 594.194ZM743.236 601.937C743.728 599.759 738.742 600.065 737.332 600.093C736.976 602.404 741.129 601.834 743.236 601.937Z"/><path fill="#C8BEB6" fill-opacity="0.21176471" d="M737.332 600.093C738.742 600.065 743.728 599.759 743.236 601.937C741.129 601.834 736.976 602.404 737.332 600.093Z"/><path fill="#927451" d="M172.924 629.048C173.476 629.382 174.034 629.708 174.597 630.025C176.437 631.06 184.787 638.374 184.5 638.36C185.136 637.769 184.716 635.853 185.262 635.57C185.211 635.535 187.672 638.954 187.81 639.152C189.181 641.127 188.555 644.315 188.047 646.494C184.629 647.095 184.552 645.102 183.505 648.544C183.552 647.606 183.763 645.8 183.022 645.511C181.183 644.795 181.755 642.162 181.994 642.512C178.976 638.088 175.744 633.814 172.924 629.048Z"/><path fill="#A68661" fill-opacity="0.97647059" d="M792.716 696.946C794.036 696.361 794.281 696.228 795.632 695.846L795.997 696.171L796.952 696C797.577 697.648 797.55 703.113 797.744 705.156C798.917 717.511 798.929 731.223 797.277 743.595C796.782 744.665 796.924 748.748 796.723 750.592L795.592 750.397C796.322 748.302 797.314 731.844 796.427 730.227C796.55 729.003 796.616 728.18 796.867 726.974C797.131 722.248 797.229 704.749 795.646 701.013C794.579 701.4 795.087 701.419 794.122 701.066L792.716 696.946Z"/><path fill="#927451" d="M191.361 709.405L192.122 709.643C196.398 709.965 198.957 717.15 201.137 720.626L200.519 721.903C193.902 715.049 189.016 717.72 185.019 711.074L186.665 711.861C188.674 710.963 189.549 710.611 191.361 709.405Z"/><path fill="#F0EDEC" d="M191.361 709.405L192.122 709.643C194.996 711.707 190.912 714.54 186.665 711.861C188.674 710.963 189.549 710.611 191.361 709.405Z"/><path fill="#927451" d="M832.864 670.293C833.088 669.271 834.961 659.36 836.817 660.228C837.331 660.945 836.773 662.68 837.513 663.732C837.569 663.748 837.625 663.764 837.681 663.779L837.649 663.757L838.217 663.491C838.837 662.661 838.789 662.695 839.821 662.358C838.526 667.106 837.107 666.675 842.607 665.888C841.749 669.64 839.95 670.746 837.253 673.512L834.583 673.612C833.801 673.048 833.608 672.883 832.887 672.23C832.891 671.678 832.92 670.851 832.864 670.293Z"/><path fill="#927451" d="M789.935 689.602C789.069 686.924 789.423 686.852 789.82 685.288C790.084 684.243 788.601 677.027 791.77 680.519C792.953 681.823 793.32 684.858 793.369 684.915C796.989 684.213 792.03 690.147 796.191 689.606C796.944 690.136 795.833 695.002 795.632 695.846C794.281 696.228 794.036 696.361 792.716 696.946C791.371 694.875 789.075 692.813 789.899 690.128C790.507 690.802 792.09 692.41 793.151 691.645C793.588 690.661 790.401 689.756 789.935 689.602Z"/><path fill="#886944" d="M230.305 665.823L230.5 666.649C230.832 668.607 230.763 668.996 232.473 667.994L233.124 668.097C236.012 668.458 233.437 671.457 232.628 672.61C230.126 675.894 231.221 675.063 234.038 673.752C235.037 674.931 232.985 677.741 232.583 678.787C231.606 681.325 231.151 684.459 230.706 687.126L229.976 685.413C227.258 678.363 230.095 680.123 230.303 678.821C229.929 678.283 225.852 672.658 227.339 672.154C228.469 672.384 228.563 674.242 229.649 674.576L229.798 674.489C230.306 671.656 227.244 669.397 230.305 665.823Z"/><path fill="#927451" d="M852.089 650.413C850.586 653.572 849.801 655.666 846.945 657.951C845.811 658.86 845.815 659.074 846.638 659.994L846.666 660.303C845.228 661.638 843.24 663.441 842.61 665.289C842.635 663.149 842.341 663.944 840.635 662.873L839.821 662.358C839.991 660.576 840.909 653.401 843.717 653.616C844.343 654.122 843.29 655.678 843.767 656.282C843.609 656.235 851.18 650.985 852.089 650.413Z"/><path fill="#927451" d="M846.706 753.766C846.804 752.933 847.337 746.239 849.429 748.75C850.726 750.306 854.084 745.683 855.745 745.836C858.662 746.104 858.651 747.726 856.766 749.509C854.403 753.073 856.687 754.028 850.334 753.966C849.008 753.557 848.123 753.723 846.706 753.766Z"/><path fill="#927451" d="M836.178 715.514C836.947 714.376 841.39 708.912 842.689 709.066C843.014 709.381 843.348 711.418 843.43 711.805C843.973 713.39 844.546 713.749 846.208 713.757C847.355 714.057 848.392 714.345 849.523 714.705C844.351 717.076 842.894 716.901 837.163 717.645L836.178 715.514Z"/><path fill="#927451" d="M175.311 745.859C176.542 743.185 179.34 750.818 179.915 751.758L180.156 752.161C178.703 753.062 178.666 752.954 176.939 753.131C176.206 750.22 171.846 755.81 170.06 748.522L169.902 747.322C172.053 746.952 172.109 747.228 173.672 745.75C174.272 745.755 174.718 745.804 175.311 745.859Z"/><path fill="#F3EEEC" d="M173.672 745.75C174.272 745.755 174.718 745.804 175.311 745.859C174.489 749.776 173.739 748.495 170.06 748.522L169.902 747.322C172.053 746.952 172.109 747.228 173.672 745.75Z"/><path fill="#927451" d="M844.919 711.97C845.142 705.978 844.767 707.514 849.371 703.621C849.13 704.651 848.993 705.692 848.702 706.716C848.596 706.696 848.158 708.201 848.417 708.258C849.14 708.417 851.33 708.481 851.999 708.568C853.293 709.019 853.765 709.12 855.077 709.386C852.179 711.943 852.368 712.235 848.55 713.205C847.928 713.065 847.256 712.88 846.634 712.72C846.013 712.423 845.567 712.234 844.919 711.97Z"/><path fill="#927451" d="M851.688 707.681C851.315 704.99 851.675 704.19 853.366 701.923C853.808 701.331 855.169 699.45 855.998 699.483C857.291 699.533 855.376 702.476 856.19 703.288C858.725 702.842 860.772 703.119 863.33 703.258L861.558 704.35C858.962 705.942 856.503 706.637 854.436 707.888C853.448 707.845 852.66 707.843 851.688 707.681Z"/><path fill="#C7A884" fill-opacity="0.97647059" d="M180.156 752.161C184.575 754.856 187.799 758.198 191.47 761.568L190.486 762.501C188.288 760.441 185.957 758.487 183.734 756.413C182.969 756.41 172.341 756.319 176.939 753.131C178.666 752.954 178.703 753.062 180.156 752.161Z"/><path fill="#C7A884" fill-opacity="0.94509804" d="M818.533 737.707C823.344 729.936 830.081 722.351 836.178 715.514L837.163 717.645C829.174 724.897 825.254 729.533 819.187 738.609L818.533 737.707Z"/><path fill="#FBFAFA" fill-opacity="0.98823529" d="M408.193 140.929C412.059 141.683 418.169 143.681 421.916 145.252C420.409 145.933 418.257 146.15 416.471 146.683C413.217 143.608 412.04 142.77 407.965 141.505L408.193 140.929Z"/><path fill="#927451" d="M169.242 743.084L169.706 742.353C171.117 739.922 173.212 744.771 173.672 745.75C172.109 747.228 172.053 746.952 169.902 747.322C168.948 747.141 168.092 747.084 167.275 746.551C168.542 745.053 168.582 744.966 169.242 743.084Z"/><path fill="#A68661" fill-opacity="0.9254902" d="M830.906 765.586C834.485 762.575 840.484 759.447 844.456 755.905L845.591 757.166C841.893 758.879 834.82 764.04 831.827 766.863L830.906 765.586Z"/><path fill="#A68661" fill-opacity="0.95294118" d="M229.976 685.413L230.706 687.126C230.431 692.189 231.372 700.899 232.364 706.003L231.209 706C229.943 697.188 229.719 694.622 229.976 685.413Z"/><path fill="#FBFAFA" fill-opacity="0.98823529" d="M248.41 714.844C249.321 717.269 249.905 719.476 250.727 721.899C249.77 722.127 249.571 722.196 248.636 722.542C247.907 721.661 246.251 718.155 245.8 717.051C246.746 716.188 247.4 715.616 248.41 714.844Z"/><path fill="#927451" d="M230.305 665.823C229.06 662.952 232.59 657.367 233.464 663.775C233.592 664.711 232.63 666.312 232.473 667.994C230.763 668.996 230.832 668.607 230.5 666.649L230.305 665.823Z"/><path fill="#927451" d="M844.456 755.905C845.352 754.887 845.58 754.529 846.706 753.766C848.123 753.723 849.008 753.557 850.334 753.966C852.831 756.999 848.646 756.727 845.591 757.166L844.456 755.905Z"/><path fill="#A68661" d="M167.275 746.551C165.153 745.096 163.703 743.87 161.761 742.253C164.06 742.519 166.98 742.914 169.242 743.084C168.582 744.966 168.542 745.053 167.275 746.551Z"/><path fill="#A68661" fill-opacity="0.96470588" d="M201.137 720.626C201.38 721.012 201.623 721.398 201.865 721.784C202.377 722.627 202.9 723.464 203.434 724.294C204.92 726.634 205.968 727.714 207.28 730.365L206.866 732.17C204.822 728.725 202.487 725.283 200.519 721.903L201.137 720.626Z"/><path fill="#FBFAFA" fill-opacity="0.050980393" d="M673.063 286.427C674.57 285.509 678.564 282.731 679.066 285.786C678.105 286.366 671.114 289.523 673.063 286.427Z"/><path fill="#FBFAFA" fill-opacity="0.55686277" d="M902.933 812.998C903.713 811.992 904.01 812.091 905.27 811.761C905.227 813.167 904.956 813.977 905.027 815.269C904.508 815.248 900.061 814.403 899.722 814.175C899.857 813.369 902.389 813.112 902.933 812.998Z"/><path fill="#FBFAFA" fill-opacity="0.94117647" d="M421.916 145.252C422.656 145.469 423.334 145.697 424.064 145.94C421.281 148.098 421.312 146.762 418.922 148.206C418.385 147.994 418.409 148.011 417.888 147.656L416.471 146.683C418.257 146.15 420.409 145.933 421.916 145.252Z"/><path fill="#FBFAFA" fill-opacity="0.97647059" d="M839.821 662.358L840.635 662.873C842.341 663.944 842.635 663.149 842.61 665.289L842.607 665.888C837.107 666.675 838.526 667.106 839.821 662.358Z"/><path fill="#F0EDEC" fill-opacity="0.47843137" d="M674.484 283.742C678.268 283.798 676.696 284.127 679.731 283.094C680.836 283.285 681.944 283.462 683.054 283.627C680.327 284.165 680.926 283.763 679.066 285.786C678.564 282.731 674.57 285.509 673.063 286.427C673.286 285.77 673.583 284.966 673.746 284.313L674.484 283.742Z"/><path fill="#FBFAFA" fill-opacity="0.34509805" d="M196.594 774.804C198.184 776.816 199.412 778.535 200.77 780.703C198.624 779.543 196.324 778.348 194.324 776.958C195.093 776.206 195.828 775.562 196.594 774.804Z"/><path fill="#F0EDEC" fill-opacity="0.35294119" d="M679.731 283.094C683.968 279.256 688.107 282.688 683.054 283.627C681.944 283.462 680.836 283.285 679.731 283.094Z"/><path fill="#FBFAFA" fill-opacity="0.17254902" d="M831.006 670.038C831.639 670.14 832.223 670.25 832.864 670.293C832.92 670.851 832.891 671.678 832.887 672.23C832.004 676.15 832.721 673.424 830.952 675.657C830.988 673.619 831.448 671.823 831.006 670.038Z"/><path fill="#FBFAFA" fill-opacity="0.90980393" d="M197.451 654.843L198.055 655.131C199.219 658.219 198.644 658.109 196.204 658.552L195.836 657.92C195.52 656.081 195.669 655.42 197.451 654.843Z"/><path fill="#FBFAFA" fill-opacity="0.42352942" d="M250.727 721.899C250.996 723.125 251.222 724.36 251.405 725.601C251.091 726.294 250.784 726.931 250.451 727.614C249.811 725.898 249.257 724.239 248.636 722.542C249.571 722.196 249.77 722.127 250.727 721.899Z"/><path fill="#F0EDEC" fill-opacity="0.98823529" d="M250.451 727.614C250.784 726.931 251.091 726.294 251.405 725.601C251.821 727.874 252.327 730.128 252.63 732.42C251.043 731.918 250.632 729.11 250.451 727.614Z"/><path fill="#C7A884" fill-opacity="0.76862746" d="M841.868 736.421L842.993 735.568L845.432 733.701C846.008 733.263 846.983 732.669 846.352 733.909L846.338 733.908C845.141 735.181 843.836 736.396 842.497 737.518L841.868 736.421Z"/><path fill="#C7A884" fill-opacity="0.88627452" d="M187.624 734.898C188.788 736.015 189.868 737.017 191 738.178L189.853 738.855C188.852 737.566 188.091 736.734 186.884 735.618L186.837 735.216L187.624 734.898Z"/><path fill="#FBFAFA" fill-opacity="0.52549022" d="M843.43 711.805L844.919 711.97C845.567 712.234 846.013 712.423 846.634 712.72C846.434 713.161 846.325 713.341 846.208 713.757C844.546 713.749 843.973 713.39 843.43 711.805Z"/><path fill="#FBFAFA" fill-opacity="0.015686275" d="M794.785 727.193C795.819 726.812 795.755 726.852 796.867 726.974C796.616 728.18 796.55 729.003 796.427 730.227C795.775 729.549 795.128 728.865 794.488 728.175C794.587 727.848 794.686 727.52 794.785 727.193Z"/><path fill="#A68661" fill-opacity="0.91764706" d="M194.964 759.077C194.387 758.659 191.976 757.114 191.955 756.356C192.629 755.929 194.982 757.36 195.586 757.644L194.964 759.077Z"/><path fill="#927451" fill-opacity="0.65882355" d="M796.723 750.592C796.924 748.748 796.782 744.665 797.277 743.595C797.685 745.609 797.502 749.875 797.217 751.869L796.723 750.592Z"/><path fill="#A68661" fill-opacity="0.92941177" d="M187.376 776.029C187.006 775.662 185.403 774.316 185.347 773.782C185.867 773.206 188.039 774.479 188.727 774.732L187.376 776.029Z"/><path fill="#F0EDEC" fill-opacity="0.98431373" d="M789.935 689.602C790.401 689.756 793.588 690.661 793.151 691.645C792.09 692.41 790.507 690.802 789.899 690.128L789.935 689.602Z"/><path fill="#FBFAFA" fill-opacity="0.12941177" d="M846.634 712.72C847.256 712.88 847.928 713.065 848.55 713.205C848.877 714.261 849.134 713.464 849.523 714.705C848.392 714.345 847.355 714.057 846.208 713.757C846.325 713.341 846.434 713.161 846.634 712.72Z"/><path fill="#FBFAFA" fill-opacity="0.12941177" d="M834.583 673.612L837.253 673.512C837.607 674.226 837.979 674.931 838.369 675.627L837.86 675.583C836.697 674.923 836.368 674.217 835.265 673.849L834.583 673.612Z"/><path fill="#A68661" fill-opacity="0.90196079" d="M203.794 743.241C201.572 740.199 201.131 738.655 204.525 742.324L203.794 743.241Z"/><path fill="#FBFAFA" fill-opacity="0.062745102" d="M802.763 759.146L804.937 758.672C804.492 759.348 803.403 761.302 802.794 761.632C802.578 761.498 802.583 761.159 802.558 760.906C802.539 760.704 802.593 760.5 802.607 760.297C802.638 759.838 802.663 759.593 802.763 759.146Z"/><path fill="#F3EEEC" fill-opacity="0.043137256" d="M234.038 673.752C231.221 675.063 230.126 675.894 232.628 672.61L234.038 673.752Z"/><path fill="#F0EDEC" fill-opacity="0.31764707" d="M851.688 707.681C852.66 707.843 853.448 707.845 854.436 707.888C854.656 708.384 854.87 708.883 855.077 709.386C853.765 709.12 853.293 709.019 851.999 708.568L851.688 707.681Z"/><path fill="#CDA87B" fill-opacity="0.76078433" d="M184.992 734.28C184.762 731.78 186.733 734.128 187.624 734.898L186.837 735.216C186.218 734.911 185.603 734.599 184.992 734.28Z"/><path fill="#FBFAFA" fill-opacity="0.05882353" d="M783.248 750.147L785.489 749.701C785.199 749.994 783.567 752.034 783.008 751.649C782.877 750.98 782.992 750.806 783.248 750.147Z"/></svg>