<?xml version="1.0" encoding="utf-8" ?><svg xmlns="http://www.w3.org/2000/svg" xmlns:xlink="http://www.w3.org/1999/xlink" width="1024" height="1024" viewBox="0 0 1024 1024"><path stroke="#1a1a1a" stroke-width="6" stroke-linejoin="round" stroke-linecap="round" fill="#FEA011" d="M693.309 268.475C688.03 264.37 682.372 261.963 677.364 256.997C670.608 250.299 664.467 241.781 665.985 231.738C666.559 227.766 668.748 224.207 672.034 221.902C685.941 212.093 713.13 222.904 724.277 233.4C728.899 236.62 733.826 245.692 738.665 247.881C752.532 254.156 765.038 251.77 778.875 260.651C790.831 268.325 796.648 272.673 804.691 284.418C830.795 280.227 860.882 287.793 878.677 307.902C883.714 313.595 886.523 321.117 893.054 325.635C902.201 331.962 912.545 332.801 923.294 331.261C925.201 330.979 930.9 330.241 932.538 329.546C944.386 324.521 969.296 317.492 972.577 336.417C973.574 342.168 970.249 348.958 968.2 354.177C964.813 364.74 962.013 372.67 954.638 381.319C939.897 398.606 924.521 403.553 902.713 402.99L903.022 403.634C909.749 417.312 933.323 411.248 939.923 426.744C945.122 438.951 937.947 452.325 926.286 457.362C923.424 458.578 920.438 459.479 917.381 460.05L916.727 460.167C906.621 461.915 891.363 460.753 881.775 457.415C863.774 451.148 850.714 448.853 832.408 457.756C823.487 462.111 815.808 468.646 810.081 476.755C789.689 505.779 805.657 537.647 789.836 569.104C803.212 598.452 833.945 606.482 861.405 617.923C871.363 622.072 881.438 626.879 890.513 632.701C899.736 638.644 907.946 646.029 914.829 654.574C917.969 658.476 922.129 664.701 925.978 668.239C931.491 673.305 937.472 677.152 944.551 681.711C960.157 691.762 984.883 721.727 958.526 734.865C949.749 739.239 931.856 736.565 923.308 732.438C912.619 727.494 902.623 719.365 896.254 709.279C892.782 703.779 887.751 687.873 878.457 689.598C875.452 690.156 875.654 696.989 875.618 699.377C864.683 688.829 861.851 687.984 858.063 673.007C843.82 668.278 833.063 665.687 817.871 666.551C824.778 674.466 833.815 684.446 839.123 693.241C845.92 704.505 847.83 707.918 857.449 717.064C867.597 726.714 878.118 742.519 877.376 757.017C876.575 772.886 863.976 781.656 848.704 779.766C834.075 777.955 821.692 769.165 812.893 757.809C808.915 752.715 805.68 747.082 803.286 741.078C800.816 734.859 799.856 719.362 793.42 716.899C788.632 715.066 785.476 727.817 784.48 731.106C780.903 724.889 780.153 721.849 778.904 714.786C777.635 716.021 773.15 720.84 771.964 720.881C770.484 719.212 770.861 715.135 771.006 712.908C771.262 708.667 772.088 704.48 773.463 700.46C743.149 687.658 714.855 685.197 682.617 680.893C673.891 679.728 664.306 677.86 655.598 677.123C653.926 676.981 644.036 679.06 641.278 679.444C627.994 681.197 614.492 680.259 601.578 676.685C610.823 674.001 618.601 671.641 626.261 665.654C621.559 664.894 615.754 664.43 611.291 663.158C557.326 647.777 508.23 615.233 452.994 604.443C446.611 611.953 440.753 619.999 434.339 627.388C400.285 666.618 363.877 697.5 309.705 701.903C290.787 703.441 277.072 701.661 258.507 701.535C232.354 701.358 207.991 710.945 191.248 731.4C180.883 744.064 179.833 751.504 172.505 764.366C161.391 781.151 144.848 802.936 124.258 807.878C121.82 808.464 116.577 807.042 115.105 805.212C103.934 791.325 110.263 775.436 117.645 762.92C115.846 754.578 115.402 748.001 120.323 740.351C125.96 731.588 135.349 727.873 143.856 722.736C147.721 720.402 152.95 716.058 156.089 712.821C180.715 687.432 172.902 661.433 214.531 652.538C221.217 651.109 227.922 650.893 234.8 649.959C238.551 649.449 244.127 647.997 247.943 646.964C234.248 643.848 221.1 639.128 207.765 635.842C181.1 629.27 149.293 632.828 129.52 653.494C126.154 656.965 123.144 661.609 119.296 664.607C101.634 678.372 80.4078 687.458 57.958 688.911C42.5059 689.911 36.4534 680.878 39.8991 666.334C42.4274 656.505 50.3146 650.043 58.3361 644.295C58.3658 638.35 58.5184 634.957 63.1897 630.48C76.1137 618.096 95.3569 623.954 110.423 616.55C139.24 603.82 141.425 568.935 176.495 569.498C183.533 569.69 190.343 571.822 197.29 572.881C218.454 576.107 236.202 571.663 251.939 556.841C274.225 535.853 286.619 507.488 307.776 485.508C311.237 481.913 315.244 478.213 318.483 474.515L318.342 473.057C310.134 476.939 238.742 514.541 248.395 483.91C235.32 490.562 223.417 496.055 208.479 497.592C202.354 498.096 190.092 499.149 185.235 494.58C177.548 487.351 190.856 476.902 195.203 472.647C185.392 473.264 174.457 475.373 164.409 475.102C151.392 474.75 123.241 473.719 117.277 459.303C112.54 447.853 132.256 443.427 139.867 440.634C123.594 436.856 108.789 434.256 94.5757 424.517C69.3119 407.206 73.1763 387.171 104.817 384.773C144.243 381.784 178.112 395.46 214.778 407.304C230.931 412.689 247.214 417.676 263.612 422.262C291.457 429.954 318.563 435.822 347.396 438.594C355.772 439.399 367.785 441.018 376.059 440.215C381.305 439.267 386.464 437.068 391.653 435.856C435.279 425.667 479.852 435.77 523.897 436.394C534.157 436.539 544.571 436.745 554.85 436.273C590.675 434.63 627.334 429.444 659.558 412.792C666.948 408.97 675.829 403.83 681.824 398.172C677.669 397.082 673.24 396.534 669.205 395.304C661.757 393.033 651.95 388.808 651.181 379.927C650.628 373.535 654.268 369.417 657.903 364.813C641.127 365.132 628.253 366.085 612.868 356.902C607.066 353.439 599.448 347.442 598.164 340.449C595.182 324.213 611.777 321.04 623.553 318.684C610.893 312.032 584.787 297.396 587.731 279.3C590.504 262.252 615.496 263.923 628.019 268.368C652.501 277.059 667.95 294.831 694.33 300.013C689.474 295.827 682.701 292.9 677.946 288.572C657.598 270.051 678.02 268.445 693.309 268.475ZM930.818 437.909C933.206 437.3 933.322 437.69 934.711 436.195C935.669 423.934 905.659 418.054 896.77 414.51C881.955 408.603 869.124 397.041 852.713 398.074C851.34 398.519 849.696 398.849 848.742 399.83C851.055 402.11 857.95 407.071 861.024 409.226C879.323 422.05 904.388 438.131 927.418 438C928.552 437.991 929.685 437.96 930.818 437.909Z"/><path stroke="#1a1a1a" stroke-width="6" stroke-linejoin="round" stroke-linecap="round" fill="#130902" d="M693.309 268.475C688.03 264.37 682.372 261.963 677.364 256.997C670.608 250.299 664.467 241.781 665.985 231.738C666.559 227.766 668.748 224.207 672.034 221.902C685.941 212.093 713.13 222.904 724.277 233.4C728.899 236.62 733.826 245.692 738.665 247.881C752.532 254.156 765.038 251.77 778.875 260.651C790.831 268.325 796.648 272.673 804.691 284.418C830.795 280.227 860.882 287.793 878.677 307.902C883.714 313.595 886.523 321.117 893.054 325.635C902.201 331.962 912.545 332.801 923.294 331.261L924.089 332.152C913.183 334.458 892.806 331.267 886.794 320.882C860.076 274.73 790.306 273.125 755.853 311.088C769.239 310.16 785.441 303.714 792.819 318.408C794.863 329.051 789.994 339.513 783.961 348.055C760.466 381.32 724.024 400.444 683.454 398.473C678.866 402.721 673.22 406.278 667.898 409.562C642.945 422.945 621.979 429.945 593.773 433.724C586.895 434.645 578.755 435.921 571.867 436.148C570.911 436.571 570.81 436.468 569.685 436.365C545.426 437.975 521.083 437.892 496.835 436.118C476.716 434.824 456.028 432.189 435.911 432.045C383.187 431.666 339.303 451.884 304.219 490.988C277.71 520.537 258.833 572.095 214.79 574.749C188.22 576.046 165.82 559.932 144.619 585.4C135.102 596.832 127.543 607.746 114.084 615.835C97.8012 625.621 77.0738 618.327 63.4529 631.965C60.6641 634.757 59.2948 638.274 59.5216 642.161L60.0386 642.847C61.8295 642.525 67.6739 638.841 69.9592 637.625C69.8408 637.768 69.7225 637.912 69.6042 638.056C66.9142 640.77 63.4208 643.368 59.8041 645.183C46.5907 651.761 32.6345 670.42 43.8736 684.161C47.3317 688.389 57.8973 688.187 62.4774 687.532C88.5572 683.801 113.441 672.326 129.931 651.42C136.776 642.743 157.253 634.503 167.916 633.004C193.028 629.129 210.471 635.455 233.323 642.148C264.967 651.084 300.702 656.753 332.435 645.478C346.531 640.469 364.28 630.297 375.807 620.858C393.759 606.156 408.619 590.181 431.261 582.087C433.527 581.277 438.893 578.831 441.077 578.897L440.996 579.509C436.16 581.98 430.728 583.424 425.983 585.69C415.153 590.864 401.166 600.105 392.187 608.359L393.77 608.953C455.545 579.332 540.922 642.268 599.693 657.665C603.54 658.673 613.967 654.702 618.063 653.24C613.697 652.456 609.199 651.783 605.358 649.452L604.766 648.473C606.318 645.488 616 643.522 619.887 641.746C618.138 640.853 617.36 641.29 615.506 640.779C609.506 640.032 605.737 639.566 600.07 637.574C607.756 634.531 613.447 631.655 620.771 627.724C605.497 622.615 601.099 615.309 595.458 600.683C605.593 607.005 611.843 609.187 623.987 606.337C624.486 606.219 624.984 606.096 625.481 605.968C612.641 601.929 609.501 596.744 604.741 584.929C610.731 589.836 616.126 588.923 623.214 587.594C614.24 583.883 609.867 580.332 604.593 571.976C610.601 574.005 616.167 575.903 622.522 576.719C624.467 576.969 629.72 576.707 630.449 577.283C628.162 580.436 611.476 575.65 607.727 574.622C614.102 582.605 617.373 584.297 627.078 587.73C619.487 590.161 615.621 590.402 607.762 588.785C612.84 600.405 619.543 605.35 632.332 604.292C619.38 610.266 611.334 610.598 598.447 604.39C601.822 612.976 605.789 619.562 614.534 624.023C617.404 625.487 621.815 625.628 623.642 627.042C622.121 628.883 607.505 635.97 604.276 637.615C617.596 641.172 622.467 638.633 634.615 636.676L633.993 637.01C628.515 639.912 621.387 642.253 615.57 644.585C612.742 645.719 609.569 646.457 606.958 647.98L607.023 648.748C609.646 650.768 613.983 651.22 617.269 651.422C618.265 652.758 618.232 652.679 618.687 654.244C612.567 656.314 608.062 657.77 601.849 659.475C617.794 664.27 622.267 666.005 637.934 659.979C629.302 666.95 616.362 672.594 606.088 676.611C621.131 680.548 635.318 679.705 650.443 676.881C653.595 676.293 659.968 673.832 662.459 674.28C661.305 675.112 660.984 675.169 660.179 676.301C663.993 677.611 687.778 680.581 692.891 681.204C723.784 684.966 746.62 688.412 775.503 699.915C771.698 707.42 771.847 711.555 772.222 719.586C775.111 716.929 777.778 714.165 780.52 711.364C780.37 718.864 780.746 721.354 784.059 728.083C785.375 724.084 788.218 714.351 793.959 716.197C800.588 718.33 801.206 731.503 802.849 736.905C804.301 741.526 806.299 745.959 808.8 750.107C816.203 762.418 830.364 775.039 844.774 778.19C873.916 784.562 861.45 760.214 851.23 747.642L851.543 747.005C852.537 747.407 852.653 747.508 853.372 748.328C861.213 757.258 863.966 765.265 863.542 776.852C868.383 774.19 872.295 770.734 874.419 765.51C881.557 747.953 867.654 729.468 856.335 717.482C853.713 714.706 850.633 712.36 848.057 709.576C844.775 706.029 842.522 700.481 839.876 696.351C831.91 683.922 821.893 671.105 810.431 661.779C794.035 648.44 719.198 615.842 714.966 601.343C713.128 595.042 719.845 587.831 722.866 582.847C733.857 564.712 738.179 543.416 732.691 522.676C731.198 517.034 728.152 511.772 726.796 506.239C729.834 508.52 731.082 513.404 732.308 517.092C738.767 536.343 737.336 557.368 728.328 575.565C725.444 581.53 714.547 596.335 716.057 600.354C719.011 608.22 736.928 618.273 744.282 622.344C755.821 613.121 762.559 604.478 766.32 590.132L767.539 590.58C767.884 590.511 767.922 590.402 768.167 590.575C768.713 589.21 769.249 588.263 769.568 586.801C769.686 590.144 769.65 593.676 769.668 597.037C776.496 588.095 780.261 579.999 778.727 568.694C778.528 567.221 778.082 563.849 778.583 562.58C780.984 563.378 779.871 573.68 782.157 577.478L782.897 577.406C786.43 571.878 783.241 561.503 784.024 556.139C785.828 562.678 786.132 567.884 785.314 574.656C804.088 543.51 791.827 521.892 801.982 490.457C804.062 484.019 807.992 478.054 811.897 472.592C807.56 471.226 797.892 474.835 793.797 476.965C789.357 479.308 785.22 482.185 781.479 485.533C779.621 487.188 776.92 489.956 774.989 491.242C774.365 491.845 774.442 491.719 773.654 492.141C773.196 490.658 774.288 487.25 774.656 485.498C780.263 458.79 799.479 446.912 825.126 446.944C822.038 445.776 819.006 444.468 816.037 443.025C809.695 439.934 797.422 431.594 795.046 424.738L795.367 424.294C799.949 429.287 801.108 431.375 807.14 436.138C818.051 444.754 834.166 449.546 847.73 451.34C852.586 451.758 860.796 450.083 865.374 451.461C884.016 457.073 897.167 461.542 917.042 459.046L917.381 460.05L916.727 460.167C906.621 461.915 891.363 460.753 881.775 457.415C863.774 451.148 850.714 448.853 832.408 457.756C823.487 462.111 815.808 468.646 810.081 476.755C789.689 505.779 805.657 537.647 789.836 569.104C803.212 598.452 833.945 606.482 861.405 617.923C871.363 622.072 881.438 626.879 890.513 632.701C899.736 638.644 907.946 646.029 914.829 654.574C917.969 658.476 922.129 664.701 925.978 668.239C931.491 673.305 937.472 677.152 944.551 681.711C960.157 691.762 984.883 721.727 958.526 734.865C949.749 739.239 931.856 736.565 923.308 732.438C912.619 727.494 902.623 719.365 896.254 709.279C892.782 703.779 887.751 687.873 878.457 689.598C875.452 690.156 875.654 696.989 875.618 699.377C864.683 688.829 861.851 687.984 858.063 673.007C843.82 668.278 833.063 665.687 817.871 666.551C824.778 674.466 833.815 684.446 839.123 693.241C845.92 704.505 847.83 707.918 857.449 717.064C867.597 726.714 878.118 742.519 877.376 757.017C876.575 772.886 863.976 781.656 848.704 779.766C834.075 777.955 821.692 769.165 812.893 757.809C808.915 752.715 805.68 747.082 803.286 741.078C800.816 734.859 799.856 719.362 793.42 716.899C788.632 715.066 785.476 727.817 784.48 731.106C780.903 724.889 780.153 721.849 778.904 714.786C777.635 716.021 773.15 720.84 771.964 720.881C770.484 719.212 770.861 715.135 771.006 712.908C771.262 708.667 772.088 704.48 773.463 700.46C743.149 687.658 714.855 685.197 682.617 680.893C673.891 679.728 664.306 677.86 655.598 677.123C653.926 676.981 644.036 679.06 641.278 679.444C627.994 681.197 614.492 680.259 601.578 676.685C610.823 674.001 618.601 671.641 626.261 665.654C621.559 664.894 615.754 664.43 611.291 663.158C557.326 647.777 508.23 615.233 452.994 604.443C446.611 611.953 440.753 619.999 434.339 627.388C400.285 666.618 363.877 697.5 309.705 701.903C290.787 703.441 277.072 701.661 258.507 701.535C232.354 701.358 207.991 710.945 191.248 731.4C180.883 744.064 179.833 751.504 172.505 764.366C161.391 781.151 144.848 802.936 124.258 807.878C121.82 808.464 116.577 807.042 115.105 805.212C103.934 791.325 110.263 775.436 117.645 762.92C115.846 754.578 115.402 748.001 120.323 740.351C125.96 731.588 135.349 727.873 143.856 722.736C147.721 720.402 152.95 716.058 156.089 712.821C180.715 687.432 172.902 661.433 214.531 652.538C221.217 651.109 227.922 650.893 234.8 649.959C238.551 649.449 244.127 647.997 247.943 646.964C234.248 643.848 221.1 639.128 207.765 635.842C181.1 629.27 149.293 632.828 129.52 653.494C126.154 656.965 123.144 661.609 119.296 664.607C101.634 678.372 80.4078 687.458 57.958 688.911C42.5059 689.911 36.4534 680.878 39.8991 666.334C42.4274 656.505 50.3146 650.043 58.3361 644.295C58.3658 638.35 58.5184 634.957 63.1897 630.48C76.1137 618.096 95.3569 623.954 110.423 616.55C139.24 603.82 141.425 568.935 176.495 569.498C183.533 569.69 190.343 571.822 197.29 572.881C218.454 576.107 236.202 571.663 251.939 556.841C274.225 535.853 286.619 507.488 307.776 485.508C311.237 481.913 315.244 478.213 318.483 474.515L318.342 473.057C310.134 476.939 238.742 514.541 248.395 483.91C235.32 490.562 223.417 496.055 208.479 497.592C202.354 498.096 190.092 499.149 185.235 494.58C177.548 487.351 190.856 476.902 195.203 472.647C185.392 473.264 174.457 475.373 164.409 475.102C151.392 474.75 123.241 473.719 117.277 459.303C112.54 447.853 132.256 443.427 139.867 440.634C123.594 436.856 108.789 434.256 94.5757 424.517C69.3119 407.206 73.1763 387.171 104.817 384.773C144.243 381.784 178.112 395.46 214.778 407.304C230.931 412.689 247.214 417.676 263.612 422.262C291.457 429.954 318.563 435.822 347.396 438.594C355.772 439.399 367.785 441.018 376.059 440.215C381.305 439.267 386.464 437.068 391.653 435.856C435.279 425.667 479.852 435.77 523.897 436.394C534.157 436.539 544.571 436.745 554.85 436.273C590.675 434.63 627.334 429.444 659.558 412.792C666.948 408.97 675.829 403.83 681.824 398.172C677.669 397.082 673.24 396.534 669.205 395.304C661.757 393.033 651.95 388.808 651.181 379.927C650.628 373.535 654.268 369.417 657.903 364.813C641.127 365.132 628.253 366.085 612.868 356.902C607.066 353.439 599.448 347.442 598.164 340.449C595.182 324.213 611.777 321.04 623.553 318.684C610.893 312.032 584.787 297.396 587.731 279.3C590.504 262.252 615.496 263.923 628.019 268.368C652.501 277.059 667.95 294.831 694.33 300.013C689.474 295.827 682.701 292.9 677.946 288.572C657.598 270.051 678.02 268.445 693.309 268.475Z"/><path stroke="#1a1a1a" stroke-width="6" stroke-linejoin="round" stroke-linecap="round" fill="#D4800F" d="M789.109 570.312C791.178 574.47 793.55 579.365 796.648 582.869C820.868 610.269 859.644 613.687 889.184 633.075C904.065 642.208 914.025 655.131 924.535 668.56C926.275 670.783 935.939 677.542 938.931 679.234C955.014 688.332 984.42 717.831 958.742 733.881C957.581 727.092 956.493 720.631 952.113 715.042C950.237 712.648 945.254 705.986 942.185 706.239C942.34 707.349 945.838 709.687 947.257 711.138C950.193 714.144 952.588 717.636 954.335 721.458C956.331 725.937 956.704 729.394 957.244 734.185C944.274 737.901 931.334 735.818 919.581 729.325C912.138 725.152 905.568 719.585 900.229 712.929C894.681 705.977 892.92 697.205 886.453 691.257C880.053 685.37 875.522 687.665 874.156 695.909C864.265 686.976 862.065 685.604 859.035 672.292C849.211 668.875 841.355 666.695 830.748 665.771C826.243 665.378 820.619 665.528 816.376 665.048C798.082 649.856 776.903 641.06 756.317 629.421C752.691 627.371 749.087 625.256 745.459 623.202C755.676 614.728 762.07 606.985 766.558 594.182L768.04 594.226C768.07 596.974 767.734 598.87 767.355 601.568C773.103 595.43 777.284 588.622 779.781 580.614C780.136 580.775 780.644 581.109 780.969 581.309C784.87 579.11 787.072 574.275 789.109 570.312Z"/><path stroke="#1a1a1a" stroke-width="6" stroke-linejoin="round" stroke-linecap="round" fill="#D4800F" d="M774.989 491.242C775.515 488.663 776.065 486.09 776.64 483.522C780.806 465.369 793.974 452.674 812.362 449.103C823.75 446.892 833.683 449.565 844.654 452.179C828.571 457.118 823.242 460.496 811.897 472.592C807.56 471.226 797.892 474.835 793.797 476.965C789.357 479.308 785.22 482.185 781.479 485.533C779.621 487.188 776.92 489.956 774.989 491.242Z"/><path stroke="#1a1a1a" stroke-width="6" stroke-linejoin="round" stroke-linecap="round" fill="#A19A8A" d="M318.342 473.057C319.215 472.036 324.512 469.129 326.01 468.247C323.573 470.431 321.126 472.58 318.483 474.515L318.342 473.057Z"/><path stroke="#1a1a1a" stroke-width="6" stroke-linejoin="round" stroke-linecap="round" fill="#D4800F" d="M615.506 640.779C617.238 640.591 619.984 640.287 621.692 640.611C622.111 640.69 621.166 641.471 621.013 641.383C621.059 641.41 619.86 641.754 619.887 641.746C618.138 640.853 617.36 641.29 615.506 640.779Z"/><path stroke="#1a1a1a" stroke-width="6" stroke-linejoin="round" stroke-linecap="round" fill="#C86F20" d="M779.781 580.614C779.908 579.847 780.116 577.394 780.675 576.87C782.044 576.591 780.995 581.14 780.969 581.309C780.644 581.109 780.136 580.775 779.781 580.614Z"/><path stroke="#1a1a1a" stroke-width="6" stroke-linejoin="round" stroke-linecap="round" fill="#C86F20" d="M767.539 590.58C767.884 590.511 767.922 590.402 768.167 590.575C768.099 591.791 768.056 593.008 768.04 594.226L766.558 594.182C766.921 592.965 767.182 591.804 767.539 590.58Z"/><path stroke="#1a1a1a" stroke-width="6" stroke-linejoin="round" stroke-linecap="round" fill="#D4800F" d="M392.187 608.359L393.77 608.953C393.267 609.213 390.878 610.733 390.307 610.226C390.126 609.595 391.753 608.628 392.187 608.359Z"/><path stroke="#1a1a1a" stroke-width="6" stroke-linejoin="round" stroke-linecap="round" fill="#4D2A0C" d="M569.685 436.365C570.524 435.505 570.765 435.752 571.867 436.148C570.911 436.571 570.81 436.468 569.685 436.365Z"/><path stroke="#1a1a1a" stroke-width="6" stroke-linejoin="round" stroke-linecap="round" fill="#D4800F" d="M425.373 602.712C432.29 601.801 444.36 603.464 451.429 604.294C442.089 616.641 432.129 628.506 421.586 639.844C386.516 677.216 351.523 699.957 298.43 701.616C283.926 702.07 270.894 700.099 256.832 700.389C226.82 700.461 196.539 715.61 182.206 742.731C173.818 758.604 168.451 772.516 154.829 785.663C146.728 793.483 135.479 805.918 122.98 806.876C119.191 807.167 116.741 805.246 114.275 802.692C105.021 788.432 112.403 769.344 123.159 758.168C125.594 755.638 129.418 751.454 131.16 748.666C125.137 753.251 123.205 755.511 118.634 761.689C116.692 753.109 116.831 746.576 122.447 739.183C128.475 731.245 137.256 728.11 145.374 722.945C150.19 719.88 155.097 715.399 158.913 711.171C163.769 705.777 167.962 699.82 171.402 693.428C175.497 685.64 178.68 676.682 184.527 669.955C192.677 660.578 205.56 654.99 217.654 653.1C223.548 652.179 230.022 651.929 236.048 651.065C239.556 650.562 247.422 647.853 249.874 647.978C255.466 648.264 262.788 650.474 268.61 651.287C289.733 654.237 311.952 653.853 332.286 646.931C345.43 642.234 360.544 633.994 371.674 625.331C391.393 609.982 400.432 604.743 425.373 602.712Z"/><path stroke="#1a1a1a" stroke-width="6" stroke-linejoin="round" stroke-linecap="round" fill="#FEA011" d="M605.847 266.645C632.127 263.563 652.762 284.159 674.316 294.673C682.068 298.454 697.282 302.361 706.047 304.301C721.695 307.764 738.766 311.108 754.809 312.106C762.723 312.598 776.964 308.467 783.976 311.112C787.186 312.297 789.744 314.784 791.02 317.958C796.275 330.785 782.23 348.97 774.35 357.984C760.727 373.566 746.447 382.623 727.627 390.662C712.516 396.483 695.869 398.966 679.785 396.597C671.693 395.405 658.988 392.071 654.008 385.006C652.223 382.519 651.548 379.403 652.143 376.4C653.467 369.482 660.237 365.358 665.62 361.64C646.268 366.389 624.723 364.727 608.351 352.426C600.981 346.889 594.653 336.536 602.118 328.382C608.641 321.257 620.284 320.033 629.372 319.541C615.165 314.382 579.111 294.703 590.936 274.115C593.715 269.276 600.639 267.535 605.847 266.645Z"/><path stroke="#1a1a1a" stroke-width="6" stroke-linejoin="round" stroke-linecap="round" fill="#C86F20" d="M147.243 440.736C124.087 436.091 96.863 431.738 82.086 410.754C77.1771 403.783 78.4362 393.812 86.9919 390.425C110.836 380.988 141.39 386.914 165.7 392.632C177.33 395.569 189.862 400.659 201.188 404.258C194.596 405.59 165.381 411.364 173.243 422.704L174.38 422.135C174.848 422.352 174.87 422.406 175.279 422.751L174.825 423.703C181.691 428.224 188.762 429.068 196.833 429.729C188.898 435.121 187.158 440.312 198.34 443.302C206.974 445.611 216.848 445.156 225.672 444.329C204.443 460.067 239.75 466.124 250.561 466.664C255.459 466.901 260.368 466.715 265.235 466.108C262.046 469.261 251.49 480.036 248.17 482.276C234.515 491.081 216.534 496.791 200.311 497.048C196.198 497.114 187.082 496.03 184.977 493.131C178.739 484.539 198.185 472.921 202.391 469.554C188.175 473.276 170.004 474.442 155.317 473.872C154.474 474.114 154.366 474.318 153.737 473.637C145.358 473.224 120.673 469.509 118.144 458.786C115.219 446.378 138.663 442.396 147.243 440.736Z"/><path stroke="#1a1a1a" stroke-width="6" stroke-linejoin="round" stroke-linecap="round" fill="#4D2A0C" d="M174.38 422.135C174.848 422.352 174.87 422.406 175.279 422.751L174.825 423.703C174.304 423.36 173.777 423.026 173.243 422.704L174.38 422.135Z"/><path stroke="#1a1a1a" stroke-width="6" stroke-linejoin="round" stroke-linecap="round" fill="#4D2A0C" d="M153.737 473.637C154.598 473.581 154.617 473.51 155.317 473.872C154.474 474.114 154.366 474.318 153.737 473.637Z"/><path stroke="#1a1a1a" stroke-width="6" stroke-linejoin="round" stroke-linecap="round" fill="#FEA011" d="M174.38 422.135C171.507 418.158 173.853 415.502 178.222 413.03C184.959 409.218 194.685 406.511 202.43 405.523C214.604 407.342 234.228 414.881 245.852 418.335C287.372 430.672 328.866 439.632 372.155 441.775C354.463 449.013 343.34 456.077 327.387 466.189C314.098 474.612 293.486 485.241 278.473 489.855C234.477 503.376 245.045 484.072 270.107 463.951C256.618 467.216 235.829 465.418 223.703 458.599C213 452.581 227.342 444.527 231.777 441.768C224.204 443.446 195.299 446.284 191.658 437.507C191.783 432.724 198.861 430.084 202.651 428.563C193.268 428.302 183.474 428.015 175.279 422.751C174.87 422.406 174.848 422.352 174.38 422.135Z"/><path stroke="#1a1a1a" stroke-width="6" stroke-linejoin="round" stroke-linecap="round" fill="#C86F20" d="M666.542 235.651C667.057 222.439 677.325 218.648 689.006 219.354C703.296 220.218 717.611 227.486 727.185 238.047C729.932 241.101 733.999 246.363 737.245 248.333C743.642 252.215 751.274 252.676 758.238 254.094C777.261 257.969 792.069 268.889 803.208 284.289C783.52 288.531 767.165 295.131 754.257 311.095C732.554 308.406 703.039 305.897 685.148 292.606C654.86 270.104 677.699 269.339 699.817 270.27C684.941 262.632 670.806 254.445 666.837 236.887C666.412 236.356 666.475 236.383 666.542 235.651Z"/><path stroke="#1a1a1a" stroke-width="6" stroke-linejoin="round" stroke-linecap="round" fill="#4D2A0C" d="M666.542 235.651C666.917 236.182 666.842 236.156 666.837 236.887C666.412 236.356 666.475 236.383 666.542 235.651Z"/><path stroke="#1a1a1a" stroke-width="6" stroke-linejoin="round" stroke-linecap="round" fill="#040404" d="M923.294 331.261C925.201 330.979 930.9 330.241 932.538 329.546C944.386 324.521 969.296 317.492 972.577 336.417C973.574 342.168 970.249 348.958 968.2 354.177C964.813 364.74 962.013 372.67 954.638 381.319C939.897 398.606 924.521 403.553 902.713 402.99L903.022 403.634C909.749 417.312 933.323 411.248 939.923 426.744C945.122 438.951 937.947 452.325 926.286 457.362C923.424 458.578 920.438 459.479 917.381 460.05L917.042 459.046C931.086 456.107 938.152 450.19 940.554 435.607C938.733 438.414 936.767 441.521 934.096 443.509C927.477 448.438 910.565 447.173 902.891 445.469C883.335 440.764 858.25 434.948 845.756 417.948C839.485 409.744 841.165 395.008 850.453 389.585C866.421 380.261 884.186 393.852 899.928 396.978C914.052 399.783 927.318 400.902 939.868 393.02C953.076 384.797 962.436 371.622 965.851 356.442C952.463 357.064 923.297 349.585 932.793 330.722C929.737 331.345 927.179 331.73 924.089 332.152L923.294 331.261ZM930.818 437.909C933.206 437.3 933.322 437.69 934.711 436.195C935.669 423.934 905.659 418.054 896.77 414.51C881.955 408.603 869.124 397.041 852.713 398.074C851.34 398.519 849.696 398.849 848.742 399.83C851.055 402.11 857.95 407.071 861.024 409.226C879.323 422.05 904.388 438.131 927.418 438C928.552 437.991 929.685 437.96 930.818 437.909Z"/><path stroke="#1a1a1a" stroke-width="6" stroke-linejoin="round" stroke-linecap="round" fill="#D4800F" d="M792.819 318.408C796.574 322.388 797.291 326.925 797.068 332.367C796.181 354.014 783.613 369.442 769.005 383.991C747.413 405.496 697.152 425.639 667.898 409.562C673.22 406.278 678.866 402.721 683.454 398.473C724.024 400.444 760.466 381.32 783.961 348.055C789.994 339.513 794.863 329.051 792.819 318.408Z"/><path stroke="#1a1a1a" stroke-width="6" stroke-linejoin="round" stroke-linecap="round" fill="#040404" d="M766.32 590.132C766.528 589.385 768.012 581.44 768.934 582.463C769.556 583.153 769.507 585.711 769.568 586.801C769.249 588.263 768.713 589.21 768.167 590.575C767.922 590.402 767.884 590.511 767.539 590.58L766.32 590.132Z"/><path stroke="#1a1a1a" stroke-width="6" stroke-linejoin="round" stroke-linecap="round" fill="#040404" d="M617.269 651.422L622.533 651.373L621.977 653.141C620.755 653.499 619.88 653.8 618.687 654.244C618.232 652.679 618.265 652.758 617.269 651.422Z"/><path stroke="#1a1a1a" stroke-width="6" stroke-linejoin="round" stroke-linecap="round" fill="#130902" d="M622.533 651.373C629.057 650.522 624.797 652.132 621.977 653.141L622.533 651.373Z"/><path stroke="#1a1a1a" stroke-width="6" stroke-linejoin="round" stroke-linecap="round" fill="#040404" d="M850.241 318.977C853.771 318.889 855.542 318.799 858.26 321.465C862.939 326.195 866.082 333.594 865.995 340.251C865.951 343.647 865.248 347.159 862.567 349.415L861.981 349.93C849.166 350.456 841.353 327.954 850.241 318.977Z"/></svg>