<?xml version="1.0" encoding="utf-8" ?><svg xmlns="http://www.w3.org/2000/svg" xmlns:xlink="http://www.w3.org/1999/xlink" width="1024" height="1024" viewBox="0 0 1024 1024"><rect id="white-background" width="1024" height="1024" fill="#ffffff"/><path fill="#440201" d="M884.311 279.992C887.134 293.033 886.194 301.752 885.686 314.345C885.406 321.288 879.364 349.002 880.45 352.519C882.511 351.942 894.504 339.648 897.006 337.184L884.29 375.4C881.545 383.593 877.115 395.958 875.357 404.075C880.926 400.085 886.326 395.484 891.813 391.32C885.788 403.884 877.476 417.286 871.378 430.128C868.655 435.861 865.068 441.592 863.021 447.677C869.521 444.918 878.015 441.356 883.979 437.648C874.47 448.303 864.654 458.57 855.145 469.199C851.783 472.958 846.682 478.137 843.905 482.003C849.895 481.417 857.902 480.418 863.732 480.273L863.792 482.169C849.327 491.493 834.914 500.953 820.533 510.405C818.161 511.963 810.175 509.583 808.735 512.188C811.04 515.974 860.97 550.26 868.798 556.802C856.453 556.768 844.108 556.841 831.764 557.022C846.96 572.407 858.831 592.533 870.093 610.777C862.034 606.487 856.145 604.416 847.599 601.332C849.085 608.486 851.43 614.794 853.385 621.701C857.284 635.473 862.444 649.7 866.277 663.391C860.84 656.509 855.355 649.664 849.823 642.858C850.152 661.482 851.482 680.042 852.496 698.649C847.855 692.904 841.941 686.11 836.499 681.116C836.224 691.041 837.138 700.705 837.059 710.47C838.095 716.651 837.465 725.087 837.9 731.496C838.131 734.906 837.251 733.711 836.184 731.422C833.98 727.177 831.58 721.925 829.223 717.965C827.685 723.364 826.287 728.787 825.743 734.393C832.266 743.959 838.717 753.574 845.095 763.238C848.285 768.031 854.502 776.473 856.344 781.618C857.383 784.493 857.614 787.597 857.014 790.595C854.663 801.98 846.704 802.867 845.131 806.222C846.251 806.771 846.968 807.004 848.253 807.011C877.855 807.19 907.994 806.135 937.546 806.941L937.461 814.408C915.915 813.81 893.336 814.103 871.694 814.14L788.835 814.095L514.38 814.329L412.365 814.318C397.888 814.305 376.129 814.963 362.144 814.237C359.708 836.52 371.345 850.051 362.115 870.163C359.623 875.598 355.911 880.386 351.268 884.153C343.032 890.764 332.497 893.812 322.004 892.617C311.185 891.436 301.312 885.907 294.652 877.299C286.446 866.833 285.545 855.42 287.184 842.761C288.395 833.228 290.074 823.76 292.214 814.392L189.885 814.193C168.546 814.097 141.634 813.296 120.67 814.47C120.684 812.014 120.654 809.467 120.788 807.022C153.804 806.948 187.946 807.275 220.832 806.796L221.78 806.71C224.071 806.519 224.714 806.201 222.006 805.246C219.958 804.189 217.965 803.029 216.034 801.772C213.731 800.333 211.6 798.635 209.683 796.711C206.279 793.246 202.906 788.83 199.697 785.061C190.651 774.437 181.459 764.037 172.862 753.035C167.162 747.825 168.63 732.36 177.022 730.661C193.933 727.238 214.067 727.192 231.199 723.968C229.812 714.349 229.748 708.413 229.811 698.635C225.356 701.6 215.794 709.826 211.704 713.552C220.093 692.122 222.628 685.373 233.69 664.987C226.247 666.006 216.054 667.341 208.793 668.591C211.574 664.08 215.224 659.907 218.429 655.663C225.286 646.583 233.078 637.424 239.313 627.916C230.417 623.612 220.312 620.591 210.204 615.54C190.927 634.78 173.377 653.054 150.216 667.769C144.252 671.558 137.983 675.452 131.114 677.331C125.033 678.995 119.424 678.378 113.959 675.192C109.229 672.434 106.622 668.751 105.282 663.416C102.975 654.23 105.656 645.798 110.388 637.92C123.056 616.834 173.502 550.436 197.975 544.971C201.74 544.13 205.529 544.95 209.076 546.312C216.319 549.094 223.328 554.043 230.035 557.98C241.906 564.947 253.825 571.792 265.557 578.994C269.958 575.749 275.516 572.523 280.213 569.533C272.463 564.024 263.879 557.058 256.152 552.147C276.076 552.375 296.018 554.45 316.148 554.08C313.64 548.327 302.285 532.787 298.161 526.693C307.836 531.934 327.125 542.7 336.68 546.577C350.529 538.259 363.65 529.134 377.587 520.818C373.282 530.036 368.191 538.39 363.595 547.378C384.521 542.619 405.394 537.628 426.209 532.408C422.522 535.295 401.532 549.179 401.992 552.351C403.603 553.419 438.931 555.242 444.811 556.115C440.936 557.98 437.592 558.863 433.749 561.178C438.935 562.549 444.863 563.673 450.155 564.795C455.841 554.168 461.648 543.606 467.577 533.111C468.781 539.043 470.168 545.885 472.164 551.558C480.795 536.573 488.799 520.82 497.344 506.224C497.631 513.002 498.116 519.115 498.739 525.876C502.724 522.022 507.17 516.733 510.987 512.534C518.516 504.307 525.994 496.032 533.418 487.709C537.619 483.006 543.028 476.677 547.62 472.486C544.968 481.342 541.821 490.71 539.641 499.603L587.084 464.702C593.389 460.008 601.034 454.902 606.951 450.035C603.79 458.139 599.082 465.79 595.638 473.994C602.823 471.733 613.143 466.417 620.402 463.178C635.99 456.37 651.493 449.37 666.908 442.181C665.102 445.271 654.757 461.927 655.179 464.495C658.133 465.59 684.395 457.839 689.996 456.362C700.075 453.703 712.36 450.632 722.186 447.326C715.889 452.401 709.18 457.41 703.288 462.917C708.113 463.896 717.278 463.161 722.523 462.941C731.949 462.475 741.381 462.133 750.816 461.917C754.87 462.329 760.708 461.456 763.423 462.833L762.891 463.107C758.597 465.289 746.989 469.411 744.719 472.271L744.891 473.069C746.482 473.896 776.821 477.392 780.819 477.926C789.218 459.177 793.79 444.176 799.751 424.592C801.727 430.748 804.094 438.794 806.468 444.63C810.906 426.209 816.723 398.674 822.392 381.188C824.387 388.207 826.102 393.807 828.636 400.708C832.787 381.828 838.887 356.998 844.367 338.483C846.129 345.118 847.502 352.319 849.229 358.599C861.158 333.047 872.048 305.118 884.311 279.992ZM629.898 550.228L629.45 550.423L628.709 550.755C625.383 552.215 620.215 554.786 619.147 558.477C619.653 560.082 619.165 559.557 620.463 560.268C623.3 558.842 624.453 553.66 627.596 553.812C629.104 560.181 629.42 559.897 635.368 562.353C636.42 590.046 659.58 603.525 651.141 576.328C658.39 579.628 673.517 584.893 671.59 568.973C670.945 563.642 664.236 558.85 659.66 556.134C662.405 554.965 665.166 553.342 668.558 552.045C676.945 548.837 689.508 534.957 676.172 529.49C673.121 528.239 667.563 530.464 664.466 532.331C661.945 532.151 662.679 531.327 662.931 527.999C663.321 522.844 658.057 519.522 653.759 522.242C644.554 528.065 642.344 538.915 638.552 547.833C634.85 545.896 634.672 546.924 630.985 547.192C627.684 547.433 628.467 542.957 626.294 540.74C624.528 541.377 625.102 540.816 624.312 542.25C624.809 545.314 627.752 547.965 629.898 550.228Z"/ stroke="#1a1a1a" stroke-width="8" stroke-linejoin="round" stroke-linecap="round"><path fill="#500C05" d="M837.059 710.47C838.095 716.651 837.465 725.087 837.9 731.496C838.131 734.906 837.251 733.711 836.184 731.422C837.577 728.601 836.426 715.229 837.059 710.47Z"/ stroke="#1a1a1a" stroke-width="8" stroke-linejoin="round" stroke-linecap="round"><path fill="#944041" d="M848.428 366.934C855.327 348.78 865.683 330.27 873.029 312.158C875.825 305.262 879.349 297.151 882.585 290.53C885.586 313.786 878.487 341.28 874.441 364.511C879.934 357.604 882.482 354.2 889.652 349.252C883.638 370.425 875.528 391.528 869.271 412.46C873.019 409.354 877.416 406.12 881.314 402.946C882.464 401.405 883.527 400.882 882.385 403.35C880.063 406.825 878.4 410.68 876.523 414.411C869.695 427.983 862.379 441.207 855.666 454.847C860.385 452.742 866.279 450.298 870.768 447.918C859.478 460.068 847.886 473.773 836.469 485.492C841.081 485.388 846.376 484.421 850.101 484.417C851.718 483.769 853.123 483.862 854.873 483.794L855.272 484.165L853.996 484.872C841.973 492.372 831.26 500.355 818.666 507.983C812.415 508.184 803.746 508.509 797.557 508.046C804.93 514.226 812.801 518.917 820.313 524.618C833.48 534.61 846.203 544.02 859.78 553.453C848.426 554.025 837.061 554.378 825.693 554.511C842.403 571.541 849.918 583.025 861.564 603.129C855.854 600.795 849.316 598.45 843.312 597.061C845.629 605.933 848.517 614.932 851.17 623.745C853.546 631.634 855.997 641.636 859.238 649.059C855.493 645.294 849.867 639.309 846.544 635.143C846.496 652.038 848.593 670.611 848.725 688.527C843.817 685.878 836.995 677.79 833.433 673.428C833.936 689.482 833.857 705.65 834.485 721.599C831.201 715.824 829.938 713.451 827.87 707.236C826.065 716.345 824.351 725.471 822.73 734.614C825.309 737.888 827.549 741.464 829.811 744.981C835.688 754.122 841.694 763.036 847.776 772.057C850.908 776.703 855.298 783.789 854.555 789.613C853.947 794.381 849.883 799.468 846.02 802.061C842.892 804.186 841.037 804.819 837.407 805.08C829.328 805.662 820.953 805.523 812.851 805.539L771.006 805.547L718.103 805.498C708.356 805.48 696.429 805.716 686.827 805.122C689.382 797.244 691.686 793.166 696.673 786.586C686.333 791.05 678.45 795.503 670.369 803.369C668.223 803.308 665.708 803.302 663.602 803.101C666.139 792.948 669.312 786.861 675.666 778.676C662.395 784.359 654.342 791.017 647.909 803.993L635.333 804.304C641.88 785.817 654.093 768.467 672.207 759.895C676.743 757.742 681.574 756.274 686.541 755.54C696.096 754.065 704.351 754.633 713.772 754.447C729.734 754.133 746.899 754.966 762.762 754.146C743.407 745.733 733.854 734.485 724.55 716.217C723.692 722.536 723.375 728.795 722.968 735.157C711.919 719.347 707.493 704.97 705.729 685.984C701.652 690.917 697.232 696.073 693.277 701.061C694.473 686.861 696.112 671.902 698.763 657.918C693.036 662.239 686.983 666.964 681.014 670.895C684.533 647.261 688.416 636.188 702.225 615.683C697.443 616.895 692.671 618.148 687.909 619.442C698.886 603.508 712.098 594.369 728.762 585.376C715.872 588.673 703.876 592.093 693.075 600.4C671.432 617.045 668.64 645.585 669.964 670.968C665.828 668.978 660.763 666.702 656.835 664.465C660.391 677.484 664.15 690.448 668.109 703.35C661.264 698.787 651.374 691.114 645.104 687.214C647.844 698.578 651.123 713.477 653.048 725.019C643.11 717.515 633.004 710.677 623.27 703.372C626.566 713.49 629.676 723.668 632.597 733.901C621.233 725.118 608.266 716.979 597.302 708.172C602.112 717.502 606.568 725.499 609.325 735.731C610.959 740.87 610.7 748.166 613.004 752.98C617.612 762.605 625.449 771.195 629.554 781.067C635.346 794.995 622.117 805.145 609.02 805.478C586.783 806.043 563.79 805.408 541.5 805.669C520.009 805.441 497.973 806.146 476.569 805.316C479.079 797.746 480.957 793.077 485.631 786.597C473.662 791.575 467.638 795.568 457.398 803.62C454.959 803.542 452.37 803.413 449.942 803.439C454.471 791.678 456.35 787.864 464.61 778.09C450.364 783.352 443.212 790.46 436.445 803.905L423.722 803.479C431.813 784.208 442.231 766.598 462.623 758.292C467.025 756.513 471.654 755.36 476.376 754.867C484.578 753.994 500.372 754.452 509.001 754.466C529.304 754.56 549.608 754.55 569.912 754.436C546.886 743.657 532.476 719.114 521.518 696.913C529.954 700.713 539.204 704.085 547.886 707.412C538.76 694.97 521.983 674.894 511.656 662.998L526.227 661.269C516.225 647.663 506.386 634.701 492.581 624.587C499.125 621.171 505.947 617.48 512.623 614.415C525.871 630.7 538.966 645.664 556.653 657.903C569.944 667.1 593.68 684.829 609.775 671.68C618.237 664.766 616.24 650.746 611.64 642.207C599.819 622.268 539.538 530.941 511.01 550.24C492.003 563.098 456.261 591.054 436.67 605.424C443.975 618.065 451.866 629.807 459.055 642.746C465.342 639.371 472.887 635.556 478.924 631.937C491.173 644.92 502.354 663.914 508.059 680.847C510.218 687.254 511.57 694.504 512.867 701.157C506.469 697.264 499.842 693.21 493.283 689.601C498.635 709.547 498.91 720.168 495.461 740.136C491.736 733.864 488.095 728.852 483.823 722.936C481.588 734.139 479.809 742.331 473.542 752.246C455.948 757.043 444.452 763.263 433.617 778.863C430.391 783.507 428.154 789.033 424.161 793.083C407.757 809.126 385.278 804.369 365.047 805.919C366.027 804.501 367.585 802.099 368.985 801.216C378.808 795.025 400.343 798.62 397.229 780.879C396.251 775.088 392.914 769.963 388.015 766.726C385.463 765.051 382.522 764.06 379.477 763.85C372.324 763.327 353.913 767.897 346.271 769.304C340.285 770.406 335.836 772.762 331.294 776.775C312.806 779.917 302.956 787.974 295.444 805.394L257.315 805.349C230.475 805.313 222.376 808.983 204.555 786.613C223.648 777.457 248.98 769.181 238.694 741.936C236.34 735.701 229.673 731.482 223.844 729.012C222.965 728.737 222.256 728.46 221.398 728.134L221.658 727.665L223.262 727.424C228.509 726.422 238.605 725.58 244.288 724.872C256.583 723.315 268.858 721.607 281.111 719.747C285.996 719.025 295.891 717.873 300.287 716.3L300.564 715.254C295.582 713.445 281.175 716.9 275.457 717.774L233.668 723.793C231.844 708.946 231.934 705.933 232.851 691.388C228.541 694.87 223.978 699.413 219.357 703.219C223.411 686.272 231.853 675.977 237.845 661.314C230.865 662.504 222.657 664.094 215.723 664.729C229.874 643.73 247.872 621.865 263.041 601.248C255.44 602.643 247.77 603.626 240.064 604.194C246.261 599.178 252.395 594.084 258.466 588.914C269.783 579.269 273.363 575.884 287.056 569.739C279.047 565.152 272.725 560.497 265.306 555.034C272.528 555.888 282.852 556.003 290.181 556.191C301.098 556.442 312.012 556.809 322.922 557.292C316.08 549.53 312.613 542.964 307.057 534.431C316.439 539.325 327.41 544.857 336.361 550.275C347.836 543.231 358.904 535.726 370.533 528.931C367.151 536.676 361.787 543.481 358.432 552.081C375.746 547.257 395.948 542.173 413.431 538.166C407.529 543.449 397.454 550.278 390.915 554.835C403.497 555.72 417.663 556.661 430.149 558.181C427.074 559.525 426.238 560.019 423.458 561.828C432.869 564.416 442.21 565.428 451.535 567.958C455.813 558.596 462.104 549.641 466.677 539.743C467.527 546.304 469.553 552.879 471.328 559.263C477.547 546.105 487.937 529.203 495.384 516.027C495.512 521.313 496.077 526.831 496.581 532.105C504.383 524.747 513.946 513.172 521.382 505.091C526.859 499.14 535.756 489.984 540.507 483.904C539.386 490.227 537.02 501.239 534.362 506.858C537.163 504.991 539.832 502.924 542.536 500.919C561.551 486.824 581.086 473.433 599.552 458.606C595.466 467.889 593.73 471.712 588.273 480.137C599.12 476.447 607.773 471.8 618.111 467.127L659.592 448.871C655.741 456.177 651.669 463.365 647.381 470.423C666.213 465.815 685.447 460.092 704.407 455.202C705.473 454.95 707.905 454.161 708.672 454.504C707.963 455.25 707.713 455.621 706.878 456.201C702.881 459.738 698.444 462.89 694.146 466.069C712.616 465.038 733.186 465.038 751.768 464.826C745.479 468.201 738.141 470.832 731.537 474.067C744.285 476.529 769.142 479.31 782.575 480.654C789.337 464.188 794.519 451.585 799.848 434.592C802.231 441.395 804.456 448.253 806.52 455.159C810.553 440.725 813.533 425.808 817.402 411.315C819.155 404.749 820.858 398.102 822.225 391.448C825.06 398.708 826.647 403.843 828.481 411.287C834.106 391.696 838.387 367.927 844.58 349.013C845.884 355.236 846.784 360.709 848.428 366.934ZM629.898 550.228L629.45 550.423L628.709 550.755C625.383 552.215 620.215 554.786 619.147 558.477C619.653 560.082 619.165 559.557 620.463 560.268C623.3 558.842 624.453 553.66 627.596 553.812C629.104 560.181 629.42 559.897 635.368 562.353C636.42 590.046 659.58 603.525 651.141 576.328C658.39 579.628 673.517 584.893 671.59 568.973C670.945 563.642 664.236 558.85 659.66 556.134C662.405 554.965 665.166 553.342 668.558 552.045C676.945 548.837 689.508 534.957 676.172 529.49C673.121 528.239 667.563 530.464 664.466 532.331C661.945 532.151 662.679 531.327 662.931 527.999C663.321 522.844 658.057 519.522 653.759 522.242C644.554 528.065 642.344 538.915 638.552 547.833C634.85 545.896 634.672 546.924 630.985 547.192C627.684 547.433 628.467 542.957 626.294 540.74C624.528 541.377 625.102 540.816 624.312 542.25C624.809 545.314 627.752 547.965 629.898 550.228Z"/ stroke="#1a1a1a" stroke-width="8" stroke-linejoin="round" stroke-linecap="round"><path fill="#87403C" d="M881.314 402.946C882.464 401.405 883.527 400.882 882.385 403.35C882.028 403.215 881.671 403.081 881.314 402.946Z"/ stroke="#1a1a1a" stroke-width="8" stroke-linejoin="round" stroke-linecap="round"><path fill="#440201" d="M638.552 547.833C642.344 538.915 644.554 528.065 653.759 522.242C658.057 519.522 663.321 522.844 662.931 527.999C662.679 531.327 661.945 532.151 664.466 532.331C667.563 530.464 673.121 528.239 676.172 529.49C689.508 534.957 676.945 548.837 668.558 552.045C665.166 553.342 662.405 554.965 659.66 556.134C664.236 558.85 670.945 563.642 671.59 568.973C673.517 584.893 658.39 579.628 651.141 576.328C659.58 603.525 636.42 590.046 635.368 562.353C629.42 559.897 629.104 560.181 627.596 553.812C624.453 553.66 623.3 558.842 620.463 560.268C619.165 559.557 619.653 560.082 619.147 558.477C620.215 554.786 625.383 552.215 628.709 550.755L629.45 550.423L629.898 550.228C627.752 547.965 624.809 545.314 624.312 542.25C625.102 540.816 624.528 541.377 626.294 540.74C628.467 542.957 627.684 547.433 630.985 547.192C634.672 546.924 634.85 545.896 638.552 547.833ZM660.86 533.926C661.422 508.294 640.841 538.286 641.643 548.421C650.252 540.361 651.873 540.041 660.86 533.926ZM647.894 557.079C655.448 555.048 682.586 546.626 679.927 535.74C679.604 534.36 678.726 533.174 677.499 532.464C675.849 531.525 674.217 531.529 672.402 531.53C661.63 534.628 647.113 545.13 640.349 553.987C637.327 557.943 646.666 557.245 647.894 557.079ZM651.275 588.067C651.806 580.352 643.067 567.451 637.342 562.747C637.831 569.582 641.728 589.492 651.275 588.067Z"/ stroke="#1a1a1a" stroke-width="8" stroke-linejoin="round" stroke-linecap="round"><path fill="#500C05" d="M638.552 547.833C642.344 538.915 644.554 528.065 653.759 522.242C658.057 519.522 663.321 522.844 662.931 527.999C662.679 531.327 661.945 532.151 664.466 532.331C663.802 533.901 662.835 532.538 660.86 533.926C661.422 508.294 640.841 538.286 641.643 548.421C640.475 550.997 640.224 548.853 638.552 547.833Z"/ stroke="#1a1a1a" stroke-width="8" stroke-linejoin="round" stroke-linecap="round"><path fill="#440201" d="M265.465 643.348C267.52 644.617 284.949 663.147 287.518 665.846C294.709 658.498 302.476 650.24 309.986 643.332C312.771 646.805 316.609 650.28 319.862 653.399C312.391 660.824 304.961 668.292 297.575 675.802C304.749 682.097 311.851 690.078 318.865 695.844L308.864 706.006L308.103 706.322C306.018 704.978 290.649 689.407 287.693 686.453C280.638 693.545 273.534 700.589 266.382 707.583C262.656 703.362 259.533 700.703 255.168 697.187C262.477 690.897 270.705 682.513 277.504 675.656C270.109 668.611 261.766 660.873 255.036 653.228C258.263 650.019 262.116 646.555 265.465 643.348Z"/ stroke="#1a1a1a" stroke-width="8" stroke-linejoin="round" stroke-linecap="round"><path fill="#440201" d="M405.617 644.443C409.399 648.134 411.916 650.793 416.032 654.46C408.467 662.729 401.277 668.453 393.433 677.731C399.597 684.096 407.558 691.611 414.136 697.599L403.7 707.967C396.527 701.485 390.11 694.578 383.18 687.85C380.012 690.865 364.31 707.119 362.429 708.243L361.416 707.674C358.033 704.419 354.548 701.273 350.964 698.24C358.264 691.711 366.328 684.194 372.595 676.748C365.443 669.72 358.221 662.764 350.931 655.878C354.339 652.391 358.085 649.032 361.675 645.716C368.901 652.592 376.368 659.686 383.104 667.017C390.508 659.393 398.013 651.868 405.617 644.443Z"/ stroke="#1a1a1a" stroke-width="8" stroke-linejoin="round" stroke-linecap="round"><path fill="#FE4F4D" d="M376.056 775.713C385.312 774.92 394.021 783.081 382.941 788.588C368.881 795.577 361.005 801.526 359.393 818.134C357.896 833.564 365.417 847.396 362.029 862.588C357.098 882.777 336.628 893.964 316.93 889.089C307.262 886.628 298.998 880.369 294.01 871.73C284.542 855.588 290.927 830.369 295.455 812.939C298.538 802.363 304.196 792.456 313.251 785.939C322.368 779.377 333.995 778.804 344.806 778.132C327.155 793.64 320.333 814.885 324.857 838.007C325.689 842.258 327.103 848.953 328.967 852.761L330.034 853.015C331.428 851.694 330.142 848.887 329.63 847.227C321.527 820.965 326.576 794.052 349.926 777.585C358.527 777.145 367.443 776.359 376.056 775.713Z"/ stroke="#1a1a1a" stroke-width="8" stroke-linejoin="round" stroke-linecap="round"><path fill="#440201" d="M171.495 327.044C187.667 326.185 196.851 352.635 201.472 365.055C206.932 363.096 211.783 361.956 216.609 366.052C220.597 361.32 220.569 360.368 222.733 354.461C224.063 354.058 223.375 354.117 224.843 354.64L225.352 355.852C224.836 360.446 221.692 364.642 218.695 367.988L220.457 370.622C223.692 371.911 226.501 372.688 228.918 375.388C230.331 376.966 234.403 381.886 231.795 383.686C230.136 383.371 227.838 376.697 220.562 373.865C220.201 381.238 216.083 385.459 208.815 386.796C207.249 400.428 203.286 415.015 193.703 425.263C191.393 427.1 187.567 429.062 184.658 427.766C175.217 423.562 184.26 409.569 187.315 403.838C150.714 424.749 142.587 390.283 173.894 375.689C160.611 371.376 144.178 365.394 140.369 350.537C143.351 335.724 153.807 338.388 164.72 342.997C165.464 335.234 163.622 330.941 171.495 327.044ZM192.643 377.695C208.922 376.911 192.709 363.915 187.681 360.414C177.478 353.31 163.87 342.86 151.131 342.119C145.348 343.208 141.763 347.143 143.917 352.747C149.34 366.852 179.97 375.89 192.643 377.695ZM168.157 344.611C175.862 348.843 188.252 356.169 194.579 362.107C195.169 361.457 195.755 360.805 196.338 360.15C194.885 352.283 185.231 336.203 178.677 331.203C173.631 327.354 170.499 329.988 167.532 334.129C167.423 339.186 167.628 339.702 168.157 344.611ZM184.576 425.05C188.704 424.968 190.199 424.839 193.236 421.461C199.336 414.676 207.674 394.038 205.419 385.383C198.995 391.587 183.784 411.226 183.392 420.751C183.307 422.796 183.704 423.369 184.576 425.05Z"/ stroke="#1a1a1a" stroke-width="8" stroke-linejoin="round" stroke-linecap="round"><path fill="#F5EFDC" d="M196.338 360.15C198.796 364.143 198.679 367.003 194.579 362.107C195.169 361.457 195.755 360.805 196.338 360.15Z"/ stroke="#1a1a1a" stroke-width="8" stroke-linejoin="round" stroke-linecap="round"><path fill="#440201" d="M898.438 702.376C899.477 698.09 902.169 692.957 904.372 688.492C907.257 682.644 915.716 668.025 923.573 676.494C925.826 678.922 924.785 684.623 924.388 687.806C939.93 677.686 954.419 699.141 917.838 712.219C923.509 715.645 929.882 720.341 931.265 726.904C933.304 736.579 922.306 737.503 915.765 735.141C914.352 734.631 912.8 733.755 912.054 734.72C911.995 740.25 915.372 757.301 901.584 744.396C896.724 739.847 895.374 724.685 893.505 718.849C892.645 715.808 888.012 717.609 885.825 709.347L885.281 709.769C883.627 711.073 879.642 715.151 878.843 715.523C875.831 711.838 884.425 707.171 887.012 706.103C887.295 705.121 887.226 704.577 887.147 703.577C887.746 702.714 887.995 702.768 888.991 702.549L889.285 703.484C895.204 701.1 895.706 703.141 898.438 702.376ZM921.818 689.356C922.468 686.774 922.877 678.923 921.527 677.762C913.048 670.467 902.869 697.962 902.022 700.864L901.853 701.463C907.586 701.441 914.189 692.239 921.818 689.356ZM907.606 712.386L908.601 712.171C917.232 710.376 931.179 705.437 936.587 698.023C940.762 692.3 938.233 687.469 930.871 687.538C920.724 690.729 907.352 701.218 900.558 709.525C899.673 710.608 901.485 712.687 902.291 712.947C903.611 713.373 906.214 712.619 907.606 712.386ZM907.994 744.729C908.905 743.655 910.482 742.394 910.149 740.75C909.181 735.971 901.528 721.837 897.295 719.77C895.885 726.868 900.476 740.265 905.965 745.11C906.687 745.747 907.558 745.671 907.994 744.729Z"/ stroke="#1a1a1a" stroke-width="8" stroke-linejoin="round" stroke-linecap="round"><path fill="#500C05" d="M898.438 702.376C899.477 698.09 902.169 692.957 904.372 688.492C907.257 682.644 915.716 668.025 923.573 676.494C925.826 678.922 924.785 684.623 924.388 687.806C923.564 688.799 923.074 689.117 921.818 689.356C922.468 686.774 922.877 678.923 921.527 677.762C913.048 670.467 902.869 697.962 902.022 700.864L901.853 701.463C904.116 703.41 901.602 704.666 900.461 704.456C899.614 702.938 900.596 703.797 898.438 702.376Z"/ stroke="#1a1a1a" stroke-width="8" stroke-linejoin="round" stroke-linecap="round"><path fill="#500C05" d="M888.991 702.549L889.285 703.484C887.088 704.79 888.977 706.494 887.012 706.103C887.295 705.121 887.226 704.577 887.147 703.577C887.746 702.714 887.995 702.768 888.991 702.549Z"/ stroke="#1a1a1a" stroke-width="8" stroke-linejoin="round" stroke-linecap="round"><path fill="#500C05" d="M887.147 703.577C885.59 702.41 883.071 697.232 883.686 695.133C883.978 694.138 886.699 694.008 886.519 695.742C886.267 698.159 888.012 700.448 888.991 702.549C887.995 702.768 887.746 702.714 887.147 703.577Z"/ stroke="#1a1a1a" stroke-width="8" stroke-linejoin="round" stroke-linecap="round"><path fill="#500C05" fill-opacity="0.98823529" d="M750.816 461.917C754.935 461.347 761.437 461.054 765.62 461.274C765.968 461.292 765.228 462.216 764.805 462.273C764.609 462.3 763.715 462.727 763.423 462.833C760.708 461.456 754.87 462.329 750.816 461.917Z"/ stroke="#1a1a1a" stroke-width="8" stroke-linejoin="round" stroke-linecap="round"><path fill="#500C05" d="M863.732 480.273C867.746 479.953 866.67 480.616 863.792 482.169L863.732 480.273Z"/ stroke="#1a1a1a" stroke-width="8" stroke-linejoin="round" stroke-linecap="round"><path fill="#F5EFDC" fill-opacity="0.015686275" d="M222.006 805.246C224.714 806.201 224.071 806.519 221.78 806.71L220.832 806.796L222.006 805.246Z"/></svg>