<?xml version="1.0" encoding="utf-8" ?><svg xmlns="http://www.w3.org/2000/svg" xmlns:xlink="http://www.w3.org/1999/xlink" width="1024" height="1024" viewBox="0 0 1024 1024"><rect width="1024" height="1024" fill="#ffffff"/><path fill="#CAC0B1" d="M315.952 230.934C330.49 221.001 338.032 218.144 356 217.717C370.58 217.37 382.482 221.482 396.629 221.758C399.72 221.819 407.383 218.714 411.138 218.01C424.66 215.475 438.121 215.257 451.782 216.522C457.634 217.071 465.817 219.944 471.341 222.076C474.332 223.202 477.385 224.885 480.429 225.754C482.851 226.068 484.553 223.819 486.363 222.669C495.013 217.172 505.813 216.44 515.174 220.608C519.506 222.537 522.873 225.181 526.62 228.206C536.219 236.119 546.639 242.979 557.702 248.667C569.961 255.019 593.399 261.692 600.369 272.876C611.916 291.403 586.548 320.799 580.817 338.255C580.316 339.78 580.921 341.132 581.99 342.034C589.229 344.296 599.789 363.099 603.43 370.061C607.738 378.389 611.708 386.887 615.332 395.534C620.391 407.863 625.078 421.679 630.327 433.806C631.813 437.239 646.712 448.499 650.563 451.625C660.271 459.626 669.841 467.794 679.267 476.125C703.655 497.82 727.115 520.536 749.584 544.212C790.53 588.035 826.536 635.687 828.706 697.97C829.496 716.726 826.982 735.474 821.278 753.359C815.905 770.39 810.642 779.273 802.04 794.361C804.849 795.487 807.69 796.048 810.41 797.264C815.947 798.323 822.019 798.479 827.096 799.529C840.008 799.77 852.136 798.249 863.601 791.853C867.677 789.52 871.374 786.336 875.467 784.073C880.237 781.435 883.27 786.216 882.66 790.478C878.98 816.171 858.085 832.491 834.393 838.654C816.365 842.514 795.431 836.794 779.398 828.352C760.831 843.828 751.665 849.084 730.272 837.412C723.172 833.539 708.582 834.961 701.032 838.757C693.21 843.552 681.169 846.098 672.03 845.971C667.917 845.914 663.526 845.211 659.418 845.377C654.047 845.594 648.692 846.6 643.283 846.37C640.042 846.262 635.355 844.407 632.949 844.444C625.925 844.549 620.855 846.346 613.785 843.955C607.248 841.743 603.814 837.14 600.796 831.256C580.519 835.128 572.392 836.273 551.37 835.5C542.49 842.382 537.763 845.757 526.166 845.446C524.693 845.495 522.962 845.463 521.537 845.739C513.346 846.761 508.036 846.727 500.186 844.302C487.578 847.561 480.183 846.488 467.625 845.245C464.104 844.897 458.039 846.543 453.679 846.153C445.907 845.458 442.778 844.318 437.543 838.651C421.7 840.068 403.055 839.266 386.917 839.653C377.864 839.209 366.73 840.81 357.862 839.642C332.331 836.281 338.394 805.468 354.579 794.647C365.562 787.304 374.256 785.291 386.779 787.218L383.337 789.708C381.693 790.668 380.145 791.783 378.714 793.039C375.68 796.183 372.882 798.328 370.607 802.301C365.799 810.696 363.682 822.231 369.219 830.805C369.558 831.327 370.06 831.451 370.613 831.647L371.654 830.607C367.948 819.248 369.939 806.643 377.707 797.204C378.772 795.909 380.826 794.456 382.122 793.188C383.294 793.577 385.142 792.184 386.194 791.588C394.743 789.151 408.184 792.856 416.127 796.116L417.991 795.396C387.804 778.969 363.045 764.201 337.957 739.682C334.94 749.649 334.153 760.807 330.581 772.332C325.711 786.778 321.431 799.122 314.297 812.64C303.824 832.485 300.335 837.892 278.879 844.202C277.246 844.522 275.788 844.839 274.137 845.071C262.616 847.618 257.739 845.894 247.242 845.757C234.585 845.592 232.511 847.385 219.582 843.65C209.351 846.546 197.081 847.788 189.236 839.248C177.047 825.977 180.98 806.698 193.125 795.316C200.01 788.84 209.164 785.33 218.614 785.544C216.674 786.643 215.204 786.882 213.139 787.805C210.889 788.52 206.987 790.676 204.96 791.984C203.575 792.78 202.921 793.257 201.638 794.193L200.177 795.298C198.905 796.272 197.6 797.647 196.535 798.848C198.463 803.046 201.452 800.29 204.676 797.807C206.668 796.273 208.042 795.886 208.455 798.75C208.625 799.924 203.708 804.373 202.245 803.984C199.842 803.616 197.999 808.064 199.723 808.418C200.362 808.142 202.311 804.234 204.513 804.519C206.212 804.61 205.942 803.858 206.889 803.168C211.863 799.547 208.286 797.893 210.601 794.205C211.24 793.186 206.773 792.043 211.314 789.796C213.962 788.486 212.88 789.163 215.861 789.713C217.564 790.361 219.572 789.443 221.241 789.188C222.436 787.572 221.858 788.411 221.155 787.203L221.183 787.125C221.559 786.962 229.016 786.588 230.106 786.442C231.597 786.458 231.636 786.605 232.844 785.808C236.773 779.958 238.016 775.33 239.129 768.388L239.931 765.978C249.464 714.243 242.897 669.474 225.079 620.097C211.35 582.049 211.677 530.594 229.356 493.819C232.107 488.096 235.558 482.538 238.371 476.744C232.286 463.356 226.313 455.122 222.428 439.75C214.536 408.525 226.112 382.64 241.421 356.147C243.231 353.635 245.376 349.103 246.642 346.239C244.721 342.449 244.79 340.02 240.825 341.755L240.132 342.006C239.313 343.185 238.349 344.058 237.406 345.195C233.904 349.155 223.45 359.378 217.965 353.777C216.909 352.699 216.077 348.531 216.445 347.092C218.367 339.559 222.405 332.282 221.76 324.272C220.422 304.684 200.82 290.068 214.186 270.298C223.303 256.813 236.311 259.781 248.404 252.485C256.498 247.602 264.224 237.002 271.338 230.493C274.349 227.156 281.354 223.962 285.818 223.088C299.252 220.461 305.443 224.18 315.952 230.934ZM209.968 838.79L212.05 837.986C211.626 837.608 211.262 837.289 210.859 836.888C209.553 836.582 208.852 836.359 207.587 835.908C207.408 835.442 207.209 834.864 206.971 834.424C204.679 828.304 203.174 832.574 201.994 835C201.455 836.108 197.535 835.296 196.864 836.242C196.548 836.687 196.846 836.663 196.344 836.972C194.867 836.674 198.318 830.83 193.036 830.92C192.482 830.929 191.495 832.123 191.26 832.556L190.899 833.165C192.79 836.368 194.625 837.781 197.906 839.346C201.523 838.522 208.467 839.402 209.968 838.79ZM233.115 841.717C234.94 841.969 243.676 841.422 244.134 839.975C243.938 839.467 242.73 838.306 242.307 837.813C241.18 838.281 240.412 838.687 239.221 839.051C237.85 839.47 233.691 838.992 233.075 839.328C233.035 840.539 233.821 839.995 233.115 841.717ZM243.551 319.495L243.404 320.436C243.27 321.259 242.663 323.407 243.31 324.086C244.001 323.998 245.946 320.556 246.403 319.855C246.732 319.338 247.053 318.816 247.366 318.289C247.273 317.478 247.211 316.673 247.164 315.858L247.22 315.983C246.386 313.134 246.17 316.611 244.303 315.409C243.862 316.716 243.745 318.133 243.551 319.495ZM232.891 793.055C235.111 797.007 241.094 795.166 236.708 792.345L235.973 791.808C234.916 792.229 233.933 792.589 232.891 793.055ZM293.996 321.981C295.726 321.726 295.672 321.776 295.944 320.053C294.034 320.302 293.604 320.114 293.996 321.981ZM832.073 815.984C833.28 815.609 834.445 815.317 835.647 814.946C833.619 813.481 831.796 812.424 829.191 813.33L829.265 813.303L829.132 813.389L829.029 813.909C829.087 813.988 831.497 815.506 832.073 815.984Z"/><path fill="#CAC0B1" fill-opacity="0.81960785" d="M190.899 833.165L191.26 832.556C191.495 832.123 192.482 830.929 193.036 830.92C198.318 830.83 194.867 836.674 196.344 836.972C196.846 836.663 196.548 836.687 196.864 836.242C197.535 835.296 201.455 836.108 201.994 835C203.174 832.574 204.679 828.304 206.971 834.424C204.728 836.896 200.406 838.498 206.101 838.42C207.553 838.511 208.532 838.546 209.968 838.79C208.467 839.402 201.523 838.522 197.906 839.346C194.625 837.781 192.79 836.368 190.899 833.165Z"/><path fill="#D1C5BA" fill-opacity="0.98823529" d="M242.307 837.813C242.73 838.306 243.938 839.467 244.134 839.975C243.676 841.422 234.94 841.969 233.115 841.717C233.821 839.995 233.035 840.539 233.075 839.328C233.691 838.992 237.85 839.47 239.221 839.051C240.412 838.687 241.18 838.281 242.307 837.813Z"/><path fill="#D1C5BA" fill-opacity="0.93333334" d="M244.303 315.409C246.17 316.611 246.386 313.134 247.22 315.983L247.164 315.858C247.211 316.673 247.273 317.478 247.366 318.289C247.053 318.816 246.732 319.338 246.403 319.855C245.299 319.783 244.631 319.684 243.551 319.495C243.745 318.133 243.862 316.716 244.303 315.409Z"/><path fill="#CAC0B1" fill-opacity="0.9254902" d="M232.891 793.055C233.933 792.589 234.916 792.229 235.973 791.808L236.708 792.345C241.094 795.166 235.111 797.007 232.891 793.055Z"/><path fill="#CAC0B1" fill-opacity="0.80000001" d="M832.073 815.984C831.497 815.506 829.087 813.988 829.029 813.909L829.132 813.389L829.265 813.303L829.191 813.33C831.796 812.424 833.619 813.481 835.647 814.946C834.445 815.317 833.28 815.609 832.073 815.984Z"/><path fill="#D1C5BA" fill-opacity="0.34117648" d="M207.587 835.908C208.852 836.359 209.553 836.582 210.859 836.888C211.262 837.289 211.626 837.608 212.05 837.986L209.968 838.79C208.532 838.546 207.553 838.511 206.101 838.42C206.277 837.491 207.037 836.787 207.587 835.908Z"/><path fill="#CAC0B1" fill-opacity="0.57647061" d="M206.101 838.42C200.406 838.498 204.728 836.896 206.971 834.424C207.209 834.864 207.408 835.442 207.587 835.908C207.037 836.787 206.277 837.491 206.101 838.42Z"/><path fill="#D1C5BA" fill-opacity="0.98431373" d="M243.551 319.495C244.631 319.684 245.299 319.783 246.403 319.855C245.946 320.556 244.001 323.998 243.31 324.086C242.663 323.407 243.27 321.259 243.404 320.436L243.551 319.495Z"/><path fill="#24292B" d="M267.27 616.978C276.577 661.916 296.372 700.491 335.681 726.098C363.655 744.322 402.007 757.483 434.83 750.36C472.677 742.147 496.487 712.637 485.846 674.063C481.747 659.206 475.012 639.893 465.02 627.991L466.228 627.358C473.841 633.637 481.367 642.087 486.42 650.576C486.994 640.495 487.546 629.919 487.296 619.835L488.25 618.085C498.904 670.658 501.474 708.715 490.473 761.378C503.145 756.443 513.409 755.636 526.253 761.345C530.841 763.358 535.088 766.072 538.842 769.39C525.011 764.021 502.28 764.145 488.562 769.662C485.851 778.329 484.278 782.015 475.923 786.75C430.949 782.788 416.127 848.316 462.736 841.653C459.326 838.043 456.789 835.106 454.869 830.5C447.787 813.512 461.236 794.726 478.09 791.07C480.375 790.575 482.561 790.229 484.867 789.913C485.803 790.474 486.202 790.767 487.087 791.441C471.628 796.61 454.178 810.414 460.488 828.899C462.198 834.066 465.943 838.31 470.856 840.651C478.544 844.283 487.883 843.508 495.781 840.985C491.046 833.411 488.153 826.223 490.417 816.984C492.171 809.634 496.88 803.334 503.433 799.571C509.946 795.773 515.203 795.552 522.457 796.089L522.374 796.752C490.539 803.968 486.225 841.307 518.934 844.564C520.357 844.958 520.314 844.969 521.537 845.739C513.346 846.761 508.036 846.727 500.186 844.302C487.578 847.561 480.183 846.488 467.625 845.245C464.104 844.897 458.039 846.543 453.679 846.153C445.907 845.458 442.778 844.318 437.543 838.651C421.7 840.068 403.055 839.266 386.917 839.653C377.864 839.209 366.73 840.81 357.862 839.642C332.331 836.281 338.394 805.468 354.579 794.647C365.562 787.304 374.256 785.291 386.779 787.218L383.337 789.708C381.693 790.668 380.145 791.783 378.714 793.039C375.68 796.183 372.882 798.328 370.607 802.301C365.799 810.696 363.682 822.231 369.219 830.805C369.558 831.327 370.06 831.451 370.613 831.647L371.654 830.607C367.948 819.248 369.939 806.643 377.707 797.204C378.772 795.909 380.826 794.456 382.122 793.188C383.294 793.577 385.142 792.184 386.194 791.588C394.743 789.151 408.184 792.856 416.127 796.116L417.991 795.396C387.804 778.969 363.045 764.201 337.957 739.682C334.94 749.649 334.153 760.807 330.581 772.332C326.166 756.332 315.069 739.243 305.213 725.809C282.417 694.737 266.029 659.019 266.073 619.548C266.814 618.345 266.866 618.323 267.27 616.978Z"/><path fill="#D1C5BA" d="M371.654 830.607C372.213 831.682 372.912 833.305 373.56 834.222C374.26 835.215 373.429 835.664 372.739 835.149C371.638 834.328 369.381 833.027 370.613 831.647L371.654 830.607Z"/><path fill="#CAC0B1" d="M417.991 795.396C419.482 795.604 423.41 798.022 424.953 798.888C421.788 798.049 419.135 797.435 416.127 796.116L417.991 795.396Z"/><path fill="#24292B" d="M635.178 574.964C635.281 576.227 635.428 577.405 635.587 578.661C635.203 604.232 630.874 623.038 622.135 647.011C620.119 652.54 616.026 660.354 614.608 665.388C608.909 685.613 604.391 706.211 600.51 726.816C601.13 727.61 601.545 728.248 602.095 729.084C603.621 726.231 607.376 721.475 609.372 718.576C613.577 712.448 617.259 705.976 620.378 699.23C637.922 660.791 641.592 621.94 682.471 595.695C703.006 582.511 725.681 579.394 749.279 584.538C747.737 584.827 744.536 584.771 743.617 585.367C713.956 586.599 690.212 595.112 669.744 617.494C650.03 638.895 639.697 667.294 641.051 696.359C642.224 721.024 653.815 746.226 672.2 762.75C677.511 767.536 683.504 771.507 689.982 774.532C706.636 782.498 725.091 785.838 734.512 804.408C712.985 785.908 673.059 781.075 644.999 782.57C622.488 783.769 599.813 798.025 601.247 823.122C601.89 834.383 610.729 841.709 621.918 840.566C623.185 840.445 624.219 840.561 624.995 839.613C620.053 832.725 616.778 825.76 618.114 816.912C619.855 805.382 631.577 792.878 643.446 791.952C646.438 792.077 647.854 791.326 649.953 792.614C639.306 796.967 630.723 802.105 625.803 813.056C620.924 823.914 625.057 836.276 636.476 840.617C642.895 843.075 649.212 842.169 655.67 840.701C645.076 827.758 645.534 811.073 659.206 800.174C665.894 794.843 671.393 794.28 679.6 794.421L679.287 795.929C669.688 798.938 662.776 802.861 657.858 812.049C652.57 821.928 654.454 834.447 665.173 839.611C676.439 845.056 689.711 842.289 701.032 838.757C693.21 843.552 681.169 846.098 672.03 845.971C667.917 845.914 663.526 845.211 659.418 845.377C654.047 845.594 648.692 846.6 643.283 846.37C640.042 846.262 635.355 844.407 632.949 844.444C625.925 844.549 620.855 846.346 613.785 843.955C607.248 841.743 603.814 837.14 600.796 831.256C580.519 835.128 572.392 836.273 551.37 835.5C551.546 834.633 551.441 834.616 551.955 833.999C560.339 823.923 564.714 812.599 569.638 800.645C574.256 789.434 575.393 778.223 578.809 766.783L593.843 715.968C601.478 689.775 607.064 671.846 609.359 644.42C622.379 628.856 631.437 595.026 635.178 574.964Z"/><path fill="#D1C5BA" d="M600.51 726.816C601.13 727.61 601.545 728.248 602.095 729.084C599.097 731.521 600.083 729.474 600.51 726.816Z"/><path fill="#24292B" d="M526.62 228.206C536.219 236.119 546.639 242.979 557.702 248.667C569.961 255.019 593.399 261.692 600.369 272.876C611.916 291.403 586.548 320.799 580.817 338.255C580.316 339.78 580.921 341.132 581.99 342.034C580.108 347.278 584 358.45 576.44 362.415C570.025 365.815 559.911 365.008 553.694 361.465C531.379 348.752 530.717 320.591 524.527 298.704C518.984 279.105 509.066 259.601 491.471 248.447C487.799 246.12 477.068 241.478 479.329 235.632C483.576 228.787 497.365 231.616 503.468 234.862C524.626 245.144 528.92 274.07 533.137 294.937C535.425 309.676 536.152 322.875 544.431 335.793C552.292 348.057 559.125 351.794 571.741 357.87C567.474 351.174 561.331 346.006 556.445 337.298C547.79 322.249 542.826 303.227 540.878 286.003C538.97 269.138 538.339 254.671 530.612 239.056C529.471 236.749 526.997 230.651 526.62 228.206Z"/><path fill="#24292B" d="M237.406 345.195C233.904 349.155 223.45 359.378 217.965 353.777C216.909 352.699 216.077 348.531 216.445 347.092C218.367 339.559 222.405 332.282 221.76 324.272C220.422 304.684 200.82 290.068 214.186 270.298C223.303 256.813 236.311 259.781 248.404 252.485C256.498 247.602 264.224 237.002 271.338 230.493L271.151 230.981C268.456 237.873 264.424 245.211 261.523 252.058C254.287 269.134 245.6 296.914 244.303 315.409C243.862 316.716 243.745 318.133 243.551 319.495L243.404 320.436C243.27 321.259 242.663 323.407 243.31 324.086C244.001 323.998 245.946 320.556 246.403 319.855C246.732 319.338 247.053 318.816 247.366 318.289C251.664 311.75 259.944 296.168 262.086 288.801C267.13 271.46 268.637 251.399 284.899 239.586C292.533 234.041 300.784 235.687 309.338 237.25C288.041 251.947 275.16 267.219 265.781 291.496C263.147 298.313 258.994 310.078 255.61 315.904L255.3 316.425L254.916 317.783L254.26 318.977C249.589 327.584 246.959 331.675 241.794 339.84L240.132 342.006C239.313 343.185 238.349 344.058 237.406 345.195Z"/><path fill="#24292B" d="M827.096 799.529C840.008 799.77 852.136 798.249 863.601 791.853C867.677 789.52 871.374 786.336 875.467 784.073C880.237 781.435 883.27 786.216 882.66 790.478C878.98 816.171 858.085 832.491 834.393 838.654C838.397 835.006 839.737 833.294 842.488 828.648C832.738 826.747 828.953 825.743 824.71 816.295C827.165 816.334 829.62 816.134 832.073 815.984C833.28 815.609 834.445 815.317 835.647 814.946L838.72 813.853C838.301 813.238 833.095 812.558 831.16 811.47C827.618 809.479 827.149 809.141 824.402 806.357C826.547 806.233 831.678 806.297 832.714 804.486C831.692 802.695 828.814 800.951 827.096 799.529Z"/><path fill="#24292B" d="M219.582 843.65C209.351 846.546 197.081 847.788 189.236 839.248C177.047 825.977 180.98 806.698 193.125 795.316C200.01 788.84 209.164 785.33 218.614 785.544C216.674 786.643 215.204 786.882 213.139 787.805C210.889 788.52 206.987 790.676 204.96 791.984C203.575 792.78 202.921 793.257 201.638 794.193L200.177 795.298C198.905 796.272 197.6 797.647 196.535 798.848C188.305 809.124 184.344 820.526 190.899 833.165C192.79 836.368 194.625 837.781 197.906 839.346C201.523 838.522 208.467 839.402 209.968 838.79L212.05 837.986C211.626 837.608 211.262 837.289 210.859 836.888C197.852 819.135 208.265 798.417 227.203 791.475C232.543 789.517 236.943 789.53 242.548 789.845C240.442 790.602 238.137 791.197 235.973 791.808C234.916 792.229 233.933 792.589 232.891 793.055C219.694 799.891 205.404 814.02 213.372 830.906C216.594 837.735 225.744 841.445 233.115 841.717C234.94 841.969 243.676 841.422 244.134 839.975C243.938 839.467 242.73 838.306 242.307 837.813C238.08 830.178 236.285 822.853 239.028 814.359C244.468 797.513 259.086 793.605 274.456 795.298C263.95 798.123 254.736 801.387 248.918 811.588C245.815 817.101 245.038 823.624 246.759 829.712C249.573 839.674 258.733 843.557 268.27 844.054C270.528 844.527 271.87 844.478 274.137 845.071C262.616 847.618 257.739 845.894 247.242 845.757C234.585 845.592 232.511 847.385 219.582 843.65Z"/><path fill="#D1C5BA" d="M212.05 837.986C215.381 842.333 199.688 839.928 197.906 839.346C201.523 838.522 208.467 839.402 209.968 838.79L212.05 837.986Z"/><path fill="#24292B" d="M778.371 829.095C781.618 822.845 786.576 816.446 790.748 810.682C794.584 805.382 798.206 799.581 802.04 794.361C804.849 795.487 807.69 796.048 810.41 797.264C803.246 813.854 795.291 822.248 778.371 829.095Z"/><path fill="#24292B" d="M239.931 765.978C256.862 752.542 277.023 756.008 292.455 769.961C275.352 762.42 256.784 762.731 239.129 768.388L239.931 765.978Z"/><path fill="#F8F3EF" d="M254.916 317.783C255.434 318.184 255.926 318.561 256.455 318.95C254.728 326.077 251.895 337.506 248.019 344.208C247.599 344.934 246.846 342.857 246.811 342.491C246.677 341.104 247.011 339.826 245.867 338.748C245.066 338.005 244.394 338.559 243.693 339.17C243.102 339.597 242.527 339.775 241.794 339.84C246.959 331.675 249.589 327.584 254.26 318.977L254.916 317.783Z"/><path fill="#42403B" d="M518.934 844.564C520.117 844.525 525.849 844.245 526.653 844.838C526.497 845.058 526.444 845.179 526.166 845.446C524.693 845.495 522.962 845.463 521.537 845.739C520.314 844.969 520.357 844.958 518.934 844.564Z"/><path fill="#72706B" d="M268.27 844.054C272.216 843.92 275.015 844.057 278.879 844.202C277.246 844.522 275.788 844.839 274.137 845.071C271.87 844.478 270.528 844.527 268.27 844.054Z"/><path fill="#5A5A5A" d="M749.279 584.538C749.97 584.525 750.935 584.533 751.349 585.186C751.135 585.658 744.389 585.402 743.617 585.367C744.536 584.771 747.737 584.827 749.279 584.538Z"/><path fill="#42403B" d="M643.446 791.952C646.838 791.248 650.034 791.504 653.522 791.501C652.329 791.895 651.206 792.446 649.953 792.614C647.854 791.326 646.438 792.077 643.446 791.952Z"/><path fill="#1B1C1D" d="M265.866 613.123C266.278 613.638 266.687 614.097 267.121 614.593C267.154 615.396 267.214 616.177 267.27 616.978C266.866 618.323 266.814 618.345 266.073 619.548C265.988 617.374 265.998 615.299 265.866 613.123Z"/><path fill="#1B1C1D" d="M484.867 789.913C486.452 789.942 487.87 789.972 489.461 790.089L489.007 791.075C488.28 791.181 487.797 791.227 487.087 791.441C486.202 790.767 485.803 790.474 484.867 789.913Z"/><path fill="#5A5A5A" d="M487.296 619.835C486.884 616.85 487.283 612.852 488.25 618.085L487.296 619.835Z"/><path fill="#1B1C1D" d="M679.6 794.421C680.412 794.492 681.166 794.605 681.974 794.716C682.133 794.897 682.013 794.789 682.402 795.038C681.199 795.449 680.53 795.649 679.287 795.929L679.6 794.421Z"/><path fill="#1B1C1D" d="M465.02 627.991C464.664 627.523 463.088 625.641 463.362 624.966C463.975 624.89 465.78 626.925 466.228 627.358L465.02 627.991Z"/><path fill="#D1C5BA" d="M255.3 316.425C257.387 316.986 256.816 316.346 256.455 318.95C255.926 318.561 255.434 318.184 254.916 317.783L255.3 316.425Z"/><path fill="#72706B" d="M635.178 574.964C635.202 574.756 635.226 574.549 635.25 574.342L635.284 574.344L635.409 574.133C636.408 574.219 635.674 578.078 635.587 578.661C635.428 577.405 635.281 576.227 635.178 574.964Z"/><path fill="#72706B" d="M265.866 613.123C265.924 612.698 265.923 612.134 266.188 611.769L266.276 611.728C266.828 611.934 267.041 614.142 267.121 614.593C266.687 614.097 266.278 613.638 265.866 613.123Z"/><path fill="#72706B" d="M681.974 794.716C681.746 794.711 682.948 794.672 683.13 794.786C682.928 794.858 682.726 794.93 682.523 795.002C682.483 795.014 682.443 795.026 682.402 795.038C682.013 794.789 682.133 794.897 681.974 794.716Z"/><path fill="#5A5A5A" d="M489.461 790.089C490.281 790.108 490.488 790.051 491.208 790.272C491.142 790.581 489.295 790.998 489.007 791.075L489.461 790.089Z"/><path fill="#72706B" d="M522.457 796.089L523.091 796.151C523.356 796.173 523.621 796.198 523.752 796.455C523.657 796.906 522.565 796.755 522.374 796.752L522.457 796.089Z"/><path fill="#24292B" d="M346.148 357.485C325.907 363.382 339.09 328.655 351.541 325.108C365.334 321.178 377.789 322.458 392.013 323.083C402.478 323.572 411.001 333.158 411.82 343.002C413.304 352.528 411.376 362.831 398.864 359.733C398.067 362.521 399.292 368.782 399.246 371.998C398.959 392.227 398.63 414.21 394.144 433.967C414.076 465.185 444.91 501.661 484.392 475.271C494.221 468.702 517.505 445.124 519.721 433.758C520.175 431.376 519.65 428.911 518.265 426.92C513.598 420.22 503.644 421.82 497.133 420.194C482.649 416.577 474.062 396.946 470.154 384.743C477.258 395.489 484.217 406.266 498.187 409.161C506.112 410.803 514.977 407.843 522.952 410.838C538.007 414.955 539.578 431.973 531.703 443.418C528.922 447.459 525.409 451.526 522.851 455.807C508.29 480.177 501.565 511.8 473.498 524.944C469.742 526.703 465.246 528.466 461.229 529.504C448.114 532.896 432.508 533.958 429.541 550.465C428.236 557.243 427.523 561.625 425.483 568.35C438.485 565.769 441.079 563.287 451.457 555.097C454.835 554.914 458.157 554.731 461.511 554.251C496.635 549.225 512.281 516.331 523.296 486.429C565.873 467.225 575.893 423.127 565.131 380.305C563.738 374.763 560.465 368.882 558.558 363.348C602.804 424.549 557.002 510.869 502.15 548.241C482.875 561.374 462.542 571.595 440.005 577.935C432.857 580.01 425.632 581.429 418.653 583.391C412.866 594.792 407.949 602.152 397.222 609.809C379.8 622.245 352.607 624.661 333.398 615.297C315.447 606.547 308.375 585.45 307.314 566.646C288.509 551.248 269.972 535.14 261.285 511.847C259.095 505.977 257.588 496.69 255.94 492.545L256.243 491.585C260.276 494.512 263.22 496.305 267.733 498.311C269.963 524.039 281.846 541.017 306.918 548.336C306.994 542.336 307.781 535.117 308.686 529.209C308.244 529.116 307.802 529.019 307.361 528.917C293.211 525.63 284.507 516.897 278.446 503.918C277.095 501.024 274.627 492.93 272.901 490.661C261.098 475.376 251.814 459.044 241.848 442.583C234.964 431.212 234.97 418.819 247.318 411.267C254.874 410.864 260.525 411.605 268.533 410.331C278.975 399.991 282.788 388.29 289.363 376.175C285.378 390.76 277.345 417.227 265.101 426.343C249.273 419.84 242.673 424.689 250.206 441.025C253.331 447.803 256.974 453.421 260.999 459.399C294.289 508.846 317.718 462.067 335.25 430.97C337.292 427.352 343.75 419.318 346.632 415.593C343.839 391.551 345.084 381.381 346.148 357.485Z"/><path fill="#5A5A5A" d="M371.451 372.535C382.087 372.777 400.529 372.135 391.148 355.695C387.518 349.333 389.665 348.736 390.313 343.35C389.06 342.226 389.107 342.331 387.454 341.896C381.059 343.954 383.748 357.679 381.601 360.817L380.143 360.699C375.725 357.637 379.221 346.705 381.156 342.718C382.831 339.267 390.061 335.067 393.671 337.298C397.069 341.707 393.043 348.046 393.042 352.995C393.042 355.397 397.001 358.237 398.864 359.733C398.067 362.521 399.292 368.782 399.246 371.998C398.959 392.227 398.63 414.21 394.144 433.967C386.555 423.387 381.016 415.437 370.516 407.485C370.233 396.227 370.989 383.868 371.451 372.535Z"/><path fill="#5A5A5A" d="M346.148 357.485C348.456 356.133 349.957 355.348 351.072 352.931C351.446 348.25 342.616 344.076 349.286 338.451C351.476 336.569 354.372 335.723 357.231 336.129C366.561 337.543 367.055 354.327 363.339 359.109C361.219 359.397 362.125 359.627 360.464 358.734C357.738 353.541 364.716 339.902 354.237 340.729C352.641 342.826 355.039 346.875 355.587 349.639L355.405 350.278C354.652 352.839 354.213 354.117 352.546 356.246C350.508 358.849 346.731 359.034 346.875 362.301C352.543 370.773 355.512 371.179 365.433 371.755C364.344 381.881 364.484 394.249 364.45 404.558C356.009 408.033 353.085 409.057 346.632 415.593C343.839 391.551 345.084 381.381 346.148 357.485Z"/><path fill="#CAC0B1" d="M366.44 445.177C372.284 444.746 376.729 445.653 382.199 447.437C379.475 451.135 373.243 459.409 371.291 463.427C359.272 488.169 356.49 519.821 359.043 547.008C359.451 551.35 360.26 558.657 361.456 562.47C361.563 525.326 364.338 479.358 391.516 451.157C403.443 462.832 409.681 471.613 423.217 482.84C414.895 498.218 413.65 504.141 413.012 521.611C412.59 545.626 418.222 573.69 402.696 594.392C387.092 615.196 352.205 619.701 331.549 604.089C321.813 596.73 315.242 583.619 314.428 571.269C311.995 534.351 318.469 490.766 340.532 460.267C347.042 451.673 356.037 446.354 366.44 445.177Z"/><path fill="#5A5A5A" d="M508.678 465.498C508.83 466.834 507.227 470.175 506.511 471.499C496.168 490.662 483.213 513.239 460.03 517.901C448.589 520.202 437.482 516.266 427.097 512.918C425.199 506.497 429.427 495.496 432.523 489.822C440.796 493.723 447.596 495.96 456.875 495.566C476.367 494.738 496.072 479.194 508.678 465.498Z"/><path fill="#24292B" d="M383.27 297.085C383.294 296.702 383.324 296.319 383.361 295.936C384.107 287.408 388.293 279.551 394.954 274.173C402.567 268.126 412.274 265.358 421.931 266.479C428.607 267.264 435.083 269.884 439.317 275.276L438.976 276.11C435.87 274.58 433.738 273.582 430.376 272.779C416.925 269.527 402.006 274.642 395.565 287.507C391.378 295.872 393.415 306.785 402.639 310.712C409.648 313.697 422.024 312.555 425.005 304.188C426.732 299.344 424.944 295.118 423.047 290.662C426.052 294.03 432.321 301.326 436.452 300.566C452.184 297.672 454.629 299.91 465.991 310.546C474.428 318.443 490.789 322.035 502.895 320.751C501.966 337.118 500.436 344.956 510.191 358.354C500.562 354.596 495.523 349.364 492.615 339.37C484.867 344.934 480.011 347.737 469.904 346.565C478.529 358.759 484.273 372.708 495.555 381.9C498.828 384.567 501.193 385.185 504.483 387.326C482.413 388.768 476.88 376.632 466.483 360.218C453.369 339.517 435.485 326.621 411.431 321.497C414.358 326.145 415.615 328.388 417.351 333.607C410.233 322.408 402.241 316.051 389.12 313.439C367.271 309.089 344.329 313.506 332.294 333.434L331.284 332.37C332.826 328.312 334.092 324.929 336.02 321.014C315.988 323.718 302.84 331.39 290.218 347.308C280.539 359.516 279.184 384.109 259.567 385.53C258.571 385.754 251.32 386.647 251.314 385.468C252.38 384.881 252.679 384.97 254.002 384.837C271.588 379.66 276.494 359.276 283.06 344.033C276.721 342.443 274.024 340.915 269.175 336.88L267.546 346.042C264.245 337.973 264.765 331.722 265.804 323.322C267.929 322.446 268.756 322.015 270.983 321.635C271.481 322.195 271.53 322.169 271.828 322.866C275.247 330.877 283.307 334.746 291.787 334.188C294.805 333.989 296.133 333.461 298.911 332.342C288.273 328.987 282.343 330.142 277.709 318.679C283.907 313.991 289.663 309.843 297.057 307.163C302.724 305.109 309.546 303.675 314.77 300.697C320.141 297.636 324.783 290.943 330 287.379C330.181 287.25 330.362 287.121 330.543 286.992C329.613 288.313 328.705 289.649 327.819 290.999C322.989 298.367 320.23 306.628 329.212 312.237C343.912 321.416 367.86 303.462 363.071 287.029C360.025 276.578 344.612 270.743 334.619 272.435C329.39 273.321 325.427 274.699 320.46 276.412L320.253 276.084C322.74 274.137 324.593 272.429 327.395 270.895C341.449 263.198 360.44 266.061 368.23 281.18C369.043 278.163 372.57 269.137 375.447 268.233C379.267 273.299 367.288 286.176 383.27 297.085ZM295.944 320.053C294.034 320.302 293.604 320.114 293.996 321.981C295.726 321.726 295.672 321.776 295.944 320.053Z"/><path fill="#42403B" d="M259.567 385.53C258.571 385.754 251.32 386.647 251.314 385.468C252.38 384.881 252.679 384.97 254.002 384.837C255.962 386.162 257.126 385.461 259.567 385.53Z"/><path fill="#CAC0B1" d="M485.307 321.649C486.174 321.748 490.402 321.753 490.424 322.746C490.578 329.773 482.806 335.376 476.995 336.342C465.387 338.271 457.028 333.834 447.963 328.171L447.559 327.922C446.667 327.275 441.357 323.952 441.381 323.263C443.894 319.7 455.696 326.101 458.321 327.453C464.317 330.542 471.029 331.723 477.491 329.247C482.73 327.24 483.143 326.321 485.307 321.649Z"/><path fill="#F8F3EF" d="M292.697 322.644C291.88 321.149 292.326 319.278 293.731 318.314C295.135 317.349 297.042 317.604 298.143 318.904C298.962 319.871 299.16 321.218 298.653 322.379C298.146 323.54 297.023 324.311 295.758 324.367C294.492 324.424 293.305 323.755 292.697 322.644ZM295.944 320.053C294.034 320.302 293.604 320.114 293.996 321.981C295.726 321.726 295.672 321.776 295.944 320.053Z"/><path fill="#F8F3EF" fill-opacity="0.094117649" d="M293.996 321.981C293.604 320.114 294.034 320.302 295.944 320.053C295.672 321.776 295.726 321.726 293.996 321.981Z"/><path fill="#24292B" d="M417.176 237.689C430.584 236.431 442.037 242.198 449.794 252.928C433.347 242.081 419.547 242.98 401.67 249.988C391.95 253.799 385.974 256.961 379.629 265.413C375.058 260.1 371.032 256.166 365.479 251.919C353.596 243.463 340.169 243.282 326.866 247.994C338.089 238.204 350.262 234.731 364.348 242.392C369.734 245.32 376 252.48 382.481 251.831C388.319 251.246 394.53 244.939 400.311 242.329C406.992 239.314 409.993 238.471 417.176 237.689Z"/><path fill="#24292B" d="M514.655 384.917C514.034 384.934 513.324 385.026 513.123 384.29L513.179 384.214C514.362 383.674 520.043 384.183 521.549 384.445C529.618 384.857 536.439 388.982 541.769 394.862C553.236 407.51 555.196 427.028 550.566 442.981L549.798 439.924C551.788 418.097 536 391.412 514.655 384.917Z"/><path fill="#5A5A5A" d="M514.655 384.917C514.034 384.934 513.324 385.026 513.123 384.29L513.179 384.214C514.362 383.674 520.043 384.183 521.549 384.445C518.417 384.557 517.701 384.317 514.655 384.917Z"/><path fill="#24292B" d="M417.079 333.725C438.088 345.235 452.209 365.186 459.348 387.745C457.286 386.087 454.67 380.537 452.691 377.877C441.95 363.448 434.789 355.9 419.649 346.515C418.911 341.712 418.427 338.439 417.079 333.725Z"/><path fill="#24292B" d="M370.191 226.942C387.496 226.554 404.186 222.593 421.042 221.834L421.263 222.766C404.003 226.317 395.989 232.225 383.052 243.421C380.761 236.345 377.629 229.215 369.092 228.316C369.472 227.854 369.837 227.424 370.191 226.942Z"/><path fill="#24292B" d="M329.536 337.192L330.16 338.12C329.094 341.714 328.352 345.304 327.802 349.011C313.4 355.074 301.949 364.701 292.586 377.126L291.707 376.762C298.831 362.271 307.851 350.407 321.592 341.775C323.56 340.539 327.456 337.906 329.536 337.192Z"/><path fill="#24292B" d="M247.303 387.033C245.002 389.016 242.33 390.766 240.192 392.822C232.034 400.668 224.493 415.196 224.625 426.701L223.577 426.511C223.362 423.593 222.979 421.246 223.097 418.25C223.633 404.639 230.87 391.633 244.896 387.746C245.7 387.515 246.502 387.277 247.303 387.033Z"/><path fill="#24292B" d="M443.265 274.788C457.82 272.15 465.67 276.483 473.492 288.68C466.27 283.051 455.915 278.285 447.005 276.343L445.234 275.94C444.575 275.56 443.919 275.176 443.265 274.788Z"/><path fill="#24292B" d="M295.518 289.058C301.323 280.301 308.732 272.907 320.253 276.084L320.46 276.412C311.352 280.979 304.561 284.07 295.518 289.058Z"/><path fill="#24292B" d="M315.675 410.793C318.338 410.287 320.917 411.999 321.485 414.649C322.053 417.3 320.402 419.919 317.765 420.548C316.004 420.969 314.154 420.403 312.93 419.069C311.705 417.735 311.3 415.843 311.87 414.124C312.44 412.406 313.896 411.131 315.675 410.793Z"/><path fill="#24292B" d="M437.741 391.231C440.242 390.76 442.663 392.367 443.201 394.854C443.739 397.341 442.198 399.804 439.726 400.408C438.067 400.813 436.319 400.287 435.16 399.032C434.002 397.777 433.616 395.992 434.153 394.371C434.689 392.75 436.063 391.548 437.741 391.231Z"/><path fill="#24292B" d="M421.125 377.819C422.632 377.087 424.419 377.242 425.778 378.221C427.137 379.199 427.849 380.845 427.633 382.506C427.416 384.167 426.306 385.575 424.742 386.173C422.463 387.044 419.903 385.965 418.934 383.727C417.965 381.489 418.931 378.884 421.125 377.819Z"/><path fill="#24292B" d="M304.555 393.657C306.799 393.692 308.615 395.494 308.668 397.738C308.72 399.982 306.991 401.867 304.75 402.008C303.221 402.103 301.762 401.355 300.948 400.057C300.134 398.758 300.096 397.119 300.848 395.784C301.6 394.449 303.023 393.633 304.555 393.657Z"/><path fill="#24292B" d="M318.653 378.222C320.85 377.977 322.856 379.492 323.221 381.673C323.586 383.854 322.182 385.939 320.024 386.422C318.52 386.758 316.953 386.236 315.952 385.065C314.95 383.894 314.677 382.265 315.243 380.831C315.809 379.397 317.121 378.394 318.653 378.222Z"/><path fill="#24292B" d="M437.991 414.841C440.166 414.352 442.325 415.72 442.811 417.896C443.298 420.071 441.927 422.229 439.751 422.712C437.579 423.195 435.426 421.827 434.941 419.655C434.455 417.484 435.82 415.33 437.991 414.841Z"/><path fill="#1B1C1D" d="M302.271 425.784C304.321 425.212 306.458 426.359 307.115 428.383C307.772 430.408 306.716 432.59 304.721 433.332C303.354 433.84 301.818 433.558 300.721 432.597C299.623 431.636 299.141 430.151 299.465 428.728C299.788 427.306 300.866 426.175 302.271 425.784Z"/><path fill="#24292B" d="M454.491 420.157C455.848 419.751 457.317 420.105 458.339 421.085C459.361 422.065 459.777 423.519 459.428 424.891C459.079 426.263 458.019 427.341 456.653 427.713C454.577 428.279 452.433 427.07 451.841 425.002C451.25 422.934 452.431 420.775 454.491 420.157Z"/><path fill="#24292B" d="M288.825 437.304C290.854 436.808 292.907 438.027 293.442 440.046C293.976 442.065 292.796 444.141 290.787 444.713C289.453 445.093 288.019 444.724 287.035 443.746C286.051 442.769 285.672 441.337 286.043 440.001C286.415 438.665 287.478 437.634 288.825 437.304Z"/><path fill="#1B1C1D" d="M328.773 371.917C330.559 371.038 332.72 371.735 333.656 373.492C334.591 375.25 333.962 377.432 332.235 378.423C331.069 379.092 329.63 379.072 328.482 378.372C327.334 377.672 326.658 376.402 326.718 375.059C326.779 373.715 327.566 372.511 328.773 371.917Z"/><path fill="#24292B" d="M422.125 410.165C423.342 409.773 424.676 410.091 425.585 410.99C426.494 411.889 426.827 413.219 426.448 414.44C426.07 415.661 425.043 416.57 423.785 416.798C422.01 417.119 420.29 416.008 419.852 414.258C419.414 412.508 420.408 410.718 422.125 410.165Z"/><path fill="#24292B" d="M292.503 404.315C293.603 403.891 294.846 404.095 295.754 404.847C296.661 405.6 297.091 406.784 296.878 407.943C296.664 409.103 295.842 410.056 294.726 410.437C293.047 411.009 291.219 410.133 290.613 408.466C290.008 406.798 290.848 404.953 292.503 404.315Z"/><path fill="#1B1C1D" d="M439.711 439.815C440.387 439.264 441.309 439.121 442.12 439.44C442.932 439.76 443.508 440.493 443.628 441.357C443.747 442.221 443.391 443.083 442.696 443.61C441.646 444.407 440.152 444.215 439.337 443.18C438.523 442.144 438.689 440.646 439.711 439.815Z"/><path fill="#1B1C1D" d="M415.985 394.052C417.139 393.534 418.498 393.997 419.096 395.112C419.693 396.228 419.325 397.616 418.254 398.289C417.492 398.768 416.526 398.782 415.75 398.325C414.974 397.868 414.518 397.016 414.567 396.117C414.617 395.218 415.164 394.422 415.985 394.052Z"/><path fill="#1B1C1D" d="M456.245 445.309C457.311 444.569 458.772 444.814 459.54 445.86C460.307 446.906 460.101 448.374 459.076 449.168C458.388 449.702 457.464 449.819 456.665 449.476C455.865 449.133 455.314 448.382 455.227 447.516C455.14 446.65 455.529 445.805 456.245 445.309Z"/><path fill="#1B1C1D" d="M426.162 434.392C427.369 434.262 428.459 435.119 428.616 436.323C428.773 437.526 427.94 438.635 426.74 438.819C425.94 438.942 425.136 438.622 424.639 437.983C424.142 437.343 424.03 436.485 424.346 435.74C424.662 434.995 425.357 434.479 426.162 434.392Z"/><path fill="#72706B" d="M439.317 275.276C440.25 275.315 442.173 274.907 443.265 274.788C443.919 275.176 444.575 275.56 445.234 275.94C443.04 275.863 441.162 276.023 438.976 276.11L439.317 275.276Z"/><path fill="#42403B" d="M331.284 332.37L332.294 333.434C331.481 334.948 330.768 336.513 330.16 338.12L329.536 337.192C330.161 335.593 330.847 334.035 331.284 332.37Z"/><path fill="#42403B" d="M421.042 221.834C422.199 221.393 424.551 221.323 425.63 221.697L425.657 221.765C425.126 222.39 422.106 222.639 421.263 222.766L421.042 221.834Z"/><path fill="#72706B" d="M255.94 492.545L255.599 492.32C255.062 491.97 253.392 490.948 253.654 490.118C254.359 489.49 255.859 491.106 256.243 491.585L255.94 492.545Z"/><path fill="#42403B" d="M549.798 439.924L550.566 442.981C550.536 443.052 550.506 443.123 550.476 443.195L550.25 443.708C550.132 443.981 549.944 444.567 549.681 444.707C549.145 444.134 549.713 440.68 549.798 439.924Z"/><path fill="#5A5A5A" d="M369.092 228.316C366.009 227.154 368.629 227.07 370.191 226.942C369.837 227.424 369.472 227.854 369.092 228.316Z"/><path fill="#1B1C1D" d="M291.707 376.762L292.586 377.126C292.417 377.341 291.201 379.201 290.756 379.062C290.463 378.46 291.43 377.208 291.707 376.762Z"/><path fill="#72706B" d="M223.577 426.511L224.625 426.701C224.568 427.213 224.667 428.663 224.01 428.614C223.497 427.988 223.571 427.283 223.577 426.511Z"/><path fill="#24292B" d="M274.788 176.649C289.552 176.113 299.11 189.308 301.935 202.501C302.272 204.015 302.583 205.535 302.866 207.059C300.684 205.371 298.867 204.073 296.604 202.516C284.541 196.046 277.401 201.87 269.249 197.512C259.322 192.204 262.936 179.43 274.788 176.649Z"/><path fill="#24292B" d="M628.39 312.685C653.357 310.427 667.19 337.158 645.1 342.137C634.34 340.402 635.617 333.934 628.836 326.15C623.076 319.538 623.233 320.444 616.701 316.231L616.339 315.994C621.487 313.817 622.874 313.549 628.39 312.685Z"/><path fill="#24292B" d="M193.787 367.204C197.233 366.861 198.083 367.247 201.168 367.569L201.732 367.624C195.067 373.679 191.087 377.592 188.82 386.76C187.405 392.48 186.054 397.375 179.504 398.503L177.271 398.872C165.927 395.809 166.581 384.732 173.071 376.792C178.299 370.396 185.856 368.249 193.787 367.204Z"/><path fill="#CAC0B1" fill-opacity="0.8392157" d="M213.139 787.805C215.782 788.967 218.383 788.988 221.241 789.188C219.572 789.443 217.564 790.361 215.861 789.713C212.88 789.163 213.962 788.486 211.314 789.796C206.773 792.043 211.24 793.186 210.601 794.205C208.286 797.893 211.863 799.547 206.889 803.168C205.942 803.858 206.212 804.61 204.513 804.519C202.311 804.234 200.362 808.142 199.723 808.418C197.999 808.064 199.842 803.616 202.245 803.984C203.708 804.373 208.625 799.924 208.455 798.75C208.042 795.886 206.668 796.273 204.676 797.807C201.452 800.29 198.463 803.046 196.535 798.848C197.6 797.647 198.905 796.272 200.177 795.298L201.638 794.193C202.48 794.631 208.584 797.37 207.459 793.944C207.236 793.287 206.739 792.758 206.097 792.495C205.718 792.325 205.339 792.155 204.96 791.984C206.987 790.676 210.889 788.52 213.139 787.805Z"/><path fill="#F8F3EF" fill-opacity="0.11764706" d="M240.132 342.006L240.825 341.755C244.79 340.02 244.721 342.449 246.642 346.239C245.376 349.103 243.231 353.635 241.421 356.147C230.733 357.253 243.619 349.492 237.406 345.195C238.349 344.058 239.313 343.185 240.132 342.006Z"/><path fill="#D1C5BA" fill-opacity="0.98431373" d="M218.614 785.544C220.632 785.566 228.321 786.139 230.106 786.442C229.016 786.588 221.559 786.962 221.183 787.125L221.155 787.203C221.858 788.411 222.436 787.572 221.241 789.188C218.383 788.988 215.782 788.967 213.139 787.805C215.204 786.882 216.674 786.643 218.614 785.544Z"/><path fill="#CAC0B1" fill-opacity="0.61960787" d="M201.638 794.193C202.921 793.257 203.575 792.78 204.96 791.984C205.339 792.155 205.718 792.325 206.097 792.495C206.739 792.758 207.236 793.287 207.459 793.944C208.584 797.37 202.48 794.631 201.638 794.193Z"/><path fill="#F8F3EF" fill-opacity="0.96862745" d="M383.337 789.708C384.596 790.708 384.759 790.892 386.194 791.588C385.142 792.184 383.294 793.577 382.122 793.188C380.987 793.12 379.851 793.07 378.714 793.039C380.145 791.783 381.693 790.668 383.337 789.708Z"/></svg>