<?xml version="1.0" encoding="utf-8" ?><svg xmlns="http://www.w3.org/2000/svg" xmlns:xlink="http://www.w3.org/1999/xlink" width="1024" height="1024" viewBox="0 0 1024 1024"><path fill="#FEB212" d="M614.111 162.706C641.821 150.073 661.95 144.912 693.056 146.928C699.512 147.346 726.281 153.31 729.632 157.316C730.983 156.163 731.201 155.844 732.952 155.361C743.603 150.848 753.545 148.562 764.611 152.924C783.278 160.282 782.844 178.623 796.526 191.009C799.278 193.5 803.373 195.319 806.819 196.662C817.794 200.94 827.85 205.474 832.631 217.116C836.167 225.725 834.792 234.967 831.029 243.249C829.795 245.964 827.959 248.954 826.857 251.578C830.713 254.606 832.599 256.835 834.439 261.464C843.935 271.396 845.091 278.755 845.462 292.573C845.669 300.274 843.364 305.416 842.29 312.101C841.063 316.121 838.678 322.073 836.325 325.524C831.834 335.992 823.911 341.188 812.595 340.948C811.216 348.536 808.592 355.61 805.677 362.73C797.445 382.462 775.498 385.507 756.841 385.629C758.054 391.592 761.36 400.58 763.507 406.454C782.451 462.94 785.633 516.737 762.982 572.458C760.551 578.438 758.538 585.199 755.712 590.954C753.588 600.176 753.122 612.971 750.136 620.92C748.741 643.556 744.347 666.752 740.875 689.254L727.179 780.008C725.072 793.491 721.852 810.013 720.603 823.273C740.441 824.165 751.601 824.445 767.05 839.961C774.918 847.863 780.891 864.288 780.468 875.126C786.61 875.074 818.151 873.103 819.534 878.013C817.912 880.949 816.123 880.464 813.059 880.465L435.641 880.425L291.29 880.457C266.271 880.482 241.176 880.33 216.167 880.608C213.626 880.636 212.305 880.698 210.609 878.968C210.541 876.917 210.347 877.907 211.477 875.957C214.952 874.362 226.676 875.068 231.102 875.055L267.109 875.013C285.039 875.029 308.76 874.421 326.366 875.522C313.643 867.239 313.431 859.344 313.53 845.668C310.387 842.768 297.667 829.119 295.961 827.952C295.329 825.642 289.37 819.026 287.856 816.441C282.92 808.011 263.838 769.047 268.34 761.267L269.276 760.782C268.266 757.604 267.907 747.32 267.846 743.764C267.388 717 271.832 692.696 282.228 667.954C307.339 608.228 343.661 553.866 389.231 507.81C409.643 487.12 430.118 472.003 451.862 453.52C495.486 416.436 531.645 371.509 546.123 315.113C539.302 307.616 532.985 299.877 525.973 292.262C517.278 282.819 506.713 272.869 499.67 262.354C496.882 258.192 494.777 251.254 494.636 246.342C493.769 216.038 523.056 210.494 542.287 196.121C548.921 191.162 554.582 180.16 560.795 173.756C568.956 165.344 577.556 159.562 589.674 159.129C595.431 158.923 605.813 160.822 609.975 164.763C611.538 163.731 612.284 162.974 614.111 162.706ZM633.592 737.88C631.792 739.392 629.81 740.988 628.072 742.543C627.798 745.977 627.112 749.289 626.732 752.683C624.223 775.097 619.541 799.642 618.433 821.998C625.273 822.399 633.895 823.302 640.34 825.768C645.605 827.085 651.365 829.624 655.767 832.779L659.318 835.164C659.056 832.788 659.333 829.694 659.205 827.142C658.863 820.358 658.614 813.588 658.437 806.796C658.054 788.064 657.528 769.334 656.856 750.61C656.518 740.379 656.971 728.462 656.219 718.559C653.564 720.721 650.982 722.808 648.424 725.086C646.097 727.646 636.445 735.742 633.592 737.88ZM712.508 675.978C712.687 676.088 712.567 676.032 712.9 676.13C712.591 675.979 712.718 676.019 712.508 675.978ZM810.283 338.42C810.361 338.653 810.293 338.577 810.439 338.683C810.562 338.662 810.684 338.641 810.806 338.621C810.621 338.343 810.702 338.414 810.569 338.333C810.474 338.362 810.378 338.391 810.283 338.42ZM559.012 832.274L558.981 831.414C557.201 827.286 556.393 817.375 555.897 812.555C550.552 816.743 538.896 823.752 534.704 827.588L534.259 827.988C537.415 828.517 541.071 829.044 544.256 829.44C548.679 829.988 554.876 832.167 559.012 832.274ZM640.045 838.692C638.336 837.48 636.937 835.785 635.437 837.514L635.479 838.264C635.557 841.215 638.73 839.583 640.045 838.692ZM610.062 842.023L610.015 842.771C609.786 845.214 613.125 843.446 614.268 843.066C612.483 842.104 611.931 841.42 610.062 842.023Z"/><path fill="#261D1B" fill-opacity="0.68627453" d="M635.437 837.514C636.937 835.785 638.336 837.48 640.045 838.692C638.73 839.583 635.557 841.215 635.479 838.264L635.437 837.514Z"/><path fill="#261D1B" fill-opacity="0.76078433" d="M610.062 842.023C611.931 841.42 612.483 842.104 614.268 843.066C613.125 843.446 609.786 845.214 610.015 842.771L610.062 842.023Z"/><path fill="#FEB212" d="M656.856 750.61C662.796 745.259 668.792 738.41 674.289 732.574C700.628 704.613 723.168 673.513 740.553 639.221C743.496 633.416 746.498 626.954 749.849 621.389L750.136 620.92C748.741 643.556 744.347 666.752 740.875 689.254L727.179 780.008C725.072 793.491 721.852 810.013 720.603 823.273C740.441 824.165 751.601 824.445 767.05 839.961C774.918 847.863 780.891 864.288 780.468 875.126L763.959 875.142C763.94 863.446 760.603 852.04 752.5 843.37C750.284 840.999 746.438 836.973 743.146 836.865C741.708 837.899 742.254 837.219 741.715 839.16C742.143 840.724 751.151 847.283 752.913 849.966C758.431 858.368 759.497 865.553 759.526 875.114L738.227 875.042C737.857 863.813 734.011 852.431 724.337 845.802C722.201 844.338 718.611 842.065 716.02 842.535C714.832 843.616 715.257 842.947 714.964 844.752C715.838 846.39 721.795 848.591 724.732 851.6C731.812 858.853 733.483 865.519 733.939 875.088C716.303 875.792 695.232 875.14 677.177 875.34C676.855 859.202 670.791 846.334 659.318 835.164C659.056 832.788 659.333 829.694 659.205 827.142C658.863 820.358 658.614 813.588 658.437 806.796C658.054 788.064 657.528 769.334 656.856 750.61Z"/><path fill="#2D1F1B" d="M554.627 802.747L538.045 649.751C537.383 643.062 534.013 621.638 534.867 616.629C536.214 615.619 535.494 615.817 537.047 615.85C538.709 617.653 539.098 620.681 539.376 623.106C541.498 641.585 543.381 660.132 545.454 678.617C549.824 715.002 553.873 751.425 557.602 787.881C558.679 798.187 559.825 808.485 561.042 818.775C561.31 820.941 562.869 828.514 562.171 829.955C560.925 830.618 560.264 830.894 558.981 831.414C557.201 827.286 556.393 817.375 555.897 812.555C550.552 816.743 538.896 823.752 534.704 827.588L534.259 827.988C537.415 828.517 541.071 829.044 544.256 829.44C548.679 829.988 554.876 832.167 559.012 832.274C559.847 834.148 559.866 837.019 560.132 839.199C561.835 853.145 559.533 873.225 578.55 875.2C583.944 875.761 590.173 875.456 595.706 875.448L627.658 875.328C627.408 864.905 625.347 858.841 617.871 851.124C614.677 847.827 610.039 846.608 608.52 844.25C608.81 842.589 608.47 843.387 610.062 842.023L610.015 842.771C609.786 845.214 613.125 843.446 614.268 843.066C626.706 850.173 631.212 861.325 632.071 874.956C638.387 875.237 646.075 875.026 652.497 875.006C652.825 863.135 650.053 852.315 640.728 844.19C639.171 842.833 637.169 841.918 635.424 840.572C634.694 838.706 634.8 839.685 635.437 837.514L635.479 838.264C635.557 841.215 638.73 839.583 640.045 838.692C641.943 839.999 643.725 841.466 645.371 843.078C654.497 851.969 656.741 863.148 656.955 875.259L673.02 875.286C673.3 855.694 665.139 842.181 649.484 830.898C651.89 831.429 654.41 833.586 655.767 832.779L659.318 835.164C670.791 846.334 676.855 859.202 677.177 875.34C695.232 875.14 716.303 875.792 733.939 875.088C733.483 865.519 731.812 858.853 724.732 851.6C721.795 848.591 715.838 846.39 714.964 844.752C715.257 842.947 714.832 843.616 716.02 842.535C718.611 842.065 722.201 844.338 724.337 845.802C734.011 852.431 737.857 863.813 738.227 875.042L759.526 875.114C759.497 865.553 758.431 858.368 752.913 849.966C751.151 847.283 742.143 840.724 741.715 839.16C742.254 837.219 741.708 837.899 743.146 836.865C746.438 836.973 750.284 840.999 752.5 843.37C760.603 852.04 763.94 863.446 763.959 875.142L780.468 875.126C786.61 875.074 818.151 873.103 819.534 878.013C817.912 880.949 816.123 880.464 813.059 880.465L435.641 880.425L291.29 880.457C266.271 880.482 241.176 880.33 216.167 880.608C213.626 880.636 212.305 880.698 210.609 878.968C210.541 876.917 210.347 877.907 211.477 875.957C214.952 874.362 226.676 875.068 231.102 875.055L267.109 875.013C285.039 875.029 308.76 874.421 326.366 875.522C313.643 867.239 313.431 859.344 313.53 845.668C310.387 842.768 297.667 829.119 295.961 827.952C295.329 825.642 289.37 819.026 287.856 816.441C282.92 808.011 263.838 769.047 268.34 761.267L269.276 760.782C272.184 763.847 274.405 775.154 275.998 779.745C283.505 801.379 296.815 824.672 313.619 840.508C314.912 836.359 318.153 824.535 321.531 822.303C323.103 822.531 322.424 822.185 323.522 823.579C324.302 827.375 320.389 833.14 319.425 837.075C316.555 848.78 316.368 864.624 327.818 871.895C334.875 876.376 344.565 875.152 352.754 875.13L380.911 875.077L467.278 875.396C466.89 866.678 465.261 860.14 459.263 853.206C457.276 850.908 448.998 845.22 448.223 843.444C448.512 842.772 448.639 841.997 449.245 842.017C459.407 842.36 468.918 857.216 470.575 866.316C471.32 870.412 471.401 872.826 471.402 875.442L492.23 875.397C492.379 863.895 490.213 855.586 482.13 846.76C479.297 843.667 474.317 842.189 473.523 838.871C474.519 837.374 473.871 838.024 475.861 837.222C483.208 838.009 492.819 853.29 494.974 859.943C496.203 863.737 495.38 874.226 498.278 875.659C500.2 875.608 500.077 875.67 501.627 874.544C503.328 870.973 500.789 863.56 499.6 859.733C491.345 833.15 456.776 818.654 431.065 825.078C424.687 826.672 418.078 828.872 411.732 830.689C408.793 831.571 403.841 834.546 401.5 831.832L401.444 830.379C406.779 826.61 425.696 822.693 433.326 818.42C465.7 800.292 495.881 765.142 502.278 728.692C505.739 707.863 500.919 686.507 488.847 669.185C462.351 631.589 415.599 623.329 376.062 643.885C371.382 646.318 366.464 648.323 362.232 651.555C360.035 653.174 358.25 654.907 355.487 654.825C353.991 653.505 354.46 654.279 353.864 652.528C355.162 649.123 376.624 638.558 381.309 636.473C404.097 626.372 429.992 625.867 453.156 635.072C473.983 643.174 491.46 660.433 500.59 680.803C520.962 726.257 495.764 774.119 461.161 804.278C455.238 809.44 448.368 814.226 441.959 818.798C459.137 820.031 474.424 823.457 487.463 835.656C509.014 826.704 534.572 814.854 554.627 802.747Z"/><path fill="#2D1F1B" d="M834.439 261.464C843.935 271.396 845.091 278.755 845.462 292.573C845.669 300.274 843.364 305.416 842.29 312.101C841.063 316.121 838.678 322.073 836.325 325.524C831.834 335.992 823.911 341.188 812.595 340.948C811.216 348.536 808.592 355.61 805.677 362.73C803.154 358.578 799.364 353.062 794.829 350.759C784.494 345.509 776.791 355.965 768.951 357.757C752.928 361.418 731.71 356.777 717.669 348.697C708.143 343.765 702.069 335.791 694.735 328.686C685.491 319.73 682.217 318.753 678.719 305.56L678.39 305.979C674.609 310.737 674.984 312.102 673.864 318.315C672.594 319.656 673.335 319.283 671.641 319.615L670.752 318.889C664.912 304.667 688.368 292.346 695.121 300.487L694.683 301.28C692.299 302.701 686.53 302.745 683.031 303.263C683.98 310.088 686.363 315.249 691.662 319.771C727.187 350.087 771.472 352.243 803.894 316.769C805.026 310.957 806.359 305.605 808.335 300.022C810.237 299.361 810.597 299.213 812.568 298.991C815.019 298.3 821.196 293.705 823.122 291.601C832.058 281.838 834.618 274.224 834.439 261.464ZM810.806 338.621C810.621 338.343 810.702 338.414 810.569 338.333C810.474 338.362 810.378 338.391 810.283 338.42C810.361 338.653 810.293 338.577 810.439 338.683C810.562 338.662 810.684 338.641 810.806 338.621Z"/><path fill="#FEB212" d="M834.439 261.464C843.935 271.396 845.091 278.755 845.462 292.573C845.669 300.274 843.364 305.416 842.29 312.101C841.063 316.121 838.678 322.073 836.325 325.524C836.254 324.042 836.48 323.585 836.233 322.093C832.188 327.641 817.145 345.235 810.674 333.566C805.139 323.587 809.948 309.395 812.568 298.991C815.019 298.3 821.196 293.705 823.122 291.601C832.058 281.838 834.618 274.224 834.439 261.464Z"/><path fill="#261D1B" d="M842.29 312.101C841.063 316.121 838.678 322.073 836.325 325.524C836.254 324.042 836.48 323.585 836.233 322.093C838.297 318.914 840.35 314.863 842.29 312.101Z"/><path fill="#52352E" fill-opacity="0.97254902" d="M810.283 338.42C810.378 338.391 810.474 338.362 810.569 338.333C810.702 338.414 810.621 338.343 810.806 338.621C810.684 338.641 810.562 338.662 810.439 338.683C810.293 338.577 810.361 338.653 810.283 338.42Z"/><path fill="#FEB212" d="M732.952 155.361C743.603 150.848 753.545 148.562 764.611 152.924C783.278 160.282 782.844 178.623 796.526 191.009C799.278 193.5 803.373 195.319 806.819 196.662C817.794 200.94 827.85 205.474 832.631 217.116C836.167 225.725 834.792 234.967 831.029 243.249C829.795 245.964 827.959 248.954 826.857 251.578C824.4 249.647 823.299 248.696 820.441 247.276C813.196 242.99 798.906 238.122 790.599 235.723C789.233 217.027 782.453 196.542 770.098 182.242C760.735 171.404 746.627 160.033 732.952 155.361Z"/><path fill="#52352E" d="M808.846 246.567C811.151 247.049 818.673 248.458 820.441 247.276C823.299 248.696 824.4 249.647 826.857 251.578C830.713 254.606 832.599 256.835 834.439 261.464C834.618 274.224 832.058 281.838 823.122 291.601C821.196 293.705 815.019 298.3 812.568 298.991C810.597 299.213 810.237 299.361 808.335 300.022C792.025 301.179 758.358 281.883 772.096 261.964C779.023 251.921 797.232 248.416 808.846 246.567Z"/><path fill="#261D1B" d="M786.02 268.595C790.004 268.212 794.108 267.998 796.575 272.207C797.927 274.774 798.411 279.9 795.238 281.41C792.667 282.633 792.405 277.378 792.101 276.103C786.614 271.621 786.026 276.328 783.974 278.716C782.336 280.621 773.313 274.656 786.02 268.595Z"/><path fill="#261D1B" d="M823.048 267.604C826.145 267.777 834.392 269.256 828.752 275.279C827.085 277.059 825.35 272.588 823.067 275.888C821.941 277.298 819.32 281.761 816.49 275.993C814.984 272.923 819.15 268.638 823.048 267.604Z"/><path fill="#2D1F1B" d="M656.219 718.559C685.697 693.325 712.36 664.339 732.782 631.211C737.418 623.788 741.838 616.231 746.035 608.551C748.732 603.532 752.472 595.292 755.712 590.954C753.588 600.176 753.122 612.971 750.136 620.92L749.849 621.389C746.498 626.954 743.496 633.416 740.553 639.221C723.168 673.513 700.628 704.613 674.289 732.574C668.792 738.41 662.796 745.259 656.856 750.61C656.518 740.379 656.971 728.462 656.219 718.559ZM712.9 676.13C712.591 675.979 712.718 676.019 712.508 675.978C712.687 676.088 712.567 676.032 712.9 676.13Z"/><path fill="#2D1F1B" d="M672.338 361.369C701.676 375.075 723.151 384.201 756.841 385.629C758.054 391.592 761.36 400.58 763.507 406.454C725.326 407.639 698.577 384.996 672.338 361.369Z"/><defs><linearGradient id="gradient_0" gradientUnits="userSpaceOnUse" x1="796.06622" y1="192.96555" x2="745.6546" y2="213.14902"><stop offset="0" stop-color="#361D14"/><stop offset="1" stop-color="#232327"/></linearGradient></defs><path fill="url(#gradient_0)" d="M729.632 157.316C730.983 156.163 731.201 155.844 732.952 155.361C746.627 160.033 760.735 171.404 770.098 182.242C782.453 196.542 789.233 217.027 790.599 235.723C798.906 238.122 813.196 242.99 820.441 247.276C818.673 248.458 811.151 247.049 808.846 246.567C794.706 241.081 779.794 237.168 765.429 232.292C761.477 230.95 753.261 230.463 750.765 227.651C749.897 225.505 749.773 223.129 750.214 220.861C750.751 217.944 752.529 215.405 755.085 213.903C757.713 212.364 760.841 211.924 763.791 212.679C766.775 213.437 769.321 215.379 770.839 218.058C773.237 222.369 772.24 225.449 770.969 229.731C775.717 231.271 781.313 232.686 786.173 234.039C784.161 205.762 768.451 180.255 744.103 165.736C739.821 163.218 731.797 160.743 729.632 157.316Z"/><path fill="#261D1B" d="M628.072 742.543C627.865 738.638 629.41 730.975 629.871 726.753C634.477 684.562 640.506 642.472 645.781 600.353C646.095 597.845 646.701 594.919 648.798 593.399L649.81 593.794C651.707 596.518 649.169 608.575 648.658 612.332L644.494 643.318L633.037 734.95C632.605 736.642 632.576 736.537 633.592 737.88C631.792 739.392 629.81 740.988 628.072 742.543Z"/><path fill="#2D1F1B" d="M609.975 164.763C611.538 163.731 612.284 162.974 614.111 162.706C614.776 165.209 624.207 169.013 620.303 171.887C617.815 173.719 611.618 166.775 609.975 164.763Z"/><path fill="#2D1F1B" d="M633.037 734.95C636.342 734.275 644.18 727.188 648.424 725.086C646.097 727.646 636.445 735.742 633.592 737.88C632.576 736.537 632.605 736.642 633.037 734.95Z"/><path fill="#261D1B" d="M640.34 825.768C645.605 827.085 651.365 829.624 655.767 832.779C654.41 833.586 651.89 831.429 649.484 830.898C646.81 829.454 642.616 827.422 640.34 825.768Z"/><path fill="#2D1F1B" d="M626.273 194.774C627.832 195.097 627.814 194.987 629.016 195.985C629.716 199.337 624.566 205.279 623.147 209.125C613.311 235.779 619.515 262.694 618.186 289.971C617.732 299.295 616.021 305.081 617.386 315.07C619.01 326.961 611.933 343.678 601.962 350.683C595.553 355.203 587.559 356.869 579.878 355.286C570.229 353.329 564.777 347.727 559.517 340.091C555.863 333.969 554.806 329.366 553.415 322.477C564.416 336.855 584.582 343.515 599.101 330.555C618.137 313.564 613.689 277.67 613.012 255.119C612.806 247.664 613.017 240.202 613.642 232.77C614.755 219.952 618.348 205.169 626.273 194.774Z"/><path fill="#261D1B" d="M687.494 225.211C691.423 224.162 695.612 225.324 698.438 228.247C701.265 231.171 702.284 235.397 701.102 239.288C699.92 243.179 696.721 246.124 692.746 246.981C686.803 248.262 680.923 244.569 679.498 238.659C678.072 232.749 681.621 226.781 687.494 225.211Z"/><path fill="#FEB212" d="M178.578 577.383C182.573 576.603 186.532 571.972 189.644 569.204C206.172 554.501 227.854 540.792 250.145 537.788C252.678 537.448 259.37 536.168 261.389 537.603C261.057 538.728 260.605 539.225 259.614 539.959C221.941 567.889 196.547 617.263 204.485 664.527C210.527 700.498 231.711 726.832 256.937 751.572C260.426 754.994 265.281 758.201 268.34 761.267C263.838 769.047 282.92 808.011 287.856 816.441C289.37 819.026 295.329 825.642 295.961 827.952C287.932 828.199 280.665 826.369 272.987 824.181C226.053 810.801 188.319 781.092 164.009 739.073C159.365 732.056 158.666 729.203 155.777 722.005C147.832 711.165 145.644 704.02 143.121 691.251C140.215 676.547 146.359 685.791 147.05 680.955L147.156 680.168C146.147 647.059 149.977 628.185 164.246 598.523L168.47 592.989C168.228 599.747 167.301 615.863 170.684 622.343C170.974 622.898 172.249 623.596 172.894 623.901C176.452 622.536 176.158 622.038 175.658 618.293C175.26 614.64 174.94 610.979 174.699 607.313C174.268 600.525 173.965 584.818 179.001 580.015C179.844 579.21 180.283 578.778 180.439 577.715L178.578 577.383ZM176.218 731.284C173.749 728.635 172.017 727.448 169.2 725.169C167.385 723.406 165.829 721.888 164.056 720.061L164.141 720.781C164.314 722.12 163.813 723.825 165.06 724.751C167.136 726.292 165.384 728.168 165.123 730.589C166.005 731.546 166.143 731.646 167.318 732.287C173.788 737.696 171.265 736.308 175.529 731.972L176.218 731.284ZM151.89 702.345C150.808 699.463 149.928 696.766 148.918 693.88C148.942 695.122 148.869 702.141 149.237 702.578C150.293 702.573 150.257 702.3 151.89 702.345Z"/><path fill="#FEFEFE" fill-opacity="0.054901961" d="M169.2 725.169C172.017 727.448 173.749 728.635 176.218 731.284L175.529 731.972C171.265 736.308 173.788 737.696 167.318 732.287C167.483 729.768 168.128 727.435 169.2 725.169Z"/><path fill="#FEFEFE" fill-opacity="0.90196079" d="M164.056 720.061C165.829 721.888 167.385 723.406 169.2 725.169C168.128 727.435 167.483 729.768 167.318 732.287C166.143 731.646 166.005 731.546 165.123 730.589C165.384 728.168 167.136 726.292 165.06 724.751C163.813 723.825 164.314 722.12 164.141 720.781L164.056 720.061Z"/><path fill="#FEFEFE" fill-opacity="0.90980393" d="M148.918 693.88C149.928 696.766 150.808 699.463 151.89 702.345C150.257 702.3 150.293 702.573 149.237 702.578C148.869 702.141 148.942 695.122 148.918 693.88Z"/><path fill="#FEFEFE" d="M147.156 680.168C147.506 681.637 148.83 692.333 148.918 693.88C148.942 695.122 148.869 702.141 149.237 702.578C150.293 702.573 150.257 702.3 151.89 702.345C155.307 709.734 158.51 714.182 164.056 720.061L164.141 720.781C164.314 722.12 163.813 723.825 165.06 724.751C167.136 726.292 165.384 728.168 165.123 730.589L164.686 730.39C162.739 728.268 158.069 723.15 155.777 722.005C147.832 711.165 145.644 704.02 143.121 691.251C140.215 676.547 146.359 685.791 147.05 680.955L147.156 680.168Z"/><path fill="#F8AE36" d="M155.777 722.005C158.069 723.15 162.739 728.268 164.686 730.39C163.879 730.034 162.629 729.564 161.794 729.318L161.758 729.339C161.134 732.34 163.544 735.519 164.009 739.073C159.365 732.056 158.666 729.203 155.777 722.005Z"/><defs><linearGradient id="gradient_1" gradientUnits="userSpaceOnUse" x1="213.27486" y1="567.31177" x2="186.21368" y2="544.30109"><stop offset="0" stop-color="#FFFEFF" stop-opacity="0.96862745"/><stop offset="1" stop-color="#FFFFFE"/></linearGradient></defs><path fill="url(#gradient_1)" d="M164.246 598.523C165.404 594.312 167.849 591.53 169.197 587.37C171.245 581.049 172.905 573.568 175.145 567.423C179.948 554.247 188.817 539.588 198.154 529.221C207.155 519.441 217.998 510.761 230.019 504.987C232.314 503.885 236.076 501.4 238.068 503.303C238.613 505.046 238.694 505.076 238.698 506.979C237.217 510.32 232.822 510.946 229.813 512.568C214.49 520.828 198.291 535.352 189.62 550.501C186.841 555.357 179.521 572.329 178.578 577.383L180.439 577.715C180.283 578.778 179.844 579.21 179.001 580.015C173.965 584.818 174.268 600.525 174.699 607.313C174.94 610.979 175.26 614.64 175.658 618.293C170.185 615.937 171.626 620.753 172.894 623.901C172.249 623.596 170.974 622.898 170.684 622.343C167.301 615.863 168.228 599.747 168.47 592.989L164.246 598.523Z"/><path fill="#FEFEFE" d="M115.832 668.755C117.621 668.845 117.697 668.903 119.336 669.385C120.838 670.892 120.811 678.531 120.891 680.754C122.119 715.131 136.349 745.702 161.596 768.927C163.877 771.026 170.097 774.795 171.161 776.982C171.136 778.739 170.947 778.808 170.105 780.316C166.638 779.507 163.654 778.781 160.778 776.52C136.471 757.41 121.114 728.996 116.47 698.59C115.528 692.421 112.495 673.589 115.832 668.755Z"/><path fill="#FEFEFE" d="M167.658 533.38C170.716 533.82 172.244 534.485 171.604 538.014C170.804 540.866 166.689 542.594 164.837 544.707C158.525 551.909 154.997 560.875 153.395 570.241C152.835 573.521 152.212 578.583 150.235 581.221C149.824 581.252 149.413 581.289 149.003 581.332C144.147 581.748 146.229 576.562 146.622 572.755C148.405 555.498 154.572 543.998 167.658 533.38Z"/><path fill="#FEFEFE" fill-opacity="0.60392159" d="M172.894 623.901C171.626 620.753 170.185 615.937 175.658 618.293C176.158 622.038 176.452 622.536 172.894 623.901Z"/></svg>