<?xml version="1.0" encoding="utf-8" ?><svg xmlns="http://www.w3.org/2000/svg" xmlns:xlink="http://www.w3.org/1999/xlink" width="1024" height="1024" viewBox="0 0 1024 1024"><path fill="#DDD0BE" d="M270.972 247.172C256.647 210.78 256.921 167.171 270.851 130.601C273.419 123.859 278.307 124.31 283.829 127.349C309.567 141.253 329.411 159.952 348.116 182.084C380.884 168.482 411.919 169.228 444.657 181.879C449.869 175.889 454.543 169.496 460.081 163.787C469.128 154.458 500.718 126.523 512.977 125.722C514.826 125.602 516.242 126.082 517.626 127.324C526.078 134.901 530.3 172.517 530.566 184.171C531.055 205.514 528.924 226.163 521.597 246.37C532.281 262.152 542.548 282.781 545.09 301.713C546.553 317.599 540.463 326.92 535.17 341.483C534.268 350.208 532.754 359.923 531.317 368.61C529.177 377.341 527.446 382.679 524.149 391.074C539.871 412.15 551.642 435.903 558.888 461.179C561.097 468.672 562.573 476.783 564.74 483.999C568.616 487.273 575.819 492.322 578.53 495.819C593.273 508.775 608.133 526.446 619.785 542.214C653.466 587.726 678.775 638.872 694.527 693.256C696.656 700.75 700.06 711.974 701.324 719.332C702.248 723.135 703.912 728.403 704.434 731.977L705.107 732.92C708.451 730.359 711.649 727.92 714.137 724.486L714.438 724.622C714.798 722.929 715.032 722.632 715.825 721.035C713.085 720.754 711.225 722.331 710.055 720.517C717.181 714.323 733.208 707.258 741.91 703.991C744.263 704.321 745.43 704.198 747.831 703.589C748.809 702.162 751.123 700.028 752.571 698.271C749.211 697.317 744.66 696.936 741.103 696.346L740.154 696.244C746.365 691.416 770.428 689.957 778.523 690.871C782.249 691.292 789.718 694.033 791.631 691.123C789.489 688.693 784.232 686.09 783.839 684.951C787.454 684.042 789.766 684.994 793.459 685.89C812.786 690.578 830.544 699.886 845.36 713.115C846.102 713.776 846.784 713.575 847.505 713.426C849.367 710.47 847.365 706.317 846.213 703.404C853.818 710.471 861.082 721.201 865.275 730.653C866.123 733.539 867.159 736.098 868.299 738.88L871.063 739.939C871.011 739.218 870.946 738.497 870.868 737.779C871.291 734.887 872.059 731.393 872.671 728.466C879.909 745.738 883.545 766.554 881.263 785.198C881.052 786.918 880.446 792.206 879.956 793.565C878.792 798.017 877.935 801.72 876.376 806.109C880.923 801.113 880.49 802.96 880.502 797.202C880.922 798.092 880.943 798.079 881.5 798.887C884.074 798.427 887.059 793.634 888.706 791.43L890.295 792.675C886.809 812.087 876.469 834.885 864.803 850.833C863.758 851.81 860.76 855.569 859.646 856.906C858.73 857.68 857.468 859.242 856.622 860.195C854.591 862.012 856.641 862.703 858.219 863.679C858.472 863.836 862.652 861.77 863.622 861.421C870.458 857.933 865.916 857.164 869.656 855.316C870.502 856.48 870.813 856.925 871.829 857.986C870.626 861.244 867.591 865.436 865.523 868.251C852.419 886.101 829.135 903.233 807.82 910.181C805.019 911.179 803.082 911.729 800.218 912.588C799.433 912.699 799.228 912.74 798.473 912.936C794.301 914.885 794.901 914.58 799.518 915.867C800.142 916.063 800.764 916.263 801.394 916.438C804.095 916.683 804.799 916.279 807.296 916.229C806.789 916.239 809.248 918.326 809.857 918.651C789.775 929.967 763.193 928.282 741.292 923.089C738.395 922.402 736.192 921.523 734.589 919.127L734.419 919.521C733.113 922.621 732.282 925.936 731.056 929.136C725.883 942.642 715.022 956.411 699.738 958.657C686.44 959.402 671.487 959.176 658.046 959.226L575.347 959.109C573.689 959.142 568.8 959.604 567.763 958.391C565.587 959.588 558.688 959.435 555.879 959.436C532.72 958.551 502.872 958.671 479.627 959.238C468.567 959.043 457.505 959.1 446.448 959.409C443.578 959.27 442.102 959.365 439.331 958.748C436.095 959.33 428.992 959.191 425.42 959.222C413.367 959.462 400.085 958.744 388.16 959.2C359.884 960.446 364.173 931.184 382.344 919.927C397.46 910.564 411.73 909.288 429.091 910.116C432.752 910.29 436.36 910.199 439.142 907.44C440.47 904.565 438.734 901.482 436.606 899.524C414.02 878.607 393.116 853.091 384.67 822.955C376.686 794.463 385.452 772.239 399.713 748.012L396.062 745.743C394.353 744.007 390.364 741.344 388.229 739.898C388.387 739.339 388.068 738.791 387.642 738.405C379.739 731.228 373.191 724.039 366.489 715.785C350.072 695.566 339.281 672.749 329.091 648.99L327.245 648.412L329.632 662.16C310.15 650.819 292.435 629.175 279.527 610.919C276.505 606.645 272.076 598.173 269.054 594.889C267.346 582.009 267.823 558.783 268.363 546.069C268.646 523.097 280.306 483.428 293.294 464.52C294.804 461.783 297.185 457.915 299.163 455.512L300.208 453.639C273.287 415.524 262.917 383.723 258.85 337.844C253.127 322.966 247.345 319.315 248.073 300.673C250.548 281.581 260.357 262.974 270.972 247.172ZM690.682 722.544C692.745 724.231 693.799 725.276 695.472 727.35C695.073 727.854 693.928 729.135 693.543 728.455C692.861 727.25 691.247 723.737 690.682 722.544ZM681.64 715.49C683.062 716.527 683.818 717.182 685.122 718.303C684.248 719.731 684.386 721.801 683.761 721.762C682.727 720.472 679.242 718.439 679.34 717.611C680.613 716.596 680.537 716.819 681.64 715.49ZM864.803 850.833C876.469 834.885 886.809 812.087 890.295 792.675L888.706 791.43C887.059 793.634 884.074 798.427 881.5 798.887C880.943 798.079 880.922 798.092 880.502 797.202C880.49 802.96 880.923 801.113 876.376 806.109C877.935 801.72 878.792 798.017 879.956 793.565C880.446 792.206 881.052 786.918 881.263 785.198C883.545 766.554 879.909 745.738 872.671 728.466C872.059 731.393 871.291 734.887 870.868 737.779C870.946 738.497 871.011 739.218 871.063 739.939L868.299 738.88C867.159 736.098 866.123 733.539 865.275 730.653C861.082 721.201 853.818 710.471 846.213 703.404C847.365 706.317 849.367 710.47 847.505 713.426C846.784 713.575 846.102 713.776 845.36 713.115C830.544 699.886 812.786 690.578 793.459 685.89C789.766 684.994 787.454 684.042 783.839 684.951C784.232 686.09 789.489 688.693 791.631 691.123C789.718 694.033 782.249 691.292 778.523 690.871C770.428 689.957 746.365 691.416 740.154 696.244L741.103 696.346C744.66 696.936 749.211 697.317 752.571 698.271C751.123 700.028 748.809 702.162 747.831 703.589C745.43 704.198 744.263 704.321 741.91 703.991C733.208 707.258 717.181 714.323 710.055 720.517C711.225 722.331 713.085 720.754 715.825 721.035C715.032 722.632 714.798 722.929 714.438 724.622L714.137 724.486C711.649 727.92 708.451 730.359 705.107 732.92L704.434 731.977C701.981 730.321 698.043 727.002 695.597 725.072C690.958 718.463 667.814 704.468 659.604 701.78C659.119 701.44 659.152 701.419 658.597 701.332C657.289 701.501 654.614 700.97 653.184 701.347C653.116 701.365 653.086 701.492 653.093 701.507C653.553 702.4 655.194 702.126 656.055 702.2C657.519 702.324 659.368 703.616 660.336 704.643C660.935 705.279 658.149 706.647 658.312 707.237C658.512 707.957 659.205 708.145 659.857 708.334C661.006 708.494 660.797 709.798 660.398 710.555C660.328 710.782 660.257 711.01 660.186 711.237C659.861 711.216 659.522 711.059 659.207 710.971C659.146 710.954 659.081 710.948 659.019 710.932C657.524 710.533 656.523 710.065 654.995 709.986C654.526 709.961 653.494 709.724 653.191 709.395C652.997 709.186 652.963 708.788 652.906 708.541C652.785 708.018 652.312 707.307 651.877 707.002C651.586 706.798 651.426 706.805 651.098 706.868C651.032 706.881 651.023 706.871 650.959 706.855C648.654 708.851 653.732 711.231 654.356 711.857C650.533 711.213 644.947 709.809 641.294 709.962C584.273 712.346 574.666 774.034 595.086 817.282C607.954 844.536 621.719 867.033 645.499 886.174C668.853 903.858 715.541 920.434 699.738 958.657C715.022 956.411 725.883 942.642 731.056 929.136C732.282 925.936 733.113 922.621 734.419 919.521L734.589 919.127C736.192 921.523 738.395 922.402 741.292 923.089C763.193 928.282 789.775 929.967 809.857 918.651C809.248 918.326 806.789 916.239 807.296 916.229C804.799 916.279 804.095 916.683 801.394 916.438C800.764 916.263 800.142 916.063 799.518 915.867C794.901 914.58 794.301 914.885 798.473 912.936C799.228 912.74 799.433 912.699 800.218 912.588C803.082 911.729 805.019 911.179 807.82 910.181C829.135 903.233 852.419 886.101 865.523 868.251C867.591 865.436 870.626 861.244 871.829 857.986C870.813 856.925 870.502 856.48 869.656 855.316C865.916 857.164 870.458 857.933 863.622 861.421C862.652 861.77 858.472 863.836 858.219 863.679C856.641 862.703 854.591 862.012 856.622 860.195C857.468 859.242 858.73 857.68 859.646 856.906C860.76 855.569 863.758 851.81 864.803 850.833ZM297.383 470.665L296.736 472.337C297.343 473.02 298.111 473.713 299.143 473.515C299.116 473.552 299.089 473.589 299.061 473.626C300.334 473.752 300.313 468.596 298.937 468.168C298.089 467.904 297.493 470.217 297.383 470.665ZM270.972 247.172C260.357 262.974 250.548 281.581 248.073 300.673C258.637 289.654 266.734 282.739 282.159 278.687C301.783 273.531 317.506 281.295 334.069 291.264C337.846 293.538 343.178 296.548 347.37 298.048C350.976 293.872 355.33 288.912 361.069 287.826C379.782 284.285 399.861 286.117 418.871 286.23C432.193 286.309 436.809 289.402 445.224 299.104C454.278 296.033 463.106 290.381 471.459 285.645C500.605 269.121 524.652 276.272 545.09 301.713C542.548 282.781 532.281 262.152 521.597 246.37C528.924 226.163 531.055 205.514 530.566 184.171C530.3 172.517 526.078 134.901 517.626 127.324C516.242 126.082 514.826 125.602 512.977 125.722C500.718 126.523 469.128 154.458 460.081 163.787C454.543 169.496 449.869 175.889 444.657 181.879C411.919 169.228 380.884 168.482 348.116 182.084C329.411 159.952 309.567 141.253 283.829 127.349C278.307 124.31 273.419 123.859 270.851 130.601C256.921 167.171 256.647 210.78 270.972 247.172ZM304.252 463.253C303.334 461.065 303.162 460.393 300.975 459.302C301.385 462.955 300.825 463.067 304.252 463.253ZM425.42 959.222C404.443 950.049 417.694 923.923 433.772 918.089C439.108 916.474 444.197 916.354 448.642 912.55C456.925 905.461 455.57 890.208 456.44 879.796C457.989 859.941 459.668 840.097 461.477 820.265C461.557 806.647 463.816 793.297 462.786 778.807C441.136 773.232 417.373 761.655 399.713 748.012C385.452 772.239 376.686 794.463 384.67 822.955C393.116 853.091 414.02 878.607 436.606 899.524C438.734 901.482 440.47 904.565 439.142 907.44C436.36 910.199 432.752 910.29 429.091 910.116C411.73 909.288 397.46 910.564 382.344 919.927C364.173 931.184 359.884 960.446 388.16 959.2C400.085 958.744 413.367 959.462 425.42 959.222ZM537.743 682.26C537.457 682.723 537.601 682.47 537.318 683.024C538.187 685.385 536.053 688.524 538.007 688.534C540.038 688.546 543.298 680.689 537.743 682.26Z"/><path fill="#DFD5C2" fill-opacity="0.55686277" d="M679.595 713.967C680.507 714.518 680.954 714.721 681.64 715.49C680.537 716.819 680.613 716.596 679.34 717.611C679.242 718.439 682.727 720.472 683.761 721.762C684.386 721.801 684.248 719.731 685.122 718.303C686.576 719.363 689.744 721.278 690.682 722.544C691.247 723.737 692.861 727.25 693.543 728.455C693.928 729.135 695.073 727.854 695.472 727.35C695.723 727.73 698.898 736.937 699.12 737.596C695.577 735.244 695.27 734.792 691.423 733.66C688.409 731.202 685.533 728.57 682.443 726.149C680.939 724.97 675.645 721.727 674.904 720.867C674.647 718.321 674.462 718.01 676.853 716.43C679.336 714.79 676.01 715.125 675.563 714.311L675.651 714.137C676.111 713.9 678.937 713.979 679.595 713.967ZM688.971 729.915C689.957 727.759 692.717 724.906 689.313 724.038L688.559 724.503C684.865 726.526 686.918 727.079 688.971 729.915Z"/><path fill="#DFD5C2" fill-opacity="0.63529414" d="M689.313 724.038C692.717 724.906 689.957 727.759 688.971 729.915C686.918 727.079 684.865 726.526 688.559 724.503L689.313 724.038Z"/><path fill="#DDD0BE" fill-opacity="0.65098041" d="M658.597 701.332C659.152 701.419 659.119 701.44 659.604 701.78C661.902 705.383 662.897 703.82 665.198 705.345C669.244 708.026 674.929 710.298 678.71 712.907C677.411 713.132 676.323 713.212 675.082 713.685C671.615 712.93 671.055 710.712 668.014 711.253C665.97 711.617 663.796 712.068 664.965 714.064C664.574 714.616 664.058 714.815 663.456 715.254C660.533 714.335 657.268 712.931 654.356 711.857C653.732 711.231 648.654 708.851 650.959 706.855C651.023 706.871 651.032 706.881 651.098 706.868C651.426 706.805 651.586 706.798 651.877 707.002C652.312 707.307 652.785 708.018 652.906 708.541C652.963 708.788 652.997 709.186 653.191 709.395C653.494 709.724 654.526 709.961 654.995 709.986C656.523 710.065 657.524 710.533 659.019 710.932C659.081 710.948 659.146 710.954 659.207 710.971C659.522 711.059 659.861 711.216 660.186 711.237C660.257 711.01 660.328 710.782 660.398 710.555C660.797 709.798 661.006 708.494 659.857 708.334C659.205 708.145 658.512 707.957 658.312 707.237C658.149 706.647 660.935 705.279 660.336 704.643C659.368 703.616 657.519 702.324 656.055 702.2C655.194 702.126 653.553 702.4 653.093 701.507C653.086 701.492 653.116 701.365 653.184 701.347C654.614 700.97 657.289 701.501 658.597 701.332Z"/><path fill="#DFD5C2" fill-opacity="0.97254902" d="M659.604 701.78C667.814 704.468 690.958 718.463 695.597 725.072C696.648 727.977 696.392 726.795 697.608 728.902C700.815 734.456 704.329 741.057 706.787 746.914C704.588 746.066 703.229 739.716 702.283 739.848C702.158 740.149 702.032 740.449 701.907 740.75C701.483 740.828 700.39 741.01 700.079 741.261C699.975 742.236 701.882 742.396 700.736 743.669C697.697 739.904 694.562 737.134 691.423 733.66C695.27 734.792 695.577 735.244 699.12 737.596C698.898 736.937 695.723 727.73 695.472 727.35C693.799 725.276 692.745 724.231 690.682 722.544C689.744 721.278 686.576 719.363 685.122 718.303C683.818 717.182 683.062 716.527 681.64 715.49C680.954 714.721 680.507 714.518 679.595 713.967C679.295 713.618 679 713.265 678.71 712.907C674.929 710.298 669.244 708.026 665.198 705.345C662.897 703.82 661.902 705.383 659.604 701.78Z"/><path fill="#DDD0BE" fill-opacity="0.56078434" d="M663.456 715.254C664.058 714.815 664.574 714.616 664.965 714.064C663.796 712.068 665.97 711.617 668.014 711.253C671.055 710.712 671.615 712.93 675.082 713.685C673.558 715.682 673.26 714.036 671.762 715.334C671.567 717.489 669.902 715.792 667.58 717.092C666.153 716.542 664.863 715.861 663.456 715.254Z"/><path fill="#DDD0BE" fill-opacity="0.44705883" d="M678.71 712.907C679 713.265 679.295 713.618 679.595 713.967C678.937 713.979 676.111 713.9 675.651 714.137L675.563 714.311C676.01 715.125 679.336 714.79 676.853 716.43C674.462 718.01 674.647 718.321 674.904 720.867L667.58 717.092C669.902 715.792 671.567 717.489 671.762 715.334C673.26 714.036 673.558 715.682 675.082 713.685C676.323 713.212 677.411 713.132 678.71 712.907Z"/><path fill="#E3DACC" fill-opacity="0.89411765" d="M537.743 682.26C543.298 680.689 540.038 688.546 538.007 688.534C536.053 688.524 538.187 685.385 537.318 683.024C537.601 682.47 537.457 682.723 537.743 682.26Z"/><path fill="#E3DACC" fill-opacity="0.87843138" d="M297.383 470.665C297.493 470.217 298.089 467.904 298.937 468.168C300.313 468.596 300.334 473.752 299.061 473.626C299.089 473.589 299.116 473.552 299.143 473.515C298.111 473.713 297.343 473.02 296.736 472.337L297.383 470.665Z"/><path fill="#FC6823" d="M740.154 696.244C746.365 691.416 770.428 689.957 778.523 690.871C782.249 691.292 789.718 694.033 791.631 691.123C789.489 688.693 784.232 686.09 783.839 684.951C787.454 684.042 789.766 684.994 793.459 685.89C812.786 690.578 830.544 699.886 845.36 713.115C846.102 713.776 846.784 713.575 847.505 713.426C849.367 710.47 847.365 706.317 846.213 703.404C853.818 710.471 861.082 721.201 865.275 730.653C866.123 733.539 867.159 736.098 868.299 738.88L871.063 739.939C871.011 739.218 870.946 738.497 870.868 737.779C871.291 734.887 872.059 731.393 872.671 728.466C879.909 745.738 883.545 766.554 881.263 785.198C881.052 786.918 880.446 792.206 879.956 793.565C878.792 798.017 877.935 801.72 876.376 806.109C880.923 801.113 880.49 802.96 880.502 797.202C880.922 798.092 880.943 798.079 881.5 798.887C884.074 798.427 887.059 793.634 888.706 791.43L890.295 792.675C886.809 812.087 876.469 834.885 864.803 850.833C863.758 851.81 860.76 855.569 859.646 856.906C858.73 857.68 857.468 859.242 856.622 860.195C854.591 862.012 856.641 862.703 858.219 863.679C858.472 863.836 862.652 861.77 863.622 861.421C870.458 857.933 865.916 857.164 869.656 855.316C870.502 856.48 870.813 856.925 871.829 857.986C870.626 861.244 867.591 865.436 865.523 868.251C852.419 886.101 829.135 903.233 807.82 910.181C805.019 911.179 803.082 911.729 800.218 912.588C799.433 912.699 799.228 912.74 798.473 912.936C794.301 914.885 794.901 914.58 799.518 915.867C800.142 916.063 800.764 916.263 801.394 916.438C804.095 916.683 804.799 916.279 807.296 916.229C806.789 916.239 809.248 918.326 809.857 918.651C789.775 929.967 763.193 928.282 741.292 923.089C738.395 922.402 736.192 921.523 734.589 919.127L734.419 919.521C733.113 922.621 732.282 925.936 731.056 929.136C725.883 942.642 715.022 956.411 699.738 958.657C715.541 920.434 668.853 903.858 645.499 886.174C621.719 867.033 607.954 844.536 595.086 817.282C574.666 774.034 584.273 712.346 641.294 709.962C644.947 709.809 650.533 711.213 654.356 711.857C657.268 712.931 660.533 714.335 663.456 715.254C664.863 715.861 666.153 716.542 667.58 717.092L674.904 720.867C675.645 721.727 680.939 724.97 682.443 726.149C685.533 728.57 688.409 731.202 691.423 733.66C694.562 737.134 697.697 739.904 700.736 743.669C701.882 742.396 699.975 742.236 700.079 741.261C700.39 741.01 701.483 740.828 701.907 740.75C702.032 740.449 702.158 740.149 702.283 739.848C703.229 739.716 704.588 746.066 706.787 746.914C704.329 741.057 700.815 734.456 697.608 728.902C696.392 726.795 696.648 727.977 695.597 725.072C698.043 727.002 701.981 730.321 704.434 731.977L705.107 732.92C708.451 730.359 711.649 727.92 714.137 724.486L714.438 724.622C714.798 722.929 715.032 722.632 715.825 721.035C713.085 720.754 711.225 722.331 710.055 720.517C717.181 714.323 733.208 707.258 741.91 703.991C744.263 704.321 745.43 704.198 747.831 703.589C748.809 702.162 751.123 700.028 752.571 698.271C749.211 697.317 744.66 696.936 741.103 696.346L740.154 696.244ZM742.627 797.277C739.868 791.705 741.049 797.635 739.309 788.792L738.951 786.956C736.367 785.191 736.325 786.077 733.51 787.503C734.808 790.628 735.711 795.619 736.663 798.904C739.883 810.829 741.052 830.228 739.89 842.985C791.595 830.772 790.873 766.02 758.053 781.718C755.228 784.062 752.86 785.982 750.324 788.63C748.252 790.794 744.953 796.427 742.738 797.814L742.627 797.277ZM765.147 904.549C763.681 904.498 761.216 904.38 759.834 904.966C758.852 906.237 762.372 907.098 763.27 907.6C764.505 907.303 766.741 907.24 767.266 906.569C767.372 905.158 766.417 905.085 765.147 904.549ZM851.197 867.134C852.946 866.31 855.265 865.038 857.022 864.358L857.107 864.239C855.176 863.592 856.176 863.896 854.342 862.453C853.54 863.208 849.468 866.656 849.413 867.226C849.81 867.719 850.755 867.269 851.197 867.134Z"/><path fill="#FAF9F9" fill-opacity="0.54901963" d="M733.51 787.503C736.325 786.077 736.367 785.191 738.951 786.956L739.309 788.792C741.049 797.635 739.868 791.705 742.627 797.277C739.279 798.038 738.733 794.221 736.663 798.904C735.711 795.619 734.808 790.628 733.51 787.503Z"/><path fill="#E3DACC" fill-opacity="0.61176473" d="M763.27 907.6C762.372 907.098 758.852 906.237 759.834 904.966C761.216 904.38 763.681 904.498 765.147 904.549C766.417 905.085 767.372 905.158 767.266 906.569C766.741 907.24 764.505 907.303 763.27 907.6Z"/><path fill="#DDD0BE" d="M740.154 696.244C746.365 691.416 770.428 689.957 778.523 690.871C782.249 691.292 789.718 694.033 791.631 691.123C789.489 688.693 784.232 686.09 783.839 684.951C787.454 684.042 789.766 684.994 793.459 685.89C812.786 690.578 830.544 699.886 845.36 713.115C846.102 713.776 846.784 713.575 847.505 713.426C849.367 710.47 847.365 706.317 846.213 703.404C853.818 710.471 861.082 721.201 865.275 730.653C866.123 733.539 867.159 736.098 868.299 738.88L871.063 739.939C871.011 739.218 870.946 738.497 870.868 737.779C871.291 734.887 872.059 731.393 872.671 728.466C879.909 745.738 883.545 766.554 881.263 785.198C881.052 786.918 880.446 792.206 879.956 793.565C878.792 798.017 877.935 801.72 876.376 806.109C880.923 801.113 880.49 802.96 880.502 797.202C880.922 798.092 880.943 798.079 881.5 798.887C884.074 798.427 887.059 793.634 888.706 791.43L890.295 792.675C886.809 812.087 876.469 834.885 864.803 850.833C863.758 851.81 860.76 855.569 859.646 856.906C858.73 857.68 857.468 859.242 856.622 860.195C854.591 862.012 856.641 862.703 858.219 863.679C858.472 863.836 862.652 861.77 863.622 861.421C870.458 857.933 865.916 857.164 869.656 855.316C870.502 856.48 870.813 856.925 871.829 857.986C870.626 861.244 867.591 865.436 865.523 868.251C852.419 886.101 829.135 903.233 807.82 910.181C805.019 911.179 803.082 911.729 800.218 912.588C799.433 912.699 799.228 912.74 798.473 912.936C794.301 914.885 794.901 914.58 799.518 915.867C800.142 916.063 800.764 916.263 801.394 916.438C804.095 916.683 804.799 916.279 807.296 916.229C806.789 916.239 809.248 918.326 809.857 918.651C789.775 929.967 763.193 928.282 741.292 923.089C738.395 922.402 736.192 921.523 734.589 919.127C734.573 916.797 734.864 914.911 735.149 912.612C748.128 914.287 756.723 914.526 769.578 912.778C766.05 911.148 762.88 909.715 759.501 907.802C761.081 907.742 761.868 908.168 763.27 907.6C764.505 907.303 766.741 907.24 767.266 906.569C767.372 905.158 766.417 905.085 765.147 904.549C767.961 904.046 767.765 903.099 770.076 902.278C795.936 899.627 818.045 890.135 835.176 870.332C828.095 871.789 814.962 875.492 808.08 877.667C834.41 859.523 852.555 836.051 859.567 804.324C852.195 810.537 848.631 813.589 840.166 818.088L839.321 816.367C851.936 799.226 854.881 786.189 848.814 765.444C848.163 770.717 847.377 775.974 846.458 781.207C844.711 767.328 841.085 753.718 829.947 744.402C829.953 749.684 829.626 755.203 829.395 760.498C818.327 746.33 811.107 743.585 794.01 740.159C798.881 743.577 801.054 745.772 803.637 751.013C789.789 747.263 783.68 748.617 770.742 754.803C774.971 755.18 779.202 755.528 783.435 755.847C776.729 760.421 773.095 764.07 768.026 770.371C763.526 774.285 761.339 776.665 758.053 781.718C755.228 784.062 752.86 785.982 750.324 788.63C748.252 790.794 744.953 796.427 742.738 797.814L742.627 797.277C739.868 791.705 741.049 797.635 739.309 788.792L738.951 786.956C736.367 785.191 736.325 786.077 733.51 787.503C729.832 774.85 722.556 759.81 715.573 748.591C712.322 743.367 708.425 738.213 705.107 732.92C708.451 730.359 711.649 727.92 714.137 724.486L714.438 724.622C714.798 722.929 715.032 722.632 715.825 721.035C713.085 720.754 711.225 722.331 710.055 720.517C717.181 714.323 733.208 707.258 741.91 703.991C744.263 704.321 745.43 704.198 747.831 703.589C748.809 702.162 751.123 700.028 752.571 698.271C749.211 697.317 744.66 696.936 741.103 696.346L740.154 696.244ZM851.197 867.134C852.946 866.31 855.265 865.038 857.022 864.358L857.107 864.239C855.176 863.592 856.176 863.896 854.342 862.453C853.54 863.208 849.468 866.656 849.413 867.226C849.81 867.719 850.755 867.269 851.197 867.134Z"/><path fill="#E3DACC" d="M752.571 698.271C753.689 698.572 754.629 698.789 755.739 699.059C757.826 699.58 759.896 700.163 761.948 700.806C761.668 701.243 761.457 701.64 761.206 702.093C757.131 701.989 751.942 703.054 747.831 703.589C748.809 702.162 751.123 700.028 752.571 698.271Z"/><path fill="#FAF9F9" d="M738.951 786.956C738.612 784.984 738.963 781.145 741.268 780.798C741.681 780.736 741.531 785 741.536 786.375C741.506 787.893 741.475 790.597 741.307 792.076C740.633 790.055 740.342 788.586 738.951 786.956Z"/><path fill="#E3DACC" d="M715.825 721.035C718.225 720.811 723.306 719.784 726.005 719.361C722.522 721.063 719.132 722.239 715.934 724.534C714.904 725.273 714.933 725.406 714.438 724.622C714.798 722.929 715.032 722.632 715.825 721.035Z"/><path fill="#E3DACC" d="M868.299 738.88L871.063 739.939C870.964 742.315 870.906 744.485 870.735 746.869C869.909 744.247 869.116 741.406 868.299 738.88Z"/><path fill="#E3DACC" d="M761.948 700.806C762.601 700.992 762.679 700.953 763.147 701.359C763.232 701.604 763.245 701.497 763.171 701.682C762.631 702.088 761.886 702.038 761.206 702.093C761.457 701.64 761.668 701.243 761.948 700.806Z"/><path fill="#E3DACC" d="M848.979 714.866C851.555 716.044 853.563 722.133 852.426 722.826C851.818 722.011 847.396 716.578 847.26 716.269C847.824 715.795 848.411 715.341 848.979 714.866Z"/><path fill="#E3DACC" fill-opacity="0.98823529" d="M854.342 862.453C856.176 863.896 855.176 863.592 857.107 864.239L857.022 864.358C855.265 865.038 852.946 866.31 851.197 867.134C850.755 867.269 849.81 867.719 849.413 867.226C849.468 866.656 853.54 863.208 854.342 862.453Z"/><path d="M768.026 770.371C786.17 765.232 800.245 770.6 805.026 789.826C807.798 801.226 805.933 813.26 799.84 823.285C786.719 844.704 761.92 848.963 738.891 848.567C739.144 847.125 739.549 844.29 739.89 842.985C791.595 830.772 790.873 766.02 758.053 781.718C761.339 776.665 763.526 774.285 768.026 770.371Z"/><path fill="#E3DACC" d="M749.455 902.588C755.81 902.651 763.803 902.916 770.076 902.278C767.765 903.099 767.961 904.046 765.147 904.549C763.681 904.498 761.216 904.38 759.834 904.966C758.852 906.237 762.372 907.098 763.27 907.6C761.868 908.168 761.081 907.742 759.501 907.802C757.179 907.032 751.637 903.897 749.455 902.588Z"/><path fill="#DDD0BE" d="M700.736 743.669C701.882 742.396 699.975 742.236 700.079 741.261C700.39 741.01 701.483 740.828 701.907 740.75C702.032 740.449 702.158 740.149 702.283 739.848C703.229 739.716 704.588 746.066 706.787 746.914C708.887 750.204 711.297 757.557 712.467 761.354C708.413 755.001 705.538 749.659 700.736 743.669Z"/><path fill="#F4C8B3" d="M839.321 816.367L840.166 818.088C835.715 820.411 836.971 818.958 839.321 816.367Z"/><path fill="#DDD0BE" d="M566.274 599.603C567.133 601.21 566.86 602.19 567.043 604.03C565.986 625.301 561.07 646.103 557.711 667.036C556.833 672.512 559.531 682.262 559.32 688.176C560.503 707.464 557.354 721.089 551.913 739.179C561.807 725.22 571.419 712.484 587.051 704.434C589.189 703.334 592.233 701.727 594.614 701.643C608.535 695.714 611.465 695.214 626.264 694.886C634.854 694.937 638.62 696.416 646.39 697.313C649.652 698.273 655.539 699.932 658.597 701.332C657.289 701.501 654.614 700.97 653.184 701.347C653.116 701.365 653.086 701.492 653.093 701.507C653.553 702.4 655.194 702.126 656.055 702.2C657.519 702.324 659.368 703.616 660.336 704.643C660.935 705.279 658.149 706.647 658.312 707.237C658.512 707.957 659.205 708.145 659.857 708.334C661.006 708.494 660.797 709.798 660.398 710.555C660.328 710.782 660.257 711.01 660.186 711.237C659.861 711.216 659.522 711.059 659.207 710.971C659.146 710.954 659.081 710.948 659.019 710.932C657.524 710.533 656.523 710.065 654.995 709.986C654.526 709.961 653.494 709.724 653.191 709.395C652.997 709.186 652.963 708.788 652.906 708.541C652.785 708.018 652.312 707.307 651.877 707.002C651.586 706.798 651.426 706.805 651.098 706.868C651.032 706.881 651.023 706.871 650.959 706.855C648.654 708.851 653.732 711.231 654.356 711.857C650.533 711.213 644.947 709.809 641.294 709.962C584.273 712.346 574.666 774.034 595.086 817.282C607.954 844.536 621.719 867.033 645.499 886.174C668.853 903.858 715.541 920.434 699.738 958.657C686.44 959.402 671.487 959.176 658.046 959.226L575.347 959.109C573.689 959.142 568.8 959.604 567.763 958.391C565.587 959.588 558.688 959.435 555.879 959.436C532.72 958.551 502.872 958.671 479.627 959.238C468.567 959.043 457.505 959.1 446.448 959.409C443.578 959.27 442.102 959.365 439.331 958.748C436.095 959.33 428.992 959.191 425.42 959.222C413.367 959.462 400.085 958.744 388.16 959.2C359.884 960.446 364.173 931.184 382.344 919.927C397.46 910.564 411.73 909.288 429.091 910.116C432.752 910.29 436.36 910.199 439.142 907.44C440.47 904.565 438.734 901.482 436.606 899.524C414.02 878.607 393.116 853.091 384.67 822.955C376.686 794.463 385.452 772.239 399.713 748.012C417.373 761.655 441.136 773.232 462.786 778.807C463.816 793.297 461.557 806.647 461.477 820.265C492.884 809.052 490.046 782.289 492.924 754.783C493.867 745.764 496.966 736.411 501.061 728.283C511.83 706.91 526.315 704.65 537.318 683.024C538.187 685.385 536.053 688.524 538.007 688.534C540.038 688.546 543.298 680.689 537.743 682.26C539.712 676.885 540.509 669.993 541.767 666.874C541.448 666.077 540.91 664.622 541.244 663.848C544.278 656.814 548.059 650.198 551.109 643.119C557.305 628.74 561.831 614.577 566.274 599.603ZM425.42 959.222C404.443 950.049 417.694 923.923 433.772 918.089C439.108 916.474 444.197 916.354 448.642 912.55C456.925 905.461 455.57 890.208 456.44 879.796C457.989 859.941 459.668 840.097 461.477 820.265C461.557 806.647 463.816 793.297 462.786 778.807C441.136 773.232 417.373 761.655 399.713 748.012C385.452 772.239 376.686 794.463 384.67 822.955C393.116 853.091 414.02 878.607 436.606 899.524C438.734 901.482 440.47 904.565 439.142 907.44C436.36 910.199 432.752 910.29 429.091 910.116C411.73 909.288 397.46 910.564 382.344 919.927C364.173 931.184 359.884 960.446 388.16 959.2C400.085 958.744 413.367 959.462 425.42 959.222Z"/><path fill="#DDD0BE" d="M537.743 682.26C539.712 676.885 540.509 669.993 541.767 666.874C553.116 701.159 549.799 724.212 534.735 756.546C526.326 774.593 523.777 799.105 520.297 818.982L508.296 885.567C505.851 899.51 502.445 923.739 497.548 936.729C496.556 939.36 482.822 955.09 479.627 959.238C468.567 959.043 457.505 959.1 446.448 959.409C443.578 959.27 442.102 959.365 439.331 958.748C436.095 959.33 428.992 959.191 425.42 959.222C413.367 959.462 400.085 958.744 388.16 959.2C359.884 960.446 364.173 931.184 382.344 919.927C397.46 910.564 411.73 909.288 429.091 910.116C432.752 910.29 436.36 910.199 439.142 907.44C440.47 904.565 438.734 901.482 436.606 899.524C414.02 878.607 393.116 853.091 384.67 822.955C376.686 794.463 385.452 772.239 399.713 748.012C417.373 761.655 441.136 773.232 462.786 778.807C463.816 793.297 461.557 806.647 461.477 820.265C492.884 809.052 490.046 782.289 492.924 754.783C493.867 745.764 496.966 736.411 501.061 728.283C511.83 706.91 526.315 704.65 537.318 683.024C538.187 685.385 536.053 688.524 538.007 688.534C540.038 688.546 543.298 680.689 537.743 682.26ZM425.42 959.222C404.443 950.049 417.694 923.923 433.772 918.089C439.108 916.474 444.197 916.354 448.642 912.55C456.925 905.461 455.57 890.208 456.44 879.796C457.989 859.941 459.668 840.097 461.477 820.265C461.557 806.647 463.816 793.297 462.786 778.807C441.136 773.232 417.373 761.655 399.713 748.012C385.452 772.239 376.686 794.463 384.67 822.955C393.116 853.091 414.02 878.607 436.606 899.524C438.734 901.482 440.47 904.565 439.142 907.44C436.36 910.199 432.752 910.29 429.091 910.116C411.73 909.288 397.46 910.564 382.344 919.927C364.173 931.184 359.884 960.446 388.16 959.2C400.085 958.744 413.367 959.462 425.42 959.222Z"/><path d="M399.713 748.012C417.373 761.655 441.136 773.232 462.786 778.807C463.816 793.297 461.557 806.647 461.477 820.265C459.668 840.097 457.989 859.941 456.44 879.796C455.57 890.208 456.925 905.461 448.642 912.55C444.197 916.354 439.108 916.474 433.772 918.089C417.694 923.923 404.443 950.049 425.42 959.222C413.367 959.462 400.085 958.744 388.16 959.2C359.884 960.446 364.173 931.184 382.344 919.927C397.46 910.564 411.73 909.288 429.091 910.116C432.752 910.29 436.36 910.199 439.142 907.44C440.47 904.565 438.734 901.482 436.606 899.524C414.02 878.607 393.116 853.091 384.67 822.955C376.686 794.463 385.452 772.239 399.713 748.012ZM384.121 935.519C382.767 937.213 382.19 940.284 381.99 942.42C381.778 945.341 381.804 945.869 382.247 948.896C382.873 947.459 383.199 946.546 384.056 945.239L384.205 944.829C383.822 941.01 384.209 940.473 385.302 936.852C387.495 933.381 390.911 929.918 391.883 928.333C391.852 927.999 391.922 928.134 391.691 927.92C389.655 927.723 385.127 933.777 384.121 935.519Z"/><path fill="#FAF9F9" d="M382.247 948.896C382.873 947.459 383.199 946.546 384.056 945.239C384.163 945.743 384.488 946.966 384.549 948.001C384.755 951.527 387.803 955.516 387.99 958.213C387.998 958.331 387.808 958.37 387.767 958.384C385.144 957.893 383.084 950.912 382.247 948.896Z"/><path fill="#FAF9F9" fill-opacity="0.074509807" d="M384.121 935.519C385.127 933.777 389.655 927.723 391.691 927.92C391.922 928.134 391.852 927.999 391.883 928.333C390.911 929.918 387.495 933.381 385.302 936.852C384.903 936.413 384.509 935.968 384.121 935.519Z"/><path fill="#FAF9F9" fill-opacity="0.98823529" d="M384.121 935.519C384.509 935.968 384.903 936.413 385.302 936.852C384.209 940.473 383.822 941.01 384.205 944.829C383.26 943.564 383.175 943.484 381.99 942.42C382.19 940.284 382.767 937.213 384.121 935.519Z"/><path fill="#FAF9F9" fill-opacity="0.38431373" d="M381.99 942.42C383.175 943.484 383.26 943.564 384.205 944.829L384.056 945.239C383.199 946.546 382.873 947.459 382.247 948.896C381.804 945.869 381.778 945.341 381.99 942.42Z"/><path d="M451.632 924.222L452.194 925.193C438.771 934.022 441.397 946.576 446.448 959.409C443.578 959.27 442.102 959.365 439.331 958.748C438.667 956.302 437.873 954.33 437.515 951.749C436.101 941.545 439.261 929.272 449.707 924.994L451.632 924.222Z"/><path fill="#1D1B19" d="M451.632 924.222C452.162 924.073 454.199 923.334 454.686 923.714C454.713 924.026 452.458 925.047 452.194 925.193L451.632 924.222Z"/><path d="M566.274 599.603C567.133 601.21 566.86 602.19 567.043 604.03C565.986 625.301 561.07 646.103 557.711 667.036C556.833 672.512 559.531 682.262 559.32 688.176C560.503 707.464 557.354 721.089 551.913 739.179C561.807 725.22 571.419 712.484 587.051 704.434C589.189 703.334 592.233 701.727 594.614 701.643C541.792 729.238 538.578 796.053 563.909 844.09C581.061 877.104 609.94 902.51 644.871 915.316C643.507 915.967 643.357 915.926 641.841 916.216C616.409 913.833 577.032 907.214 555.923 924.065C543.574 933.923 538.186 950.649 555.879 959.436C532.72 958.551 502.872 958.671 479.627 959.238C482.822 955.09 496.556 939.36 497.548 936.729C502.445 923.739 505.851 899.51 508.296 885.567L520.297 818.982C523.777 799.105 526.326 774.593 534.735 756.546C549.799 724.212 553.116 701.159 541.767 666.874C541.448 666.077 540.91 664.622 541.244 663.848C544.278 656.814 548.059 650.198 551.109 643.119C557.305 628.74 561.831 614.577 566.274 599.603Z"/><path d="M579.293 924.695C573.763 930.807 569.353 933.176 568.552 942.751C567.958 949.847 570.287 954.28 575.347 959.109C573.689 959.142 568.8 959.604 567.763 958.391L567.576 957.979C564.842 952.073 562.873 949.284 563.743 942.191C564.923 932.571 571.088 928.654 579.293 924.695Z"/><path fill="#1D1B19" d="M644.871 915.316C645.404 915.443 646.912 915.655 647.197 916.244C646.875 916.874 642.6 916.327 641.841 916.216C643.357 915.926 643.507 915.967 644.871 915.316Z"/><path fill="#FC6823" d="M531.317 368.61C529.177 377.341 527.446 382.679 524.149 391.074C539.871 412.15 551.642 435.903 558.888 461.179C561.097 468.672 562.573 476.783 564.74 483.999C568.616 487.273 575.819 492.322 578.53 495.819C593.273 508.775 608.133 526.446 619.785 542.214C653.466 587.726 678.775 638.872 694.527 693.256C696.656 700.75 700.06 711.974 701.324 719.332C702.248 723.135 703.912 728.403 704.434 731.977C701.981 730.321 698.043 727.002 695.597 725.072C690.958 718.463 667.814 704.468 659.604 701.78C659.119 701.44 659.152 701.419 658.597 701.332C655.539 699.932 649.652 698.273 646.39 697.313C638.62 696.416 634.854 694.937 626.264 694.886C611.465 695.214 608.535 695.714 594.614 701.643C592.233 701.727 589.189 703.334 587.051 704.434C571.419 712.484 561.807 725.22 551.913 739.179C557.354 721.089 560.503 707.464 559.32 688.176C559.531 682.262 556.833 672.512 557.711 667.036C561.07 646.103 565.986 625.301 567.043 604.03C566.86 602.19 567.133 601.21 566.274 599.603C561.831 614.577 557.305 628.74 551.109 643.119C548.059 650.198 544.278 656.814 541.244 663.848C540.91 664.622 541.448 666.077 541.767 666.874C540.509 669.993 539.712 676.885 537.743 682.26C537.457 682.723 537.601 682.47 537.318 683.024C526.315 704.65 511.83 706.91 501.061 728.283C496.966 736.411 493.867 745.764 492.924 754.783C490.046 782.289 492.884 809.052 461.477 820.265C461.557 806.647 463.816 793.297 462.786 778.807C462.266 773.059 462.196 764.348 461.865 758.261L459.064 705.008C459.01 690.379 452.085 675.29 445.134 662.749C450.591 659.291 458.347 655.283 463.393 651.487C483.071 636.593 500.086 617.759 512.084 596.175C519.598 582.658 530.114 547.865 510.467 539.525C489.79 532.129 466.864 551.181 448.388 558.14C434.112 563.518 438.677 546.856 443.248 540.25C449.214 531.627 456.762 523.791 464.247 516.321C497.992 482.642 529.342 449.832 521.467 398.193C499.962 437.675 475.017 457.368 432.952 472.171L427.278 474.094L431.04 470.313C459.692 443.609 480.456 417.422 504.62 387.426C509.327 386.775 526.955 371.495 531.317 368.61Z"/><path d="M564.74 483.999C568.616 487.273 575.819 492.322 578.53 495.819C576.541 510.217 573.989 522.757 571.837 536.658C571.542 536.876 571.544 536.959 571.282 536.941C570.992 536.669 570.759 536.346 570.516 536.021C570.223 519.199 566.711 500.619 564.74 483.999Z"/><path d="M648.958 696.123C663.479 698.847 674.715 702.565 687.612 710.245C692.073 712.901 697.252 716.954 701.324 719.332C702.248 723.135 703.912 728.403 704.434 731.977C701.981 730.321 698.043 727.002 695.597 725.072C690.958 718.463 667.814 704.468 659.604 701.78C659.119 701.44 659.152 701.419 658.597 701.332C655.539 699.932 649.652 698.273 646.39 697.313C647.623 696.432 647.551 696.388 648.958 696.123Z"/><path fill="#130503" d="M626.264 694.886C633.657 693.862 641.645 694.734 648.958 696.123C647.551 696.388 647.623 696.432 646.39 697.313C638.62 696.416 634.854 694.937 626.264 694.886Z"/><path fill="#130503" d="M566.961 596.242L567.692 599.152C567.402 600.983 567.424 602.077 567.043 604.03C566.86 602.19 567.133 601.21 566.274 599.603C566.486 598.479 566.715 597.359 566.961 596.242Z"/><path fill="#902D17" d="M566.961 596.242C566.973 595.339 566.952 595.196 567.15 594.367L567.591 594.083L567.284 593.968L567.597 593.845L567.619 593.71C568.405 593.955 567.798 598.457 567.692 599.152L566.961 596.242Z"/><path fill="#902D17" d="M570.516 536.021C570.759 536.346 570.992 536.669 571.282 536.941C571.544 536.959 571.542 536.876 571.837 536.658C571.414 541.333 570.484 539.155 570.516 536.021Z"/><path fill="#FC6823" d="M270.972 247.172C256.647 210.78 256.921 167.171 270.851 130.601C273.419 123.859 278.307 124.31 283.829 127.349C309.567 141.253 329.411 159.952 348.116 182.084C380.884 168.482 411.919 169.228 444.657 181.879C449.869 175.889 454.543 169.496 460.081 163.787C469.128 154.458 500.718 126.523 512.977 125.722C514.826 125.602 516.242 126.082 517.626 127.324C526.078 134.901 530.3 172.517 530.566 184.171C531.055 205.514 528.924 226.163 521.597 246.37C532.281 262.152 542.548 282.781 545.09 301.713C524.652 276.272 500.605 269.121 471.459 285.645C463.106 290.381 454.278 296.033 445.224 299.104C436.809 289.402 432.193 286.309 418.871 286.23C399.861 286.117 379.782 284.285 361.069 287.826C355.33 288.912 350.976 293.872 347.37 298.048C343.178 296.548 337.846 293.538 334.069 291.264C317.506 281.295 301.783 273.531 282.159 278.687C266.734 282.739 258.637 289.654 248.073 300.673C250.548 281.581 260.357 262.974 270.972 247.172ZM290.009 222.717C287.639 211.294 286.375 202.416 285.41 190.745C285.64 183.281 284.378 178.404 288.368 171.71C298.714 172.642 307.057 185.573 312.913 193.48C314.368 195.368 315.642 197.298 317.086 199.17C319.11 197.765 321.239 196.501 323.137 194.944C325.395 193.63 327.686 192.373 330.006 191.172C328.729 189.344 327.55 187.711 326.242 185.91C325.318 183.889 319.428 176.507 317.706 174.362C316.67 173.152 315.81 172.066 314.723 170.857C313.272 168.523 305.216 160.322 302.851 158.466C298.813 154.594 293.444 150.023 288.738 147.083C286.631 145.911 283.346 143.442 281.107 145.756L280.717 146.143C278.237 150.527 277.493 153.37 276.313 158.28C269.521 187.884 270.226 205.805 279.476 234.32C282.247 231.549 288.04 225.79 290.009 222.717ZM488.431 159.223C486.548 161.416 482.787 164.451 481.353 166.626C475.711 172.892 467.399 183.45 463.391 190.886C466.105 192.487 468.699 194.362 471.393 195.929C471.935 196.553 473.137 197.32 473.9 197.91C474.247 198.349 474.586 198.793 474.92 199.242C476.017 197.765 477.001 196.269 478.084 194.801C480.001 192.225 481.964 189.684 483.971 187.178C485.305 185.894 487.489 183.137 488.604 181.647C493.417 177.362 495.68 173.061 502.306 171.696C503.054 172.421 503.246 172.655 504.128 173.195C506.098 177.024 505.874 180.257 506.66 184.437C506.317 187.3 506.57 190.532 506.393 193.5C506.124 198.019 505.736 202.122 505.256 206.616C504.527 209.037 503.481 217.893 503.453 220.414C503.294 221.499 503.123 222.583 502.943 223.665C506.041 227.111 508.846 230.789 512.073 234.297C514.881 227.846 514.929 225.839 516.869 219.594C517.476 216.287 518.221 212.952 518.765 209.636L518.994 206.98C519.145 205.529 519.369 204.037 519.476 202.6C519.611 197.841 520.299 188.231 519.581 183.763C519.638 179.561 519.412 177.508 518.862 173.332C519 170.094 515.878 157.822 514.914 154.264C514.522 152.721 512.016 146.452 510.825 145.22C510.208 144.581 507.043 145.212 506.169 145.381C504.709 146.277 503.184 147.147 501.882 148.269C501.462 148.105 500.99 148.147 500.606 148.383C500.222 148.619 499.971 149.02 499.927 149.469C497.664 150.922 490.272 157.185 488.431 159.223Z"/><path d="M288.368 171.71C298.714 172.642 307.057 185.573 312.913 193.48C314.368 195.368 315.642 197.298 317.086 199.17C316.245 200.166 316.059 200.122 314.997 200.924C306.688 207.199 297.364 215.32 290.009 222.717C287.639 211.294 286.375 202.416 285.41 190.745C285.64 183.281 284.378 178.404 288.368 171.71Z"/><path d="M488.604 181.647C493.417 177.362 495.68 173.061 502.306 171.696C503.054 172.421 503.246 172.655 504.128 173.195C506.098 177.024 505.874 180.257 506.66 184.437C506.317 187.3 506.57 190.532 506.393 193.5C506.124 198.019 505.736 202.122 505.256 206.616C504.527 209.037 503.481 217.893 503.453 220.414C503.294 221.499 503.123 222.583 502.943 223.665C500.374 221.433 497.343 218.212 494.87 215.725C488.672 209.494 481.541 204.837 474.92 199.242C476.017 197.765 477.001 196.269 478.084 194.801C480.001 192.225 481.964 189.684 483.971 187.178C485.305 185.894 487.489 183.137 488.604 181.647Z"/><path fill="#DDD0BE" d="M437.07 226.59C460.131 224.746 456.999 251.879 430.832 258.304C409.359 260.212 408.866 233.514 437.07 226.59Z"/><path fill="#DDD0BE" d="M347.54 226.589C358.35 225.85 369.613 231.654 374.729 241.112C379.078 249.151 373.096 254.798 366.359 257.661C348.191 260.681 325.009 236.408 347.54 226.589Z"/><path fill="#DFD5C2" fill-opacity="0.44313726" d="M276.313 158.28C277.493 153.37 278.237 150.527 280.717 146.143C282.669 146.797 281.126 147.371 283.938 147.812C283.847 147.934 283.756 148.057 283.665 148.18C284.181 148.784 288.57 146.303 287.267 150.837C286.713 152.762 288.466 154.117 290.302 154.795L292.983 155.814C296.378 157.695 297.57 162.606 302.851 158.466C305.216 160.322 313.272 168.523 314.723 170.857L314.319 171.408C312.824 173.358 315.456 178.813 316.2 179.072C317.77 178.041 313.309 177.559 317.706 174.362C319.428 176.507 325.318 183.889 326.242 185.91C324.372 187.668 323.253 192.453 323.137 194.944C321.239 196.501 319.11 197.765 317.086 199.17C315.642 197.298 314.368 195.368 312.913 193.48C312.978 193.054 313.037 192.628 313.09 192.202C313.494 188.721 316.855 186.188 313.721 182.274C311.326 179.283 309.839 173.957 308.455 170.019C306.539 164.569 304.243 166.131 299.486 163.798C294.152 162.33 295.005 158.129 291.535 159.065C290.87 159.351 290.289 163.758 289.945 164.78L289.658 165.671C288.08 170.444 290.037 169.675 290.187 170.722L290.164 170.706C289.581 171.409 289.261 171.25 288.368 171.71C284.378 178.404 285.64 183.281 285.41 190.745C284.739 186.919 284.847 178.461 284.707 174.086C279.485 167.194 285.665 163.165 276.313 158.28Z"/><path d="M468.452 257.213C472.146 256.934 476.895 256.944 480.674 256.842C465.206 268.56 448.636 272.059 429.853 274.417C426.14 274.526 421.784 275.035 418.03 275.385C434.656 262.633 447.235 258.437 468.452 257.213Z"/><path d="M311.165 256.516C333.761 257.75 355.838 260.33 374.005 275.466C355.315 276.595 325.674 268.496 311.165 256.516Z"/><path fill="#DFD5C2" fill-opacity="0.72941178" d="M501.882 148.269C503.184 147.147 504.709 146.277 506.169 145.381C508.592 147.478 508.116 151.191 508.301 154.306L509.004 155.008C512.259 158.233 513.269 162.876 509.949 166.057C506.683 169.186 506.453 169.78 504.128 173.195C503.246 172.655 503.054 172.421 502.306 171.696C502.353 171.5 502.399 171.465 502.338 171.298C501.539 170.621 498.146 171.149 496.997 170.948C496.004 170.774 492.383 176.78 492.903 172.471C493.279 169.366 491.999 170.735 493.665 169.299C493.698 168.573 491.566 168.29 491.081 168.171C494.287 164.095 491.996 161.473 488.431 159.223C490.272 157.185 497.664 150.922 499.927 149.469C499.854 150.209 500.358 150.883 501.088 151.023C501.819 151.163 502.536 150.723 502.742 150.008C502.948 149.293 502.575 148.539 501.882 148.269Z"/><defs><linearGradient id="gradient_0" gradientUnits="userSpaceOnUse" x1="307.89636" y1="170.79013" x2="295.19843" y2="176.38852"><stop offset="0" stop-color="#E0D7C2" stop-opacity="0.64313728"/><stop offset="1" stop-color="#DED5C5" stop-opacity="0.68627453"/></linearGradient></defs><path fill="url(#gradient_0)" d="M288.368 171.71C289.261 171.25 289.581 171.409 290.164 170.706L290.187 170.722C290.037 169.675 288.08 170.444 289.658 165.671L289.945 164.78C290.289 163.758 290.87 159.351 291.535 159.065C295.005 158.129 294.152 162.33 299.486 163.798C304.243 166.131 306.539 164.569 308.455 170.019C309.839 173.957 311.326 179.283 313.721 182.274C316.855 186.188 313.494 188.721 313.09 192.202C313.037 192.628 312.978 193.054 312.913 193.48C307.057 185.573 298.714 172.642 288.368 171.71Z"/><path fill="#E3DACC" fill-opacity="0.43137255" d="M507.927 185.845C509.061 182.134 511.299 176.327 509.353 172.764C509.805 170.418 513.383 166.465 513.641 164.742C514.214 160.911 513.004 159.29 514.617 155.08L514.914 154.264C515.878 157.822 519 170.094 518.862 173.332C518.275 175.122 518.119 178.767 518.194 178.689C517.866 178.689 517.538 178.688 517.21 178.687C515.034 181.754 514.255 186.313 514.874 190C515.655 194.649 514.805 201.134 517.175 205.239C516.667 204.391 519.349 207.403 518.994 206.98L518.765 209.636C517.085 208.123 515.052 209.75 514.296 205.001C514.078 203.632 514.063 194.407 513.67 193.761L513.581 193.776C513.988 193.374 512.049 202.306 511.959 202.685C511.849 202.773 511.908 202.756 511.787 202.747C511.141 200.764 511.295 198.629 511.161 196.579C511.732 190.222 510.711 192.285 507.927 185.845Z"/><path fill="#DFD5C2" fill-opacity="0.51764709" d="M507.137 189.116C508.734 190.208 510.583 193.924 510.986 195.796L511.161 196.579C511.295 198.629 511.141 200.764 511.787 202.747C511.908 202.756 511.849 202.773 511.959 202.685C512.049 202.306 513.988 193.374 513.581 193.776L513.67 193.761C514.063 194.407 514.078 203.632 514.296 205.001C515.052 209.75 517.085 208.123 518.765 209.636C518.221 212.952 517.476 216.287 516.869 219.594C516.338 219.254 514.86 217.933 514.546 217.788C512.891 217.02 510.924 219.587 509.776 219.29C506.764 218.511 505.588 220.063 503.453 220.414C503.481 217.893 504.527 209.037 505.256 206.616C507.029 206.862 506.213 207.365 507.466 208.503C510.492 211.252 510.579 205.993 510.042 204.261C509.704 203.171 509.506 201.442 509.243 200.249C508.938 198.648 508.854 196.7 508.358 195.19C508.201 194.712 508.043 194.257 507.76 193.836C506.865 192.713 507.196 190.611 507.137 189.116Z"/><path fill="#DFD5C2" fill-opacity="0.0078431377" d="M481.353 166.626C482.373 167.332 481.838 167.034 482.485 167.76C484.557 170.087 485.138 168.553 487.836 171.212C485.928 173.585 483.849 176.185 481.521 178.128C481.325 178.026 479.204 176.859 479.03 177.057C477.875 178.37 476.624 176.873 475.532 178.012C473.043 180.607 475.442 184.154 473.268 186.857C472.381 187.96 471.894 190.408 471.747 191.743C471.28 193.782 471.374 193.767 471.393 195.929C468.699 194.362 466.105 192.487 463.391 190.886C467.399 183.45 475.711 172.892 481.353 166.626Z"/><path fill="#E3DACC" fill-opacity="0.45882353" d="M506.169 145.381C507.043 145.212 510.208 144.581 510.825 145.22C512.016 146.452 514.522 152.721 514.914 154.264L514.617 155.08C513.004 159.29 514.214 160.911 513.641 164.742C513.383 166.465 509.805 170.418 509.353 172.764C511.299 176.327 509.061 182.134 507.927 185.845C510.711 192.285 511.732 190.222 511.161 196.579L510.986 195.796C510.583 193.924 508.734 190.208 507.137 189.116C507.034 187.556 507.155 185.844 506.66 184.437C505.874 180.257 506.098 177.024 504.128 173.195C506.453 169.78 506.683 169.186 509.949 166.057C513.269 162.876 512.259 158.233 509.004 155.008L508.301 154.306C508.116 151.191 508.592 147.478 506.169 145.381Z"/><path fill="#DFD5C2" fill-opacity="0.86666667" d="M488.722 170.817C489.492 169.531 489.986 169.218 491.081 168.171C491.566 168.29 493.698 168.573 493.665 169.299C491.999 170.735 493.279 169.366 492.903 172.471C492.383 176.78 496.004 170.774 496.997 170.948C498.146 171.149 501.539 170.621 502.338 171.298C502.399 171.465 502.353 171.5 502.306 171.696C495.68 173.061 493.417 177.362 488.604 181.647C487.669 181.362 486.737 181.087 485.809 180.778C484.072 181.983 480.147 186.521 478.058 182.355C479.395 180.368 479.649 180.032 481.504 178.39C481.494 178.467 480.743 182.861 482.491 180.75C483.858 178.729 485.741 180.014 487.234 177.739C488.315 176.092 493.312 171.943 488.722 170.817Z"/><path fill="#DDD0BE" fill-opacity="0.1882353" d="M488.431 159.223C491.996 161.473 494.287 164.095 491.081 168.171C489.986 169.218 489.492 169.531 488.722 170.817L487.836 171.212C485.138 168.553 484.557 170.087 482.485 167.76C481.838 167.034 482.373 167.332 481.353 166.626C482.787 164.451 486.548 161.416 488.431 159.223Z"/><path fill="#E3DACC" fill-opacity="0.094117649" d="M471.393 195.929C471.374 193.767 471.28 193.782 471.747 191.743C471.894 190.408 472.381 187.96 473.268 186.857C475.442 184.154 473.043 180.607 475.532 178.012C476.624 176.873 477.875 178.37 479.03 177.057C479.204 176.859 481.325 178.026 481.521 178.128L481.504 178.39C479.649 180.032 479.395 180.368 478.058 182.355C477.807 182.552 477.554 182.746 477.299 182.938C476.578 184.895 476.41 186.506 476.075 188.502C475.721 190.614 477.279 192.71 475.197 194.309C474.335 194.97 474.336 196.76 473.9 197.91C473.137 197.32 471.935 196.553 471.393 195.929Z"/><path fill="#E3DACC" fill-opacity="0.27450982" d="M518.862 173.332C519.412 177.508 519.638 179.561 519.581 183.763C519.1 182.613 518.813 181.962 518.736 180.718C518.665 182.384 518.105 183.292 517.501 184.752C516.038 188.287 516.543 192.78 517.008 196.501C517.071 197.006 518.637 203.174 518.747 203.246C519.038 203.127 519.252 202.809 519.476 202.6C519.369 204.037 519.145 205.529 518.994 206.98C519.349 207.403 516.667 204.391 517.175 205.239C514.805 201.134 515.655 194.649 514.874 190C514.255 186.313 515.034 181.754 517.21 178.687C517.538 178.688 517.866 178.689 518.194 178.689C518.119 178.767 518.275 175.122 518.862 173.332Z"/><path fill="#DFD5C2" fill-opacity="0.25098041" d="M288.738 147.083C293.444 150.023 298.813 154.594 302.851 158.466C297.57 162.606 296.378 157.695 292.983 155.814C292.279 152.568 288.722 153.752 288.718 150.769L288.738 147.083Z"/><path fill="#DFD5C2" fill-opacity="0.47843137" d="M477.299 182.938C478.553 189.507 478.831 183.072 483.971 187.178C481.964 189.684 480.001 192.225 478.084 194.801C477.001 196.269 476.017 197.765 474.92 199.242C474.586 198.793 474.247 198.349 473.9 197.91C474.336 196.76 474.335 194.97 475.197 194.309C477.279 192.71 475.721 190.614 476.075 188.502C476.41 186.506 476.578 184.895 477.299 182.938Z"/><path fill="#DDD0BE" fill-opacity="0.65098041" d="M506.66 184.437C507.155 185.844 507.034 187.556 507.137 189.116C507.196 190.611 506.865 192.713 507.76 193.836C508.043 194.257 508.201 194.712 508.358 195.19C508.854 196.7 508.938 198.648 509.243 200.249C509.506 201.442 509.704 203.171 510.042 204.261C510.579 205.993 510.492 211.252 507.466 208.503C506.213 207.365 507.029 206.862 505.256 206.616C505.736 202.122 506.124 198.019 506.393 193.5C506.57 190.532 506.317 187.3 506.66 184.437Z"/><path fill="#E3DACC" fill-opacity="0.074509807" d="M519.476 202.6C519.252 202.809 519.038 203.127 518.747 203.246C518.637 203.174 517.071 197.006 517.008 196.501C516.543 192.78 516.038 188.287 517.501 184.752C518.105 183.292 518.665 182.384 518.736 180.718C518.813 181.962 519.1 182.613 519.581 183.763C520.299 188.231 519.611 197.841 519.476 202.6Z"/><path fill="#E3DACC" fill-opacity="0.92156863" d="M488.722 170.817C493.312 171.943 488.315 176.092 487.234 177.739C485.741 180.014 483.858 178.729 482.491 180.75C480.743 182.861 481.494 178.467 481.504 178.39L481.521 178.128C483.849 176.185 485.928 173.585 487.836 171.212L488.722 170.817Z"/><path fill="#DFD5C2" fill-opacity="0.37254903" d="M280.717 146.143L281.107 145.756C283.346 143.442 286.631 145.911 288.738 147.083L288.718 150.769C288.722 153.752 292.279 152.568 292.983 155.814L290.302 154.795C288.466 154.117 286.713 152.762 287.267 150.837C288.57 146.303 284.181 148.784 283.665 148.18C283.756 148.057 283.847 147.934 283.938 147.812C281.126 147.371 282.669 146.797 280.717 146.143Z"/><path fill="#DFD5C2" fill-opacity="0.60000002" d="M478.058 182.355C480.147 186.521 484.072 181.983 485.809 180.778C486.737 181.087 487.669 181.362 488.604 181.647C487.489 183.137 485.305 185.894 483.971 187.178C478.831 183.072 478.553 189.507 477.299 182.938C477.554 182.746 477.807 182.552 478.058 182.355Z"/><path fill="#DFD5C2" fill-opacity="0.40392157" d="M317.706 174.362C313.309 177.559 317.77 178.041 316.2 179.072C315.456 178.813 312.824 173.358 314.319 171.408L314.723 170.857C315.81 172.066 316.67 173.152 317.706 174.362Z"/><path fill="#DFD5C2" fill-opacity="0.67450982" d="M499.927 149.469C499.971 149.02 500.222 148.619 500.606 148.383C500.99 148.147 501.462 148.105 501.882 148.269C502.575 148.539 502.948 149.293 502.742 150.008C502.536 150.723 501.819 151.163 501.088 151.023C500.358 150.883 499.854 150.209 499.927 149.469Z"/><path fill="#FC6823" d="M258.85 337.844C261.958 341.023 270.255 356.283 273.833 361.42C303.456 403.946 313.841 428 319.629 478.932C312.533 470.352 306.442 462.856 300.208 453.639C273.287 415.524 262.917 383.723 258.85 337.844Z"/><path fill="#FC6823" d="M293.294 464.52C296.258 463.995 295.293 461.596 296.058 466.865L296.068 467.245C295.68 468.531 295.495 469.373 295.238 470.683C294.08 478.875 293.445 486.313 294.117 494.358C295.722 513.549 302.633 530.277 311.318 547.145C312.44 549.325 313.356 554.825 310.908 556.513C307.02 559.358 299.802 555.044 296.34 552.88C286.786 546.91 279.416 545.585 268.363 546.069C268.646 523.097 280.306 483.428 293.294 464.52Z"/><path d="M427.71 635.447C433.634 643.274 439.923 654.164 445.134 662.749C452.085 675.29 459.01 690.379 459.064 705.008C448.223 692.473 433.546 651.985 427.71 635.447Z"/><path d="M535.17 341.483C534.268 350.208 532.754 359.923 531.317 368.61C526.955 371.495 509.327 386.775 504.62 387.426C513.247 375.025 522.285 363.266 529.838 350.101C531.359 347.449 533.244 343.689 535.17 341.483Z"/><path fill="#FE7840" d="M293.294 464.52C294.804 461.783 297.185 457.915 299.163 455.512C298.779 459.208 297.124 463.245 296.058 466.865C295.293 461.596 296.258 463.995 293.294 464.52Z"/><path fill="#1D1B19" d="M326.23 640.57C327.2 643.311 327.999 646.366 329.091 648.99L327.245 648.412C326.665 646.305 326.443 642.801 326.23 640.57Z"/><path fill="#E3DACC" d="M296.068 467.245C296.494 468.452 296.762 469.535 297.383 470.665L296.736 472.337C296.386 473.147 296.445 473.523 296.174 474.19L296.187 474.082C296.162 474.042 295.338 471.035 295.238 470.683C295.495 469.373 295.68 468.531 296.068 467.245Z"/><path d="M381.084 293.673C404.812 292.08 435.809 292.307 408.489 324.01C405.867 327.052 402.475 328.376 398.66 329.193C408.149 341.234 431.689 352.488 444.944 339.252C447.667 336.533 449.66 328.903 451.952 325.272L453.097 325.174L453.608 325.862C453.948 330.033 451.627 335.588 449.665 339.254C440.428 356.521 416.174 351.86 402.484 343.153C399.258 340.733 397.781 339.394 394.886 336.563C394.379 337.171 393.859 337.767 393.326 338.351C382.197 350.634 358.57 356.746 345.117 344.925C342.173 342.338 333.227 328.36 337.581 325.292C339.534 326.328 341.278 333.024 342.659 335.594C352.223 353.397 381.95 343.579 390.747 329.849L391.138 329.226C381.23 326.521 375.372 319.422 371.705 310.117C368.254 301.36 373.2 296.187 381.084 293.673Z"/><path d="M433.044 360.531C430.682 363.914 428.948 365.868 426.169 368.964C423.951 371.013 422.081 372.674 419.613 374.435C410.994 380.687 400.231 383.228 389.726 381.49C376.677 379.248 366.831 371.283 359.325 360.776C383.056 368.978 409.613 370.792 433.044 360.531Z"/><path fill="#DFD5C2" fill-opacity="0.15294118" d="M300.975 459.302C303.162 460.393 303.334 461.065 304.252 463.253C300.825 463.067 301.385 462.955 300.975 459.302Z"/><path fill="#DDD0BE" d="M269.054 594.889C272.076 598.173 276.505 606.645 279.527 610.919C292.435 629.175 310.15 650.819 329.632 662.16L327.245 648.412L329.091 648.99C339.281 672.749 350.072 695.566 366.489 715.785C373.191 724.039 379.739 731.228 387.642 738.405C388.068 738.791 388.387 739.339 388.229 739.898L386.483 744.495C384.781 749.838 383.436 755.227 382.215 760.698C377.667 781.079 373.076 801.668 369.129 822.175C364.955 839.371 362.548 857.015 359.328 874.416C357.798 882.684 356.701 895.49 352.579 902.695C348.604 909.644 342.611 916.358 339.799 924.217C329.4 956.647 325.559 958.366 292.967 959.44C290.427 959.42 288.564 959.948 286.82 958.359C283.102 959.805 272.664 958.754 268.279 958.477C267.259 957.839 266.222 957.197 265.27 956.459C261.73 953.719 259.481 949.448 258.921 945.044C258.346 940.52 259.533 935.089 261.232 930.883C271.227 906.147 300.019 909.599 306.471 900.74C310.881 894.684 311.739 864.512 311.509 856.089C311.24 846.246 309.974 836.315 309.035 826.516C308.253 818.36 307.811 810.143 306.618 802.035C305.349 790.94 304.715 778.897 303.838 767.754C302.617 753.966 301.519 740.168 300.545 726.36C299.55 711.043 298.826 694.203 296.246 679.126C294.521 669.039 288.188 661.183 284.373 652.066C276.868 633.732 271.72 614.519 269.054 594.889Z"/><path fill="#FC6823" d="M269.054 594.889C272.076 598.173 276.505 606.645 279.527 610.919C292.435 629.175 310.15 650.819 329.632 662.16C331.611 670.862 333.532 678.954 336.067 687.503C328.97 697.389 324.479 704.922 321.989 717.019C320.371 725.176 319.805 733.506 320.305 741.806C321.248 756.905 326.984 782.115 316.458 795.664C313.926 798.923 310.298 800.442 306.618 802.035C305.349 790.94 304.715 778.897 303.838 767.754C302.617 753.966 301.519 740.168 300.545 726.36C299.55 711.043 298.826 694.203 296.246 679.126C294.521 669.039 288.188 661.183 284.373 652.066C276.868 633.732 271.72 614.519 269.054 594.889Z"/><path d="M327.245 648.412L329.091 648.99C339.281 672.749 350.072 695.566 366.489 715.785C373.191 724.039 379.739 731.228 387.642 738.405C388.068 738.791 388.387 739.339 388.229 739.898L386.483 744.495C384.781 749.838 383.436 755.227 382.215 760.698C377.667 781.079 373.076 801.668 369.129 822.175C369.269 809.715 374.258 797.637 373.36 782.956C371.647 754.932 362.288 746.038 350.953 724.158C344.843 712.438 339.859 700.165 336.067 687.503C333.532 678.954 331.611 670.862 329.632 662.16L327.245 648.412Z"/><path d="M286.82 958.359L286.591 957.955C283.906 953.288 281.086 949.553 280.346 944.002C278.377 929.233 288.029 924.38 299.674 920.616C295.356 924.437 290.553 927.371 287.635 932.558C282.369 941.922 286.507 951.891 292.967 959.44C290.427 959.42 288.564 959.948 286.82 958.359Z"/><path fill="#FAF9F9" fill-opacity="0.16470589" d="M388.229 739.898C390.364 741.344 394.353 744.007 396.062 745.743C395.966 745.942 395.836 746.133 395.793 746.35C395.772 746.452 395.785 746.522 395.853 746.601C395.89 746.643 395.937 746.675 395.97 746.719C396.096 746.886 396.181 747.017 396.15 747.231C395.734 750.084 392.7 749.324 391.316 750.688C391.195 750.807 390.942 751.143 390.745 751.212C390.422 751.324 390.213 751.278 389.918 751.115C388.847 750.526 388.593 749.808 388.29 748.669C388.105 747.974 388.046 747.428 387.591 746.868C387.296 746.506 387.154 746.2 386.983 745.757C386.819 745.334 386.658 744.914 386.483 744.495L388.229 739.898Z"/><path fill="#FAF9F9" fill-opacity="0.88235295" d="M741.103 696.346C744.66 696.936 749.211 697.317 752.571 698.271C751.123 700.028 748.809 702.162 747.831 703.589C745.43 704.198 744.263 704.321 741.91 703.991C741.628 702.31 742.118 700.469 740.254 700.376C738.479 700.287 737.541 699.991 738.715 698.296C739.946 699.337 746.58 699.159 741.103 696.346Z"/><path fill="#FAF9F9" fill-opacity="0.88235295" d="M865.275 730.653C868.348 729.373 867.687 728.756 870.119 726.848C870.372 730.239 870.291 734.558 870.868 737.779C870.946 738.497 871.011 739.218 871.063 739.939L868.299 738.88C867.159 736.098 866.123 733.539 865.275 730.653Z"/><path fill="#E3DACC" fill-opacity="0.29411766" d="M864.803 850.833C866.969 852.727 869.024 848.376 869.566 854.745C867.86 855.241 868.437 855.077 867.041 856.086C865.723 857.039 861.56 856.702 859.646 856.906C860.76 855.569 863.758 851.81 864.803 850.833Z"/><path fill="#FAF9F9" fill-opacity="0.50588238" d="M859.646 856.906C861.56 856.702 865.723 857.039 867.041 856.086C868.437 855.077 867.86 855.241 869.566 854.745L869.656 855.316C865.916 857.164 870.458 857.933 863.622 861.421C861.838 858.359 860.175 860.371 856.622 860.195C857.468 859.242 858.73 857.68 859.646 856.906Z"/><path fill="#FAF9F9" fill-opacity="0.78039217" d="M800.218 912.588C803.082 911.729 805.019 911.179 807.82 910.181C807.295 916.788 808.478 913.172 809.715 918.107L809.857 918.651C809.248 918.326 806.789 916.239 807.296 916.229C804.799 916.279 804.095 916.683 801.394 916.438C801.266 916.293 800.965 916.077 800.99 915.872C801.014 915.686 801.39 915.527 801.465 915.485C802.044 915.161 802.434 914.971 802.859 914.451C803.173 914.067 803.39 913.867 803.334 913.374C803.055 913.017 801.865 913.048 801.378 912.915L800.218 912.588Z"/><path fill="#FAF9F9" fill-opacity="0.66666669" d="M856.622 860.195C860.175 860.371 861.838 858.359 863.622 861.421C862.652 861.77 858.472 863.836 858.219 863.679C856.641 862.703 854.591 862.012 856.622 860.195Z"/><path fill="#DDD0BE" fill-opacity="0.95294118" d="M870.119 726.848C870.774 726.017 870.578 725.289 871.065 724.769C871.44 724.713 872.533 728.001 872.671 728.466C872.059 731.393 871.291 734.887 870.868 737.779C870.291 734.558 870.372 730.239 870.119 726.848Z"/><path fill="#DFD5C2" fill-opacity="0.37254903" d="M685.122 718.303C684.248 719.731 684.386 721.801 683.761 721.762C682.727 720.472 679.242 718.439 679.34 717.611C680.613 716.596 680.537 716.819 681.64 715.49C683.062 716.527 683.818 717.182 685.122 718.303Z"/><path fill="#E3DACC" fill-opacity="0.93333334" d="M879.956 793.565C880.261 795.097 880.421 795.661 880.502 797.202C880.49 802.96 880.923 801.113 876.376 806.109C877.935 801.72 878.792 798.017 879.956 793.565Z"/><path fill="#FAF9F9" fill-opacity="0.49803922" d="M714.137 724.486C712.844 723.35 708.851 724.19 710.055 720.517C711.225 722.331 713.085 720.754 715.825 721.035C715.032 722.632 714.798 722.929 714.438 724.622L714.137 724.486Z"/><path fill="#FAF9F9" fill-opacity="0.84705883" d="M798.473 912.936C799.228 912.74 799.433 912.699 800.218 912.588L801.378 912.915C801.865 913.048 803.055 913.017 803.334 913.374C803.39 913.867 803.173 914.067 802.859 914.451C802.434 914.971 802.044 915.161 801.465 915.485C801.39 915.527 801.014 915.686 800.99 915.872C800.965 916.077 801.266 916.293 801.394 916.438C800.764 916.263 800.142 916.063 799.518 915.867C799.176 914.86 798.856 913.93 798.473 912.936Z"/><path fill="#DFD5C2" fill-opacity="0.39215687" d="M690.682 722.544C692.745 724.231 693.799 725.276 695.472 727.35C695.073 727.854 693.928 729.135 693.543 728.455C692.861 727.25 691.247 723.737 690.682 722.544Z"/><path fill="#FAF9F9" fill-opacity="0.93333334" d="M738.715 698.296C739.206 697.567 739.628 696.948 740.154 696.244L741.103 696.346C746.58 699.159 739.946 699.337 738.715 698.296Z"/><path fill="#E3DACC" fill-opacity="0.93725491" d="M798.473 912.936C798.856 913.93 799.176 914.86 799.518 915.867C794.901 914.58 794.301 914.885 798.473 912.936Z"/><path fill="#DFD5C2" fill-opacity="0.92941177" d="M888.706 791.43C889.063 790.834 889.571 789.683 890.201 789.332C890.847 789.496 890.342 792.218 890.295 792.675L888.706 791.43Z"/></svg>