<?xml version="1.0" encoding="utf-8" ?><svg xmlns="http://www.w3.org/2000/svg" xmlns:xlink="http://www.w3.org/1999/xlink" width="1024" height="1024" viewBox="0 0 1024 1024"><path fill="#161515" d="M531.383 226.745C532.744 223.666 534.057 218.279 538.067 219.526C541.332 222.684 541.864 227.287 544.569 231.288C550.064 231.515 556.984 231.63 562.27 232.143C573.734 233.256 594.534 238.51 603.812 245.085C608.196 244.235 621.379 240.564 625.192 242.341C626.005 242.72 626.105 246.797 627.707 249.619C630.524 250.484 632.78 250.827 634.347 253.431C634.752 255.777 633.632 256.924 632.165 258.56C633.473 260.053 639.535 264.045 641.533 265.67C651.292 273.604 662.048 284.208 660.951 297.923C659.948 310.47 651.368 319.506 649.965 332.519C648.959 341.846 656.591 353.243 653.157 360.474C648.286 364.443 638.098 352.544 635.787 348.658C632.215 342.652 630.987 335.574 629.617 328.785L629.56 328.341C629.525 328.037 629.53 327.167 629.217 326.873C628.801 326.997 627.994 328.919 627.759 329.377C626.203 332.448 623.199 335.094 622.528 336.637C619.764 342.994 617.586 351.453 614.048 357.46C627.037 375.161 632.633 376.656 637.888 400.395C648.104 405.173 640.443 418.774 636.442 425.028C630.412 434.453 620.972 443.583 608.894 439.452C585.831 451.708 563.876 444.885 548.688 424.556C546.892 437.637 547.388 450.931 550.156 463.841C551.105 468.31 557.738 491.008 550.921 491.32C547.949 489.924 546.914 488.357 545.071 485.632C544.417 490.479 544.598 495.66 543.857 500.737C541.33 518.051 535.263 531.298 522.557 543.202C519.483 556.799 516.54 570.676 514.856 584.515C509.418 629.188 509.884 703.558 532.608 743.077C554.719 741.672 570.933 749.12 572.651 773.699L605.058 773.496C604.897 758.148 603.74 742.336 602.899 727L600.031 669.376L596.228 589.143C595.319 568.731 594.621 547.445 593.189 527.107C587.315 523.055 568.624 510.645 567.129 504.359C566.67 502.427 566.929 500.475 568.003 498.789C569.066 497.12 570.704 495.681 572.682 495.271C578.837 493.993 585.969 502.018 590.979 504.996C591.162 505.105 591.348 505.21 591.532 505.317C591.764 500.999 591.429 494.653 591.327 490.191C588.265 490.235 581.8 490.613 579.162 489.608C577.138 486.352 577.363 472.628 579.595 469.32C583.325 467.35 590.515 468.02 594.985 468.086C611.867 454.014 635.291 445.088 656.515 439.936C662.37 438.514 668.776 437.533 674.786 436.219C674.945 428.287 674.231 418.706 680.974 412.712C692.595 402.381 714.754 407.948 729.284 406.437C736.48 405.688 744.752 408.044 749.583 413.116C755.932 419.783 755.656 427.51 755.507 435.993L756.012 436.07C778.341 439.509 821.214 449.894 834.862 468.522C837.186 468.454 843.62 467.973 844.631 469.759C846.152 472.448 846.454 487.957 844.561 489.863C841.776 490.48 834.945 490.17 831.75 490.175C831.227 496.028 830.828 501.891 830.553 507.761C835.881 504.534 845.849 494.799 851.938 495.07C853.908 495.158 855.559 496.138 856.804 497.636C858.192 499.306 858.851 501.295 858.515 503.458C857.318 511.178 836.367 523.889 829.531 528.784C828.825 552.457 826.42 580.123 824.972 604.058L815.078 773.481C844.258 773.876 873.52 773.371 902.703 773.58C904.904 773.596 908.936 774.025 909.593 776.469L908.917 777.643C906.635 779.38 893.634 778.632 889.992 778.642L851.8 778.738L715.5 778.608L241.694 778.743L158.709 778.738C146.044 778.715 133.378 778.678 120.712 778.674C118.412 778.674 115.799 778.855 113.913 777.537C113.431 775.693 113.441 776.605 113.979 774.701C114.769 774.043 115.119 773.573 116.27 773.601C135.381 774.067 156.098 772.237 175.078 773.468L180.31 770.451C173.822 770.347 157.127 770.368 152.576 766.027C151.162 762.03 155.124 760.561 158.09 758.75C146.09 757.882 132.566 753.443 125.98 741.363C125.438 740.369 126.114 739.274 126.585 738.401C128.586 737.097 131.361 737.358 134.085 737.155C118.436 722.71 113.069 709.245 116.258 687.671C117.753 677.56 121.413 665.378 128.365 657.65C128.846 656.385 133.146 657.139 133.215 657.992C134.353 672.394 134.62 684.39 140.893 697.829C154.161 726.253 195.976 745.036 225.526 729.967C224.031 724.997 220.871 718.496 219.127 713.123C211.511 689.657 211.104 676.431 215.539 653.037C212.362 654.477 208.486 657.212 205.861 654.003C205.057 648.477 218.181 632.926 221.983 627.735C218.686 628.106 214.563 629.403 212.446 626.55C212.416 623.216 218.259 615.76 220.236 612.612C224.291 606.077 227.995 599.332 231.331 592.403C233.81 587.252 235.95 582.028 238.223 576.747C257.119 532.835 278.169 488.648 310.51 452.868C318.27 444.283 326.807 436.314 334.76 427.911C351.792 409.973 368.64 391.862 385.302 373.581C381.924 374.567 378.387 376.418 375.919 373.231C375.174 366.728 386.906 361.333 391.012 357.711C392.885 356.058 397.009 354.733 398.211 353.247C396.42 350.954 392.064 351.684 390.759 348.588C391.499 345.549 393.224 345.167 396.117 344.482C419.932 338.844 436.573 328.205 449.67 307.262C448.684 305.303 446.526 301.104 445.006 299.748C442.603 301.081 441.715 302.219 439.27 300.83C437.788 298.483 437.547 294.675 437.451 292.067C436.594 268.663 453.458 260.593 472.953 255.117C479.433 253.297 494.961 245.481 499.32 240.714C497.917 238.509 495.372 237.65 496.988 235.265C503.931 231.834 517.764 235.573 525.07 237.081C523.463 234.037 521.184 230.486 519.366 227.49C517.411 224.486 516.015 221.94 520.391 221.042C524.207 222.635 527.884 224.543 531.383 226.745ZM267.041 577.003C267.984 575.381 271.143 571.205 269.397 570.251C268.687 571.331 264.771 576.345 267.041 577.003ZM532.526 233.866C532.258 233.676 528.358 230.888 528.302 230.887C528.099 231.101 529.5 234.008 529.678 234.793C530.845 238.025 534.185 241.852 533.652 244.446C528.795 247.141 514.404 236.543 506.146 239.568C506.324 240.699 506.483 241.155 506.06 242.234C499.339 248.407 489.84 253.976 481.314 257.508C464.691 264.395 444.522 265.583 442.648 288.271C442.531 289.681 442.804 291.369 443.352 292.666C445.271 292.336 445.472 292.225 447.275 292.905C450.769 295.831 458.086 314.739 459.922 319.483C461.699 324.072 464.187 338.425 462.189 343.272C458.757 351.6 454.034 363.053 469.786 361.841C485.044 360.667 496.021 349.708 500.632 335.525C507.555 317.201 514.776 298.986 523.77 281.584C525.777 277.747 528.267 270.683 531.451 267.891C532.973 268.03 532.269 267.772 533.538 268.911C535.137 273.71 525.119 290.426 522.512 295.791C523.933 297.018 525.612 298.395 526.933 299.698C513.748 322.013 503.553 340.594 515.271 366.483C513.193 369.576 511.623 371.358 509.153 374.178C511.76 373.143 516.149 370.55 517.406 374.036C517.07 376.115 516.259 377.305 515.26 379.178C517.254 377.944 518.893 376.573 521.14 376.507C523.975 378.196 521.906 384.545 521.541 387.712C524.432 383.256 525.911 382.64 530.995 381.017C531.018 394.951 531.868 408.339 542.319 418.705C542.831 419.212 543.349 419.715 543.871 420.212C543.64 416.867 542.532 410.064 544.395 407.765C547.962 407.437 549.63 416.246 551.308 419.067C565.802 443.44 596.084 448.647 615.801 426.966C609.108 424.85 605.485 423.656 601.96 417.03C596.946 407.605 600.792 395.496 613.045 397.75C619.977 399.026 625.348 399.638 632.416 399.521C630.815 391.735 629.136 386.799 625.047 380.025C615.714 364.564 597.738 352.466 600.724 332.207C601.164 329.223 603.004 320.079 606.7 320.46C611.306 320.936 617.837 326.745 621.333 329.55C632.23 309.577 632.029 291.672 619.856 272.037C618.037 269.102 613.225 267.106 614.75 263.58C616.221 262.466 615.423 262.725 617.199 262.692C622.63 265.214 628.717 277.193 630.791 282.784C634.844 293.706 634.86 305.024 632.425 316.31C640.353 307.974 642.736 300.488 642.641 288.975C642.571 280.517 640.151 272.607 633.874 266.647C631.326 264.228 628.175 261.974 625.864 259.717C626.772 258.369 627.7 257.034 628.648 255.714C626.109 255.006 620.277 253.756 618.558 252.332C617.851 250.851 617.321 249.668 616.713 248.143C610.779 248.727 608.565 250.528 603.857 251.503L603.344 251.259C602.536 250.354 602.515 250.353 601.489 249.643L601.135 249.542L600.656 249.23C595.109 245.853 584.812 242.278 578.491 240.595C574.027 239.407 553.778 235.213 550.569 237.107C550.422 237.482 550.344 239.866 550.226 240.649C544.194 239.202 540.234 233.199 537.254 228.199C535.474 230.938 534.755 231.631 532.526 233.866ZM483.121 773.365C491.214 773.983 500.795 772.996 508.96 773.201C495.643 761.407 495.089 752.584 491.632 735.381C486.207 733.314 482.73 732.124 479.658 726.636C476.091 720.265 481.222 709.838 480.86 706.981C479.742 698.161 466.402 602.421 465.38 600.552C455.839 606.023 447.774 610.812 437.616 615.198C434.559 644.419 431.539 719.009 452.822 741.193C470.884 745.255 483.004 753.097 483.121 773.365ZM495.875 729.859C498.335 738.141 499.029 746.946 501.675 755.622C502.506 757.55 503.442 759.495 504.641 761.227C506.062 763.171 506.707 764.183 508.597 765.77C511.698 768.26 511.841 768.396 515.245 770.482C517.03 771.368 519.581 771.86 521.583 772.541C523.732 773.907 539.624 773.393 542.827 773.345C543.166 767.629 543.089 765.507 540.526 760.425C537.931 758.989 536.857 758.949 536.625 755.918C538.431 753.222 541.307 754.165 543.281 756.136C547.936 760.785 547.701 767.409 547.665 773.515C550.822 773.793 553.897 773.656 557.063 773.587C557.101 770.155 557.535 762.702 555.069 759.932C554.703 759.52 552.244 759.07 551.013 757.29C551.225 755.448 551.14 755.473 552.186 753.827C552.881 753.46 553.51 752.904 554.276 753.238C562.356 756.756 562.321 766.795 561.589 773.649C563.861 773.668 565.526 773.774 567.776 773.354C569.151 768.587 564.182 758.899 560.651 755.679C551.48 747.316 541.466 748.228 530.007 748.445C513.155 726.418 509.413 680.988 507.147 653.973C506.659 648.162 509.437 627.62 500.619 630.364C489.9 633.699 502.171 656.223 493.903 658.587C485.525 657.082 487.402 647.93 480.281 663.405C481.561 678.184 485.283 693.334 485.912 708.11C486.126 713.163 481.083 720.023 485.37 725.825C487.799 729.112 492.227 729.249 495.875 729.859ZM316.562 483.04C321.079 484.408 326.829 486.723 331.324 485.021C332.164 481.56 332.643 480.324 334.697 477.526C337.667 475.362 340.801 472.847 344.166 471.472C347.155 472.127 350.158 472.708 353.175 473.216C357.267 468.463 357.653 461.179 362.239 458.548C363.851 457.623 364.933 459.141 364.905 460.926C366.78 461.542 370.277 459.284 371.994 458.267C371.745 457.6 371.418 456.935 371.262 456.238C371.773 455.035 382.131 444.426 384.474 440.844C383.115 437.649 382.371 436.644 379.749 434.386C373.098 428.466 385.733 419.002 387.669 413.051C389.932 406.093 385.381 408.4 381.657 404.575C378.604 401.615 376.079 397.966 373.534 394.539C361.01 408.748 346.745 422.424 333.572 436.069C326.801 443.082 316.595 452.268 310.963 459.966C311.036 461.599 311.27 465.255 310.896 466.674C308.597 475.373 303 482.754 316.562 483.04ZM427.001 744.417C426.241 747.647 425.984 750.11 425.978 753.402C424.738 754.38 423.699 754.324 422.08 754.577C420.959 752.089 420.859 753.245 421.088 750.08C421.224 749.318 421.35 748.634 421.449 747.863C421.676 744.769 423.079 736.189 427.523 742.02C427.353 742.82 427.179 743.619 427.001 744.417ZM837.463 509.297C835.942 510.287 833.188 511.921 832.868 513.502C832.827 513.709 832.434 513.978 832.291 514.087L831.835 513.912C829.956 513.116 829.754 521.704 829.541 523.136C830.341 522.391 832.608 520.644 833.106 519.949C835.245 518.597 839.542 515.444 841.464 513.821C844.81 511.791 848.068 508.982 851.344 506.831C854.201 504.779 854.748 503.262 852.497 500.505C850.36 497.888 846.271 502.409 844.345 503.84C842.236 505.407 839.347 507.519 837.463 509.297ZM735.463 420.617C722.7 420.436 708.625 420.293 695.903 420.577C690.179 423.707 687.027 426.627 688.882 433.818L689.424 434.385C693.125 434.416 696.332 433.607 699.924 433.549C710.638 433.376 723.809 432.883 734.376 433.849L741.446 434.157C742.294 426.689 742.165 424.791 735.463 420.617ZM446.864 742.897C437.816 730.202 434.388 711.753 432.355 696.511L432.217 695.878L430.83 682.867C430.858 682.172 430.332 673.199 430.18 672.671C430.013 670.44 429.692 667.914 429.561 665.813C428.751 665.532 428.147 665.34 427.318 665.094C425.59 665.95 425.093 666.337 423.186 666.142C422.49 664.683 421.045 663.687 419.563 663.118C418.063 662.346 418.124 661.687 417.133 661.276L417.264 661.269L417.149 661.26C416.477 664.761 417.031 665.016 417.175 668.66C416.944 672.681 418.848 671.471 417.189 675.915C416.273 675.807 415.46 675.762 414.539 675.704C413.981 674.572 413.489 673.699 412.856 672.608C412.127 669.075 411.54 666.55 411.44 662.927C407.784 656.406 406.736 650.884 398.213 651.699C399.317 662.954 400.091 674.369 400.425 685.536C400.77 697.071 393.609 713.074 404.596 721.318C405.486 721.986 406.715 722.937 407.467 723.701L407.677 725.426C407.396 731.474 407.941 748.192 408.849 753.772C413.651 774.946 420.465 773.724 440.529 773.426C443.275 773.385 439.922 761.575 438.495 759.342L438.376 758.841C439.621 756.191 441.122 756.014 443.356 757.619L443.796 757.79C446.324 763.01 445.933 767.856 446.262 773.52C452.139 773.58 458.016 773.551 463.892 773.433C465.21 762.444 464.166 763.757 458.391 756.214C459.07 754.594 459.017 754.685 460.175 753.35C462.07 753.923 462.415 754.097 464.248 754.881C469.37 762.477 468.893 764.621 469.015 773.524C472.213 773.53 475.243 773.552 478.439 773.426C478.038 762.861 474.45 754.61 464.278 750.237C461.292 748.414 454.621 746.811 451.109 745.817C450.302 745.427 449.488 745.053 448.667 744.694C448.124 744.03 448.056 744.062 447.253 743.548L446.864 742.897ZM186.343 773.266C190.48 773.397 194.619 773.418 198.757 773.329C201.53 773.263 202.989 772.007 205.321 770.503C213.077 765.516 218.313 760.949 220.647 751.727C219.536 746.018 218.429 744.456 215.579 739.48C168.328 746.275 130.046 714.595 128.408 666.621C116.38 687.754 116.617 718.794 137.757 733.285C140.387 735.087 146.525 738.677 148.278 740.717C147.938 744.966 140.842 743.838 137.643 743.668C134.516 743.193 132.282 742.488 136.31 745.636C152.681 760.486 168.113 749.129 175.006 752.993C176.308 757.081 164.071 762.541 160.776 764.191C167.58 765.336 173.176 765.99 180.331 765.169C186.086 764.509 193.46 760.755 199.273 759.908C199.883 760.165 200.493 760.422 201.103 760.679L201.811 761.688C201.279 764.095 199.993 764.792 198.004 765.981L195.9 767.241C193.234 768.618 188.791 771.582 186.343 773.266ZM606.589 343.463C606.772 344.11 609.227 351.444 610.474 351.239C610.795 351.186 611.827 349.315 612.145 348.796C613.051 346.96 613.721 345.416 614.552 343.579C611.35 343.429 609.673 343.505 606.589 343.463ZM722.262 413.875C725.071 413.693 734.091 414.749 736.881 413.495C736.976 413.453 736.94 413.388 736.912 413.302C735.787 412.45 723.256 412.902 720.83 412.892C719.701 411.922 710.906 412.601 708.617 412.268C708.511 412.311 712.55 412.097 714.294 411.65C709.41 411.556 704.525 411.563 699.641 411.67C697.555 412.146 698.266 412.848 696 412.622C695.069 412.53 692.181 413.416 690.945 413.641L690.712 414.109C689.465 414.833 688.604 415.659 687.275 416.139C682.644 419.868 684.921 421.352 688.014 416.957C689.114 416.113 689.232 416.08 690.504 415.446C691.799 415.16 692.823 414.826 694.085 414.465C695.412 414.421 697.05 413.733 698.001 413.82C701.966 414.182 706.896 413.444 710.686 413.792C714.534 414.18 718.409 414.208 722.262 413.875ZM433.357 748.461C433.477 750.181 433.54 755.513 432.521 756.942L431.899 758.187C429.039 757.255 428.651 757.495 428.284 754.474L428.153 753.509C429.052 750.242 427.836 750.85 429.682 747.523C431.152 747.816 431.916 747.993 433.357 748.461ZM346.953 645.017C344.357 637.13 339.809 628.834 331.541 625.656C326.985 623.904 322.968 621.913 318.135 623.971C316.734 624.708 315.922 624.507 315.603 626.134L315.006 627.051C317.24 629.323 321.503 635.589 316.488 637.403C315.87 637.626 313.198 633.246 312.837 632.718C304.145 634.352 299.133 635.882 292.015 641.078C295.061 645.416 301.06 657.426 295.66 659.599C288.597 662.442 283.597 659.615 290.498 672.827C295.763 676.526 303.295 681.678 309.879 682.4C313.72 680.544 316.288 677.587 317.128 683.455C318.788 684.361 321.381 684.818 323.292 685.262C326.692 684.359 328.197 683.732 331.129 681.815C332.429 680.756 333.056 680.4 333.723 678.924C332.767 674.108 335.667 671.545 337.73 667.025C337.946 666.796 338.099 666.669 338.241 666.399C340.411 666.492 340.375 666.383 342.347 667.172C342.533 667.951 342.373 667.5 342.974 668.465C348.69 665.476 348.167 655.23 347.879 649.827C347.61 648.251 347.186 646.542 346.953 645.017ZM680.378 424.91C680.173 426.472 679.694 434.898 680.384 435.196C684.305 436.886 683.962 433.771 683.95 432.5L683.936 428.326C683.18 432.724 684.255 430.621 680.759 432.879C680.09 432.446 680.406 425.996 680.378 424.91ZM745.664 424.048C750.104 422.819 746.273 421.725 744.199 421.39C744.675 422.283 745.164 423.169 745.664 424.048ZM609.155 339.061C612.199 339.817 612.547 339.729 615.207 338.294L614.629 337.842C613.645 337.042 612.757 336.7 611.483 336.933C610.755 337.062 610.115 337.491 609.719 338.116C609.531 338.431 609.343 338.746 609.155 339.061ZM318.453 773.422C324.355 773.651 333.982 773.674 339.861 773.504L353.903 773.535L353.97 773.05L354.07 772.24C355 764.98 353.237 764.614 348.904 758.458C349.195 756.394 349.186 755.817 351.183 755.457C357.963 757.958 360.26 766.912 359.067 773.51C363.158 773.519 367.362 773.382 371.461 773.297C372.537 760.089 369.581 764.453 365.442 756.759C365.503 755.818 365.715 754.776 366.678 754.346C375.25 750.52 375.919 769.423 377.678 773.322L378.576 773.123C379.291 771.505 379.713 770.116 379.453 768.298C375.141 738.136 338.613 745.665 316.739 747.806L317.862 754.418C316.798 757.195 316.704 757.705 315.014 760.201C312.259 764.267 304.944 766.143 304.373 770.302C305.149 772.042 305.671 772.245 307.189 773.364C310.753 773.407 314.946 773.559 318.453 773.422ZM547.301 475.978C545.059 475.581 545.663 475.513 543.362 475.74C544.998 478.169 546.859 480.57 548.462 483.001C548.141 480.846 547.856 478.039 547.301 475.978ZM417.268 688.542C417.284 692.983 413.929 696.139 413.557 700.267C413.833 703.419 408.951 705.706 408.734 701.5C408.491 696.769 410.655 691.695 413.605 688.244C415.66 687.835 415.273 687.897 417.268 688.542ZM402.531 736.574C402.464 733.541 402.431 730.508 402.431 727.475C402.435 727.021 402.413 726.735 402.289 726.299C401.901 725.986 401.447 725.844 401.019 725.587C395.485 722.259 393.692 714.507 393.476 708.484C393.428 707.117 392.9 706.659 391.768 706.254C388.373 709.313 385.173 713.653 381.797 716.797C376.7 721.543 371.176 726.357 365.845 730.849C370.784 730.512 376.958 730.44 381.875 730.861C390.988 731.323 394.499 732.449 402.531 736.574ZM574.163 499.701C570.62 504.749 571.518 505.033 576.483 508.257C581.824 511.723 586.662 516.104 591.761 519.912C593.487 520.062 592.317 513.246 592.2 511.922C588.426 509.05 578.105 501.342 574.163 499.701Z"/><path fill="#161515" d="M519.366 227.49C517.411 224.486 516.015 221.94 520.391 221.042C520.499 223.017 520.409 225.762 519.366 227.49Z"/><path fill="#8E8982" d="M401.81 348.885C425.864 340.478 436.469 333.97 452.219 313.364C455.541 320.985 457.581 327.281 457.551 335.672C457.522 343.84 452.349 350.241 453.984 358.333C455.596 366.311 464.944 367.188 471.56 367.233C473.837 374.804 482.225 409.257 491.309 407.281C495.141 403.879 492.504 400.865 498.001 396.874C499.095 416.193 503.086 433.771 512.352 451.059C514.381 454.846 520.29 466.747 525.951 462.948C529.544 459.355 526.501 446.966 531.94 444.2C539.445 445.583 546.161 469.166 547.301 475.978C545.059 475.581 545.663 475.513 543.362 475.74C541.424 474.544 542.397 474.692 540.423 474.905C537.586 477.957 539.911 488.596 539.609 493.309C538.635 508.499 533.54 522.502 524.196 534.526C522.292 533.653 522.078 533.156 520.358 533.384C518.719 535.475 515.784 549.208 514.014 553.946C513.855 551.28 513.993 548.94 512.741 546.654L511.828 545.973C509.98 546.67 509.407 547.765 508.603 549.711C505.281 557.749 503.423 565.897 498.392 573.206C498.804 570.672 501.274 560.07 497.296 559.59C493.664 563.3 489.542 570.076 485.712 574.656C474.906 587.577 454.037 603.351 438.119 609.199C439.904 595.656 442.986 574.133 449.601 561.959C450.347 560.585 455.933 554.142 457.442 552.291C461.025 547.895 463.981 543.707 467.271 539.074C468.819 540.667 469.981 541.878 471.687 543.32C477.126 543.336 479.801 526.646 477.675 522.813C475.941 522.122 476.751 522.102 475.171 522.604C472.233 526.379 474.49 533.067 471.163 535.934C468.239 535.077 467.808 533.232 465.044 533.251C463.453 534.38 457.996 542.626 456.586 544.785C453.839 548.991 447.949 554.924 445.657 558.439C440.417 566.48 436.839 582.269 435.282 592.031C432.473 609.643 430.69 628.206 429.621 646.01C429.213 652.799 429.769 659.457 429.561 665.813C428.751 665.532 428.147 665.34 427.318 665.094C425.59 665.95 425.093 666.337 423.186 666.142C422.49 664.683 421.045 663.687 419.563 663.118C418.063 662.346 418.124 661.687 417.133 661.276L417.264 661.269L417.149 661.26C416.477 664.761 417.031 665.016 417.175 668.66C416.944 672.681 418.848 671.471 417.189 675.915C416.273 675.807 415.46 675.762 414.539 675.704C413.981 674.572 413.489 673.699 412.856 672.608C412.127 669.075 411.54 666.55 411.44 662.927C407.784 656.406 406.736 650.884 398.213 651.699C396.897 645.93 395.586 635.169 394.436 628.571C391.006 609.538 387.812 590.464 384.856 571.351C383.475 570.775 380.58 569.765 380.311 568.301C378.501 554.208 387.443 539.715 390.196 525.798C391.379 519.817 395.046 494.864 387.536 492.434C385.547 492.942 386.329 492.446 384.995 493.78C384.782 495.925 386.223 498.809 386.54 501.072C388.742 515.773 384.241 528.702 380.022 542.433C377.281 551.354 369.241 568.993 380.209 574.459C382.772 593.163 385.916 611.783 389.638 630.291C383.987 631.438 381.853 635.733 379.181 640.418C376.446 643.308 377.83 637.679 377.947 635.694C377.933 633.449 378.178 631.493 377.19 629.55L376.472 629.094C373.052 631.223 364.508 643.196 360.484 647.264C358.872 634.46 354.301 622.118 345.969 612.112C348.732 611.761 351.54 611.767 353.441 609.703C353.658 608.83 353.986 607.174 353.263 606.425C337.417 590.008 307.241 589.618 287.15 597.383C282.504 599.179 269.438 606.173 272.345 611.935C273.239 612.323 274.478 612.701 275.3 611.995C279.485 608.4 281.954 605.179 287.287 602.862C305.163 595.095 331.46 594.838 347.213 607.538C343.853 607.448 338.999 606.428 338.154 610.437C339.056 613.409 345.122 619.494 347.677 623.89C358.727 642.908 356.669 667.506 346.257 686.379C337.306 702.512 324.872 716.169 310.483 727.625C306.214 731.023 300.323 733.828 296.716 737.744C293.8 740.909 294.36 746.832 299.351 747.852C305.292 749.066 310.805 747.701 316.739 747.806L317.862 754.418C316.798 757.195 316.704 757.705 315.014 760.201C312.259 764.267 304.944 766.143 304.373 770.302C305.149 772.042 305.671 772.245 307.189 773.364C303.533 773.761 293.62 773.492 289.596 773.481L255.526 773.48C242.339 763.465 245.067 756.978 252.965 744.267C257.471 736.755 264.024 732.279 268.934 724.934C271.993 720.357 272.758 707.888 276.769 707.185C280.643 708.726 280.994 712.466 285.008 711.698C295.979 703.577 293.353 684.094 290.498 672.827C295.763 676.526 303.295 681.678 309.879 682.4C313.72 680.544 316.288 677.587 317.128 683.455C318.788 684.361 321.381 684.818 323.292 685.262C326.692 684.359 328.197 683.732 331.129 681.815C332.429 680.756 333.056 680.4 333.723 678.924C332.767 674.108 335.667 671.545 337.73 667.025C337.946 666.796 338.099 666.669 338.241 666.399C340.411 666.492 340.375 666.383 342.347 667.172C342.533 667.951 342.373 667.5 342.974 668.465C348.69 665.476 348.167 655.23 347.879 649.827C347.61 648.251 347.186 646.542 346.953 645.017C344.357 637.13 339.809 628.834 331.541 625.656C326.985 623.904 322.968 621.913 318.135 623.971C316.734 624.708 315.922 624.507 315.603 626.134L315.006 627.051C317.24 629.323 321.503 635.589 316.488 637.403C315.87 637.626 313.198 633.246 312.837 632.718C304.145 634.352 299.133 635.882 292.015 641.078C289.93 639.63 286.794 634.762 283.999 633.242C263.223 621.945 269.439 637.726 265.984 643.602C261.725 644.536 258.306 635.798 252.801 635.981C242.739 636.314 240.857 656.628 235.646 661.995C229.752 668.067 223.893 671.578 218.063 677.705C217.971 672.85 218.286 667.575 218.983 662.78C219.716 657.733 221.029 653.137 221.159 648.011C220.461 646.588 220.929 647.226 219.39 646.333C217.387 646.036 216.166 646.81 214.221 647.619C216.747 642.833 222.21 635.778 225.687 631.589C228.102 628.68 230.595 626.59 232.927 623.258C233.043 621.189 233.256 622.138 232.241 620.312C229.847 619.683 223.436 622.144 220.671 623.034C222.08 618.904 225.82 613.17 228.12 609.242C231.167 604.054 234.04 598.767 236.736 593.389C238.845 589.148 246.379 569.874 248.127 568.495L248.909 568.833C251.556 574.789 247.969 584.75 252.571 587.637C261.508 588.144 264.863 567.756 270.87 569.146C272.844 571.932 270.811 575.533 274.211 577.86C283.593 578.879 289.333 559.521 295.615 555.793C299.744 553.343 303.368 563.534 309.221 562.042C318.254 554.744 314.159 537.876 314.114 528.236C314.098 524.575 321.451 528.473 323.535 525.872C330.075 517.708 318.327 506.699 316.745 498.386C315.46 492.01 316.057 488.731 316.562 483.04C321.079 484.408 326.829 486.723 331.324 485.021C332.164 481.56 332.643 480.324 334.697 477.526C337.667 475.362 340.801 472.847 344.166 471.472C347.155 472.127 350.158 472.708 353.175 473.216C357.267 468.463 357.653 461.179 362.239 458.548C363.851 457.623 364.933 459.141 364.905 460.926C366.78 461.542 370.277 459.284 371.994 458.267C371.745 457.6 371.418 456.935 371.262 456.238C371.773 455.035 382.131 444.426 384.474 440.844C383.115 437.649 382.371 436.644 379.749 434.386C373.098 428.466 385.733 419.002 387.669 413.051C389.932 406.093 385.381 408.4 381.657 404.575C378.604 401.615 376.079 397.966 373.534 394.539L373.81 394.19C380.256 386.156 388.288 379.02 395.499 371.704C396.483 370.706 396.53 370.461 396.424 369.226C393.624 365.994 388.507 368.367 384.396 368.889C388.937 365.17 393.938 362.051 399.275 359.608C402.908 357.921 410.386 355.681 411.226 351.618C409.246 348.353 405.249 348.925 401.81 348.885ZM267.041 577.003C267.984 575.381 271.143 571.205 269.397 570.251C268.687 571.331 264.771 576.345 267.041 577.003Z"/><path fill="#161515" d="M381.657 404.575C387.017 396.292 397.284 408.794 391.621 416.002C388.02 420.585 383.413 430.555 379.749 434.386C373.098 428.466 385.733 419.002 387.669 413.051C389.932 406.093 385.381 408.4 381.657 404.575Z"/><path fill="#161515" d="M411.44 662.927C412.059 659.925 413.237 652.264 417.488 653.581C422.492 655.131 426.116 660.525 427.318 665.094C425.59 665.95 425.093 666.337 423.186 666.142C422.49 664.683 421.045 663.687 419.563 663.118C418.063 662.346 418.124 661.687 417.133 661.276L417.264 661.269L417.149 661.26C416.477 664.761 417.031 665.016 417.175 668.66C416.944 672.681 418.848 671.471 417.189 675.915C416.273 675.807 415.46 675.762 414.539 675.704C413.981 674.572 413.489 673.699 412.856 672.608C412.127 669.075 411.54 666.55 411.44 662.927Z"/><path fill="#161515" d="M384.474 440.844C385.512 439.755 387.001 438.798 388.372 439.654C393.531 442.878 378.528 454.817 376.792 457.29C375.425 459.237 373.995 458.763 371.994 458.267C371.745 457.6 371.418 456.935 371.262 456.238C371.773 455.035 382.131 444.426 384.474 440.844Z"/><path fill="#161515" d="M353.175 473.216C357.267 468.463 357.653 461.179 362.239 458.548C363.851 457.623 364.933 459.141 364.905 460.926C363.825 463.841 359.1 477.987 355.012 476.993C353.796 476.698 353.182 474.492 353.175 473.216Z"/><path fill="#161515" d="M312.837 632.718C312.069 631.768 310.028 628.922 308.402 627.782C305.793 626.107 304.58 623.175 308.245 622.075C309.542 621.686 314.026 626.273 315.006 627.051C317.24 629.323 321.503 635.589 316.488 637.403C315.87 637.626 313.198 633.246 312.837 632.718Z"/><path fill="#161515" d="M334.697 477.526C339.543 480.349 337.59 480.03 336.508 486.256C336.047 488.908 336.854 494.532 333.496 494.687C329.995 494.8 331.589 487.336 331.324 485.021C332.164 481.56 332.643 480.324 334.697 477.526Z"/><path fill="#161515" d="M309.879 682.4C313.72 680.544 316.288 677.587 317.128 683.455C315.262 684.702 310.443 689.993 308.998 689.817C302.518 689.03 308.085 684.544 309.879 682.4Z"/><path fill="#161515" d="M338.241 666.399C340.411 666.492 340.375 666.383 342.347 667.172C341.676 669.961 338.555 676.751 336.244 678.706C335.815 679.07 334.454 678.94 333.941 678.928L333.723 678.924C332.767 674.108 335.667 671.545 337.73 667.025C337.946 666.796 338.099 666.669 338.241 666.399Z"/><path fill="#98928A" d="M377.947 635.694C378.464 637.427 378.492 638.764 379.181 640.418C376.446 643.308 377.83 637.679 377.947 635.694Z"/><path fill="#161515" d="M490.161 445.236C495.938 447.117 492.342 450.641 492.031 456.004C491.815 459.727 491.941 462.67 490.197 465.811C486.864 465.24 486.39 464.997 486.388 461.255C486.385 455.616 486.87 449.929 490.161 445.236Z"/><path fill="#161515" d="M445.204 393.182C450.816 393.605 448.423 397.019 446.279 400.121C443.981 403.446 445.324 409.982 442.955 412.878L442.411 413.574C441.026 413.233 439.041 412.703 439.095 410.769C439.235 405.765 441.071 397.618 444.525 393.944L445.204 393.182Z"/><path fill="#161515" d="M498.471 460.152C505.155 462.653 499.944 467.543 501.317 474.111C501.945 477.116 501.899 479.408 500.195 481.847C494.354 479.458 497.075 471.799 496.694 466.502C496.591 465.075 497.914 461.584 498.471 460.152Z"/><path fill="#161515" d="M512.141 517.851C519.811 521.61 508.893 527.536 505.187 529.179C497.373 527.269 509.657 519.914 512.141 517.851Z"/><path fill="#161515" d="M265.27 749.207L265.517 749.251C267.442 749.576 269.28 750.364 269.021 752.471C268.385 757.649 270.262 760.246 267.388 764.266C267.08 764.163 266.771 764.059 266.463 763.955C262.499 762.734 264.112 751.848 265.27 749.207Z"/><path fill="#161515" d="M340.809 528.789C345.372 528.936 344.836 529.466 345.846 534.01C346.887 538.698 347.959 538.272 345.863 542.135C340.387 541.731 339.657 532.705 340.809 528.789Z"/><path fill="#161515" d="M512.172 527.33C519.582 528.501 510.191 536.22 508.327 537.84C507.348 537.844 506.742 537.873 506.087 536.963C503.443 533.288 509.789 529.118 512.172 527.33Z"/><path fill="#161515" d="M315.805 689.172C322.607 691.058 316.756 696.51 314.396 700.254C307.893 697.807 312.62 693.162 315.805 689.172Z"/><path fill="#161515" d="M459.739 413.73C461.172 413.969 462.881 414.106 463.094 415.977C463.59 420.335 464.396 422.254 462.005 425.775C461.204 425.479 459.162 424.935 459.01 423.775C458.528 420.098 457.986 417.102 459.739 413.73Z"/><path fill="#161515" d="M349.922 522.151C352.33 522.842 353.193 523.214 353.476 525.987C353.913 530.27 354.853 530.643 352.516 533.837C347.786 532.527 348.096 525.678 349.922 522.151Z"/><path fill="#161515" d="M451.96 409.761C456.142 411.065 456.325 414.074 453.348 416.91L452.627 417.611C448.259 415.387 448.666 413.168 451.96 409.761Z"/><path fill="#161515" d="M393.565 553.704C398.914 554.914 396.989 557.751 394.297 561.204C389.467 560.554 390.376 557.515 392.967 554.443L393.565 553.704Z"/><path fill="#161515" d="M272.772 757.083C277.551 758.137 277.877 760.617 276.429 764.581C271.326 764.409 271.842 761.352 272.772 757.083Z"/><path fill="#161515" d="M418.466 610.772C423.02 612.096 423.011 614.123 420.746 617.716C416.123 616.981 416.122 614.067 418.466 610.772Z"/><path fill="#161515" d="M412.016 615.842C415.685 617.165 416.032 619.646 413.574 622.488L413.087 623.065C409.823 621.749 408.743 619.009 411.396 616.46L412.016 615.842Z"/><path fill="#8E8982" fill-opacity="0.65098041" d="M269.397 570.251C271.143 571.205 267.984 575.381 267.041 577.003C264.771 576.345 268.687 571.331 269.397 570.251Z"/><path fill="#8E8982" d="M821.739 496.254C823.591 496.159 824.079 496.076 825.949 496.449C826.424 497.489 813.449 710.848 811.456 732.557C743.809 732.321 676.16 732.456 608.514 732.962L608.069 726.172C607.406 702.355 605.835 677.666 604.723 653.745C602.465 601.293 599.782 548.86 596.676 496.452L821.739 496.254Z"/><path fill="#8E8982" d="M537.254 228.199C540.234 233.199 544.194 239.202 550.226 240.649C550.159 242.73 551.587 248.725 554.01 249.438L554.728 250C556.207 251.107 556.911 252.159 557.734 253.787L558.661 254.194C559.866 258.826 560.369 260.998 561.265 265.726C565.29 263.891 564.355 263.433 568.625 263.822L569.177 263.868C569.322 263.836 569.468 263.804 569.613 263.771C570.218 263.106 566.588 260.076 566.094 259.648C565.539 259.001 565.624 258.715 565.839 257.919C566.758 255.88 566.837 255.854 568.309 254.062C571.366 253.865 576.422 260.349 578.214 262.567L578.574 263.987C578.513 266.114 578.67 266.859 578.046 268.833C578.25 273.065 577.934 271.432 580.963 274.766C582.364 275.511 583.666 276.384 585.001 277.236L585.807 277.824C587.716 279.287 589.139 279.157 591.574 279.546L591.463 279.848C592.032 280.096 592.602 280.339 593.175 280.578C595.687 288.234 602.928 283.963 598.897 271.702C596.169 268.315 592.684 268.53 595.314 264.382L595.247 263.879C599.091 263.648 598.632 263.04 601.61 264.896C601.675 265.258 601.688 265.633 602.021 265.84C603.013 265.643 602.865 261.848 603.047 260.902C601.492 257.358 598.234 257.802 602.486 255.771C603.016 255.519 603.123 252.323 603.344 251.259L603.857 251.503C608.565 250.528 610.779 248.727 616.713 248.143C617.321 249.668 617.851 250.851 618.558 252.332C620.277 253.756 626.109 255.006 628.648 255.714C627.7 257.034 626.772 258.369 625.864 259.717C628.175 261.974 631.326 264.228 633.874 266.647C640.151 272.607 642.571 280.517 642.641 288.975C642.736 300.488 640.353 307.974 632.425 316.31C634.86 305.024 634.844 293.706 630.791 282.784C628.717 277.193 622.63 265.214 617.199 262.692C615.423 262.725 616.221 262.466 614.75 263.58C613.225 267.106 618.037 269.102 619.856 272.037C632.029 291.672 632.23 309.577 621.333 329.55C617.837 326.745 611.306 320.936 606.7 320.46C603.004 320.079 601.164 329.223 600.724 332.207C597.738 352.466 615.714 364.564 625.047 380.025C629.136 386.799 630.815 391.735 632.416 399.521C625.348 399.638 619.977 399.026 613.045 397.75C600.792 395.496 596.946 407.605 601.96 417.03C605.485 423.656 609.108 424.85 615.801 426.966C596.084 448.647 565.802 443.44 551.308 419.067C549.63 416.246 547.962 407.437 544.395 407.765C542.532 410.064 543.64 416.867 543.871 420.212C543.349 419.715 542.831 419.212 542.319 418.705C531.868 408.339 531.018 394.951 530.995 381.017C525.911 382.64 524.432 383.256 521.541 387.712C521.906 384.545 523.975 378.196 521.14 376.507C518.893 376.573 517.254 377.944 515.26 379.178C516.259 377.305 517.07 376.115 517.406 374.036C516.149 370.55 511.76 373.143 509.153 374.178C511.623 371.358 513.193 369.576 515.271 366.483C503.553 340.594 513.748 322.013 526.933 299.698C525.612 298.395 523.933 297.018 522.512 295.791C525.119 290.426 535.137 273.71 533.538 268.911C532.269 267.772 532.973 268.03 531.451 267.891C528.267 270.683 525.777 277.747 523.77 281.584C514.776 298.986 507.555 317.201 500.632 335.525C496.021 349.708 485.044 360.667 469.786 361.841C454.034 363.053 458.757 351.6 462.189 343.272C464.187 338.425 461.699 324.072 459.922 319.483C458.086 314.739 450.769 295.831 447.275 292.905C445.472 292.225 445.271 292.336 443.352 292.666C442.804 291.369 442.531 289.681 442.648 288.271C444.522 265.583 464.691 264.395 481.314 257.508C489.84 253.976 499.339 248.407 506.06 242.234C506.483 241.155 506.324 240.699 506.146 239.568C514.404 236.543 528.795 247.141 533.652 244.446C534.185 241.852 530.845 238.025 529.678 234.793C530.992 233.78 530.993 234.506 532.526 233.866C534.755 231.631 535.474 230.938 537.254 228.199ZM552.531 337.456C550.688 335.272 550.339 332.663 549.949 331.987C547.786 328.229 544.018 332.673 550.344 339.514C551.777 338.819 551.773 338.855 552.531 337.456ZM582.889 308.081C575.546 307.737 567.716 311.058 582.898 309.974C582.82 309.081 582.803 308.95 582.889 308.081ZM616.266 311.682C616.511 309.284 611.422 305.402 609.408 304.643C606.875 310.766 610.667 310.242 616.266 311.682Z"/><path fill="#161515" d="M595.314 264.382C601.536 264.56 601.532 266.056 604.157 271.796C608.524 281.345 601.365 295.507 590.896 286.087C588.922 284.311 587.302 280.721 591.463 279.848C592.032 280.096 592.602 280.339 593.175 280.578C595.687 288.234 602.928 283.963 598.897 271.702C596.169 268.315 592.684 268.53 595.314 264.382Z"/><path fill="#161515" d="M568.309 254.062C571.366 253.865 576.422 260.349 578.214 262.567L578.574 263.987C578.513 266.114 578.67 266.859 578.046 268.833C574.143 272.509 574.509 271.75 569.652 272.107C563.506 269.819 563.954 264.317 569.497 266.116C579.756 269.446 567.665 259.331 565.839 257.919C566.758 255.88 566.837 255.854 568.309 254.062Z"/><path fill="#F8F6F6" d="M557.734 253.787L558.661 254.194C559.866 258.826 560.369 260.998 561.265 265.726C565.29 263.891 564.355 263.433 568.625 263.822L569.177 263.868C569.322 263.836 569.468 263.804 569.613 263.771C570.218 263.106 566.588 260.076 566.094 259.648C565.539 259.001 565.624 258.715 565.839 257.919C567.665 259.331 579.756 269.446 569.497 266.116C563.954 264.317 563.506 269.819 569.652 272.107C568.029 273.101 567.36 273.462 565.876 274.622C563.474 275.371 562.617 271.608 558.389 269.515C557.78 268.304 559.01 264.665 559.364 262.788C558.523 260.272 557.825 258.683 556.819 256.273C557.114 255.395 557.398 254.647 557.734 253.787Z"/><path fill="#161515" d="M558.389 269.515C562.617 271.608 563.474 275.371 565.876 274.622C567.037 274.82 568.063 274.949 569.232 275.084C572.597 279.604 566.017 281.278 562.807 279.834C560.016 278.578 555.855 274.48 557.607 271.036L558.389 269.515Z"/><path fill="#F7F7F5" d="M569.652 272.107C574.509 271.75 574.143 272.509 578.046 268.833C578.25 273.065 577.934 271.432 580.963 274.766C576.837 274.703 574.609 272.209 569.232 275.084C568.063 274.949 567.037 274.82 565.876 274.622C567.36 273.462 568.029 273.101 569.652 272.107Z"/><path fill="#161515" d="M556.819 256.273C552.099 257.046 550.106 252.123 553.523 249.784L554.01 249.438L554.728 250C556.207 251.107 556.911 252.159 557.734 253.787C557.398 254.647 557.114 255.395 556.819 256.273Z"/><path fill="#161515" d="M568.588 319.498C568.737 319.494 569.754 319.429 569.932 319.665C581.47 334.947 564.124 354.578 547.014 342.87C543.791 339.262 543.29 337.147 542.36 332.472C542.221 331.778 538.265 333.509 537.556 330.982C536.686 327.88 539.658 327.396 542.291 326.671C544.786 325.99 547.285 325.323 549.788 324.67C551.274 324.296 552.762 323.919 554.259 323.589L556.509 323.091C560.91 322.132 564.358 320.921 568.588 319.498ZM552.531 337.456C550.688 335.272 550.339 332.663 549.949 331.987C547.786 328.229 544.018 332.673 550.344 339.514C551.777 338.819 551.773 338.855 552.531 337.456Z"/><path fill="#F8F6F6" d="M552.531 337.456C553.602 337.528 553.664 337.879 554.609 338.318C559.479 340.579 564.855 337.964 566.895 333.137C567.302 332.174 568.535 327.949 568.782 327.761C568.969 327.849 569.237 328.345 569.266 328.525C570.77 337.684 557.495 347.277 550.344 339.514C551.777 338.819 551.773 338.855 552.531 337.456Z"/><path fill="#161515" d="M576.417 302.09C587.596 300.846 592.443 310.255 582.564 316.678C581.666 317.262 576.176 316.925 574.877 316.714C571.886 316.436 562.817 315.745 561.561 312.745C559.232 307.181 572.978 302.874 576.417 302.09ZM582.889 308.081C575.546 307.737 567.716 311.058 582.898 309.974C582.82 309.081 582.803 308.95 582.889 308.081Z"/><path fill="#F8F6F6" d="M567.519 311.314C570.091 309.781 581.027 303.244 582.889 308.081C575.546 307.737 567.716 311.058 582.898 309.974C580.124 314.175 572.495 311.624 567.519 311.314Z"/><path fill="#F8F6F6" fill-opacity="0.031372551" d="M582.898 309.974C567.716 311.058 575.546 307.737 582.889 308.081C582.803 308.95 582.82 309.081 582.898 309.974Z"/><path fill="#161515" d="M579.756 323.842C580.87 324.657 582.46 325.959 582.42 327.492C581.928 346.435 567.35 353.956 551.221 355.594C549.478 355.005 547.238 354.299 548.957 351.499C549.712 350.269 553.291 350.268 554.76 350.096C564.005 349.119 573.57 343.227 576.419 334.005C578.164 328.354 575.293 328.147 579.756 323.842Z"/><path fill="#161515" d="M608.021 300.402C613.703 299.988 613.708 301.975 617.978 305.695C621.517 308.779 626.891 315.765 619.165 317.273C615.608 315.985 607.144 314.163 604.745 311.531C602.062 308.588 603.561 303.798 606.694 301.401L608.021 300.402ZM616.266 311.682C616.511 309.284 611.422 305.402 609.408 304.643C606.875 310.766 610.667 310.242 616.266 311.682Z"/><path fill="#F8F6F6" fill-opacity="0.97254902" d="M609.408 304.643C611.422 305.402 616.511 309.284 616.266 311.682C610.667 310.242 606.875 310.766 609.408 304.643Z"/><path fill="#161515" d="M576.133 366.499C580.531 366.605 590.204 364.389 587.635 371.127C584.647 371.617 580.229 371.827 577.23 371.412C574.534 371.039 575.597 367.955 576.133 366.499Z"/><path fill="#161515" d="M453.509 282.231C455.241 282.337 456.941 282.13 457.906 283.987C459.09 286.264 462.163 288.817 461.674 291.508L461.587 292.047C459.46 292.354 458.124 292.873 456.736 290.772C454.498 287.383 453.038 286.16 453.509 282.231Z"/><path fill="#161515" d="M582.002 374.697C583.027 374.493 584.08 374.872 584.74 375.682C585.4 376.492 585.558 377.6 585.151 378.563C584.745 379.525 583.84 380.184 582.799 380.275C581.306 380.406 579.971 379.347 579.759 377.863C579.547 376.379 580.532 374.989 582.002 374.697Z"/><path fill="#161515" d="M461.273 277.445C462.157 276.955 463.238 276.992 464.086 277.541C464.934 278.089 465.411 279.06 465.326 280.067C465.241 281.073 464.609 281.951 463.681 282.35C462.342 282.926 460.787 282.351 460.144 281.043C459.502 279.735 459.999 278.152 461.273 277.445Z"/><path fill="#8E8982" d="M700.709 438.707C701.58 438.627 702.376 438.576 703.247 438.547C740.039 437.312 778.252 441.776 811.782 457.775C818.018 460.751 822.605 463.613 827.568 468.347L771.968 468.534C766.919 468.557 760.709 468.08 755.666 468.536C754.264 468.662 754.1 469.532 753.563 470.576C753.779 472.579 753.381 471.769 754.631 473.166C757.836 474.358 829.467 473.52 840.655 473.527C840.979 477.743 840.913 480.727 840.791 484.98C810.57 485.293 780.348 485.414 750.125 485.342L583.59 485.06C583.484 481.231 583.297 477.35 583.146 473.518L627.424 473.535C632.775 473.535 648.219 474.424 651.971 472.012C652.975 466.889 636.181 468.482 632.886 468.484L602.345 468.476C636.049 447.059 661.565 441.906 700.709 438.707Z"/><path fill="#161515" d="M666.491 468.563C688.991 467.128 713.274 469.013 735.93 468.312C738.547 468.231 740.753 468.123 742.897 469.628C743.626 471.15 743.392 471.538 743.037 473.186C737.727 474.222 668.049 473.602 666.77 472.845C666.098 471.045 666.299 470.453 666.491 468.563Z"/><path fill="#F7F7F5" fill-opacity="0.14117648" d="M511.285 730.446C515.628 730.77 516.235 731.718 520.002 734.038C519.98 734.845 519.965 740.146 519.706 740.375C518.938 739.81 519.282 738.544 519.377 737.778L519.305 737.786C518.229 740.355 520.767 739.07 516.308 742.19C513.109 741.958 511.183 742.078 507.993 741.197C504.505 740.232 504.208 737.927 505.124 734.77C505.748 732.617 509.463 731.311 511.285 730.446Z"/><path fill="#161515" d="M504.114 703.722C505.263 704.23 506.622 704.67 507.273 705.746C507.258 706.087 503.276 716.506 502.852 717.323C501.803 717.123 498.956 716.745 498.99 715.281C499.075 711.619 502.062 706.528 504.114 703.722Z"/><path fill="#161515" fill-opacity="0.98431373" d="M507.145 715.719C508.143 715.831 509.743 715.79 510.081 716.993C510.805 719.569 509.959 723.733 509.084 726.18C504.532 725.036 504.807 721.525 506.423 717.494L507.145 715.719Z"/><path fill="#8E8982" d="M609.329 755.082C659.887 755.822 711.037 754.651 761.65 755.314C777.937 755.528 794.854 754.852 811.032 755.35L809.861 772.347C809.6 773.036 809.499 773.008 808.992 773.606C788.11 774.366 762.659 773.682 741.477 773.678L610.29 773.547C609.908 767.395 609.587 761.24 609.329 755.082Z"/><path fill="#161515" d="M344.715 444.831C350.504 449.215 339.563 454.492 335.558 458.72C336.936 458.617 342.603 458.057 343.204 458.621C346.577 461.786 342.883 463.192 341.124 463.655L340.178 463.922C337.588 464.058 328.253 465.34 329.57 458.991C330.519 454.416 340.548 447.643 344.715 444.831Z"/><path fill="#161515" d="M366.308 422.371C366.999 422.607 369.568 423.319 369.362 424.489C368.689 428.33 368.15 435.188 366.288 438.463C359.855 437.765 363.767 434.557 363.919 428.74C363.971 426.766 364.87 423.862 366.308 422.371Z"/><path fill="#908983" d="M128.408 666.621C130.046 714.595 168.328 746.275 215.579 739.48C218.429 744.456 219.536 746.018 220.647 751.727C218.313 760.949 213.077 765.516 205.321 770.503C203.583 767.1 204.369 769.086 203.001 770.012C202.727 769.899 200.633 770.595 200.537 770.801C199.899 772.168 193.302 771.698 192.707 771.399C192.907 768.396 196.781 769.571 195.9 767.241L198.004 765.981C199.993 764.792 201.279 764.095 201.811 761.688L201.103 760.679C200.493 760.422 199.883 760.165 199.273 759.908C193.46 760.755 186.086 764.509 180.331 765.169C173.176 765.99 167.58 765.336 160.776 764.191C164.071 762.541 176.308 757.081 175.006 752.993C168.113 749.129 152.681 760.486 136.31 745.636C132.282 742.488 134.516 743.193 137.643 743.668C140.842 743.838 147.938 744.966 148.278 740.717C146.525 738.677 140.387 735.087 137.757 733.285C116.617 718.794 116.38 687.754 128.408 666.621ZM137.866 744.855C138.16 745.016 139.084 745.769 139.409 745.221C139.365 744.578 138.39 744.636 137.991 744.599L137.866 744.855ZM176.883 762.063C177.145 761.866 177.524 761.652 177.641 761.359C177.461 760.165 171.53 760.571 170.795 760.61C167.196 763.614 176.561 762.105 176.883 762.063Z"/><path fill="#98928A" fill-opacity="0.43137255" d="M137.991 744.599C138.39 744.636 139.365 744.578 139.409 745.221C139.084 745.769 138.16 745.016 137.866 744.855L137.991 744.599Z"/><path fill="#8E8982" d="M136.31 745.636C132.282 742.488 134.516 743.193 137.643 743.668L137.991 744.599L137.866 744.855C137.326 745.117 136.838 745.348 136.31 745.636Z"/><path fill="#8E8982" fill-opacity="0.87450981" d="M170.795 760.61C171.53 760.571 177.461 760.165 177.641 761.359C177.524 761.652 177.145 761.866 176.883 762.063C176.561 762.105 167.196 763.614 170.795 760.61Z"/><path fill="#8E8982" d="M608.489 737.724L811.502 737.582C811.507 742.017 811.291 745.963 811.029 750.37L609.069 750.065C608.92 745.926 608.592 741.944 608.489 737.724Z"/><path fill="#F7F7F5" fill-opacity="0.86274511" d="M318.135 623.971C322.968 621.913 326.985 623.904 331.541 625.656C339.809 628.834 344.357 637.13 346.953 645.017C342.919 643.245 344.462 641.712 342.083 638.34C340.376 635.921 338.425 642.468 342.329 640.154L342.13 640.212C342.2 640.187 342.27 640.162 342.34 640.137C342.407 640.278 342.995 642.527 342.748 642.845C341.453 644.511 341.742 645.483 343.394 646.761C345.755 648.587 344.426 651.114 345.381 653.183C345.268 654.167 344.91 658.292 344.649 658.817C343.834 660.454 345.493 662.539 345.868 661.033C346.697 657.698 347.023 653.392 347.879 649.827C348.167 655.23 348.69 665.476 342.974 668.465C342.373 667.5 342.533 667.951 342.347 667.172C342.346 666.858 342.367 666.226 342.318 665.945C342.202 665.288 341.794 664.719 341.209 664.4C339.88 663.667 338.933 664.637 338.48 665.807L338.241 666.399C338.099 666.669 337.946 666.796 337.73 667.025C334.221 667.61 336.442 671.908 331.998 672.333C330.955 672.433 329.671 673.773 330.11 674.986C331.573 677.903 331.689 678.389 331.129 681.815C328.197 683.732 326.692 684.359 323.292 685.262C321.381 684.818 318.788 684.361 317.128 683.455C316.288 677.587 313.72 680.544 309.879 682.4C303.295 681.678 295.763 676.526 290.498 672.827C283.597 659.615 288.597 662.442 295.66 659.599C301.06 657.426 295.061 645.416 292.015 641.078C299.133 635.882 304.145 634.352 312.837 632.718C313.198 633.246 315.87 637.626 316.488 637.403C321.503 635.589 317.24 629.323 315.006 627.051L315.603 626.134C316.096 627.012 316.825 628.628 317.79 629.045C318.087 629.175 318.424 629.172 318.718 629.036C320.577 628.163 319.112 625.703 318.544 624.701L318.135 623.971ZM323.628 654.473L323.887 654.503C325.957 659.67 329.567 656.062 327.228 651.044L325.662 651.259C322.825 648.802 323.124 647.41 324.154 643.954C321.567 643.4 321.812 641.105 320.302 642.673C320.44 642.53 314.939 639.446 317.38 642.816C316.822 643.183 314.751 642.259 314.739 644.487C314.738 644.796 314.799 646.772 314.724 646.933C314.231 646.606 314.797 642.733 313.893 642.354C311.98 641.554 312.872 646.616 313.247 647.501C313.709 648.592 314.482 655.762 316.253 655.314C316.84 654.419 315.558 653.681 316.211 652.125C316.088 652.004 317.762 656.261 317.734 656.107C317.906 657.051 316.294 657.503 317.125 658.878C317.208 658.909 319.428 657.657 319.804 657.486L319.502 657.043C317.695 654.441 316.578 650.986 316.065 647.998C315.744 646.131 315.343 643.529 317.707 643.657C319.438 643.751 319.894 643.566 320.412 645.486C321.266 648.656 322.478 651.489 323.628 654.473ZM324.698 683.463C330.504 681.185 325.471 679.801 321.621 680.107L321.22 680.496C317.764 683.804 319.097 683.243 324.698 683.463ZM291.305 669.583C292.317 666.032 293.39 663.032 289.837 661.709C288.198 665.327 288.623 666.274 291.305 669.583Z"/><path fill="#F7F7F5" fill-opacity="0.98431373" d="M319.804 657.486C319.428 657.657 317.208 658.909 317.125 658.878C316.294 657.503 317.906 657.051 317.734 656.107C317.762 656.261 316.088 652.004 316.211 652.125C315.558 653.681 316.84 654.419 316.253 655.314C314.482 655.762 313.709 648.592 313.247 647.501C312.872 646.616 311.98 641.554 313.893 642.354C314.797 642.733 314.231 646.606 314.724 646.933C314.799 646.772 314.738 644.796 314.739 644.487C314.751 642.259 316.822 643.183 317.38 642.816C314.939 639.446 320.44 642.53 320.302 642.673C321.812 641.105 321.567 643.4 324.154 643.954C323.124 647.41 322.825 648.802 325.662 651.259C325.065 652.977 325.016 653.111 323.887 654.503L323.628 654.473C322.478 651.489 321.266 648.656 320.412 645.486C319.894 643.566 319.438 643.751 317.707 643.657C315.343 643.529 315.744 646.131 316.065 647.998C316.578 650.986 317.695 654.441 319.502 657.043L319.804 657.486Z"/><path fill="#161515" d="M319.804 657.486L319.502 657.043C317.695 654.441 316.578 650.986 316.065 647.998C315.744 646.131 315.343 643.529 317.707 643.657C319.438 643.751 319.894 643.566 320.412 645.486C321.266 648.656 322.478 651.489 323.628 654.473C322.687 656.37 322.229 656.752 320.218 657.355L319.804 657.486Z"/><path fill="#161515" d="M324.154 643.954C328.568 644.874 329.987 646.971 327.228 651.044L325.662 651.259C322.825 648.802 323.124 647.41 324.154 643.954Z"/><path fill="#F7F7F5" fill-opacity="0.49411765" d="M321.621 680.107C325.471 679.801 330.504 681.185 324.698 683.463C319.097 683.243 317.764 683.804 321.22 680.496L321.621 680.107Z"/><path fill="#F8F6F6" fill-opacity="0.74117649" d="M325.662 651.259L327.228 651.044C329.567 656.062 325.957 659.67 323.887 654.503C325.016 653.111 325.065 652.977 325.662 651.259Z"/><path fill="#F8F6F6" fill-opacity="0.34509805" d="M289.837 661.709C293.39 663.032 292.317 666.032 291.305 669.583C288.623 666.274 288.198 665.327 289.837 661.709Z"/><path fill="#F7F7F5" fill-opacity="0.70588237" d="M432.355 696.511C434.388 711.753 437.816 730.202 446.864 742.897C444.597 744.234 443.215 746.886 441.588 749.117C440.815 747.28 440.078 744.242 438.313 743.321C436.897 742.808 433.887 738.197 432.258 738.831C431.559 739.103 428.043 741.042 427.523 742.02C423.079 736.189 421.676 744.769 421.449 747.863C419.979 745.548 419.991 743.688 419.331 742.802C416.258 738.671 418.663 738.378 423.221 733.784C423.341 733.096 423.246 729.921 423.223 729.038C424.53 719.218 413.089 721.69 417.332 712.053C419.254 713.373 419.227 713.508 421.459 713.296C425.212 710.214 423.807 713.702 427.998 713.075C430.823 712.653 432.602 706.542 431.605 704.644C429.914 701.429 429.851 699.826 431.942 696.918L432.355 696.511Z"/><path fill="#F7F7F5" fill-opacity="0.30588236" d="M318.453 773.422C319.233 773.304 323.22 772.937 323.376 772.667C324.73 769.803 320.789 764.696 321.761 762.19C323.493 758.439 319.254 755.689 324.002 754.012C329.936 751.916 341.111 749.482 342.72 757.809C343.439 761.533 349.468 758.395 346.111 764.883C345.528 759.709 341.709 768.389 345.95 765.559C344.815 770.834 339.103 768.305 338.199 772.692L338.198 772.675L338.54 773.084C339.124 773.154 339.314 773.261 339.861 773.504C333.982 773.674 324.355 773.651 318.453 773.422Z"/><path fill="#F8F6F6" fill-opacity="0.015686275" d="M408.849 753.772C408.909 752.797 408.812 750.016 409.297 749.398C409.737 749.214 409.801 749.127 410.186 748.784L410.142 748.776C409.43 748.138 411.759 752.25 412.041 752.616C413.777 754.184 417.687 751.775 416.787 758.75C416.675 759.618 417.047 763.38 418.011 763.921C418.888 764.36 420.555 765.622 421.532 765.063L421.597 764.806C420.972 764.215 419.366 764.086 418.65 762.881C418.647 762.737 418.625 762.843 418.908 762.526C420.874 761.938 419.584 761.655 420.301 760.644C421.05 760.826 420.621 760.832 421.038 761.168C421.872 761.841 424.252 761.652 425.243 761.617C425.798 762.417 425.299 763.721 425.665 764.614C425.955 762.144 428.037 761.356 422.654 760.344C419.321 759.717 420.577 755.785 422.08 754.577C423.699 754.324 424.738 754.38 425.978 753.402C427.06 753.54 427.132 753.575 428.153 753.509L428.284 754.474C428.651 757.495 429.039 757.255 431.899 758.187C433.716 759.553 431.954 770.006 434.751 764.185C435.332 762.976 437.296 761.306 438.495 759.342C439.922 761.575 443.275 773.385 440.529 773.426C420.465 773.724 413.651 774.946 408.849 753.772Z"/><path fill="#908983" d="M714.294 411.65C725.604 411.457 745.336 408.278 749.246 422.017C747.159 423.494 749.649 423.318 745.914 424.692L745.664 424.048C750.104 422.819 746.273 421.725 744.199 421.39C740.486 417.307 737.592 415.546 731.955 415.565C719.666 415.606 706.937 414.983 694.708 415.905C689.06 416.33 684.177 422.703 683.936 428.326C683.18 432.724 684.255 430.621 680.759 432.879C680.09 432.446 680.406 425.996 680.378 424.91C681.138 414.199 690.71 411.861 699.641 411.67C697.555 412.146 698.266 412.848 696 412.622C695.069 412.53 692.181 413.416 690.945 413.641L690.712 414.109C689.465 414.833 688.604 415.659 687.275 416.139C682.644 419.868 684.921 421.352 688.014 416.957C689.114 416.113 689.232 416.08 690.504 415.446C691.799 415.16 692.823 414.826 694.085 414.465C695.412 414.421 697.05 413.733 698.001 413.82C701.966 414.182 706.896 413.444 710.686 413.792C714.534 414.18 718.409 414.208 722.262 413.875C725.071 413.693 734.091 414.749 736.881 413.495C736.976 413.453 736.94 413.388 736.912 413.302C735.787 412.45 723.256 412.902 720.83 412.892C719.701 411.922 710.906 412.601 708.617 412.268C708.511 412.311 712.55 412.097 714.294 411.65Z"/><path fill="#F8F6F6" fill-opacity="0.49019608" d="M417.189 675.915C420.818 674.523 418.67 672.955 421.043 671.271C424.987 674.615 425.827 671.353 430.18 672.671C430.332 673.199 430.858 682.172 430.83 682.867C430.431 682.495 430.572 682.578 430.365 682.492C428.972 682.852 428.124 691.482 428.029 692.814L426.827 692.913C427.145 691.686 427.325 690.857 427.536 689.613C427.396 685.604 427.054 686.401 428.443 682.802C429.267 680.668 428.249 677.122 427.675 675.122C428.048 674.787 428.702 675.092 429.161 674.982C429.646 674.109 427.406 674.09 426.818 674.511C425.596 674.961 424.42 679.257 424.986 680.245C426.52 682.925 425.024 684.734 425.478 686.806C425.542 688.846 424.61 692.809 426.827 692.913C427.243 694.549 427.041 695.513 427.721 697.195C428.06 698.031 427.178 702.573 426.244 703.242C425.201 703.989 424.529 703.564 423.576 703.886C423.288 705.072 423.769 706.813 423.234 708.642L423.222 708.635C430.291 713.283 429.007 706.151 427.924 702.728C427.912 702.691 429.605 698.97 429.345 698.242C429.208 697.362 430.345 697.224 430.988 697.105L431.942 696.918C429.851 699.826 429.914 701.429 431.605 704.644C432.602 706.542 430.823 712.653 427.998 713.075C423.807 713.702 425.212 710.214 421.459 713.296C421.777 708.712 421.559 705.157 421.673 700.713C422.684 697.343 420.801 696.719 423.689 693.386L424.298 692.66C425.626 690.256 425.022 688.592 423.993 686.189C424.365 681.369 418.118 684.664 419.218 678.493C419.357 677.717 416.748 676.421 416.18 676.05C415.633 675.934 415.086 675.819 414.539 675.704C415.46 675.762 416.273 675.807 417.189 675.915Z"/><path fill="#F7F7F5" fill-opacity="0.19607843" d="M578.646 264.633C579.317 265.023 581.104 266.428 581.256 266.397C584.024 265.821 582.464 263.392 580.669 262.897C579.142 262.475 580.852 259.212 580.546 257.99C580.187 255.962 577.282 255.893 576.852 254.043C576.15 251.02 570.487 250.245 575.341 246.708C580.599 242.877 580.2 248.292 584.754 248.912C587.156 249.238 590.931 246.886 591.9 249.506C593.363 254.518 596.159 251.223 599.795 251.094C600.076 251.072 600.358 251.051 600.639 251.03C600.967 250.673 601.036 249.973 601.135 249.542L601.489 249.643C601.403 250.336 601.412 251.127 601.009 251.727C599.203 252.518 596.893 251.883 594.689 254.161C593.812 255.067 592.198 255.465 591.754 257.297C589.917 260.64 586.207 263.03 584.205 266.19C582.987 268.113 582.175 267.708 580.154 267.7C579.645 266.58 579.241 265.71 578.646 264.633Z"/><path fill="#F8F6F6" fill-opacity="0.27450982" d="M407.677 725.426C408.65 727.505 407.608 729.978 408.432 731.726C414.77 732.967 408.634 737.366 414.696 732.952C417.822 728.646 418.34 730.542 422.38 729.305L423.223 729.038C423.246 729.921 423.341 733.096 423.221 733.784C418.663 738.378 416.258 738.671 419.331 742.802C419.991 743.688 419.979 745.548 421.449 747.863C421.35 748.634 421.224 749.318 421.088 750.08C418.21 748.613 415.751 750.082 413.266 748.745C412.898 748.547 412.292 746.439 411.664 746.321C411.619 746.37 411.574 746.419 411.529 746.467L411.752 746.4C411.428 747.101 412.02 751.425 412.041 752.616C411.759 752.25 409.43 748.138 410.142 748.776L410.186 748.784C409.801 749.127 409.737 749.214 409.297 749.398C408.812 750.016 408.909 752.797 408.849 753.772C407.941 748.192 407.396 731.474 407.677 725.426Z"/><path fill="#8E8982" d="M574.163 499.701C578.105 501.342 588.426 509.05 592.2 511.922C592.317 513.246 593.487 520.062 591.761 519.912C586.662 516.104 581.824 511.723 576.483 508.257C571.518 505.033 570.62 504.749 574.163 499.701ZM589.687 515.552L589.233 514.656C588.414 512.92 587.479 512.564 585.73 512.012C586.878 513.842 587.639 514.521 589.687 515.552ZM583.098 509.445C583.032 509.187 583.02 508.957 582.869 508.757C582.612 508.715 582.49 508.824 582.105 509.022C582.168 509.378 582.124 509.455 582.305 509.66C582.529 509.603 582.753 509.546 582.976 509.489C583.017 509.474 583.057 509.46 583.098 509.445Z"/><path fill="#8E8982" fill-opacity="0.78823531" d="M585.73 512.012C587.479 512.564 588.414 512.92 589.233 514.656L589.687 515.552C587.639 514.521 586.878 513.842 585.73 512.012Z"/><path fill="#8E8982" fill-opacity="0.92156863" d="M582.105 509.022C582.49 508.824 582.612 508.715 582.869 508.757C583.02 508.957 583.032 509.187 583.098 509.445C583.057 509.46 583.017 509.474 582.976 509.489C582.753 509.546 582.529 509.603 582.305 509.66C582.124 509.455 582.168 509.378 582.105 509.022Z"/><path fill="#F7F7F5" fill-opacity="0.30980393" d="M601.489 249.643C602.515 250.353 602.536 250.354 603.344 251.259C603.123 252.323 603.016 255.519 602.486 255.771C598.234 257.802 601.492 257.358 603.047 260.902C600.939 262.437 601.678 261.747 599.572 262.477C593.031 263.735 594.271 260.664 590.052 264.916C589.132 265.842 585.083 265.997 584.298 268.329C583.449 269.812 580.348 269.13 580.154 267.7C582.175 267.708 582.987 268.113 584.205 266.19C586.207 263.03 589.917 260.64 591.754 257.297C592.198 255.465 593.812 255.067 594.689 254.161C596.893 251.883 599.203 252.518 601.009 251.727C601.412 251.127 601.403 250.336 601.489 249.643Z"/><path fill="#F8F6F6" fill-opacity="0.46666667" d="M447.253 743.548C448.056 744.062 448.124 744.03 448.667 744.694C448.701 745.112 449.145 746.402 449.107 746.488C447.589 749.949 444.522 754.178 443.356 757.619C441.122 756.014 439.621 756.191 438.376 758.841C436.87 756.822 436.682 760.704 434.712 759.942C433.871 759.617 433.269 757.862 432.521 756.942C433.54 755.513 433.477 750.181 433.357 748.461C434.785 748.762 435.408 748.88 436.44 747.444C440.704 741.515 439.786 756.601 443.474 749.486C445.115 746.32 444.996 746.208 447.253 743.548Z"/><path fill="#8E8982" fill-opacity="0.98823529" d="M501.675 755.622C512.916 757.781 521.014 759.047 521.583 772.541C519.581 771.86 517.03 771.368 515.245 770.482C514.935 763.068 515.419 767.688 510.831 763.737C508.615 760.995 507.82 761.242 504.641 761.227C503.442 759.495 502.506 757.55 501.675 755.622Z"/><path fill="#F8F6F6" fill-opacity="0.3764706" d="M580.154 267.7C580.348 269.13 583.449 269.812 584.298 268.329C585.083 265.997 589.132 265.842 590.052 264.916C594.271 260.664 593.031 263.735 599.572 262.477C600.367 263.346 600.886 263.982 601.61 264.896C598.632 263.04 599.091 263.648 595.247 263.879C594.446 263.891 593.702 263.905 592.898 263.951C591.926 265.646 591.084 267.101 588.996 267.528C582.829 268.791 585.767 272.099 590.264 273.457C595.086 274.914 593.252 275.527 593.23 279.007C593.229 279.531 593.211 280.055 593.175 280.578C592.602 280.339 592.032 280.096 591.463 279.848L591.574 279.546C593.407 277.657 587.611 274.774 585.605 276.707L585.001 277.236C583.666 276.384 582.364 275.511 580.963 274.766C577.934 271.432 578.25 273.065 578.046 268.833C578.67 266.859 578.513 266.114 578.574 263.987L578.646 264.633C579.241 265.71 579.645 266.58 580.154 267.7Z"/><path fill="#F7F7F5" fill-opacity="0.47843137" d="M593.175 280.578C593.211 280.055 593.229 279.531 593.23 279.007C593.252 275.527 595.086 274.914 590.264 273.457C585.767 272.099 582.829 268.791 588.996 267.528C591.084 267.101 591.926 265.646 592.898 263.951C592.137 267.292 592.395 267.293 589.345 269.364C588.903 269.664 587.854 269.733 587.746 269.831C588.998 272.414 596.638 271.761 598.897 271.702C602.928 283.963 595.687 288.234 593.175 280.578Z"/><path fill="#F7F7F5" fill-opacity="0.19607843" d="M448.667 744.694C449.488 745.053 450.302 745.427 451.109 745.817C450.719 746.856 451.952 747.538 452.256 748.351C452.4 748.735 453.031 749.613 452.815 749.645C453.826 749.493 456.819 750.32 457.442 750.87C455.383 749.053 461.479 753.919 458.514 751.475C459.254 751.936 460.175 751.707 460.981 751.645L460.175 753.35C459.017 754.685 459.07 754.594 458.391 756.214C458.385 755.514 458.469 754.275 457.402 754.404C457.036 754.79 457.098 755.427 457.058 755.929C452.284 759.183 452.237 752.749 449.417 756.252C447.026 756.207 445.158 755.901 443.796 757.79L443.356 757.619C444.522 754.178 447.589 749.949 449.107 746.488C449.145 746.402 448.701 745.112 448.667 744.694Z"/><path fill="#F8F6F6" fill-opacity="0.6156863" d="M427.523 742.02C428.043 741.042 431.559 739.103 432.258 738.831C433.887 738.197 436.897 742.808 438.313 743.321C440.078 744.242 440.815 747.28 441.588 749.117C443.215 746.886 444.597 744.234 446.864 742.897L447.253 743.548C444.996 746.208 445.115 746.32 443.474 749.486C439.786 756.601 440.704 741.515 436.44 747.444C435.408 748.88 434.785 748.762 433.357 748.461C431.916 747.993 431.152 747.816 429.682 747.523C428.765 746.393 428.847 745.348 427.544 744.706L427.001 744.417C427.179 743.619 427.353 742.82 427.523 742.02Z"/><path fill="#F7F7F5" fill-opacity="0.44313726" d="M417.207 702.985C417.475 705.214 417.366 709.595 417.332 712.053C413.089 721.69 424.53 719.218 423.223 729.038L422.38 729.305C418.34 730.542 417.822 728.646 414.696 732.952C414.761 730.572 414.73 728.497 414.93 726.098C417.486 718.706 410.678 719.747 416.979 711.238C416.972 709.741 417.004 708.245 417.076 706.75C417.152 705.329 417.207 704.416 417.207 702.985Z"/><path fill="#8E8982" fill-opacity="0.80392158" d="M837.463 509.297C839.347 507.519 842.236 505.407 844.345 503.84C846.271 502.409 850.36 497.888 852.497 500.505C854.748 503.262 854.201 504.779 851.344 506.831C848.068 508.982 844.81 511.791 841.464 513.821C841.592 513.331 843.83 507.906 842.521 508.049C841.198 508.193 840.47 509.264 838.485 509.285L837.463 509.297Z"/><path fill="#F7F7F5" fill-opacity="0.10980392" d="M571.052 246.713C579.019 243.572 578.807 242.33 584.989 247.119C591.798 247.456 591.498 245.546 594.609 250.379C594.991 250.973 599.872 251.096 600.656 249.23L601.135 249.542C601.036 249.973 600.967 250.673 600.639 251.03C600.358 251.051 600.076 251.072 599.795 251.094C596.159 251.223 593.363 254.518 591.9 249.506C590.931 246.886 587.156 249.238 584.754 248.912C580.2 248.292 580.599 242.877 575.341 246.708C570.487 250.245 576.15 251.02 576.852 254.043C577.282 255.893 580.187 255.962 580.546 257.99C580.852 259.212 579.142 262.475 580.669 262.897C582.464 263.392 584.024 265.821 581.256 266.397C581.104 266.428 579.317 265.023 578.646 264.633L578.574 263.987L578.214 262.567C579.473 259 578.257 258.152 576.111 255.203C572.456 250.178 573.132 252.998 571.052 246.713Z"/><path fill="#F7F7F5" fill-opacity="0.33333334" d="M407.915 714.873C405.477 710.208 413.474 708.386 416.979 711.238C410.678 719.747 417.486 718.706 414.93 726.098C410.59 726.854 413.754 723.662 412.711 720.264C412.32 720.321 409.825 724.403 409.193 721.26C408.784 719.228 409.557 717.544 408.405 715.666L407.915 714.873Z"/><path fill="#F7F7F5" fill-opacity="0.17647059" d="M412.041 752.616C412.02 751.425 411.428 747.101 411.752 746.4L411.529 746.467C411.574 746.419 411.619 746.37 411.664 746.321C412.292 746.439 412.898 748.547 413.266 748.745C415.751 750.082 418.21 748.613 421.088 750.08C420.859 753.245 420.959 752.089 422.08 754.577C420.577 755.785 419.321 759.717 422.654 760.344C428.037 761.356 425.955 762.144 425.665 764.614C425.299 763.721 425.798 762.417 425.243 761.617C424.252 761.652 421.872 761.841 421.038 761.168C420.621 760.832 421.05 760.826 420.301 760.644C419.584 761.655 420.874 761.938 418.908 762.526C418.625 762.843 418.647 762.737 418.65 762.881C419.366 764.086 420.972 764.215 421.597 764.806L421.532 765.063C420.555 765.622 418.888 764.36 418.011 763.921C417.047 763.38 416.675 759.618 416.787 758.75C417.687 751.775 413.777 754.184 412.041 752.616Z"/><path fill="#161515" d="M413.605 688.244C415.66 687.835 415.273 687.897 417.268 688.542C417.284 692.983 413.929 696.139 413.557 700.267C413.833 703.419 408.951 705.706 408.734 701.5C408.491 696.769 410.655 691.695 413.605 688.244Z"/><path fill="#F7F7F5" fill-opacity="0.082352944" d="M407.915 714.873L408.405 715.666C409.557 717.544 408.784 719.228 409.193 721.26C409.825 724.403 412.32 720.321 412.711 720.264C413.754 723.662 410.59 726.854 414.93 726.098C414.73 728.497 414.761 730.572 414.696 732.952C408.634 737.366 414.77 732.967 408.432 731.726C407.608 729.978 408.65 727.505 407.677 725.426L407.467 723.701L407.547 723.143C408.043 719.844 407.807 718.057 407.915 714.873Z"/><path fill="#F7F7F5" fill-opacity="0.35686275" d="M558.661 254.194C560.276 254.324 560.35 253.159 563.493 253.515C567.047 253.917 564.541 253.377 566.171 255.292C566.464 255.383 568.031 254.238 568.309 254.062C566.837 255.854 566.758 255.88 565.839 257.919C565.624 258.715 565.539 259.001 566.094 259.648C565.501 260.973 565.735 261.177 566.165 262.557C566.423 262.87 568.33 263.446 569.177 263.868L568.625 263.822C564.355 263.433 565.29 263.891 561.265 265.726C560.369 260.998 559.866 258.826 558.661 254.194Z"/><path fill="#161515" d="M421.449 747.863C421.676 744.769 423.079 736.189 427.523 742.02C427.353 742.82 427.179 743.619 427.001 744.417C426.241 747.647 425.984 750.11 425.978 753.402C424.738 754.38 423.699 754.324 422.08 754.577C420.959 752.089 420.859 753.245 421.088 750.08C421.224 749.318 421.35 748.634 421.449 747.863Z"/><path fill="#F8F6F6" fill-opacity="0.78039217" d="M347.879 649.827C347.023 653.392 346.697 657.698 345.868 661.033C345.493 662.539 343.834 660.454 344.649 658.817C344.91 658.292 345.268 654.167 345.381 653.183C344.426 651.114 345.755 648.587 343.394 646.761C341.742 645.483 341.453 644.511 342.748 642.845C342.995 642.527 342.407 640.278 342.34 640.137C342.27 640.162 342.2 640.187 342.13 640.212L342.329 640.154C338.425 642.468 340.376 635.921 342.083 638.34C344.462 641.712 342.919 643.245 346.953 645.017C347.186 646.542 347.61 648.251 347.879 649.827Z"/><path fill="#161515" fill-opacity="0.98431373" d="M417.831 700.118C419.107 700.406 420.377 700.545 421.673 700.713C421.559 705.157 421.777 708.712 421.459 713.296C419.227 713.508 419.254 713.373 417.332 712.053C417.366 709.595 417.475 705.214 417.207 702.985C417.066 701.589 417.255 701.433 417.831 700.118Z"/><path fill="#F8F6F6" fill-opacity="0.46666667" d="M426.827 692.913L428.029 692.814C428.404 696.221 429.269 694.097 432.217 695.878L432.355 696.511L431.942 696.918L430.988 697.105C430.345 697.224 429.208 697.362 429.345 698.242C429.605 698.97 427.912 702.691 427.924 702.728C429.007 706.151 430.291 713.283 423.222 708.635L423.234 708.642C423.769 706.813 423.288 705.072 423.576 703.886C424.529 703.564 425.201 703.989 426.244 703.242C427.178 702.573 428.06 698.031 427.721 697.195C427.041 695.513 427.243 694.549 426.827 692.913Z"/><path fill="#8E8982" fill-opacity="0.87843138" d="M699.641 411.67C704.525 411.563 709.41 411.556 714.294 411.65C712.55 412.097 708.511 412.311 708.617 412.268C710.906 412.601 719.701 411.922 720.83 412.892C719.849 413.006 714.599 413.031 714.356 413.274L714.396 413.323L714.936 413.235L714.857 413.425C717.563 413.645 719.448 413.468 722.262 413.875C718.409 414.208 714.534 414.18 710.686 413.792C706.896 413.444 701.966 414.182 698.001 413.82C697.05 413.733 695.412 414.421 694.085 414.465C693.044 414.172 691.997 413.897 690.945 413.641C692.181 413.416 695.069 412.53 696 412.622C698.266 412.848 697.555 412.146 699.641 411.67Z"/><path fill="#F8F6F6" fill-opacity="0.26666668" d="M412.856 672.608C413.489 673.699 413.981 674.572 414.539 675.704C415.086 675.819 415.633 675.934 416.18 676.05C418.504 683.75 413.657 679.571 413.408 684.131C413.1 689.769 420.109 681.199 423.648 685.952C421.822 685.839 417.297 686.573 417.268 688.542C415.273 687.897 415.66 687.835 413.605 688.244C413.478 687.903 413.351 687.562 413.224 687.222C411.229 682.81 411.884 681.266 414.313 677.744C414.614 677.307 413.107 676.496 412.764 675.728C412.217 674.502 412.479 674.044 412.856 672.608Z"/><path fill="#98928A" d="M623.902 427.814C624.616 427.715 627.845 427.062 628.294 427.584C628.616 429.841 620.49 433.924 618.526 434.714C617.708 434.831 615.216 435.265 614.61 434.938C614.536 434.242 618.221 431.476 618.687 430.301C619.724 427.684 621.818 428.195 623.902 427.814Z"/><path fill="#98928A" d="M745.914 424.692C749.649 423.318 747.159 423.494 749.246 422.017C750.838 426.613 750.28 429.146 750.388 433.768C750.46 436.88 746.544 434.582 746.535 434.495C746.218 431.382 746.326 428.002 745.914 424.692Z"/><path fill="#161515" d="M429.682 747.523C431.152 747.816 431.916 747.993 433.357 748.461C433.477 750.181 433.54 755.513 432.521 756.942L431.899 758.187C429.039 757.255 428.651 757.495 428.284 754.474L428.153 753.509C429.052 750.242 427.836 750.85 429.682 747.523Z"/><path fill="#F8F6F6" fill-opacity="0.32941177" d="M416.18 676.05C416.748 676.421 419.357 677.717 419.218 678.493C418.118 684.664 424.365 681.369 423.993 686.189L423.648 685.952C420.109 681.199 413.1 689.769 413.408 684.131C413.657 679.571 418.504 683.75 416.18 676.05Z"/><path fill="#8E8982" fill-opacity="0.97647059" d="M195.9 767.241C196.781 769.571 192.907 768.396 192.707 771.399C193.302 771.698 199.899 772.168 200.537 770.801C200.633 770.595 202.727 769.899 203.001 770.012C204.369 769.086 203.583 767.1 205.321 770.503C202.989 772.007 201.53 773.263 198.757 773.329C194.619 773.418 190.48 773.397 186.343 773.266C188.791 771.582 193.234 768.618 195.9 767.241Z"/><path fill="#F8F6F6" fill-opacity="0.047058824" d="M417.831 700.118C417.6 699.862 416.55 699.05 416.57 699.12C416.246 697.956 417.932 693.838 418.813 693.28C420.113 692.457 422.699 692.831 424.298 692.66L423.689 693.386C420.801 696.719 422.684 697.343 421.673 700.713C420.377 700.545 419.107 700.406 417.831 700.118Z"/><path fill="#F8F6F6" fill-opacity="0.53333336" d="M592.898 263.951C593.702 263.905 594.446 263.891 595.247 263.879L595.314 264.382C592.684 268.53 596.169 268.315 598.897 271.702C596.638 271.761 588.998 272.414 587.746 269.831C587.854 269.733 588.903 269.664 589.345 269.364C592.395 267.293 592.137 267.292 592.898 263.951Z"/><path fill="#F8F6F6" fill-opacity="0.53333336" d="M425.478 686.806C425.024 684.734 426.52 682.925 424.986 680.245C424.42 679.257 425.596 674.961 426.818 674.511C427.406 674.09 429.646 674.109 429.161 674.982C428.702 675.092 428.048 674.787 427.675 675.122C428.249 677.122 429.267 680.668 428.443 682.802C427.054 686.401 427.396 685.604 427.536 689.613C426.805 687.792 427.335 687.384 425.478 686.806Z"/><path fill="#908983" d="M606.589 343.463C609.673 343.505 611.35 343.429 614.552 343.579C613.721 345.416 613.051 346.96 612.145 348.796C611.827 349.315 610.795 351.186 610.474 351.239C609.227 351.444 606.772 344.11 606.589 343.463ZM610.592 346.706L610.754 346.402C610.796 346.259 610.837 346.116 610.878 345.973C610.745 345.803 610.842 345.901 610.543 345.682C610.314 345.926 610.11 346.137 609.939 346.41C610.062 346.626 610.195 346.594 610.592 346.706Z"/><path fill="#908983" fill-opacity="0.84313726" d="M610.543 345.682C610.842 345.901 610.745 345.803 610.878 345.973C610.837 346.116 610.796 346.259 610.754 346.402L610.592 346.706C610.195 346.594 610.062 346.626 609.939 346.41C610.11 346.137 610.314 345.926 610.543 345.682Z"/><path fill="#F8F6F6" fill-opacity="0.054901961" d="M451.109 745.817C454.621 746.811 461.292 748.414 464.278 750.237L464.049 750.732C462.764 750.614 462.104 750.267 461.279 751.255L460.981 751.645C460.175 751.707 459.254 751.936 458.514 751.475C461.479 753.919 455.383 749.053 457.442 750.87C456.819 750.32 453.826 749.493 452.815 749.645C453.031 749.613 452.4 748.735 452.256 748.351C451.952 747.538 450.719 746.856 451.109 745.817Z"/><path fill="#F8F6F6" fill-opacity="0.34509805" d="M428.029 692.814C428.124 691.482 428.972 682.852 430.365 682.492C430.572 682.578 430.431 682.495 430.83 682.867L432.217 695.878C429.269 694.097 428.404 696.221 428.029 692.814Z"/><path fill="#F8F6F6" fill-opacity="0.98823529" d="M331.129 681.815C331.689 678.389 331.573 677.903 330.11 674.986C329.671 673.773 330.955 672.433 331.998 672.333C336.442 671.908 334.221 667.61 337.73 667.025C335.667 671.545 332.767 674.108 333.723 678.924C333.056 680.4 332.429 680.756 331.129 681.815Z"/><path fill="#F8F6F6" fill-opacity="0.87058824" d="M419.563 663.118C421.045 663.687 422.49 664.683 423.186 666.142C422.629 666.673 422.265 669.381 421.043 671.271C418.67 672.955 420.818 674.523 417.189 675.915C418.848 671.471 416.944 672.681 417.175 668.66C418.711 669.916 420.304 668.301 420.896 666.883C421.179 666.204 419.939 663.957 419.563 663.118Z"/><path fill="#F7F7F5" fill-opacity="0.19215687" d="M432.521 756.942C433.269 757.862 433.871 759.617 434.712 759.942C436.682 760.704 436.87 756.822 438.376 758.841L438.495 759.342C437.296 761.306 435.332 762.976 434.751 764.185C431.954 770.006 433.716 759.553 431.899 758.187L432.521 756.942Z"/><path fill="#F7F7F5" d="M609.155 339.061C606.986 339.76 604.39 334.714 605.477 334.109C605.767 334.14 606.006 334.275 606.239 334.451C611.281 338.265 612.999 336.378 617.917 334.167C617.162 335.468 616.314 337.413 615.207 338.294L614.629 337.842C613.645 337.042 612.757 336.7 611.483 336.933C610.755 337.062 610.115 337.491 609.719 338.116C609.531 338.431 609.343 338.746 609.155 339.061Z"/><path fill="#F8F6F6" fill-opacity="0.98039216" d="M427.001 744.417L427.544 744.706C428.847 745.348 428.765 746.393 429.682 747.523C427.836 750.85 429.052 750.242 428.153 753.509C427.132 753.575 427.06 753.54 425.978 753.402C425.984 750.11 426.241 747.647 427.001 744.417Z"/><path fill="#F8F6F6" fill-opacity="0.050980393" d="M449.417 756.252C452.237 752.749 452.284 759.183 457.058 755.929C457.166 759.821 456.588 757.912 455.347 760.999C455.279 761.168 455.491 762.462 455.175 763.189C455.04 763.157 454.905 763.125 454.77 763.093C452.517 759.364 455.822 759.673 449.417 756.252Z"/><path fill="#F8F6F6" fill-opacity="0.062745102" d="M417.175 668.66C417.031 665.016 416.477 664.761 417.149 661.26L417.264 661.269L417.133 661.276C418.124 661.687 418.063 662.346 419.563 663.118C419.939 663.957 421.179 666.204 420.896 666.883C420.304 668.301 418.711 669.916 417.175 668.66Z"/><path fill="#8E8982" fill-opacity="0.56862748" d="M720.83 412.892C723.256 412.902 735.787 412.45 736.912 413.302C736.94 413.388 736.976 413.453 736.881 413.495C734.091 414.749 725.071 413.693 722.262 413.875C719.448 413.468 717.563 413.645 714.857 413.425L714.936 413.235L714.396 413.323L714.356 413.274C714.599 413.031 719.849 413.006 720.83 412.892Z"/><path fill="#8E8982" fill-opacity="0.23137255" d="M510.831 763.737C515.419 767.688 514.935 763.068 515.245 770.482C511.841 768.396 511.698 768.26 508.597 765.77C509.701 764.925 509.844 764.796 510.831 763.737Z"/><path fill="#8E8982" fill-opacity="0.43529412" d="M829.541 523.136C829.754 521.704 829.956 513.116 831.835 513.912L832.291 514.087C832.115 516.481 831.35 518.332 833.106 519.949C832.608 520.644 830.341 522.391 829.541 523.136Z"/><path fill="#8E8982" fill-opacity="0.78039217" d="M680.378 424.91C680.406 425.996 680.09 432.446 680.759 432.879C684.255 430.621 683.18 432.724 683.936 428.326L683.95 432.5C683.962 433.771 684.305 436.886 680.384 435.196C679.694 434.898 680.173 426.472 680.378 424.91Z"/><path fill="#F8F6F6" fill-opacity="0.3019608" d="M585.001 277.236L585.605 276.707C587.611 274.774 593.407 277.657 591.574 279.546C589.139 279.157 587.716 279.287 585.807 277.824L585.001 277.236Z"/><path fill="#8E8982" fill-opacity="0.74509805" d="M504.641 761.227C507.82 761.242 508.615 760.995 510.831 763.737C509.844 764.796 509.701 764.925 508.597 765.77C506.707 764.183 506.062 763.171 504.641 761.227Z"/><path fill="#98928A" fill-opacity="0.79215688" d="M547.301 475.978C547.856 478.039 548.141 480.846 548.462 483.001C546.859 480.57 544.998 478.169 543.362 475.74C545.663 475.513 545.059 475.581 547.301 475.978Z"/><path fill="#F7F7F5" fill-opacity="0.47058824" d="M318.135 623.971L318.544 624.701C319.112 625.703 320.577 628.163 318.718 629.036C318.424 629.172 318.087 629.175 317.79 629.045C316.825 628.628 316.096 627.012 315.603 626.134C315.922 624.507 316.734 624.708 318.135 623.971Z"/><path fill="#F8F6F6" fill-opacity="0.23921569" d="M460.981 751.645L461.279 751.255C462.104 750.267 462.764 750.614 464.049 750.732C464.145 752.114 464.211 753.497 464.248 754.881C462.415 754.097 462.07 753.923 460.175 753.35L460.981 751.645Z"/><path fill="#F8F6F6" fill-opacity="0.68627453" d="M425.478 686.806C427.335 687.384 426.805 687.792 427.536 689.613C427.325 690.857 427.145 691.686 426.827 692.913C424.61 692.809 425.542 688.846 425.478 686.806Z"/><path fill="#F8F6F6" fill-opacity="0.1882353" d="M599.572 262.477C601.678 261.747 600.939 262.437 603.047 260.902C602.865 261.848 603.013 265.643 602.021 265.84C601.688 265.633 601.675 265.258 601.61 264.896C600.886 263.982 600.367 263.346 599.572 262.477Z"/><path fill="#F8F6F6" fill-opacity="0.17647059" d="M566.094 259.648C566.588 260.076 570.218 263.106 569.613 263.771C569.468 263.804 569.322 263.836 569.177 263.868C568.33 263.446 566.423 262.87 566.165 262.557C565.735 261.177 565.501 260.973 566.094 259.648Z"/><path fill="#F8F6F6" fill-opacity="0.68235296" d="M338.241 666.399L338.48 665.807C338.933 664.637 339.88 663.667 341.209 664.4C341.794 664.719 342.202 665.288 342.318 665.945C342.367 666.226 342.346 666.858 342.347 667.172C340.375 666.383 340.411 666.492 338.241 666.399Z"/><path fill="#98928A" fill-opacity="0.98431373" d="M529.678 234.793C529.5 234.008 528.099 231.101 528.302 230.887C528.358 230.888 532.258 233.676 532.526 233.866C530.993 234.506 530.992 233.78 529.678 234.793Z"/><path fill="#8E8982" fill-opacity="0.14117648" d="M687.275 416.139L688.014 416.957C684.921 421.352 682.644 419.868 687.275 416.139Z"/><path fill="#F8F6F6" fill-opacity="0.36078432" d="M345.95 765.559C341.709 768.389 345.528 759.709 346.111 764.883L345.95 765.559Z"/><path fill="#8E8982" fill-opacity="0.94117647" d="M744.199 421.39C746.273 421.725 750.104 422.819 745.664 424.048C745.164 423.169 744.675 422.283 744.199 421.39Z"/><path fill="#8E8982" fill-opacity="0.45882353" d="M690.712 414.109L690.504 415.446C689.232 416.08 689.114 416.113 688.014 416.957L687.275 416.139C688.604 415.659 689.465 414.833 690.712 414.109Z"/><path fill="#8E8982" fill-opacity="0.64313728" d="M690.945 413.641C691.997 413.897 693.044 414.172 694.085 414.465C692.823 414.826 691.799 415.16 690.504 415.446L690.712 414.109L690.945 413.641Z"/><path fill="#161515" d="M917.07 773.696C920.098 773.565 952.135 770.47 942.863 778.853C939.506 778.82 917.448 779.081 916.127 777.905C915.639 777.47 915.478 776.863 915.492 776.224C915.517 775.083 916.299 774.42 917.07 773.696Z"/><path fill="#161515" d="M80.7011 773.73C83.8252 773.588 86.9524 773.528 90.0796 773.548C92.5137 773.539 110.888 771.707 103.369 778.817C96.1929 778.916 88.433 778.663 81.2365 778.563C78.8851 778.53 78.6541 775.235 80.7011 773.73Z"/><path fill="#F7F7F5" fill-opacity="0.039215688" d="M627.759 329.377C627.994 328.919 628.801 326.997 629.217 326.873C629.53 327.167 629.525 328.037 629.56 328.341L629.617 328.785L627.759 329.377Z"/></svg>