<?xml version="1.0" encoding="utf-8" ?><svg xmlns="http://www.w3.org/2000/svg" xmlns:xlink="http://www.w3.org/1999/xlink" width="1024" height="1024" viewBox="0 0 1024 1024"><path fill="#F6AACB" d="M375.149 107.534C383.183 86.9784 402.883 85.9779 416.253 102.567C426.699 91.2469 441 87.732 453.49 99.3305C456.152 101.803 457.839 105.237 459.669 108.383C470.118 98.0324 484.286 96.4932 494.484 108.569C497.129 111.701 498.274 115.04 499.824 118.797C504.097 117.332 507.959 115.992 512.531 115.958C517.984 115.923 523.221 118.091 527.053 121.971C532.823 127.722 533.578 133.593 533.502 141.153C555.558 140.226 566.259 155.422 557.072 175.689C568.139 180.064 576.412 186.345 575.087 199.706C574.528 205.344 570.436 212.845 565.977 216.468C574 227.44 573.697 235.916 566.221 246.86C571.779 250.198 573.106 254.256 574.628 260.348L574.799 261.046C591.917 260.775 598.778 267.426 599.63 281.713C599.738 283.538 598.357 287.874 599.295 289.207C604.942 291.19 611.025 294.877 613.284 300.75C617.933 312.838 612.742 320.233 603.859 327.429C620.521 338.357 617.194 358.193 597.882 364.52C599.031 378.645 595.277 384.449 582.024 389.445C587.603 398.331 587.596 406.227 585.963 416.187C590.2 417.792 593.445 418.833 597.052 421.687C606.7 429.321 609.288 442.533 604.549 453.758C603.283 456.751 601.569 459.534 599.465 462.012C606.004 465.638 610.862 470.273 613.133 477.74C615.113 484.217 614.309 491.226 610.914 497.086C607.863 502.295 603.561 505.484 598.332 508.209L600.786 511.041C608.704 532.827 598.279 547.223 575.323 547.065C575.731 556.022 575.976 563.197 569.356 570.551C564.759 575.573 558.283 578.459 551.475 578.521C547.009 578.605 543.929 577.724 539.852 576.097C537.685 584.212 534.851 590.237 527.138 594.77C521.074 598.398 513.807 599.441 506.967 597.663C503.216 596.66 500.329 595.056 497.197 592.801C494.334 600.979 491.439 606.826 483.035 610.998C476.376 614.234 468.691 614.637 461.73 612.116C457.113 610.395 454.741 608.467 451.315 605.212C446.822 612.158 442.702 616.866 433.942 618.643C427.197 619.977 420.199 618.534 414.532 614.641C411.698 612.694 409.251 610.237 407.317 607.395C396.831 618.627 383.468 621.26 371.594 609.946C369.694 608.114 368.017 606.064 366.597 603.839C351.558 610.971 335.786 610.021 328.329 592.684C327.831 591.517 327.352 590.341 326.893 589.158C317.267 591.53 311.025 591.376 302.147 586.197C294.829 580.273 292.463 572.534 292.945 563.466C286.019 563.767 282.113 564.265 275.594 560.743C262.858 553.861 260.157 538.877 267.165 526.846C245.703 519.139 242.188 493.097 261.456 482.087C257.881 478.954 254.43 475.565 253.144 470.877C248.605 454.346 256.538 444.905 271.062 440.159C270.563 439.185 270.099 438.194 269.67 437.187C265.701 427.635 267.38 420.355 271.064 411.32C261.853 409.012 255.521 403.454 254.293 393.821C238.768 395.856 226.478 388.005 230.886 371.084C209.095 368.159 201.874 349.153 218.072 333.645C213.766 329.754 210.033 325.828 209.093 319.769C207.264 307.98 214.856 297.699 226.651 295.857C222.657 282.569 223.497 270.235 239.476 265.564C242.782 264.598 246.288 264.936 249.736 264.998C252.349 255.861 253.62 253.122 262.492 249.321C251.651 237.932 248.962 227.447 260.98 215.249C256.852 211.913 253.45 208.907 251.399 203.78C249.304 198.418 249.48 192.434 251.888 187.205C255.696 178.894 262.359 176.157 270.203 173.243C268.292 168.816 267.387 164.02 267.553 159.201C267.757 153.584 269.784 148.088 274.139 144.453C281.45 138.352 287.578 138.346 296.193 138.943C296.689 123.256 303.419 111.905 321.621 114.482C324.928 114.95 328.499 116.934 331.816 117.932C334.99 114.411 335.964 109.32 340.178 105.257C350.696 95.1142 365.29 97.7142 375.149 107.534Z"/><path fill="#696B6B" d="M551.939 252.661C558.924 252.082 560.845 250.894 566.221 246.86C571.779 250.198 573.106 254.256 574.628 260.348L574.799 261.046C591.917 260.775 598.778 267.426 599.63 281.713C599.738 283.538 598.357 287.874 599.295 289.207C604.942 291.19 611.025 294.877 613.284 300.75C617.933 312.838 612.742 320.233 603.859 327.429C620.521 338.357 617.194 358.193 597.882 364.52C599.031 378.645 595.277 384.449 582.024 389.445C587.603 398.331 587.596 406.227 585.963 416.187C590.2 417.792 593.445 418.833 597.052 421.687C606.7 429.321 609.288 442.533 604.549 453.758C603.283 456.751 601.569 459.534 599.465 462.012C606.004 465.638 610.862 470.273 613.133 477.74C615.113 484.217 614.309 491.226 610.914 497.086C607.863 502.295 603.561 505.484 598.332 508.209L600.786 511.041C608.704 532.827 598.279 547.223 575.323 547.065C575.731 556.022 575.976 563.197 569.356 570.551C564.759 575.573 558.283 578.459 551.475 578.521C547.009 578.605 543.929 577.724 539.852 576.097C537.685 584.212 534.851 590.237 527.138 594.77C521.074 598.398 513.807 599.441 506.967 597.663C503.216 596.66 500.329 595.056 497.197 592.801C494.334 600.979 491.439 606.826 483.035 610.998C476.376 614.234 468.691 614.637 461.73 612.116C457.113 610.395 454.741 608.467 451.315 605.212C446.822 612.158 442.702 616.866 433.942 618.643C427.197 619.977 420.199 618.534 414.532 614.641C411.698 612.694 409.251 610.237 407.317 607.395C396.831 618.627 383.468 621.26 371.594 609.946C369.694 608.114 368.017 606.064 366.597 603.839C351.558 610.971 335.786 610.021 328.329 592.684C327.831 591.517 327.352 590.341 326.893 589.158C317.267 591.53 311.025 591.376 302.147 586.197C294.829 580.273 292.463 572.534 292.945 563.466C286.019 563.767 282.113 564.265 275.594 560.743C262.858 553.861 260.157 538.877 267.165 526.846C245.703 519.139 242.188 493.097 261.456 482.087C257.881 478.954 254.43 475.565 253.144 470.877C248.605 454.346 256.538 444.905 271.062 440.159C270.563 439.185 270.099 438.194 269.67 437.187C265.701 427.635 267.38 420.355 271.064 411.32L271.96 410.476C277.653 411.426 282.899 410.889 287.591 407.415C297.265 419.399 310.024 419.023 316.882 404.768C325.094 412.328 335.882 411.475 341.899 401.816C320.111 379.353 321.613 348.913 342.682 327.079C344.443 325.255 345.337 324.211 347.893 324.156C349.668 325.586 349.069 324.723 349.847 326.778C349.553 328.605 344.991 333.593 343.506 335.275C334.511 345.467 329.563 360.33 333.11 373.855C348.212 431.435 435.875 432.791 465.393 385.754C461.885 378.874 460.198 372.321 464.46 365.26C457.923 358.198 455.873 347.764 462.736 340.07C463.201 339.544 466.716 335.833 466.711 335.582C466.572 327.797 465.625 326.715 468.43 319.305C445.541 324.631 424.27 311.559 426.383 286.555C424.685 286.21 420.701 285.522 419.508 284.561C416.305 281.767 423.557 273.447 425.758 271.191C447.766 248.63 494.388 264.386 496.061 296.465C496.132 297.829 495.469 298.362 494.569 299.112C492.25 299.642 491.486 299.372 489.059 299.035C485.513 307.365 482.375 311.87 474.699 316.635L474.907 316.556C471.71 324.686 470.317 328.083 473.245 336.049C473.735 337.383 468.906 340.219 467.385 341.899C465.024 344.462 463.818 347.883 464.052 351.36C464.475 357.405 467.872 361.097 472.132 364.714C471.608 365.339 471.117 365.992 470.661 366.669C468.394 369.976 467.168 373.98 468.283 377.856C471.196 387.989 477.789 391.856 487.461 389.945C489.538 406.863 507.81 412.997 517.695 400.137C527.334 412.192 540.267 410.97 544.83 395.603C546.381 396.024 547.986 396.214 549.592 396.168C560.465 395.898 564.725 389.236 563.197 379.269C563.292 378.964 563.387 378.659 563.482 378.354C572.695 375.256 584.237 365.407 569.01 352.428C578.563 343.241 575.697 333.26 563.542 328.891C567.305 312.369 553.697 305.14 539.676 312.378C535.948 298.102 525.455 297.059 513.96 303.736C511.647 301.292 511.148 300.747 508.28 298.872C520.473 295.443 524.18 290.254 525.357 278.135C538.512 280.508 550.903 276.589 552.797 261.04C553.09 258.634 552.332 255.132 551.939 252.661Z"/><path fill="#F6AACB" d="M447.154 266.603C465.927 265.125 485.189 273.933 490.153 293.312C484.386 292.435 478.632 291.474 472.894 290.429C456.964 287.775 441.539 283.62 425.694 281.025C430.801 272.53 437.723 268.652 447.154 266.603Z"/><path fill="#F6AACB" d="M431.81 287.751C434.174 287.999 437.882 288.912 440.308 289.433C440.938 306.005 456.878 313.157 469.98 302.733C471.81 301.277 473.269 299.172 474.664 297.274L483.518 297.908L481.012 302.866C468.541 322.373 438.21 318.818 432.333 295.696C431.724 293.299 431.816 290.258 431.81 287.751Z"/><path fill="#525354" d="M262.492 249.321C264.455 250.001 264.548 249.686 265.692 251.03C265.758 257.966 265.195 264.413 270.631 269.708C276.945 275.859 284.631 275.372 292.383 273.987C293.2 284.744 299.219 290.089 309.405 292.176L309.109 292.797C308.254 294.564 307.636 295.062 307.426 297.012C302.16 299.886 300.676 301.478 297.659 306.925C284.832 299.624 272.053 306.769 270.733 321.536C252.31 320.935 245.247 335.14 253.539 350.863C235.575 361.328 247.27 374.142 254.741 379.541C254.549 379.402 254.129 390.388 255.062 393.526L254.293 393.821C238.768 395.856 226.478 388.005 230.886 371.084C209.095 368.159 201.874 349.153 218.072 333.645C213.766 329.754 210.033 325.828 209.093 319.769C207.264 307.98 214.856 297.699 226.651 295.857C222.657 282.569 223.497 270.235 239.476 265.564C242.782 264.598 246.288 264.936 249.736 264.998C252.349 255.861 253.62 253.122 262.492 249.321Z"/><path fill="#696B6B" d="M309.405 292.176C313.473 280.205 318.994 270.978 330.734 265.214C349.497 256.002 374.346 259.747 385.271 278.864C386.22 280.525 386.085 282.359 385.499 284.086C384.194 285.683 382.68 285.75 380.587 286.204C380.6 296.109 378.94 303.013 371.665 310.338C365.261 316.781 356.545 320.391 347.461 320.364C332.144 320.268 322.828 311.731 317.065 298.317C312.811 299.194 311.013 300.077 307.426 297.012C307.636 295.062 308.254 294.564 309.109 292.797L309.405 292.176Z"/><path fill="#F6AACB" d="M348.13 266.176C361.982 264.522 371.568 270.039 380.224 280.238C370.075 282.847 354.639 285.415 343.677 287.764C335.231 289.427 323.979 291.381 315.499 292.395C321.387 276.619 331.22 268.349 348.13 266.176Z"/><path fill="#F6AACB" d="M374.458 287.185C375.197 288.151 374.884 289.854 374.779 291.003C372.49 316.187 339.965 323.394 325.788 303.327C324.671 301.191 324.127 299.745 323.294 297.499C325.862 296.844 328.318 296.379 330.896 295.826C334.303 300.95 337.817 305.614 344.244 306.517C357.403 308.366 363.919 300.454 366.238 288.916C368.955 288.361 371.822 287.628 374.458 287.185Z"/><path fill="#525354" d="M254.293 393.821L255.062 393.526C258.218 399.99 265.22 407.759 271.96 410.476L271.064 411.32C261.853 409.012 255.521 403.454 254.293 393.821Z"/><path fill="#696B6B" d="M472.485 112.59C478.941 112.96 483.467 116.373 484.931 122.836C487.5 135.786 491.094 152.055 490.285 165.183C488.954 186.776 466.723 180.803 453.892 174.934C445.175 170.947 437.648 167.952 429.824 162.926L431.43 157.655L445.379 159.301C449.995 159.87 455.233 159.636 459.854 158.491C465.04 157.887 472.48 150.913 469.629 145.372C463.547 133.55 439.44 146.88 431.553 150.373C429.371 145.801 428.36 144.6 423.905 142.321C434.127 135.23 462.714 114.59 472.485 112.59Z"/><path fill="#696B6B" d="M344.563 121.166C351.935 121.132 381.157 138.732 389.502 143.463C387.388 146.386 386.765 147.582 385.154 150.818C375.665 147.322 367.594 143.797 357.12 143.583C347.241 143.382 345.33 154 351.771 158.763C359.459 164.449 374.651 161.403 383.881 160.095C385.606 160.435 387.556 164.15 389.03 166.164C381.643 170.619 367.272 177.192 361.361 181.002C329.27 202.636 325.863 179.385 328.654 151.837C330.042 138.145 327.815 123.386 344.563 121.166Z"/><path fill="#696B6B" d="M393.592 318.703C406.591 319.445 423.98 326.89 416.753 343.916C413.851 350.751 404.782 354.56 397.971 356.831L398.083 371.935C404.522 371.939 419.289 373.539 423.398 378.493C423.843 380.137 423.678 380.231 423.228 381.844C422.53 382.488 422.301 383.027 421.207 382.619C412.46 379.35 406.761 376.898 397.219 376.96C393.032 377.335 392.147 377.458 388.04 378.529C383.619 379.683 377.895 384.446 374.452 383.945C373.047 382.868 372.91 382.936 372.396 381.198C373.793 376.269 387.744 372.84 392.309 372.026C392.148 367.113 391.838 362.003 391.602 357.078C359.863 352.842 358.971 321.232 393.592 318.703Z"/><path fill="#F6AACB" d="M388.032 324.141C391.853 323.832 395.841 323.85 399.739 324.638C403.882 325.476 417.205 330.446 408.926 335.736C407.908 336.386 402.653 330.456 400.611 330.488C400.311 330.37 400.012 330.252 399.712 330.134C393.423 328.666 387.293 329.476 381.799 333.072C381.27 333.291 378.738 335.636 378.26 335.486C375.94 334.758 374.915 332.469 376.192 330.687C379.386 326.229 383.215 325.072 388.032 324.141Z"/><path fill="#696B6B" d="M392.55 167.666C398.098 169.247 400.7 169.231 406.54 169.229C403.924 174.954 399.957 182.051 397.037 187.868L371.005 239.419C368.623 234.015 366.112 226.773 363.99 221.131C363.271 219.423 362.123 215.69 361.488 213.807C353.118 215.274 344.718 217.344 336.26 218.868C346.569 207.527 358.2 190.291 369.679 180.865C371.82 179.106 388.763 169.974 392.55 167.666Z"/><path fill="#696B6B" d="M426.723 166.037C426.329 166.022 455.17 179.077 457.748 180.7C462.833 183.903 481.038 206.265 485.45 211.488C482.102 210.585 460.299 206.183 457.901 206.469L457.013 207.658C453.996 214.78 450.955 224.249 448.376 231.703C437.294 210.836 426.465 189.836 415.89 168.707C420.98 168.465 422.223 168.156 426.723 166.037Z"/><path fill="#696B6B" d="M401.311 145.214C405.749 144.986 419.778 144.29 423.397 146.153C430.338 149.727 429.524 163.232 420.26 164.511C419.132 164.67 418.003 164.809 416.871 164.928C412.693 164.968 408.5 165.058 404.25 165.158C397.923 165.61 388.64 165.234 388.673 156.497C388.712 146.219 393.808 145.683 401.311 145.214Z"/><path fill="#696B6B" d="M356.909 147.133C364.01 147.569 379.048 152.211 385.442 155.413C383.068 155.997 380.721 156.518 378.355 157.09C377.655 157.209 376.953 157.318 376.249 157.417C371.224 158.075 361.759 159.049 357.033 157.32C350.181 154.812 349.94 149.572 356.909 147.133Z"/><path fill="#696B6B" d="M457.589 144.584C462.338 144.234 469.897 145.533 464.272 152.018C460.399 156.482 448.401 155.733 442.566 155.391C439.423 154.772 436.097 154.381 432.901 153.814C439.592 151.08 451.15 145.968 457.589 144.584Z"/><path fill="#F6AACB" d="M600.786 511.041C611.112 517.149 625.296 532.151 633.605 541.08C691.88 603.703 741.762 683.238 751.9 769.686C752.615 775.78 752.351 782.03 753.166 788.075C768.934 788.607 787.794 775.929 799.255 765.808C810.838 755.58 814.19 747.343 822.631 735.899C828.749 741.606 831.437 742.425 839.864 741.761C841.12 741.662 842.224 741.494 843.399 741.923C832.128 783.71 798.713 822.937 751.464 812.288C744.974 841.076 738.423 853.114 714.472 870.926C722.384 872.241 727.914 873.59 732.906 880.393C736.943 885.451 739.181 892.139 737.428 898.768C730.37 925.451 704.306 916.518 684.723 914.541C660.938 912.139 625.602 907.949 603.301 917.74C590.312 923.442 583.678 932.093 567.561 929.198C562.682 928.474 558.754 926.89 554.248 926.331C548.649 925.636 546.431 924.689 541.531 921.917L541.541 921.809C541.372 922.464 540.903 925.116 539.609 924.813C529.199 922.371 524.201 914.624 526.141 904.002C527.822 894.798 537.68 886.809 545.665 882.737L545.827 882.273C537.154 879.449 518.842 881.355 510.286 884.042C495.183 888.782 489.736 892.35 474.662 884.323C467.218 886.189 463.605 886.056 456.388 882.835C450.141 900.053 443.047 917.247 436.817 934.532C432.434 946.692 426.915 953.932 412.581 954.085C410.741 954.092 408.401 954.056 406.579 953.659C398.155 944.782 396.972 939.794 404.79 929.183C408.216 926.671 408.839 925.091 413.876 922.87C414.696 922.61 419.488 921.287 419.559 921.08C421.495 915.469 415.502 917.066 414.279 917.232C408.775 919.727 407.137 919.542 402.4 924.294C401.131 925.063 399.606 926.902 398.78 928.108C394.002 935.085 393.897 939.261 395.085 947.078C392.552 946.403 388.516 945.594 386.587 943.882C379.619 937.698 381.276 926.619 387.584 920.577C388.192 919.994 388.641 919.581 389.069 918.909C391.818 917.067 392.493 916.464 395.527 914.968C398.844 914.018 403.323 912.928 403.762 909.146L403.871 908.311C401.686 907.089 400.232 907.35 397.757 908.067C396.135 908.547 394.565 909.187 393.071 909.978C392.923 910.054 392.775 910.129 392.627 910.205C386.781 913.191 381.413 918.29 378.641 924.3C375.967 930.097 375.886 935.773 378.191 941.698C378.309 942 378.811 942.965 378.743 943.304C378.692 943.561 378.511 943.806 378.278 943.925C377.673 944.235 376.615 943.977 375.995 943.84C375.811 943.8 375.628 943.749 375.444 943.706C374.098 943.386 372.9 943.005 371.693 942.291C368.915 940.648 366.692 937.965 366.016 934.751C365.982 934.588 365.959 934.423 365.928 934.26C362.871 918.173 381.659 913.957 382.465 910.249C382.632 909.483 382.267 908.763 381.839 908.153C381.527 907.71 381.204 907.275 380.895 906.83C386.074 903.22 394.182 900.772 399.989 897.923C410.495 892.769 411.956 884.154 414.879 873.929C416.316 868.87 417.839 863.836 419.446 858.829C401.188 859.662 393.898 851.855 395.527 833.929C384.329 829.086 379.89 823.835 379.351 811.503C377.991 812.339 378.506 812.02 377.454 813.341C374.007 817.67 370.073 819.108 364.947 820.491C368.199 838.944 357.595 847.55 340.115 841.031C335.689 854.146 323.06 855.538 312.929 847.434C305.98 863.745 299.151 880.138 291.059 895.92C283.487 910.689 277.924 916.621 260.691 916.119C254.016 915.191 251.8 913.1 244.501 912.778C230.046 912.139 213.431 907.962 217.89 889.495C220.585 878.328 227.778 875.376 235.776 869.64C244.16 865.158 252.916 864.423 261.009 860.649C266.812 857.943 272.536 844.35 275.963 839.418C271.508 835.698 269.956 834.053 267.864 828.694C262.736 828.376 258.713 828.058 254.41 824.66C251.296 822.214 249.309 818.61 248.902 814.672C248.158 808.084 251.08 803.965 254.829 799.19C250.354 796.897 247.5 794.948 245.3 790.069C243.387 785.735 243.353 780.803 245.206 776.444C247.643 770.812 252.039 768.058 257.527 766.025C252.944 747.223 260.697 740.8 278.903 742.12C279.357 738.332 279.469 735.441 281.447 732.09C283.419 728.674 286.73 726.237 290.578 725.369C296.603 723.954 300.813 725.831 305.672 728.846C307.463 726.7 308.308 726.08 310.462 724.358C312.62 717.239 315.358 699.254 317.214 690.561L327.329 643.729C328.657 637.683 330.235 632.052 331.452 625.929L331.704 625.084C331.07 623.971 318.239 622.06 314.813 619.391C303.238 610.374 300.251 600.721 302.147 586.197C311.025 591.376 317.267 591.53 326.893 589.158C327.352 590.341 327.831 591.517 328.329 592.684C335.786 610.021 351.558 610.971 366.597 603.839C368.017 606.064 369.694 608.114 371.594 609.946C383.468 621.26 396.831 618.627 407.317 607.395C409.251 610.237 411.698 612.694 414.532 614.641C420.199 618.534 427.197 619.977 433.942 618.643C442.702 616.866 446.822 612.158 451.315 605.212C454.741 608.467 457.113 610.395 461.73 612.116C468.691 614.637 476.376 614.234 483.035 610.998C491.439 606.826 494.334 600.979 497.197 592.801C500.329 595.056 503.216 596.66 506.967 597.663C513.807 599.441 521.074 598.398 527.138 594.77C534.851 590.237 537.685 584.212 539.852 576.097C543.929 577.724 547.009 578.605 551.475 578.521C558.283 578.459 564.759 575.573 569.356 570.551C575.976 563.197 575.731 556.022 575.323 547.065C598.279 547.223 608.704 532.827 600.786 511.041ZM375.42 763.904C386.788 771.537 383.557 784.379 373.095 791.208C377.789 795.158 378.665 798.292 380.135 803.919C382.933 798.821 385.589 796.227 390.105 792.773C387.444 787.697 384.29 782.065 383.977 776.241C383.708 770.449 385.848 764.804 389.888 760.646C396.354 753.988 402.954 753.913 411.343 753.747C413.77 733.744 424.878 730.232 442.688 736.088C443.819 732.888 444.36 731.008 445.131 727.701C447.129 728.857 447.825 729.595 449.986 728.534C451.835 725.11 457.212 678.303 458.318 670.31L461.673 646.369C462.303 641.909 463.123 637.093 463.4 632.615C463.495 631.081 463.511 631.518 462.521 630.503C460.805 629.891 460.91 629.803 459.177 630.259C457.275 632.005 455.889 646.715 455.302 650.327C451.937 671.024 449.885 692.055 446.614 712.75C443.936 710.291 441.556 708.116 439.066 705.47C426.485 708.308 418.879 707.706 410.867 696.468C398.068 697.868 392.21 695.79 385.471 684.502C376 700.404 367.361 723.958 356.697 739.797C373.282 740.713 378.274 747.569 375.42 763.904ZM553.986 746.955C554.898 731.968 557.655 724.14 565.016 710.829C565.464 710.797 565.876 710.574 566.149 710.217C566.421 709.86 566.528 709.403 566.441 708.962C576.257 695.984 588.903 684.636 605.729 682.507C639.896 678.185 671.04 699.278 694.105 722.341C696.808 725.042 703.308 735.408 707.342 731.092C708.081 726.649 698.393 718.127 695.221 714.856C655.643 674.033 585.879 652.609 555.685 716.321C553.84 720.212 553.088 725.227 550.948 728.913C550.401 734.277 548.016 743.646 553.986 746.955ZM567.536 848.283C562.28 845.047 556.847 842.256 551.546 839.083C544.169 834.668 537.325 829.748 530.488 824.549C526.347 829.75 523.951 831.341 517.937 833.473L518.216 835.462C518.518 837.673 518.519 843.774 518.383 845.994C534.591 846.405 551.093 849.09 567.58 849.617C569.622 849.531 568.916 848.843 567.536 848.283ZM575.489 898.979C577.552 898.159 579.067 898.209 579.336 895.812C579.42 895.075 579.173 894.34 578.661 893.804C577.619 892.722 576.101 892.962 574.701 892.983C573.316 893.474 572.168 893.995 570.825 894.51C570.565 900.419 568.255 896.575 566.506 901.425C566.069 902.634 567.084 902.772 568.002 902.807C570.705 901.75 573.509 899.365 575.489 898.979ZM544.364 630.247C544.559 628.879 545.034 627.596 545.368 626.233L545.862 624.229C546.286 622.52 547.948 616.783 547.071 615.753C543.157 611.153 541.4 617.134 541.09 619.451C541.129 623.162 540.774 626.406 540.165 630.051C539.866 631.848 543.654 630.427 544.364 630.247Z"/><path fill="#696B6B" fill-opacity="0.98823529" d="M550.948 728.913C553.088 725.227 553.84 720.212 555.685 716.321C585.879 652.609 655.643 674.033 695.221 714.856C698.393 718.127 708.081 726.649 707.342 731.092C703.308 735.408 696.808 725.042 694.105 722.341C671.04 699.278 639.896 678.185 605.729 682.507C588.903 684.636 576.257 695.984 566.441 708.962C566.278 708.137 565.493 707.588 564.662 707.717C563.832 707.846 563.25 708.607 563.345 709.442C563.44 710.278 564.177 710.89 565.016 710.829C557.655 724.14 554.898 731.968 553.986 746.955C548.016 743.646 550.401 734.277 550.948 728.913Z"/><path fill="#696B6B" fill-opacity="0.98431373" d="M446.614 712.75C449.885 692.055 451.937 671.024 455.302 650.327C455.889 646.715 457.275 632.005 459.177 630.259C460.91 629.803 460.805 629.891 462.521 630.503C463.511 631.518 463.495 631.081 463.4 632.615C463.123 637.093 462.303 641.909 461.673 646.369L458.318 670.31C457.212 678.303 451.835 725.11 449.986 728.534C447.825 729.595 447.129 728.857 445.131 727.701C445.234 722.816 446.008 717.626 446.614 712.75Z"/><path fill="#696B6B" fill-opacity="0.82352942" d="M541.09 619.451C541.4 617.134 543.157 611.153 547.071 615.753C547.948 616.783 546.286 622.52 545.862 624.229L545.368 626.233C545.034 627.596 544.559 628.879 544.364 630.247C543.654 630.427 539.866 631.848 540.165 630.051C540.774 626.406 541.129 623.162 541.09 619.451Z"/><path fill="#696B6B" fill-opacity="0.90588236" d="M574.701 892.983C572.954 895.011 572.323 898.004 575.489 898.979C573.509 899.365 570.705 901.75 568.002 902.807C567.084 902.772 566.069 902.634 566.506 901.425C568.255 896.575 570.565 900.419 570.825 894.51C572.168 893.995 573.316 893.474 574.701 892.983Z"/><path fill="#696B6B" fill-opacity="0.78823531" d="M574.701 892.983C576.101 892.962 577.619 892.722 578.661 893.804C579.173 894.34 579.42 895.075 579.336 895.812C579.067 898.209 577.552 898.159 575.489 898.979C572.323 898.004 572.954 895.011 574.701 892.983Z"/><path fill="#696B6B" fill-opacity="0.90588236" d="M565.016 710.829C564.177 710.89 563.44 710.278 563.345 709.442C563.25 708.607 563.832 707.846 564.662 707.717C565.493 707.588 566.278 708.137 566.441 708.962C566.528 709.403 566.421 709.86 566.149 710.217C565.876 710.574 565.464 710.797 565.016 710.829Z"/><path fill="#FBFAFA" fill-opacity="0.047058824" d="M567.536 848.283C568.916 848.843 569.622 849.531 567.58 849.617L567.536 848.283Z"/><path fill="#696B6B" d="M331.452 625.929C331.198 634.033 332.786 641.869 338.3 647.906C343.899 654.035 350.664 656.081 358.352 656.815C359.01 656.878 359.515 663.847 360.259 665.507C361.662 668.635 363.835 671.129 366.202 673.639C374.476 678.933 383.007 675.085 385.021 678.297C385.133 680.303 385.453 682.611 385.471 684.502C376 700.404 367.361 723.958 356.697 739.797C373.282 740.713 378.274 747.569 375.42 763.904C386.788 771.537 383.557 784.379 373.095 791.208C377.789 795.158 378.665 798.292 380.135 803.919C379.493 805.229 378.931 810.249 379.351 811.503C377.991 812.339 378.506 812.02 377.454 813.341C374.007 817.67 370.073 819.108 364.947 820.491C368.199 838.944 357.595 847.55 340.115 841.031C335.689 854.146 323.06 855.538 312.929 847.434C305.98 863.745 299.151 880.138 291.059 895.92C283.487 910.689 277.924 916.621 260.691 916.119C254.016 915.191 251.8 913.1 244.501 912.778C230.046 912.139 213.431 907.962 217.89 889.495C220.585 878.328 227.778 875.376 235.776 869.64C244.16 865.158 252.916 864.423 261.009 860.649C266.812 857.943 272.536 844.35 275.963 839.418C271.508 835.698 269.956 834.053 267.864 828.694C262.736 828.376 258.713 828.058 254.41 824.66C251.296 822.214 249.309 818.61 248.902 814.672C248.158 808.084 251.08 803.965 254.829 799.19C250.354 796.897 247.5 794.948 245.3 790.069C243.387 785.735 243.353 780.803 245.206 776.444C247.643 770.812 252.039 768.058 257.527 766.025C252.944 747.223 260.697 740.8 278.903 742.12C279.357 738.332 279.469 735.441 281.447 732.09C283.419 728.674 286.73 726.237 290.578 725.369C296.603 723.954 300.813 725.831 305.672 728.846C307.463 726.7 308.308 726.08 310.462 724.358C312.62 717.239 315.358 699.254 317.214 690.561L327.329 643.729C328.657 637.683 330.235 632.052 331.452 625.929Z"/><path fill="#525354" d="M366.202 673.639C374.476 678.933 383.007 675.085 385.021 678.297C385.133 680.303 385.453 682.611 385.471 684.502C376 700.404 367.361 723.958 356.697 739.797C355.559 740.653 354.962 741.047 353.736 741.774C352.256 736.068 350.974 732.004 345.624 728.53L362.008 685.563C363.127 682.593 366.958 676.054 366.202 673.639Z"/><path fill="#525354" d="M230.626 905.352C229.421 902.781 228.658 901.245 228.159 897.999C226.013 884.036 242.82 870.002 255.707 869.659C257.249 869.618 258.026 873.89 256.121 874.251C250.084 875.573 245.65 877.779 240.949 881.737C234.437 887.22 229.112 900.883 238.736 906.021C240.975 907.217 243.167 907.501 245.609 908.043C242.693 902.442 242.032 899.571 244.005 893.247C246.042 886.717 251.773 881.888 257.696 878.874C259.177 878.12 261.6 877.42 263.034 876.633C266.154 874.921 267.673 878.814 266.835 880.97C266.393 882.107 260.745 883.104 259.659 884.183C253.984 887.331 247.586 894.551 248.561 901.496C248.971 904.417 250.303 906.406 252.657 908.317C254.54 909.846 259.306 910.219 260.442 910.999C260.815 911.256 260.685 915.272 260.691 916.119C254.016 915.191 251.8 913.1 244.501 912.778C230.046 912.139 213.431 907.962 217.89 889.495C220.585 878.328 227.778 875.376 235.776 869.64C237.347 872.393 237.346 872.972 238.275 876.171C231.887 879.706 225.93 881.156 223.767 889.309C221.591 897.515 224.053 901.107 230.626 905.352Z"/><path fill="#525354" d="M522.941 698.231C530.766 699.272 533.129 696.478 538.401 691.24C534.584 701.755 527.877 722.352 543.242 729.136C545.616 730.184 548.528 729.827 550.948 728.913C550.401 734.277 548.016 743.646 553.986 746.955C554.277 795.262 586.172 830.959 622.292 858.908C629.447 864.444 637.775 867.75 641.687 876.153C614.907 878.462 586.934 876.476 560.05 878.392C554.501 878.787 550.529 881.541 545.827 882.273C537.154 879.449 518.842 881.355 510.286 884.042C495.183 888.782 489.736 892.35 474.662 884.323C467.218 886.189 463.605 886.056 456.388 882.835C458.069 878.293 459.541 873.348 461.184 868.691C471.707 877.853 487.644 880.002 493.107 863.551C493.801 861.459 493.536 857.796 493.472 855.486C504.527 859.896 513.55 857.275 518.383 845.994C534.591 846.405 551.093 849.09 567.58 849.617C569.622 849.531 568.916 848.843 567.536 848.283C562.28 845.047 556.847 842.256 551.546 839.083C544.169 834.668 537.325 829.748 530.488 824.549C530.771 814.666 532.21 813.594 525.364 805.033C538.353 794.872 536.365 780.646 520.479 775.241C526.814 760.456 519.599 750.238 504.293 748.06C508.385 740.279 520.972 700.27 522.941 698.231Z"/><path fill="#696B6B" d="M541.09 619.451C541.129 623.162 540.774 626.406 540.165 630.051C539.866 631.848 543.654 630.427 544.364 630.247C540.525 643.792 536.271 657.215 531.607 670.498C529.275 677.352 523.844 691.823 522.941 698.231C520.972 700.27 508.385 740.279 504.293 748.06C502.547 748.195 499.988 748.915 498.223 749.346C501.811 736.221 507.614 722.143 512.013 709.14C522.096 679.342 533.252 649.936 541.09 619.451Z"/><path fill="#696B6B" d="M541.531 921.917L541.541 921.809C541.372 922.464 540.903 925.116 539.609 924.813C529.199 922.371 524.201 914.624 526.141 904.002C527.822 894.798 537.68 886.809 545.665 882.737C543.833 885.244 541.452 886.883 539.542 889.269C534.972 894.977 529.853 902.45 530.742 910.122C531.457 916.294 535.107 917.78 540.295 919.694C537.758 913.817 536.832 909.181 539.383 902.712C542.683 894.499 550.513 887.597 558.507 884.129C559.806 883.565 563.297 882.451 564.277 883.232C568.52 886.61 563.416 887.779 561.196 889.122C558.777 890.586 558.863 889.451 556.687 890.8C549.223 895.324 539.808 906.962 544.927 915.998C547.12 919.869 551.687 920.659 555.719 921.699C555.714 921.561 555.71 921.423 555.705 921.285C553.65 909.015 560.392 900.097 570.825 894.51C570.565 900.419 568.255 896.575 566.506 901.425C566.069 902.634 567.084 902.772 568.002 902.807C564.361 907.469 560.951 909.416 560.847 916.501C560.753 922.933 562.982 925.241 567.561 929.198C562.682 928.474 558.754 926.89 554.248 926.331C548.649 925.636 546.431 924.689 541.531 921.917Z"/><path fill="#696B6B" d="M835.527 619.367C840.084 614.518 844.62 610.531 851.783 610.283C856.14 610.09 860.384 611.701 863.517 614.735C866.875 617.988 868.328 621.65 869.267 626.126C878.6 622.862 889.135 626.375 892.19 636.295C893.577 640.799 893.247 643.83 892.778 648.418C898.229 649.775 902.789 652.294 905.729 657.269C907.985 661.092 908.576 665.673 907.363 669.943C905.882 675.283 902.774 678.333 898.302 681.193L897.589 681.654C913.189 693.861 905.978 714.764 885.436 715.67C885.32 727.412 881.598 736.357 867.644 736.741C862.058 736.894 857.001 733.746 853.086 729.869C850.812 735.1 848.091 737.792 843.635 741.148L843.399 741.923C842.224 741.494 841.12 741.662 839.864 741.761C831.437 742.425 828.749 741.606 822.631 735.899L819.443 730.594C815.381 733.429 809.626 734.809 804.75 733.89C795.5 732.146 792.516 725.58 790.504 717.453C771.58 716.128 765.884 700.379 777.514 686.107C760.336 677.254 763.577 659.02 780.893 652.014C777.15 633.372 783.746 625.222 802.909 627.594C804.066 621.787 805.416 617.529 810.875 614.054C814.931 611.516 819.864 610.791 824.479 612.054C829.024 613.258 832.449 615.937 835.527 619.367Z"/><defs><linearGradient id="gradient_0" gradientUnits="userSpaceOnUse" x1="403.97528" y1="918.12439" x2="369.58682" y2="947.5329"><stop offset="0" stop-color="#636365" stop-opacity="0.95686275"/><stop offset="1" stop-color="#6B6A6B"/></linearGradient></defs><path fill="url(#gradient_0)" d="M406.579 953.659C402.89 953.173 399.085 952.009 395.5 951.847C391.094 951.648 388.513 950.51 384.498 949.069C382.433 948.743 380.063 949.189 378 948.999C350.75 946.486 358.963 914.372 378.762 907.549C379.693 907.228 380.018 907.196 380.895 906.83C381.204 907.275 381.527 907.71 381.839 908.153C382.267 908.763 382.632 909.483 382.465 910.249C381.659 913.957 362.871 918.173 365.928 934.26C365.959 934.423 365.982 934.588 366.016 934.751C366.692 937.965 368.915 940.648 371.693 942.291C372.9 943.005 374.098 943.386 375.444 943.706C375.628 943.749 375.811 943.8 375.995 943.84C376.615 943.977 377.673 944.235 378.278 943.925C378.511 943.806 378.692 943.561 378.743 943.304C378.811 942.965 378.309 942 378.191 941.698C375.886 935.773 375.967 930.097 378.641 924.3C381.413 918.29 386.781 913.191 392.627 910.205C391.199 912.169 386.233 917.052 389.069 918.909C388.641 919.581 388.192 919.994 387.584 920.577C381.276 926.619 379.619 937.698 386.587 943.882C388.516 945.594 392.552 946.403 395.085 947.078C393.897 939.261 394.002 935.085 398.78 928.108C399.606 926.902 401.131 925.063 402.4 924.294C402.547 924.689 402.573 925.006 402.891 925.196C403.805 925.218 404.762 922.839 406.253 922.708C406.762 922.663 409.475 924.313 409.445 924.264C408.51 925.103 404.255 927.254 404.027 928.965C404.34 929.081 404.375 929.116 404.79 929.183C396.972 939.794 398.155 944.782 406.579 953.659Z"/><path fill="#696B6B" fill-opacity="0.9137255" d="M402.4 924.294C407.137 919.542 408.775 919.727 414.279 917.232C413.377 919.14 411.639 921.748 413.876 922.87C408.839 925.091 408.216 926.671 404.79 929.183C404.375 929.116 404.34 929.081 404.027 928.965C404.255 927.254 408.51 925.103 409.445 924.264C409.475 924.313 406.762 922.663 406.253 922.708C404.762 922.839 403.805 925.218 402.891 925.196C402.573 925.006 402.547 924.689 402.4 924.294Z"/><path fill="#696B6B" fill-opacity="0.80000001" d="M395.527 914.968C391.911 910.07 394.769 910.114 398.163 909.225C401.073 908.463 400.575 908.225 403.871 908.311L403.762 909.146C403.323 912.928 398.844 914.018 395.527 914.968Z"/><path fill="#696B6B" fill-opacity="0.90196079" d="M392.627 910.205C392.775 910.129 392.923 910.054 393.071 909.978C394.565 909.187 396.135 908.547 397.757 908.067C400.232 907.35 401.686 907.089 403.871 908.311C400.575 908.225 401.073 908.463 398.163 909.225C394.769 910.114 391.911 910.07 395.527 914.968C392.493 916.464 391.818 917.067 389.069 918.909C386.233 917.052 391.199 912.169 392.627 910.205Z"/><path fill="#696B6B" fill-opacity="0.81568629" d="M414.279 917.232C415.502 917.066 421.495 915.469 419.559 921.08C419.488 921.287 414.696 922.61 413.876 922.87C411.639 921.748 413.377 919.14 414.279 917.232Z"/></svg>