<?xml version="1.0" encoding="UTF-8" standalone="no"?>
<svg
   width="1024"
   height="1024"
   viewBox="0 0 1024 1024"
   version="1.1"
   id="svg25"
   sodipodi:docname="dog.61-70.svg"
   inkscape:version="1.4.3 (0d15f75042, 2025-12-25)"
   xmlns:inkscape="http://www.inkscape.org/namespaces/inkscape"
   xmlns:sodipodi="http://sodipodi.sourceforge.net/DTD/sodipodi-0.dtd"
   xmlns:xlink="http://www.w3.org/1999/xlink"
   xmlns="http://www.w3.org/2000/svg"
   xmlns:svg="http://www.w3.org/2000/svg">
  <defs
     id="defs25">
    <linearGradient
       id="linearGradient33"
       inkscape:collect="always">
      <stop
         style="stop-color:#fafafa;stop-opacity:1;"
         offset="0"
         id="stop33" />
      <stop
         style="stop-color:#000000;stop-opacity:0;"
         offset="1"
         id="stop34" />
    </linearGradient>
    <linearGradient
       inkscape:collect="always"
       xlink:href="#linearGradient33"
       id="linearGradient34"
       x1="49.367149"
       y1="508.94263"
       x2="938.73078"
       y2="508.94263"
       gradientUnits="userSpaceOnUse" />
  </defs>
  <sodipodi:namedview
     id="namedview25"
     pagecolor="#ffffff"
     bordercolor="#000000"
     borderopacity="0.25"
     inkscape:showpageshadow="2"
     inkscape:pageopacity="0.0"
     inkscape:pagecheckerboard="0"
     inkscape:deskcolor="#d1d1d1"
     inkscape:zoom="1.3789062"
     inkscape:cx="511.63739"
     inkscape:cy="512"
     inkscape:window-width="3072"
     inkscape:window-height="1623"
     inkscape:window-x="0"
     inkscape:window-y="0"
     inkscape:window-maximized="1"
     inkscape:current-layer="svg25" />
  <g
     id="g33"
     style="stroke:url(#linearGradient34);stroke-opacity:1">
    <g
       id="g32"
       style="stroke:url(#linearGradient34);stroke-opacity:1">
      <path
         stroke="#1a1a1a"
         stroke-width="6"
         stroke-linejoin="round"
         stroke-linecap="round"
         fill="#0C0C0C"
         d="M842.638 118.803C862.955 91.5295 901.738 69.9765 935.731 68.4167C932.577 74.123 928.031 82.3236 925.486 88.4911C920.302 101.054 912.422 131.048 915.41 144.193C916.519 149.075 921.235 153.467 923.058 164.885L921.434 165.339C916.44 159.085 913.023 157.923 905.469 155.79C913.686 162.906 918.946 172.709 919.785 183.596C920.306 190.749 919.559 197.938 917.578 204.831C917.28 196.382 915.433 186.894 907.391 182.435C911.658 196.348 911.27 206.06 907.626 220.127C905.819 214.997 901.377 207.656 896.355 205.302L896.274 206.018C896.873 206.888 896.847 206.926 897.661 207.542C904.205 215.631 910.026 232.583 909.547 242.92C909.309 244.759 909.479 246.747 908.791 248.346C902.65 237.314 898.593 234.33 887.281 228.613C897.728 240.933 907.089 265.874 908.22 282.115L907.298 282.902C904.054 274.934 897.884 267.285 890.66 262.647C904.172 288.317 908.786 302.605 905.639 332.548C902.392 320.653 905.416 314.632 894.632 304.405C900.348 337.859 894.602 372.263 878.323 402.043C876.152 406.067 873.579 410.897 871.041 414.613C867.807 419.348 861.342 425.45 859.387 430.735C856.834 437.638 857.838 448.478 857.372 456.196C856.097 477.36 852.873 492.558 844.603 511.942C831.265 543.208 803.361 564.694 784.764 590.404C753.789 633.224 741.323 697.736 737.176 749.205C735.207 773.648 734.275 800.427 738.064 824.996C740.797 840.392 745.825 858.343 756.781 869.951C758.919 872.217 767.819 873.641 771.843 874.173C788.757 876.406 804.529 896.548 797.456 913.019C795.375 917.864 783.925 920.462 779.107 921.105C761.066 923.758 734.838 923.793 719.226 912.968C706.268 903.983 706.977 884.027 704.004 870.001C702.448 862.665 700.905 855.412 698.231 848.306C696.322 843.234 694.19 839.162 691.053 834.762C688.434 831.087 685.882 828.768 684.148 824.694C684.878 817.632 686.493 810.822 687.518 804.019C688.38 798.299 689.09 788.917 689.457 783.37C691.4 753.957 687.471 677.554 675.431 652.208L675.072 652.881C647.133 705.822 644.319 815.902 662.771 873.335C665.025 880.348 669.66 893.552 676.634 897.619C680.122 899.487 684.442 899.684 688.161 900.797C697.336 903.542 703.706 911.752 706.76 920.443C711.07 932.71 710.05 940.883 696.347 944.976C675.118 951.317 650.35 951.468 630.02 941.888C624.223 939.076 618.04 933.579 616.076 927.234C609.599 906.229 607.592 883.144 597.6 863.433C595.141 858.581 584.359 850.68 584.676 848.087C593.039 779.625 588.152 705.039 551.08 644.973C547.669 639.447 543.252 632.924 538.993 627.914C524.33 612.148 505.511 598.579 486.564 588.397C483.053 586.511 479.257 584.48 475.705 582.886C470.982 618.107 464.79 644.277 443.109 674.099C435.856 683.969 427.458 692.944 418.091 700.835C411.343 706.618 403.898 711.901 397.037 717.596C374.913 735.962 362.193 757.137 365.116 786.68C366.747 803.171 373.257 819.046 383.102 832.405C387.198 837.964 391.873 842.538 398.827 843.099C410.719 844.06 422.616 847.826 430.198 857.614C433.941 862.446 437.817 871.286 437.192 877.523C436.915 880.286 435.284 883.419 432.824 884.842C419.315 892.65 393.919 892.033 379.33 889.39C371.764 888.02 358.008 882.878 354.759 876.48C348.822 864.789 345.32 847.252 341.033 834.271C335.782 818.333 329.731 802.67 322.903 787.342C320.205 781.147 317.25 775.068 314.047 769.119C310.32 762.162 303.408 753.328 305.398 745.282C307.754 735.758 317.751 732.43 324.588 726.646C343.111 711.122 354.205 688.487 355.127 664.337C351.476 669.493 343.629 676.193 338.152 679.204L337.794 678.347C355.985 660.795 375.521 613.553 374.602 588.508C371.35 590.124 369.674 590.423 368.581 593.897C366.344 601.013 364.525 608.57 362.175 615.618C355.404 635.933 344.427 657.923 331.605 675.087C322.227 687.639 307.473 702.226 295.463 712.246C284.614 721.181 273.228 728.967 262.801 738.464C239.229 759.937 225.539 788.673 223.923 820.747C223.163 835.83 222.138 862.9 236.447 873.089C239.413 875.201 244.019 876.093 247.412 877.426C260.63 881.612 272.521 897.186 269.795 911.278C269.299 913.842 265.683 916.918 263.361 917.871C244.781 924.222 220.167 924.621 201.35 919.117C196.009 917.554 188.541 912.419 186.681 907.419C182.495 896.168 184.174 881.145 184.348 869.076C184.502 853.015 184.803 836.956 185.248 820.901L185.942 782.56C186.017 774.102 185.381 760.927 187.324 752.53C188.12 749.09 194.457 744.065 197.104 741.714C209.535 731.778 215.855 719.429 220.335 704.233C202.902 728.417 177.046 748.153 150.44 761.248C116.754 777.828 72.9661 782.515 54.1608 820.036C51.9642 817.016 54.9591 816.308 53.485 814.101C51.5637 811.224 52.784 808.026 52.4182 804.335C52.3942 797.368 53.6858 789.605 54.9432 782.67C60.5781 751.59 74.613 723.219 96.7038 700.52C103.639 693.394 110.674 688.741 118.091 682.338C140.918 662.633 157.77 646.087 172.256 619.459C185.766 594.623 188.325 576.948 195.73 550.806C204.596 518.334 219.948 487.995 240.86 461.618C285.029 406.303 350.406 375.867 420.573 374.55C450.005 373.998 473.922 377.291 503.922 373.823C562.068 367.537 614.201 335.154 645.605 285.817C652.463 275.067 657.28 263.397 663.353 252.249C667.572 244.505 673.202 237.263 678.695 230.378C665.08 235.191 658.646 240.691 650.202 252.567C656.919 233.564 663.669 217.728 677.968 203.207C669.21 207.547 663.323 213.786 658.023 221.834C661.294 208.007 661.287 194.386 664.677 182.119C656.109 189.821 653.913 194.022 651.77 205.339C647.601 185.74 654.222 169.846 667.801 155.894C659.912 158.068 654.126 160.81 649.38 167.828L648.064 166.1C650.386 156.087 653.157 154.137 656.763 145.163C658.457 140.947 657.61 133.027 657.177 128.418C655.065 105.922 647.994 88.4038 637.388 68.6829C640.822 68.8088 644.248 69.0948 647.655 69.54C678.645 73.548 713.325 94.9331 732.449 119.562C731.414 111.725 729.808 105.489 725.253 98.9802L726.558 97.8131C736.723 104.093 744.768 115.217 743.829 127.66C743.968 129.26 744.167 131.177 745.27 128.484C747.913 121.948 747.271 112.885 744.709 106.364C753.364 116.453 756.95 127.279 754.37 140.436C759.618 140.183 765.653 139.086 771.04 138.701C785.82 137.644 804.976 137.274 819.133 141.091C818.359 125.934 820.032 117.205 831.727 106.589C827.314 115.025 827.536 123.338 831.322 131.959C831.932 115.001 836.88 104.578 852.498 96.2143L852.858 97.6224C847.349 104.069 845.117 110.739 842.638 118.803ZM727.949 310.566C693.911 319.224 689.71 364.88 696.711 393.24L695.755 395.36C677.132 365.136 668.692 339.555 676.126 304.149C668.407 309.563 666.342 319.75 666.041 328.663C665.737 329.323 665.426 329.98 665.109 330.634C660.439 308.085 662.749 287.846 672.619 267.224C657.674 277.706 656.915 287.755 646.499 301.998C637.126 314.815 624.978 324.376 616.854 338.116C612.375 345.702 609.348 354.056 607.928 362.751C603.567 388.181 611.634 409.514 626.273 429.994L627.594 431.834C622.187 413.861 621.395 393.947 630.689 377.013C633.207 380.79 630.116 389.216 631.051 392.058L631.246 392.127C631.483 391.654 631.5 390.859 631.686 390.247L631.808 390.19C632.412 390.97 631.773 392.876 631.858 393.527C631.957 394.283 632.88 396.312 633.172 397.142C635.785 407.066 637.458 418.027 642.639 427.399C649.927 440.582 658.505 451.776 666.466 465.013C699.517 519.969 677.734 603.764 612.993 622.739C594.561 628.141 576.495 624.838 557.933 619.501C560.971 624.386 566.765 630.786 570.589 635.416C577.04 643.098 582.614 651.475 587.208 660.393C583.403 657.114 580.017 654.206 575.944 651.237C572.448 648.687 568.087 646.161 564.83 643.491C577.29 664.661 586.373 693.895 591.618 717.766C598.985 751.301 602.639 787.989 597.671 822.079C594.541 843.557 593.423 838.095 605.951 855.163C619.154 873.151 618.127 900.603 625.19 921.014C629.689 934.207 660.438 939.339 672.906 937.418C673.537 925.56 668.779 920.847 657.949 916.952C672.332 915.617 685.176 919.537 689.105 935.131L695.117 935.415C696.574 910.426 671.114 903.191 650.936 906.965C655.535 903.112 657.264 902.712 663.013 901.135C654.747 886.168 650.803 873.89 647.226 857.17C634.758 798.881 635.943 737.021 651.847 679.502C655.904 664.943 664.527 643.085 672.897 630.635C687.668 608.665 709.263 597.564 720.899 572.339L721.737 573.147C721.191 575.117 720.445 578.194 719.734 580.009C718.092 580.542 713.725 592.114 712.989 593.998C711.802 597.037 709.194 603.921 709.319 607.13C706.748 613.35 700.779 621.59 696.678 627.041C734.592 614.68 760.162 588.075 774.728 551.503C775.022 551.715 775.316 551.928 775.61 552.141L775.497 552.085L775.598 552.146C775.406 549.647 777.454 548.373 777.732 546.513C777.787 546.149 777.877 543.099 778.145 542.774C778.209 542.766 778.273 542.758 778.337 542.75C778.953 543.281 778.926 548.262 778.818 549.503C778.455 553.653 778.868 554.687 780.175 558.57C779.42 567.605 777.067 574.426 772.549 582.192C805.683 557.583 823.037 523.158 830.311 483.354C832.21 496.711 832.172 503.726 829.492 516.902C845.148 495.22 847.882 469.484 845.369 443.455C833.191 452.817 829.35 455.958 815.71 464.041C836.834 441.343 851.899 417.124 858.811 386.566C861.396 382.954 860.309 373.221 861.494 368.913C866.844 380.288 866.94 390.27 865.38 402.673C865.101 403.427 865.072 403.401 865.076 404.163C865.629 404.836 867.121 402.46 867.415 402.083C878.206 384.885 882.819 367.165 878.177 347.05C874.864 332.195 865.638 319.334 852.629 311.434L850.593 310.193C849.667 312.394 847.422 317.893 846.067 319.609C837.929 329.911 840.577 341.041 835.578 352.213C833.019 357.933 828.857 361.918 824.979 366.7C816.179 377.318 813.992 390.506 811.835 403.618C810.074 403.877 811.238 405.546 810.903 407.239L810.814 407.314C810.371 406.831 810.628 405.959 810.136 405.514C808.762 406.595 812.152 412.485 809.299 412.526C804.488 394.716 795.624 378.259 779.112 369.182C761.594 359.553 751.988 357.874 747.204 336.381C742.409 331.952 737.276 326.377 735.026 320.152C733.671 316.406 727.187 303.944 731.944 302.138C738.807 303.821 743.632 319.299 747.034 325.443C755.973 341.587 777.05 354.56 791.555 336.459C783.094 333.584 776.774 330.242 772.389 321.923C769.794 317.038 768.4 310.733 770.437 305.38C780.647 278.546 825.107 290.674 814.871 319.73C811.785 328.489 803.129 332.874 794.96 336.168C800.068 341.998 806.959 344.399 814.522 345.214C818.29 345.619 821.965 345.602 824.983 342.977C830.402 338.264 832.88 327.98 833.818 321.092C841.799 262.508 803.564 266.652 802.025 228.224C801.067 204.327 821.611 196.485 822.621 177.63C822.986 170.832 820.075 163.692 815.408 158.805C808.538 151.612 798.013 148.588 788.296 148.551C778.85 148.516 768.28 151.559 761.563 158.478C758.277 161.863 756.39 165.786 755.229 170.299C749.468 192.702 774.951 204.319 776.588 230.262C778.062 253.631 759.111 259.907 751.349 277.67C748.326 284.59 747.707 291.706 747.818 299.17C744.706 291.041 737.26 277.778 727.794 291.46C724.49 296.236 726.093 305.03 727.949 310.566ZM794 342.016C787.146 347.92 784.371 348.436 775.852 349.887C775.278 349.932 773.939 349.948 773.476 350.212L773.436 350.281C773.803 350.809 775.69 351.376 776.353 351.625C788.373 356.444 801.237 357.044 813.06 351.167L813.47 350.97C803.612 348.809 801.754 348.239 794 342.016ZM380.168 860.12C394.569 856.565 410.089 856.305 417.221 871.661C418.159 874.525 418.347 875.543 418.975 878.449C421.12 878.416 422.867 878.369 425.008 878.258C424.844 876.838 424.668 875.419 424.481 874.002C422.518 859.602 408.55 851.561 394.902 852.568C387.863 854.364 385.746 855.724 380.168 860.12ZM759.678 242.696C759.369 241.388 755.892 240.346 754.611 239.818C748.212 237.175 746.13 234.53 742.837 228.65C738.248 228.327 733.788 227.897 729.17 227.592C737.759 240.087 743.766 245.567 759.678 242.696ZM796.627 306.387C801.31 305.682 804.042 304.956 808.528 303.515C802.345 300.085 796.667 298.572 789.511 299.173C783.062 300.034 783.048 300.357 777.405 303.461L777.835 303.617C784.764 306.189 789.04 306.848 796.627 306.387ZM568.108 609.828C566.113 610.19 564.588 611.465 562.977 612.648L567.752 611.5C568.54 611.314 569.137 611.078 569.874 610.746C578.121 607.703 584.417 605.174 587.988 596.25C590.132 590.891 589.515 587.233 589.807 581.774C585.541 592.913 578.84 603.86 568.108 609.828ZM219.405 629.748C223.234 652.845 222.659 672.45 213.09 694.229C248.309 659.331 235.65 627.557 232.484 583.9C230.857 561.471 232.618 543.973 241.21 523.043C213.568 547.093 205.854 599.224 211.057 634.226L213.916 627.021C216.789 626.365 215.43 624.806 216.258 622.444C217.15 622.058 216.591 626.989 216.896 627.822C217.678 628.105 217.556 627.536 218.35 627.864L218.343 627.895C218.646 628.239 218.835 629.003 219.405 629.748ZM225.335 884.63C219.894 885.996 217.406 887.068 212.988 890.454L211.501 891.574C226.064 889.878 241.38 886.315 249.742 903.224C250.31 905.64 250.677 907.692 251.108 910.149L252.75 910.119C254.076 910.102 255.372 910.133 256.704 910.088C255.353 892.03 243.14 883.032 225.335 884.63ZM845.299 227.744C841.201 228.209 837.075 228.872 833.016 229.292C829.003 236.154 826.003 238.558 818.54 241.667C817.399 242.142 817.555 242.518 818.546 242.97C823.271 243.457 826.527 243.412 831.277 241.766C837.948 239.455 842.527 234.112 845.758 228.066C845.812 227.965 845.327 227.758 845.299 227.744ZM370.093 575.334C373.142 573.522 376.034 571.608 378.952 569.6C399.915 555.17 427.193 551.164 451.771 557.307C465.687 560.669 478.784 566.798 490.281 575.33C493.861 577.965 499.531 582.688 502.898 584.911C525.208 602.758 540.947 613.031 567.641 595.343C536.943 592 527.326 581.95 505.629 561.565C487.608 544.634 459.087 530.74 433.769 533.207C407.433 535.304 382.47 552.019 370.093 575.334ZM122.47 724.86C134.436 713.826 141.705 702.548 142.374 685.609C142.43 683.738 142.425 681.866 142.359 679.995C138.71 684.394 129.258 694.57 124.693 697.29C90.0526 717.934 74.3678 745.897 66.0347 785.715C71.1064 781.476 75.6831 777.028 80.849 772.926C93.4327 762.936 107.745 756.692 122.734 751.232C115.144 756.194 105.408 762.398 99.2295 769.08C105.518 767.455 110.425 764.954 116.329 762.906C151.921 750.555 171.446 724.796 183.302 690.14C169.423 711.592 148.382 719.354 125.373 725.848C123.873 725.532 123.858 725.562 122.47 724.86ZM778.021 901.064C779.728 904.978 779.738 905.694 780.628 909.842C781.418 909.759 785.492 909.562 785.901 909.384C786.27 908.845 786.04 906.58 785.997 906.006C784.985 892.64 770.891 883.217 758.135 884.16C749.707 885.317 747.14 886.881 740.523 891.995C755.545 887.977 767.941 887.485 778.021 901.064Z"
         id="path1"
         style="stroke:url(#linearGradient34);stroke-opacity:1" />
      <path
         fill="#0C0C0C"
         fill-opacity="0.94901961"
         d="M709.319 607.13C709.194 603.921 711.802 597.037 712.989 593.998C713.725 592.114 718.092 580.542 719.734 580.009C718.585 586.42 712.312 601.329 709.319 607.13Z"
         id="path2"
         style="stroke:url(#linearGradient34);stroke-opacity:1" />
      <path
         fill="#030204"
         fill-opacity="0.93333334"
         d="M779.27 535.048C780.197 542.246 781.197 551.438 780.175 558.57C778.868 554.687 778.455 553.653 778.818 549.503C778.926 548.262 778.953 543.281 778.337 542.75C778.273 542.758 778.209 542.766 778.145 542.774C777.877 543.099 777.787 546.149 777.732 546.513C777.454 548.373 775.406 549.647 775.598 552.146L775.497 552.085L775.61 552.141C775.316 551.928 775.022 551.715 774.728 551.503C775.238 548.664 776.806 545.769 777.375 542.742C777.838 540.281 778.701 537.556 779.27 535.048Z"
         id="path3"
         style="stroke:url(#linearGradient34);stroke-opacity:1" />
      <path
         fill="#030204"
         fill-opacity="0.91764706"
         d="M213.916 627.021C214.684 624.477 215.531 621.842 216.143 619.272L216.906 616.197C217.8 620.695 218.697 625.22 219.405 629.748C218.835 629.003 218.646 628.239 218.343 627.895L218.35 627.864C217.556 627.536 217.678 628.105 216.896 627.822C216.591 626.989 217.15 622.058 216.258 622.444C215.43 624.806 216.789 626.365 213.916 627.021Z"
         id="path4"
         style="stroke:url(#linearGradient34);stroke-opacity:1" />
      <path
         fill="#030204"
         fill-opacity="0.98431373"
         d="M631.5 374.793C631.694 375.781 631.901 376.766 632.122 377.748C632.175 384.797 632.77 390.229 633.172 397.142C632.88 396.312 631.957 394.283 631.858 393.527C631.773 392.876 632.412 390.97 631.808 390.19L631.686 390.247C631.5 390.859 631.483 391.654 631.246 392.127L631.051 392.058C630.116 389.216 633.207 380.79 630.689 377.013C630.987 376.274 631.236 375.543 631.5 374.793Z"
         id="path5"
         style="stroke:url(#linearGradient34);stroke-opacity:1" />
      <path
         fill="#030204"
         fill-opacity="0.94509804"
         d="M809.299 412.526C812.152 412.485 808.762 406.595 810.136 405.514C810.628 405.959 810.371 406.831 810.814 407.314L810.903 407.239C811.238 405.546 810.074 403.877 811.835 403.618C811.937 406.135 811.08 413.139 810.992 416.71L809.931 416.013C809.818 415.297 809.704 414.701 809.573 413.996L809.299 412.526Z"
         id="path6"
         style="stroke:url(#linearGradient34);stroke-opacity:1" />
      <path
         fill="#0C0C0C"
         fill-opacity="0.96862745"
         d="M858.811 386.566C859.297 380.961 860.655 375.193 860.476 369.501C860.465 369.122 860.224 367.361 860.748 367.096C861.02 367.323 861.393 368.611 861.494 368.913C860.309 373.221 861.396 382.954 858.811 386.566Z"
         id="path7"
         style="stroke:url(#linearGradient34);stroke-opacity:1" />
      <path
         fill="#FAFBFA"
         fill-opacity="0.30980393"
         d="M562.977 612.648C564.588 611.465 566.113 610.19 568.108 609.828L569.874 610.746C569.137 611.078 568.54 611.314 567.752 611.5L562.977 612.648Z"
         id="path8"
         style="stroke:url(#linearGradient34);stroke-opacity:1" />
      <path
         fill="#030204"
         fill-opacity="0.96862745"
         d="M122.47 724.86C123.858 725.562 123.873 725.532 125.373 725.848C124.718 725.937 121.197 726.88 120.923 726.268C121.126 725.737 122.031 725.203 122.47 724.86Z"
         id="path9"
         style="stroke:url(#linearGradient34);stroke-opacity:1" />
      <path
         fill="#030204"
         fill-opacity="0.97647059"
         d="M696.711 393.24C696.712 393.244 698.409 399.482 696.569 396.693C696.286 396.256 696.015 395.811 695.755 395.36L696.711 393.24Z"
         id="path10"
         style="stroke:url(#linearGradient34);stroke-opacity:1" />
      <path
         fill="#0C0C0C"
         fill-opacity="0.66274512"
         d="M809.931 416.013L810.992 416.71C810.99 417.225 811.075 420.383 810.773 420.669C810.645 420.54 809.996 416.389 809.931 416.013Z"
         id="path11"
         style="stroke:url(#linearGradient34);stroke-opacity:1" />
      <path
         fill="#FAFBFA"
         fill-opacity="0.019607844"
         d="M776.353 351.625C775.69 351.376 773.803 350.809 773.436 350.281L773.476 350.212C773.939 349.948 775.278 349.932 775.852 349.887L776.353 351.625Z"
         id="path12"
         style="stroke:url(#linearGradient34);stroke-opacity:1" />
      <path
         fill="#030204"
         fill-opacity="0.90588236"
         d="M720.899 572.339C721.126 571.721 721.489 570.212 722.079 569.852L722.188 569.854C722.489 570.249 721.846 572.577 721.737 573.147L720.899 572.339Z"
         id="path13"
         style="stroke:url(#linearGradient34);stroke-opacity:1" />
      <path
         fill="#0C0C0C"
         fill-opacity="0.86666667"
         d="M631.5 374.793C631.733 374.382 631.928 373.678 632.401 373.771C632.799 374.465 632.251 376.98 632.122 377.748C631.901 376.766 631.694 375.781 631.5 374.793Z"
         id="path14"
         style="stroke:url(#linearGradient34);stroke-opacity:1" />
      <path
         fill="#FAFBFA"
         fill-opacity="0.031372551"
         d="M865.38 402.673L867.415 402.083C867.121 402.46 865.629 404.836 865.076 404.163C865.072 403.401 865.101 403.427 865.38 402.673Z"
         id="path15"
         style="stroke:url(#linearGradient34);stroke-opacity:1" />
      <path
         fill="#0C0C0C"
         fill-opacity="0.71764708"
         d="M666.041 328.663L666.003 330.271C665.995 330.674 665.995 330.907 665.825 331.268C665.435 331.435 665.338 331.006 665.109 330.634C665.426 329.98 665.737 329.323 666.041 328.663Z"
         id="path16"
         style="stroke:url(#linearGradient34);stroke-opacity:1" />
      <path
         fill="#030204"
         fill-opacity="0.96078432"
         d="M52.2464 823.934C51.9805 818.741 51.7077 809.376 52.4182 804.335C52.784 808.026 51.5637 811.224 53.485 814.101C54.9591 816.308 51.9642 817.016 54.1608 820.036C53.5375 821.354 52.8669 822.579 52.2464 823.934Z"
         id="path17"
         style="stroke:url(#linearGradient34);stroke-opacity:1" />
      <path
         fill="#030204"
         fill-opacity="0.97254902"
         d="M720.896 94.0081C722.842 95.1877 724.731 96.4574 726.558 97.8131L725.253 98.9802C723.719 97.471 722.308 95.6633 720.896 94.0081Z"
         id="path18"
         style="stroke:url(#linearGradient34);stroke-opacity:1" />
      <path
         fill="#0C0C0C"
         fill-opacity="0.96862745"
         d="M909.547 242.92C909.68 243.739 910.487 249.92 909.796 250.224C909.302 249.991 908.972 248.833 908.791 248.346C909.479 246.747 909.309 244.759 909.547 242.92Z"
         id="path19"
         style="stroke:url(#linearGradient34);stroke-opacity:1" />
      <path
         fill="#0C0C0C"
         fill-opacity="0.98039216"
         d="M648.064 166.1L649.38 167.828C649.115 168.303 648.028 170.962 647.386 170.611C647.146 169.882 647.858 167.007 648.064 166.1Z"
         id="path20"
         style="stroke:url(#linearGradient34);stroke-opacity:1" />
      <path
         fill="#030204"
         fill-opacity="0.9137255"
         d="M852.498 96.2143C853.233 95.7065 854.003 95.2598 854.762 94.7908L855.001 95.3279L855.376 94.8108L855.151 94.6479C855.502 94.6251 855.374 94.5664 855.568 94.7153C855.668 95.1887 853.331 97.1479 852.858 97.6224L852.498 96.2143Z"
         id="path21"
         style="stroke:url(#linearGradient34);stroke-opacity:1" />
      <path
         fill="#030204"
         fill-opacity="0.92941177"
         d="M921.434 165.339L923.058 164.885C923.114 165.18 923.934 168.18 923.191 168.179C922.471 167.696 921.794 166.119 921.434 165.339Z"
         id="path22"
         style="stroke:url(#linearGradient34);stroke-opacity:1" />
      <path
         fill="#FAFBFA"
         fill-opacity="0.05882353"
         d="M743.829 127.66C744.33 127.937 744.784 128.178 745.27 128.484C744.167 131.177 743.968 129.26 743.829 127.66Z"
         id="path23"
         style="stroke:url(#linearGradient34);stroke-opacity:1" />
      <path
         fill="#0C0C0C"
         fill-opacity="0.85882354"
         d="M908.22 282.115C908.431 282.649 908.935 283.827 908.357 284.266C907.994 284.188 907.46 283.161 907.298 282.902L908.22 282.115Z"
         id="path24"
         style="stroke:url(#linearGradient34);stroke-opacity:1" />
      <path
         fill="#030204"
         fill-opacity="0.73725492"
         d="M338.152 679.204C337.805 679.49 337.287 680.085 336.769 679.91C336.479 679.371 337.513 678.628 337.794 678.347L338.152 679.204Z"
         id="path25"
         style="stroke:url(#linearGradient34);stroke-opacity:1" />
      <path
         style="fill:#ffffff;stroke-width:0.725212;fill-opacity:1;stroke:url(#linearGradient34);stroke-opacity:1"
         d="m 660.46567,934.021 c -12.59335,-1.21692 -24.57604,-5.50834 -29.48005,-10.55784 -3.0081,-3.09733 -4.38389,-7.86405 -8.37938,-29.03209 -4.78941,-25.37421 -7.42867,-32.45212 -16.84768,-45.18184 -7.54258,-10.19374 -7.31453,-9.11552 -5.07212,-23.98072 1.77346,-11.7565 1.91122,-14.41591 1.91472,-36.96256 0.003,-21.2197 -0.20559,-25.85503 -1.65046,-36.62323 -4.25469,-31.70925 -13.0506,-66.08259 -22.60415,-88.33431 -1.67905,-3.91077 -2.88456,-7.27877 -2.67891,-7.48442 0.20565,-0.20564 2.54072,1.46425 5.18905,3.71089 3.62884,3.07844 5.28072,4.02902 6.70494,3.85837 3.50446,-0.41992 3.75757,-2.26116 1.03384,-7.52053 -3.39923,-6.56373 -9.33555,-15.28622 -15.69158,-23.05632 -2.95473,-3.61211 -5.2492,-6.6905 -5.09881,-6.8409 0.15039,-0.15038 2.99402,0.2603 6.31917,0.91265 8.54859,1.67712 22.3132,2.21375 29.67986,1.1571 7.0184,-1.00669 18.77118,-4.73408 25.44207,-8.06895 22.96417,-11.4801 41.15679,-33.44345 49.82516,-60.15228 4.3918,-13.53192 5.43456,-20.5644 5.48425,-36.98583 0.052,-17.19469 -0.9442,-24.11203 -5.46933,-37.97675 -3.63027,-11.12294 -8.28137,-19.89587 -20.17794,-38.05978 -13.88256,-21.19614 -16.0933,-25.68922 -19.89884,-40.44216 -3.90532,-15.13975 -4.19201,-16.77009 -4.09202,-23.2702 0.10213,-6.6385 -1.3146,-9.84151 -4.20538,-9.50775 -1.55617,0.17967 -2.42399,1.1094 -4.27201,4.57675 -3.73392,7.00575 -5.46332,14.58231 -5.86614,25.69985 l -0.35311,9.74519 -1.82552,-3.58088 c -7.21456,-14.15177 -9.79166,-31.22474 -7.0669,-46.81732 2.78588,-15.94229 8.21725,-25.46251 25.37304,-44.47439 10.54487,-11.68573 14.38433,-16.7936 20.00603,-26.61524 2.4376,-4.25872 4.91405,-8.34328 5.50321,-9.0768 1.02148,-1.27174 1.05187,-1.26262 0.65445,0.19642 -3.14735,11.55494 -4.10504,28.79168 -2.26778,40.81598 0.6333,4.14472 1.51947,7.97928 1.96925,8.52124 0.44979,0.54196 1.77263,0.98538 2.93964,0.98538 1.67345,0 2.31624,-0.46231 3.04171,-2.18771 1.28073,-3.04596 1.91097,-1.96798 1.91097,3.26861 0,12.07316 4.98803,29.49257 13.0848,45.69531 8.97971,17.96962 12.19164,21.27693 15.37306,15.82959 1.29935,-2.22479 1.30124,-2.51197 0.0575,-8.70255 -1.58601,-7.89419 -1.79566,-28.75921 -0.35581,-35.41033 3.92035,-18.10929 11.68865,-29.90742 23.38183,-35.51123 5.55043,-2.65997 7.20083,-3.07834 7.20083,-1.82536 0,0.40538 1.4129,3.76057 3.13977,7.45597 2.17959,4.6642 4.45973,8.15357 7.45609,11.41025 3.51078,3.81581 4.6187,5.65482 5.93657,9.85399 2.15248,6.85852 6.38734,13.24851 11.1464,16.81882 2.12735,1.59597 8.47555,5.4072 14.1071,8.46941 11.13352,6.05394 15.13877,9.01457 20.26075,14.9765 6.12957,7.13474 8.58707,12.01672 15.00753,29.81341 0.43747,1.21261 1.25353,1.99433 2.08193,1.99433 0.92614,0 1.366,0.52254 1.37355,1.63173 0.006,0.89745 0.32745,2.12125 0.71411,2.71955 0.53128,0.8221 0.70571,0.49575 0.71411,-1.33604 0.006,-1.33312 0.65273,-3.23955 1.43694,-4.23652 0.80591,-1.02454 1.38833,-2.81046 1.33956,-4.10759 -0.0474,-1.26221 0.28891,-3.4351 0.74745,-4.82864 0.45855,-1.39354 1.3424,-5.4297 1.96412,-8.96924 2.47143,-14.07011 5.45503,-20.56495 14.69327,-31.985 6.91757,-8.5513 8.6373,-12.41188 11.11769,-24.95782 1.4139,-7.15155 2.67147,-11.48979 3.99427,-13.77903 1.06188,-1.83766 2.77705,-4.8886 3.81149,-6.77986 1.03445,-1.89126 2.04988,-3.4414 2.25651,-3.44476 0.97424,-0.0158 9.04803,7.28032 11.62962,10.50948 11.83605,14.80499 15.53241,36.18425 9.46659,54.75354 -2.74202,8.39414 -3.45865,9.69603 -3.97113,7.21431 -0.20162,-0.97637 -0.55122,-3.63457 -0.7769,-5.90713 -0.40235,-4.05169 -3.49074,-13.84159 -4.93079,-15.63012 -0.99117,-1.23102 -3.80272,-1.14513 -4.87673,0.14897 -0.48179,0.58052 -1.15815,4.30395 -1.50302,8.27428 -0.64901,7.47187 -0.77702,8.0015 -5.72186,23.67414 -6.30775,19.9924 -17.58187,39.21293 -34.11854,58.16649 -4.19245,4.8052 -5.15333,6.34865 -4.9663,7.97734 0.54059,4.70762 6.60176,2.19199 22.76257,-9.44735 l 6.47782,-4.66546 0.6406,2.98962 c 1.58739,7.40816 -1.85145,32.23627 -5.91545,42.70899 l -1.34218,3.45875 -0.82612,-8.78096 c -0.45437,-4.82953 -1.20833,-9.24149 -1.67547,-9.80436 -1.05156,-1.26706 -3.86206,-1.33447 -4.87251,-0.11688 -0.41376,0.49858 -1.61993,4.82266 -2.68036,9.60906 -6.61297,29.84836 -20.68135,56.93178 -38.801,74.69689 l -4.43812,4.35127 0.57751,-3.98867 c 0.63141,-4.36098 0.61399,-5.32213 -0.30797,-16.99452 -0.39671,-5.02246 -0.94494,-8.03556 -1.49546,-8.21907 -0.48105,-0.16035 -0.86913,-1.57712 -0.86913,-3.17293 0,-1.73747 -0.28819,-2.70511 -0.72522,-2.43501 -0.39886,0.24652 -0.72521,1.0838 -0.72521,1.86063 0,0.77683 -0.7939,2.1027 -1.76421,2.94639 -1.02013,0.88699 -1.9631,2.71116 -2.23577,4.32512 -0.25937,1.53514 -1.03763,3.53505 -1.72947,4.44425 -0.69184,0.90919 -1.69981,2.79528 -2.23991,4.19132 -0.54011,1.39603 -2.26712,5.14901 -3.83782,8.33994 -10.36565,21.05834 -24.61933,37.5056 -42.58375,49.13717 -5.48152,3.54917 -15.97997,9.24243 -17.04314,9.24243 -0.21971,0 0.91436,-2.39384 2.52014,-5.31965 1.60578,-2.92582 2.9196,-5.89637 2.9196,-6.60125 0,-2.46547 4.44317,-14.61289 8.01019,-21.89947 4.19739,-8.5743 5.28022,-13.72243 3.20538,-15.23958 -2.3179,-1.6949 -4.63439,-1.20188 -5.99151,1.27515 -5.70124,10.40601 -11.68215,17.92315 -25.73089,32.33998 -16.02696,16.44691 -19.9816,21.20406 -25.27675,30.40619 -18.54703,32.23182 -29.86451,81.6344 -30.87977,134.79501 -0.58379,30.56838 1.37451,54.33316 6.72302,81.5864 3.9249,19.99926 8.0645,33.65631 13.44843,44.3681 l 2.07018,4.11881 -2.56662,0.84706 c -1.41165,0.46589 -3.85836,2.07586 -5.43715,3.57772 -2.45215,2.33268 -2.77581,2.98298 -2.22071,4.46189 0.64034,1.70602 0.76992,1.72772 8.89729,1.48992 17.73392,-0.51889 29.87429,5.18879 33.62036,15.80628 1.63043,4.62112 1.32695,5.93533 -0.50865,2.20274 -2.3582,-4.79527 -7.78231,-9.76268 -12.64818,-11.58323 -7.59422,-2.84137 -20.09018,-3.4169 -22.08189,-1.01704 -1.74702,2.10504 -0.10419,4.40214 4.78437,6.68978 5.577,2.60979 8.06159,5.06584 9.12688,9.02202 0.78238,2.90552 0.14726,4.27463 -1.86976,4.03067 -0.39887,-0.0482 -3.42728,-0.34881 -6.7298,-0.66794 z"
         id="path26" />
      <path
         style="fill:#ffffff;fill-opacity:1;stroke-width:0.725212;stroke:url(#linearGradient34);stroke-opacity:1"
         d="m 811.51275,341.26597 c -4.32083,-0.97655 -9.79037,-3.20922 -9.79037,-3.99643 0,-0.22597 1.48258,-1.19735 3.29463,-2.15864 12.89183,-6.8391 18.20079,-21.56592 12.23236,-33.93206 -3.83133,-7.93825 -12.44592,-13.14858 -22.84074,-13.81471 -11.49737,-0.73678 -20.85579,4.43534 -26.18722,14.47288 -1.34541,2.53302 -1.65606,4.26624 -1.66313,9.27914 -0.008,5.42661 0.26594,6.74401 2.28625,11.00844 2.88085,6.08085 7.11588,10.71813 12.2277,13.38911 2.18175,1.13998 3.96759,2.28835 3.96854,2.55192 9.5e-4,0.26357 -1.48309,1.198 -3.29786,2.07652 -2.61428,1.26554 -4.23349,1.53727 -7.79604,1.30829 -6.22147,-0.39989 -10.77045,-2.79297 -16.90166,-8.89143 -4.59273,-4.5682 -5.70675,-6.27493 -10.24456,-15.69504 -6.71486,-13.93949 -11.20626,-18.92818 -15.96585,-17.7336 -1.7527,0.4399 -1.81747,0.34555 -1.42463,-2.07523 0.49379,-3.04287 2.91537,-6.50876 5.30988,-7.59977 1.49046,-0.6791 2.05702,-0.50818 3.93564,1.18729 1.20699,1.08932 3.27059,4.10183 4.58578,6.69446 1.71829,3.38727 2.84561,4.78057 4.00574,4.95085 2.73949,0.4021 3.47012,-0.98391 3.97396,-7.5387 1.01061,-13.14773 3.28878,-18.12322 14.2617,-31.14745 11.32033,-13.43658 14.49864,-20.19703 14.47054,-30.77967 -0.0277,-10.42596 -3.31268,-19.41807 -11.93342,-32.66567 -7.64296,-11.74502 -10.02007,-17.21821 -10.02188,-23.07491 -0.005,-14.96396 12.14977,-24.9336 30.34735,-24.89245 16.97251,0.0384 29.3703,9.14807 30.57813,22.46829 0.59299,6.53953 -1.10173,11.01558 -8.10235,21.39976 -3.37239,5.00233 -6.93837,10.68722 -7.92442,12.63309 -5.71689,11.28173 -5.35729,27.46153 0.88516,39.82777 2.03298,4.02731 4.29642,7.20137 15.59618,21.87083 9.39627,12.19831 11.6658,19.26594 11.68092,36.37602 0.0122,13.74284 -1.18447,20.84009 -4.74137,28.12126 -3.35429,6.86641 -6.55306,8.24484 -14.80496,6.37984 z"
         id="path27" />
      <path
         style="fill:#ffffff;fill-opacity:1;stroke-width:0.725212;stroke:url(#linearGradient34);stroke-opacity:1"
         d="m 742.98017,244.59752 c -2.30315,-0.80101 -4.86397,-2.75812 -8.70255,-6.65096 -6.53107,-6.62338 -8.72965,-10.26256 -7.26571,-12.02651 0.81916,-0.98703 1.95127,-1.11084 6.84318,-0.7484 10.15849,0.75266 10.30902,0.80606 12.87964,4.56963 2.93965,4.30385 3.61452,4.86066 8.93843,7.3748 2.39417,1.13062 4.95276,2.71835 5.68576,3.5283 1.64056,1.81281 1.06031,4.15151 -1.17897,4.75184 -3.13466,0.84035 -13.92813,0.33915 -17.19978,-0.7987 z m 4.28317,-6.03879 c -1.03316,-0.75261 -2.77363,-2.66008 -3.86771,-4.23884 -1.57018,-2.26576 -2.59764,-2.97325 -4.87728,-3.3584 -1.58842,-0.26836 -3.05459,-0.32138 -3.25816,-0.11781 -0.60909,0.60909 4.90094,6.30585 7.29818,7.54551 2.67171,1.3816 5.72371,2.29122 6.22217,1.85447 0.19871,-0.1741 -0.48403,-0.93232 -1.5172,-1.68493 z"
         id="path28" />
      <path
         style="fill:#ffffff;fill-opacity:1;stroke-width:0.725212;stroke:url(#linearGradient34);stroke-opacity:1"
         d="m 816.36686,244.53683 c -2.15236,-2.15236 -1.28532,-4.13441 2.60943,-5.96516 5.54051,-2.60434 8.89133,-5.7485 12.19382,-11.44177 0.0715,-0.12332 3.33029,-0.67119 7.24169,-1.21749 10.30217,-1.43891 11.92219,0.065 7.4975,6.96033 -5.14835,8.02301 -12.58652,12.33099 -22.16284,12.83609 -5.2139,0.275 -6.06829,0.13931 -7.3796,-1.172 z m 17.26487,-6.74379 c 2.91152,-1.74543 6.52691,-4.99181 6.52691,-5.86073 0,-0.32424 -1.07997,-0.58953 -2.39993,-0.58953 -2.00812,0 -2.96211,0.65117 -5.84349,3.98866 -3.77292,4.37016 -3.09317,5.34496 1.71651,2.4616 z"
         id="path29" />
      <path
         style="fill:#ffffff;fill-opacity:1;stroke-width:0.725212;stroke:url(#linearGradient34);stroke-opacity:1"
         d="m 534.31084,600.08315 c -7.73733,-2.08376 -13.53503,-5.73773 -34.86417,-21.97301 -14.96511,-11.39112 -25.60507,-17.3966 -38.03649,-21.46883 -23.87915,-7.82223 -48.78385,-7.03267 -69.79545,2.21273 -3.19093,1.40406 -6.29122,2.74331 -6.88952,2.97611 -2.06779,0.80458 4.73317,-5.79324 10.17944,-9.87539 20.88267,-15.65222 45.37935,-19.49793 69.95654,-10.98243 15.06712,5.22046 27.33654,13.08381 43.28998,27.74414 6.10552,5.61065 13.71172,12.16199 16.90265,14.55854 7.43468,5.58383 17.04143,10.22489 25.6574,12.39521 l 6.80187,1.71335 -3.17581,1.15436 c -8.03212,2.91956 -13.38864,3.33286 -20.02644,1.54522 z"
         id="path30" />
      <path
         style="fill:#ffffff;fill-opacity:1;stroke-width:0.725212;stroke:url(#linearGradient34);stroke-opacity:1"
         d="m 223.27631,673.35977 c 1.34665,-8.44853 1.98524,-18.16924 1.59601,-24.29461 -0.74644,-11.74666 -1.97883,-19.82606 -3.4079,-22.34174 -0.74934,-1.31912 -1.36244,-2.84731 -1.36244,-3.39598 0,-0.54868 -0.77223,-2.52099 -1.71607,-4.38291 -1.56443,-3.08618 -1.7543,-3.23467 -2.1487,-1.6805 -0.23796,0.93764 -1.14837,2.1473 -2.02314,2.68813 l -1.5905,0.98332 0.45766,-12.22411 c 0.66801,-17.84259 2.92872,-31.59261 7.49468,-45.58389 2.11494,-6.48076 8.11327,-19.5255 10.00416,-21.75638 1.18952,-1.4034 1.21489,-1.36813 0.78245,1.08782 -3.27783,18.61578 -3.29613,37.16267 -0.0626,63.45609 4.17499,33.94896 3.1615,48.51597 -4.44012,63.8187 -3.21822,6.47854 -4.19582,7.46777 -3.58348,3.62606 z"
         id="path31" />
      <path
         style="fill:#ffffff;fill-opacity:1;stroke-width:0.725212;stroke:url(#linearGradient34);stroke-opacity:1"
         d="m 72.15864,774.64813 c 0,-2.18258 6.484099,-19.80426 9.784641,-26.59147 9.253681,-19.02922 20.450989,-31.6399 39.644579,-44.64868 4.70196,-3.18684 10.51443,-7.61387 12.9166,-9.83785 l 4.36757,-4.04361 -0.45092,2.43221 c -0.78469,4.23248 -3.21098,11.01774 -5.14855,14.39821 -2.29884,4.01079 -7.88097,11.1104 -11.37339,14.46521 -2.98733,2.86962 -3.3293,5.24887 -0.98993,6.88744 2.58218,1.80863 6.33606,1.34043 16.64149,-2.0756 14.31857,-4.74631 23.78486,-9.3254 31.24247,-15.11281 1.49575,-1.16076 2.71955,-1.8654 2.71955,-1.56586 0,1.05311 -5.26607,10.14408 -8.55317,14.76557 -9.88068,13.89175 -20.90526,23.41983 -35.74531,30.89315 -5.56675,2.80337 -8.39009,3.08977 -4.05655,0.41149 3.28006,-2.02719 3.7752,-5.40706 0.97878,-6.68119 -1.3971,-0.63656 -3.17739,-0.18107 -10.33428,2.64406 -14.932744,5.89457 -27.505386,12.92019 -36.204486,20.23114 -4.348219,3.65436 -5.439094,4.342 -5.439094,3.42859 z"
         id="path32" />
    </g>
  </g>
</svg>
