<?xml version="1.0" encoding="UTF-8" standalone="no"?>
<svg
   viewBox="0 0 1434 1024"
   version="1.1"
   id="svg1"
   sodipodi:docname="got.11-20.svg"
   inkscape:version="1.4.4 (dcaf3e7d9e, 2026-05-05)"
   xmlns:inkscape="http://www.inkscape.org/namespaces/inkscape"
   xmlns:sodipodi="http://sodipodi.sourceforge.net/DTD/sodipodi-0.dtd"
   xmlns="http://www.w3.org/2000/svg"
   xmlns:svg="http://www.w3.org/2000/svg">
  <sodipodi:namedview
     id="namedview1"
     pagecolor="#ffffff"
     bordercolor="#000000"
     borderopacity="0.25"
     inkscape:showpageshadow="2"
     inkscape:pageopacity="0.0"
     inkscape:pagecheckerboard="0"
     inkscape:deskcolor="#d1d1d1"
     inkscape:zoom="0.68945313"
     inkscape:cx="386.53824"
     inkscape:cy="765.82436"
     inkscape:window-width="3072"
     inkscape:window-height="1623"
     inkscape:window-x="0"
     inkscape:window-y="0"
     inkscape:window-maximized="1"
     inkscape:current-layer="svg1" />
  <defs
     id="defs1">
    <style
       type="text/css"
       id="style1">
      .wolf-avatar { image-rendering: crisp-edges; }
    </style>
  </defs>
  <g
     id="g1"
     transform="matrix(1.9571059,0,0,1.9571059,-655.84817,-491.20574)">
    <path
       style="opacity:0.994191;fill:#ffffff;fill-opacity:1;stroke:#a8a8a8;stroke-width:0"
       d="m 391.16357,506.41362 31.13475,19.23029 -13.73592,34.79767 43.95495,43.03922 15.56737,7.32582 -30.21902,13.73593 -0.91573,16.4831 38.46058,27.47184 h 22.8932 l 5.49437,0.91573 -3.66291,16.48311 50.36504,32.05048 h 41.20776 l 26.55612,-9.15728 11.90446,-2.74719 14.65165,-26.55611 3.66292,-1.83146 73.25824,-6.41009 82.41553,37.54485 175.81982,-19.23029 40.29205,-37.54486 26.5561,-75.0897 -21.9775,-65.01669 -45.78643,-65.0167 -118.1289,-58.60659 -130.94911,-13.73592 -61.35378,-16.48311 -9.15729,1.83146 -14.65165,-44.87068 -16.4831,-32.96621 -52.1965,65.93242 -21.06175,16.48311 -88.82562,32.96621 -21.06175,2.74718 -94.31999,-22.8932 -10.98874,-1.83145 21.97748,72.34252 z"
       id="path7" />
    <path
       style="fill:#b0b0b1"
       d="m 863,743.68393 c 0,-0.17384 3.78436,-2.23492 8.4097,-4.58018 7.2148,-3.65824 23.36685,-15.66053 22.38988,-16.6375 -0.18083,-0.18084 -4.59722,0.31465 -9.81419,1.10107 -23.22956,3.50172 -65.79435,4.35694 -81.48539,1.63722 -3.3,-0.57198 -8.7,-1.29259 -12,-1.60135 -3.3,-0.30876 -12.197,-2.16647 -19.77111,-4.12825 -7.57411,-1.96179 -14.28114,-3.25166 -14.90451,-2.8664 -0.69468,0.42934 -0.85721,0.25359 -0.41987,-0.45403 0.41575,-0.6727 0.1,-1.15451 -0.7566,-1.15451 -0.80857,0 -2.57972,-1.31868 -3.93589,-2.93039 -2.3751,-2.82265 -2.55302,-2.86973 -4.83889,-1.28041 l -2.37313,1.65 1.61829,-2.46406 c 0.89007,-1.35524 2.24007,-2.48066 3,-2.50095 0.75994,-0.0203 3.31374,-0.40313 5.67512,-0.85077 5.3503,-1.01423 5.31334,-1.0644 -8.67364,-11.77221 L 734.5,686.72119 l 6.57276,0.58523 c 3.61502,0.32188 10.25252,1.92817 14.75,3.56955 4.49748,1.64138 8.17724,2.6663 8.17724,2.27762 0,-0.38869 -1.9125,-1.98073 -4.25,-3.53786 l -4.25,-2.83115 11.75845,0.5259 c 8.8104,0.39404 11.58788,0.23301 11.07811,-0.64229 -0.37419,-0.64251 0.1845,-0.44373 1.24155,0.44173 2.55601,2.14111 31.84237,8.26116 52.42189,10.95475 28.01054,3.66622 59.23121,1.73158 88.5,-5.48403 22.95441,-5.65894 46.88518,-14.80402 61.35687,-23.44736 8.63337,-5.15635 22.34863,-16.34784 27.50313,-22.44223 3.3303,-3.93757 3.8021,-4.97669 2.6036,-5.73469 -1.2223,-0.77311 -1.1751,-0.92826 0.2864,-0.94105 0.9625,-0.008 1.75,0.43469 1.75,0.98469 0,1.87774 2.7653,1.00548 3.3005,-1.04108 0.4181,-1.59876 0.1546,-1.92076 -1.2156,-1.48587 -2.0691,0.65672 -5.8219,-2.89955 -4.15,-3.93279 1.0786,-0.66663 1.1948,-0.53116 1.4669,1.70974 0.085,0.69904 1.2104,1.13105 2.5537,0.98013 2.7419,-0.30808 4.4118,1.62236 2.9387,3.3973 -0.6592,0.79433 -0.64,1.41162 0.057,1.84256 1.4877,0.91942 3.2818,-0.42002 2.6762,-1.99803 -0.2798,-0.72915 0.1395,-1.86373 0.9318,-2.52129 1.1772,-0.97693 1.4406,-0.80743 1.4406,0.92689 0,2.58005 2.7905,2.86031 3.7084,0.37244 0.3552,-0.9625 1.1285,-2.07377 1.7187,-2.46949 0.7524,-0.50455 0.7088,-1.30713 -0.146,-2.68658 -1.089,-1.75761 -0.9293,-2.00047 1.5,-2.28051 3.1779,-0.36633 3.7179,-3.10583 0.7189,-3.64679 -1.1,-0.19842 -2.45,-0.80469 -3,-1.34727 -0.6614,-0.6525 -0.358,-0.87357 0.8963,-0.65293 1.0429,0.18346 2.0928,-0.22869 2.3331,-0.9159 0.5776,-1.65172 -2.7224,-2.87996 -3.6603,-1.36238 -0.4195,0.67884 -1.5061,0.8814 -2.5595,0.47715 -1.6908,-0.64881 -1.6656,-0.76345 0.3299,-1.50164 2.5628,-0.94802 2.8,-2.40427 0.5334,-3.27404 -0.9565,-0.36706 -2.1318,0.066 -2.8519,1.05083 -1.0952,1.49772 -1.2967,1.38929 -1.9023,-1.02353 -0.3725,-1.48429 -1.0177,-2.48834 -1.4338,-2.2312 -0.416,0.25713 0.5451,-3.42378 2.1359,-8.1798 2.1698,-6.48739 3.0032,-11.15241 3.3364,-18.67661 l 0.4442,-10.02931 -2.7973,3.5 c -6.3683,7.9682 -14.6308,15.85995 -19.2201,18.35776 -2.6902,1.4642 -9.97395,3.99567 -16.18608,5.62549 l -11.29478,2.96331 7.15284,-7.22328 c 8.5299,-8.61391 11.96848,-15.40025 13.15243,-25.95748 1.96664,-17.53658 -2.89236,-45.84091 -10.44368,-60.83583 -4.1418,-8.22453 -21.74664,-34.636 -30.94837,-46.42997 -12.6756,-16.24647 -33.28156,-34.06503 -51.35344,-44.40677 -17.17445,-9.82818 -49.93843,-23.56596 -70.18803,-29.42949 -20.74479,-6.00693 -52.14056,-9.26718 -80.43725,-8.35289 -20.11582,0.64996 -30.43924,1.96075 -57.67211,7.32276 -10.24896,2.01797 -19.305,3.41173 -20.12453,3.09724 -0.87295,-0.33498 -1.78715,-2.57193 -2.20742,-5.40132 -0.39454,-2.65624 -2.49618,-11.92737 -4.67029,-20.6025 -2.17411,-8.67513 -3.71273,-16.16162 -3.41916,-16.63663 0.29358,-0.47502 2.22625,-1.16716 4.29482,-1.53809 2.06858,-0.37093 5.48358,-1.12372 7.58889,-1.67287 3.81057,-0.99394 3.82477,-1.0167 3.1451,-5.03963 -0.63805,-3.77657 -0.54577,-3.9977 1.40938,-3.37716 2.3311,0.73986 15.89584,4.65582 26.61768,7.68417 3.85,1.08742 8.48822,2.84924 10.30716,3.91515 3.49645,2.04896 7.16213,2.50406 8.74284,1.08546 1.3938,-1.25086 10.4037,-3.52706 11.12118,-2.80959 0.3376,0.33761 0.0356,1.31058 -0.67118,2.16216 -0.70675,0.85158 -1.10838,1.7146 -0.8925,1.91782 0.21587,0.20322 4.2175,-0.9072 8.8925,-2.46762 5.99517,-2.00105 10.5628,-2.84926 15.5,-2.87834 9.11001,-0.0537 10.63685,0.92091 5.74776,3.66874 -4.011,2.2543 -8.90974,6.93075 -8.10412,7.73637 0.26667,0.26667 4.50594,-0.58499 9.42061,-1.89258 C 778.4545,359.95301 785,358.81167 785,359.71848 c 0,0.32601 -1.08253,2.01201 -2.40563,3.74668 l -2.40563,3.15394 4.47178,1.32036 c 2.78573,0.82253 6.48552,1.08368 9.81272,0.69263 21.77317,-2.55901 43.74639,-3.62975 47.52676,-2.31594 0.825,0.28671 7.575,1.4893 15,2.67242 12.53706,1.99768 29.87252,6.83082 32.58998,9.0861 1.21627,1.00942 10.78014,3.65458 13.41002,3.70892 5.23677,0.10821 37.21379,11.06147 36.35406,12.45255 -0.36921,0.59739 -3.98602,0.82403 -8.97299,0.56228 -4.59496,-0.24117 -8.24796,-0.35261 -8.11777,-0.24763 0.13018,0.10497 4.9617,2.23888 10.7367,4.74202 11.85066,5.13661 24.58253,11.99301 33.48567,18.03281 9.77673,6.63244 32.84163,24.22391 35.13343,26.79606 3.1949,3.58574 24.016,32.79811 32.878,46.12832 6.493,9.76674 8.2496,11.76997 10.4072,11.86831 l 2.5957,0.11832 -2.6926,0.63168 -2.6926,0.63169 4.8857,9 c 15.0353,27.69664 16.486,31.63819 15.6428,42.5 -0.3203,4.125 -2.3366,14.025 -4.4808,22 -2.1441,7.975 -4.2001,15.77216 -4.5689,17.32702 -0.5073,2.13948 0.023,3.96352 2.1814,7.5 2.4213,3.96761 8.225,17.15099 8.225,18.6835 0,1.18162 -2.8833,0.19829 -11.7904,-4.02105 -5.237,-2.4808 -9.6195,-4.3933 -9.7388,-4.25 -0.1193,0.14329 1.5292,6.29473 3.6635,13.66986 2.1342,7.37513 3.6868,13.60295 3.4501,13.8396 -0.2366,0.23665 -3.1996,-1.45037 -6.5844,-3.74893 -3.3848,-2.29856 -6.3354,-3.99791 -6.557,-3.77634 -0.2216,0.22157 -1.563,4.87439 -2.981,10.3396 -6.7627,26.0646 -25.7753,53.57228 -49.06503,70.98778 C 972.62963,722.35039 961.22726,730 959.87846,730 c -0.44631,0 1.14905,-2.8125 3.54526,-6.25 C 967.5658,717.80793 978,699.11554 978,697.63726 c 0,-0.38301 -3.4875,2.27952 -7.75,5.91672 -17.29691,14.75951 -37.36275,24.10206 -69.75,32.47525 -18.67414,4.82789 -37.5,8.67072 -37.5,7.6547 z M 990.34044,490.80616 c 0.53667,-2.05224 0.6909,-2.08777 2.38947,-0.55059 2.3201,2.09966 5.33517,0.7327 3.43471,-1.55721 -0.97776,-1.17813 -0.83743,-1.55066 0.73949,-1.96303 1.37033,-0.35835 1.78878,-0.0986 1.41408,0.87785 -0.69021,1.79868 1.09926,1.79368 2.59391,-0.007 0.8976,-1.08161 0.757,-1.79749 -0.6276,-3.19405 -1.50865,-1.52175 -1.53282,-1.70479 -0.1564,-1.18409 0.8955,0.33874 2.081,0.16312 2.6344,-0.39028 1.442,-1.44203 0.3392,-4.8138 -1.361,-4.16134 -0.7708,0.29578 -1.4015,0.0878 -1.4015,-0.46221 0,-0.55 0.675,-1.25902 1.5,-1.57561 2.2545,-0.86512 1.8284,-3.63837 -0.559,-3.63837 -1.38108,0 -1.81177,0.41157 -1.30806,1.25 0.51576,0.85844 0.224,0.82259 -0.93132,-0.11442 -1.08684,-0.88149 -1.48005,-2.17019 -1.11093,-3.64091 0.69957,-2.78731 -0.91222,-4.0171 -2.59983,-1.98366 -1.6634,2.00428 -3.14636,1.88459 -2.7847,-0.22476 0.1756,-1.02416 -0.46489,-1.86894 -1.59175,-2.09943 -1.55262,-0.31758 -1.79783,0.0733 -1.38867,2.21374 0.34442,1.80173 0.0657,2.59944 -0.90825,2.59944 -0.77457,0 -1.2733,-0.76908 -1.11133,-1.71375 0.40744,-2.37628 -3.03169,-2.91472 -3.89721,-0.61016 -0.37676,1.00315 -1.34851,2.32134 -2.15946,2.9293 -0.83474,0.62581 -1.20064,1.81893 -0.84335,2.75 0.3471,0.90454 0.24767,1.64461 -0.22095,1.64461 -1.5001,0 -1.86774,4.93558 -0.45497,6.10807 0.84626,0.70234 1.11432,2.06159 0.71798,3.64071 -0.5907,2.35356 -0.425,2.48949 2.50967,2.05877 1.72817,-0.25364 3.14213,-0.0891 3.14213,0.36564 0,0.45475 -0.9,0.82681 -2,0.82681 -1.1,0 -2,0.375 -2,0.83333 0,1.63407 1.29174,2.0809 3.14632,1.08836 1.43206,-0.76641 2.02525,-0.63817 2.47551,0.53519 0.84304,2.19694 2.04944,1.90818 2.71861,-0.65072 z M 537.5,722.54755 c -14.03955,-2.73678 -22.87084,-6.69698 -28.94697,-12.98062 -2.22916,-2.3053 -2.92897,-2.81344 -1.55513,-1.12919 2.38213,2.92032 2.32419,2.90253 -1.25,-0.38391 -3.73468,-3.43401 -4.76427,-4.80002 -2.61817,-3.47365 0.62135,0.38402 0.93589,0.29807 0.69896,-0.19098 -5.51127,-11.37628 -5.76071,-13.59777 -2.41399,-21.49929 1.26122,-2.9777 1.51601,-3.14671 2.09533,-1.38991 1.52129,4.61327 3.73116,9.14778 5.51667,11.31984 l 1.90699,2.31984 2.22326,-2.07127 c 1.59545,-1.48639 2.43042,-1.73605 2.95693,-0.88414 0.55181,0.89284 1.1864,0.83122 2.5599,-0.24857 1.6058,-1.26241 1.69094,-1.25465 0.70544,0.0643 -0.8919,1.19367 -0.43241,2.19343 2.25,4.89552 3.7029,3.73008 4.27992,3.49674 1.68331,-0.6807 -1.51449,-2.43652 -1.29601,-2.35602 2.13122,0.78518 6.79932,6.23186 8.55625,8.07458 8.55625,8.97403 0,1.1994 2.90579,4.02597 4.13882,4.02597 0.54777,0 0.72308,-0.85975 0.38957,-1.91055 -0.51957,-1.63703 0.3373,-1.41851 5.98538,1.5264 3.62547,1.89033 6.97011,3.20313 7.43252,2.91734 0.46241,-0.28578 2.72717,0.14596 5.0328,0.95943 6.33548,2.23529 21.26037,2.96386 31.35659,1.5307 4.81429,-0.68338 14.69574,-2.94944 21.95878,-5.03569 12.92188,-3.71168 17.85695,-4.19471 12.11398,-1.18566 -2.67461,1.40137 -2.73745,1.56329 -0.89277,2.30067 1.59824,0.63888 1.40062,0.76752 -1.01567,0.66116 -1.73177,-0.0762 -6.59331,1.64437 -11.5,4.07009 -4.675,2.31117 -11.65,4.90248 -15.5,5.75846 -9.83484,2.18659 -46.47677,2.8116 -56,0.9552 z m -60.51855,-49.53193 c -19.35039,-1.9023 -37.05816,-11.40501 -43.01656,-23.08443 -1.12229,-2.19988 -1.79571,-4.39591 -1.49648,-4.88008 0.29923,-0.48416 0.16825,-1.03122 -0.29105,-1.2157 -0.45931,-0.18448 -0.5264,-3.61869 -0.14908,-7.63159 0.5766,-6.1324 1.13741,-7.76733 3.51596,-10.25 3.23339,-3.37493 5.02579,-3.88745 3.47745,-0.99434 -1.12282,2.09799 -0.3679,12.45865 1.09591,15.04052 0.68389,1.20624 0.98159,1.03159 1.52013,-0.89179 0.6421,-2.29324 0.71687,-2.25204 1.81475,1 0.62978,1.86548 1.66942,3.28469 2.3103,3.15379 0.64088,-0.13091 0.93596,0.3595 0.65572,1.08978 -0.28023,0.73029 0.18596,1.90499 1.03599,2.61045 1.31846,1.09423 1.55711,0.93413 1.62446,-1.08979 0.0757,-2.27455 0.12039,-2.25898 1.08333,0.37756 1.2038,3.296 3.28012,3.75111 2.28111,0.5 -0.61187,-1.99121 -0.43535,-1.92938 1.53479,0.53764 1.79912,2.25286 2.50248,2.55834 3.66639,1.59238 0.84604,-0.70216 1.76478,-0.82082 2.22698,-0.28764 0.43274,0.49919 2.50992,3.06592 4.61596,5.70385 2.21154,2.77006 4.39089,4.58067 5.15884,4.28599 0.73131,-0.28064 1.22256,-0.0202 1.09165,0.57877 -0.1309,0.59895 0.3245,1.29526 1.012,1.54734 0.6875,0.25209 1.25,-0.0557 1.25,-0.68401 0,-0.6283 0.49804,-0.83455 1.10676,-0.45834 0.77371,0.47818 0.70481,0.93244 -0.22894,1.50953 -2.56428,1.58482 9.51168,6.02755 19.66501,7.23474 5.20144,0.61842 9.45717,1.48775 9.45717,1.93183 0,2.42585 -14.17975,3.93739 -26.01855,2.77354 z m 72.9895,-26.32597 -2.52905,-0.92032 3.79091,-4.13467 3.79092,-4.13466 -5.26187,-1.2639 c -4.1627,-0.99989 -6.88185,-1.0143 -13.01698,-0.069 -6.6701,1.02774 -8.48893,0.96646 -13,-0.43796 -4.58513,-1.42747 -18.002,-3.99049 -28.74488,-5.49112 -1.925,-0.26889 -3.83175,-1.05723 -4.23723,-1.75185 -0.40547,-0.69462 -1.93706,-1.56408 -3.40352,-1.93214 -1.46646,-0.36806 -4.70645,-2.07287 -7.19999,-3.78846 -5.17095,-3.55771 -5.22482,-3.50227 5.84074,-6.01009 9.00707,-2.04131 8.95577,-2.02252 11.50718,-4.21322 1.72676,-1.48263 3.45866,-1.88588 7.13646,-1.66163 2.671,0.16287 5.01068,0.44817 5.19929,0.63401 0.18861,0.18584 -1.16139,1.1374 -3,2.11458 l -3.34293,1.77668 8,1.22193 c 4.4,0.67207 10.25,1.26263 13,1.31237 5.53305,0.10007 8.13863,1.21746 7.02828,3.01405 -0.40038,0.64782 -2.59553,2.56423 -4.87812,4.25869 -2.28259,1.69446 -3.25016,2.72964 -2.15016,2.30041 1.1,-0.42924 5.375,-1.61682 9.5,-2.63909 12.8391,-3.1818 18.17872,-2.04673 10,2.12574 -2.2,1.12236 -4,2.21196 -4,2.42135 0,0.20939 2.95015,-0.29223 6.55589,-1.1147 6.72022,-1.53289 13.25323,-1.06344 10.39196,0.74675 -1.05462,0.66719 -0.58455,0.92013 1.73072,0.93129 1.74822,0.008 3.84956,0.68629 4.66964,1.50638 1.00581,1.00581 2.49356,1.29058 4.57143,0.875 3.457,-0.6914 3.86431,0.1102 1.42537,2.80519 C 567.79142,636.88796 567.81917,637 569.79796,637 572.3957,637 577,634.97947 577,633.83948 577,633.37777 577.49814,633 578.10699,633 c 0.60884,0 0.86751,0.62407 0.57482,1.38682 -0.98417,2.56468 3.19382,0.53052 8.25319,-4.01828 3.59352,-3.23089 4.73722,-4.90597 4.35295,-6.37542 -0.67799,-2.59262 0.90272,-2.5449 3.29587,0.0995 1.04159,1.15095 2.6799,2.51334 3.6407,3.02754 2.48401,1.3294 10.86268,2.78361 12.47453,2.16508 2.13368,-0.81877 3.67862,-4.35604 4.26299,-9.7605 0.52049,-4.81373 0.68087,-5.02793 4.93938,-6.5974 2.59164,-0.95514 3.92798,-1.91474 3.25,-2.33376 -2.31848,-1.4329 -1.04736,-3.7386 3.09858,-5.62051 2.3375,-1.06103 5.2625,-1.93903 6.5,-1.95111 2.78916,-0.0272 2.95078,-1.66477 0.24894,-2.5223 -1.10059,-0.34931 -2.51133,-1.58856 -3.13499,-2.75388 -0.97689,-1.82532 -0.73437,-2.43886 1.75106,-4.42994 1.58674,-1.27114 4.37387,-2.80582 6.19361,-3.4104 3.03267,-1.00756 3.15967,-1.20814 1.52278,-2.40506 -0.9822,-0.71821 -1.85317,-2.64498 -1.93549,-4.28171 -0.13112,-2.60713 0.29975,-3.10699 3.47721,-4.03407 1.99479,-0.58201 7.33938,-1.6145 11.87688,-2.29442 4.5375,-0.67992 8.25,-1.54002 8.25,-1.91132 0,-0.37131 -1.72133,-1.45133 -3.82519,-2.40003 -2.10385,-0.94871 -5.12281,-2.75961 -6.7088,-4.02423 l -2.88361,-2.29931 7.4588,-1.67664 c 16.3583,-3.67713 17.75866,-4.49794 11.88631,-6.96708 l -3.0725,-1.29189 6.3225,-1.06316 c 7.54067,-1.268 16.3634,-4.51025 19.82249,-7.28455 l 2.5,-2.00508 -2.8151,1.01656 c -1.5483,0.5591 -4.0233,1.0084 -5.5,0.99843 -2.33382,-0.0157 -1.99877,-0.3964 2.56225,-2.91107 6.0192,-3.31862 18.76054,-13.68975 15.75285,-12.82242 -1.1,0.31721 -4.7,1.56127 -8,2.76458 -3.3,1.20332 -12.02733,3.70749 -19.39406,5.56483 -7.36673,1.85734 -13.58962,3.57255 -13.82865,3.81158 -0.23902,0.23902 2.59469,0.75899 6.29714,1.15549 6.29842,0.67451 6.57705,0.80663 4.32865,2.05259 l -2.40308,1.33167 3,0.10221 c 1.95873,0.0667 -0.29734,1.04676 -6.5,2.82358 -7.37466,2.11255 -10.17116,2.51114 -12.5,1.78162 -1.65,-0.51687 -3.67206,-1.12446 -4.49347,-1.3502 -1.13876,-0.31295 -0.90125,-0.86543 1,-2.32615 l 2.49347,-1.91572 -2.25,-0.0222 c -3.76355,-0.0372 -2.51486,-2.61471 1.98639,-4.10026 8.53367,-2.81636 28.96262,-18.12297 26.91743,-20.16816 -0.53269,-0.53269 -2.42243,-1.26588 -4.19942,-1.62931 l -3.23091,-0.66079 5.07431,-5.5521 c 2.79087,-3.05366 9.1808,-8.6628 14.19985,-12.46477 9.90411,-7.50242 9.84908,-7.00921 1.07398,-9.62619 C 687.36865,492.4181 685.37187,490 688.91667,490 690.0625,490 691,489.56046 691,489.02325 691,487.67256 681.14508,480 679.4102,480 678.63459,480 678,479.55 678,479 c 0,-0.55 0.525,-1 1.16667,-1 0.64166,0 0.95824,-0.20843 0.70349,-0.46317 -0.25474,-0.25474 -2.91724,0.18992 -5.91666,0.98813 -10.94595,2.91297 -24.23891,1.45084 -27.9989,-3.07966 -0.92068,-1.10935 -0.25231,-1.59334 3.5078,-2.54015 l 4.6452,-1.16967 -3.3038,-2.85958 c -2.89544,-2.50613 -3.09943,-2.98365 -1.65036,-3.86339 1.48936,-0.9042 1.51417,-1.46659 0.25,-5.66709 -0.77189,-2.56481 -1.38915,-7.62926 -1.37168,-11.25435 l 0.0318,-6.59107 7.21824,-4.9307 c 3.97003,-2.71188 6.361,-3.94938 5.31325,-2.75 -1.96997,2.25509 -0.92217,3.10786 1.20499,0.9807 0.83383,-0.83383 1.2,-0.85926 1.2,-0.0833 0,0.61416 -0.3375,1.26666 -0.75,1.45 -0.91615,0.40717 -4.42544,7.83333 -3.7017,7.83333 0.28376,0 2.07648,-0.65204 3.98382,-1.44897 2.93223,-1.22517 3.46788,-1.23428 3.46788,-0.059 0,0.76448 -0.4612,1.675 -1.0249,2.02338 -0.56369,0.34838 -2.61012,3.78126 -4.54762,7.62862 l -3.52272,6.99519 5.79762,-3.8824 C 669.41658,450.76061 680,444.76408 680,445.45603 c 0,0.26022 -1.31394,2.40013 -2.91988,4.75534 -1.60593,2.35521 -2.74497,4.45711 -2.53121,4.67088 0.82917,0.82917 6.33106,-3.63108 15.73327,-12.75458 5.39138,-5.23157 9.5344,-8.81326 9.20671,-7.95932 -0.45285,1.18011 0.30119,1.69818 3.14288,2.15932 2.05627,0.33369 9.52389,2.5038 16.5947,4.82248 l 12.85602,4.21577 -8.56121,4.43222 c -4.70866,2.43773 -10.72496,6.37764 -13.36955,8.75535 -4.70812,4.233 -10.18862,12.74295 -8.98303,13.94855 1.1525,1.15249 16.76189,-5.62425 24.32078,-10.55874 4.16481,-2.71882 7.73115,-4.9433 7.9252,-4.9433 0.9239,0 -5.19137,13.37446 -9.37332,20.5 -2.58234,4.4 -6.74276,11.6 -9.24538,16 -2.50262,4.4 -5.58018,9.7387 -6.83901,11.86378 l -2.28879,3.86379 8.41591,-5.20996 c 4.62875,-2.86547 10.31364,-6.7597 12.63309,-8.65384 2.31945,-1.89413 4.49793,-3.39589 4.84106,-3.33724 0.34314,0.0587 1.28495,-0.71082 2.0929,-1.70994 3.80265,-4.70239 -8.42754,17.41075 -12.88875,23.30388 -2.97897,3.93511 -4.35858,6.43855 -3.33089,6.04419 0.96487,-0.37025 2.9171,-0.96503 4.3383,-1.32173 l 2.58401,-0.64855 -2.35463,3.40281 c -1.29504,1.87155 -4.6878,6.10281 -7.53946,9.40281 -8.13161,9.41007 -10.24802,13.09453 -13.43548,23.38987 -3.50574,11.32336 -8.40835,21.85673 -14.28539,30.69248 -3.95037,5.93912 -7.3775,9.24553 -6.08093,5.86672 0.86037,-2.24209 -1.06809,-1.71262 -3.35908,0.92225 -1.13401,1.30423 -4.62663,3.58466 -7.76138,5.06763 -3.53979,1.67459 -5.51395,3.17992 -5.20979,3.97256 0.33515,0.87339 -0.23527,1.13765 -1.8071,0.83717 -2.2136,-0.42315 -6.31388,1.71264 -28.48039,14.83513 -8.21425,4.86282 -18.62239,14.16514 -17.63556,15.76187 0.3454,0.55887 0.10113,1.34175 -0.54282,1.73973 -0.73122,0.45192 -0.90292,0.29014 -0.45729,-0.4309 1.0158,-1.6436 -0.92748,-1.43422 -2.32575,0.25059 -0.64138,0.77281 -1.93398,1.28337 -2.87245,1.13457 -0.93847,-0.14879 -3.73131,0.7385 -6.20631,1.97176 C 599.20442,638.90101 584.19707,643 580.24387,643 c -1.30644,0 -3.189,-0.43545 -4.18345,-0.96766 -1.28105,-0.6856 -4.8327,-0.20976 -12.18426,1.63239 -5.70689,1.43004 -10.60116,2.90273 -10.87616,3.27266 -0.275,0.36992 -1.63807,0.25844 -3.02905,-0.24774 z M 686,640.56046 c 0,-0.41412 3.1044,-2.58326 21.06309,-14.71748 7.73896,-5.22901 20.24186,-10.40541 34.81897,-14.4156 7.35997,-2.02474 12.9437,-4.12039 13.76679,-5.16686 2.21668,-2.81826 9.2231,-14.80791 10.46935,-17.91554 0.72228,-1.80108 1.28372,-13.08682 1.53011,-30.75739 0.31457,-22.56098 0.077,-29.75057 -1.23934,-37.5 C 763.02033,500.13777 756.4778,483.34075 746.12055,468 c -2.78497,-4.125 -5.8002,-8.625 -6.7005,-10 -0.90031,-1.375 1.39557,0.65 5.10195,4.5 7.21622,7.49584 15.20113,17.42441 15.68333,19.50092 0.16207,0.69791 1.31153,2.40363 2.55436,3.79048 3.64221,4.06429 13.05401,24.16026 15.14583,32.3392 4.43967,17.35895 6.49974,32.89149 6.5478,49.3694 0.052,17.81602 -1.03691,22.86417 -6.58336,30.52081 -1.65949,2.29087 -2.76536,4.41712 -2.45748,4.725 0.30788,0.30788 6.97852,1.12763 14.82365,1.82166 7.84513,0.69402 16.51387,1.75305 19.26387,2.35338 6.07662,1.32655 58.6362,6.27628 59.32557,5.58691 0.26973,-0.26972 0.9983,-0.0689 1.61905,0.44628 1.44506,1.19929 17.32581,3.18662 23.96859,2.99944 4.38648,-0.1236 22.26367,1.34085 44.37005,3.63467 l 6.28327,0.65197 -1.00334,-2.37006 c -1.2018,-2.83885 -5.22695,-20.03963 -4.7914,-20.47519 0.16801,-0.168 3.66308,2.59922 7.76684,6.14938 12.34774,10.68204 25.853,16.38743 38.91137,16.43839 6.14158,0.024 4.51778,1.22638 -7.98739,5.91463 -20.9068,7.83806 -44.39185,11.1121 -79.46261,11.07784 -12.65,-0.0124 -28.4,-0.44687 -35,-0.96558 -47.89759,-3.76435 -58.6981,-4.28017 -71.33293,-3.40677 -7.1388,0.49348 -12.79489,0.59962 -12.5691,0.23586 0.75498,-1.21632 -6.95493,-1.89316 -24.11295,-2.11682 l -17.01498,-0.2218 13.28341,-6 13.28341,-6 -4.91709,-0.29875 C 748.15272,617.47418 714.18161,626.87604 696.23514,635.882 690.60581,638.70693 686,640.81223 686,640.56046 Z M 456.43637,615.20049 c 0.39723,-1.25156 0.003,-1.81714 -1.33831,-1.91815 -1.0459,-0.0788 -6.55834,-1.77265 -12.24985,-3.76414 C 431.83522,605.6647 406.14404,599 402.30251,599 c -2.20331,0 -2.22711,-0.0793 -0.55251,-1.84137 0.9625,-1.01276 2.0875,-1.6612 2.5,-1.44099 0.4125,0.22022 0.75,-0.062 0.75,-0.62724 0,-0.5652 0.74882,-0.74028 1.66404,-0.38908 1.11132,0.42645 1.42623,0.25375 0.94807,-0.51993 -0.46779,-0.75689 -0.178,-0.95204 0.83595,-0.56295 0.85357,0.32755 1.55194,0.11152 1.55194,-0.48007 0,-0.59237 0.74759,-0.78872 1.66404,-0.43705 1.20826,0.46365 1.43984,0.27578 0.8455,-0.68589 -0.54688,-0.88487 -0.43241,-1.0858 0.3449,-0.60539 1.36897,0.84607 5.14556,-0.1698 5.14556,-1.38411 0,-1.14849 -12.89568,-6.42564 -22.01687,-9.00971 -4.28526,-1.21403 -11.32922,-2.26191 -16.48313,-2.45208 -6.9521,-0.25651 -7.7485,-0.16918 -3.5,0.38379 l 5.5,0.71585 -6.25,0.16811 c -3.4375,0.0925 -6.25,-0.0553 -6.25,-0.32827 0,-0.92392 10.26618,-14.96618 15.35558,-21.00362 8.42672,-9.99643 25.92336,-27.88599 29.13018,-29.78436 1.8916,-1.11978 2.26935,-1.61785 1.01424,-1.33731 -1.1,0.24587 -3.77907,0.7489 -5.95349,1.11784 -2.17441,0.36894 -5.54941,1.4755 -7.5,2.45901 -7.48101,3.77203 -8.18295,3.31682 -2.80148,-1.81674 2.87866,-2.74605 4.9559,-5.27085 4.61609,-5.61066 -0.33981,-0.33981 -2.67037,-0.101 -5.17901,0.53068 -2.50865,0.63169 -5.12739,0.95978 -5.81943,0.7291 -1.44964,-0.48321 21.25375,-11.64491 25.38732,-12.48119 3.11427,-0.63007 3.61263,-1.93429 1,-2.61704 -0.9625,-0.25153 0.275,-0.46467 2.75,-0.47365 3.42929,-0.0124 3.90516,0.15185 2,0.69047 l -2.5,0.70679 2.5,0.66801 c 1.375,0.36741 2.65,0.2295 2.83333,-0.30647 0.18334,-0.53596 0.85834,-0.95951 1.5,-0.94121 0.64167,0.0183 0.16069,0.87265 -1.06885,1.89857 -1.86806,1.55869 -1.98108,1.96293 -0.68761,2.45928 1.22765,0.4711 1.40844,1.52404 0.87382,5.08915 -1.10239,7.35124 -0.50626,7.80854 6.47903,4.97016 3.3168,-1.34774 6.24152,-2.45043 6.49938,-2.45043 0.25787,0 -0.17152,1.53262 -0.9542,3.40582 -1.23525,2.95638 -1.22982,4.05645 0.0412,8.33635 0.80532,2.7118 2.82147,6.80418 4.48035,9.09418 L 446.01254,547 h -2.84734 c -1.56603,0 -4.97238,-0.63954 -7.56965,-1.42121 l -4.72232,-1.42121 1.69284,2.67121 c 0.93106,1.46917 2.77907,3.84117 4.10669,5.27113 l 2.41385,2.59992 -10.79331,0.69379 c -12.78947,0.8221 -15.09329,2.06147 -11.31266,6.08576 L 419.34863,564 h -4.25765 c -2.34171,0 -4.10765,0.41118 -3.92431,0.91373 0.80985,2.21995 14.21313,12.05247 19.30805,14.1642 l 5.61181,2.32596 -3.29326,1.71902 c -3.01089,1.57162 -3.12178,1.78721 -1.29327,2.51427 1.1,0.43739 7.67081,0.81046 14.60179,0.82904 l 12.6018,0.0338 -1.38402,2.12365 c -1.35167,2.07402 -1.20705,2.14996 6.18906,3.25 4.16519,0.61949 12.05468,1.12635 17.53222,1.12635 9.80932,0 11.13477,0.42438 8.75572,2.80343 -0.66189,0.66189 4.73811,-1.25354 12,-4.2565 C 509.05846,588.54396 515,586.47701 515,586.9537 c 0,1.24102 -7.05794,9.87001 -11.77203,14.39241 -3.36661,3.2297 -4.94821,3.96609 -9.86855,4.59476 -3.6336,0.46427 -9.03212,2.30965 -14.21146,4.85792 -4.59362,2.2601 -10.44362,4.37249 -13,4.69422 -2.55638,0.32172 -5.91403,0.78687 -7.46144,1.03366 -2.33639,0.37263 -2.71796,0.14775 -2.25015,-1.32618 z M 561.5,597.98212 c -1.1,-0.41987 -3.07557,-1.92125 -4.39014,-3.33639 -2.26402,-2.4372 -2.32234,-2.81517 -1.10525,-7.16221 1.75116,-6.25452 8.52579,-13.60503 15.17574,-16.46576 4.31598,-1.85668 6.50416,-2.17267 12.4176,-1.79317 8.50261,0.54567 12.49116,2.55901 17.1374,8.65064 3.77489,4.94922 4.05044,7.31034 1.26622,10.8499 l -1.99843,2.54059 -0.61634,-3.08174 c -1.00171,-5.00852 -3.24818,-6.27572 -11.16987,-6.30076 -3.86158,-0.0122 -8.77455,0.50317 -10.91769,1.14527 -5.29058,1.5851 -12.39798,6.95953 -14.65524,11.08193 l -1.85601,3.38958 2.67834,-3 c 1.47309,-1.65 2.37244,-2.40225 1.99857,-1.67166 -0.37387,0.73059 -0.96892,2.36084 -1.32234,3.62277 -0.50476,1.80239 -1.07145,2.13071 -2.64256,1.53101 z m -36.5,-93.915 c -6.2822,-6.4048 -12.98339,-9.46925 -24.68502,-11.28846 -6.04197,-0.93933 -7.07262,-1.36576 -6.10854,-2.52741 2.56187,-3.08686 9.2988,-5.58333 15.29356,-5.66725 9.9389,-0.13914 18.81402,6.46279 21.39622,15.916 1.26031,4.61388 1.44827,9.57477 0.35378,9.33723 -0.4125,-0.0895 -3.225,-2.68607 -6.25,-5.77011 z m 16.83278,-11.10732 c -4.76697,-4.83933 -12.30447,-11.34747 -16.75,-14.46253 C 520.63725,475.3822 517,472.6965 517,472.52903 c 0,-0.16747 1.41574,-3.32984 3.14608,-7.0275 3.11769,-6.66236 3.13998,-6.82352 2.4697,-17.86227 -0.372,-6.12659 -1.75075,-21.03875 -3.06388,-33.13813 -1.31312,-12.09937 -2.25325,-22.13312 -2.08916,-22.29721 0.4891,-0.4891 7.71167,11.44043 15.01245,24.79608 13.55179,24.79092 18.1537,30.84092 27.88773,36.66319 3.3754,2.01895 6.24803,3.74411 6.38364,3.8337 0.13561,0.0896 -1.16027,3.05194 -2.87973,6.583 -4.4544,9.14749 -10.44071,25.43156 -11.8263,32.17011 -0.65028,3.1625 -1.26292,5.69568 -1.36143,5.62929 -0.0985,-0.0664 -4.07935,-4.08016 -8.84632,-8.91949 z m 8.39373,-27.29373 2.72652,-4.83393 -3.77309,0.63746 c -4.69968,0.794 -5.84839,-0.34669 -10.58069,-10.50677 l -3.47598,-7.46283 0.57469,9.06101 c 0.65069,10.25917 -0.094,12.55817 -4.86708,15.02645 l -3.10984,1.60816 3.88948,1.77941 c 4.02008,1.83916 9.67973,7.95487 12.9914,14.03828 L 546.5,488.5 l 0.5,-9 c 0.4096,-7.37274 0.99297,-9.87401 3.22651,-13.83393 z M 569.50031,494.5 c -2.65376,-5.98974 -3.05817,-16.17197 -0.81313,-20.47296 4.81214,-9.219 20.65367,-14.67595 29.18582,-10.05369 0.94043,0.50948 -1.30506,2.36144 -7.12735,5.87827 -10.45585,6.31563 -14.95984,11.11006 -16.62224,17.6941 -0.68799,2.72486 -1.61089,6.30428 -2.0509,7.95428 l -0.8,3 z M 404.36216,473.14739 c -2.16585,-1.56894 -6.22601,-5.46114 -9.02256,-8.64933 -5.42529,-6.18507 -21.82704,-32.28206 -27.76813,-44.18215 -4.33784,-8.68876 -10.20709,-23.85666 -11.12529,-28.75108 -0.92209,-4.91519 0.72197,-4.7363 13.05382,1.42037 16.02523,8.00059 48.84795,34.19863 44.75,35.71801 -1.75418,0.65039 -1.59124,1.67891 1.25,7.8905 2.14557,4.6907 3.46557,13.40629 2.03042,13.40629 -0.65422,0 -7.51393,-3.87878 -10.53042,-5.95436 -6.61443,-4.55124 -7.97837,-3.24384 -4.51501,4.32784 4.58982,10.03437 4.88013,11.06663 5.44962,19.37766 0.31096,4.53813 0.52041,8.25063 0.46543,8.25 -0.055,-6.3e-4 -1.87203,-1.28482 -4.03788,-2.85375 z m 36.82333,-31.63964 c -1.3127,-2.88104 -1.48796,-14.87428 -0.26317,-18.00775 0.74834,-1.91453 0.81369,-1.89955 1.52905,0.35066 1.00187,3.15141 2.11207,1.76097 3.87304,-4.85066 1.46346,-5.4946 1.46562,-5.49679 2.19941,-2.22919 1.02351,4.55778 2.12952,4.83026 2.2899,0.56414 0.26453,-7.03645 2.44318,-15.47844 4.29265,-16.63345 1.71341,-1.07005 1.71913,-1.23684 0.10357,-3.02202 -0.94047,-1.0392 -1.70994,-2.17971 -1.70994,-2.53447 0,-0.35475 -0.54485,-0.58545 -1.21078,-0.51266 -0.66594,0.0728 -1.11594,-0.19887 -1,-0.60371 0.11593,-0.40484 -2.15172,-2.8686 -5.03922,-5.47502 -2.8875,-2.60643 -5.25,-5.08045 -5.25,-5.49782 0,-0.41737 5.45664,0.54295 12.12588,2.13405 6.66923,1.59109 12.5958,2.73626 13.17017,2.5448 0.57436,-0.19145 -2.29478,-3.189 -6.37588,-6.66122 -4.08109,-3.47221 -8.09517,-6.99317 -8.92017,-7.82434 -1.33605,-1.34606 -1.22676,-1.43639 1,-0.8265 1.375,0.3766 8.70001,1.7154 16.27779,2.9751 l 13.77779,2.29038 -2.27779,-2.43764 c -1.25278,-1.34069 -4.90988,-4.42051 -8.12687,-6.84403 -5.47071,-4.12135 -5.66478,-4.40409 -3,-4.37073 5.22868,0.0655 21.82246,1.77314 23.84908,2.45432 1.1,0.36973 -0.7,-1.87622 -4,-4.99098 -5.25764,-4.96252 -5.6565,-5.58802 -3.22375,-5.05547 1.52694,0.33426 5.98924,2.17141 9.91622,4.08255 3.92698,1.91115 7.22666,3.36211 7.33263,3.22436 0.10597,-0.13775 0.96871,-8.12545 1.91719,-17.75045 0.94848,-9.625 1.90138,-17.67691 2.11757,-17.89313 0.41158,-0.41164 0.53976,-0.0835 2.4971,6.39313 2.09403,6.92891 6.75224,16.47213 10.59669,21.70932 3.35916,4.57609 3.77879,4.85397 4.47756,2.96503 0.42406,-1.14635 1.08765,-6.68151 1.47464,-12.30036 l 0.70362,-10.21609 4.93623,9.83287 c 5.04576,10.05104 6.70357,11.02328 6.73899,3.95212 0.0168,-3.36469 3.64623,-24.05297 4.63891,-26.44289 0.34268,-0.825 2.35316,7.275 4.46773,18 4.39013,22.26643 5.73362,26.4013 5.84854,18 0.15143,-11.06966 1.95005,-18.16509 7.30144,-28.8036 5.61589,-11.16432 8.47428,-14.8959 7.41243,-9.67678 -1.19809,5.88874 -2.84844,20.61901 -2.36436,21.10309 0.27185,0.27185 -1.00551,2.9849 -2.83858,6.02901 -1.83306,3.0441 -3.61434,6.81639 -3.95839,8.38286 -0.66405,3.02339 1.01134,7.39015 2.48577,6.47891 0.4828,-0.29839 1.18442,0.42346 1.55915,1.60412 0.47355,1.49202 0.9126,1.77242 1.43974,0.9195 0.49605,-0.80264 1.00409,-0.24296 1.46858,1.61787 0.80472,3.22378 3.42956,6.54018 4.60259,5.81521 0.42952,-0.26546 1.70485,1.01226 2.83406,2.83937 1.12922,1.82712 2.95919,4.142 4.0666,5.1442 1.95621,1.77034 2.03622,1.76069 2.81316,-0.33959 0.73811,-1.99531 0.92879,-1.87119 2.4766,1.61204 l 1.67691,3.77379 -1.95779,-2.36078 C 580.4681,382.34288 580,382.16356 580,383.38922 c 0,2.01009 -0.61231,2.00499 -8.06586,-0.0673 -5.7493,-1.59845 -6.2349,-1.98704 -10.2349,-8.19023 -4.13932,-6.41924 -4.20364,-6.46755 -4.50785,-3.38562 -0.16973,1.71961 0.39277,4.48286 1.25,6.14057 0.85724,1.65771 1.55861,3.29078 1.55861,3.62904 0,1.17028 -8.83095,-0.1302 -10.66187,-1.57012 -1.64787,-1.29595 -1.7091,-1.28015 -0.59163,0.15267 1.11857,1.43421 0.18063,1.66346 -9.13847,2.23366 -5.71173,0.34947 -12.92646,1.29738 -16.03273,2.10646 -3.10627,0.80908 -6.30646,1.21829 -7.11153,0.90935 C 515.6587,385.03879 515,385.22776 515,385.76765 c 0,0.5399 -4.1625,2.42428 -9.25,4.18751 -9.20254,3.18942 -22.39278,10.19049 -27.84897,14.78157 -2.90217,2.44201 -4.90103,2.32139 -4.90103,-0.29575 0,-3.65617 -1.97692,-0.75645 -4.17523,6.12416 -1.32936,4.16082 -2.80611,7.64832 -3.28167,7.75 -0.47556,0.10167 -1.36306,-1.29541 -1.97222,-3.10463 l -1.10756,-3.28948 -1.8175,6.78948 c -0.99963,3.73422 -2.59992,8.57435 -3.55619,10.75586 -1.89298,4.31833 -1.99372,4.2889 -6.42452,-1.87678 -1.25679,-1.74888 -1.55531,-1.32613 -3.53069,5 -1.1868,3.80073 -2.74409,7.94757 -3.46064,9.21521 l -1.30281,2.30481 z m 195.93639,-40.41126 c -0.75796,-0.48009 -1.07363,-1.36554 -0.70149,-1.96768 0.37214,-0.60213 0.36573,-2.75195 -0.0142,-4.77737 -0.63464,-3.38294 -0.80048,-3.53265 -2.03817,-1.84001 -1.69713,2.32097 -1.75809,2.22852 -3.30446,-5.01143 -1.80149,-8.43434 -1.82878,-8.5 -3.53214,-8.5 C 626.24736,379 626,377.19091 626,367.8 c 0,-11.68716 -0.679,-12.69674 -3.27786,-4.87373 -1.0871,3.27235 -2.02464,4.46709 -3.59629,4.58288 C 617.943,367.59629 617,367.07451 617,366.33288 c 0,-2.68028 -6.57455,-0.96911 -10.79086,2.80857 -1.62149,1.45279 -4.08133,3.38393 -5.46633,4.29141 l -2.51817,1.64997 1.42723,-7.79141 c 2.01156,-10.98131 5.01901,-21.05417 10.08569,-33.77998 C 614.24999,322.17773 624.85387,302 626.29757,302 c 1.05433,0 6.78512,12.63144 9.52755,21 1.17154,3.575 3.60242,12.35 5.40193,19.5 3.08062,12.24015 3.27102,14.02288 3.25761,30.5 -0.013,15.92901 -0.22135,18.01618 -2.3213,23.25 -2.39276,5.9636 -2.74427,6.30151 -5.04148,4.84649 z"
       id="path6" />
    <path
       style="fill:#80817d"
       d="M 811.03518,606.06574 C 810.46583,605.0019 810,603.2019 810,602.06574 810,600.92958 809.52344,600 808.94098,600 c -0.58246,0 -0.80424,-0.41224 -0.49284,-0.91608 0.31139,-0.50385 0.0426,-2.19135 -0.5973,-3.75 -0.6399,-1.55866 -1.06483,-3.62142 -0.94429,-4.58392 0.12054,-0.9625 -0.245,-1.75 -0.81231,-1.75 -0.56731,0 -0.78072,-0.65345 -0.47424,-1.45211 0.30647,-0.79867 0.18284,-2.03617 -0.27473,-2.75 -1.09966,-1.7155 -1.21303,-3.51966 -1.38756,-22.08054 -0.0828,-8.80867 0.27538,-16.32057 0.81064,-17 0.52747,-0.66954 0.98424,-1.89235 1.01504,-2.71735 0.0308,-0.825 0.30956,-2.625 0.61944,-4 1.48608,-6.59389 1.72795,-8 1.37607,-8 -0.20901,0 -2.97142,3.15 -6.13869,7 -5.4558,6.63182 -7.64021,8.33041 -7.64021,5.94098 0,-0.58246 0.36973,-0.83051 0.82162,-0.55122 1.18892,0.73479 4.17838,-3.07709 4.17838,-5.32787 0,-1.05338 -0.7875,-2.12104 -1.75,-2.37256 -1.66667,-0.43555 -1.66667,-0.46285 0,-0.57333 1.89111,-0.12535 2.48149,-2.116 0.62756,-2.116 -0.79052,0 -0.76506,-0.43063 0.0861,-1.4562 0.66469,-0.8009 0.91823,-1.9259 0.56342,-2.5 -0.35481,-0.57409 -0.26431,-1.0438 0.20111,-1.0438 0.46542,0 0.92198,-1.00584 1.01458,-2.23519 0.0926,-1.22935 0.64117,-2.39279 1.21904,-2.58541 0.57786,-0.19262 0.7963,-0.76179 0.48541,-1.26481 C 801.13633,521.41157 801.38508,521 802,521 c 0.61492,0 0.83992,-0.45 0.5,-1 -0.33992,-0.55 -0.11492,-1 0.5,-1 0.61492,0 0.86234,-0.41372 0.54983,-0.91938 -0.31252,-0.50566 0.0895,-1.57709 0.89336,-2.38095 0.80386,-0.80387 1.183,-1.74015 0.84252,-2.08062 C 804.94524,513.27857 805.19167,513 805.83333,513 806.475,513 807,512.325 807,511.5 c 0,-0.825 0.45,-1.5 1,-1.5 0.55,0 1,-0.57716 1,-1.28258 0,-2.15554 10.52439,-14.10727 16.44413,-18.67432 3.07137,-2.36954 8.76968,-5.98442 12.66291,-8.03307 4.69304,-2.46951 6.5653,-3.92179 5.55548,-4.30929 -0.83772,-0.32146 -6.50449,-0.89968 -12.59282,-1.28494 C 824.98136,476.03055 820,475.32939 820,474.85767 c 0,-0.47172 0.3375,-0.78817 0.75,-0.70323 0.4125,0.0849 2.52431,-0.63236 4.6929,-1.59402 7.99083,-3.5435 17.46491,-4.88631 34.5571,-4.89797 17.3124,-0.0118 22.5185,0.64444 40.5,5.10519 l 11,2.72881 -13.5,0.66028 c -18.74073,0.91659 -29.91128,4.05804 -48.42679,13.61885 -9.79577,5.05823 -21.60875,13.93361 -25.67892,19.29322 -2.84559,3.74706 -6.21095,10.05341 -7.38097,13.83117 l -0.74329,2.39997 3.01935,-2.14997 C 820.45003,521.96749 822.30177,521 822.90437,521 823.50697,521 824,520.63335 824,520.18521 c 0,-0.44813 1.575,-1.56585 3.5,-2.48382 3.36583,-1.60505 3.5,-1.59525 3.5,0.25577 0,1.05864 -0.43157,2.19153 -0.95905,2.51753 -0.52748,0.326 -2.16393,3.27756 -3.63657,6.55902 -1.47263,3.28146 -3.06605,5.96629 -3.54094,5.96629 -0.47489,0 -0.76685,0.3375 -0.6488,0.75 0.27434,0.95856 -3.2545,10.3494 -4.50928,12 -0.52264,0.6875 -0.70156,1.25 -0.39761,1.25 0.30395,0 0.10938,1.4625 -0.43239,3.25 -2.45274,8.09259 -3.03703,13.12393 -2.99032,25.75 0.039,10.53801 0.50433,16.91743 1.64124,22.5 0.33603,1.65 0.62768,4.0125 0.64813,5.25 0.0204,1.2375 0.43956,2.25 0.93138,2.25 0.49181,0 0.89421,0.45 0.89421,1 0,1.8848 -5.87809,1.09631 -6.96482,-0.93426 z m 88.64602,-6.80891 c -0.43494,-0.68374 -1.02073,-3.15084 -1.30177,-5.48244 -0.58157,-4.8249 -1.14042,-5.77915 -2.29267,-3.91477 -0.54783,0.88641 -1.00529,0.29771 -1.43388,-1.84524 -0.34617,-1.73081 -1.04806,-2.88818 -1.55976,-2.57193 -0.51171,0.31625 -1.22877,-0.78355 -1.59346,-2.44401 -0.3647,-1.66046 -1.34219,-3.69811 -2.1722,-4.52812 -1.34548,-1.34548 -1.72848,-1.23023 -3.53229,1.06295 -1.11275,1.41463 -2.26912,2.32612 -2.56971,2.02552 -0.30059,-0.30059 0.27295,-1.45205 1.27454,-2.55879 2.9158,-3.22193 1.23374,-3.217 -3.85676,0.0113 -4.7235,2.99555 -8.36466,3.965 -7.07901,1.88477 0.78707,-1.2735 1.50173,-9.89607 0.82021,-9.89607 -0.25014,0 -1.57802,0.73596 -2.95083,1.63546 -1.37282,0.8995 -2.7627,1.36879 -3.08862,1.04286 -0.32593,-0.32593 1.02803,-1.36542 3.0088,-2.30999 2.86763,-1.36747 3.36958,-1.99672 2.46359,-3.08837 -0.62579,-0.75404 -1.74071,-1.13962 -2.47759,-0.85685 C 870.50477,567.74353 870,567.20881 870,566.0038 c 0,-1.58784 -2.9361,-4.16971 -5,-4.39677 -0.275,-0.0303 -1.5125,-0.93536 -2.75,-2.01135 -2.20794,-1.91978 -2.98065,-3.71105 -1.5,-3.47726 1.95628,0.30889 2.38685,-0.24859 1.25,-1.61842 -1.00871,-1.21542 -0.97125,-1.5 0.19745,-1.5 2.29255,0 8.12432,-5.71911 7.49747,-7.35264 -1.14601,-2.98645 -7.91601,-11.62875 -8.72015,-11.13177 -0.46011,0.28437 -1.11923,0.0597 -1.46469,-0.49928 -0.34546,-0.55897 -0.0965,-1.01631 0.55335,-1.01631 0.8695,0 0.84578,-0.40447 -0.0899,-1.53185 -1.11439,-1.34277 -0.94511,-1.40783 1.37139,-0.5271 1.45348,0.55261 3.75568,1.734 5.11598,2.62531 1.79578,1.17664 3.56657,1.43584 6.46445,0.94625 4.44662,-0.75126 5.47102,-2.42447 4.58017,-7.48109 -0.30849,-1.75107 -0.19186,-2.95568 0.25919,-2.67692 0.45105,0.27877 0.88627,-0.37171 0.96715,-1.44549 0.0809,-1.07379 -0.1632,-1.76145 -0.54241,-1.52815 -0.37921,0.2333 -0.78925,-0.95057 -0.91118,-2.63082 -0.2075,-2.85928 -0.12946,-2.93312 1.21819,-1.15257 0.79195,1.04634 1.45421,1.50424 1.47171,1.01757 0.0175,-0.48667 0.98971,0.33292 2.16048,1.82132 1.37899,1.7531 2.47118,2.36368 3.10118,1.73368 0.57028,-0.57028 2.14028,-0.63758 3.79604,-0.16271 3.56231,1.02165 4.45661,0.18322 2.32129,-2.17628 C 890.35649,518.73643 890.15452,518 890.84501,518 c 0.63525,0 1.15499,0.45 1.15499,1 0,0.55 0.66088,1 1.46862,1 0.93684,0 1.27392,-0.63365 0.93093,-1.75 -0.29573,-0.9625 0.15245,-0.625 0.99594,0.75 1.9706,3.21229 2.01854,4.5885 0.10451,3 -1.22111,-1.01343 -1.5,-0.96312 -1.5,0.27057 0,1.67006 1.83226,2.66817 3.69991,2.01548 0.85376,-0.29836 0.92588,-1.1401 0.25,-2.91779 -1.34042,-3.52558 -1.11732,-4.29803 0.43351,-1.50092 1.09644,1.97757 1.41473,2.10105 1.93318,0.75 C 900.65795,519.7278 900.46921,519 899.89719,519 c -0.57203,0 -0.3329,-0.70714 0.53138,-1.57143 0.86429,-0.86428 1.57143,-2.41273 1.57143,-3.44098 0,-2.45035 1.84659,-3.55095 2.61185,-1.55672 0.32874,0.85671 1.07145,1.26486 1.65046,0.90701 0.66813,-0.41292 0.84672,0.13719 0.48883,1.50575 -0.31014,1.186 -0.10495,2.15637 0.45598,2.15637 0.56438,0 0.82323,1.33987 0.57957,3 -0.32153,2.19072 -0.0374,3 1.05317,3 0.82141,0 1.20931,0.28417 0.86199,0.63148 -1.0274,1.0274 1.23324,4.36852 2.95578,4.36852 1.29751,0 1.36001,-0.27382 0.34237,-1.5 -0.77368,-0.93223 -0.84554,-1.5 -0.18983,-1.5 0.58028,0 1.32218,0.7875 1.64867,1.75 0.32649,0.9625 1.76096,3.07555 3.18773,4.69567 2.20052,2.49873 2.76551,2.72243 3.72377,1.47436 0.62131,-0.80922 1.80466,-1.43954 2.62966,-1.4007 2.29229,0.10791 5.93861,-2.51574 5.41018,-3.8928 -0.25802,-0.67239 0.78164,-2.32593 2.31035,-3.67453 L 934.5,521.5 l -2.232,2.5453 c -1.36438,1.55588 -2.06496,3.41269 -1.80228,4.77671 0.24026,1.24757 0.0119,1.97316 -0.51799,1.64568 -0.85546,-0.5287 -1.3749,0.82689 -1.06615,2.78231 0.0651,0.4125 -0.35814,0.75 -0.9406,0.75 -0.58246,0 -0.7809,0.45 -0.44098,1 0.33992,0.55 0.14148,1 -0.44098,1 -1.50604,0 -1.32005,4.97688 0.19098,5.11069 0.6875,0.0609 2.375,0.0758 3.75,0.0332 2.32518,-0.0721 2.29621,-0.0129 -0.41432,0.84677 -1.60287,0.50835 -3.29037,0.69186 -3.75,0.4078 -1.27338,-0.787 -0.99605,1.04118 0.36432,2.40155 0.66,0.66 1.8975,1.19311 2.75,1.18469 1.3658,-0.0135 1.37174,-0.13052 0.05,-0.98469 -1.29328,-0.83578 -1.26739,-0.97148 0.18785,-0.98469 1.04727,-0.01 1.63345,0.70693 1.5445,1.8877 -0.13878,1.84239 -2.28186,2.11148 -4.73611,0.59467 -0.54793,-0.33865 -0.99624,-0.155 -0.99624,0.40811 0,1.64149 3.55982,3.09133 7.68426,3.12964 3.48735,0.0324 3.63472,0.13996 1.71239,1.25 -2.29809,1.32701 -2.15412,3.94246 0.16796,3.05139 0.95577,-0.36676 1.43539,0.12537 1.43539,1.47285 0,1.11301 0.3375,2.2124 0.75,2.44309 0.4125,0.23069 0.16392,0.27327 -0.5524,0.0946 -1.815,-0.45267 -6.00573,2.46081 -6.44291,4.47926 -0.19934,0.92035 0.27771,2.79836 1.06011,4.17336 l 1.42254,2.5 -2.13233,-2.5 -2.13233,-2.5 -1.98634,2.36078 C 925.89385,568.15922 925,568.89162 925,568.48834 c 0,-0.40328 -0.675,-0.17303 -1.5,0.51166 -0.825,0.68469 -1.5,0.94896 -1.5,0.58726 0,-0.36169 -0.9,-0.17596 -2,0.41274 -2.18825,1.17112 -2.58084,4.04618 -0.96482,7.06574 0.74296,1.38822 0.71235,1.93426 -0.1084,1.93426 -0.68785,0 -0.91772,0.89998 -0.5768,2.25831 0.84337,3.36022 -0.62321,5.20101 -3.09132,3.88012 -1.09763,-0.58743 -2.27986,-0.7839 -2.62718,-0.43658 C 912.28417,585.04917 912,584.35833 912,583.16667 912,581.975 911.53886,581 910.97525,581 c -1.2027,0 -2.81404,3.87646 -3.9489,9.5 l -0.80722,4 -0.10956,-4.20295 c -0.0603,-2.31162 0.41353,-5.35102 1.05287,-6.75422 1.27558,-2.7996 0.45388,-4.55915 -1.30685,-2.79842 -1.22776,1.22776 -3.72485,9.53815 -4.73422,15.75559 -0.40822,2.51451 -0.94306,3.53832 -1.44017,2.75683 z"
       id="path5" />
    <path
       style="fill:#656565"
       d="m 653,668.41337 c 1.375,-1.59879 2.74677,-3.02811 3.04837,-3.17625 0.3016,-0.14815 3.0016,-2.11323 6,-4.36683 9.2427,-6.94684 31.28285,-17.04189 48.82359,-22.36267 4.19542,-1.27263 8.52804,-2.66979 9.62804,-3.10479 1.87426,-0.7412 1.89447,-0.68442 0.32143,0.90312 -0.92322,0.93173 -2.27322,1.69405 -3,1.69405 -0.83404,0 -1.32143,1.24397 -1.32143,3.37268 0,2.58012 0.35249,3.24111 1.5,2.81277 1.28441,-0.47944 1.30405,-0.31899 0.13669,1.11631 -0.74982,0.92192 -1.76232,1.42962 -2.25,1.12821 C 715.39901,646.12857 715,646.5694 715,647.4096 c 0,0.94705 -0.57008,1.30887 -1.5,0.95203 -0.825,-0.31659 -1.5,-0.0509 -1.5,0.5904 0,0.6413 -0.50031,0.85679 -1.1118,0.47887 -0.6115,-0.37792 -1.41853,-0.19084 -1.79341,0.41573 -0.37489,0.60658 -1.56207,1.26958 -2.6382,1.47334 -1.07612,0.20376 -4.20659,1.37463 -6.95659,2.60194 -2.75,1.2273 -5.7875,2.29271 -6.75,2.36758 -0.9625,0.0749 -1.75,0.70123 -1.75,1.39193 0,0.70543 -0.6574,1.00354 -1.5,0.68021 -0.825,-0.31659 -1.5,-0.0775 -1.5,0.53138 0,0.60885 -0.3375,1.03432 -0.75,0.94551 -0.4125,-0.0888 -1.9875,0.36118 -3.5,1 -6.07065,2.56398 -8.67377,3.41978 -18.75,6.16426 -5.775,1.57294 -11.4,3.18785 -12.5,3.58869 -1.77213,0.64575 -1.71517,0.3976 0.5,-2.1781 z"
       id="path4" />
    <path
       style="fill:#10c854"
       d="m 410.53056,479.02839 c -0.50738,-0.80938 -0.98588,-4.63438 -1.06333,-8.5 -0.13653,-6.81468 -0.66743,-9.8592 -2.44625,-14.02839 -0.46932,-1.1 -1.45089,-3.4625 -2.18126,-5.25 C 404.10935,449.4625 403.17163,448 402.75589,448 402.34015,448 402,446.65 402,445 c 0,-1.65 0.45,-3 1,-3 0.55,0 1,0.41968 1,0.93261 0,0.51294 0.89734,1.21742 1.99408,1.56551 1.09674,0.34809 2.55924,1.16592 3.25,1.81739 0.69076,0.65147 3.13575,2.20742 5.43333,3.45768 l 4.17741,2.27318 0.3531,-2.27318 c 0.52108,-3.35463 -0.9574,-9.69362 -3.38879,-14.52943 -1.17699,-2.34093 -1.88461,-4.51161 -1.57249,-4.82374 1.03123,-1.03122 6.89697,2.67096 11.45738,7.23136 5.35539,5.3554 7.87006,5.27367 6.97746,-0.22677 -0.76138,-4.69183 0.0277,-6.42461 2.92551,-6.42461 1.86429,0 2.39301,0.53428 2.39301,2.41821 0,1.33002 0.26745,3.24252 0.59433,4.25 0.49429,1.52346 0.41271,1.5793 -0.48468,0.33179 -0.85662,-1.19083 -1.08218,-0.81082 -1.09434,1.84362 -0.0113,2.47628 -0.52552,3.47704 -1.98219,3.85797 -1.08179,0.28289 -2.23711,1.36576 -2.56739,2.40638 -0.33028,1.04062 -0.90768,1.94946 -1.28312,2.01965 -4.001,0.74804 -5.47116,0.36163 -6.89565,-1.81241 -1.0211,-1.5584 -1.92831,-2.07386 -2.55212,-1.45005 -1.27876,1.27876 -0.51455,21.46518 0.88041,23.25583 1.47934,1.89896 2.55654,5.10321 1.49505,4.44718 -0.47674,-0.29464 -1.11488,0.70472 -1.41809,2.22079 -0.49338,2.4669 -0.97893,2.75649 -4.62176,2.75649 -2.91801,0 -4.07045,-0.41696 -4.07045,-1.47272 0,-2.02072 -1.70454,-0.1197 -2.1764,2.42727 -0.3058,1.65065 -0.53166,1.74295 -1.29304,0.52839 z m 217.99485,-70.74463 c -0.38344,-2.04393 -1.55852,-4.92589 -2.61129,-6.40437 C 624.86135,400.40092 624,398.47323 624,397.59563 624,396.71803 623.55,396 623,396 c -0.55,0 -1,0.6199 -1,1.37756 0,0.75765 -0.71569,1.97152 -1.59042,2.69748 -1.3982,1.16041 -1.56126,0.96371 -1.3492,-1.62756 0.51885,-6.33994 -0.0687,-7.08547 -2.12596,-2.69748 -2.03616,4.34303 -3.60628,5.17814 -5.73442,3.05 -1.48895,-1.48895 -1.68146,-16.21559 -0.2,-15.3 0.55,0.33992 1.01431,1.60398 1.0318,2.80902 0.0175,1.20504 0.63928,2.99171 1.38174,3.97037 1.83867,2.42362 2.24998,1.1026 3.1202,-10.02153 0.68832,-8.79883 2.01386,-13.24936 3.1278,-10.50163 C 620.44177,371.68081 622,370.17738 622,367.5 c 0,-1.31008 0.45,-2.66008 1,-3 0.55,-0.33992 1,-1.49148 1,-2.55902 0,-1.06754 0.49878,-1.94098 1.10841,-1.94098 0.70406,0 0.86191,0.98212 0.43269,2.69225 -1.04473,4.16257 0.45102,17.30775 1.9694,17.30775 1.55739,0 2.4895,2.23139 2.4895,5.95966 0,1.53785 0.73206,4.53855 1.62681,6.66822 l 1.6268,3.87212 1.09322,-2.5 c 1.00771,-2.30446 1.11987,-2.11704 1.43396,2.3962 0.1874,2.69291 -0.18202,6.29291 -0.82095,8 -3.25816,8.70519 -5.29928,9.9384 -6.43443,3.88756 z"
       id="path3"
       sodipodi:nodetypes="ssssssssssscsssssssssssssssssssssssssssssssssssssssssssscssss" />
    <path
       style="fill:#3d3e42"
       d="m 715,647.04939 c 0,-0.64208 0.39901,-0.92082 0.88669,-0.61942 0.48768,0.30141 1.50018,-0.20629 2.25,-1.12821 1.16736,-1.4353 1.14772,-1.59575 -0.13669,-1.11631 -1.14751,0.42834 -1.5,-0.23265 -1.5,-2.81277 0,-2.61943 0.41474,-3.37268 1.85699,-3.37268 1.21081,0 1.66349,-0.50424 1.30093,-1.44907 -0.37166,-0.96852 -0.0755,-1.26467 0.89301,-0.89301 0.79699,0.30583 1.44907,0.0382 1.44907,-0.59477 0,-0.63295 0.5625,-1.06012 1.25,-0.94927 0.6875,0.11086 1.925,-0.0905 2.75,-0.4475 6.07919,-2.63049 11.38969,-3.13829 27.5,-2.62961 9.35,0.29522 16.325,0.63961 15.5,0.76531 -1.08679,0.16559 -1.1702,0.4382 -0.30279,0.98963 0.78959,0.50194 0.87992,1.26281 0.26532,2.23468 -0.51255,0.81049 -0.9388,1.08101 -0.94722,0.60117 -0.008,-0.47985 -0.69031,-0.31225 -1.51531,0.37244 -0.825,0.68469 -1.5,0.90969 -1.5,0.5 0,-0.40969 -0.675,-0.18469 -1.5,0.5 -0.825,0.68469 -1.5,0.95875 -1.5,0.60902 0,-0.34972 -1.53247,0.004 -3.40548,0.78704 -1.87301,0.78259 -5.81051,1.91999 -8.75,2.52754 -2.93949,0.60755 -6.24452,1.29017 -7.34452,1.51694 -1.1,0.22676 -6.5,1.30375 -12,2.3933 -5.5,1.08956 -11.2375,2.29646 -12.75,2.682 -1.82989,0.46644 -2.75,0.31037 -2.75,-0.46645 z M 386,495.46862 C 386,494.66088 385.325,494 384.5,494 c -0.825,0 -1.5,-0.47656 -1.5,-1.05902 0,-0.58246 -0.42108,-0.79877 -0.93573,-0.4807 -0.57299,0.35413 -0.60291,-0.58215 -0.0772,-2.41526 0.4722,-1.64646 0.55577,-2.95185 0.18573,-2.90087 -1.68044,0.23151 -3.15643,-0.21032 -2.98705,-0.89415 0.10218,-0.4125 -0.59687,-2.55 -1.55343,-4.75 -0.95656,-2.2 -1.67672,-4.17469 -1.60036,-4.3882 0.0764,-0.2135 -0.37951,-0.70855 -1.01305,-1.1001 -0.63355,-0.39155 -1.2542,-1.40897 -1.37924,-2.26092 -0.12505,-0.85196 -0.7441,-2.17166 -1.37568,-2.93267 -0.63158,-0.76101 -1.62352,-2.63348 -2.2043,-4.16106 -0.6492,-1.70751 -1.50142,-2.5021 -2.21235,-2.06272 -0.70288,0.43441 -0.88589,0.27703 -0.46665,-0.40131 0.57835,-0.93579 -1.39034,-7.00729 -6.48483,-19.99941 -0.56939,-1.45208 -1.36582,-2.03662 -2.15013,-1.5781 C 358.06059,443.01606 358.4,442.28908 359.5,441 c 1.1,-1.28908 1.43432,-2.01291 0.74294,-1.60851 -0.74031,0.43302 -1.50278,0.095 -1.85479,-0.82236 -0.32874,-0.85671 -1.0701,-1.2657 -1.64744,-0.90888 -0.61487,0.38001 -0.75265,0.16808 -0.3326,-0.51157 0.76364,-1.23559 -1.37977,-8.28289 -2.33975,-7.69287 -0.3126,0.19213 -0.67151,-1.06853 -0.79758,-2.80146 -0.12607,-1.73294 -0.80107,-3.60159 -1.5,-4.15257 C 351.07185,421.9508 350.455,420.9375 350.4,420.25 c -0.31307,-3.91333 -0.48432,-4.31592 -1.55451,-3.65451 -0.66519,0.41111 -0.88488,0.27727 -0.51835,-0.3158 0.85191,-1.37841 -2.67206,-11.60144 -3.65893,-10.61457 -0.42565,0.42566 -0.47699,1.3e-4 -0.11407,-0.9456 0.36291,-0.94574 0.20382,-1.71952 -0.35353,-1.71952 -0.55735,0 -0.75961,-0.97037 -0.44947,-2.15637 0.3613,-1.38159 0.18152,-1.92004 -0.50036,-1.49862 -0.68197,0.42148 -0.86157,-0.11733 -0.5,-1.5 0.42037,-1.60751 0.22969,-1.95097 -0.74776,-1.34687 -0.87881,0.54313 -1.07145,0.42161 -0.58343,-0.36803 1.05989,-1.71494 -0.36186,-7.28382 -1.65547,-6.48433 -0.64862,0.40087 -0.78114,0.19077 -0.335,-0.5311 0.63106,-1.02106 -0.27487,-9.20836 -2.0044,-18.11468 -0.34783,-1.79118 -0.21871,-2.09903 0.4554,-1.0858 0.7734,1.16247 1.50449,0.93996 4.10711,-1.25 3.65627,-3.07655 3.42523,-3.01763 12.16014,-3.10086 3.65606,-0.0348 6.40464,0.33462 6.10796,0.82101 -0.29669,0.48639 0.86351,0.67844 2.57821,0.42677 1.71471,-0.25166 3.24179,-0.0851 3.39353,0.37009 0.15174,0.45521 2.18539,0.93816 4.51923,1.07322 2.33383,0.13507 4.24567,0.63555 4.24852,1.1122 0.003,0.47665 0.90473,0.63139 2.00418,0.34388 1.09946,-0.28751 2.25839,-0.10306 2.57541,0.40989 0.31702,0.51295 1.10497,0.84973 1.751,0.7484 0.64602,-0.10133 1.84959,0.0909 2.67459,0.42713 4.52048,1.84246 13.13214,3.74044 14.14137,3.1167 0.679,-0.41965 0.90054,-0.28945 0.52937,0.31111 -0.73835,1.19468 4.99313,2.60203 6.58647,1.61729 0.66008,-0.40795 0.74981,-0.16141 0.24093,0.66199 -0.6041,0.97745 -0.26064,1.16813 1.34687,0.74776 1.38267,-0.36157 1.92148,-0.18197 1.5,0.5 -0.42148,0.68197 0.11733,0.86158 1.5,0.5 1.38267,-0.36157 1.92148,-0.18197 1.5,0.5 -0.42549,0.68845 0.13864,0.85601 1.59753,0.4745 1.24041,-0.32438 1.97647,-0.31096 1.6357,0.0298 -0.86814,0.86815 8.63332,4.36346 10.2237,3.76101 0.71606,-0.27126 1.02701,-0.0483 0.69098,0.49535 -0.55731,0.90176 1.03735,1.37456 4.24632,1.25899 0.68158,-0.0246 0.99252,0.35456 0.69098,0.84246 -0.50019,0.80933 0.0142,0.98265 3.81978,1.2871 0.6875,0.055 1.87052,0.68838 2.62894,1.40751 0.75842,0.71913 1.99592,1.07075 2.75,0.78139 0.75408,-0.28937 1.37106,-0.14485 1.37106,0.32116 0,0.46602 1.36425,1.41239 3.03166,2.10305 3.36886,1.39543 10.13828,6.48362 9.48932,7.13258 -0.22829,0.22829 -0.70525,1.9764 -1.05992,3.88469 -0.35467,1.90829 -0.79407,4.14462 -0.97644,4.96962 -0.18238,0.825 -0.36603,1.8375 -0.40811,2.25 C 451.03443,410.6625 450.1,411 449,411 c -1.1,0 -1.91892,0.3375 -1.81983,0.75 0.2959,1.23171 -3.55258,8.63393 -5.32906,10.25 -2.5463,2.31638 -5.05558,6.75991 -4.03771,7.15014 0.5019,0.19242 1.24131,2.59986 1.64312,5.34986 0.40181,2.75 0.39344,4.66747 -0.0186,4.26104 -0.41204,-0.40642 -1.02413,-2.43056 -1.3602,-4.49808 -0.37501,-2.30713 -1.18398,-3.7976 -2.09437,-3.85873 -4.34323,-0.29163 -4.88328,-0.50143 -4.41719,-1.71605 0.70841,-1.84608 -4.50009,-10.84705 -5.80873,-10.03826 -0.58655,0.3625 -0.80161,0.23058 -0.47792,-0.29316 0.76489,-1.23762 -0.8634,-3.85676 -2.39771,-3.85676 -0.65513,0 -1.3041,-0.76966 -1.44217,-1.71035 -0.3357,-2.28728 -5.42319,-6.91784 -6.71995,-6.11641 -0.56578,0.34968 -0.73099,0.15408 -0.36714,-0.43465 0.884,-1.43034 -10.43061,-9.41168 -12.32206,-8.69201 -0.80823,0.30752 -1.14735,0.23696 -0.75359,-0.1568 1.00923,-1.00923 -5.16019,-4.57994 -6.49152,-3.75713 -0.70671,0.43677 -0.80442,0.20719 -0.27583,-0.64808 0.61348,-0.99264 0.34666,-1.14337 -1.06501,-0.60166 -1.03596,0.39754 -1.56178,0.401 -1.16848,0.008 0.97214,-0.97215 -7.20788,-4.55079 -8.53181,-3.73255 -0.57929,0.35802 -0.7691,0.19117 -0.4218,-0.37077 0.6893,-1.11532 -10.04821,-4.57482 -11.47064,-3.69571 -0.46849,0.28954 -0.8518,-10e-4 -0.8518,-0.64607 0,-0.72931 -1.11403,-1.00901 -2.94719,-0.73996 -1.62095,0.2379 -2.71939,0.064 -2.44098,-0.3865 0.81144,-1.31294 -11.9558,-0.87981 -13.64023,0.46274 -1.74915,1.39415 -2.59683,8.21375 -1.1334,9.1182 0.53572,0.3311 0.75208,1.45076 0.4808,2.48814 -0.27128,1.03738 -0.0237,2.17634 0.55021,2.53103 0.57389,0.35468 0.80742,1.25995 0.51894,2.0117 -0.28847,0.75176 -0.0635,1.65176 0.5,2 0.56348,0.34825 0.7845,1.25861 0.49117,2.02301 -0.29333,0.76441 0.0469,2.4375 0.75613,3.71798 0.7092,1.28048 1.19905,2.65003 1.08856,3.04345 -0.11048,0.39342 0.3187,1.96842 0.95376,3.5 0.63505,1.53158 1.19235,3.08469 1.23844,3.45136 0.0461,0.36666 0.40546,0.98833 0.79861,1.38148 0.39315,0.39315 0.23575,1.60995 -0.34977,2.70401 -0.68818,1.28588 -0.70344,1.76599 -0.0431,1.35791 1.05607,-0.65268 4.43892,9.1589 3.61657,10.48948 -0.24801,0.4013 -0.0387,0.88056 0.4651,1.06504 0.50382,0.18448 1.14608,1.82147 1.42725,3.63778 0.28116,1.8163 1.10925,4.04018 1.8402,4.94195 0.75574,0.93238 0.83004,1.34054 0.17224,0.94626 -0.76887,-0.46085 -0.98732,-0.0455 -0.65147,1.23884 0.32938,1.25955 1.05027,1.72305 2.07079,1.33144 0.98984,-0.37983 1.3146,-0.19476 0.88319,0.50328 -0.79454,1.28559 2.15925,9.23586 3.43142,9.23586 0.47302,0 0.62328,0.61698 0.33391,1.37106 -0.28936,0.75408 0.15333,2.05051 0.98377,2.88095 0.83044,0.83044 1.23132,1.78847 0.89084,2.12894 -0.34047,0.34048 -0.0675,0.61905 0.60664,0.61905 0.67413,0 0.97836,0.40018 0.67608,0.88929 -0.85922,1.39024 3.5492,11.15605 4.71167,10.4376 0.57856,-0.35757 0.72816,-0.14927 0.34178,0.4759 -0.37793,0.6115 1.13257,4.73103 3.35665,9.15451 2.22409,4.42349 3.74402,8.0427 3.37764,8.0427 -0.36638,0 0.098,0.8444 1.03201,1.87644 1.50288,1.66066 1.5207,1.94455 0.15499,2.46862 C 386.58398,496.71314 386,496.38147 386,495.46862 Z M 992,489 c 0,-0.55 -1.39814,-1 -3.10699,-1 -2.35092,0 -2.96692,-0.36501 -2.53138,-1.5 0.3934,-1.0252 -0.0575,-1.5 -1.4244,-1.5 -1.1,0 -2.25803,-0.67242 -2.5734,-1.49426 -0.31537,-0.82184 -0.90125,-1.29163 -1.30195,-1.04399 -1.38134,0.85372 -0.79291,-2.96557 0.72593,-4.71175 0.83719,-0.9625 1.16673,-1.75 0.73232,-1.75 -0.43442,0 0.45042,-0.97559 1.96629,-2.16798 2.98288,-2.34633 7.9701,-3.1242 10.75323,-1.6772 2.51052,1.30526 5.25795,6.91963 3.82078,7.80783 -0.62049,0.38349 -0.8575,1.4026 -0.52668,2.26471 0.33287,0.86744 -0.13061,2.17151 -1.03781,2.92005 -0.90161,0.74392 -2.50704,2.14009 -3.56762,3.10259 C 992.86775,489.2125 992,489.55 992,489 Z M 660.13023,455.33374 c 0.97382,-0.2594 1.87362,-1.92394 2.23471,-4.134 0.33246,-2.03486 1.96031,-5.27474 3.61742,-7.19974 4.04177,-4.69514 3.79823,-5.43887 -0.98236,-3 l -4,2.04065 v -2.4489 c 0,-1.34689 0.70714,-3.15604 1.57143,-4.02032 0.86428,-0.86429 1.30391,-1.57143 0.97695,-1.57143 -0.32697,0 0.13338,-1.11087 1.023,-2.4686 1.37806,-2.10318 1.53213,-4.6566 1.04083,-17.25 -0.31717,-8.12977 -0.5658,-16.70635 -0.55252,-19.05907 0.0133,-2.35272 -0.3118,-4.82124 -0.7224,-5.4856 -0.4106,-0.66436 -0.61563,-2.72747 -0.45562,-4.58468 0.21385,-2.48216 -0.0378,-3.17359 -0.94988,-2.60989 -0.80069,0.49485 -0.98707,0.35631 -0.52547,-0.39059 1.07151,-1.73374 -0.43096,-10.25438 -1.67284,-9.48685 -0.61072,0.37745 -0.74311,0.15988 -0.31965,-0.5253 0.88665,-1.43462 -1.41841,-12.25462 -2.47197,-11.60349 -0.41544,0.25676 -0.51982,-0.43379 -0.23197,-1.53455 0.28786,-1.10076 0.063,-2.00138 -0.49964,-2.00138 -0.56266,0 -0.76925,-0.97037 -0.45911,-2.15637 0.31015,-1.18601 0.15552,-1.90687 -0.34362,-1.60192 -0.49913,0.30495 -1.00327,-1.11312 -1.12029,-3.15128 -0.25391,-4.42212 -3.61882,-12.39331 -4.78532,-11.336 -0.45241,0.41006 -0.49637,0.17904 -0.0977,-0.51338 1.0021,-1.74043 -0.30268,-5.42184 -1.63072,-4.60106 -0.64797,0.40047 -0.79387,0.20199 -0.36346,-0.49443 1.01071,-1.63536 -0.32602,-5.31552 -1.63654,-4.50557 -0.64797,0.40047 -0.79387,0.20199 -0.36346,-0.49443 1.01071,-1.63536 -0.32602,-5.31552 -1.63654,-4.50557 -0.6642,0.41049 -0.79237,0.19956 -0.33169,-0.54584 0.92206,-1.49192 -1.3346,-7.27844 -2.54641,-6.5295 -0.47987,0.29657 -0.63781,-0.0723 -0.35097,-0.81984 0.75497,-1.9674 -4.46891,-12.90952 -5.77714,-12.10099 -0.63194,0.39056 -0.78699,0.19707 -0.37555,-0.46864 0.9616,-1.55592 -1.22906,-5.39375 -2.59642,-4.54868 -0.61471,0.37991 -0.82461,0.2299 -0.47341,-0.33834 0.34701,-0.56148 -0.14596,-1.72095 -1.09549,-2.5766 -2.80172,-2.52473 -6.69958,-3.03536 -10.02872,-1.3138 -3.70923,1.91812 -9.32793,8.55112 -8.49063,10.02337 0.33747,0.59338 0.25669,0.75663 -0.1795,0.36278 -1.16483,-1.05174 -4.7862,3.97334 -3.93223,5.45643 0.39892,0.69281 0.35603,0.92502 -0.0953,0.51602 -1.13653,-1.0299 -3.78178,2.97873 -2.90344,4.3999 0.40071,0.64837 0.27641,0.88328 -0.2841,0.53686 -1.299,-0.80283 -5.66322,7.93035 -4.72315,9.45142 0.48105,0.77836 0.28052,0.89306 -0.60476,0.34592 -0.96971,-0.59931 -1.14808,-0.35895 -0.66596,0.89743 0.36295,0.94584 0.24713,1.46176 -0.25807,1.14953 -1.18865,-0.73463 -2.40907,3.08963 -1.47058,4.60814 0.43041,0.69642 0.28451,0.8949 -0.36346,0.49443 -1.31052,-0.80995 -2.64725,2.87021 -1.63654,4.50557 0.39548,0.6399 0.29612,0.90207 -0.2208,0.58259 -1.21944,-0.75365 -5.74831,11.84142 -4.97887,13.84654 0.32274,0.84105 0.18169,1.27881 -0.31345,0.9728 -0.7891,-0.48769 -5.42389,16.80026 -6.26646,23.37416 -0.20043,1.56381 -1.01885,2.49225 -2.31038,2.62097 -1.1,0.10963 -2.74898,0.51575 -3.6644,0.90249 -1.25938,0.53206 -2.3167,-0.40991 -4.34502,-3.87097 -1.7403,-2.9696 -3.36956,-4.57414 -4.64462,-4.57414 -1.0802,0 -1.70963,-0.41157 -1.39875,-0.91459 0.31089,-0.50302 0.0924,-1.07219 -0.48541,-1.26481 -0.57787,-0.19262 -1.12644,-1.35613 -1.21905,-2.58557 -0.1436,-1.90633 -2.93421,-3.94406 -4.79285,-3.49979 -0.30256,0.0723 -0.65912,-1.48735 -0.79237,-3.46593 -0.13325,-1.97858 -0.47477,-3.97359 -0.75892,-4.43336 C 559.11446,355.37618 559.3282,355 559.8736,355 c 0.99447,0 2.69614,-3.84326 2.32453,-5.25 -0.10897,-0.4125 0.24031,-0.75 0.77619,-0.75 1.15765,0 4.14918,-5.46954 3.4858,-6.37322 -0.25307,-0.34473 -0.16298,-0.40464 0.20019,-0.13314 1.06156,0.79362 3.52578,-3.38352 2.74311,-4.6499 -0.41722,-0.67509 -0.27498,-0.88239 0.34328,-0.50029 1.26492,0.78176 11.56237,-15.03435 10.69851,-16.4321 -0.32663,-0.5285 0.002,-0.83725 0.73046,-0.68613 0.72838,0.15113 1.26477,-0.49507 1.19198,-1.436 -0.0728,-0.94094 0.3772,-1.61594 1,-1.5 0.62279,0.11593 1.07279,-0.55907 1,-1.5 -0.0728,-0.94094 0.3772,-1.61594 1,-1.5 0.62279,0.11593 1.07066,-0.57188 0.99525,-1.52846 -0.0754,-0.95658 0.23797,-1.50744 0.69637,-1.22413 1.13029,0.69856 6.00968,-6.61606 5.242,-7.85819 -0.33566,-0.5431 -0.17073,-0.7158 0.3665,-0.38377 0.53723,0.33203 3.30676,-2.0433 6.15451,-5.27851 5.13111,-5.82925 6.33945,-7.80274 3.92772,-6.41485 -0.72624,0.41793 -0.90083,0.33791 -0.41667,-0.19098 0.45834,-0.50068 1.2089,-0.91033 1.66792,-0.91033 0.45902,0 4.35902,-3.65285 8.66667,-8.11743 8.17153,-8.46925 13.07897,-11.80067 15.82887,-10.74543 0.89292,0.34265 2.31912,2.36154 3.16933,4.48644 0.85022,2.1249 1.943,3.618 2.42841,3.318 0.48541,-0.3 0.63257,0.10602 0.32702,0.90227 -0.59021,1.53806 5.07126,13.65615 6.38004,13.65615 0.42504,0 0.84742,1.0125 0.93862,2.25 0.24582,3.33543 4.54713,13.69045 5.45399,13.12998 0.43059,-0.26612 0.54468,0.13691 0.25353,0.89563 -0.84337,2.1978 1.34794,6.96525 2.8004,6.09261 0.85415,-0.51318 0.81584,-0.2146 -0.12057,0.93982 -1.02437,1.26284 -1.06028,1.69196 -0.1416,1.69196 0.80598,0 1.01916,0.84347 0.61757,2.44352 -0.51112,2.03646 -0.28767,2.38082 1.34133,2.0671 1.69187,-0.32583 1.83076,-0.0507 1.03322,2.04703 -0.50677,1.3329 -0.59665,2.37442 -0.19974,2.31448 1.90862,-0.28821 3.2837,0.21846 2.7846,1.02603 -0.3053,0.49399 0.33345,3.53149 1.41944,6.75 1.89152,5.60583 7.24377,24.6261 10.79208,38.35184 0.9242,3.575 2.00274,6.64157 2.39677,6.81461 0.39403,0.17303 0.48602,0.91501 0.20442,1.64885 -0.2816,0.73383 -0.051,1.61917 0.5125,1.96741 0.56348,0.34825 0.77928,1.27222 0.47956,2.05327 -0.29971,0.78105 -0.18886,1.99622 0.24634,2.70039 0.99309,1.60686 1.43944,4.38911 1.37412,8.56547 -0.0279,1.7875 0.30078,3.25 0.7305,3.25 0.42973,0 0.85945,1.35 0.95494,3 0.40721,7.0365 0.63465,8.18106 1.70753,8.59276 0.6883,0.26413 0.99065,2.20049 0.77229,4.94601 l -0.35885,4.51195 2.60694,-1.1878 c 1.43381,-0.65329 2.80903,-0.98571 3.05603,-0.7387 0.247,0.247 -0.64096,3.45216 -1.97324,7.12257 -1.45004,3.9948 -2.03339,6.91386 -1.45333,7.27236 0.53296,0.32939 0.96902,0.18954 0.96902,-0.31077 0,-0.84167 9.42231,-3.32081 18.25,-4.80183 3.04209,-0.51037 3.75,-0.32496 3.75,0.98216 0,0.88621 -0.3375,1.50774 -0.75,1.38117 -0.4125,-0.12656 -5.025,3.87222 -10.25,8.88618 -5.225,5.01396 -11.03025,10.38952 -12.90056,11.9457 -3.34714,2.78495 -3.38015,2.79067 -2.10143,0.36382 0.71452,-1.35607 2.35727,-3.73761 3.65056,-5.29231 1.29329,-1.55469 2.35143,-3.23803 2.35143,-3.74075 0,-0.76192 -5.64926,2.14455 -12,6.17385 -0.825,0.52343 -2.2875,1.21611 -3.25,1.53929 -0.9625,0.32318 -1.75,1.01168 -1.75,1.52999 0,0.51831 -0.40285,0.69341 -0.89522,0.38911 -0.49236,-0.3043 -1.15324,0.11914 -1.46861,0.94098 -0.31537,0.82184 -1.37502,1.44206 -2.35479,1.37826 -1.5099,-0.0983 -1.53293,-0.18218 -0.15115,-0.55026 z m 85.16023,-26.95753 c 0.9586,-0.95861 -6.36531,-5.56146 -7.90754,-4.96966 -0.74741,0.28681 -1.31104,0.20017 -1.2525,-0.19254 0.28789,-1.93146 -0.22809,-3.27168 -1.06132,-2.75672 -0.512,0.31644 -1.19434,0.14909 -1.51631,-0.37188 -0.32198,-0.52097 -0.0585,-1.27284 0.58541,-1.67082 0.78054,-0.4824 0.90114,-0.28727 0.3618,0.58541 -0.54698,0.88503 -0.41934,1.06818 0.39405,0.56548 0.92719,-0.57303 0.90529,-1.10438 -0.0955,-2.31713 -1.02775,-1.24543 -1.03788,-1.66133 -0.0486,-1.9943 1.36425,-0.45917 1.70287,-2.83412 0.5,-3.50682 -0.4125,-0.23069 -0.22474,-0.29661 0.41724,-0.14648 0.64198,0.15013 1.41536,-0.37362 1.71862,-1.16389 0.3033,-0.79027 1.43899,-1.43686 2.52379,-1.43686 1.0848,0 2.25048,-0.45 2.5904,-1 0.33992,-0.55 1.06803,-1 1.61803,-1 0.55,0 0.79229,0.3375 0.53842,0.75 -0.25387,0.4125 0.77349,0.83881 2.28303,0.94735 5.99338,0.43095 7.76243,1.72579 5.75332,4.21107 -0.9351,1.15672 -0.92274,1.31325 0.0572,0.72452 0.91635,-0.55053 1.25,0.31062 1.25,3.22626 0,2.18747 0.2751,4.69413 0.61134,5.57035 0.44586,1.1619 0.17894,1.4272 -0.9861,0.98014 -1.11178,-0.42663 -1.90513,0.19627 -2.60947,2.04883 -0.55661,1.46401 -1.43177,2.40241 -1.9448,2.08534 -0.51302,-0.31706 -1.21543,-0.11914 -1.56089,0.43983 -0.34546,0.55897 -1.12656,1.01631 -1.73576,1.01631 -0.60921,0 -0.82695,-0.28071 -0.48386,-0.62379 z"
       id="path2" />
    <path
       style="fill:#282728"
       d="m 738,703.21604 c -4.675,-2.08246 -14.35,-6.91782 -21.5,-10.74526 -7.15,-3.82743 -17.05,-8.93032 -22,-11.33974 l -9,-4.38076 -14.5,0.60535 c -13.06637,0.54551 -20.67758,1.41043 -28,3.18187 -2.13256,0.51591 -1.84025,-0.008 1.98886,-3.56419 5.72297,-5.31515 7.84328,-6.37723 17.81357,-8.92287 4.4887,-1.14606 13.68194,-4.12742 20.42942,-6.62523 21.84795,-8.08776 28.41057,-9.54008 45.82421,-10.14097 13.72196,-0.47349 16.71032,-0.27383 25.34603,1.69346 5.38449,1.22663 9.40926,2.58235 8.94394,3.01271 -0.94851,0.87727 -29.42533,8.20961 -39.12658,10.0745 -3.4543,0.66403 -6.14696,1.34091 -5.98369,1.50418 0.16328,0.16328 6.79055,1.71922 14.72727,3.45764 17.77108,3.8925 29.75068,7.74731 38.69856,12.45246 l 6.83841,3.5959 -12.25,-0.59779 c -8.33989,-0.40697 -12.25,-0.25936 -12.25,0.46246 0,0.58313 0.50938,1.06024 1.13197,1.06024 1.34785,0 8.128,4.07337 7.62214,4.57922 -0.19309,0.1931 -3.02926,-0.72792 -6.3026,-2.0467 -7.3847,-2.97519 -18.71485,-5.04416 -20.90647,-3.81766 -1.286,0.71968 -0.27162,1.80864 5.17782,5.55849 8.36797,5.75815 15.97212,12.32308 15.19811,13.12107 -0.31847,0.32833 -2.56847,0.82443 -5,1.10243 -3.62457,0.41441 -5.95218,-0.1766 -12.92097,-3.28081 z M 500.36515,680 c 0.28352,-0.825 1.26715,-3.975 2.18586,-7 2.92661,-9.63641 7.758,-13.07988 28.28058,-20.15636 6.36144,-2.19352 12.67131,-4.56721 14.02193,-5.27488 1.82054,-0.95387 3.32095,-1.0211 5.80108,-0.25993 1.83997,0.5647 3.32897,1.28873 3.30889,1.60895 -0.0201,0.32022 -1.99396,1.82167 -4.3864,3.33656 C 544.97026,655.17138 537.57094,657 530.37424,657 c -5.18343,0 -13.21116,2.8755 -17.80076,6.37616 -1.8196,1.38787 -5.42684,6.0335 -8.01609,10.32362 -2.58925,4.29012 -4.47576,7.12522 -4.19224,6.30022 z M 665,656.87593 c 10.24242,-9.36208 28.62961,-20.23841 45.40975,-26.86062 9.1111,-3.59566 31.98273,-9.40711 43.11821,-10.95592 9.66807,-1.3447 11.77089,-1.28988 8.47204,0.22089 -1.375,0.6297 -6.68518,3.0768 -11.80041,5.43798 -5.11522,2.36119 -16.14022,6.32028 -24.5,8.79798 -25.16761,7.45927 -44.72612,15.36336 -59.19959,23.92406 l -6,3.54885 z m -81.58612,-40.3837 c 2.17742,-2.01797 2.6454,-3.23867 2.39602,-6.25 -0.30065,-3.63057 -0.41591,-3.73299 -3.86296,-3.43258 -4.23041,0.36868 -13.95834,-3.05978 -16.42944,-5.79031 -1.31557,-1.4537 -1.5506,-2.63685 -0.93938,-4.72905 0.44834,-1.53466 0.84596,-3.2918 0.8836,-3.90475 0.38361,-6.24796 19.52373,-12.52562 28.82769,-9.45504 3.21567,1.06127 3.67563,1.65358 4.24798,5.4703 0.56374,3.75925 0.21734,4.94379 -2.8463,9.73303 -1.91849,2.99907 -4.20882,6.05096 -5.08962,6.78196 -2.39911,1.99109 -1.97634,5.79248 0.85019,7.64449 2.87309,1.88252 10.41326,2.11756 13.57905,0.42329 1.26692,-0.67804 1.93973,-0.74476 1.57604,-0.15629 -1.26467,2.04627 -7.8474,3.4198 -13.31171,2.77758 -4.55151,-0.53494 -5.8536,-0.31065 -8.00051,1.37811 -3.65845,2.87773 -5.10734,2.49966 -1.88065,-0.49074 z m -58.30319,-73.00388 c -1.86412,-4.1619 -4.22782,-8.01585 -5.25266,-8.56433 -1.15556,-0.61844 -6.70546,-0.74233 -14.61069,-0.32617 -8.30862,0.4374 -15.19387,0.25773 -19.7734,-0.51597 -8.92475,-1.50782 -12.19572,-3.34352 -4.40477,-2.472 3.06305,0.34264 11.16305,0.0147 18,-0.72883 17.55316,-1.90885 23.25797,-1.80221 25.78053,0.48191 2.39506,2.16869 4.4772,10.47527 3.98921,15.91476 L 528.5,551.05544 Z m 64.01765,-10.05232 c -1.15482,-1.46812 -2.86552,-5.09885 -3.80155,-8.06829 -2.80721,-8.90549 -2.22328,-9.6078 15.69297,-18.8744 8.51413,-4.40367 18.18024,-9.8378 21.48024,-12.07586 8.92028,-6.04971 9.43082,-6.1598 4.5,-0.97035 -5.7393,6.04034 -14.56555,12.3511 -23.59612,16.87119 -10.72421,5.36782 -13.40507,7.97309 -13.3983,13.02057 0.003,2.28861 0.48587,5.89081 1.07289,8.00488 1.34524,4.84465 0.73223,5.50233 -1.95013,2.09226 z M 395.29668,513.46607 c -0.98817,-1.39367 -3.16541,-4.43117 -4.83829,-6.75 -4.40398,-6.10448 -10.42487,-16.62725 -16.7591,-29.29007 -6.24695,-12.48835 -23.15461,-54.30402 -22.30193,-55.15669 0.30556,-0.30556 0.8337,0.29634 1.17365,1.33756 2.78541,8.5314 6.33032,15.85187 7.54054,15.5717 1.04795,-0.2426 1.10703,-0.0348 0.24093,0.84752 -0.86385,0.87998 -0.82539,1.82466 0.15559,3.82143 0.71671,1.45886 2.30144,5.35248 3.52162,8.65248 2.78727,7.53818 6.87591,16.58038 8.29777,18.35088 0.59668,0.74299 1.18718,2.04794 1.31223,2.8999 0.12504,0.85195 0.74569,1.86937 1.37924,2.26092 0.63354,0.39155 1.133,0.99093 1.10992,1.33195 -0.0231,0.34103 0.69708,2.31572 1.60037,4.3882 0.90328,2.07248 1.55873,4.10565 1.45655,4.51815 -0.17816,0.7193 1.40486,1.14481 3.13856,0.84364 0.45338,-0.0788 0.52352,0.34353 0.15586,0.93842 -1.05399,1.70539 0.40225,5.96794 2.03886,5.96794 0.81452,0 1.48095,0.66088 1.48095,1.46862 0,0.91285 0.58398,1.24452 1.54317,0.87644 1.36571,-0.52407 1.34789,-0.80796 -0.15499,-2.46862 C 386.4542,492.8444 385.9627,492 386.29598,492 c 0.33327,0 -2.29665,-5.9625 -5.84426,-13.25 -3.54762,-7.2875 -6.43256,-13.7 -6.411,-14.25 0.0216,-0.55 4.24822,7.325 9.39255,17.5 5.14434,10.175 9.1498,18.8375 8.90102,19.25 -0.24878,0.4125 0.0301,0.75 0.61969,0.75 0.58961,0 2.06724,2.04847 3.28363,4.55217 1.87926,3.86809 1.99423,4.68651 0.76503,5.4462 -1.22147,0.75491 -1.17861,0.99687 0.27539,1.55482 0.94708,0.36343 1.72197,1.06264 1.72197,1.5538 0,1.7215 -1.92351,0.8692 -3.70332,-1.64092 z m 147.89321,-31.32159 c -3.04491,-4.80372 -7.38826,-9.57313 -10.6852,-11.73336 l -2.66269,-1.74466 2.5451,-1.54428 c 3.82268,-2.31947 4.95156,-6.07601 4.16592,-13.86293 l -0.68195,-6.75925 3.40733,7 c 4.26115,8.75408 5.69733,10.05271 9.60931,8.68899 l 2.92949,-1.02123 -2.52517,4.86715 c -1.70955,3.2951 -2.72976,7.27133 -3.1586,12.3106 L 545.5,485.78895 Z"
       id="path1" />
  </g>
</svg>
