<?xml version="1.0" encoding="UTF-8" standalone="no"?>
<svg
   viewBox="0 0 1434 1024"
   version="1.1"
   id="svg1"
   sodipodi:docname="got.21-30.svg"
   inkscape:version="1.4.4 (dcaf3e7d9e, 2026-05-05)"
   xmlns:inkscape="http://www.inkscape.org/namespaces/inkscape"
   xmlns:sodipodi="http://sodipodi.sourceforge.net/DTD/sodipodi-0.dtd"
   xmlns="http://www.w3.org/2000/svg"
   xmlns:svg="http://www.w3.org/2000/svg">
  <sodipodi:namedview
     id="namedview1"
     pagecolor="#ffffff"
     bordercolor="#000000"
     borderopacity="0.25"
     inkscape:showpageshadow="2"
     inkscape:pageopacity="0.0"
     inkscape:pagecheckerboard="0"
     inkscape:deskcolor="#d1d1d1"
     inkscape:zoom="0.97503396"
     inkscape:cx="723.56454"
     inkscape:cy="563.05731"
     inkscape:window-width="3072"
     inkscape:window-height="1623"
     inkscape:window-x="0"
     inkscape:window-y="0"
     inkscape:window-maximized="1"
     inkscape:current-layer="g1" />
  <defs
     id="defs1">
    <style
       type="text/css"
       id="style1">
      .wolf-avatar { image-rendering: crisp-edges; }
    </style>
  </defs>
  <g
     id="g1"
     transform="matrix(1.7597518,0,0,1.7597518,-552.69503,-413.4053)">
    <path
       style="fill:#dbdbdb"
       d="m 805,723.62212 c 0,-0.20783 0.675,-1.99337 1.5,-3.96788 2.03245,-4.86432 1.94971,-5.22532 -1.52759,-6.66567 -3.51438,-1.4557 -8.34588,-0.82632 -35.39172,4.61036 -9.30563,1.87059 -17.51813,3.40107 -18.25,3.40107 -2.18611,0 -1.54797,-1.85028 2.66931,-7.73965 2.2,-3.07226 4,-6.56793 4,-7.76815 C 758,702.9754 755.11315,700 752.67126,700 751.58187,700 751,699.17865 751,697.64092 c 0,-1.29749 -1.28891,-4.91435 -2.86424,-8.03747 -3.28925,-6.52098 -3.53566,-6.1651 6.36424,-9.19167 4.66104,-1.42496 8.95687,-1.80472 19.25,-1.70176 7.2875,0.0729 13.25,-0.23117 13.25,-0.67572 0,-2.25745 -6.97207,-10.78516 -10.2473,-12.53372 -4.47227,-2.38762 -4.64852,-3.06901 -1.0027,-3.87653 11.01823,-2.44043 40.41932,-1.38827 43.98889,1.57421 2.02643,1.68179 3.26386,-0.70189 2.23204,-4.29961 -1.02383,-3.56989 -1.37397,-4.152 -6.70591,-11.14865 L 810.88311,642 h 10.42745 c 17.42687,0 36.33815,4.50181 48.25932,11.48809 4.23375,2.48114 4.36828,2.49598 5.38616,0.59404 1.59815,-2.98615 1.25054,-7.25406 -0.94092,-11.55247 -1.09168,-2.14128 -1.77677,-4.10134 -1.52242,-4.35569 1.02548,-1.02548 21.49333,-0.17669 28.51126,1.18235 8.64863,1.67483 19.0694,5.14435 20.00682,6.66112 0.3576,0.57861 1.15718,-0.0907 1.8038,-1.50984 0.94965,-2.08425 0.80237,-3.49424 -0.80752,-7.73113 -2.36393,-6.22137 -1.89408,-6.73936 6.13286,-6.76116 5.48316,-0.0149 21.99639,2.92157 28.66319,5.09701 6.94763,2.26708 12.26094,-2.31324 8.80389,-7.58937 -1.92484,-2.93766 -2.48785,-2.59955 8.393,-5.04022 23.46293,-5.26292 41.0559,-22.00601 47.1804,-44.90118 2.4427,-9.13135 4.044,-30.30945 1.843,-32.05336 -2.0299,-1.60836 -1.3818,-2.63531 -4.6811,-0.52819 -0.2404,0.15356 -3.4315,2.62894 -6.9916,5.84208 -10.8799,9.81951 -28.82928,17.65628 -46.28639,20.20884 -9.42062,1.37748 -17.52979,0.43371 -31.78628,-3.6994 C 924.39265,564.77556 922,564.8231 922,567.5756 c 0,0.93196 -0.55952,1.42367 -1.29768,1.14041 -3.93914,-1.51159 -18.01899,-4.99492 -30.99594,-7.66833 -16.79151,-3.45927 -25.15422,-3.92897 -26.09939,-1.46589 -0.95009,2.4759 -0.77116,3.06965 1.87153,6.21031 l 2.47852,2.94555 -22.72852,0.6919 c -22.29463,0.67869 -35.31816,2.09604 -46.18202,5.026 -2.99942,0.80893 -5.58866,1.33563 -5.75385,1.17043 -1.37183,-1.37183 -3.87276,-20.33601 -3.38886,-29.5137 0.91024,-17.26367 2.92176,-22.95598 12.1668,-34.06502 9.33569,-11.21797 25.98995,-17.88919 40.1505,-21.44052 10.51046,-2.63593 18.32779,-5.67612 32.21866,-4.43126 6.64332,0.59535 27.13284,3.12431 29.66601,3.3533 2.53317,0.22899 8.35275,1.99662 12.93238,3.92807 4.57964,1.93145 8.49034,3.34801 8.69043,3.14791 0.81333,-0.81333 -8.78547,-7.02151 -17.22857,-11.14284 -13.33262,-6.50805 -22.72815,-8.50788 -43.08221,-9.16999 -19.15087,-0.62297 -25.73913,0.16983 -39.05857,4.70011 -14.61223,4.97 -27.12321,13.83458 -36.9417,26.17481 l -2.91752,3.66685 -0.0359,-4.16685 c -0.0216,-2.50754 -1.37333,-7.15347 -3.39446,-11.66685 -3.58787,-8.01205 -8.23116,-13.12947 -17.80642,-19.62465 -5.76797,-3.91259 -22.04854,-11.40815 -25.31292,-11.65405 -1.59946,-0.12048 -1.92518,-0.61792 -1.43309,-2.18861 0.35026,-1.11798 0.88145,-10.13269 1.18043,-20.03269 0.59229,-19.61208 -0.75848,-31.54113 -5.22968,-46.18465 -0.71827,-2.35238 -1.13248,-2.17487 13.53203,-5.79919 6.83214,-1.68856 18.84437,-3.3091 30,-4.04723 4.675,-0.30934 9.6968,-0.747 11.15955,-0.97259 1.73678,-0.26785 2.86043,0.11336 3.23854,1.09869 0.31845,0.82986 0.16495,1.25295 -0.34112,0.94018 C 791.19228,386.0008 788,389.62534 788,391.14152 c 0,0.38308 7.9875,0.85957 17.75,1.05887 12.45909,0.25434 18.56972,0.77345 20.5,1.7415 3.27898,1.64443 3.48142,2.69119 0.6917,3.57661 -3.28995,1.04419 -2.0238,4.59919 2.5583,7.18301 14.49369,8.17289 30.45642,8.26832 29.26857,0.17498 C 858.38681,402.27544 858.62242,402 861.22904,402 c 3.46537,0 43.39706,10.20304 53.27096,13.61139 3.85,1.32897 7.45,2.97258 8,3.65246 1.89817,2.34642 8.88127,6.1032 11.7016,7.95627 6.17325,4.05608 25.86816,13.85697 37.7813,21.08652 24.54163,13.83844 45.1498,16.87281 79.4452,84.55139 3.2578,6.42899 9.7476,22.0872 10.006,24.14197 0.1038,0.825 0.7236,2.48292 1.3773,3.68426 1.9341,3.55428 1.4606,3.28337 -4.2598,-2.43698 -8.4429,-8.44294 -8.7736,-7.80051 -6.5648,12.75272 1.3272,12.34986 0.7747,49.66205 -0.8293,56 l -0.8857,3.5 -1.568,-3.55537 c -0.8624,-1.95546 -1.864,-4.73484 -2.2258,-6.17641 -0.8154,-3.24875 -3.7231,-5.99668 -5.5834,-5.27667 -1.5044,0.58226 -2.702,2.45883 -9.8972,15.50845 -5.1714,9.37928 -14.1819,23.34436 -22.7344,35.23554 -0.1278,1.12475 -10.11502,10.21881 -7.1085,9.16897 -1.90248,5.62183 -1.69043,-8.07114 -1.71022,-10.40699 -0.0315,-7.68717 -0.46495,-12.41819 -1.20549,-13.15873 -0.87501,-0.87501 -4.03472,1.61879 -12.99015,10.25248 -22.42711,21.62136 -35.38284,32.16439 -54.80773,44.60105 -21.5947,13.82586 -26.76201,15.16033 -20.03727,5.17467 5.68395,-8.44018 4.55308,-11.96445 -2.64479,-8.24229 -5.64683,2.92009 -17.22574,6.47462 -17.58456,5.39817 -0.18753,-0.56258 -10.24804,1.0892 -11.14959,1.0892 -1.18205,0 8.2198,-2.57201 10.00279,-3.76137 C 897.14588,700.93527 905,691.17657 905,686.50495 c 0,-6.47693 -5.60799,-8.12014 -15.31618,-4.48784 -11.61562,4.34596 -21.08451,13.32379 -20.48093,19.41876 0.3555,3.58993 5.58061,7.56413 9.94499,7.56413 5.16372,2.39807 8.99101,-0.53473 14.28919,-0.68211 -0.7845,0.4582 -15.58569,4.21114 -16.06521,4.66671 -0.47953,0.45557 -3.9706,1.77468 -7.75795,2.93135 -7.23271,2.20891 -9.94497,1.68846 -9.37711,-1.79935 0.42943,-2.63759 -3.34681,-2.45153 -14.92635,0.73545 C 834.31504,717.87826 808.06741,724 806.08762,724 805.48943,724 805,723.82996 805,723.62212 Z m 31.7073,-10.12784 c 5.20958,-1.54708 11.37851,-7.03857 12.74563,-11.34596 0.87803,-2.76644 -0.96564,-5.98791 -3.83977,-6.70927 -7.04636,-1.76853 -22.44984,12.26057 -19.50442,17.76413 1.17288,2.19155 3.94287,2.26763 10.59856,0.2911 z M 949.57066,683.5139 c 4.40511,-3.35994 8.66333,-10.6487 8.24981,-14.12114 -0.75402,-6.33168 -6.80448,-5.59581 -13.90183,1.69077 -8.39178,8.61552 -8.98464,16.83798 -1.12207,15.56206 1.86414,-0.30251 4.91248,-1.71177 6.77409,-3.13169 z m -23.20552,-1.58648 c 2.95797,-2.32674 3.39163,-5.05447 1.10525,-6.952 -3.61283,-2.99837 -9.50122,3.87265 -6.45961,7.53757 1.61725,1.94867 2.21582,1.8832 5.35436,-0.58557 z M 830.30801,453.51279 c 2.87861,-0.83684 8.59943,-1.94561 12.71292,-2.46393 l 7.47907,-0.94241 -9.10027,0.31269 c -7.40724,0.25451 -10.10483,0.8054 -14.5,2.96113 -2.96985,1.45664 -4.59554,2.4247 -3.61265,2.15124 0.9829,-0.27346 4.14232,-1.18189 7.02093,-2.01872 z M 828.5,447.92532 c 9.97514,-0.15546 6.47414,-1.67785 -4.19838,-1.82564 -5.17332,-0.0716 -9.5338,0.63084 -15.5,2.49709 -12.00751,3.75597 -11.63514,4.54778 0.85612,1.82049 5.96324,-1.30199 14.44226,-2.42337 18.84226,-2.49194 z m 76.48922,-10.41233 c 1.84899,-2.2279 0.42125,-6.08452 -3.20967,-8.66996 -3.63714,-2.58988 -4.42572,-2.81385 -10.99176,-3.12193 -5.69264,-0.2671 -8.38452,1.76519 -7.42132,5.60288 1.36758,5.44887 18.23113,10.27567 21.62275,6.18901 z M 797,424.41606 c 0,-2.10962 -3.97579,-4.24263 -11.2573,-6.03952 -7.11196,-1.75505 -10.08432,-1.36421 -9.56661,1.25794 0.20245,1.02535 2.19887,2.12897 5.32391,2.94306 2.75,0.71639 6.8,1.9422 9,2.72402 4.35272,1.54683 6.5,1.25431 6.5,-0.8855 z m 27.52718,-7.46004 c 2.02071,-3.26957 -6.90067,-8.83205 -12.08029,-7.53205 -3.64262,0.91424 -2.97256,3.14761 1.80311,6.00989 4.39918,2.63663 9.15323,3.34076 10.27718,1.52216 z m -58.46144,-17.9912 c 4.14798,-2.21994 0.61942,-6.40941 -4.86519,-5.77647 -3.53001,0.40737 -3.65227,3.77109 -0.20055,5.51738 3.03659,1.53625 2.71049,1.51958 5.06574,0.25909 z M 320.0318,717.40499 c -0.0175,-0.60226 0.7932,-1.84163 1.80153,-2.75416 1.56319,-1.41466 1.83334,-1.4375 1.83334,-0.15499 0,0.82729 -0.21801,1.28615 -0.48446,1.0197 -0.26645,-0.26645 -1.07714,0.29605 -1.80153,1.25 -0.72439,0.95395 -1.33138,1.2417 -1.34888,0.63945 z M 326.5,710 c 0.99549,-1.1 2.03498,-2 2.30998,-2 0.275,0 -0.31449,0.9 -1.30998,2 -0.99549,1.1 -2.03498,2 -2.30998,2 -0.275,0 0.31449,-0.9 1.30998,-2 z m 364.11098,-52.58335 c 3.38734,-3.89782 -3.65588,-8.59328 -6.3266,-8.57259 -4.10435,0.0318 -4.66411,-0.26579 -4.85585,-1.84807 -0.30839,-2.54494 0.36174,-6.29561 0.57143,-10.02031 -4.87476,-0.62399 -15.95243,-3.68561 -20.52417,-3.9556 -0.91595,0.76017 -1.49138,0.76375 -1.95588,0.0122 -0.36197,-0.58568 -1.0583,-0.81755 -1.54741,-0.51527 -0.48911,0.30229 -4.70216,0.0758 -9.36233,-0.50329 -12.91161,-1.60445 -19.69485,0.29524 -34.11019,9.55278 -7.52305,4.83132 -14.6691,11.62296 -24.0372,22.84511 l -4.03721,4.8362 -10.46279,-1.65956 c -21.42634,-3.39857 -38.77384,-4.64337 -49.98103,-3.5865 -5.78744,0.54577 -12.53843,1.66114 -15.00219,2.4786 -2.91475,0.96709 -3.4316,1.33047 -1.47958,1.04024 14.80024,-2.20049 27.40424,-2.71383 38.80715,-1.58056 10.13949,1.00771 24.02681,3.07573 30.69285,4.5706 0.825,0.18501 2.6025,0.37081 3.95,0.41289 1.89398,0.0591 2.17996,0.34655 1.26012,1.26639 -1.42597,1.42597 -4.21012,1.9651 -4.21012,0.81526 0,-0.44985 -0.9,-0.58255 -2,-0.29489 -1.1,0.28766 -2,0.0763 -2,-0.46969 0,-0.60393 -1.66442,-0.4716 -4.25,0.33791 -2.3375,0.73184 -9.21159,1.99547 -15.27576,2.80807 -15.60571,2.09117 -38.6576,9.7985 -44.97424,15.037 -1.1,0.91225 0.75104,0.3147 4.11341,-1.3279 12.79691,-6.25156 31.29138,-11.26286 46.63659,-12.63675 4.2625,-0.38162 7.75,-0.99523 7.75,-1.36357 0,-0.36834 0.9,-0.73751 2,-0.82037 1.1,-0.0829 2,0.29794 2,0.84622 0,0.54827 -0.35899,0.775 -0.79775,0.50383 -1.15835,-0.71591 -3.78423,1.12635 -2.8859,2.02469 0.41714,0.41713 1.97911,0.83357 3.47104,0.92542 1.49194,0.0919 3.61261,0.22787 4.71261,0.30226 1.1,0.0744 2.75048,1.4544 3.66774,3.06666 1.59224,2.79868 24.57559,16.29239 26.52706,16.65849 2.31121,0.43359 3.25652,1.08195 2.90669,1.99361 -0.5923,1.54348 7.45357,4.29925 13.33001,4.56563 1.96268,0.089 -0.7065,0.4886 -5.9315,0.88807 -12.49975,0.95565 -45.62625,0.86593 -64.74346,-0.17537 l 2e-5,-3e-5 C 531.08559,704.72131 500,700.01733 500,697.96683 c 0,-0.4771 0.7875,-1.30955 1.75,-1.84989 2.06605,-1.15987 1.16247,-1.60035 -5.25,-2.55928 -3.30797,-0.49467 -18.15309,-3.81227 -23.39155,-5.22757 -0.91469,-0.24712 0.0629,-1.71873 2.85288,-4.29439 6.2455,-5.76582 5.36966,-6.5005 -8.03118,-6.73673 -13.43775,-0.23689 -15.5928,-0.66071 -16.40721,-3.22669 -0.33569,-1.05768 0.12572,-6.11914 1.02538,-11.24767 1.2931,-7.37144 1.49089,-12.49296 0.94423,-24.45058 -0.48616,-10.63451 -0.32681,-16.75556 0.53666,-20.61395 0.67549,-3.01839 1.04119,-6.04887 0.81268,-6.73441 -0.24584,-0.73752 -4.42871,2.26911 -10.24482,7.36395 C 435.93185,625.98024 433,628.05158 433,626.58291 c 0,-0.22941 0.9,-2.51671 2,-5.08291 1.1,-2.5662 2,-5.79969 2,-7.18555 0,-1.38586 1.8,-6.36085 4,-11.05552 2.2,-4.69468 4,-9.14849 4,-9.89735 0,-1.80714 -3.39031,-1.72822 -7.04966,0.1641 -2.27192,1.17485 -2.9665,1.23234 -3.02063,0.25 C 434.89106,593.07406 434.47269,593.4 434,594.5 c -0.47269,1.1 -0.89106,1.39517 -0.92971,0.65593 -0.0387,-0.73924 2.40471,-4.73313 5.42971,-8.87531 3.025,-4.14218 5.5,-7.92485 5.5,-8.40593 0,-1.2868 -3.04057,-1.06932 -8.59107,0.61449 -2.69991,0.81904 -5.22284,1.49404 -5.60652,1.5 -1.07788,0.0167 -12.89123,-11.79336 -18.49429,-18.48918 -6.42571,-7.67891 -11.99429,-16.04563 -16.97185,-25.5 -13.23262,-25.13399 -20.88137,-55.06098 -25.92775,-104.31686 -0.56154,-5.48097 -0.41165,-6.46796 1.06858,-7.03598 2.11083,-0.81 21.63491,3.46689 34.5229,7.56249 24.58049,7.81129 56.02639,22.06297 74.45908,33.7458 10.48983,6.54324 11.61175,14.89019 23.79092,5.47258 3.66833,-1.99011 -18.13966,-21.163 -19.01048,-22.53691 -1.50383,-2.37261 9.34413,-4.34478 19.8625,-10.67116 -11.11744,4.07942 5.91034,-5.15876 20.04852,-9.08195 -29.21664,4.74239 12.9741,-6.65242 25.84715,-7.37891 -50.90106,1.74618 56.92502,-15.00738 60.13056,-6.1802 0.13869,0.38191 -0.54265,1.61533 -0.43802,4.06464 -5.88861,6.73923 -2.95082,3.13692 -0.13092,11.26049 -0.23,0.37216 1.85281,1.48324 4.62849,2.46907 3.62536,1.28762 4.74136,2.09774 3.96261,2.87649 -1.30321,1.30321 -6.67935,3.63852 -4.54005,4.97012 5.98026,3.72239 6.38963,3.93724 6.38963,3.3535 0,-0.29966 -1.85296,-1.77106 -4.11769,-3.26979 -4.89351,-3.23837 -3.16591,-5.04834 1.79861,-1.4662 11.66634,8.41783 11.02759,3.23657 14.78316,6.71707 1.51718,1.40605 2.90894,2.40602 3.09283,2.22213 0.56102,-0.56102 -0.94551,-2.37828 -3.05691,-3.68739 -1.67573,-1.03898 -1.703,-1.14673 -0.16821,-0.66454 1.00748,0.31653 2.51813,0.57551 3.35699,0.57551 0.89529,0 1.30368,0.57726 0.98884,1.39773 -1.29507,3.3749 24.71031,25.05979 18.32238,18.06692 -2.25768,-3.08568 -5.35452,-5.13321 -8.23662,-7.51025 7.13024,4.24884 23.5748,8.13935 36.55086,8.569 5.39783,0.14946 10.02568,0.48319 10.2841,0.74161 0.25842,0.25842 -3.21936,0.54861 -7.7284,0.64486 -20.78757,0.44376 -10.36964,1.72868 -0.86673,1.33193 4.11978,-0.172 8.62179,-0.25075 9.99679,-0.63201 l 2.5,-0.6932 -2.5,1.52357 c -2.38912,1.45601 -2.40135,1.51074 -0.27577,1.23416 1.22333,-0.15919 2.53583,-0.60102 2.91667,-0.98186 0.38084,-0.38084 1.17993,-0.68243 1.77577,-0.6702 0.59583,0.0122 -0.0139,0.86558 -1.35499,1.89635 -1.34107,1.03076 -3.14107,1.66467 -4,1.40869 -0.85892,-0.25598 -0.43668,0.22472 0.93832,1.06821 2.41904,1.48398 2.28952,1.53932 -4,1.70894 l -6.5,0.17531 7.96543,0.75643 c 4.38099,0.41604 8.12257,1.22782 8.31461,1.80395 0.19205,0.57614 0.8826,0.88675 1.53457,0.69024 11.2572,-3.39304 26.62835,9.3827 33.94942,2.06272 1.20918,-1.20918 2.02724,-0.91767 5.82143,2.07438 2.428,1.91469 4.54494,3.83899 4.70432,4.27621 0.15937,0.43722 -2.99063,0.60255 -7,0.3674 l -7.28978,-0.42756 3,2.61772 c 1.65,1.43975 7.275,5.59865 12.5,9.242 10.12961,7.06331 27.23731,23.3443 25.23203,24.01273 -0.66158,0.22053 -2.44694,-0.47298 -3.96745,-1.54113 -5.58214,-3.9214 -19.24928,-8.77638 -22.69305,-8.06127 -1.43313,0.2976 -1.29891,0.83954 0.95263,3.84641 4.87911,6.5159 5.02847,7.38946 0.79208,4.63261 -3.55919,-2.31615 -6.2525,-3.01347 -10.59574,-2.7433 -1.23683,0.0769 1.01022,2.93152 7.36848,9.36069 11.04155,11.1647 20.54338,23.58682 25.89771,33.85715 l 3.96592,7.60715 -3.72631,2.637 c -6.21772,4.40011 -13.02686,13.54087 -19.10626,25.6487 -3.17581,6.325 -6.02653,12.48054 -6.33493,13.67897 -0.3664,1.42383 -2.7656,3.28934 -6.92292,5.38294 -10.89798,9.7904 -19.68408,10.78972 -22.94151,12.71116 -2.96859,1.89898 -8.69114,4.89348 -9.88352,5.8989 -2.56454,2.16241 -10.5078,14.74865 -11.56696,18.32803 -0.40687,1.375 -1.08745,2.72581 -1.5124,3.0018 -0.42494,0.27598 -0.92679,3.40777 -1.11521,6.95952 -0.34164,6.43986 -0.35642,6.46829 -5.34259,10.27622 -7.77498,5.93774 -16.48407,9.85999 -23.25714,10.47415 -3.89499,0.35319 -6.21039,0.14987 -6.66471,-0.58524 -0.47324,-0.76572 0.62469,-1.12645 3.42857,-1.12645 4.67625,0 7.38951,-1.18605 10.99328,-4.80552 l 2.5,-2.51088 -2.5,0.75169 c -4.90202,1.47392 -8.03645,1.78045 -11.52119,1.12671 -1.94391,-0.36468 -3.30989,-1.02631 -3.0355,-1.47028 0.2744,-0.44397 -1.513,-0.72341 -3.97199,-0.62098 -4.29269,0.17883 -4.59279,-0.0786 -2.79473,-1.66587 3.31337,-2.92492 6.55935,-5.93811 10.72929,-9.10484 5.24787,-2.64834 7.67978,-7.46211 12.57384,-7.54455 3.06612,-0.0364 18.32691,1.6114 18.63127,1.26118 z M 581,663.43493 c 0,-0.31079 -3.33826,-2.10744 -7.41836,-3.99256 -7.6711,-3.54427 -18.2165,-6.49041 -22.58164,-6.30879 -1.375,0.0572 -0.025,0.59736 3,1.20034 5.45074,1.0865 5.38357,1.1026 -7.5,1.79744 -7.42482,0.40043 -14.92987,1.37577 -17.5,2.27426 -2.475,0.86523 -3.375,1.34991 -2,1.07706 1.375,-0.27284 6.84898,-1.02125 12.1644,-1.66313 11.16873,-1.34871 21.66048,-0.1949 33.3356,3.66601 7.86246,2.60008 8.5,2.74629 8.5,1.94937 z m 1,-17.49395 C 582,644.87344 582.49727,644 583.10504,644 c 0.68882,0 0.95921,-1.52907 0.71788,-4.05965 -0.3336,-3.49819 -0.14081,-3.99524 1.39397,-3.59388 2.59291,0.67806 3.10596,-0.92411 1.2184,-3.80489 -1.49352,-2.27939 -1.51295,-3.19513 -0.20749,-9.77825 0.79219,-3.99483 1.11381,-7.93833 0.7147,-8.76333 -0.39911,-0.825 -1.7445,-5.325 -2.98977,-10 -1.24526,-4.675 -3.07477,-10.13178 -4.06558,-12.12618 -2.06551,-4.15769 -1.81687,-4.7742 1.65755,-4.11003 4.02737,0.76988 9.86152,8.2799 11.77287,15.15465 0.92534,3.32825 1.68243,6.7066 1.68243,7.50744 0,0.80085 0.46804,1.74535 1.04008,2.09889 1.23969,0.76617 0.62823,-2.37375 -2.17551,-11.1715 -5.32061,-16.69529 -19.50008,-31.54171 -36.08794,-37.78537 -12.74779,-4.79825 -13.38456,-5.28511 -17.23195,-13.17523 -4.57148,-9.37507 -8.93588,-26.40055 -11.55695,-45.08359 -1.14268,-8.14499 -2.74407,-19.44562 -3.55866,-25.11251 -3.99419,-27.78648 -7.55899,8.33888 4.09207,48.80343 4.06582,14.12077 6.21803,19.19655 10.60039,25 1.86894,2.475 4.2637,5.85 5.32168,7.5 1.05798,1.65 2.5375,3.61607 3.28781,4.36905 1.85513,1.86169 1.41853,2.02982 -3.23102,1.24422 -7.06767,-1.19417 -15.12823,2.45489 -21.79012,9.86452 -5.44225,6.05309 -8.79848,12.62866 -9.46528,18.5445 -0.55986,4.96704 -1.65777,4.48282 14.7554,6.50762 15.18689,1.87352 27.3484,4.03758 34.85228,6.20173 l 7.35227,2.12043 -0.54788,3.37622 c -0.39034,2.40534 -0.13218,3.53574 0.89772,3.93096 3.64321,1.39802 0.70914,2.34141 -7.30439,2.34855 -8.97657,0.008 -12.9436,0.79802 -36.75,7.31852 -7.15,1.95837 -15.59356,4.06926 -18.76347,4.69087 -3.58451,0.70291 -5.51618,1.53032 -5.10937,2.18855 0.75981,1.22941 11.7496,0.5022 23.58909,-1.56092 4.24394,-0.73954 7.51532,-1.01951 7.26975,-0.62216 -0.24558,0.39735 3.68742,1.04585 8.74001,1.44111 5.05258,0.39526 11.57384,1.61186 14.49168,2.70356 4.01211,1.50112 6.97228,1.88127 12.14509,1.55968 3.76196,-0.23389 7.35682,-0.7447 7.98858,-1.13514 C 578.48311,636.20142 579,636.38508 579,637 c 0,0.61492 0.5625,0.80046 1.25,0.41231 0.9938,-0.56107 0.99658,-0.43248 0.0136,0.62742 -0.68004,0.73322 -2.10129,1.46512 -3.15833,1.62644 -1.05704,0.16131 -4.50484,1.2597 -7.66178,2.44087 -6.65853,2.49127 -6.21423,3.0552 4.08201,5.18107 7.71589,1.59311 8.47453,1.47251 8.47453,-1.34713 z m -40.6256,-68.49233 c -2.1822,-3.33045 -0.65055,-5.19945 2.76824,-3.37795 2.75462,1.46764 4.88234,4.07987 4.20967,5.16827 -1.08447,1.75471 -5.37669,0.65345 -6.97791,-1.79032 z M 567.87244,577.25 c -1.24387,-1.58606 -1.2085,-1.62143 0.37756,-0.37756 1.66575,1.30637 2.19548,2.12756 1.37244,2.12756 -0.20765,0 -0.99515,-0.7875 -1.75,-1.75 z m -20.45147,65.91998 c 6.47729,-1.82688 8.54962,-4.09666 3.91236,-4.28513 -4.4511,-0.18091 -6.22428,0.0708 -16.06747,2.28097 -5.07878,1.14037 -10.4004,1.85045 -11.82582,1.57797 -2.94371,-0.56273 -2.00333,0.80633 1.05996,1.54314 4.47731,1.07694 17.37,0.44867 22.92097,-1.11695 z m 140.32672,-23.5542 c 6.22564,-4.4334 16.15581,-9.43762 24.25231,-12.22172 8.07997,-2.77843 5.54672,-3.1244 -2.96565,-0.40503 -6.21983,1.98699 -18.86757,8.98347 -24.53435,13.57191 -4.4449,3.59908 -2.22733,2.95371 3.24769,-0.94516 z m -78.22227,-11.9859 c -1.72333,-9.43554 -4.28707,-17.00578 -4.4442,-13.12285 -0.0447,1.10387 1.03819,6.05387 2.40636,11 1.36816,4.94613 2.54537,10.34297 2.616,11.99297 0.0827,1.93193 0.29948,2.3342 0.60888,1.12988 0.26425,-1.02856 -0.26992,-5.97856 -1.18704,-11 z m -8.22997,-6.42533 c -3.06451,-8.94382 -5.71319,-16.12014 -5.88595,-15.94738 -0.40994,0.40994 7.92684,26.41623 9.61608,29.99706 2.75997,5.85052 1.62937,1.59206 -3.73013,-14.04968 z m 86.94329,7.98576 c 8.69278,-5.95925 20.96992,-11.06295 37.76126,-15.69763 8.04513,-2.22058 8.25919,-2.34913 4,-2.40204 -10.55844,-0.13118 -25.34434,4.86949 -35.78836,12.10383 C 686.74924,608.36351 679,615.04855 679,616.3171 c 0,0.63936 1.11993,-0.0453 2.48874,-1.52153 1.36881,-1.4762 4.40631,-3.99856 6.75,-5.60526 z m -31.69388,2.04438 C 657.59617,610.49547 666.29777,597 665.72309,597 c -0.16932,0 1.73621,-2.25603 4.23452,-5.01339 l 4.54239,-5.01339 2.02016,2.49157 2.02017,2.49157 3.97983,-7.45355 c 3.79973,-7.11622 4.33054,-7.64258 11.72893,-11.63059 C 701.51016,568.95823 712,559.61397 712,557.05986 c 0,-1.60625 -0.6276,-1.32573 -4.35414,1.94621 -4.81703,4.22941 -14.86195,10.12499 -16.30653,9.57065 -0.66556,-0.2554 -1.35317,-0.0352 -1.52803,0.48937 -0.17485,0.52455 -1.21642,1.1413 -2.3146,1.37056 -1.09819,0.22925 -3.7941,1.30843 -5.99093,2.39816 -2.19683,1.08974 -4.33433,1.77115 -4.75,1.51425 -0.41567,-0.2569 -0.75577,-0.0888 -0.75577,0.37361 0,0.46238 -2.0215,1.43758 -4.49222,2.16709 -2.47072,0.72952 -4.26419,1.69536 -3.98548,2.14632 0.27871,0.45096 -0.44422,1.12175 -1.6065,1.49064 -1.16228,0.3689 -2.98523,1.54271 -4.05099,2.60847 -1.06577,1.06577 -2.44087,1.62682 -3.05579,1.24678 -0.73088,-0.45171 -0.83459,-0.23236 -0.29948,0.63346 0.59931,0.96971 0.35895,1.14808 -0.89743,0.66596 -1.01928,-0.39113 -1.46793,-0.25712 -1.10503,0.33006 0.33602,0.5437 -0.043,0.98855 -0.84231,0.98855 -0.79929,0 -2.89844,1.35 -4.66477,3 -1.76633,1.65 -3.52699,2.79671 -3.71516,3 -5.42194,5.85733 8.77207,-15.75299 -6.94328,2 -0.23098,0.26093 0.55277,1.09949 2.00278,2.44332 1.49586,1.38631 1.46751,3.02149 2.07785,3.89885 1.82255,2.61992 4.04809,2.68135 5.38983,4.20171 2.57604,2.91897 2.21373,0.94519 6.73284,5.69081 z m -41.4004,-7.91195 C 614.05892,600.67023 611.7554,594.675 610.02552,590 608.29564,585.325 605.56585,579.44904 603.95931,576.94232 600.79678,572.00773 596,567.02274 596,568.6707 c 0,0.56063 0.89486,1.82916 1.98857,2.81896 4.86398,4.40184 8.98952,12.62971 15.53026,30.97314 1.56162,4.37954 3.01031,7.44977 3.21932,6.82274 0.20902,-0.62704 -0.50814,-3.3103 -1.59369,-5.9628 z M 636,608.62244 c 0,-0.20765 -0.7875,-0.99515 -1.75,-1.75 -1.58606,-1.24387 -1.62143,-1.2085 -0.37756,0.37756 1.30637,1.66575 2.12756,2.19548 2.12756,1.37244 z m 59.06239,-16.37374 c 11.18777,-8.11488 31.73605,-16.38483 44.41342,-17.8748 8.59384,-1.01004 6.49612,-2.06807 -2.39598,-1.20846 -12.39413,1.19815 -26.74354,6.75317 -39.56923,15.31825 -8.32786,5.5614 -12.2396,9.23991 -17.03178,16.01631 -2.24307,3.17181 -1.602,2.73528 3.09621,-2.10835 3.25874,-3.35959 8.42805,-7.92392 11.48736,-10.14295 z m -74.03442,6.97268 C 620.39119,596.62462 618.98566,592.925 617.90457,591 l -1.96561,-3.5 0.63941,3.384 c 0.35167,1.86121 1.48052,5.23621 2.50856,7.5 1.02803,2.2638 1.91456,5.016 1.97006,6.116 0.0568,1.12665 0.32532,1.44165 0.61483,0.72138 0.28266,-0.70325 -0.007,-3.40325 -0.64385,-6 z M 632.36163,603.5 c -0.31659,-0.825 -1.03256,-1.5 -1.59106,-1.5 -0.58531,0 -0.48812,0.63541 0.22943,1.5 0.68469,0.825 1.40067,1.5 1.59106,1.5 0.19039,0 0.0872,-0.675 -0.22943,-1.5 z M 631,600.65364 c 0,-0.1905 -0.71339,-1.77638 -1.5853,-3.52417 -2.83083,-5.67453 -3.68192,-16.64288 -3.02201,-38.94572 0.41112,-13.89489 0.28793,-21.10439 -0.35386,-20.70775 -0.54151,0.33467 -1.89678,3.56189 -3.0117,7.17158 -2.74215,8.87804 -2.79822,24.01939 -0.11887,32.09844 1.04954,3.16469 2.18723,7.77898 2.5282,10.25398 0.82006,5.9525 3.48947,14 4.64391,14 0.5058,0 0.91963,-0.15586 0.91963,-0.34636 z m -36,-32.99865 c 0,-0.18976 -1.0125,-1.20226 -2.25,-2.25 L 590.5,563.5 l 1.90499,2.25 C 594.19521,567.86444 595,568.45524 595,567.65499 Z M 443.80902,553.01365 c 151.48727,-93.40338 0,0 0,0 z m 97.84065,-13.60766 C 540.89524,537.2577 539.34645,530.55 538.20791,524.5 c -6.25128,-33.21821 -7.52432,-39.51692 -7.90908,-39.13216 -0.5457,0.5457 1.23883,14.05404 3.75373,28.41453 1.88393,10.75758 7.61575,30.88266 8.53411,29.96429 0.23908,-0.23907 -0.18257,-2.19238 -0.937,-4.34067 z M 725,515.96357 c -3.575,-3.27218 -8.8409,-7.6401 -11.70201,-9.7065 -2.86111,-2.06639 -5.22361,-4.04211 -5.25,-4.39049 -0.0264,-0.34839 1.07701,-0.84848 2.45201,-1.11133 1.375,-0.26285 2.5,-0.0903 2.5,0.38342 0,0.47373 0.49764,0.86133 1.10588,0.86133 0.60823,0 4.02138,3.0375 7.58477,6.75 5.64048,5.87651 5.98265,6.1059 2.64412,1.77262 -2.10912,-2.73755 -5.07227,-6.04006 -6.58477,-7.33889 -1.5125,-1.29883 -2.75,-2.77152 -2.75,-3.27262 0,-2.21491 3.0718,-0.49604 8.38625,4.69265 3.15676,3.08206 5.95581,5.38751 6.22011,5.12322 0.26429,-0.2643 -2.3157,-3.01099 -5.73333,-6.10376 L 717.65917,498 h 3.1114 c 1.71127,0 3.36306,-0.40719 3.67064,-0.90487 0.31821,-0.51489 -1.18193,-0.67134 -3.48071,-0.36301 -3.31945,0.44523 -4.50292,0.11617 -6.63594,-1.84512 l -1.37926,-0.0514 c 0.66921,1.2846 0.92795,2.62443 0.57499,2.97739 -0.74468,0.74468 -10.77763,-4.48377 -13.55336,-7.06304 C 697.88261,488.81321 696,488.45728 696,490 c 0,0.55 0.42589,1 0.94642,1 0.52054,0 3.72401,1.6279 7.11883,3.61755 4.30277,2.52178 5.77569,3.86272 4.86271,4.42697 -1.31467,0.81251 -6.85743,-1.44152 -8.03976,-3.26946 -0.3365,-0.52024 -0.90205,-0.90141 -1.2568,-0.84707 -0.35474,0.0543 -3.00443,-1.12121 -5.88819,-2.61236 -2.88377,-1.49115 -5.80571,-2.60246 -6.49321,-2.46957 -0.6875,0.13289 -1.25,-0.22811 -1.25,-0.80222 0,-0.57411 -0.75705,-0.58746 -1.32569,-1.04384 -7.62321,-6.11818 -13.1559,-8.51787 -3.54739,-1.19463 1.85519,1.62823 6.15625,4.13147 9.5579,5.56277 3.40165,1.4313 8.20692,3.82375 10.67837,5.31656 l 4.49356,2.71421 -3.67838,1.64833 -3.67837,1.64833 3.1517,-0.0978 c 1.73343,-0.0538 2.94437,-0.43528 2.69098,-0.84778 -2.47585,-4.03047 12.84606,6.81221 20.65732,14.61833 2.475,2.47337 4.95,4.50775 5.5,4.52085 0.55,0.0131 -1.925,-2.65343 -5.5,-5.92561 z m -91.33681,-3.34878 c -0.36708,-3.21844 -2.35586,-8.63543 -5.36412,-14.61062 -3.9958,-7.93671 -6.50607,-11.28164 -15.28886,-20.37238 C 603.3007,467.58184 584.3488,452 581.83474,452 c -0.75588,0 -0.74564,0.40244 0.0341,1.34201 0.61257,0.7381 0.88922,1.56655 0.61478,1.841 -0.48108,0.48108 3.64742,5.38143 19.40816,23.03666 11.47433,12.85357 12.48963,14.04668 15.11245,17.75913 1.35177,1.91334 3.91858,6.18834 5.70403,9.5 4.06657,7.54269 4.13423,6.84294 0.25055,-2.59126 -5.53176,-13.4377 -11.99978,-21.32753 -35.95885,-43.86337 -2.98461,-2.80732 -3.48974,-3.56068 -1.5,-2.23713 1.65,1.09755 8.51703,7.0176 15.26006,13.15566 16.5307,15.04761 25.82892,28.41554 29.86686,42.93921 1.99872,7.18898 3.86792,7.02454 3.03627,-0.26712 z m -83.517,-6.37683 c -4.07702,-11.17131 -5.43987,-13.15236 -4.7113,-6.84839 0.31081,2.68927 0.57533,6.73927 0.58782,9 0.02,3.62265 0.40569,4.30136 3.25,5.71933 1.77501,0.8849 3.35713,1.28287 3.51583,0.88439 0.15869,-0.39848 -1.03036,-4.33838 -2.64235,-8.75533 z m 50.29065,-14.13577 c 0.56918,-0.92094 -10.50185,-16.37051 -11.21787,-15.65449 -0.64358,0.64358 2.01616,11.92869 3.16153,13.41416 1.91586,2.48475 7.02688,3.90603 8.05634,2.24033 z m 109.1235,-7.42719 c -1.05765,-0.64625 -4.0642,-2.3647 -6.68123,-3.81877 -2.61703,-1.45407 -4.44793,-2.98872 -4.06867,-3.41033 0.37926,-0.4216 0.10521,-0.42934 -0.609,-0.0172 -0.99533,0.57437 -1.02725,1.07626 -0.13669,2.14932 0.63902,0.76998 1.56088,1.15336 2.04856,0.85195 C 700.60099,480.12857 701,480.38508 701,481 c 0,0.61492 0.3375,0.91084 0.75,0.6576 0.4125,-0.25324 2.55,0.80291 4.75,2.347 2.2,1.54409 4.22125,2.59097 4.49167,2.32641 0.27042,-0.26456 -0.37368,-1.00976 -1.43133,-1.65601 z M 701,485.52568 c 0,-0.68414 -5.06998,-3.16251 -8,-3.91066 -1.375,-0.35109 -0.25,0.45445 2.5,1.79009 5.91308,2.8719 5.5,2.71263 5.5,2.12057 z M 529.68311,481.8125 c -0.31922,-0.79773 -0.55618,-0.56078 -0.60416,0.60417 -0.0434,1.05416 0.19293,1.64479 0.52522,1.3125 0.33229,-0.33229 0.36781,-1.1948 0.0789,-1.91667 z M 663,472.62244 c 0,-0.20765 -0.7875,-0.99515 -1.75,-1.75 -1.58606,-1.24387 -1.62143,-1.2085 -0.37756,0.37756 1.30637,1.66575 2.12756,2.19548 2.12756,1.37244 z M 691,470 c 0,-0.55 -0.19844,-1 -0.44098,-1 -0.24254,0 -0.7191,0.45 -1.05902,1 -0.33992,0.55 -0.14148,1 0.44098,1 0.58246,0 1.05902,-0.45 1.05902,-1 z m -47,-7.44098 c 0,-0.24254 -0.45,-0.7191 -1,-1.05902 -0.55,-0.33992 -1,-0.14148 -1,0.44098 0,0.58246 0.45,1.05902 1,1.05902 0.55,0 1,-0.19844 1,-0.44098 z m -3.55,-3.36419 c -0.5225,-0.44284 -2.64593,-2.04718 -4.71873,-3.56518 -2.07281,-1.51801 -3.50875,-3.18068 -3.19099,-3.69483 0.31777,-0.51415 -0.4388,-0.93482 -1.68126,-0.93482 -1.34809,0 -1.87594,0.35286 -1.30902,0.87507 2.12701,1.95925 10.64643,8.12493 11.2266,8.12493 0.34287,0 0.1959,-0.36233 -0.3266,-0.80517 z M 629,447.60699 c 0,-0.21616 -0.69837,-0.661 -1.55194,-0.98855 -0.88992,-0.34149 -1.29132,-0.17385 -0.94098,0.39301 0.58726,0.95021 2.49292,1.40545 2.49292,0.59554 z m -230,-13.5 c 0,-0.49116 -0.73865,-1.17646 -1.64144,-1.52289 -1.37248,-0.52667 -1.43434,-0.38034 -0.37756,0.89301 1.44013,1.73524 2.019,1.91584 2.019,0.62988 z m 239.8125,272.2099 c 0.72187,-0.28887 1.58438,-0.25335 1.91667,0.0789 0.33229,0.33229 -0.25834,0.56864 -1.3125,0.52522 -1.16495,-0.048 -1.4019,-0.28494 -0.60417,-0.60416 z M 642.5,705.2358 c -1.65,-0.22702 -3.48321,-0.81225 -4.07379,-1.30049 -0.64519,-0.53339 -1.63119,-0.39828 -2.47024,0.33848 -0.76805,0.67442 0.86993,-1.24879 3.63996,-4.27379 2.77002,-3.025 5.87187,-6.77716 6.893,-8.33814 2.04704,-3.12928 1.96202,-3.129 13.3944,-0.043 4.99733,1.34897 7.22289,1.49902 10.25,0.69103 C 672.26,691.74229 674,691.47711 674,691.72063 c 0,0.24353 -1.62632,2.42748 -3.61404,4.85324 -3.53434,4.31319 -7.47615,6.21154 -14.38596,6.92816 -1.375,0.14261 -3.175,0.5004 -4,0.7951 -2.76662,0.98828 -6.47583,1.35478 -9.5,0.93867 z m -45.12269,-17.04451 c -1.36854,-1.20939 -1.53995,-3.33675 -2.1377,-5.09453 -0.37274,-1.68892 0.3119,-6.74834 5.25127,-11.44477 1.60987,-1.53069 2.48645,-2.32551 5.57735,-2.99079 5.20784,-1.12094 4.06904,-0.5767 5.91172,-0.62876 0.78205,-0.0221 12.01428,2.81699 17.3079,8.33884 2.63171,2.77074 4.25091,3.72114 5.69594,3.34326 1.11043,-0.29039 1.76679,-0.11994 1.45857,0.37877 -0.30822,0.49871 -1.46039,0.90674 -2.56039,0.90674 -1.1,0 -1.73404,0.43035 -1.40896,0.95633 0.32507,0.52598 1.36413,0.68392 2.30902,0.35098 2.69654,-0.95014 6.21982,-4.4953 5.54795,-5.5824 -0.3346,-0.54141 0.0168,-0.77599 0.78082,-0.52131 1.42152,0.47384 1.98485,3.7787 0.65086,3.81833 -0.40608,0.0121 -2.77659,1.10569 -5.26779,2.43027 -2.49119,1.32458 -7.00239,2.71731 -10.02487,3.09494 -5.47524,0.68409 -7.43119,1.74016 -5.469,2.95286 0.56794,0.35101 0.77373,1.0571 0.45729,1.5691 -0.80031,1.29494 10.52637,1.18116 14.3275,-0.14392 3.49723,-1.21914 6.58689,-5.1535 5.16425,-6.57614 -0.56063,-0.56063 -0.1886,-0.92047 0.95163,-0.92047 4.88114,0 -3.11383,9.14094 -10.84919,11.72558 -12.29228,4.10726 -25.18971,1.53486 -33.67417,-5.96291 z M 675,689.60032 c 0,-0.32066 1.52883,-2.58588 3.39739,-5.03384 1.86856,-2.44795 3.56619,-4.81434 3.7725,-5.25865 0.20631,-0.44431 3.06498,-3.28283 6.35261,-6.30783 l 5.9775,-5.5 -5.09543,5.5 c -2.80249,3.025 -7.18999,8.12875 -9.75,11.34167 C 677.09456,687.55459 675,689.92098 675,689.60032 Z M 577,677 c 0,-0.55 0.45,-1 1,-1 0.55,0 1,0.45 1,1 0,0.55 -0.45,1 -1,1 -0.55,0 -1,-0.45 -1,-1 z m -2.88572,-0.92937 c -0.85973,-0.53135 -0.96201,-1.0467 -0.29014,-1.46194 0.57071,-0.35272 1.33882,-0.15403 1.7069,0.44153 0.91846,1.4861 0.188,2.0122 -1.41676,1.02041 z M 698,660.5 c 1.86578,-1.925 3.61733,-3.5 3.89233,-3.5 0.275,0 -1.02655,1.575 -2.89233,3.5 -1.86578,1.925 -3.61733,3.5 -3.89233,3.5 -0.275,0 1.02655,-1.575 2.89233,-3.5 z m -85,-4.27216 c 0,-2.65577 5.56767,-8.89017 10.54372,-11.80633 5.8785,-3.44503 8.728,-1.67607 4.70628,2.92164 -1.26453,1.44564 -1.33389,1.77134 -0.25,1.17408 0.825,-0.4546 0.17831,0.59304 -1.43709,2.32811 -1.6154,1.73506 -3.5279,3.15466 -4.25,3.15466 C 621.59081,654 621,654.37777 621,654.83948 621,655.83739 616.52012,658 614.45295,658 613.65383,658 613,657.20253 613,656.22784 Z m 43.116,-9.8554 c -0.11644,-2.13554 -2.37187,-4.78324 -3.29134,-3.86376 -0.27023,0.27022 -0.49133,-0.21095 -0.49133,-1.06929 0,-1.17535 0.60024,-0.96036 2.43152,0.87092 1.47463,1.47463 2.24176,3.171 1.94934,4.3106 -0.42411,1.65276 -0.49616,1.62283 -0.59819,-0.24847 z m -16.84697,-12.06543 c 0.97297,-0.25354 2.32297,-0.23687 3,0.0371 0.67703,0.27393 -0.11903,0.48137 -1.76903,0.46099 -1.65,-0.0204 -2.20394,-0.2445 -1.23097,-0.49804 z M 775,600.62244 c 0,-0.20765 0.7875,-0.99515 1.75,-1.75 1.58606,-1.24387 1.62143,-1.2085 0.37756,0.37756 C 775.82119,600.91575 775,601.44548 775,600.62244 Z m 12.4497,-4.03886 c -0.36975,-1.97097 -1.1847,-3.59726 -1.81099,-3.61399 -0.62629,-0.0167 -0.46371,-0.41605 0.36129,-0.8874 3.24769,-1.85549 9.85147,-2.08683 18.11138,-0.63446 14.46671,2.54372 14.48276,2.92343 0.22322,5.2809 -7.05903,1.16704 -13.59465,2.41814 -14.52361,2.78022 -1.33554,0.52055 -1.82969,-0.0916 -2.36129,-2.92527 z M 766.45295,483.75 762.5,479.5 l 4.25,3.95295 c 2.3375,2.17412 4.25,4.08662 4.25,4.25 0,0.75658 -0.87085,-4.9e-4 -4.54705,-3.95295 z M 729.45,474.10108 c -0.79613,-0.75333 -10.68075,-4.15136 -20.38821,-7.00884 -2.42768,-0.71461 -2.43707,-0.76909 -2.17391,-12.6192 0.16499,-7.42956 0.7963,-13.17474 1.68016,-15.29011 1.31774,-3.15382 1.20227,-3.98784 -1.66646,-12.03578 C 705.20631,422.39122 700.06079,407.475 695.46709,394 c -11.36757,-33.3452 -11.69564,-34.0582 -14.14932,-30.75 -1.4213,1.91628 -7.9457,16.44596 -10.75646,23.95435 -2.26384,6.04743 -2.35831,6.85579 -0.96411,8.25 2.15216,2.15216 5.36704,1.92787 8.01432,-0.55912 3.14698,-2.95643 4.38848,-1.64008 4.38848,4.65306 0,2.98994 0.88939,7.77094 1.97909,10.6388 l 1.97909,5.20855 -2.53132,4.31937 c -1.39222,2.37566 -3.54385,7.01277 -4.78139,10.3047 l -2.25007,5.98534 -3.39198,-2.50253 C 671.13783,432.12614 668.83186,431 667.87904,431 c -0.95281,0 -1.90055,-0.7875 -2.10607,-1.75 -0.24952,-1.16854 -1.08586,-0.17174 -2.51709,3 -2.24138,4.96709 -4.04221,5.82082 -6.691,3.17202 -2.51942,-2.51942 -3.40338,-4.72388 -4.14946,-10.34809 l -0.69936,-5.27202 -2.89048,5.34904 c -4.50984,8.34577 -6.47659,10.58929 -7.97425,9.09639 -0.99088,-0.98773 -1.01334,-2.67305 -0.1062,-7.96888 0.63274,-3.69393 1.00026,-6.8664 0.81672,-7.04994 -0.18354,-0.18355 -1.25696,1.16013 -2.38538,2.98594 -1.12841,1.82581 -3.18187,4.38144 -4.56324,5.67917 l -2.51159,2.35951 -0.68617,-2.7339 c -0.46242,-1.84242 -0.23442,-3.05173 0.69918,-3.70856 1.54592,-1.08761 -7.14479,-0.47123 -10.61465,0.75284 -1.80184,0.63564 -1.83871,0.56837 -0.37211,-0.67899 0.89534,-0.76149 2.43533,-3.63453 3.42219,-6.38453 0.98687,-2.75 2.22192,-5.5625 2.74456,-6.25 0.52264,-0.6875 0.70381,-1.25 0.4026,-1.25 -0.71393,0 5.99371,-15.44083 11.24313,-25.88141 4.74367,-9.43469 17.43044,-29.30513 23.38005,-36.61859 2.23716,-2.75 7.28048,-8.375 11.20736,-12.5 6.72548,-7.48992 10.70178,-8.54659 10.2605,-15.44239 -0.006,-1.94657 7.27484,8.4415 8.52074,8.46153 2.63312,0.0423 25.59485,38.23318 27.94598,46.48086 0.31357,1.1 1.56338,4.7 2.77736,8 8.43154,22.91981 10.88544,42.65744 8.82713,71 -0.63908,8.8 -1.2064,17.2375 -1.26072,18.75 -0.0543,1.5125 -0.12127,2.75 -0.14877,2.75 -0.0275,0 -0.4775,-0.40451 -1,-0.89892 z M 632.68311,425.8125 c -0.31922,-0.79773 -0.55618,-0.56078 -0.60416,0.60417 -0.0434,1.05416 0.19293,1.64479 0.52522,1.3125 0.33229,-0.33229 0.36781,-1.1948 0.0789,-1.91667 z M 699.5,470 c 0.33992,-0.55 0.81648,-1 1.05902,-1 0.24254,0 0.44098,0.45 0.44098,1 0,0.55 -0.47656,1 -1.05902,1 -0.58246,0 -0.7809,-0.45 -0.44098,-1 z M 370.75,417.33772 c 0.6875,-0.27741 1.8125,-0.27741 2.5,0 0.6875,0.27741 0.125,0.50439 -1.25,0.50439 -1.375,0 -1.9375,-0.22698 -1.25,-0.50439 z"
       id="path7"
       sodipodi:nodetypes="sssssssssssssssssscsssssssssssssssssssssssscsssssssssssssscssssssssssssssssssssssssssssscsssssssssssssssssssssssssssssssssssssssssscssssssssssssssssssssssssssssssssssssssssssccssssscssssssssssssssssssssssssssssssssssssssssssssssssssssssssssssssscccsssssssssssssssssssssscsssssssscssscssscsssssssssscsssssssssssssscsssssscsssssssssssssssssssssssssssssssssssssscsssssssssssssssssssssssssssssssssssssssssssssssssssssssscsscccssssssssssssssssssssssssscssssssssssssssssssssscssssssssssssssssssssscssccssssssssssssssssssscsssssssssssssssssssscccssssssssssssssssssssssssssssssssssssssssssssssssssssssssssssssssssssssssssssssssssssssssssssssssssssssssssssssssssssssssssssscssssssssssssssssssssssssssssssssssssssssssssssssscssssssssssssssscsscsssssscsssssscssssssssssssssssssssssssssssssss" />
    <path
       style="fill:#989a99"
       d="m 721.78919,748.25859 c 3.45905,-0.19583 8.85905,-0.19422 12,0.004 3.14094,0.19781 0.31081,0.35803 -6.28919,0.35606 -6.6,-0.002 -9.16987,-0.16382 -5.71081,-0.35965 z m -72.97669,-0.9417 c 0.72187,-0.28887 1.58438,-0.25335 1.91667,0.0789 0.33229,0.33229 -0.25834,0.56864 -1.3125,0.52522 -1.16495,-0.048 -1.4019,-0.28494 -0.60417,-0.60416 z m 168.94916,-5.02415 c 1.24391,-0.23919 3.04391,-0.23011 4,0.0202 0.95609,0.25029 -0.0617,0.446 -2.26166,0.4349 -2.2,-0.0111 -2.98225,-0.21589 -1.73834,-0.45508 z m 36.00679,-22.46119 c 0.5811,-0.5811 1.64682,-0.85979 2.36826,-0.61931 0.74895,0.24965 0.29565,0.70294 -1.05655,1.05655 -1.66335,0.43497 -2.05378,0.30483 -1.31171,-0.43724 z M 636.75,714.33772 c 0.6875,-0.27741 1.8125,-0.27741 2.5,0 0.6875,0.27741 0.125,0.50439 -1.25,0.50439 -1.375,0 -1.9375,-0.22698 -1.25,-0.50439 z m -17.00583,-7.39197 -10.24417,-0.55426 8.5,-0.3205 c 8.16208,-0.30776 8.29733,-0.35022 3.40211,-1.06799 -14.88172,-2.18207 -16.01346,-5.54401 -2.08985,-6.20809 11.5245,-0.54965 18.03716,-3.18722 23.96717,-9.70647 4.1616,-4.57513 4.26947,-4.62292 7.72057,-3.42064 4.43905,1.54646 14.30197,1.65339 19.5,0.21141 2.2,-0.6103 29.06722,-25.95908 31.2464,-27.68321 3.9033,-3.08824 -9.06326,10.81646 -12.62957,15.97471 -1.22959,6.12622 -13.52507,15.85599 -15.95317,16.84949 -4.13499,1.69191 -9.44832,2.96218 -18.03578,-0.61538 -5.15751,-2.14862 -6.61899,-1.74666 -9.67316,2.66051 -1.5495,2.23593 -5.21392,6.25573 -8.14315,8.93288 l -5.32588,4.86755 2.75715,0.44108 c 3.26582,0.52245 -0.21854,0.43857 -14.99867,-0.3611 z m 22.06833,-0.62888 c 0.72187,-0.28887 1.58438,-0.25335 1.91667,0.0789 0.33229,0.33229 -0.25834,0.56864 -1.3125,0.52522 -1.16495,-0.048 -1.4019,-0.28494 -0.60417,-0.60416 z m -30.47917,-15.86086 c 0,-0.8008 0.375,-1.45601 0.83334,-1.45601 0.45833,0 0.83333,0.42344 0.83333,0.94098 0,0.51754 -0.375,1.17275 -0.83333,1.45601 -0.45834,0.28327 -0.83334,-0.14017 -0.83334,-0.94098 z m 9.82053,-0.63161 c -1.34468,-3.31867 0.0401,-3.15336 5.31514,-4.27726 2.97911,-0.63472 7.39965,-1.99938 10.01321,-3.08874 2.97187,-1.2387 8.92367,-4.13571 7.30291,-0.60547 -3.41345,7.43494 -10.52985,8.71945 -11.49671,8.79608 -5.29606,0.41973 -10.53374,0.65819 -11.13455,-0.82461 z M 955,689.62244 c 0,-0.20765 0.7875,-0.99515 1.75,-1.75 1.58606,-1.24387 1.62143,-1.2085 0.37756,0.37756 C 955.82119,689.91575 955,690.44548 955,689.62244 Z M 613.5,683 c -0.33992,-0.55 -0.14148,-1 0.44098,-1 0.58246,0 1.05902,0.45 1.05902,1 0,0.55 -0.19844,1 -0.44098,1 -0.24254,0 -0.7191,-0.45 -1.05902,-1 z m 40.95787,-0.0682 c -0.3631,-0.5875 -1.25241,-0.84091 -1.97626,-0.56315 -0.72385,0.27777 -1.57516,-0.17007 -1.89179,-0.9952 -0.31663,-0.82514 -0.98504,-1.24726 -1.48535,-0.93805 -0.5003,0.30921 -1.36632,-0.74781 -1.92447,-2.34894 -0.92482,-2.65294 -0.79151,-2.96718 1.50316,-3.54311 1.44337,-0.36226 4.36803,0.0746 6.85284,1.02352 4.23196,1.6162 8.98564,1.57953 14.464,-0.11158 l 2.5,-0.77172 -2.5,2.51088 C 666.39623,680.81395 663.68297,682 659.00672,682 c -2.49519,0 -3.88059,0.39507 -3.50672,1 0.33992,0.55 0.39303,1 0.11803,1 -0.275,0 -0.79707,-0.48068 -1.16016,-1.06817 z M 951,681.5 c 1.29175,-1.375 2.57363,-2.5 2.84863,-2.5 0.275,0 -0.55688,1.125 -1.84863,2.5 -1.29175,1.375 -2.57363,2.5 -2.84863,2.5 -0.275,0 0.55688,-1.125 1.84863,-2.5 z m 14,-1 c 1.29175,-1.375 2.57363,-2.5 2.84863,-2.5 0.275,0 -0.55688,1.125 -1.84863,2.5 -1.29175,1.375 -2.57363,2.5 -2.84863,2.5 -0.275,0 0.55688,-1.125 1.84863,-2.5 z m 6,-4.87756 c 0,-0.20765 0.7875,-0.99515 1.75,-1.75 1.58606,-1.24387 1.62143,-1.2085 0.37756,0.37756 C 971.82119,675.91575 971,676.44548 971,675.62244 Z m -46.1875,-1.30555 c 0.72187,-0.28887 1.58438,-0.25335 1.91667,0.0789 0.33229,0.33229 -0.25834,0.56864 -1.3125,0.52522 -1.16495,-0.048 -1.4019,-0.28494 -0.60417,-0.60416 z M 605.5,673 c -0.33992,-0.55 -0.16803,-1 0.38197,-1 0.55,0 1.27811,0.45 1.61803,1 0.33992,0.55 0.16803,1 -0.38197,1 -0.55,0 -1.27811,-0.45 -1.61803,-1 z m 46.5,-4.5 c 2.98742,-3.025 5.65668,-5.5 5.93168,-5.5 0.275,0 -1.94426,2.475 -4.93168,5.5 -2.98742,3.025 -5.65668,5.5 -5.93168,5.5 -0.275,0 1.94426,-2.475 4.93168,-5.5 z m 292,2 c 1.29175,-1.375 2.57363,-2.5 2.84863,-2.5 0.275,0 -0.55688,1.125 -1.84863,2.5 -1.29175,1.375 -2.57363,2.5 -2.84863,2.5 -0.275,0 0.55688,-1.125 1.84863,-2.5 z M 612,646.62244 c 0,-0.20765 0.7875,-0.99515 1.75,-1.75 1.58606,-1.24387 1.62143,-1.2085 0.37756,0.37756 C 612.82119,646.91575 612,647.44548 612,646.62244 Z m -27.25,-11.33869 c -2.58247,-0.39122 -2.75,-0.72461 -2.75,-5.47262 0,-4.38086 0.2003,-4.88978 1.5,-3.81113 0.825,0.68469 1.5,1.88714 1.5,2.6721 0,0.78497 0.68656,2.75487 1.52568,4.37756 0.83912,1.62269 1.40162,2.88292 1.25,2.80051 -0.15162,-0.0824 -1.51318,-0.3373 -3.02568,-0.56642 z m -78.5,-1 c 1.5125,-0.22913 3.9875,-0.22913 5.5,0 1.5125,0.22912 0.275,0.41659 -2.75,0.41659 -3.025,0 -4.2625,-0.18747 -2.75,-0.41659 z m 45.5,-5.94603 c 0.6875,-0.27741 1.8125,-0.27741 2.5,0 0.6875,0.27741 0.125,0.50439 -1.25,0.50439 -1.375,0 -1.9375,-0.22698 -1.25,-0.50439 z m 32.79658,-8.19097 c -0.96731,-3.04771 -6.80369,-10.68366 -10.52168,-13.76588 l -3.4751,-2.88087 2.4751,3.29059 c 1.36131,1.80982 3.52079,4.73482 4.79885,6.5 l 2.32374,3.20941 -4.32374,0.62337 c -2.37806,0.34286 -4.63162,0.44711 -5.00791,0.23168 -0.37628,-0.21543 -0.44276,-1.87923 -0.14772,-3.69734 l 0.53643,-3.30564 -7.35227,-2.12043 C 556.3484,606.06749 544.18689,603.90343 529,602.02991 c -15.6164,-1.92651 -15,-1.70425 -15,-5.40856 0,-1.80841 0.3116,-3.59961 0.69244,-3.98045 0.38084,-0.38084 0.84177,-1.67098 1.02429,-2.86698 1.55299,-3.40794 8.12499,-13.19506 11.29443,-16.16504 3.88482,-3.5097 11.21442,-6.77595 14.02085,-6.39071 20.48489,-0.84089 24.51185,4.08044 35.01598,17.85203 1.00768,1.41362 1.97162,3.2029 2.14208,3.97619 0.17046,0.7733 0.8235,1.96242 1.4512,2.6425 2.15478,2.33459 7.29084,21.28497 7.33428,27.06111 0.0265,3.52372 -1.47911,4.38951 -2.42897,1.39675 z M 555.75,620.29427 c 1.2375,-0.23836 3.2625,-0.23836 4.5,0 1.2375,0.23835 0.225,0.43337 -2.25,0.43337 -2.475,0 -3.4875,-0.19502 -2.25,-0.43337 z m 13,-0.0265 c 2.3375,-0.21053 4.25,-0.80691 4.25,-1.32529 0,-0.51837 0.675,-0.9425 1.5,-0.9425 0.825,0 1.5,0.40186 1.5,0.89301 0,1.39181 -2.77538,2.12326 -7.33179,1.93228 L 564.5,620.65059 Z M 464,615 c 0,-0.55 0.45,-1 1,-1 0.55,0 1,0.45 1,1 0,0.55 -0.45,1 -1,1 -0.55,0 -1,-0.45 -1,-1 z m -0.69013,-7.5 c 0.006,-3.3 0.1923,-4.52944 0.41486,-2.73209 0.22256,1.79735 0.21797,4.49735 -0.0102,6 -0.22818,1.50265 -0.41027,0.0321 -0.40466,-3.26791 z m 2.83925,-1.16431 c -0.74298,-0.80699 -1.07298,-1.74516 -0.73333,-2.08481 0.83699,-0.83699 2.9006,1.32478 2.44671,2.5631 -0.19977,0.54503 -0.96891,0.33032 -1.71338,-0.47829 z m 187.70557,0.143 c -339.77913,-371.55619 -339.77913,-371.55619 0,0 z M 467.66667,602.33333 C 467.3,601.96667 467,601.20167 467,600.63333 c 0,-0.6266 0.46577,-0.56756 1.18333,0.15 0.65084,0.65084 0.95084,1.41584 0.66667,1.7 -0.28417,0.28417 -0.81667,0.21667 -1.18333,-0.15 z M 464,599 c 0,-0.55 0.47656,-1 1.05902,-1 0.58246,0 0.7809,0.45 0.44098,1 -0.33992,0.55 -0.81648,1 -1.05902,1 C 464.19844,600 464,599.55 464,599 Z m 4.45888,-1.06653 c -0.36253,-0.58659 -0.44468,-1.281 -0.18255,-1.54313 0.26212,-0.26213 0.74306,0.21781 1.06875,1.06653 0.67618,1.76211 0.0999,2.07206 -0.8862,0.4766 z m 170.44392,-8.3618 c -11.42731,-9.61546 -10.01545,-42.51589 -1.11679,-51.19714 8.13974,-7.94087 38.22623,-4.76216 42.29524,-0.12643 1.78915,2.03835 -8.05625,11.36778 -11.08125,14.13984 -9.4567,8.66597 -16.98575,16.68383 -18.60245,19.81018 -2.95151,5.70759 -5.41023,15.54578 -3.60654,14.43104 0.43506,-0.26888 0.61082,1.05457 0.39059,2.94099 -0.46224,3.95962 -0.40142,4.37175 3.68612,0.55342 2.51657,-2.35083 7.13228,-4.72843 7.13228,-3.67392 0,0.14433 -2.42808,2.07824 -5.39573,4.29759 -9.82273,4.34658 -4.76079,6.02931 -13.70147,-1.17557 z M 760,596 c 0,-0.55 0.45,-1 1,-1 0.55,0 1,0.45 1,1 0,0.55 -0.45,1 -1,1 -0.55,0 -1,-0.45 -1,-1 z m -290.49511,-0.99208 c -0.33722,-0.54564 -0.20105,-1.72843 0.30261,-2.62842 0.6255,-1.1177 1.13677,-1.27869 1.61313,-0.50792 0.38357,0.62063 0.23497,1.12842 -0.33023,1.12842 -0.5652,0 -0.76861,0.675 -0.45203,1.5 0.64347,1.67685 -0.18233,2.0469 -1.13348,0.50792 z M 761.443,592.90777 c -1.07759,-1.74357 2.82831,-8.74987 5.21447,-9.35358 1.56386,-0.39566 2.01455,-1.09238 1.63803,-2.5322 -0.38438,-1.46986 0.15746,-2.24371 2.08384,-2.97612 1.43181,-0.54437 3.2822,-0.72924 4.11198,-0.41083 C 775.32109,577.95346 776,577.71583 776,577.10699 776,576.49814 775.55,576 775,576 c -1.74484,0 -1.07742,-1.74649 0.86114,-2.25344 1.27687,-0.33391 2.37564,0.38427 3.5,2.28766 0.90138,1.5259 1.63886,2.99967 1.63886,3.27505 0,0.27538 -1.9125,1.63118 -4.25,3.0129 -2.3375,1.38172 -6.275,4.56543 -8.75,7.07493 -4.78828,4.85501 -5.49297,5.23231 -6.557,3.51067 z M 463.36163,587.5 c 0.31658,-0.825 0.13407,-1.5 -0.40559,-1.5 -0.53965,0 0.60513,-3.15 2.54396,-7 3.90369,-7.75168 5.77984,-9.71776 2.237,-2.34423 -1.55784,3.24227 -1.87853,4.77857 -1.05627,5.06025 0.81767,0.2801 0.55669,1.46214 -0.84878,3.84422 -2.07332,3.51402 -3.50617,4.63913 -2.47032,1.93976 z m 2.60774,-5 c 0,-0.55 -0.43621,-0.325 -0.96937,0.5 -0.53316,0.825 -0.96937,1.95 -0.96937,2.5 0,0.55 0.43621,0.325 0.96937,-0.5 0.53316,-0.825 0.96937,-1.95 0.96937,-2.5 z M 460,581.22568 c 0,-1.7092 0.44322,-3.38157 0.98494,-3.71637 0.61542,-0.38035 0.74912,0.62923 0.35636,2.69098 -0.84223,4.42127 -1.3413,4.80279 -1.3413,1.02539 z M 760.5,581 c 0.99549,-1.1 2.03498,-2 2.30998,-2 0.275,0 -0.31449,0.9 -1.30998,2 -0.99549,1.1 -2.03498,2 -2.30998,2 -0.275,0 0.31449,-0.9 1.30998,-2 z M 468,580 c 0,-0.55 0.47656,-1 1.05902,-1 0.58246,0 0.7809,0.45 0.44098,1 -0.33992,0.55 -0.81648,1 -1.05902,1 C 468.19844,581 468,580.55 468,580 Z m -27,-2 -2.5,-0.80064 2.75,-0.0997 C 442.7625,577.04486 444,577.45 444,578 c 0,0.55 -0.1125,0.95514 -0.25,0.90032 C 443.6125,578.8455 442.375,578.44035 441,578 Z m 29.0316,-0.56992 c 0.0423,-1.24422 4.95103,-6.78081 5.51334,-6.2185 0.24331,0.24331 -0.90477,1.95128 -2.55128,3.79549 -1.64651,1.84421 -2.97944,2.93457 -2.96206,2.42301 z M 455,576.13259 c 0,-1.35632 5.05168,-5.21868 6.03267,-4.6124 1.17643,0.72707 -0.0455,-2.78939 -1.25301,-3.60596 -0.47642,-0.32217 0.0383,-1.67217 1.14379,-3 1.10551,-1.32782 2.02498,-1.85173 2.04328,-1.16423 0.0183,0.6875 -0.41673,1.25 -0.96673,1.25 -0.55,0 -1,0.44718 -1,0.99373 0,1.52777 3.64338,0.62285 6.20545,-1.54127 2.21272,-1.86903 2.20913,-1.84143 -0.10081,0.77387 -1.31745,1.49162 -2.72954,2.50549 -3.13799,2.25306 -0.40844,-0.25243 -1.08598,1.67394 -1.50563,4.28082 -0.60576,3.76303 -0.88793,4.25764 -1.36924,2.40013 l -0.60625,-2.33966 -2.74276,2.54191 c -1.50853,1.39805 -2.74277,2.19455 -2.74277,1.77 z m 24.20367,-1.08711 c 0.67134,-1.07499 1.36075,-1.8144 1.53201,-1.64313 0.59277,0.59277 -0.95337,3.59765 -1.85114,3.59765 -0.49582,0 -0.35221,-0.87953 0.31913,-1.95452 z M 765.5,575 c 0.99549,-1.1 2.03498,-2 2.30998,-2 0.275,0 -0.31449,0.9 -1.30998,2 -0.99549,1.1 -2.03498,2 -2.30998,2 -0.275,0 0.31449,-0.9 1.30998,-2 z M 463,574.62244 c 0,-0.20765 0.7875,-0.99515 1.75,-1.75 1.58606,-1.24387 1.62143,-1.2085 0.37756,0.37756 C 463.82119,574.91575 463,575.44548 463,574.62244 Z m 14.79651,-2.61612 c 0.93692,-1.64652 2.02006,-2.99652 2.40698,-3 0.38692,-0.003 -0.0631,1.34083 -1,2.98736 -0.93692,1.64652 -2.02006,2.99652 -2.40698,3 -0.38692,0.003 0.0631,-1.34083 1,-2.98736 z m 293.64462,-1.53812 c 1.06762,-0.80751 2.39113,-1.4682 2.94113,-1.4682 0.55,0 0.12649,0.66069 -0.94113,1.4682 -1.06762,0.8075 -2.39113,1.46819 -2.94113,1.46819 -0.55,0 -0.12649,-0.66069 0.94113,-1.46819 z M 475.73429,567.75138 C 476.37468,565.11932 478.86683,562 480.3293,562 c 0.56063,0 0.0409,1.0415 -1.15499,2.31445 -1.19587,1.27295 -2.17431,2.82139 -2.17431,3.44098 0,0.6196 -0.40803,1.37871 -0.90674,1.68693 -0.49871,0.30822 -0.66025,-0.45272 -0.35897,-1.69098 z m -25.00096,-0.87547 c 0.67834,-0.68342 1.48524,-0.99067 1.79313,-0.68278 0.30789,0.30789 -0.24711,0.86705 -1.23333,1.24258 -1.4252,0.54268 -1.54006,0.42782 -0.5598,-0.5598 z M 481.5,566 c 0.99549,-1.1 1.96904,-2 2.16346,-2 0.19442,0 -0.20857,0.9 -0.89553,2 -0.68696,1.1 -1.66052,2 -2.16346,2 -0.50295,0 -0.1,-0.9 0.89553,-2 z M 471,565.77366 c 0,-0.85783 0.73865,-1.84313 1.64144,-2.18956 1.42904,-0.54838 1.46566,-0.40047 0.28297,1.14301 -0.74716,0.97509 -1.48581,1.96039 -1.64144,2.18956 C 471.12734,567.14583 471,566.63148 471,565.77366 Z m -15.5,-5.20321 c 5.20837,-4.46916 10.30046,-4.74104 5.48156,-0.29267 l -2.40732,2.22222 1.86787,-2.25 c 2.26269,-2.7256 1.3048,-2.89893 -2.28774,-0.41397 -4.44564,3.07507 -5.82785,3.4575 -2.65437,0.73442 z m 28.5,2.05199 c 0,-0.20765 0.7875,-0.99515 1.75,-1.75 1.58606,-1.24387 1.62143,-1.2085 0.37756,0.37756 C 484.82119,562.91575 484,563.44548 484,562.62244 Z m -31,-3.44098 c 0,-1.20855 1.8972,-2.61759 2.5907,-1.9241 0.2517,0.2517 -0.22824,1.02686 -1.06653,1.72258 C 453.57378,559.76869 453,559.84456 453,559.18146 Z m 254,0.44098 c 0,-0.20765 0.7875,-0.99515 1.75,-1.75 1.58606,-1.24387 1.62143,-1.2085 0.37756,0.37756 C 707.82119,559.91575 707,560.44548 707,559.62244 Z m -232,-2.5 c 0,-0.48265 0.74867,-1.49515 1.66372,-2.25 1.5086,-1.24448 1.55194,-1.16266 0.46482,0.87756 C 475.88863,558.07696 475,558.64993 475,557.12244 Z M 479.5,557 c 0.33992,-0.55 1.06803,-1 1.61803,-1 0.55,0 0.72189,0.45 0.38197,1 -0.33992,0.55 -1.06803,1 -1.61803,1 -0.55,0 -0.72189,-0.45 -0.38197,-1 z M 465,556.11803 c 0,-0.55 0.45,-1.27811 1,-1.61803 0.55,-0.33992 1,-0.16803 1,0.38197 0,0.55 -0.45,1.27811 -1,1.61803 -0.55,0.33992 -1,0.16803 -1,-0.38197 z m 7,-0.059 c 0,-0.51754 0.44485,-1.21592 0.98855,-1.55194 0.56686,-0.35034 0.7345,0.0511 0.39301,0.94098 C 472.71677,557.18048 472,557.49745 472,556.05902 Z m 14.01204,-3.03651 c -0.83014,-1.55114 -0.76586,-1.86527 0.29815,-1.45697 0.74606,0.28629 1.35648,1.17616 1.35648,1.97749 0,1.95904 -0.39393,1.83511 -1.65463,-0.52052 z M 782.19495,552.5 c 0.0204,-1.65 0.2445,-2.20394 0.49804,-1.23097 0.25354,0.97297 0.23687,2.32297 -0.0371,3 -0.27393,0.67703 -0.48137,-0.11903 -0.46099,-1.76903 z m -313.09456,-0.20452 c 0.72815,-1.21249 1.53915,-1.98927 1.80223,-1.72619 0.26308,0.26308 -0.33267,1.25511 -1.3239,2.20452 -1.72194,1.64929 -1.74325,1.62798 -0.47833,-0.47833 z m 9.63294,-0.41957 c 0.67834,-0.68342 1.48524,-0.99067 1.79313,-0.68278 0.30789,0.30789 -0.24711,0.86705 -1.23333,1.24258 -1.4252,0.54268 -1.54006,0.42782 -0.5598,-0.5598 z M 463,546.94239 c 0,-0.68332 -0.83755,-0.95663 -2,-0.65264 -1.1,0.28766 -2,0.11514 -2,-0.38337 0,-0.49851 0.86786,-0.90638 1.92857,-0.90638 1.06072,0 2.63572,-0.70714 3.5,-1.57143 0.86429,-0.86428 1.57143,-1.07516 1.57143,-0.46861 0,0.60654 -0.71273,1.37631 -1.58385,1.71059 -1.14098,0.43783 -1.25093,0.81353 -0.39323,1.34361 0.8547,0.52824 0.87835,0.92882 0.0838,1.41986 C 463.49804,547.81023 463,547.58899 463,546.94239 Z m 21.33333,-1.3984 c 0,-0.80081 0.38234,-1.21971 0.84965,-0.9309 0.4673,0.28881 0.59075,0.94401 0.27431,1.45601 -0.80862,1.30838 -1.12396,1.16106 -1.12396,-0.52511 z m -28.25438,-1.12732 c 0.048,-1.16495 0.28494,-1.4019 0.60416,-0.60417 0.28887,0.72187 0.25335,1.58438 -0.0789,1.91667 -0.33229,0.33229 -0.56864,-0.25834 -0.52522,-1.3125 z m 33.25438,-0.87268 c 0,-0.80081 0.38234,-1.21971 0.84965,-0.9309 0.4673,0.28881 0.59075,0.94401 0.27431,1.45601 -0.80862,1.30838 -1.12396,1.16106 -1.12396,-0.52511 z m -18.82625,-3.53254 c -0.35034,-0.56686 0.0511,-0.7345 0.94098,-0.39301 1.73242,0.66479 2.04939,1.38156 0.61096,1.38156 -0.51754,0 -1.21592,-0.44485 -1.55194,-0.98855 z m 21.51298,-2.48728 C 491.23131,536.57378 491.15544,536 491.81854,536 c 1.20855,0 2.61759,1.8972 1.9241,2.5907 -0.2517,0.2517 -1.02686,-0.22824 -1.72258,-1.06653 z m -15.61507,-3.66582 c -1.89822,-2.13405 -1.897,-2.13675 0.34501,-0.75946 1.2375,0.76021 2.25,1.72396 2.25,2.14166 0,1.20572 -0.55693,0.90908 -2.59501,-1.3822 z m -38.59249,0.45854 c 0.72187,-0.28887 1.58438,-0.25335 1.91667,0.0789 0.33229,0.33229 -0.25834,0.56864 -1.3125,0.52522 -1.16495,-0.048 -1.4019,-0.28494 -0.60417,-0.60416 z M 466.5,531 c -0.731,-1.18278 0.24752,-1.18278 3,0 1.92824,0.82859 1.92138,0.86195 -0.19098,0.92971 C 468.10398,531.96837 466.83992,531.55 466.5,531 Z m 11.8717,-4.29367 c -0.38079,-0.66348 -0.32411,-0.87273 0.12597,-0.46501 0.45007,0.40773 1.42222,0.24013 2.16032,-0.37244 0.84375,-0.70025 1.34201,-0.73675 1.34201,-0.0983 0,1.56155 -2.84763,2.29597 -3.6283,0.93576 z m -6.5592,-5.38943 c 0.72187,-0.28887 1.58438,-0.25335 1.91667,0.0789 0.33229,0.33229 -0.25834,0.56864 -1.3125,0.52522 -1.16495,-0.048 -1.4019,-0.28494 -0.60417,-0.60416 z m 6.32951,-3.53706 c -0.13696,-2.32109 -0.0636,-4.00859 0.16295,-3.75 0.82,0.93587 1.55049,7.97017 0.82768,7.97017 -0.40789,0 -0.85368,-1.89908 -0.99063,-4.22017 z m -0.32405,-5.99779 c 0.53328,-0.53328 1.8049,-0.79255 2.82582,-0.57615 1.37482,0.29142 1.12336,0.54288 -0.9696,0.96961 -1.82482,0.37205 -2.48236,0.23268 -1.85622,-0.39346 z M 485,511.83333 c 0,-0.64166 -0.28474,-0.88192 -0.63275,-0.53391 -0.8107,0.81069 -4.37862,-3.68413 -4.33181,-5.45715 0.0195,-0.73825 0.61233,-0.30266 1.31742,0.96797 0.7051,1.27064 2.60165,3.18017 4.21457,4.24342 2.11596,1.39485 2.44526,1.935 1.18257,1.93975 -0.9625,0.004 -1.75,-0.51841 -1.75,-1.16008 z M 485.92431,507.25 483.5,504.5 l 2.75,2.42431 c 2.57029,2.26589 3.20859,3.07569 2.42431,3.07569 -0.17912,0 -1.41662,-1.2375 -2.75,-2.75 z M 496,508 c -0.5887,-1.1 -0.84537,-2 -0.57037,-2 0.275,0 0.98167,0.9 1.57037,2 0.5887,1.1 0.84537,2 0.57037,2 -0.275,0 -0.98167,-0.9 -1.57037,-2 z m 6.56429,-9.7069 c -0.54268,-1.4252 -0.42782,-1.54006 0.5598,-0.5598 0.68342,0.67834 0.99067,1.48524 0.68278,1.79313 -0.30789,0.30789 -0.86705,-0.24711 -1.24258,-1.23333 z M 485.87244,495.25 c -1.24387,-1.58606 -1.2085,-1.62143 0.37756,-0.37756 1.66575,1.30637 2.19548,2.12756 1.37244,2.12756 -0.20765,0 -0.99515,-0.7875 -1.75,-1.75 z M 487,490 c -0.5887,-1.1 -0.84537,-2 -0.57037,-2 0.275,0 0.98167,0.9 1.57037,2 0.5887,1.1 0.84537,2 0.57037,2 -0.275,0 -0.98167,-0.9 -1.57037,-2 z m 14.45888,0.93347 c -0.36253,-0.58659 -0.44468,-1.281 -0.18255,-1.54313 0.26212,-0.26213 0.74306,0.21781 1.06875,1.06653 0.67618,1.76211 0.0999,2.07206 -0.8862,0.4766 z M 497.40499,488.75 495.5,486.5 l 2.25,1.90499 c 2.11444,1.79022 2.70524,2.59501 1.90499,2.59501 -0.18976,0 -1.20226,-1.0125 -2.25,-2.25 z M 490,486.94098 c 0,-0.58246 0.45,-0.7809 1,-0.44098 0.55,0.33992 1,0.81648 1,1.05902 0,0.24254 -0.45,0.44098 -1,0.44098 -0.55,0 -1,-0.47656 -1,-1.05902 z m 1.55887,-2.47278 C 490.49125,483.66069 490.06774,483 490.61774,483 c 0.55,0 1.87351,0.66069 2.94113,1.4682 1.06762,0.8075 1.49113,1.46819 0.94113,1.46819 -0.55,0 -1.87351,-0.66069 -2.94113,-1.46819 z m 3.84612,-0.61371 c -1.89478,-2.13401 -1.89293,-2.13918 0.34501,-0.96482 1.2375,0.64939 2.25,1.61486 2.25,2.14551 0,1.42064 -0.47868,1.20285 -2.59501,-1.18069 z M 428.25,479.32558 c -2.60455,-1.81685 -3.02724,-3.83781 -0.60856,-2.90968 1.42748,0.54778 1.46505,0.39878 0.2882,-1.14301 -0.74429,-0.97509 0.0761,-0.46653 1.823,1.13013 4.32669,3.95451 3.1784,6.18788 -1.50264,2.92256 z m 73.70416,-0.41123 c -0.61391,-1.1471 -0.92784,-2.274 -0.69762,-2.50422 0.23022,-0.23022 0.93203,0.70832 1.55958,2.08564 1.37807,3.02454 0.70709,3.35038 -0.86196,0.41858 z M 738.15789,459 c 0,-1.375 0.22698,-1.9375 0.50439,-1.25 0.27741,0.6875 0.27741,1.8125 0,2.5 -0.27741,0.6875 -0.50439,0.125 -0.50439,-1.25 z M 888.75,425.33772 c 0.6875,-0.27741 1.8125,-0.27741 2.5,0 0.6875,0.27741 0.125,0.50439 -1.25,0.50439 -1.375,0 -1.9375,-0.22698 -1.25,-0.50439 z m -513.48097,-8.03071 c 0.97297,-0.25354 2.32297,-0.23687 3,0.0371 0.67703,0.27393 -0.11903,0.48137 -1.76903,0.46099 -1.65,-0.0204 -2.20394,-0.2445 -1.23097,-0.49804 z m 11,0 c 0.97297,-0.25354 2.32297,-0.23687 3,0.0371 0.67703,0.27393 -0.11903,0.48137 -1.76903,0.46099 -1.65,-0.0204 -2.20394,-0.2445 -1.23097,-0.49804 z m 437.29526,-0.60014 c 0.37553,-0.98622 0.93469,-1.54122 1.24258,-1.23333 0.30789,0.30789 6.4e-4,1.11479 -0.68278,1.79313 -0.98762,0.98026 -1.10248,0.8654 -0.5598,-0.5598 z m -10.29526,-7.39978 c 0.97297,-0.25354 2.32297,-0.23687 3,0.0371 0.67703,0.27393 -0.11903,0.48137 -1.76903,0.46099 -1.65,-0.0204 -2.20394,-0.2445 -1.23097,-0.49804 z M 825.87244,402.25 c -1.24387,-1.58606 -1.2085,-1.62143 0.37756,-0.37756 1.66575,1.30637 2.19548,2.12756 1.37244,2.12756 -0.20765,0 -0.99515,-0.7875 -1.75,-1.75 z m 9.37756,-6.93933 c 0.9625,-0.25152 2.5375,-0.25152 3.5,0 0.9625,0.25153 0.175,0.45733 -1.75,0.45733 -1.925,0 -2.7125,-0.2058 -1.75,-0.45733 z m -41.4375,-8.99378 c 0.72187,-0.28887 1.58438,-0.25335 1.91667,0.0789 0.33229,0.33229 -0.25834,0.56864 -1.3125,0.52522 -1.16495,-0.048 -1.4019,-0.28494 -0.60417,-0.60416 z m -6,-13 c 0.72187,-0.28887 1.58438,-0.25335 1.91667,0.0789 0.33229,0.33229 -0.25834,0.56864 -1.3125,0.52522 -1.16495,-0.048 -1.4019,-0.28494 -0.60417,-0.60416 z M 856,372.60699 c 0,-0.21616 0.69837,-0.661 1.55194,-0.98855 0.88992,-0.34149 1.29132,-0.17385 0.94098,0.39301 C 857.90566,372.96166 856,373.4169 856,372.60699 Z"
       id="path6"
       sodipodi:nodetypes="ccsccssssssssssssssssssccsssssssssssscsscssssssssssssssssssssssssssssssssscssssssssssssssssssssssssssssssssssssssssssssssssssssssssssssscsscssscssssssssssssssssssssscsssssscsscsssssssssssssssssssssssssssssssssssssssssssssssssssssssssssssssssssssssssssssssssscsssssssssssssssssssscsssssssssssssssscscsssssssssssssssssssssssssssscssssssssssssssssssssssssssssssssssssssssssssssssssssssssssssssssssssssssssssssssssssssssssssssssssssssssssscssssssssssscsscsssssssssssssssssssssssssscsssssssssssssssssssssssssssssssssscsscccssccsssssssssssssssssssssssssssssss" />
    <path
       style="fill:#6f867b"
       d="m 805.18799,724.17872 c 7.92925,-1.2991 32.09464,-6.68671 41.14332,-9.19334 l 9.83131,-2.82276 3.01548,0.13071 c 2.28839,0.0992 0.78375,4.11221 -0.28111,4.77033 -0.73649,0.45518 -1.00909,1.15757 -0.60578,1.56088 0.4033,0.40331 6.24027,-0.90985 12.97104,-2.91814 6.73076,-2.00828 14.48775,-4.17393 17.23775,-4.81255 2.75,-0.63863 5.9,-1.56037 7,-2.04833 2.30382,-1.02197 6.24554,-2.00522 8.67658,-2.16435 0.92212,-0.0604 1.50389,-0.38916 1.29283,-0.73067 -0.78081,-1.26337 6.16426,-3.7987 7.62094,-2.78206 1.08757,0.75904 1.12262,1.10018 0.15342,1.4931 -0.69093,0.2801 -0.98582,0.94682 -0.65531,1.48159 0.62602,1.01292 -3.35335,7.71705 -6.88713,11.60293 -1.1234,1.23533 -1.78929,2.49931 -1.47976,2.80884 1.69907,1.69907 30.16235,-14.8784 45.16899,-26.30715 6.03656,-4.59731 17.78227,-15.00721 26.72125,-23.34419 3.70713,-3.45748 8.61847,-7.04256 15.12671,-14.14208 2.01002,-2.01002 6.44563,-5.45928 6.74912,-3.88339 C 998.70797,656.6185 988,668.77757 988,670.06873 941.0815,727.3186 887.63886,730.40773 887.72899,730.28028 888.43371,729.28369 889.57674,728 890.1374,728 c 1.49989,0 8.62925,-7.68948 9.40995,-10.14924 0.47271,-1.48939 -1.02278,-4.30153 -2.40917,-3.13078 -0.6455,0.98738 -17.79137,7.78002 -19.6382,7.78002 -0.55,0 -1.225,0.27795 -1.5,0.61766 -0.54287,0.67063 -16.32541,5.22084 -22,6.34275 -9.58743,1.89551 -10.16843,1.84072 -7.98146,-0.75262 5.67908,-6.73432 6.09424,-7.72176 3.23146,-7.68583 -0.9625,0.0121 -4.3395,-0.12676 -5.75,1.8337 -3.72946,5.1836 -17.14834,6.05013 -26,7.63116 -1.28494,0.2341 -9.89696,1.4353 -14.7763,2.06098 -14.66998,-1.94443 6.56696,-19.37286 2.46431,-8.36908 z m 50.94872,-4.96648 c -0.72144,-0.24048 -1.78716,0.0382 -2.36826,0.61931 -0.74207,0.74207 -0.35164,0.87221 1.31171,0.43724 1.3522,-0.35361 1.8055,-0.8069 1.05655,-1.05655 z M 576,718.63088 c -5.775,-0.38133 -16.43379,-0.0434 -23.5,-1.18235 C 503.2897,709.51673 460.62965,697.96796 439.04018,676 c -2.87732,-2.92777 -1.8791,-2.97628 -3.00266,-6.61394 -1.59788,-5.17335 -1.95745,-8.54944 -1.65081,-15.5 0.39126,-8.86859 0.38722,-8.88606 -2.05636,-8.88606 -1.34661,0 -2.19941,0.40285 -1.89511,0.89522 0.3043,0.49236 -0.007,1.10776 -0.69098,1.36754 -0.83843,0.31827 -1.31833,-0.78913 -1.47134,-3.39522 -0.19156,-3.2625 0.0822,-3.86754 1.75,-3.86754 1.78623,0 1.97856,-0.69984 1.99239,-7.25 0.009,-4.36208 0.35336,-6.71667 0.86396,-5.9111 2.28448,3.60416 20.30491,-22.97767 19.55033,2.16401 -0.12379,4.12456 0.59852,10.42209 0.97943,13.99709 0.4782,4.48825 0.11214,10.29257 -1.18274,18.75384 -2.4158,15.7858 -2.4457,15.74616 11.87649,15.74616 6.74259,0.899 22.96751,-2.39746 10.81654,7.40153 -1.60562,1.18709 -2.91932,2.50833 -2.91932,2.93609 9.20286,3.47321 19.96468,4.98117 29.7291,6.94568 2.42169,0.38475 0.22815,0.35838 -1.64542,2.61587 -1.03843,1.25123 -0.63192,1.6425 2.59239,2.49521 24.9914,6.60922 55.46033,7.50637 96.1185,7.2162 38.53789,-0.27503 43.73507,-0.21615 52.25,-2.04632 5.20048,-1.11778 10.35543,-2.17401 11.45543,-2.34719 1.1,-0.17317 2.96267,-0.84452 4.13926,-1.49188 2.05389,-1.13006 2.10772,-1.03719 1.34891,2.32724 -1.0486,4.64939 -2.21313,5.89215 -7.25236,7.73958 -15.06516,5.52302 -54.19445,9.35558 -84.73581,7.33887 z m 63.25,-4.29316 c -0.6875,-0.27741 -1.8125,-0.27741 -2.5,0 -0.6875,0.27741 -0.125,0.50439 1.25,0.50439 1.375,0 1.9375,-0.22698 1.25,-0.50439 z m 342.66537,-11.2818 c 6.97074,-7.50264 6.02147,-18.85639 9.20787,-28.18963 1.58498,-4.64251 0.97444,-18.9393 2.4843,-13.1617 0.25152,0.9625 -2.6634,-3.33122 -2.1665,-3.60744 2.78008,-1.54542 3.80863,-6.25156 6.18004,-5.02964 1.88998,0.97385 1.37892,8.86842 1.37892,14.72428 0.64877,10.42912 -3.96156,17.72147 4.0888,6.21027 10.2995,-11.65046 19.5163,-27.82101 27.7747,-42.52151 1.9558,-3.46708 5.4595,2.74619 2.9341,7.67421 5.3672,32.86965 -33.5011,50.48243 -42.02641,59.19827 -0.56307,0.57565 -9.80866,5.74833 -9.85582,4.70289 z M 872,693.62244 c 0,-0.20765 0.7875,-0.99515 1.75,-1.75 1.58606,-1.24387 1.62143,-1.2085 0.37756,0.37756 C 872.82119,693.91575 872,694.44548 872,693.62244 Z M 707.75,667.96181 c 1.65837,-1.80671 1.58337,-5.04084 -0.17512,-7.55144 -0.92875,-1.32598 -1.10824,-2.53545 -0.51531,-3.47251 0.50039,-0.79082 0.92333,-0.98786 0.93986,-0.43786 0.0165,0.55 0.61089,-0.125 1.3208,-1.5 1.43849,-0.62234 11.35485,-8.81289 17.53978,-13.34234 6.27149,-4.59284 6.1373,-6.12793 -0.32103,-3.67248 -1.42517,0.54185 -3.59196,1.17277 -4.8151,1.40204 -1.22313,0.22927 -2.89888,0.57344 -3.72388,0.76482 -1.14041,0.26455 -1.57273,-0.78256 -1.8034,-4.36794 l -0.3034,-4.71589 6.8034,-5.02698 c 3.74187,-2.76484 10.25784,-6.83577 14.47994,-9.04651 6.67037,-3.49269 7.8336,-4.50942 8.87475,-7.75713 4.32822,-13.5011 18.43401,-34.47592 25.41244,-37.7874 1.93525,-0.91834 3.27105,-2.07031 2.96844,-2.55995 -0.30261,-0.48963 -0.14588,-0.89024 0.3483,-0.89024 0.49417,0 1.42926,1.1649 2.07797,2.58866 1.0408,2.28431 0.9421,2.65074 -0.83948,3.11663 C 773.96204,574.24319 773.18194,576 775,576 c 0.55,0 1,0.49814 1,1.10699 0,0.60884 -0.67891,0.84647 -1.50868,0.52805 -0.82978,-0.31841 -2.68017,-0.13354 -4.11198,0.41083 -1.92638,0.73241 -2.46822,1.50626 -2.08384,2.97612 0.37652,1.43982 -0.0742,2.13654 -1.63803,2.5322 -2.8267,0.71516 -6.4966,8.00668 -4.85573,9.64755 0.86548,0.86548 2.3276,-0.0234 5.92369,-3.60129 5.67555,-5.64683 10.64315,-10.9037 14.22462,-11.01006 1.42063,-0.0422 5.49283,-1.70172 6.64525,-2.35224 1.15241,-0.65052 3.19322,0.70146 4.5,0.36072 17.71681,-4.61967 18.45657,-4.51126 23.21929,-5.2933 0.60835,-0.0999 12.10622,-0.86295 25.73733,-1.19743 13.63111,-0.33448 25.12257,-0.94741 25.53657,-1.36208 0.414,-0.41467 -0.25789,-1.8297 -1.49309,-3.14451 -1.56521,-1.66609 -1.95704,-2.08107 -2.39482,-2.92678 -0.56277,-1.08719 -0.13657,-2.46691 0.4886,-3.42963 0.77307,-1.19049 1.23697,-1.34591 7.37748,-0.84856 14.6584,1.18725 38.75879,7.32994 49.0706,10.19639 0.77902,0.21655 1.82701,-0.17298 1.78334,-1.35482 -0.10512,-2.8449 1.01895,-2.44552 15.22539,1.26872 10.62342,2.77748 12.91503,3.62291 22.35401,3.1818 17.41937,-0.81406 37.94244,-9.42572 50.197,-19.45973 3.6972,-3.02729 6.5681,-7.98876 9.1709,-8.24874 1.4889,-0.14873 -0.033,2.98329 -0.9727,5.43227 -0.3326,0.86682 -4.7341,6.37788 -7.6762,9.41261 -8.2515,8.41935 -24.48071,16.96493 -35.2189,18.54471 -12.05971,1.7742 -18.12046,1.7456 -25.25,-0.11918 -3.9875,-1.04296 -7.25,-1.76463 -7.25,-1.60373 0,0.16091 3.2625,1.81472 7.25,3.67514 3.9875,1.86041 8.81769,4.7728 10.73375,6.47197 3.13318,2.7785 3.29462,3.16196 1.60436,3.81057 -3.53556,1.35674 -32.6899,-10.53165 -49.58821,-15.86588 -16.46717,-5.19812 -41.74571,-11.25593 -42.79978,-10.25665 -0.16488,0.15631 4.80897,4.12138 11.053,8.81126 19.18101,14.40682 19.11693,15.06333 -1.12474,11.5232 -8.59566,-1.50332 -18.55348,-3.00987 -22.12848,-3.3479 -3.575,-0.33803 -7.175,-0.83861 -8,-1.1124 -5.55267,-1.84278 -34.84228,-1.17017 -45.5,1.04488 -6.60363,1.37246 -11.41468,2.92796 -11.02186,3.56357 0.24932,0.4034 4.18123,0.99733 8.73758,1.31983 8.42714,0.59649 20.17876,3.78881 30.10114,8.17696 5.84204,2.58362 6.96536,3.55745 5.86716,5.08632 -0.83806,1.16669 -0.22393,1.06456 -14.25026,2.36984 -14.54984,1.354 -31.68443,4.39021 -43.93376,7.78497 -11.58151,3.20968 -40.68674,14.83166 -49.53426,19.77948 -6.81293,3.81 -8.81601,6.39791 -3.10518,4.01178 1.8483,-0.77228 4.4358,-1.63968 5.75,-1.92757 1.31419,-0.28789 5.53944,-1.2364 9.38944,-2.1078 6.09016,-1.37844 33.10718,-2.96146 29.74377,-1.7428 -6.86884,12.00049 -36.15143,15.37503 -48.85562,29.71522 -0.32874,0.85671 -0.94958,1.34018 -1.37963,1.0744 -0.43005,-0.26579 -1.37496,0.23134 -2.09981,1.10473 -0.72484,0.87338 -4.03833,3.64124 -7.36331,6.1508 -3.32497,2.50955 -5.4829,3.95001 -4.7954,3.20101 z M 755,609.43152 c 0.275,-0.0545 1.625,-0.57332 3,-1.1529 7.83548,-3.3028 8.00135,-3.17544 7.75,-4.19705 -0.27897,-1.13389 -1.75,-0.89555 -1.75,-2.52255 0,-1.34254 -0.46971,-2.73128 -1.0438,-3.08609 -0.76693,-0.47399 -5.10891,2.50886 -6.0329,3.90223 -0.27044,0.40782 -0.47581,1.60634 -1.25308,2.5 -0.77727,0.89366 -1.96594,2.69164 -2.64149,3.99552 -1.01408,1.95727 -0.99289,2.22151 0.1215,1.51531 0.74237,-0.47045 1.57477,-0.89996 1.84977,-0.95447 z m 30.52509,-8.34783 c 6.5862,-1.60397 15.79991,-3.43771 20.47491,-4.07499 11.09909,-1.51298 11.43501,-1.62743 9.82737,-3.34842 -0.70061,-0.75 -1.73588,-1.32868 -2.3006,-1.28595 -0.56473,0.0427 -4.17677,-0.4596 -8.02677,-1.11629 -3.85,-0.65669 -10.7125,-1.34879 -15.25,-1.53801 -7.14998,2.7094 -8.01442,0.0757 -14.32279,0.55795 l -4.37458,0.40772 -1.06952,7.90402 c -1.26476,9.34692 -4.94777,7.26827 15.04198,2.49397 z M 1047.9231,637.25 c -0.1251,-6.10578 -2.2171,-11.5863 -4.9507,-12.96949 -1.6871,-0.85368 -9.1549,14.40449 -8.0176,14.39443 0.9166,-0.008 -4.6742,-6.735 -4.4908,-7.26737 0.2122,-0.61644 8.1719,-15.71712 11.2088,-15.77854 2.3002,-0.0465 3.3847,0.9035 4.5333,4.52242 1.3123,3.02943 2.9452,6.14658 2.7939,9.47101 0,2.49556 1.8302,1.43467 2.3676,-1.37244 1.0555,-5.51267 0.8932,-13.96149 1.0921,-20.80151 0.2221,-7.63457 0.9821,-14.43243 0.5403,-19.26447 -0.3293,-10.20961 -5.2711,-41.42746 1.5582,-33.66088 11.0511,12.56763 8.4513,28.70546 9.0815,42.77661 0.2941,6.48986 0.039,15.5275 -0.5675,20.08363 -1.1763,8.83917 -4.291,17.90855 -5.3579,18.67733 -8.2163,5.92052 1.3964,-1.43555 -8.2733,4.93931 -0.8222,0.54205 -1.4653,-1.18715 -1.5179,-3.75 z M 562.8125,620.31689 c 0.72187,-0.28887 1.58438,-0.25335 1.91667,0.0789 0.33229,0.33229 -0.25834,0.56864 -1.3125,0.52522 -1.16495,-0.048 -1.4019,-0.28494 -0.60417,-0.60416 z M 423.56429,600.70687 c 0.37553,-0.98622 0.93469,-1.54122 1.24258,-1.23333 0.30789,0.30789 6.4e-4,1.11479 -0.68278,1.79313 -0.98762,0.98026 -1.10248,0.8654 -0.5598,-0.5598 z m -3.05283,-5.05541 c -0.66181,-0.0129 -0.62761,-3.51895 -0.96672,-6.41256 -0.59406,-5.06903 -0.51487,-5.29997 2.16935,-6.32598 1.53225,-0.58569 3.57341,-1.12646 4.53591,-1.20171 0.9625,-0.0753 1.75,-0.43181 1.75,-0.79235 0,-0.5962 1.95234,-1.03033 11.75,-2.61276 1.7875,-0.2887 3.25,-0.11433 3.25,0.38749 0,1.42001 -6.05523,9.30641 -7.14553,9.30641 -0.53488,0 -0.64713,0.52647 -0.24944,1.16994 0.47559,0.76953 0.19228,0.96626 -0.8278,0.57482 -1.14382,-0.43893 -1.42184,-0.10174 -1.05927,1.28471 0.37154,1.42079 -0.20553,2.05247 -2.36319,2.58681 -1.57012,0.38884 -3.46935,1.57217 -4.2205,2.62962 -0.92749,1.3057 -1.69272,1.59565 -2.38476,0.90361 -5.11514,-2.42221 3.96322,-1.33775 -4.23805,-1.49805 z m 345.65024,-40.7475 c -8.1691,-13.0675 -10.22793,-15.77514 -18.74096,-24.92701 -1.7805,-1.837 -9.71314,-9.97324 -9.88384,-11.09179 -0.29325,-1.92152 4.27603,0.31364 6.95059,1.69672 2.56775,1.32783 4.91505,3.44023 6.20181,2.60761 1.19722,-0.77468 -0.81255,-2.88396 -1.83333,-4.34386 -1.02078,-1.4599 -3.96804,-5.86834 -3.96804,-6.27069 0,-1.35543 10.95815,3.12406 16.61563,5.88421 9.44119,4.60613 3.73607,0.91145 9.28571,5.19596 4.6406,3.37794 5.44714,3.36698 4.50084,1.34627 -1.21166,-2.58737 -3.61187,-5.9227 -5.23035,-8.49146 -5.32836,-8.04491 -21.51539,-19.91875 -25.92023,-22.94802 l -10.55433,-6.86488 c 5.26459,1.35391 10.35857,1.45771 15.70728,1.19995 l -3.34241,-3.44848 C 744.11175,482.55182 742.02094,481 741.30383,481 740.58672,481 740,480.63601 740,480.19113 c -0.84673,-1.07247 -6.56799,-6.56052 -0.83549,-7.58943 0.38351,0.23703 -0.95702,-9.15424 -0.40358,-9.00632 27.60628,8.73579 42.23003,23.27672 46.97345,46.70418 2.4355,6.47931 -1.17165,3.37442 1.6379,0.23722 5.07812,-5.41296 -0.25748,-1.13394 9.64334,-11.00034 7.24851,-6.74998 15.99107,-12.24522 24.88257,-16.74583 2.65013,-1.04359 11.44386,-4.86327 25.42679,-6.03674 3.86651,-0.32448 29.57226,-0.25539 39.26926,1.67468 8.17907,1.62794 20.24437,6.11475 26.84529,9.98315 8.26321,6.25485 6.97116,6.29312 0.27075,3.2262 -5.39996,-2.47167 -18.25593,-2.85049 -25.93149,-3.95907 -18.58404,-2.68411 -33.70787,0.41294 -50.82551,4.48759 -7.37731,1.75608 -26.63152,5.69762 -39.53531,29.1536 -7.53312,13.69339 -7.06209,20.8589 -7.64777,25.08138 -0.70566,5.0875 3.67841,28.97246 1.86732,29.52837 l -10.34629,3.17578 z m -318.27001,-2.19272 c -19.97744,-19.11243 -32.87469,-43.92749 -41.42791,-68.89716 -4.3068,-12.59491 -7.53059,-25.84414 -6.22606,-25.38513 15.96211,5.61636 31.6348,20.79403 51.03725,29.76401 19.40245,8.96998 42.53466,11.73226 27.67153,13.5355 -0.47995,0.0582 -0.99994,0.64564 -1.16222,1.61076 -0.16228,0.96512 0.54913,0.62927 0.5965,1.20376 2.41134,29.2455 -24.40198,48.28387 -30.48909,48.16826 z M 713.87244,507.25 c -1.24387,-1.58606 -1.2085,-1.62143 0.37756,-0.37756 1.66575,1.30637 2.19548,2.12756 1.37244,2.12756 -0.20765,0 -0.99515,-0.7875 -1.75,-1.75 z M 380.25,417.31067 c 0.9625,-0.25152 2.5375,-0.25152 3.5,0 0.9625,0.25153 0.175,0.45733 -1.75,0.45733 -1.925,0 -2.7125,-0.2058 -1.75,-0.45733 z"
       id="path4"
       sodipodi:nodetypes="cscsssssssssssssssssssssssssssssscssssssssssscsscsssssssssssssssssssssssssssssssssssssssssssssscssssssssssssssssssssssssssssssssscsssssssssssssssssssssssssssssssssssssssssssssscssssssscsssssscssssssssssssssssssssssssssssssssssssssssccssssccsssssssssssscsssssssssssssssss" />
    <path
       style="fill:#6c7170"
       d="m 795,732.09362 c 0,-0.49851 0.9,-0.67103 2,-0.38337 1.1,0.28766 2,0.69553 2,0.90638 0,0.21085 -0.9,0.38337 -2,0.38337 -1.1,0 -2,-0.40787 -2,-0.90638 z M 982.65907,703 c -0.32796,0 1.10834,0 0,0 z M 940.8125,686.31689 c 0.72187,-0.28887 1.58438,-0.25335 1.91667,0.0789 0.33229,0.33229 -0.25834,0.56864 -1.3125,0.52522 -1.16495,-0.048 -1.4019,-0.28494 -0.60417,-0.60416 z m -20.73355,-6.90022 c 0.048,-1.16495 0.28494,-1.4019 0.60416,-0.60417 0.28887,0.72187 0.25335,1.58438 -0.0789,1.91667 -0.33229,0.33229 -0.56864,-0.25834 -0.52522,-1.3125 z M 573,677.5 c -0.71755,-0.86459 -0.81474,-1.5 -0.22943,-1.5 0.5585,0 1.27447,0.675 1.59106,1.5 0.31658,0.825 0.41982,1.5 0.22943,1.5 -0.19039,0 -0.90637,-0.675 -1.59106,-1.5 z M 954,666 c -2.32726,-0.74532 -2.34861,-0.80753 -0.30902,-0.90032 1.20504,-0.0548 2.4691,0.35032 2.80902,0.90032 0.33992,0.55 0.47898,0.95514 0.30902,0.90032 C 956.63906,666.8455 955.375,666.44035 954,666 Z m 41.52417,-13.02006 c -681.44861,-418.05744 -681.44861,-418.05744 0,0 z M 608.15789,659 c 0,-1.375 0.22698,-1.9375 0.50439,-1.25 0.27741,0.6875 0.27741,1.8125 0,2.5 -0.27741,0.6875 -0.50439,0.125 -0.50439,-1.25 z M 422.57913,645.75 c 0.72297,-6.66016 1.85865,-13.64331 3.90316,-24 1.02638,-5.19923 -1.26468,-5.0044 -5.87978,0.5 -3.33525,3.97793 -3.56352,4.08996 -3.5658,1.75 -0.006,-6.65604 5.12513,-20.8585 9.96529,-27.58037 1.78828,-2.48351 6.14396,-3.96357 5.31619,-1.80645 -0.77416,2.01744 2.08251,1.72274 5.90764,-0.60944 7.0305,-4.2865 7.48551,-1.69135 1.77417,10.11897 -2.2,4.54932 -4,9.48113 -4,10.95958 0,3.10848 -2.35354,9.23084 -3.21668,8.3677 -0.32083,-0.32083 -0.55743,0.009 -0.52579,0.73334 0.0317,0.72417 -0.0134,4.57917 -0.1,8.56667 -0.14473,6.66098 -0.32906,7.25 -2.26882,7.25 -1.87187,0 -2.03673,0.39746 -1.45377,3.5049 0.55873,2.97829 0.25302,3.87979 -2.03473,6 -1.48074,1.37231 -3.09889,2.4951 -3.59589,2.4951 -0.51416,0 -0.61122,-2.69382 -0.22519,-6.25 z m 16.49982,-20.31291 c -0.11739,-1.5805 5.43689,-6.58792 6.32372,-5.70109 0.4202,0.4202 0.614,0.30382 0.43066,-0.25863 -0.34204,-1.04936 7.90886,-9.07038 8.60743,-8.36761 0.21335,0.21463 -0.13604,2.66313 -0.77642,5.44111 -1.08376,4.70131 -1.33736,5.00654 -3.66434,4.41038 -2.72217,-0.69741 -9.45125,2.07924 -10.32881,4.26201 -0.28231,0.70221 -0.54882,0.79843 -0.59224,0.21383 z m 136.252,-15.37801 -4.65974,-6.18629 6.15829,5.10068 c 3.58905,2.97267 3.66746,4.02653 2.23859,4.02653 -0.51254,0 -2.43126,-1.20722 -3.73714,-2.94092 z M 415.54673,600.3437 c -101.47117,-365.4212 -101.47117,-365.4212 0,0 z M 463.28601,595.5 c 0.008,-2.75 0.20172,-3.75631 0.43157,-2.23625 0.22986,1.52006 0.22371,3.77006 -0.0136,5 -0.23736,1.22994 -0.42542,-0.0137 -0.41792,-2.76375 z M 465.5,565 c 0.99549,-1.1 2.03498,-2 2.30998,-2 0.275,0 -0.31449,0.9 -1.30998,2 -0.99549,1.1 -2.03498,2 -2.30998,2 -0.275,0 0.31449,-0.9 1.30998,-2 z m 113,-14.54856 c -2.2,-0.75324 -4.99632,-2.51924 -6.21404,-3.92444 -2.43659,-2.81173 -5.00169,-10.14461 -3.92521,-11.22108 0.37465,-0.37465 2.7084,1.30839 5.18612,3.74008 4.67657,4.5897 10.04585,11.6992 9.35168,12.3826 -0.2192,0.2158 -2.19855,-0.22392 -4.39855,-0.97716 z m 13.22255,-2.06222 C 590.60621,547.27287 590.84792,526 591.97695,526 c 1.52583,0 4.05797,4.44036 4.66489,8.18035 0.88565,5.45762 -2.85784,16.27032 -4.91929,14.20887 z M 485.75,546.33772 c 0.6875,-0.27741 1.8125,-0.27741 2.5,0 0.6875,0.27741 0.125,0.50439 -1.25,0.50439 -1.375,0 -1.9375,-0.22698 -1.25,-0.50439 z m -4.9375,-2.02083 c 0.72187,-0.28887 1.58438,-0.25335 1.91667,0.0789 0.33229,0.33229 -0.25834,0.56864 -1.3125,0.52522 -1.16495,-0.048 -1.4019,-0.28494 -0.60417,-0.60416 z m 66.44937,-6.5167 c -3.31497,-4.042 -3.84675,-16.97804 -0.74685,-18.16758 1.23433,-0.47366 2.61069,2.21474 4.28378,8.36739 1.47297,5.41672 -1.15655,12.70263 -3.53693,9.80019 z m 56.90883,-25.39318 c -6.43161,-5.48828 -5.90402,-10.68138 -3.57643,-12.15701 0.86237,-0.54672 1.18601,0.14507 3.39301,2.46128 2.84362,2.98433 4.01272,5.0794 4.01272,7.19098 0,3.73333 -1.26956,4.68905 -3.8293,2.50475 z M 378.8125,377.31689 c 0.72187,-0.28887 1.58438,-0.25335 1.91667,0.0789 0.33229,0.33229 -0.25834,0.56864 -1.3125,0.52522 -1.16495,-0.048 -1.4019,-0.28494 -0.60417,-0.60416 z"
       id="path3"
       sodipodi:nodetypes="sssssssssssssssssssssssssssssssssssscsssssssssssssssssssssscssssssssssssssssssssssssssssssssssssssssssscsscc" />
    <path
       style="fill:#0dd268"
       d="m 736,765.54705 c 0,-0.79912 0.50603,-2.71162 1.12451,-4.25 2.72934,-6.78881 3.20072,-7.92235 4.17746,-10.04554 0.56891,-1.23667 0.8462,-2.42127 0.6162,-2.63245 -0.22999,-0.21117 -19.76817,-0.66586 -43.41817,-1.01042 -44.09648,-0.64245 -75.10816,-1.84907 -91,-3.54067 -4.95,-0.52691 -13.5,-1.43499 -19,-2.01798 -27.28967,-2.89262 -36.20066,-4.0225 -47.5,-6.02282 -14.13896,-2.50302 -12.93128,-2.58743 -22.75,1.59007 -8.95826,3.81142 -11.09456,4.75514 -15.25,6.73679 -2.475,1.18028 -4.65,2.48347 -4.83333,2.89597 -0.18334,0.4125 -0.77726,0.75 -1.31983,0.75 -0.54257,0 -3.01169,1.39338 -5.48694,3.09639 -2.47525,1.70302 -4.76847,2.82837 -5.09606,2.50079 -0.85193,-0.85193 13.32985,-14.87393 17.9003,-17.69863 2.10972,-1.30388 3.83586,-2.71446 3.83586,-3.13462 0,-0.42016 0.023,-1.10129 0.0511,-1.51362 0.0281,-0.41233 -1.43442,-1.11115 -3.25,-1.55293 -19.28522,-4.50351 -38.37895,-10.54977 -58.30107,-11.15871 -13.7474,0.0241 -25.31207,1.73941 -30.73643,4.55879 -2.78015,1.44503 -3.29688,1.04805 -1.19035,-0.91448 1.07269,-0.99937 4.62707,-3.28603 7.89861,-5.08148 3.27155,-1.79544 7.09124,-4.04921 8.48822,-5.00838 1.39697,-0.95916 4.00245,-2.32709 5.78995,-3.03984 4.9454,-1.97195 4.65695,-2.3516 -4.25,-5.59383 -35.33134,-9.071 -67.28382,-7.37657 -99.25,5.70083 -1.7875,0.73037 -3.25,1.66809 -3.25,2.08383 0,0.41574 -0.8625,0.75589 -1.91667,0.75589 -1.05416,0 -2.14364,0.5625 -2.42105,1.25 -0.34896,0.86481 -0.52871,0.88935 -0.58333,0.0796 11.35426,-17.95253 52.81558,-27.51175 71.67105,-29.00403 6.1875,-0.24568 11.25,-0.83881 11.25,-1.31806 0,-0.99143 -4.06141,-3.87837 -8.5,-6.04199 -1.65,-0.80431 -3.225,-1.69717 -3.5,-1.98415 -0.558,-0.58231 -10.9579,-5.64401 -18.2391,-8.8771 -4.25116,-1.88756 -15.818,-6.60402 -27.76093,-7.7517 -3.025,-0.2907 -5.95,-0.96812 -6.5,-1.50539 -0.65139,-0.63631 4.57773,-0.81225 15,-0.5047 15.01817,0.44318 20.08472,1.01837 31.75,3.60448 2.6125,0.57917 6.6625,1.4691 9,1.97762 2.3375,0.50852 5.825,1.37814 7.75,1.93249 1.925,0.55435 4.625,1.30085 6,1.65889 1.375,0.35803 3.4,1.00106 4.5,1.42894 1.1,0.42788 3.8,1.32007 6,1.98264 2.2,0.66256 4.9,1.58719 6,2.05473 1.1,0.46753 3.4625,1.44764 5.25,2.17801 1.7875,0.73037 3.25,1.83267 3.25,2.44957 0,1.60017 8.61314,9.10343 13.25,13.30913 0.87728,0.79571 1.70684,1.68912 2.75,2.25 23.53157,12.6524 50.32141,18.67121 76.55,23.75836 12.46066,2.4168 7.35559,1.52789 37.95,3.12707 29.85623,1.5606 63.45557,1.04689 68,-1.03965 1.1,-0.50506 4.25,-1.15292 7,-1.43968 10.75849,-1.12187 14.5,-1.81231 14.5,-2.67577 C 658,712.40469 658.94303,712 660.09563,712 663.00388,712 668,708.24172 668,706.05403 c 0,-3.44861 3.00144,-8.95888 9.81632,-18.02157 C 685.56464,677.72846 702.49122,660 704.58086,660 c 1.68022,0 2.84067,4.09651 1.95285,6.89378 -0.35578,1.12096 -4.42448,5.88439 -9.04156,10.58538 -4.61708,4.70099 -9.0501,9.98146 -10.15902,11.53405 -1.61062,2.255 -3.44483,5.63353 -5.08313,7.54823 -0.9625,1.06621 -3.08252,4.52606 -4.71115,7.68856 -2.35947,5.75737 -7.76114,7.58758 -12.46011,11.12038 -1.54629,1.34221 -9.37864,5.90255 -13.82094,8.04716 -1.23321,0.59535 -2.24571,1.86996 -2.25,2.83246 -0.007,1.5164 1.0267,1.75062 7.7422,1.75463 l 7.75,0.005 -3.19577,2.99538 c -0.67827,0.63559 -7.04938,5.47521 -8.23237,5.96523 -2.6886,1.11365 -4.71677,3.71818 -3.69278,4.74218 0.23439,0.23438 1.25748,-0.003 2.27354,-0.52646 1.01606,-0.52394 3.19738,-1.50762 4.84738,-2.18596 1.65,-0.67834 3.78139,-1.63084 4.73643,-2.11667 0.95504,-0.48583 9.43932,-3.36613 12.40217,-4.96117 2.98243,-1.67514 4.878,-1.98565 9.78041,-1.60215 17.05193,1.33395 49.47594,2.99794 60.08099,3.08335 10.46224,0.0843 15.73818,-0.38354 34.75627,-3.08171 5.49108,-0.51833 12.83938,-5.36371 17.74373,-6.0467 3.36292,0.16536 0.17423,2.53471 1.33795,6.84028 0.55318,1.90601 3.82213,2.43477 4.16205,1.88477 0.33992,-0.55 4.2426,-0.18301 8.5,-1 6.63881,-1.27399 31.31388,-2.43371 35.87574,-10.08179 10.37103,-4.63323 -0.27885,5.86907 -1.03697,8.68858 9.07965,0.162 53.7475,-16.62081 54.59458,-15.10069 1.93559,3.47351 -5.84099,11.14243 -9.72562,12.4939 -1.31304,0 -3.80189,1.73199 -2.22073,2.35067 C 940.95168,722.72858 972.3093,687.61516 992,664 c 0.64558,-0.89063 0.45,-2 1,-2 0.55,0 1,1.77344 1,3.94098 0,2.09717 -7.30673,29.78669 -9.90837,34.01737 -1.40142,2.13882 -3.11787,3.09435 -1.82816,3.58926 2.87432,1.10298 20.11283,-13.50463 27.33153,-23.16035 38.6604,-51.70936 18.752,-46.78837 33.0169,-56.09123 1.5827,-1.03213 5.3881,9.15084 5.3881,14.6083 0,1.79429 0.3375,3.10025 0.75,2.90214 0.4125,-0.19811 2.6625,-1.24177 5,-2.31924 9.2694,-5.96819 19.8575,-8.89081 31.25,-9.91903 4.675,-0.27257 7.6,-0.24324 6.5,0.0652 -1.1,0.30842 -2.4275,0.96708 -2.95,1.46369 -0.5225,0.49662 -1.7661,0.90294 -2.7636,0.90294 -0.9974,0 -2.5949,0.3975 -3.55,0.88333 -0.955,0.48583 -3.0864,1.49761 -4.7364,2.2484 -9.4132,4.28327 -23.5,18.99097 -23.5,20.91155 0,1.40283 1.0929,1.88259 5.25,2.30472 7.1015,0.72111 12.9366,1.66435 14.75,2.38433 0.825,0.32754 3.4045,1.30927 5.7323,2.1816 4.9261,1.8461 15.3431,9.15506 14.6489,10.27827 -0.2606,0.42176 -1.2406,0.3813 -2.1776,-0.0899 -0.937,-0.47122 -3.435,-1.40701 -5.5511,-2.07952 -4.9219,-1.56418 -30.4131,-1.66211 -31.9525,-0.12276 -0.605,0.605 -2.1138,1.1 -3.3529,1.1 -3.5523,0 -15.4262,5.21378 -18.7857,8.24872 -1.0662,0.96321 -2.4912,1.75128 -3.1666,1.75128 -0.6755,0 -1.3781,0.37529 -1.5615,0.83398 -0.3998,1.00025 -20.0716,14.08655 -24.3333,16.18724 -3.1425,1.54902 -5.5,3.43817 -5.5,4.40735 0,0.31429 1.8,0.57143 4,0.57143 3.6508,0 8,3.0422 8,3.11129 0,0.70534 -1.1872,0.90073 -3.25,0.53488 -8.71533,-1.54573 -14.03945,-1.84004 -16.06012,-0.88778 -42.7783,20.15977 -52.95316,18.08253 -52.74489,20.58155 C 937.97525,727.703 938,728.45 938,729 c 0,0.55 0.57562,1 1.27916,1 1.6077,0 8.98038,7.0738 8.19316,7.86101 -0.31959,0.31959 -0.8941,0.1441 -1.27669,-0.38997 C 945.21984,736.10891 937.10594,732 935.39193,732 c -0.78049,0 -2.20046,-0.39684 -3.1555,-0.88187 -2.92845,-1.48726 -11.31753,-3.18604 -12.40737,-2.51248 -0.56594,0.34976 -3.57149,1.01667 -6.67902,1.48201 -3.10752,0.46535 -8.12504,1.32863 -11.15004,1.91842 -5.29184,1.03175 -9.33114,1.78185 -21.75,4.03899 -10.11114,1.83771 -19.48414,2.9444 -29.75,3.51266 -11.08893,0.61382 -12.00323,0.92514 -22,7.49099 -11.24758,7.38738 -10.98493,7.46982 -4.84665,-1.52123 0.74066,-1.08487 1.34665,-2.37216 1.34665,-2.86062 0,-0.91883 -13.44654,-0.35864 -32,1.33313 -5.775,0.52658 -15.45,1.22247 -21.5,1.54641 -6.65603,0.35639 -12.38217,1.21063 -14.5,2.16314 -3.60287,1.62042 -19,16.41659 -19,18.25842 0,0.56762 -0.45,1.03203 -1,1.03203 -0.55,0 -1,-0.65383 -1,-1.45295 z M 419.5,578.67785 c -1.65,-1.75158 -5.475,-6.10815 -8.5,-9.68127 -3.025,-3.57312 -5.7547,-6.72158 -6.066,-6.99658 -32.92577,-42.12266 -38.74795,-97.28327 -40.74986,-122.59751 -0.48269,-6.10364 -1.21493,-11.6433 -1.6272,-12.31036 -0.41227,-0.66706 -0.19587,-2.54962 0.48089,-4.18346 1.22205,-2.9503 1.2406,-2.95617 2.70978,-0.85862 0.86225,1.23104 1.87124,6.35375 2.41892,12.28098 3.55444,39.56535 10.03721,78.68751 31.95055,112.82334 1.03561,1.4599 1.88292,3.1099 1.88292,3.66667 0,0.55676 0.3375,1.16229 0.75,1.34563 0.4125,0.18333 2.31205,2.35833 4.22123,4.83333 6.89171,8.93421 16.38184,19.03012 19.52877,20.77534 l 2,1.10915 -2,1.52595 c -2.76634,2.11065 -3.56611,1.9127 -7,-1.73259 z m 14.00453,-27.93928 c -4.5954,-5.3801 -3.4585,-3.46358 -11.95892,-15.87455 -0.65543,-0.95695 -3.64284,-5.06229 -6.46867,-9.25 -5.58182,-8.2719 -5.23083,-9.18449 2.1592,-5.61402 6.72122,3.24734 8.33759,2.56875 4.76386,-2 -2.29987,-2.94022 -2.48517,-4 -0.69936,-4 1.83972,0 6.68222,-2.35194 6.69156,-3.25 0.23656,-0.18113 25.31812,5.85403 31.64189,11.89394 2.37793,2.27119 2.14963,3.35606 -0.70626,3.35606 -0.95635,0 -3.46885,0.87839 -5.58333,1.95197 C 444.92218,532.22825 440.5185,534 438.31217,534 436.66667,534 436,534.57666 436,536 c 0,1.1 0.35298,2 0.78439,2 0.43142,0 1.58906,1.36218 2.57253,3.02708 0.98348,1.66489 2.768,4.03559 3.96561,5.26823 5.36095,5.51775 5.36653,5.49923 -1.7682,5.86716 -5.2927,0.27294 -6.8332,4.4e-4 -8.0498,-1.4239 z m 298.79516,-76.16741 c -0.43983,-0.78587 -0.41544,-7.20038 0.11504,-14.25 C 735.05927,425.17761 724.84055,373.74391 706,346 c -2.23778,-5.24875 -5.85504,-8.91345 -9.02374,-13.5 -4.5691,-6.70486 -10.91306,-13.5 -12.60362,-13.5 -2.03217,0 -1.67622,-4.41068 0.57616,-7.13922 l 1.94879,-2.36078 2.32961,2.5 c 1.28128,1.375 3.42015,4.075 4.75302,6 1.33288,1.925 2.70636,3.725 3.05217,4 2.84693,2.26397 25.79556,36.06854 39.89272,79.82246 12.81844,39.78514 -2.99897,75.65474 -4.62542,72.7487 z M 700.99071,457.74878 C 699.6106,456.51195 697.88579,453.7 697.15779,451.5 c -1.87215,-5.65758 -4.05273,-10.31703 -5.14387,-10.9914 -0.87376,-0.54001 -4.90587,1.22028 -6.01392,2.62549 -0.79187,1.00424 -7.95857,4.86591 -9.03042,4.86591 -1.32918,0 -1.68562,-7.9269 -0.29463,-12.2896 6.71945,-21.07498 9.49974,-16.938 9.36053,-19.83594 -1.40525,-2.70862 -4.22009,-13.25858 -4.06868,-15.76239 0.3735,-6.1768 -0.26415,-6.59443 -3.07593,-6.31813 -1.00202,1.10722 -4.47084,3.33936 -6.04586,3.33936 -4.12699,0 -5.72573,-3.01205 -0.12741,-16.14844 5.98643,-14.04708 8.8512,-20.53009 9.60679,-20.36416 0.47659,0.10466 3.68569,6.04877 4.54992,8.55001 7.06106,18.7303 14.62386,44.52061 19.70289,57.33529 1.84239,4.64848 3.20448,11.04861 2.12038,12.13271 -0.66498,0.66498 -1.87336,6.71492 -1.87336,13.24001 0,11.76278 -1.31417,9.92021 -5.83351,5.87006 z"
       id="path2"
       sodipodi:nodetypes="sssssssssssssssssssssssssssssssssssssssssssssssaaasssssssssssssssccccsscssssssssssscsscsssssssssssssssssssssssssssssssssssssssssssssssssssssssssssssssssssscssssssssssssssssssssssssscssssssssssscscssssssss" />
    <path
       style="fill:#2a302f"
       d="m 655.26179,736.04872 c 2.77997,-2.41305 6.59531,-4.31316 8.70925,-6.03698 1.82399,-1.48738 -2.51477,-2.42849 -6.78778,-2.45096 -4.23244,-0.0223 -8.14397,1.01649 -8.18326,-1.50016 -0.0509,-3.25963 4.8375,-3.53705 10.75,-7.07068 5.9125,-3.53362 15.25,-9.77843 20.75,-13.87734 14.08426,-10.49639 30.50347,-21.57393 36.42358,-24.57388 l 5.03097,-2.54938 -0.87193,2.25533 c -0.47956,1.24043 -2.71933,6.43802 -4.97727,11.55019 C 712.2617,700.4972 711.24208,704 712.55259,704 c 0.30393,0 3.79143,-0.77578 7.75,-1.72396 4.97598,-1.19187 11.46529,-1.73199 21.02529,-1.75 12.56566,-0.0237 13.95812,0.15173 15.25469,1.9215 1.82902,2.49655 1.11373,4.67722 -3.88196,11.83485 -2.61042,3.74011 -3.69286,6.12536 -3.06475,6.75347 0.6281,0.6281 7.9572,-0.4361 20.75118,-3.01311 10.87905,-2.19129 22.6297,-4.27613 26.11255,-4.63295 l 6.33244,-0.64878 -2.39074,4.99547 c -1.99567,4.16996 -3.17988,5.33209 -7.16602,7.03242 -13.27946,5.66449 -29.182,8.23056 -51.01869,8.23247 -16.43564,10e-4 -42.16376,-1.399 -55.58308,-3.02551 -6.95387,-0.84286 -8.28489,-0.72716 -11.93783,1.03775 -2.26123,1.09251 -4.48171,1.98638 -4.9344,1.98638 -0.82453,0 -8.77507,3.35632 -12.0377,5.08171 -0.95504,0.50506 -6.80569,2.8616 -7.77565,2.84422 -1.4557,-0.0261 3.1643,-3.04609 5.27387,-4.87721 z m 170.20722,-22.53121 c -1.49363,-3.89234 9.99711,-17.08482 16.30773,-18.26871 10.55582,-1.98028 8.88139,12.00908 -2.09674,17.12022 -5.86135,2.7289 -13.36558,3.35159 -14.21099,1.14849 z m 49.85647,-5.97664 c -1.74599,-0.75947 -3.93698,-2.54451 -4.86888,-3.96676 -2.20012,-3.3578 -0.75285,-7.1703 4.53564,-11.94813 11.55824,-10.44218 27.7635,-14.43169 29.55919,-7.27708 1.36463,5.43711 -8.68701,17.94366 -17.85044,22.21004 -5.97356,2.78122 -7.02946,2.87237 -11.37551,0.98193 z m -96.00258,-5.14179 c -0.97917,-2.55167 3.75783,-4.6955 5.20417,-2.35528 0.81315,1.31571 -1.30989,3.9562 -3.1809,3.9562 -0.77492,0 -1.68539,-0.72042 -2.02327,-1.60092 z m 15.2938,0.67536 c -2.63641,-1.53557 -1.33826,-5.10807 2.09977,-8.00098 4.08718,-3.43913 8.01727,-3.76829 10.01671,-1.76885 2.11642,2.11642 1.641,6.63181 -2.28899,8.95331 -3.26379,1.92797 -7.3424,2.26395 -9.82749,0.81652 z M 605.5,697.94639 c -1.35165,-0.61706 -0.21704,-0.73314 3.5,-0.3581 16.89612,1.7048 35,-6.57159 35,-16.00064 0,-4.02666 -1.2401,-5.19063 -6.5,-6.10095 -11.75228,-2.03395 -24.34531,-7.00006 -26.86201,-10.59315 -1.99932,-2.85443 -2.1249,-9.79244 -0.25812,-14.26028 1.67033,-3.99767 8.5794,-9.84302 14.98155,-12.675 6.59806,-2.91863 16.84952,-3.62028 23.71858,-1.62339 9.53859,2.77294 13.04394,8.68451 11.45046,19.31055 -0.61959,4.13176 -1.64481,5.71696 -7.80849,12.0736 -6.54889,6.7539 -7.0223,7.52772 -6.14789,10.04917 2.88465,8.31814 19.94262,7.16591 32.9187,-0.0695 6.67466,-3.72176 22.56804,-19.97938 22.78931,-19.75811 0.81361,0.81361 -11.72894,13.08035 -21.55502,20.94721 -4.97318,3.98158 -25.5742,8.4605 -30.43569,5.95827 l -3.20863,-1.6515 -2.00825,3.40373 c -2.75992,4.67772 -9.96758,8.98963 -18.1301,10.84615 -7.45744,1.69616 -18.2739,1.94934 -21.4444,0.50194 z m 20.25,-46.26334 c 3.00619,-2.89971 4.25,-4.91652 4.25,-6.89126 0,-5.03198 -4.57718,-3.40264 -12.75,4.53863 -5.60921,5.45029 -6.25398,7.00835 -3.53089,8.53226 2.29462,1.28414 6.56941,-0.91159 12.03089,-6.17963 z m 31.26435,-7.15624 C 655.34529,641.40815 651,638.31446 651,640.24481 c 0,0.71001 1.17107,3.01431 2.60238,5.12067 1.85958,2.73661 2.90992,3.52222 3.6798,2.75234 0.76988,-0.76988 0.69343,-1.79487 -0.26783,-3.59101 z m 162.05454,51.06349 c -0.31927,-0.83201 1.05679,-2.54261 1.73562,-3.3606 1.74312,-2.10034 6.01971,-0.96961 6.01971,1.23998 0,3.59946 -6.58749,5.16396 -7.75533,2.12062 z M 938.66667,685.33333 C 934.70995,681.37662 946.13136,666 953.02704,666 c 5.50326,0 5.68362,5.75736 0.39748,12.68785 -4.32573,5.67132 -12.1905,9.21284 -14.75785,6.64548 z m -17,-3 c -1.08655,-1.08654 -0.76018,-4.83982 0.53333,-6.13333 1.7107,-1.7107 5.47702,-1.48406 6.18943,0.37244 1.33688,3.48386 -4.22968,8.25398 -6.72276,5.76089 z M 574.5,678 c -0.33992,-0.55 -0.14148,-1 0.44098,-1 0.58246,0 1.05902,0.45 1.05902,1 0,0.55 -0.19844,1 -0.44098,1 -0.24254,0 -0.7191,-0.45 -1.05902,-1 z m -5.5,-1 c 0,-0.55 0.675,-1 1.5,-1 0.825,0 1.5,0.45 1.5,1 0,0.55 -0.675,1 -1.5,1 -0.825,0 -1.5,-0.45 -1.5,-1 z m 7.02896,-1.96094 c -0.80907,-0.51167 -1.21098,-1.19037 -0.89313,-1.50823 0.78775,-0.78775 3.86417,0.46709 3.86417,1.57616 0,1.13978 -1.10118,1.11461 -2.97104,-0.0679 z M 570.5,674 c -1.77225,-0.76156 -1.68684,-0.86743 0.75,-0.92971 1.5125,-0.0387 2.75,0.37971 2.75,0.92971 0,1.17371 -0.76862,1.17371 -3.5,0 z m 2.24395,-40.5688 c -7.17961,-3.73722 -16.27593,-5.76503 -22.80128,-5.083 -3.07343,0.32124 -11.91805,1.74707 -19.65471,3.16852 -8.45027,1.55256 -16.60628,2.46444 -20.42731,2.28387 L 503.5,633.5 l 8.52527,-1.71968 c 4.6889,-0.94582 14.8139,-3.58243 22.5,-5.85913 12.65315,-3.748 15.37327,-4.20007 28.76319,-4.78033 15.78063,-0.68386 17.17879,-1.18688 16.37388,-5.89086 -0.21175,-1.2375 -0.2822,-2.25 -0.15655,-2.25 0.12564,0 1.41324,1.79035 2.86132,3.97856 3.01633,4.55798 3.54573,8.30896 1.03682,7.3462 -1.37603,-0.52803 -1.54836,0.23483 -1.25,5.53321 0.33739,5.99151 0.28336,6.14446 -2.15393,6.09729 -1.375,-0.0266 -4.64022,-1.16244 -7.25605,-2.52406 z m 74.32634,-33.25901 c 0.0595,-2.2632 0.18581,-2.37728 0.82513,-0.7453 0.70047,1.78807 0.80346,1.80019 1.42971,0.16821 0.37118,-0.96727 0.67487,-2.6008 0.67487,-3.63007 0,-2.12157 11.53465,-12.45762 18.17698,-16.28816 2.37766,-1.37117 9.49802,-4.59015 15.82302,-7.1533 12.86394,-5.213 18.45367,-8.22698 23.53974,-12.6926 5.17299,-4.54195 4.17381,-1.44648 -1.28974,3.99563 -3.25729,3.2445 -8.9813,6.91089 -18.21451,11.66689 -15.46452,7.96573 -19.8939,11.83941 -22.98514,20.10147 -1.62424,4.34119 -7.73732,15.45647 -8.46876,15.39858 -3.09381,-3.12641 -9.32273,-5.87039 -9.5113,-10.82135 z M 487,470.15145 c -3.025,-1.51769 -8.425,-4.57662 -12,-6.79761 -27.02606,-16.7901 -64.97979,-31.70377 -98.5,-38.70493 -7.86455,-1.64262 -11.08506,-2.73829 -11.29842,-3.84391 -0.43041,-2.23031 2.70058,-2.77583 16.02079,-2.79135 10.40147,-0.0121 13.44388,0.42846 27,3.90987 29.39496,7.54905 57.67979,17.88979 72.27763,26.42421 7.00323,4.09434 19.5,15.41216 19.5,17.66037 0,0.80062 -1.48078,1.07552 -4.5,0.83539 -5.01552,-0.3989 -4.90635,-0.47129 -3.43515,2.27769 1.90579,3.56099 0.53502,3.83982 -5.06485,1.03027 z m 405.75908,-32.57438 c -4.82483,-1.722 -8.72726,-4.29362 -8.87756,-5.85012 -0.42474,-4.39842 1.02248,-5.68986 6.4006,-5.71164 7.1306,-0.0289 14.71788,4.40687 14.71788,8.60449 0,4.1868 -5.24534,5.45401 -12.24092,2.95727 z M 789.5,424.47494 c -1.65,-0.74944 -5.3625,-1.86979 -8.25,-2.48968 -3.35848,-0.72099 -5.25,-1.64195 -5.25,-2.55616 0,-3.11064 14.86832,-0.55183 19.22642,3.30883 3.48867,3.09047 -0.24988,4.22449 -5.72642,1.73701 z m -172.94296,-1.65466 c 0.59774,-1.88331 0.34784,-1.98 -3.45636,-1.33729 C 609.98902,422.0087 609,421.85142 609,420.83087 c 0,-2.20871 4.58532,-17.92125 6.94185,-23.78767 4.56191,-11.35655 15.65093,-29.70286 26.92315,-44.5432 6.13878,-8.08195 26.15752,-28.53142 33.885,-34.61408 l 6.25,-4.91966 v 2.89187 c 0,6.86345 -1.32083,9.38091 -9.54224,18.18712 -10.06334,10.77915 -15.22128,17.42563 -23.63415,30.45475 -10.79032,16.71113 -16.246,27.85133 -26.41064,53.92917 -1.48163,3.80118 -2.55964,5.09988 -4.71078,5.67519 -2.48872,0.66558 -2.72001,0.52714 -2.14515,-1.28408 z M 814.25,415.01096 C 809.68883,412.22996 809.96258,410 814.86514,410 c 4.12413,0 9.13486,3.05672 9.13486,5.57258 0,2.12827 -5.89521,1.78869 -9.75,-0.56162 z M 847,410.29681 c -8.26249,-1.34235 -19.38535,-6.2798 -21.01764,-9.32976 -0.95454,-1.78358 -0.6628,-2.20262 2.43445,-3.49674 10.29025,-4.29954 32.31179,2.508 30.14968,9.3202 -0.63105,1.98827 -2.14534,2.71953 -7.56649,3.65392 -0.825,0.1422 -2.625,0.0758 -4,-0.14762 z m -86.84839,-12.18195 c -1.83392,-1.1622 -1.04755,-4.51122 1.15904,-4.93617 0.98323,-0.18935 2.92068,0.39809 4.30544,1.30542 2.02778,1.32865 2.28629,1.92859 1.32839,3.08279 -1.31972,1.59016 -4.71601,1.86413 -6.79287,0.54796 z"
       id="path1"
       sodipodi:nodetypes="ssssssscsssssssssscsscsssssssssssssssssssssssssssssssssssssssscsssssssssssssssssssssssssssssssssssssssssssssssscsssssssssssssssssssscsssssssssssssssssssssssssssscsssssssssscsssscsssss" />
  </g>
</svg>
